<?xml version="1.0" encoding="UTF-8" standalone="no"?> <svg xmlns:dc="http://purl.org/dc/elements/1.1/" xmlns:cc="http://creativecommons.org/ns#" xmlns:rdf="http://www.w3.org/1999/02/22-rdf-syntax-ns#" xmlns:svg="http://www.w3.org/2000/svg" xmlns="http://www.w3.org/2000/svg" xmlns:sodipodi="http://sodipodi.sourceforge.net/DTD/sodipodi-0.dtd" xmlns:inkscape="http://www.inkscape.org/namespaces/inkscape" inkscape:export-ydpi="78.814178" inkscape:export-xdpi="78.814178" inkscape:export-filename="/home/russs/Documents/GEA NextCloud/Vision Ecobrick Source Files/GEA Logos/GEA Logos/Emblem with Perspective/2020 GEA Logo with perspective - white- 500px.png" sodipodi:docname="2020 GEA Logo with perspective - white.svg" inkscape:version="1.0 (6e3e5246a0, 2020-05-07)" id="svg92220" version="1.1" viewBox="0 0 161.15782 171.45138" height="171.45139mm" width="161.15782mm"><defs id="defs92214"><filter id="filter92872" inkscape:label="Drop Shadow" style="color-interpolation-filters:sRGB"><feFlood id="feFlood92862" result="flood" flood-color="rgb(0,0,0)" flood-opacity="0.262745"></feFlood><feComposite id="feComposite92864" result="composite1" operator="in" in2="SourceGraphic" in="flood"></feComposite><feGaussianBlur id="feGaussianBlur92866" result="blur" stdDeviation="6.95187" in="composite1"></feGaussianBlur><feOffset id="feOffset92868" result="offset" dy="-0.5" dx="-2.77556e-17"></feOffset><feComposite id="feComposite92870" result="composite2" operator="atop" in2="offset" in="offset"></feComposite></filter><filter height="1.0001144" y="-5.7241778e-05" width="1.0001218" x="-6.0898401e-05" id="filter5658" style="color-interpolation-filters:sRGB" inkscape:collect="always"><feGaussianBlur id="feGaussianBlur5660" stdDeviation="0.0040887744" inkscape:collect="always"></feGaussianBlur></filter></defs><metadata id="metadata92217"></metadata><g transform="translate(35.049934,-50.924758)" id="layer1" inkscape:groupmode="layer" inkscape:label="Layer 1"><path transform="matrix(0.86465308,0,0,0.86465308,6.162207,18.495218)" inkscape:export-ydpi="78.814186" inkscape:export-xdpi="78.814186" id="path5546" d="m 40.783996,222.32772 c -0.0532,-0.0508 -0.60737,-0.15324 -1.23142,-0.22773 -3.20968,-0.38311 -8.00988,-2.27139 -11.4849,-4.51788 -2.15102,-1.39056 -6.283293,-5.22523 -8.171343,-7.58285 -2.78161,-3.47342 -5.05392,-7.67834 -6.52434,-12.07333 -1.68959,-5.05007 -2.21999,-7.74692 -2.6168,-13.30532 -0.66507,-9.31603 1.02952,-17.74125 5.16436,-25.6763 3.21745,-6.17451 7.587113,-11.23892 12.690893,-14.70867 4.43086,-3.01226 8.67991,-4.58118 13.766059,-5.08295 14.33179,-1.41391 27.52817,8.25642 33.21869,24.34272 5.15412,14.56999 3.12157,31.01936 -5.42496,43.90414 -2.50388,3.77484 -7.1255,8.13855 -11.62781,10.97889 -1.20694,0.76141 -5.47118,2.6078 -6.74612,2.92102 -3.2687,0.80304 -4.32003,0.94868 -7.43424,1.02983 -1.9147,0.0499 -3.524829,0.0492 -3.578069,-10e-4 z m 9.946309,-34.90625 c 2.7813,-1.30734 5.25201,-4.28022 6.31003,-7.59258 0.57732,-1.8074 0.65098,-6.62845 0.13176,-8.62342 -0.8409,-3.23092 -3.62949,-6.79896 -6.27188,-8.02493 -1.07347,-0.49805 -1.65413,-0.59154 -3.69373,-0.59472 -2.07545,-0.003 -2.61953,0.0856 -3.8211,0.62352 -4.927739,2.20626 -7.965989,9.56525 -6.476929,15.68785 0.54023,2.22127 1.86425,4.88353 3.05243,6.13765 2.986709,3.15245 7.168549,4.07919 10.769419,2.38663 z m 53.283235,7.49432 c -8.286305,-2.05939 -17.110175,-10.59471 -21.498395,-20.79536 -0.25864,-0.60121 -0.56368,-1.31173 -0.67786,-1.57894 -2.09377,-4.89943 -3.32086,-10.70776 -3.43836,-16.27519 -0.10613,-5.02864 0.29551,-7.90004 1.63458,-11.68589 2.32096,-6.56188 6.15887,-10.60588 11.75251,-12.38361 2.23687,-0.7109 6.37649,-0.60167 9.298015,0.24534 11.6995,3.39195 22.00926,17.08997 24.60436,32.6905 0.59711,3.5895 0.53065,10.73518 -0.12851,13.81786 -1.58526,7.41375 -5.55271,13.02472 -10.78685,15.25532 -3.26185,1.39008 -7.02408,1.63834 -10.75949,0.70997 z m 2.64487,-24.91405 c 1.19643,-0.43376 2.66286,-1.94087 3.18614,-3.27453 2.4002,-6.11726 -2.32181,-15.68086 -8.0625,-16.3292 -3.563375,-0.40243 -5.847875,2.03728 -6.117815,6.53347 -0.39417,6.5653 4.32964,13.23391 9.415365,13.29167 0.51629,0.006 1.22675,-0.0938 1.57881,-0.22141 z M -2.9773373,151.36872 c -3.6065,-0.4363 -5.27281,-0.71646 -7.00535,-1.17786 -6.6565597,-1.7727 -11.7579497,-4.71983 -16.6043097,-9.59246 -2.25607,-2.2683 -3.13471,-3.43883 -4.74081,-6.31575 -3.18366,-5.70269 -4.23401,-11.21052 -3.47784,-18.23708 0.31672,-2.9431 1.77594,-7.43033 3.28227,-10.09332 5.05207,-8.931364 14.72823,-15.634974 25.2288397,-17.478433 4.97162,-0.872807 11.34686,-0.711321 16.18158,0.409882 11.1122503,2.576997 20.4678433,10.448687 24.0611433,20.244771 1.42196,3.87656 1.8439,6.18581 1.84424,10.09356 7.7e-4,8.28047 -3.03012,15.2292 -9.45428,21.67543 -6.711633,6.73468 -16.5778333,10.64735 -26.64071326,10.56498 -1.12085004,-0.009 -2.32450004,-0.0514 -2.67477004,-0.0937 z m 9.29802,-25.67614 c 4.4537103,-1.1373 7.3466503,-4.05643 8.0511003,-8.12397 0.56679,-3.27274 -0.52836,-6.17368 -3.19955,-8.47528 -2.2452503,-1.93459 -4.6619303,-2.7457 -8.1807103,-2.7457 -5.48874,0 -10.18424,4.24476 -10.50295,9.49473 -0.13049,2.14948 0.23232,3.44598 1.5455,5.52285 0.80721,1.27663 3.15562,3.2234 4.51703,3.74448 2.41915004,0.92594 5.5163,1.15829 7.76958,0.58289 z m 59.9321523,15.01968 c -0.0375,-0.0312 -0.58406,-0.11721 -1.21454,-0.19116 -10.81136,-1.26806 -21.60494,-10.53622 -25.315899,-21.73809 -2.25321,-6.80152 -2.11564,-13.42099 0.38906,-18.72061 2.275199,-4.814024 7.103569,-8.753154 12.444569,-10.152675 2.57953,-0.67592 7.5625,-0.572779 10.7032,0.221541 10.0271,2.53598 18.70356,10.695094 22.31383,20.983344 1.20442,3.43225 1.65129,5.97326 1.66075,9.44344 0.0127,4.64788 -0.90675,7.88241 -3.37284,11.8656 -2.15942,3.48788 -6.61051,6.63977 -10.84811,7.68173 -1.60947,0.39575 -6.48725,0.83365 -6.76002,0.60688 z m 1.78684,-20.41001 c 4.70551,-1.87434 4.78109,-8.81459 0.14156,-12.99874 -1.92368,-1.73487 -3.73041,-2.473 -5.97352,-2.44044 -3.80551,0.0552 -5.94168,2.35053 -5.92772,6.36926 0.006,1.60569 0.1246,2.08559 0.90685,3.65632 0.49524,0.99441 1.28942,2.23087 1.76486,2.74768 0.92342,1.00379 2.92299,2.31797 4.17604,2.74462 1.15602,0.39361 3.83393,0.35071 4.91193,-0.0787 z m 42.342375,13.0037 c -4.40372,-0.73303 -8.83973,-3.2405 -13.252615,-7.49109 -6.86038,-6.60806 -10.75388,-14.77142 -10.73307,-22.50365 0.0211,-7.851004 4.32611,-12.752954 11.19989,-12.752954 10.762475,0 23.030915,11.733024 26.197885,25.054564 0.28166,1.18477 0.42615,2.89295 0.42858,5.06669 0.003,2.89654 -0.0748,3.50617 -0.66845,5.22264 -0.79434,2.29665 -1.74243,3.79483 -3.18309,5.02993 -2.57778,2.20995 -6.0363,3.03186 -9.98913,2.37387 z m -0.3308,-16.74613 c 1.2919,-0.75114 1.68366,-1.73038 1.55195,-3.87915 -0.14414,-2.35154 -1.18231,-4.50907 -3.07221,-6.38468 -1.82441,-1.81061 -3.19971,-2.46928 -5.19055,-2.48589 -1.21728,-0.0101 -1.69171,0.0948 -2.13677,0.47276 -1.914815,1.62615 -1.624945,5.46842 0.66024,8.75135 2.23448,3.2101 5.9662,4.81704 8.18734,3.52561 z M 76.501605,93.244076 c -6.94892,-1.70259 -13.69552,-6.40294 -17.95758,-12.511036 -6.53115,-9.359982 -5.73033,-18.748295 1.8942,-22.206475 1.7627,-0.799485 2.10335,-0.866917 4.85165,-0.960354 3.75511,-0.127668 6.35989,0.439299 10.32014,2.246333 7.70159,3.514175 13.99141,10.340645 16.46694,17.871901 0.80271,2.442092 0.86421,7.217186 0.11764,9.134641 -1.11721,2.869367 -3.37736,5.10472 -6.24701,6.17844 -2.06582,0.77297 -6.79381,0.89637 -9.44598,0.24655 z m 1.76508,-13.556563 c 1.36263,-0.662568 1.91532,-1.558675 1.89243,-3.068354 -0.0543,-3.583454 -4.0199,-7.458793 -8.02202,-7.839467 -1.15365,-0.109734 -1.50637,-0.04031 -2.25873,0.444563 -2.27522,1.466307 -2.2582,4.180639 0.0457,7.299259 1.26885,1.717501 4.6726,3.571818 6.57749,3.58333 0.49038,0.003 1.28466,-0.185736 1.76508,-0.419331 z M 30.138896,92.622426 c -2.84182,-0.40914 -4.30672,-0.73897 -6.62325,-1.49125 -5.096933,-1.655209 -9.727083,-4.499509 -13.6400033,-8.379062 -3.38761,-3.358716 -5.01437,-5.844814 -6.49537,-9.926525 -1.48063,-4.080729 -1.32526,-9.056518 0.39301,-12.586094 2.71569,-5.578401 9.6452303,-9.273428 17.4497003,-9.304666 11.969263,-0.04791 23.883822,6.58253 29.231082,16.267068 4.30204,7.791501 3.58832,15.137437 -1.98728,20.454179 -3.10672,2.96248 -6.98785,4.55528 -12.430789,5.10155 -2.68875,0.26985 -3.15848,0.25908 -5.8971,-0.1352 z m 4.20321,-16.402525 c 1.22485,-0.505825 2.0049,-1.268536 2.53524,-2.4789 1.56591,-3.573747 -2.33132,-8.612367 -7.45153,-9.633883 -1.97545,-0.394116 -3.68121,-0.33014 -4.9424,0.185369 -2.118763,0.866043 -3.511323,3.135055 -3.136313,5.110267 0.99888,5.261193 7.942373,8.903734 12.995003,6.817147 z" style="fill:#ffffff;stroke-width:0.248756;filter:url(#filter5658)"></path></g></svg> 