<?xml version="1.0" encoding="UTF-8" standalone="no"?>
<svg
   xmlns:dc="http://purl.org/dc/elements/1.1/"
   xmlns:cc="http://creativecommons.org/ns#"
   xmlns:rdf="http://www.w3.org/1999/02/22-rdf-syntax-ns#"
   xmlns:svg="http://www.w3.org/2000/svg"
   xmlns="http://www.w3.org/2000/svg"
   xmlns:xlink="http://www.w3.org/1999/xlink"
   xmlns:sodipodi="http://sodipodi.sourceforge.net/DTD/sodipodi-0.dtd"
   xmlns:inkscape="http://www.inkscape.org/namespaces/inkscape"
   inkscape:export-ydpi="255"
   inkscape:export-xdpi="255"
   inkscape:export-filename="/home/russs/Documents/GEA NextCloud/Vision Ecobrick Source Files/Graphics/Brikcoin Graphics/Brikcoin Coins/Brikcoin Horizontal display - 750px.png"
   sodipodi:docname="3brikcoins.svg"
   inkscape:version="1.0 (6e3e5246a0, 2020-05-07)"
   id="svg8197"
   version="1.1"
   viewBox="0 0 99.263832 36.539619"
   height="36.539619mm"
   width="99.263832mm">
  <defs
     id="defs8191">
    <linearGradient
       y2="137.86749"
       x2="32.502792"
       y1="101.39285"
       x1="70.701317"
       gradientTransform="matrix(0.68681924,0,0,0.80246826,7.4068384,-88.476882)"
       gradientUnits="userSpaceOnUse"
       id="linearGradient3889"
       xlink:href="#linearGradient52632"
       inkscape:collect="always" />
    <linearGradient
       id="linearGradient52632"
       inkscape:collect="always">
      <stop
         id="stop52628"
         offset="0"
         style="stop-color:#ffff00;stop-opacity:1;" />
      <stop
         id="stop52630"
         offset="1"
         style="stop-color:#fffff7;stop-opacity:1" />
    </linearGradient>
    <linearGradient
       y2="137.86749"
       x2="32.502792"
       y1="101.39285"
       x1="70.701317"
       gradientTransform="matrix(0.68681924,0,0,0.80246826,7.1454642,24.937783)"
       gradientUnits="userSpaceOnUse"
       id="linearGradient3887"
       xlink:href="#linearGradient52632"
       inkscape:collect="always" />
    <linearGradient
       y2="143.5435"
       x2="111.38955"
       y1="89.878647"
       x1="91.161179"
       gradientTransform="matrix(0.71899075,0,0,0.66002501,31.928032,-106.45026)"
       gradientUnits="userSpaceOnUse"
       id="linearGradient3891"
       xlink:href="#linearGradient52632"
       inkscape:collect="always" />
  </defs>
  <sodipodi:namedview
     inkscape:document-rotation="0"
     inkscape:window-maximized="1"
     inkscape:window-y="34"
     inkscape:window-x="72"
     inkscape:window-height="1009"
     inkscape:window-width="1848"
     fit-margin-bottom="0"
     fit-margin-right="0"
     fit-margin-left="0"
     fit-margin-top="0"
     showgrid="false"
     inkscape:current-layer="layer1"
     inkscape:document-units="mm"
     inkscape:cy="30.010759"
     inkscape:cx="103.93616"
     inkscape:zoom="0.94765373"
     inkscape:pageshadow="2"
     inkscape:pageopacity="0.0"
     borderopacity="1.0"
     bordercolor="#666666"
     pagecolor="#ffffff"
     id="base" />
  <metadata
     id="metadata8194">
    <rdf:RDF>
      <cc:Work
         rdf:about="">
        <dc:format>image/svg+xml</dc:format>
        <dc:type
           rdf:resource="http://purl.org/dc/dcmitype/StillImage" />
        <dc:title></dc:title>
      </cc:Work>
    </rdf:RDF>
  </metadata>
  <g
     transform="translate(-26.719273,-65.551619)"
     id="layer1"
     inkscape:groupmode="layer"
     inkscape:label="Layer 1">
    <g
       inkscape:export-ydpi="102.18499"
       inkscape:export-xdpi="102.18499"
       inkscape:export-filename="/home/russs/Documents/Dropbox/Vision Ecobrick Source FIles/Brikcoins/coin iconography/three-coins-v3-300px.png"
       transform="translate(-27.7112,117.63633)"
       id="g3986">
      <path
         transform="matrix(1.0225551,0,0,0.81655129,27.261331,-37.518681)"
         sodipodi:nodetypes="cccsccccccccc"
         inkscape:connector-curvature="0"
         id="path3841"
         d="m 55.242417,-5.0673954 c -5.42219,-3.70404 -10.388511,-4.68019 -15.255567,-5.0623296 -8.836087,1.3073096 -9.314547,4.1691796 -11.110406,6.7859796 0,0 -2.431245,4.30156996 -2.30158,5.57353 0.129664,1.27196 0.182845,1.41508 0.182845,1.41508 1.329125,2.48515 0.230174,2.42596 4.240443,7.7206604 2.180844,3.11176 5.011925,5.01232 8.272634,6.11265 l 7.831271,1.92511 6.874951,-0.87943 4.871918,-3.73214 3.108186,-5.9408404 -0.144005,-4.77168 c -1.53761,-4.29268004 -4.137867,-6.56004 -6.57069,-9.14659 z"
         style="opacity:0.97000002;fill:url(#linearGradient3889);fill-opacity:1;stroke:none;stroke-width:0.15507576px;stroke-linecap:butt;stroke-linejoin:miter;stroke-opacity:1" />
      <path
         transform="matrix(1.0225551,0,0,0.81655129,27.261331,-37.518681)"
         sodipodi:nodetypes="ccccccccccccc"
         inkscape:connector-curvature="0"
         id="path3843"
         d="m 27.868845,-1.2943554 c -1.182256,1.59692996 -1.744074,3.85984 0.271918,8.88983 l 7.676703,8.2606404 7.703273,3.4413 c 4.039839,-0.158525 9.682829,-0.02983 10.456269,-0.77356 l 5.567382,-2.324557 0.617301,-3.351273 -5.250039,3.16523 -5.735359,0.88005 -6.486219,-1.46708 c -3.477715,-0.80327 -6.080087,-2.65623 -8.448343,-4.78995 C 32.21731,8.5503046 30.183769,6.4698846 29.445734,3.6022646 Z"
         style="opacity:0.97000002;fill:#ffdd55;stroke:none;stroke-width:0.15507576px;stroke-linecap:butt;stroke-linejoin:miter;stroke-opacity:1" />
      <g
         id="g3839"
         transform="matrix(-1.0225551,0,0,-0.81655129,180.59618,62.870659)"
         style="opacity:0.97000002"
         inkscape:export-filename="/home/russs/Dropbox/Vision Ecobrick Source FIles/GoBrik Development/Page Featured Banners/BrikCoin Elements/three brikcoins yellow3.png"
         inkscape:export-xdpi="76.484322"
         inkscape:export-ydpi="76.484322">
        <path
           style="fill:url(#linearGradient3887);fill-opacity:1;stroke:none;stroke-width:0.15507576px;stroke-linecap:butt;stroke-linejoin:miter;stroke-opacity:1"
           d="m 54.981043,108.34727 c -5.42219,-3.70404 -10.388511,-4.68019 -15.255567,-5.06233 -8.836087,1.30731 -9.314547,4.16918 -11.110406,6.78598 0,0 -2.431245,4.30157 -2.30158,5.57353 0.129664,1.27196 0.182845,1.41508 0.182845,1.41508 1.329125,2.48515 0.230174,2.42596 4.240443,7.72066 2.180844,3.11176 5.011925,5.01232 8.272634,6.11265 l 7.831271,1.92511 6.874951,-0.87943 4.871918,-3.73214 3.108186,-5.94084 -0.144005,-4.77168 c -1.53761,-4.29268 -4.137867,-6.56004 -6.57069,-9.14659 z"
           id="path3819"
           inkscape:connector-curvature="0"
           sodipodi:nodetypes="cccsccccccccc" />
        <path
           style="fill:#ffdf59;fill-opacity:1;stroke:none;stroke-width:0.15507576px;stroke-linecap:butt;stroke-linejoin:miter;stroke-opacity:1"
           d="m 27.607471,112.12031 c -1.182256,1.59693 -1.744074,3.85984 0.271918,8.88983 l 7.676703,8.26064 9.402205,3.4413 8.39164,-0.58382 5.671705,-4.31453 0.878675,-1.55104 -5.250039,3.16523 -5.735359,0.88005 -6.486219,-1.46708 c -3.477715,-0.80327 -6.080087,-2.65623 -8.448343,-4.78995 -2.024421,-2.08597 -4.057962,-4.16639 -4.795997,-7.03401 z"
           id="path3821"
           inkscape:connector-curvature="0"
           sodipodi:nodetypes="ccccccccccccc" />
      </g>
      <path
         style="opacity:0.97000002;fill:url(#linearGradient3891);fill-opacity:1;stroke:none;stroke-width:0.18226543px;stroke-linecap:butt;stroke-linejoin:miter;stroke-opacity:1"
         d="m 94.669682,-48.547622 c -5.852959,4.162381 -8.16424,8.898502 -9.7043,13.759561 -0.27056,9.590134 3.23713,11.176326 6.14925,14.024164 0,0 4.900189,4.145506 6.533592,4.498316 1.6334,0.352811 1.825559,0.352811 1.825559,0.352811 3.425177,-0.417419 3.111627,0.690529 10.665127,-1.411242 4.40103,-1.054126 6.06308,-4.359692 8.16036,-7.293656 l 2.93448,-4.427912 0.97647,-9.359493 -3.12526,-4.935462 -5.39101,-6.794727 -6.05318,-1.675844 c -5.75155,-0.05903 -9.178116,1.749365 -12.971088,3.263484 z"
         id="path3861"
         inkscape:connector-curvature="0"
         sodipodi:nodetypes="cccsccccccccc"
         inkscape:export-filename="/home/russs/Dropbox/Vision Ecobrick Source FIles/GoBrik Development/Page Featured Banners/BrikCoin Elements/three brikcoins yellow3.png"
         inkscape:export-xdpi="76.484322"
         inkscape:export-ydpi="76.484322" />
      <path
         style="opacity:0.97000002;fill:#ffdd55;fill-opacity:0.97254902;stroke:none;stroke-width:0.17758584px;stroke-linecap:butt;stroke-linejoin:miter;stroke-opacity:1"
         d="m 94.503012,-18.499685 c 1.579497,1.930488 3.467674,1.978498 9.563398,1.818619 2.40067,-0.202927 7.52075,-2.285987 11.43061,-3.532328 l 5.73673,-8.832186 0.97647,-9.359493 -4.45197,-7.508509 -1.92085,-1.247797 3.56548,6.251659 -0.12206,6.59118 -2.92939,6.459371 c -1.58957,3.456581 -4.19819,5.537431 -7.07938,7.250306 -1.8622,0.884442 -5.11352,2.516731 -8.91025,2.372824 z"
         id="path3863"
         inkscape:connector-curvature="0"
         sodipodi:nodetypes="ccccccccccccc"
         inkscape:export-filename="/home/russs/Dropbox/Vision Ecobrick Source FIles/GoBrik Development/Page Featured Banners/BrikCoin Elements/three brikcoins yellow3.png"
         inkscape:export-xdpi="76.484322"
         inkscape:export-ydpi="76.484322" />
      <path
         inkscape:export-ydpi="53"
         inkscape:export-xdpi="53"
         inkscape:export-filename="/home/russs/Documents/Dropbox/Vision Ecobrick Source FIles/Brikcoins/coin iconography/three-coins-v3-300px.png"
         style="fill:#d45a03;fill-opacity:1;stroke-width:0.13236061"
         d="m 99.656132,-15.743165 c -2.019038,-0.28607 -2.724835,-0.490669 -4.159446,-1.205761 -1.359696,-0.677749 -1.968645,-1.068758 -3.078003,-1.976409 -1.187495,-0.971571 -3.855916,-3.70985 -4.419574,-4.53527 -0.238855,-0.349772 -0.473845,-0.61775 -0.522205,-0.595501 -0.04836,0.0222 -0.527521,0.33124 -1.064805,0.686631 -2.509587,1.66002 -5.126779,2.331699 -9.085324,2.331699 -5.19284,0 -10.608732,-1.355879 -14.334421,-3.588668 -2.965056,-1.776941 -5.959021,-4.583411 -7.276604,-6.820921 -0.470475,-0.79895 -1.218381,-3.32568 -1.218381,-4.116181 0,-2.464159 2.801958,-6.263339 5.913976,-8.018769 4.187372,-2.36201 10.24691,-2.843028 16.134857,-1.2808 3.271079,0.8679 6.712203,2.49027 9.235037,4.353989 l 0.72711,0.537151 0.527677,-0.956291 c 2.940743,-5.329447 8.74109,-9.416602 15.375874,-10.834465 2.00172,-0.427769 5.0141,-0.429536 6.64659,-0.0039 4.26647,1.11239 8.5022,4.117766 11.26988,7.996326 l 0.6176,0.86549 1.07138,-0.64392 c 1.22995,-0.73922 2.68989,-1.33153 4.25498,-1.72627 1.58395,-0.39951 5.73171,-0.49747 8.10466,-0.19143 7.07416,0.91236 11.67323,3.10108 15.96882,7.59963 0.76873,0.805049 1.61813,1.85274 1.93461,2.38622 0.62382,1.05157 1.35504,3.39094 1.35504,4.33514 0,1.48234 -1.11445,3.66058 -2.85842,5.586929 -1.97837,2.18526 -4.95738,3.68749 -8.59077,4.332092 -1.6278,0.288779 -5.53369,0.33119 -7.27984,0.079 -4.63977,-0.67002 -9.65341,-2.749261 -12.97134,-5.37944 -0.848,-0.67223 -0.81779,-0.67626 -1.24288,0.16584 -1.2398,2.456031 -3.52365,5.059351 -5.80831,6.620811 -1.57923,1.07932 -4.30431,2.395669 -6.34045,3.06275 -3.38186,1.107959 -5.83862,1.366218 -8.887318,0.934268 z m 3.894848,-1.392909 c -0.9603,-0.848051 -2.10218,-1.190712 -2.91029,-0.873342 -0.22007,0.0864 -0.18404,0.153482 0.3095,0.57594 0.64518,0.552241 1.20889,0.732962 2.32206,0.74441 l 0.79416,0.008 -0.51543,-0.455182 z m -4.315726,-0.0515 c 0,-0.0663 -0.177469,-0.269931 -0.394372,-0.45244 -0.302686,-0.254691 -0.602715,-0.350589 -1.290516,-0.41247 -0.492879,-0.0443 -1.09947,-0.106611 -1.347983,-0.13838 -0.760547,-0.0972 -0.294426,0.158999 1.182029,0.649708 1.442998,0.479603 1.850842,0.557512 1.850842,0.353582 z m 7.568956,-0.0954 c 0.42337,-0.11879 0.76744,-0.252809 0.7646,-0.29781 -0.003,-0.045 -0.32516,-0.437801 -0.71626,-0.872868 l -0.7111,-0.791041 -1.03685,0.305049 c -0.57026,0.16777 -1.06286,0.331052 -1.09465,0.362849 -0.087,0.087 0.79465,0.977792 1.24771,1.260782 0.48474,0.30279 0.57807,0.304779 1.54655,0.033 z m 3.4094,-1.189138 c 0.51375,-0.190431 0.93369,-0.384011 0.93319,-0.43017 -5.3e-4,-0.0462 -0.19509,-0.216123 -0.43243,-0.377682 -0.23734,-0.161568 -0.65896,-0.526659 -0.93692,-0.811319 l -0.5054,-0.51758 -0.91742,0.40763 c -0.50459,0.2242 -0.90155,0.453631 -0.88214,0.50986 0.0796,0.230658 1.47202,1.5655 1.633,1.5655 0.0957,0 0.59436,-0.155811 1.10812,-0.346239 z m -7.65958,-1.057381 c 2.95241,-0.50255 7.09485,-2.287251 9.49276,-4.089799 2.42171,-1.820432 4.84482,-5.369271 5.96833,-8.741101 0.70265,-2.10878 0.87568,-3.21919 0.87568,-5.619571 0,-1.87408 -0.0424,-2.33016 -0.29869,-3.214439 -1.05468,-3.63862 -4.37825,-7.397456 -7.81103,-8.833985 -2.38401,-0.997648 -7.33154,-0.870371 -10.75567,0.276693 -7.038947,2.358004 -12.402496,8.391481 -13.506454,15.193482 -0.332237,2.04706 -0.101537,5.10684 0.521541,6.9172 0.676672,1.96608 2.073415,4.04181 3.834458,5.69848 1.57751,1.484001 2.760792,2.027838 5.255903,2.415591 1.673389,0.260059 4.887912,0.258778 6.423172,-0.003 z m -2.580035,-2.152711 c -0.171575,-0.277619 0.04537,-0.379299 1.012095,-0.47434 3.96168,-0.389501 8.88107,-2.75301 11.78394,-5.661569 0.63749,-0.63873 1.21822,-1.16133 1.29052,-1.16133 0.0723,0 0.13145,0.12338 0.13145,0.27417 0,0.16715 -0.42626,0.69939 -1.09198,1.36345 -1.91347,1.908751 -5.15416,3.83442 -8.11813,4.82393 -2.07399,0.692391 -4.81388,1.149609 -5.007895,0.835689 z m -4.268399,-0.39724 c -3.574637,-1.244349 -6.216515,-4.240729 -7.000592,-7.939979 -0.249949,-1.17925 -0.240585,-3.6987 0.01884,-5.06708 0.314539,-1.65915 0.919628,-3.43755 1.772591,-5.20977 0.913218,-1.89742 1.10939,-2.1839 1.339874,-1.95665 0.129323,0.12751 -0.0045,0.500319 -0.641405,1.78687 -2.63529,5.32329 -2.861223,9.85823 -0.676196,13.57264 0.633767,1.07736 2.376411,2.786419 3.52357,3.45567 0.528982,0.308599 1.466816,0.72169 2.084078,0.917979 0.843883,0.268359 1.122442,0.414351 1.122897,0.588521 7.94e-4,0.31854 -0.280363,0.29155 -1.543645,-0.148201 z m 5.745764,-3.263879 c -0.2709,-0.184092 -0.57627,-0.49679 -0.67859,-0.6949 -0.34707,-0.67197 -0.993921,-3.00078 -1.267575,-4.56355 -0.232431,-1.32738 -0.387667,-1.79439 -1.055901,-3.17666 -1.115542,-2.30753 -1.359199,-3.77186 -0.807549,-4.85318 0.160626,-0.31486 0.465752,-0.81225 0.678059,-1.10533 0.455223,-0.628421 0.514077,-1.15496 0.129098,-1.15496 -0.141301,0 -0.305096,-0.0744 -0.363993,-0.16545 -0.178757,-0.276191 -0.817337,-2.77103 -0.752512,-2.93996 0.07771,-0.2025 3.953903,-1.69144 4.256013,-1.63483 0.15904,0.0298 0.37562,0.47164 0.71698,1.46273 0.43738,1.26987 0.46786,1.44129 0.28815,1.621 -0.38766,0.38766 -0.15895,0.64804 0.87872,1.00041 1.31858,0.44777 1.53598,0.58035 1.89899,1.15815 0.53057,0.844459 0.88041,1.98987 1.14726,3.75618 0.22574,1.49419 0.34591,1.89748 0.97052,3.25691 1.15892,2.52234 1.61601,4.15628 1.39369,4.98194 -0.32099,1.19204 -0.68544,1.43153 -4.12276,2.70921 -2.07393,0.770889 -2.59806,0.82511 -3.3086,0.34229 z m 14.06593,-6.84587 c 10e-4,-0.091 0.15071,-0.63206 0.33283,-1.20236 1.35302,-4.23673 0.738,-8.12626 -1.77465,-11.22349 -2.06946,-2.550923 -4.99897,-4.158527 -7.86444,-4.315713 -1.0992,-0.0603 -1.29054,-0.10368 -1.25599,-0.284768 0.0662,-0.346731 1.86219,-0.35823 3.0957,-0.01982 4.11801,1.129759 7.46003,4.376391 8.67303,8.425501 0.38698,1.29175 0.48377,3.96758 0.19813,5.47709 -0.33601,1.77569 -0.8758,3.30901 -1.1649,3.30901 -0.13277,0 -0.24064,-0.0744 -0.23971,-0.16545 z M 93.449552,-44.027615 c -0.186036,-0.4848 2.925183,-2.828545 4.779518,-3.600505 1.119606,-0.466093 3.07873,-1.051665 3.89855,-1.165253 0.50983,-0.07064 0.57068,-0.05186 0.52924,0.1633 -0.0293,0.151983 -0.2204,0.284121 -0.50988,0.35251 -3.452082,0.81554 -5.274368,1.695694 -7.463311,3.604738 -0.548044,0.47797 -1.030594,0.86903 -1.072335,0.86903 -0.04174,0 -0.114546,-0.10072 -0.161782,-0.22382 z m 19.681578,24.16974 c 0.36508,-0.224641 0.66379,-0.458131 0.66379,-0.518861 0,-0.218548 -1.34669,-2.049949 -1.4802,-2.012979 -0.23023,0.0638 -1.6962,1.090941 -1.70038,1.191419 -0.003,0.0785 1.7252,1.73424 1.82189,1.7453 0.0171,0.0021 0.32981,-0.18025 0.6949,-0.404879 z m 3.28377,-2.537261 0.43603,-0.4542 -0.62444,-0.517088 c -0.82147,-0.68027 -1.26942,-0.978421 -1.47158,-0.97949 -0.22661,-0.0011 -1.22471,0.916508 -1.22471,1.126058 0,0.0933 0.33211,0.594061 0.73802,1.11284 l 0.73802,0.943222 0.48631,-0.38857 c 0.26748,-0.21372 0.68253,-0.592961 0.92235,-0.842772 z m -38.741311,5.29e-4 c 0.774675,-0.934641 0.80211,-0.893432 -0.594863,-0.893432 h -1.259174 l -0.469325,0.614651 c -0.258129,0.338061 -0.469325,0.66566 -0.469325,0.727991 0,0.0623 0.523448,0.113321 1.163217,0.113321 h 1.163216 z m 2.249429,0.427821 c 0.559664,-0.106141 0.83023,-0.252371 1.275492,-0.689362 0.310828,-0.305059 0.565143,-0.60951 0.565143,-0.67655 0,-0.0717 -0.395566,-0.0835 -0.959614,-0.0288 -1.012508,0.0983 -1.0508,0.122651 -1.830527,1.1654 -0.264706,0.353999 -0.265158,0.36399 -0.01651,0.36399 0.140618,0 0.575324,-0.0606 0.966016,-0.13471 z m 61.538732,-0.134102 c 2.22688,-0.27093 4.32711,-0.92411 5.87441,-1.82695 1.1159,-0.651119 2.73599,-2.24492 3.2365,-3.183979 0.50953,-0.955971 0.54794,-1.858681 0.14151,-3.325331 -0.60294,-2.17581 -1.8828,-4.19252 -3.71709,-5.85713 -3.42633,-3.1094 -6.71727,-4.78081 -11.23232,-5.70469 -4.72982,-0.96783 -9.77768,-0.78261 -12.80387,0.46981 -0.52779,0.21843 -0.95962,0.44226 -0.95962,0.4974 0,0.13053 0.28005,0.93393 0.32555,0.93393 0.0192,0 0.43175,-0.17993 0.91676,-0.39985 1.32936,-0.60276 2.84782,-0.92937 4.72168,-1.01561 2.01887,-0.0929 4.36014,0.14775 4.36014,0.44818 0,0.16234 -0.14652,0.17618 -0.89343,0.0844 -0.49139,-0.0604 -1.84643,-0.10273 -3.01121,-0.0941 -2.34957,0.0174 -3.49177,0.23792 -5.07817,0.98025 -0.74699,0.34954 -0.83259,0.42806 -0.75425,0.69186 0.82324,2.7721 0.77477,5.81108 -0.14084,8.83033 l -0.33981,1.12056 0.37696,0.31258 c 0.20733,0.17192 0.80879,0.64277 1.33658,1.04633 0.96102,0.73483 1.14103,0.96641 0.75121,0.96641 -0.20987,0 -1.99686,-1.28149 -2.30539,-1.65324 -0.24175,-0.29129 -0.3455,-0.24936 -0.53902,0.21785 -0.16789,0.4053 -0.15759,0.43094 0.34793,0.86595 3.11808,2.68324 8.67588,4.96012 13.62464,5.58165 1.32337,0.1662 4.44547,0.17346 5.76115,0.01341 z m -5.43025,-0.66884 c -1.03102,-0.131739 -3.34942,-0.64439 -3.59191,-0.79425 -0.42743,-0.264179 0.11364,-0.272381 1.17538,-0.01781 1.83075,0.438928 3.14081,0.591879 5.06374,0.591191 4.84649,-0.0021 8.48068,-1.523521 9.87697,-4.135882 0.1891,-0.353799 0.24773,-0.74475 0.24811,-1.65451 5.3e-4,-1.0658 -0.044,-1.28525 -0.42236,-2.083939 -0.23259,-0.490981 -0.57507,-1.092231 -0.76108,-1.336101 -0.37881,-0.49664 -0.42976,-0.74932 -0.15111,-0.74932 0.46431,0 1.68405,2.20115 1.90701,3.44138 0.28044,1.55999 -0.20451,2.87302 -1.51327,4.097299 -1.38479,1.295411 -3.52632,2.20032 -6.13943,2.594251 -1.3471,0.20307 -4.28347,0.227681 -5.69205,0.0477 z m -6.62535,-1.819479 c -1.13735,-0.514511 -3.35064,-1.649001 -3.54658,-1.817921 -0.0255,-0.022 -0.008,-0.10205 0.0389,-0.17795 0.0524,-0.0847 0.81121,0.226911 1.96558,0.807201 1.03415,0.519859 2.18467,1.069388 2.55671,1.221169 0.66279,0.27041 0.8976,0.511651 0.5549,0.5701 -0.0948,0.01619 -0.80114,-0.254989 -1.56955,-0.602599 z m 7.28715,-1.089041 c -1.94967,-0.50646 -3.50305,-1.55701 -3.84807,-2.60244 -0.13738,-0.41625 -0.18966,-0.45384 -0.53521,-0.38473 -0.52095,0.10419 -2.78261,-0.12651 -3.7569,-0.38323 -1.91277,-0.50399 -3.84429,-1.82302 -4.42443,-3.02144 -0.67991,-1.40451 -0.005,-2.91697 1.68808,-3.78049 l 0.49912,-0.25463 0.95317,0.52865 c 0.52424,0.29075 0.95038,0.56877 0.94698,0.61781 -0.003,0.049 -0.25653,0.21214 -0.56253,0.36246 -1.9846,0.9749 -1.22676,3.10615 1.43745,4.04255 1.61584,0.56792 3.5615,0.46111 5.00109,-0.27453 l 0.77394,-0.3955 0.99932,0.5792 0.99931,0.5792 -0.4236,0.21905 c -1.07235,0.55454 -1.26324,1.3488 -0.48778,2.02966 1.71053,1.50187 5.76976,1.01276 5.76976,-0.69521 0,-0.68622 -0.54611,-1.13543 -3.31933,-2.73034 -1.34109,-0.77128 -4.18396,-2.40332 -6.31747,-3.62676 l -3.87912,-2.22443 1.73503,-1.02835 1.73502,-1.02835 0.93023,0.53632 0.93022,0.53631 -0.81787,0.46091 c -0.66903,0.37703 -0.78535,0.49075 -0.63918,0.62486 0.0983,0.0902 2.56118,1.52377 5.47311,3.18578 5.78906,3.30414 6.51377,3.83017 6.81336,4.94543 0.38292,1.4254 -0.78424,2.64551 -3.11026,3.25136 -1.11139,0.289481 -3.31123,0.256159 -4.56344,-0.0691 z m 8.80198,-9.20415 c -2.47911,-2.30353 -6.46714,-4.35048 -10.44109,-5.35914 -0.59085,-0.14997 -1.12414,-0.32117 -1.18508,-0.38045 -0.27807,-0.27045 0.24953,-0.23012 1.58994,0.12155 3.46119,0.90808 6.99775,2.59722 9.24207,4.41419 1.02383,0.82889 1.91923,1.71838 1.91923,1.90658 0,0.29125 -0.16877,0.18584 -1.12507,-0.70273 z m -71.502266,12.08682 0.501898,-0.690999 -0.89898,-0.160901 c -0.49444,-0.0885 -1.051315,-0.188939 -1.237503,-0.223218 -0.287367,-0.0529 -0.402379,0.0352 -0.761073,0.583118 -0.232403,0.355002 -0.422551,0.704051 -0.422551,0.77566 0,0.140869 1.103414,0.37637 1.853048,0.39551 0.411524,0.0105 0.519316,-0.0654 0.965161,-0.67917 z m 10.550213,-0.576008 c 0.876422,-0.463122 2.53337,-1.620793 2.051588,-1.433391 -0.145595,0.0566 -0.949688,0.336529 -1.786867,0.62198 -1.49157,0.508569 -1.527905,0.530518 -1.808747,1.09262 l -0.286597,0.57363 0.485138,-0.200101 c 0.266827,-0.110059 0.872294,-0.404689 1.345485,-0.654738 z m -14.243625,-0.119132 c 0.210223,-0.40232 0.359129,-0.75226 0.330902,-0.777639 -0.07342,-0.066 -1.52182,-0.475642 -1.681838,-0.475642 -0.215607,0 -1.131039,1.328881 -1.001313,1.453552 0.147167,0.141428 1.351919,0.510429 1.705305,0.52232 0.190609,0.006 0.371731,-0.19589 0.646944,-0.722591 z m -3.193922,-0.795419 c 0.199666,-0.330549 0.363028,-0.69084 0.363028,-0.800632 0,-0.219149 -0.968613,-0.712089 -1.389786,-0.707279 -0.145597,0.002 -0.559093,0.26679 -0.91888,0.58918 l -0.654159,0.58615 0.98506,0.462049 c 0.541783,0.254122 1.045057,0.46418 1.118385,0.466802 0.07333,0.003 0.296687,-0.26571 0.496352,-0.59627 z m 51.19359,-0.331531 c 0.29887,-0.4401 0.52444,-0.85203 0.50128,-0.915411 -0.0232,-0.0634 -0.48752,-0.440718 -1.03191,-0.838549 l -0.9898,-0.72333 -0.5823,0.7836 c -0.32026,0.43098 -0.55982,0.797919 -0.53235,0.815429 0.0275,0.01752 0.45418,0.402321 0.94823,0.855142 0.49405,0.452818 0.95344,0.823309 1.02087,0.823309 0.0674,0 0.36711,-0.360079 0.66598,-0.80019 z m -35.41275,0.13883 c 1.258536,-0.269748 2.942926,-0.875419 3.434797,-1.23508 0.216763,-0.1585 0.21667,-0.19273 -0.0016,-0.65071 l -0.230521,-0.48341 -0.541292,0.31626 c -0.836552,0.48878 -2.79793,1.093261 -4.115028,1.26822 -0.748906,0.0995 -1.830183,0.1266 -2.911934,0.073 -1.942078,-0.0962 -2.601227,-0.20968 -2.685487,-0.462461 -0.04659,-0.13979 0.121409,-0.15219 0.850449,-0.0628 0.499682,0.0613 1.831729,0.107172 2.960103,0.10197 1.683893,-0.008 2.253229,-0.0628 3.176654,-0.306949 1.193316,-0.31555 3.044293,-1.130951 3.044293,-1.341081 0,-0.069 -0.142774,-0.61807 -0.317278,-1.22025 -0.697185,-2.40584 -0.779806,-5.46687 -0.212667,-7.87904 l 0.288444,-1.22681 -0.309422,-0.26552 c -0.17018,-0.14604 -0.681683,-0.53731 -1.136674,-0.86949 -0.454988,-0.33218 -0.827252,-0.6583 -0.827252,-0.72471 0,-0.28991 0.50926,-0.0684 1.421884,0.61851 0.5402,0.40659 0.995051,0.71929 1.010775,0.6949 0.01572,-0.0244 0.104224,-0.21977 0.196667,-0.43415 0.196533,-0.45578 0.236966,-0.4137 -1.610667,-1.67616 -2.841876,-1.941616 -6.428749,-3.361936 -10.416365,-4.124456 -1.297347,-0.24809 -1.971747,-0.29064 -4.566441,-0.28816 -2.81388,0.003 -3.154812,0.0291 -4.504483,0.34821 -0.803103,0.18991 -1.913396,0.52127 -2.467313,0.73636 -1.847867,0.71753 -3.694691,2.169389 -4.715777,3.70725 -0.409007,0.616009 -0.490324,0.86123 -0.531944,1.60411 -0.106931,1.90861 0.994735,4.57405 2.732281,6.61065 0.717987,0.84156 2.606637,2.48148 4.031185,3.50029 2.796015,1.99966 6.731278,3.362449 11.346098,3.92919 1.743455,0.214111 6.095085,0.0668 7.608537,-0.257601 z m -10.189568,-1.720617 c -3.905443,-1.01269 -7.77791,-3.00548 -10.291036,-5.29581 -0.763928,-0.6962 -1.102587,-1.19024 -0.815902,-1.19024 0.04264,0 0.593594,0.4532 1.224335,1.00712 2.689538,2.36193 6.344186,4.2274 10.147324,5.17958 1.452405,0.36363 1.494118,0.38128 1.314782,0.55631 -0.07462,0.0728 -0.700104,-0.0289 -1.579503,-0.25696 z m 2.801137,-1.89639 -0.90496,-0.53207 0.805689,-0.45254 c 0.443129,-0.2489 0.803309,-0.49178 0.8004,-0.53974 -0.0029,-0.048 -2.509378,-1.51669 -5.569928,-3.26385 -5.956965,-3.400621 -6.563184,-3.83643 -6.857646,-4.92998 -0.194093,-0.72081 -0.06062,-1.24923 0.473011,-1.87266 0.50884,-0.59446 1.456446,-1.1001 2.623149,-1.39969 1.028498,-0.2641 3.136416,-0.259821 4.347052,0.009 1.943144,0.4312 3.714974,1.57944 4.062613,2.6328 0.136131,0.41248 0.180395,0.44046 0.591253,0.37379 1.259887,-0.20445 4.355404,0.46526 5.820067,1.25916 0.906579,0.4914 2.055447,1.57327 2.343105,2.20646 0.639214,1.40704 -0.04614,2.90935 -1.715836,3.76117 l -0.499118,0.25463 -0.953169,-0.52865 c -0.901436,-0.49996 -1.175102,-0.77316 -0.774485,-0.77316 0.325562,0 1.229605,-0.75658 1.40234,-1.1736 0.521867,-1.2599 -0.864519,-2.74023 -3.048454,-3.25501 -1.603526,-0.37798 -3.314462,-0.18999 -4.548552,0.49975 l -0.626331,0.35007 -1.000042,-0.57962 -1.000043,-0.57962 0.383472,-0.20078 c 1.04407,-0.54667 1.291063,-1.33781 0.615104,-1.97024 -1.110054,-1.03858 -3.191869,-1.31385 -4.777538,-0.63171 -1.193471,0.51341 -1.44288,1.34895 -0.639588,2.14266 0.241907,0.23902 2.9371,1.86151 5.989317,3.60554 3.052218,1.74403 5.897333,3.3731 6.322477,3.62015 l 0.772991,0.44919 -1.037712,0.62179 c -0.570741,0.34199 -1.365304,0.80341 -1.765695,1.0254 l -0.727983,0.4036 z m -15.573317,-6.4418 c -2.263512,-3.33317 -1.424926,-6.269641 2.306777,-8.07761 2.760943,-1.33765 6.520422,-1.79815 10.208842,-1.25047 1.359307,0.20184 3.182047,0.62698 3.332309,0.77725 0.227557,0.22755 -0.220014,0.19704 -1.578371,-0.10762 -6.271868,-1.40666 -12.645321,0.082 -14.472143,3.38036 -0.354826,0.64063 -0.393655,0.82824 -0.393655,1.90199 0,1.29748 0.250861,2.0384 1.115826,3.29558 0.44957,0.65343 0.50321,0.87378 0.212712,0.87378 -0.106485,0 -0.436018,-0.35697 -0.732297,-0.79326 z m 20.973554,-6.09445 c -0.652444,-0.356211 -1.829581,-0.926631 -2.615858,-1.26762 -0.944526,-0.40962 -1.385084,-0.66449 -1.298412,-0.75116 0.08667,-0.0867 0.392101,-0.0274 0.900154,0.17459 1.229023,0.48872 4.408887,2.103789 4.408887,2.2393 0,0.29347 -0.277498,0.21487 -1.394771,-0.39511 z m -16.680903,14.79625 c 0.394258,-0.30939 0.721243,-0.59421 0.726633,-0.63293 0.0054,-0.0387 -0.362464,-0.29268 -0.817452,-0.56436 l -0.827255,-0.49396 -0.441734,0.49818 c -0.749108,0.84483 -0.753818,0.89703 -0.121363,1.34498 0.309704,0.219349 0.608377,0.40148 0.663717,0.404719 0.05534,0.003 0.423195,-0.24724 0.817454,-0.556629 z m 55.568127,-1.19442 c 0.10847,-0.16555 0.33552,-0.62247 0.50455,-1.01539 l 0.30732,-0.7144 -0.98567,-0.90037 -0.98567,-0.90036 -0.50108,1.07999 c -0.2756,0.59399 -0.47315,1.1528 -0.439,1.24178 0.0748,0.19485 1.63555,1.50974 1.79207,1.50974 0.0606,0 0.19902,-0.13545 0.30748,-0.30099 z m -58.40543,0.0553 c 0,-0.0623 0.202932,-0.3791 0.450959,-0.70393 l 0.450959,-0.5906 -0.682589,-0.55562 -0.68259,-0.55561 -0.496352,0.52643 c -0.272995,0.28954 -0.496352,0.61303 -0.496352,0.71886 0,0.10583 0.276416,0.43573 0.614258,0.73311 0.603364,0.5311 0.841707,0.65211 0.841707,0.42736 z m -1.880624,-2.57197 0.556984,-0.56752 -0.669276,-0.65681 -0.669277,-0.65681 -0.38603,0.46326 c -0.212317,0.25479 -0.387632,0.5837 -0.389591,0.73091 -0.0035,0.26007 0.71396,1.2545 0.905042,1.2545 0.05234,0 0.345808,-0.25539 0.652148,-0.56753 z m 61.834374,-1.39906 c 0.14867,-0.49924 0.27032,-1.0383 0.27032,-1.19791 0,-0.31929 -1.65205,-2.110321 -1.80525,-1.95712 -0.0498,0.0498 -0.22041,0.58137 -0.37916,1.1813 l -0.28865,1.09079 0.93872,0.88976 c 0.5163,0.48937 0.95109,0.89227 0.9662,0.89532 0.0151,0.003 0.14914,-0.4029 0.29782,-0.90214 z m 30.91352,-1.45101 c -0.0414,-0.0414 -0.20526,0.0548 -0.36416,0.21366 -0.26291,0.2629 -0.27533,0.33968 -0.13802,0.85299 0.083,0.31024 0.22955,0.74277 0.32568,0.96116 0.16376,0.37205 0.17721,0.32303 0.21327,-0.77774 0.0212,-0.64615 0.005,-1.20868 -0.0368,-1.25007 z m -94.836637,0.7373 c 0.322911,-0.52962 0.334939,-1.06217 0.03544,-1.56918 -0.272902,-0.46198 -0.415883,-0.43585 -0.750543,0.13717 -0.242856,0.41582 -0.24394,0.46102 -0.02754,1.14753 0.123901,0.39305 0.282668,0.71465 0.352817,0.71465 0.07015,0 0.245568,-0.19358 0.389823,-0.43017 z m 94.026417,-1.94319 c 0.24286,-0.41583 0.24394,-0.46103 0.0275,-1.14753 -0.1239,-0.39306 -0.28266,-0.714651 -0.35281,-0.714651 -0.21181,0 -0.65207,0.834521 -0.6526,1.237001 -5.3e-4,0.43595 0.39169,1.16918 0.59011,1.10304 0.0742,-0.0247 0.24872,-0.23978 0.38776,-0.47786 z m -29.45591,-1.37556 c -0.0489,-0.969121 -0.0491,-0.969561 -0.82356,-1.85164 -0.42603,-0.48526 -0.81866,-0.85506 -0.8725,-0.82178 -0.0538,0.0333 -0.13557,0.46388 -0.18161,0.956899 l -0.0837,0.896411 0.88787,0.89472 c 0.48833,0.49211 0.94065,0.894729 1.00516,0.894729 0.0645,0 0.0953,-0.436199 0.0683,-0.969339 z m -65.740535,0.485569 c 0.297712,-0.269429 0.301866,-0.479799 0.02592,-1.3126 -0.349953,-1.056169 -0.445669,-0.98874 -0.445669,0.31394 0,0.669741 0.03998,1.217711 0.08885,1.217711 0.04887,0 0.197773,-0.0986 0.330902,-0.219051 z m 93.589365,-1.296029 c 0.47424,-0.59436 0.45909,-0.84672 -0.0885,-1.47407 l -0.45251,-0.5184 -0.60687,0.59057 -0.60686,0.59058 0.62423,0.633759 c 0.34332,0.348571 0.65625,0.633761 0.69538,0.633751 0.0391,0 0.23496,-0.20528 0.43515,-0.45619 z m -1.62142,-2.764651 c 0,-0.102749 -0.2667,-0.432649 -0.59266,-0.733109 -0.57016,-0.525561 -0.8633,-0.672581 -0.8633,-0.43298 0,0.0623 -0.20325,0.379509 -0.45166,0.70485 l -0.45166,0.591509 0.68329,0.546581 0.68329,0.54658 0.49635,-0.51831 c 0.27299,-0.28507 0.49635,-0.60238 0.49635,-0.705121 z m -26.73141,-0.40328 c -0.14298,-0.415589 -0.54709,-1.274129 -0.89801,-1.907849 -0.35092,-0.63373 -0.71327,-1.30114 -0.80522,-1.48313 -0.0919,-0.182 -0.2846,-0.47981 -0.42812,-0.66181 l -0.26095,-0.3309 0.14484,0.39708 c 0.0797,0.2184 0.31578,1.11183 0.52469,1.98541 0.25974,1.086109 0.45291,1.63018 0.61093,1.72069 0.12709,0.0728 0.47235,0.35111 0.76722,0.618479 0.29488,0.267361 0.55155,0.470711 0.57037,0.451891 0.0188,-0.0188 -0.0828,-0.37426 -0.22575,-0.789861 z m 24.3614,-1.43168 c 0.0977,-0.180279 2e-5,-0.30837 -0.49458,-0.648659 -0.40234,-0.27681 -0.6705,-0.382631 -0.77244,-0.3048 -0.0859,0.0656 -0.43437,0.32426 -0.77441,0.57487 -0.34004,0.250609 -0.61703,0.48886 -0.61552,0.52945 0.002,0.0406 0.37377,0.29541 0.82726,0.56628 l 0.82451,0.492489 0.44173,-0.492489 c 0.24296,-0.27087 0.49651,-0.59358 0.56345,-0.717141 z m -2.87654,-1.105999 0.64349,-0.59215 -0.99881,-0.46148 c -0.54934,-0.25381 -1.04782,-0.46148 -1.10772,-0.46148 -0.14818,0 -0.83496,1.15291 -0.83496,1.401659 0,0.218801 0.9676,0.7117 1.38979,0.707951 0.14559,-10e-4 0.55429,-0.268821 0.90821,-0.5945 z m -19.57106,-1.05224 c 1.43187,-0.47106 1.46042,-0.4884 1.72486,-1.04772 l 0.2689,-0.56872 -0.46744,0.19479 c -0.85627,0.35683 -1.78304,0.85765 -2.55211,1.37912 -0.70675,0.47922 -0.98393,0.754279 -0.59563,0.59107 0.091,-0.0383 0.82064,-0.28509 1.62142,-0.54854 z m 16.40144,-0.0504 c 0.261,-0.35554 0.47454,-0.70046 0.47454,-0.76648 0,-0.11428 -1.50249,-0.57283 -1.87478,-0.57217 -0.16543,2.91e-4 -1.00174,1.41441 -0.88994,1.5048 0.0742,0.06 1.47874,0.45697 1.66147,0.46962 0.0848,0.006 0.36772,-0.28022 0.62871,-0.63577 z m -3.26253,-0.80157 c 0.36584,-0.55882 0.52103,-0.92704 0.39496,-0.93712 -0.0182,-10e-4 -0.52365,-0.0824 -1.12323,-0.17991 l -1.09014,-0.17726 -0.54321,0.71948 c -0.29876,0.39571 -0.52295,0.73832 -0.49819,0.76134 0.0248,0.023 0.55131,0.13085 1.17009,0.2396 0.61879,0.10875 1.1558,0.20448 1.19337,0.21273 0.0376,0.008 0.26092,-0.27924 0.49635,-0.63886 z m -7.91875,-0.4494 c 0.87603,-1.03971 0.86515,-1.01519 0.44786,-1.00875 -0.95811,0.0148 -1.52582,0.2305 -2.10654,0.80043 -0.32085,0.31489 -0.58337,0.6233 -0.58337,0.68535 0,0.062 0.42819,0.0706 0.95154,0.0191 0.84138,-0.0829 0.99077,-0.14034 1.29051,-0.49608 z m 4.17138,-0.1732 c 0.25813,-0.33807 0.46933,-0.66566 0.46933,-0.72799 0,-0.0623 -0.52889,-0.11332 -1.17531,-0.11332 h -1.1753 l -0.45547,0.56253 c -0.75821,0.93642 -0.78748,0.89343 0.60825,0.89343 h 1.25918 z"
         id="path3904-9"
         inkscape:connector-curvature="0" />
    </g>
  </g>
</svg>
