<?xml version="1.0" encoding="UTF-8" standalone="no"?>
<svg
   width="295.81308mm"
   height="113.81868mm"
   version="1.1"
   viewBox="0 0 295.81308 113.81868"
   id="svg1208"
   sodipodi:docname="aes-brk.svg"
   inkscape:version="1.1 (ce6663b3b7, 2021-05-25)"
   xmlns:inkscape="http://www.inkscape.org/namespaces/inkscape"
   xmlns:sodipodi="http://sodipodi.sourceforge.net/DTD/sodipodi-0.dtd"
   xmlns="http://www.w3.org/2000/svg"
   xmlns:svg="http://www.w3.org/2000/svg"
   xmlns:rdf="http://www.w3.org/1999/02/22-rdf-syntax-ns#"
   xmlns:cc="http://creativecommons.org/ns#"
   xmlns:dc="http://purl.org/dc/elements/1.1/">
  <defs
     id="defs1212" />
  <sodipodi:namedview
     id="namedview1210"
     pagecolor="#ffffff"
     bordercolor="#666666"
     borderopacity="1.0"
     inkscape:pageshadow="2"
     inkscape:pageopacity="0.0"
     inkscape:pagecheckerboard="0"
     inkscape:document-units="mm"
     showgrid="false"
     inkscape:zoom="0.62281085"
     inkscape:cx="485.70124"
     inkscape:cy="154.94271"
     inkscape:window-width="1840"
     inkscape:window-height="1016"
     inkscape:window-x="80"
     inkscape:window-y="27"
     inkscape:window-maximized="1"
     inkscape:current-layer="g1142"
     showguides="true"
     inkscape:guide-bbox="true">
    <sodipodi:guide
       position="140.11354,3.6240222"
       orientation="0,-1"
       id="guide3572" />
  </sodipodi:namedview>
  <metadata
     id="metadata1052">
    <rdf:RDF>
      <cc:Work
         rdf:about="">
        <dc:format>image/svg+xml</dc:format>
        <dc:type
           rdf:resource="http://purl.org/dc/dcmitype/StillImage" />
      </cc:Work>
    </rdf:RDF>
  </metadata>
  <g
     transform="translate(134.8275,-29.0395)"
     id="g1206">
    <g
       id="g1142"
       style="stroke:#4d4d4d">
      <path
         d="m -119.96,29.932 h 104.7 c 7.7478,0 13.985,6.2374 13.985,13.985 v 69.548 c 0,7.7478 -6.2374,13.985 -13.985,13.985 h -104.7 c -7.7478,0 -13.985,-6.2374 -13.985,-13.985 V 43.917 c 0,-7.7478 6.2374,-13.985 13.985,-13.985 z"
         fill="#ffffff"
         stroke="#b3b3b3"
         stroke-width="1.765"
         id="path1054"
         style="fill:#f2f2f2;stroke:#4d4d4d" />
      <path
         d="M 37.722171,29.922 H 142.42221 c 7.7478,0 13.985,6.2374 13.985,13.985 v 69.548 c 0,7.7478 -6.2374,13.985 -13.985,13.985 H 37.722171 c -7.7478,0 -13.985,-6.2374 -13.985,-13.985 V 43.907 c 0,-7.7478 6.2374,-13.985 13.985,-13.985 z"
         fill="#ffffff"
         stroke="#b3b3b3"
         stroke-width="1.765"
         id="path1056"
         style="fill:#f2f2f2;fill-opacity:1;stroke:#4d4d4d" />
      <g
         id="g1138"
         style="stroke:#4d4d4d"
         transform="translate(10.054167)">
        <g
           transform="matrix(1.7673,0,0,1.7673,-158.86,-245.37)"
           fill="#ff7f2a"
           aria-label="AES"
           id="g1064"
           style="fill:#4d4d4d;stroke:none">
          <path
             d="m 123.51,182.17 h -11.602 l -3.9844,10.078 h -2.207 l 11.484,-28.672 h 1.2695 l 11.25,28.672 h -2.2461 z m -10.879,-1.7969 h 10.215 l -3.8867,-10.293 q -0.48828,-1.2109 -1.1719,-3.3594 -0.52735,1.875 -1.1524,3.3984 z"
             id="path1058"
             style="fill:#4d4d4d;stroke:none" />
          <path
             d="M 145.1,192.25 H 129.495 V 163.695 H 145.1 v 1.8359 h -13.613 v 10.801 h 12.852 v 1.8359 h -12.852 v 12.246 H 145.1 Z"
             id="path1060"
             style="fill:#4d4d4d;stroke:none" />
          <path
             d="m 163.12,184.88 q 0,3.5742 -2.6367,5.6641 -2.6172,2.0898 -6.9727,2.0898 -5.2344,0 -8.0273,-1.1523 v -1.9922 q 3.0859,1.3086 7.8711,1.3086 3.5156,0 5.5664,-1.6016 2.0703,-1.6211 2.0703,-4.2383 0,-1.6211 -0.68359,-2.6758 -0.6836,-1.0742 -2.2266,-1.9531 -1.543,-0.87891 -4.5312,-1.8945 -4.375,-1.5039 -6.0547,-3.2422 -1.6602,-1.7578 -1.6602,-4.668 0,-3.2031 2.5,-5.2148 2.5195,-2.0312 6.4648,-2.0312 4.0234,0 7.5586,1.5234 l -0.72266,1.7188 q -3.5547,-1.4844 -6.7969,-1.4844 -3.1641,0 -5.0391,1.4648 -1.875,1.4648 -1.875,3.9844 0,1.582 0.56641,2.5976 0.58594,1.0156 1.8945,1.8359 1.3086,0.80078 4.4922,1.9336 3.3398,1.1524 5.0195,2.2461 1.6797,1.0742 2.4414,2.4609 0.78125,1.3672 0.78125,3.3203 z"
             id="path1062"
             style="fill:#4d4d4d;stroke:none" />
        </g>
        <g
           transform="matrix(0.50952,0,0,0.50952,-28.386,-115.08)"
           fill="#55ddff"
           aria-label="PLASTIC"
           id="g1080"
           style="fill:#4d4d4d;stroke:none">
          <path
             d="m 116.44,424.85 v 10.957 h 4.9609 q 2.7539,0 4.2578,-1.4258 1.5039,-1.4258 1.5039,-4.0625 0,-2.6172 -1.5039,-4.043 -1.5039,-1.4258 -4.2578,-1.4258 z m -3.9453,-3.2422 h 8.9062 q 4.9023,0 7.4023,2.2266 2.5195,2.207 2.5195,6.4844 0,4.3164 -2.5195,6.5234 -2.5,2.207 -7.4023,2.207 H 116.44 v 11.719 h -3.9453 z"
             id="path1066"
             style="fill:#4d4d4d;stroke:none" />
          <path
             d="m 142.57,421.61 h 3.9453 v 25.84 h 14.199 v 3.3203 h -18.145 z"
             id="path1068"
             style="fill:#4d4d4d;stroke:none" />
          <path
             d="m 181.45,425.49 -5.3516,14.512 h 10.723 z m -2.2266,-3.8867 h 4.4726 l 11.113,29.16 h -4.1016 l -2.6562,-7.4805 h -13.145 l -2.6562,7.4805 h -4.1602 z"
             id="path1070"
             style="fill:#4d4d4d;stroke:none" />
          <path
             d="m 222.46,422.56 v 3.8477 q -2.2461,-1.0742 -4.2383,-1.6016 -1.9922,-0.52735 -3.8476,-0.52735 -3.2227,0 -4.9805,1.25 -1.7383,1.25 -1.7383,3.5547 0,1.9336 1.1523,2.9297 1.1719,0.97656 4.4141,1.582 l 2.3828,0.48828 q 4.4141,0.83984 6.5039,2.9688 2.1094,2.1094 2.1094,5.6641 0,4.2383 -2.8516,6.4258 -2.832,2.1875 -8.3203,2.1875 -2.0703,0 -4.4141,-0.46875 -2.3242,-0.46875 -4.8242,-1.3867 v -4.0625 q 2.4023,1.3476 4.707,2.0312 2.3047,0.68359 4.5312,0.68359 3.3789,0 5.2148,-1.3281 1.8359,-1.3281 1.8359,-3.7891 0,-2.1484 -1.3281,-3.3594 -1.3086,-1.2109 -4.3164,-1.8164 l -2.4023,-0.46875 q -4.4141,-0.87891 -6.3867,-2.7539 -1.9726,-1.87499 -1.9727,-5.2148 0,-3.8672 2.7148,-6.0938 2.7344,-2.2266 7.5195,-2.2266 2.0508,0 4.1797,0.37109 2.1289,0.3711 4.3555,1.1133 z"
             id="path1072"
             style="fill:#4d4d4d;stroke:none" />
          <path
             d="m 232.25,421.61 h 24.668 v 3.3203 h -10.352 v 25.84 h -3.9648 v -25.84 h -10.352 z"
             id="path1074"
             style="fill:#4d4d4d;stroke:none" />
          <path
             d="m 266.68,421.61 h 3.9453 v 29.16 H 266.68 Z"
             id="path1076"
             style="fill:#4d4d4d;stroke:none" />
          <path
             d="m 306.24,423.85 v 4.1602 q -1.9922,-1.8555 -4.2578,-2.7734 -2.2461,-0.91796 -4.7852,-0.91796 -5,0 -7.6562,3.0664 -2.6562,3.0469 -2.6562,8.8281 0,5.7617 2.6562,8.8281 2.6562,3.0469 7.6562,3.0469 2.5391,0 4.7852,-0.91797 2.2656,-0.91797 4.2578,-2.7734 v 4.1211 q -2.0703,1.4062 -4.3945,2.1094 -2.3047,0.70312 -4.8828,0.70312 -6.6211,0 -10.43,-4.043 -3.8086,-4.0625 -3.8086,-11.074 0,-7.0312 3.8086,-11.074 3.8086,-4.0625 10.43,-4.0625 2.6172,0 4.9219,0.70312 2.3242,0.6836 4.3555,2.0703 z"
             id="path1078"
             style="fill:#4d4d4d;stroke:none" />
        </g>
        <g
           transform="matrix(0.24340318,0,0,0.24340318,-14.106168,3.241556)"
           fill="#666666"
           aria-label="authenticated  "
           id="g1108"
           style="fill:#4d4d4d;stroke:#4d4d4d;stroke-width:1.39899;stroke-miterlimit:4;stroke-dasharray:none">
          <path
             d="m 107.87,557.96 -0.48828,-3.3594 h -0.15625 q -1.6016,2.0508 -3.3008,2.9102 -1.6797,0.83985 -3.9844,0.83985 -3.125,0 -4.8633,-1.6016 -1.7383,-1.6016 -1.7383,-4.4336 0,-3.1055 2.5781,-4.8242 2.5977,-1.7188 7.5,-1.8164 l 4.043,-0.11719 v -1.4062 q 0,-3.0273 -1.2305,-4.5703 -1.2305,-1.543 -3.9648,-1.543 -2.9492,0 -6.1133,1.6406 l -0.72266,-1.6797 q 3.4961,-1.6406 6.9141,-1.6406 3.4961,0 5.2148,1.8164 1.7383,1.8164 1.7383,5.6641 v 14.121 z m -7.8125,-1.3672 q 3.3984,0 5.3516,-1.9336 1.9727,-1.9531 1.9727,-5.4102 v -2.0898 l -3.7109,0.15625 q -4.4727,0.21485 -6.3867,1.4062 -1.8945,1.1719 -1.8945,3.6719 0,1.9922 1.2109,3.1055 1.2305,1.0938 3.457,1.0938 z"
             id="path1082"
             style="fill:#4d4d4d;stroke:#4d4d4d;stroke-width:1.39899;stroke-miterlimit:4;stroke-dasharray:none" />
          <path
             d="m 119.1,536.73 v 13.75 q 0,3.2031 1.3477,4.668 1.3477,1.4453 4.1797,1.4453 3.7891,0 5.5664,-1.9141 1.7969,-1.9141 1.7969,-6.2305 v -11.719 h 1.9141 v 21.23 h -1.6406 l -0.35157,-2.9297 h -0.11718 q -2.0703,3.3203 -7.3633,3.3203 -7.2461,0 -7.2461,-7.7539 v -13.867 z"
             id="path1084"
             style="fill:#4d4d4d;stroke:#4d4d4d;stroke-width:1.39899;stroke-miterlimit:4;stroke-dasharray:none" />
          <path
             d="m 147.88,556.63 q 1.8359,0 3.2031,-0.3125 v 1.5625 q -1.4062,0.46875 -3.2422,0.46875 -2.8125,0 -4.1602,-1.5039 -1.3281,-1.5039 -1.3281,-4.7266 v -13.711 h -3.1445 v -1.1328 l 3.1445,-0.87891 0.97656,-4.8047 h 0.99609 v 5.1367 h 6.2305 v 1.6797 h -6.2305 v 13.438 q 0,2.4414 0.85938,3.6133 0.85937,1.1719 2.6953,1.1719 z"
             id="path1086"
             style="fill:#4d4d4d;stroke:#4d4d4d;stroke-width:1.39899;stroke-miterlimit:4;stroke-dasharray:none" />
          <path
             d="m 171.78,557.96 v -13.77 q 0,-3.2031 -1.3477,-4.6484 -1.3477,-1.4648 -4.1797,-1.4648 -3.8086,0 -5.5859,1.9336 -1.7578,1.9141 -1.7578,6.2305 v 11.719 h -1.9336 v -30.391 h 1.9336 v 9.668 l -0.0977,2.7148 h 0.13672 q 1.1914,-1.9141 3.0078,-2.7734 1.8164,-0.85937 4.5117,-0.85937 7.2266,0 7.2266,7.7539 v 13.887 z"
             id="path1088"
             style="fill:#4d4d4d;stroke:#4d4d4d;stroke-width:1.39899;stroke-miterlimit:4;stroke-dasharray:none" />
          <path
             d="m 190.41,558.35 q -4.6289,0 -7.2266,-2.8516 -2.5781,-2.8516 -2.5781,-7.9883 0,-5.0781 2.5,-8.125 2.5,-3.0664 6.7383,-3.0664 3.75,0 5.918,2.6172 2.168,2.6172 2.168,7.1094 v 1.5625 h -15.293 q 0.0391,4.375 2.0312,6.6797 2.0117,2.3047 5.7422,2.3047 1.8164,0 3.1836,-0.25391 1.3867,-0.25391 3.4961,-1.0938 v 1.7578 q -1.7969,0.78125 -3.3203,1.0547 -1.5234,0.29297 -3.3594,0.29297 z m -0.56641,-20.312 q -3.0664,0 -4.9219,2.0312 -1.8555,2.0117 -2.168,5.8203 h 13.125 q 0,-3.6914 -1.6016,-5.7617 -1.6016,-2.0898 -4.4336,-2.0898 z"
             id="path1090"
             style="fill:#4d4d4d;stroke:#4d4d4d;stroke-width:1.39899;stroke-miterlimit:4;stroke-dasharray:none" />
          <path
             d="m 219.86,557.96 v -13.77 q 0,-3.2031 -1.3477,-4.6484 -1.3477,-1.4648 -4.1797,-1.4648 -3.8086,0 -5.5859,1.9336 -1.7578,1.9141 -1.7578,6.2305 v 11.719 h -1.9336 v -21.23 h 1.6406 l 0.3711,2.9102 h 0.11718 q 2.0703,-3.3203 7.3633,-3.3203 7.2266,0 7.2266,7.7539 v 13.887 z"
             id="path1092"
             style="fill:#4d4d4d;stroke:#4d4d4d;stroke-width:1.39899;stroke-miterlimit:4;stroke-dasharray:none" />
          <path
             d="m 235.51,556.63 q 1.8359,0 3.2031,-0.3125 v 1.5625 q -1.4062,0.46875 -3.2422,0.46875 -2.8125,0 -4.1602,-1.5039 -1.3281,-1.5039 -1.3281,-4.7266 v -13.711 h -3.1445 v -1.1328 l 3.1445,-0.87891 0.97657,-4.8047 h 0.99609 v 5.1367 h 6.2305 v 1.6797 h -6.2305 v 13.438 q 0,2.4414 0.85937,3.6133 0.85938,1.1719 2.6953,1.1719 z"
             id="path1094"
             style="fill:#4d4d4d;stroke:#4d4d4d;stroke-width:1.39899;stroke-miterlimit:4;stroke-dasharray:none" />
          <path
             d="m 246.54,557.96 h -1.9336 v -21.23 h 1.9336 z m -2.207,-27.129 q 0,-1.875 1.2305,-1.875 0.60547,0 0.9375,0.48828 0.35156,0.48828 0.35156,1.3867 0,0.8789 -0.35156,1.3867 -0.33203,0.50781 -0.9375,0.50781 -1.2305,0 -1.2305,-1.8945 z"
             id="path1096"
             style="fill:#4d4d4d;stroke:#4d4d4d;stroke-width:1.39899;stroke-miterlimit:4;stroke-dasharray:none" />
          <path
             d="m 263.41,558.35 q -4.5508,0 -7.1289,-2.8711 -2.5781,-2.8711 -2.5781,-8.0078 0,-5.2734 2.6758,-8.2031 2.6758,-2.9492 7.3242,-2.9492 2.7539,0 5.2734,0.95703 l -0.52735,1.7188 q -2.7539,-0.91797 -4.7852,-0.91797 -3.9062,0 -5.918,2.4219 -2.0117,2.4023 -2.0117,6.9336 0,4.2969 2.0117,6.7383 2.0117,2.4219 5.625,2.4219 2.8906,0 5.3711,-1.0352 v 1.7969 q -2.0312,0.9961 -5.332,0.9961 z"
             id="path1098"
             style="fill:#4d4d4d;stroke:#4d4d4d;stroke-width:1.39899;stroke-miterlimit:4;stroke-dasharray:none" />
          <path
             d="m 288.08,557.96 -0.48828,-3.3594 h -0.15625 q -1.6016,2.0508 -3.3008,2.9102 -1.6797,0.83985 -3.9844,0.83985 -3.125,0 -4.8633,-1.6016 -1.7383,-1.6016 -1.7383,-4.4336 0,-3.1055 2.5781,-4.8242 2.5976,-1.7188 7.5,-1.8164 l 4.043,-0.11719 v -1.4062 q 0,-3.0273 -1.2305,-4.5703 -1.2305,-1.543 -3.9648,-1.543 -2.9492,0 -6.1133,1.6406 l -0.72265,-1.6797 q 3.4961,-1.6406 6.9141,-1.6406 3.4961,0 5.2148,1.8164 1.7383,1.8164 1.7383,5.6641 v 14.121 z m -7.8125,-1.3672 q 3.3984,0 5.3516,-1.9336 1.9726,-1.9531 1.9726,-5.4102 v -2.0898 l -3.7109,0.15625 q -4.4726,0.21485 -6.3867,1.4062 -1.8945,1.1719 -1.8945,3.6719 0,1.9922 1.2109,3.1055 1.2305,1.0938 3.457,1.0938 z"
             id="path1100"
             style="fill:#4d4d4d;stroke:#4d4d4d;stroke-width:1.39899;stroke-miterlimit:4;stroke-dasharray:none" />
          <path
             d="m 303.23,556.63 q 1.8359,0 3.2031,-0.3125 v 1.5625 q -1.4062,0.46875 -3.2422,0.46875 -2.8125,0 -4.1602,-1.5039 -1.3281,-1.5039 -1.3281,-4.7266 v -13.711 h -3.1445 v -1.1328 l 3.1445,-0.87891 0.97656,-4.8047 h 0.99609 v 5.1367 h 6.2305 v 1.6797 h -6.2305 v 13.438 q 0,2.4414 0.85938,3.6133 0.85937,1.1719 2.6953,1.1719 z"
             id="path1102"
             style="fill:#4d4d4d;stroke:#4d4d4d;stroke-width:1.39899;stroke-miterlimit:4;stroke-dasharray:none" />
          <path
             d="m 320.9,558.35 q -4.6289,0 -7.2266,-2.8516 -2.5781,-2.8516 -2.5781,-7.9883 0,-5.0781 2.5,-8.125 2.5,-3.0664 6.7383,-3.0664 3.75,0 5.918,2.6172 2.168,2.6172 2.168,7.1094 v 1.5625 h -15.293 q 0.0391,4.375 2.0312,6.6797 2.0117,2.3047 5.7422,2.3047 1.8164,0 3.1836,-0.25391 1.3867,-0.25391 3.4961,-1.0938 v 1.7578 q -1.7969,0.78125 -3.3203,1.0547 -1.5234,0.29297 -3.3594,0.29297 z m -0.5664,-20.312 q -3.0664,0 -4.9219,2.0312 -1.8555,2.0117 -2.168,5.8203 h 13.125 q 0,-3.6914 -1.6016,-5.7617 -1.6016,-2.0898 -4.4336,-2.0898 z"
             id="path1104"
             style="fill:#4d4d4d;stroke:#4d4d4d;stroke-width:1.39899;stroke-miterlimit:4;stroke-dasharray:none" />
          <path
             d="m 343.31,536.32 q 2.3047,0 3.9844,0.83984 1.6797,0.83985 3.0078,2.8711 h 0.11719 q -0.11719,-2.4609 -0.11719,-4.8242 v -7.6367 h 1.9141 v 30.391 h -1.2695 l -0.48829,-3.2422 h -0.15625 q -2.4219,3.6328 -6.9531,3.6328 -4.3945,0 -6.7188,-2.7344 -2.3242,-2.7344 -2.3242,-7.9688 0,-5.5078 2.3047,-8.418 2.3047,-2.9102 6.6992,-2.9102 z m 0,1.7578 q -3.4766,0 -5.2344,2.4414 -1.7383,2.4414 -1.7383,7.0898 0,9.0234 7.0117,9.0234 3.5938,0 5.2734,-2.0898 1.6797,-2.0898 1.6797,-6.8945 v -0.33203 q 0,-4.9219 -1.6602,-7.0703 -1.6406,-2.168 -5.332,-2.168 z"
             id="path1106"
             style="fill:#4d4d4d;stroke:#4d4d4d;stroke-width:1.39899;stroke-miterlimit:4;stroke-dasharray:none" />
        </g>
        <g
           transform="matrix(0.2522013,0,0,0.2522013,65.921657,-1.7402235)"
           fill="#666666"
           aria-label="sequestration"
           id="g1136"
           style="fill:#4d4d4d;stroke:#4d4d4d;stroke-width:1.21375;stroke-miterlimit:4;stroke-dasharray:none">
          <path
             d="m 108.15,552.43 q 0,2.8516 -2.168,4.3945 -2.168,1.5234 -6.1523,1.5234 -4.2578,0 -6.7578,-1.3086 v -2.0898 q 3.2031,1.6016 6.7578,1.6016 3.1445,0 4.7656,-1.0352 1.6406,-1.0547 1.6406,-2.793 0,-1.6016 -1.3086,-2.6953 -1.2891,-1.0938 -4.2578,-2.1484 -3.1836,-1.1524 -4.4727,-1.9727 -1.2891,-0.83984 -1.9531,-1.875 -0.64453,-1.0547 -0.64453,-2.5586 0,-2.3828 1.9922,-3.7695 2.0117,-1.3867 5.6055,-1.3867 3.4375,0 6.5234,1.2891 l -0.72266,1.7578 q -3.125,-1.2891 -5.8008,-1.2891 -2.5977,0 -4.1211,0.85938 -1.5234,0.85937 -1.5234,2.3828 0,1.6602 1.1719,2.6562 1.1914,0.99609 4.6289,2.2266 2.8711,1.0352 4.1797,1.875 1.3086,0.82031 1.9531,1.875 0.66406,1.0547 0.66406,2.4805 z"
             id="path1110"
             style="fill:#4d4d4d;stroke:#4d4d4d;stroke-width:1.21375;stroke-miterlimit:4;stroke-dasharray:none" />
          <path
             d="m 122.23,558.35 q -4.6289,0 -7.2266,-2.8516 -2.5781,-2.8516 -2.5781,-7.9883 0,-5.0781 2.5,-8.125 2.5,-3.0664 6.7383,-3.0664 3.75,0 5.918,2.6172 2.168,2.6172 2.168,7.1094 v 1.5625 h -15.293 q 0.0391,4.375 2.0312,6.6797 2.0117,2.3047 5.7422,2.3047 1.8164,0 3.1836,-0.25391 1.3867,-0.25391 3.4961,-1.0938 v 1.7578 q -1.7969,0.78125 -3.3203,1.0547 -1.5234,0.29297 -3.3594,0.29297 z m -0.56641,-20.312 q -3.0664,0 -4.9219,2.0312 -1.8555,2.0117 -2.168,5.8203 h 13.125 q 0,-3.6914 -1.6016,-5.7617 -1.6016,-2.0898 -4.4336,-2.0898 z"
             id="path1112"
             style="fill:#4d4d4d;stroke:#4d4d4d;stroke-width:1.21375;stroke-miterlimit:4;stroke-dasharray:none" />
          <path
             d="m 143.17,558.35 q -4.1797,0 -6.4844,-2.7734 -2.3047,-2.7734 -2.3047,-8.0078 0,-5.3711 2.3047,-8.3008 2.3047,-2.9492 6.6016,-2.9492 4.6094,0 6.8945,3.3984 h 0.11719 l 0.35156,-2.9883 h 1.6406 v 30.84 h -1.9141 v -8.0859 q 0,-2.3828 0.11718,-4.8438 h -0.11718 q -2.3047,3.7109 -7.207,3.7109 z m 0.0391,-1.7188 q 3.8672,0 5.5078,-2.1289 1.6602,-2.1289 1.6602,-7.1484 v -0.23437 q 0,-4.7852 -1.6602,-6.9141 -1.6602,-2.1289 -5.293,-2.1289 -3.4375,0 -5.2344,2.4219 -1.7774,2.4219 -1.7774,7.1094 0,4.4727 1.7383,6.7578 1.7578,2.2656 5.0586,2.2656 z"
             id="path1114"
             style="fill:#4d4d4d;stroke:#4d4d4d;stroke-width:1.21375;stroke-miterlimit:4;stroke-dasharray:none" />
          <path
             d="m 161.12,536.73 v 13.75 q 0,3.2031 1.3477,4.668 1.3477,1.4453 4.1797,1.4453 3.7891,0 5.5664,-1.9141 1.7969,-1.9141 1.7969,-6.2305 v -11.719 h 1.9141 v 21.23 h -1.6406 l -0.35157,-2.9297 h -0.11718 q -2.0703,3.3203 -7.3633,3.3203 -7.2461,0 -7.2461,-7.7539 v -13.867 z"
             id="path1116"
             style="fill:#4d4d4d;stroke:#4d4d4d;stroke-width:1.21375;stroke-miterlimit:4;stroke-dasharray:none" />
          <path
             d="m 191.6,558.35 q -4.6289,0 -7.2266,-2.8516 -2.5781,-2.8516 -2.5781,-7.9883 0,-5.0781 2.5,-8.125 2.5,-3.0664 6.7383,-3.0664 3.75,0 5.918,2.6172 2.168,2.6172 2.168,7.1094 v 1.5625 h -15.293 q 0.0391,4.375 2.0312,6.6797 2.0117,2.3047 5.7422,2.3047 1.8164,0 3.1836,-0.25391 1.3867,-0.25391 3.4961,-1.0938 v 1.7578 q -1.7969,0.78125 -3.3203,1.0547 -1.5234,0.29297 -3.3594,0.29297 z m -0.56641,-20.312 q -3.0664,0 -4.9219,2.0312 -1.8555,2.0117 -2.168,5.8203 h 13.125 q 0,-3.6914 -1.6016,-5.7617 -1.6016,-2.0898 -4.4336,-2.0898 z"
             id="path1118"
             style="fill:#4d4d4d;stroke:#4d4d4d;stroke-width:1.21375;stroke-miterlimit:4;stroke-dasharray:none" />
          <path
             d="m 218.15,552.43 q 0,2.8516 -2.168,4.3945 -2.168,1.5234 -6.1524,1.5234 -4.2578,0 -6.7578,-1.3086 v -2.0898 q 3.2031,1.6016 6.7578,1.6016 3.1445,0 4.7656,-1.0352 1.6406,-1.0547 1.6406,-2.793 0,-1.6016 -1.3086,-2.6953 -1.2891,-1.0938 -4.2578,-2.1484 -3.1836,-1.1524 -4.4727,-1.9727 -1.2891,-0.83984 -1.9531,-1.875 -0.64453,-1.0547 -0.64453,-2.5586 0,-2.3828 1.9922,-3.7695 2.0117,-1.3867 5.6055,-1.3867 3.4375,0 6.5234,1.2891 l -0.72266,1.7578 q -3.125,-1.2891 -5.8008,-1.2891 -2.5977,0 -4.1211,0.85938 -1.5234,0.85937 -1.5234,2.3828 0,1.6602 1.1719,2.6562 1.1914,0.99609 4.6289,2.2266 2.8711,1.0352 4.1797,1.875 1.3086,0.82031 1.9531,1.875 0.66406,1.0547 0.66406,2.4805 z"
             id="path1120"
             style="fill:#4d4d4d;stroke:#4d4d4d;stroke-width:1.21375;stroke-miterlimit:4;stroke-dasharray:none" />
          <path
             d="m 229.26,556.63 q 1.8359,0 3.2031,-0.3125 v 1.5625 q -1.4062,0.46875 -3.2422,0.46875 -2.8125,0 -4.1602,-1.5039 -1.3281,-1.5039 -1.3281,-4.7266 v -13.711 h -3.1445 v -1.1328 l 3.1445,-0.87891 0.97656,-4.8047 h 0.9961 v 5.1367 h 6.2305 v 1.6797 h -6.2305 v 13.438 q 0,2.4414 0.85937,3.6133 0.85938,1.1719 2.6953,1.1719 z"
             id="path1122"
             style="fill:#4d4d4d;stroke:#4d4d4d;stroke-width:1.21375;stroke-miterlimit:4;stroke-dasharray:none" />
          <path
             d="m 245.45,536.32 q 1.3477,0 2.8906,0.27344 l -0.3711,1.8555 q -1.3281,-0.33203 -2.7539,-0.33203 -2.7148,0 -4.4531,2.3047 -1.7383,2.3047 -1.7383,5.8203 v 11.719 h -1.9336 v -21.23 h 1.6406 l 0.19531,3.8281 h 0.13672 q 1.3086,-2.3438 2.793,-3.2812 1.4844,-0.95703 3.5938,-0.95703 z"
             id="path1124"
             style="fill:#4d4d4d;stroke:#4d4d4d;stroke-width:1.21375;stroke-miterlimit:4;stroke-dasharray:none" />
          <path
             d="m 265.53,557.96 -0.48828,-3.3594 h -0.15625 q -1.6016,2.0508 -3.3008,2.9102 -1.6797,0.83985 -3.9844,0.83985 -3.125,0 -4.8633,-1.6016 -1.7383,-1.6016 -1.7383,-4.4336 0,-3.1055 2.5781,-4.8242 2.5977,-1.7188 7.5,-1.8164 l 4.043,-0.11719 v -1.4062 q 0,-3.0273 -1.2305,-4.5703 -1.2305,-1.543 -3.9648,-1.543 -2.9492,0 -6.1133,1.6406 l -0.72266,-1.6797 q 3.4961,-1.6406 6.9141,-1.6406 3.4961,0 5.2148,1.8164 1.7383,1.8164 1.7383,5.6641 v 14.121 z m -7.8125,-1.3672 q 3.3984,0 5.3516,-1.9336 1.9727,-1.9531 1.9727,-5.4102 v -2.0898 l -3.7109,0.15625 q -4.4727,0.21485 -6.3867,1.4062 -1.8945,1.1719 -1.8945,3.6719 0,1.9922 1.2109,3.1055 1.2305,1.0938 3.457,1.0938 z"
             id="path1126"
             style="fill:#4d4d4d;stroke:#4d4d4d;stroke-width:1.21375;stroke-miterlimit:4;stroke-dasharray:none" />
          <path
             d="m 279.42,556.63 q 1.8359,0 3.2031,-0.3125 v 1.5625 q -1.4062,0.46875 -3.2422,0.46875 -2.8125,0 -4.1602,-1.5039 -1.3281,-1.5039 -1.3281,-4.7266 v -13.711 h -3.1445 v -1.1328 l 3.1445,-0.87891 0.97656,-4.8047 h 0.9961 v 5.1367 h 6.2305 v 1.6797 h -6.2305 v 13.438 q 0,2.4414 0.85937,3.6133 0.85938,1.1719 2.6953,1.1719 z"
             id="path1128"
             style="fill:#4d4d4d;stroke:#4d4d4d;stroke-width:1.21375;stroke-miterlimit:4;stroke-dasharray:none" />
          <path
             d="m 289.18,557.96 h -1.9336 v -21.23 h 1.9336 z m -2.207,-27.129 q 0,-1.875 1.2305,-1.875 0.60547,0 0.9375,0.48828 0.35156,0.48828 0.35156,1.3867 0,0.8789 -0.35156,1.3867 -0.33203,0.50781 -0.9375,0.50781 -1.2305,0 -1.2305,-1.8945 z"
             id="path1130"
             style="fill:#4d4d4d;stroke:#4d4d4d;stroke-width:1.21375;stroke-miterlimit:4;stroke-dasharray:none" />
          <path
             d="m 313.87,547.32 q 0,5.1953 -2.5195,8.125 -2.5195,2.9102 -6.9531,2.9102 -2.793,0 -4.9219,-1.3477 -2.1289,-1.3476 -3.2617,-3.8672 -1.1328,-2.5195 -1.1328,-5.8203 0,-5.1953 2.5195,-8.0859 2.5195,-2.9102 6.9141,-2.9102 4.375,0 6.8555,2.9492 2.5,2.9297 2.5,8.0469 z m -16.758,0 q 0,4.375 1.9141,6.8359 1.9336,2.4414 5.4492,2.4414 3.5156,0 5.4297,-2.4414 1.9336,-2.4609 1.9336,-6.8359 0,-4.3945 -1.9531,-6.8164 -1.9336,-2.4219 -5.4492,-2.4219 -3.5156,0 -5.4297,2.4219 -1.8945,2.4023 -1.8945,6.8164 z"
             id="path1132"
             style="fill:#4d4d4d;stroke:#4d4d4d;stroke-width:1.21375;stroke-miterlimit:4;stroke-dasharray:none" />
          <path
             d="m 334.55,557.96 v -13.77 q 0,-3.2031 -1.3476,-4.6484 -1.3477,-1.4648 -4.1797,-1.4648 -3.8086,0 -5.5859,1.9336 -1.7578,1.9141 -1.7578,6.2305 v 11.719 h -1.9336 v -21.23 h 1.6406 l 0.3711,2.9102 h 0.11718 q 2.0703,-3.3203 7.3633,-3.3203 7.2266,0 7.2266,7.7539 v 13.887 z"
             id="path1134"
             style="fill:#4d4d4d;stroke:#4d4d4d;stroke-width:1.21375;stroke-miterlimit:4;stroke-dasharray:none" />
        </g>
      </g>
      <path
         d="m 88.100171,140.22 c -0.28928,-0.0779 -0.54912,-0.22832 -0.78298,-0.45326 -0.23455,-0.2256 -0.39863,-0.46142 -0.4448,-0.6393 -0.01807,-0.0696 -0.06988,-0.22966 -0.11513,-0.3557 -0.10952,-0.30502 -0.16579,-1.3643 -0.13591,-2.5589 0.0263,-1.0518 0.06652,-1.5107 0.22093,-2.5207 0.13452,-0.87994 0.18291,-1.9123 0.11295,-2.4094 -0.05226,-0.37132 -0.20674,-1.2062 -0.28673,-1.5497 -0.19992,-0.85846 -0.26848,-2.2142 -0.15555,-3.0759 0.10887,-0.8308 0.18203,-1.0877 0.39915,-1.4018 0.26018,-0.37637 0.6137,-0.70797 1.165,-1.0928 0.25207,-0.17594 0.60011,-0.46043 0.77341,-0.63219 l 0.31509,-0.31228 v -1.0028 h -0.62144 l 0.02458,-0.92618 c 0.01353,-0.5094 0.03511,-1.1941 0.04798,-1.5215 l 0.02339,-0.59534 2.2175,-0.0247 c 1.2196,-0.0136 2.227,-0.0153 2.2385,-0.004 0.02329,0.0233 0.11037,2.0241 0.11498,2.6418 l 0.0029,0.39147 h -0.58394 l 0.02435,0.25781 c 0.0134,0.14179 0.02447,0.36605 0.02462,0.49835 l 2.88e-4,0.24055 0.26142,0.25782 c 0.14378,0.1418 0.52149,0.43451 0.83934,0.65048 0.62857,0.42708 1.0152,0.78281 1.2611,1.1602 0.12528,0.19228 0.17703,0.32789 0.25202,0.66036 0.14216,0.63027 0.21238,1.256 0.21238,1.8923 0,0.72164 -0.03927,1.0768 -0.25296,2.2881 -0.26647,1.5104 -0.26593,1.9358 0.0045,3.5328 0.14604,0.86259 0.19388,1.2366 0.24859,1.9438 0.04797,0.62003 0.04845,2.6716 7.21e-4,3.002 -0.08512,0.58904 -0.5405,1.203 -1.0958,1.4775 l -0.28734,0.14201 -0.7888,0.027 c -0.43384,0.0148 -1.7427,0.0361 -2.9085,0.0472 -1.78,0.017 -2.1527,0.0114 -2.3258,-0.0352 z"
         fill="#ff7f2a"
         stroke="#ffffff"
         stroke-width="4.138"
         style="fill:#4d4d4d;stroke:#ffffff;paint-order:markers stroke fill"
         id="path1140" />
      <path
         style="fill:#ffffff;fill-opacity:1;stroke:none;stroke-width:2.06643;stroke-miterlimit:4;stroke-dasharray:none"
         d="m 219.81376,302.83239 c -36.54126,-7.97237 -74.43523,-30.07629 -94.71342,-55.24728 -9.26846,-11.50479 -22.5954,-35.54698 -27.322482,-49.29055 -4.654131,-13.53149 -5.002469,-46.4254 -0.607941,-57.40841 5.463653,-13.65502 27.751413,-29.26191 48.743843,-34.13263 14.19141,-3.29273 44.66502,-1.2818 61.21173,4.0393 45.20029,14.53555 84.80041,47.81666 102.88891,86.47088 11.91593,25.46375 14.47704,55.71062 5.94583,70.22058 -8.39537,14.27892 -23.24901,26.25364 -40.9805,33.03767 -14.71127,5.6285 -35.89178,6.51557 -55.16597,2.31044 z m 40.3621,-8.21268 c 26.81118,-5.08464 44.91708,-23.2652 49.85416,-50.05975 3.59486,-19.50996 -2.78601,-43.17033 -17.87666,-66.28688 -8.27296,-12.6729 -10.60077,-14.90729 -13.01517,-12.49288 -1.01784,1.01784 0.92986,5.15693 5.563,11.822 15.70645,22.59474 21.08035,38.4326 20.04268,59.06953 -0.80751,16.05982 -4.30766,25.29105 -13.40932,35.3655 -15.57858,17.24362 -41.83613,23.08815 -68.15282,15.16978 -8.63064,-2.59684 -14.45062,-2.82376 -14.45062,-0.5634 0,2.17601 6.49119,4.59507 19.26749,7.1804 13.09604,2.65002 21.32631,2.85353 32.17726,0.7957 z m -59.47287,-12.80566 c 0,-0.86822 -3.79329,-3.49051 -8.42952,-5.82732 -23.22503,-11.70614 -50.67016,-34.73217 -64.64668,-54.23754 -5.92179,-8.26434 -10.41624,-11.40826 -10.41624,-7.28628 0,6.10192 24.88029,33.79523 42.27037,47.04954 19.01144,14.49006 41.22207,25.42865 41.22207,20.3016 z m 20.9672,-17.80069 c 7.45454,-2.71076 14.11231,-5.47307 14.79502,-6.13846 0.68273,-0.6654 -15.28191,-21.10245 -35.47697,-45.41566 -20.19506,-24.31321 -37.16658,-45.92012 -37.71449,-48.01535 -1.99692,-7.63623 6.00566,-14.31805 17.14821,-14.31805 8.16075,0 21.70133,7.53055 24.64679,13.70722 3.14218,6.58923 2.04068,9.54757 -5.13029,13.77855 -3.11188,1.83605 -5.65796,3.86906 -5.65796,4.51779 0,0.64873 2.34822,3.84933 5.21827,7.11245 l 5.21828,5.93293 9.10593,-1.9563 c 16.77626,-3.60418 36.22751,4.49525 43.0872,17.94136 5.69159,11.15643 3.27167,18.97755 -7.48259,24.1836 -3.83811,1.858 -6.96763,3.85562 -6.95449,4.43916 0.0132,0.58355 2.40263,3.87251 5.30997,7.30881 5.26663,6.22482 5.30941,6.24035 11.61689,4.21675 18.76387,-6.01992 26.54976,-23.45571 18.4456,-41.3072 -6.2093,-13.67757 -26.74049,-28.89331 -43.15125,-31.97953 -5.68982,-1.07004 -5.90966,-1.38149 -7.4242,-10.51795 -1.45395,-8.77097 -13.20848,-20.99889 -26.29717,-27.35625 -9.61954,-4.67234 -12.17359,-5.20355 -25.15712,-5.23232 -12.48693,-0.0277 -15.41076,0.51274 -21.51624,3.9768 -13.77341,7.81461 -16.27854,22.02813 -6.41038,36.371 2.58175,3.75244 17.31436,21.84955 32.73916,40.21581 15.42479,18.36625 28.05805,33.82072 28.07391,34.34326 0.0159,0.52253 -2.86128,1.81597 -6.39366,2.87429 -3.53237,1.05833 -6.42249,2.33315 -6.42249,2.83294 0,1.51347 9.8182,13.413 11.06696,13.413 0.63986,0 7.26256,-2.2179 14.71711,-4.92865 z M 115.58421,203.51283 c -0.0114,-0.66232 -1.54334,-5.90067 -3.40431,-11.64077 -2.16807,-6.6873 -3.4205,-14.85184 -3.48631,-22.72707 -0.0894,-10.70373 0.56162,-13.63997 5.04292,-22.74277 6.0205,-12.22937 13.24345,-19.09589 26.67953,-25.36296 20.80484,-9.70414 46.07946,-9.82965 71.63865,-0.35575 11.23132,4.16306 15.3992,4.08743 11.03146,-0.20016 -4.67301,-4.58726 -26.4604,-10.43456 -42.67803,-11.45393 -33.49493,-2.10534 -60.82884,10.89981 -72.39469,34.44454 -4.0346,8.21329 -4.44155,10.63642 -4.35299,25.91936 0.0786,13.55485 0.8092,18.6685 3.72802,26.09139 2.0585,5.23503 4.62314,9.23234 5.92339,9.23234 1.26119,0 2.28375,-0.5419 2.27236,-1.20422 z M 274.5557,159.35817 c -0.0117,-3.91529 -36.95625,-31.71107 -42.14854,-31.71107 -1.64585,0 -2.55044,0.7152 -2.01019,1.58934 1.34617,2.17815 41.34741,32.12876 42.91031,32.12876 0.68992,0 1.25171,-0.90316 1.24842,-2.00703 z"
         id="path10039"
         transform="matrix(0.26458333,0,0,0.26458333,-134.8275,29.0395)" />
      <path
         style="fill:#ffffff;fill-opacity:1;stroke:none;stroke-width:2.06643;stroke-miterlimit:4;stroke-dasharray:none"
         d="m 701.65766,165.54903 c 0,-0.34817 6.76632,-18.23081 15.03628,-39.73919 8.26995,-21.50838 15.53332,-40.528853 16.14081,-42.267714 0.78816,-2.255985 5.67865,9.011707 17.07368,39.337784 8.78303,23.37465 15.97028,42.67999 15.97166,42.90076 10e-4,0.22077 -14.44809,0.40141 -32.10995,0.40141 -17.66187,0 -32.11248,-0.28487 -32.11248,-0.63305 z"
         id="path10078"
         transform="matrix(0.26458333,0,0,0.26458333,-134.8275,29.0395)" />
      <path
         style="fill:#ffffff;fill-opacity:1;stroke:none;stroke-width:2.06643;stroke-miterlimit:4;stroke-dasharray:none"
         d="m 326.84039,210.14727 c -0.58026,-2.31193 -0.83922,-4.40756 -0.57547,-4.65694 0.26375,-0.24938 6.2598,-2.37346 13.32454,-4.72016 20.51117,-6.81323 48.97153,-25.63364 48.97153,-32.38415 0,-3.42003 -1.33463,-2.74518 -10.02742,5.07039 -9.54323,8.58019 -25.10616,17.57958 -39.32845,22.74199 -13.55177,4.91903 -15.38486,4.73999 -18.50718,-1.80759 l -2.62724,-5.50937 5.1397,-1.04832 c 13.94397,-2.84412 27.9089,-7.7531 30.42827,-10.69622 3.81139,-4.45247 3.53378,-11.01562 -1.10137,-26.03783 -2.15093,-6.97102 -4.40448,-17.44771 -5.00789,-23.28155 -1.53842,-14.87367 -4.11709,-20.25668 -11.51061,-24.02857 -5.25818,-2.68252 -6.24964,-4.002957 -6.40044,-8.524119 -0.0981,-2.942441 -0.94766,-7.336851 -1.88783,-9.765357 -2.0255,-5.23199 -4.88486,-5.514982 -18.14118,-1.795449 -8.37221,2.349123 -9.33039,3.054677 -9.2672,6.823902 0.0388,2.312137 1.05872,6.975354 2.26658,10.362703 2.05316,5.75793 1.94405,6.53024 -1.6761,11.86483 -4.85356,7.15213 -4.87339,12.98999 -0.0919,27.054 2.07918,6.11555 4.31346,15.39139 4.96507,20.61296 l 1.18476,9.49378 -7.9604,-9.49378 c -8.56754,-10.21786 -26.75923,-27.8999 -35.38427,-34.39296 l -5.31611,-4.00204 4.91471,-10.80271 c 5.60517,-12.320402 5.64137,-12.478838 2.85088,-12.478838 -1.1351,0 -4.38364,4.704348 -7.21898,10.454118 -4.76422,9.66133 -5.39916,10.30173 -8.37274,8.4447 -1.76966,-1.10518 -3.21758,-2.41668 -3.21758,-2.91446 0,-2.7553 11.13092,-17.738435 19.09236,-25.699867 21.54632,-21.546321 47.3387,-32.031801 78.78664,-32.029447 15.47114,0.0012 17.79722,0.414784 27.11097,4.820912 13.04333,6.170502 28.50953,21.475054 34.88016,34.515608 4.19857,8.594374 4.70626,11.279414 4.70575,24.887174 -6.7e-4,17.72389 -3.66208,30.45524 -13.38127,46.52906 -12.24867,20.25713 -30.94748,34.2919 -57.61636,43.24514 -12.57459,4.22153 -12.7331,4.21189 -14.00394,-0.85154 z m 74.89352,-68.80275 c 1.02733,-3.55966 1.87442,-12.28075 1.88243,-19.38021 0.0125,-11.11201 -0.67264,-14.35151 -4.9242,-23.281546 -9.72975,-20.436486 -32.94549,-36.866243 -52.0931,-36.866243 -11.97065,0 -12.23523,2.438011 -0.41534,3.827207 12.01714,1.412379 24.41372,7.511104 35.07708,17.256821 16.33277,14.927232 21.72168,34.605441 15.64339,57.123581 -1.71832,6.36582 -2.69262,12.00581 -2.16512,12.53331 1.48007,1.48007 4.9257,-4.04336 6.99486,-11.21292 z M 285.58594,85.299686 c 10.04155,-7.312181 18.34336,-11.331307 30.32057,-14.678975 9.88115,-2.761816 13.25729,-5.592942 6.66961,-5.592942 -4.49803,0 -20.33533,4.614234 -26.33851,7.673783 -7.15423,3.646198 -21.67592,14.674319 -21.67592,16.461224 0,2.841378 3.50291,1.613898 11.02425,-3.86309 z"
         id="path10117"
         transform="matrix(0.26458333,0,0,0.26458333,-134.8275,29.0395)" />
    </g>
    <path
       style="fill:#4d4d4d;stroke-width:0.163259"
       d="m -76.663656,116.4502 c -6.150821,-0.75392 -11.664115,-2.52132 -17.713606,-5.67844 -4.526128,-2.3621 -7.341128,-4.40771 -10.796548,-7.84567 -2.71957,-2.70582 -4.40699,-4.861782 -6.33698,-8.096508 -3.97793,-6.667149 -6.11681,-13.404967 -5.66355,-17.841104 0.0934,-0.914162 0.21076,-2.255214 0.26079,-2.980117 0.1681,-2.435549 0.80477,-4.170788 2.46453,-6.717095 1.19257,-1.829559 2.23525,-3.000867 4.23561,-4.758149 3.7527,-3.296672 6.38632,-4.974319 9.945,-6.335059 6.171891,-2.359978 14.123254,-2.465176 21.482387,-0.284217 1.899753,0.563012 4.780918,1.640876 5.93466,2.220195 0.525394,0.263812 0.969769,0.456482 0.987502,0.428155 0.01774,-0.02833 0.386185,-0.67597 0.818782,-1.439206 3.786788,-6.681088 11.32542,-12.124241 19.799913,-14.296221 6.628507,-1.698863 11.537123,-1.277744 16.977546,1.456535 7.583723,3.81147 13.049037,10.23867 14.596999,17.16605 0.307042,1.374051 0.268122,4.879433 -0.07522,6.775249 -0.79841,4.408556 -3.577932,10.082868 -6.544018,13.359419 -3.026945,3.343777 -6.542958,5.673756 -11.461717,7.595405 -2.629373,1.027236 -6.100509,1.959276 -8.570173,2.301192 l -0.758936,0.105072 0.08266,0.616248 c 0.127533,0.950854 -0.250948,3.969864 -0.685817,5.470516 -0.506123,1.74653 -1.273281,3.41434 -2.412455,5.24469 -4.266372,6.85495 -11.64817,11.80364 -19.710481,13.21371 -1.510804,0.26424 -5.710703,0.45984 -6.85688,0.31936 z m 0.847096,-2.16723 c 0.428622,-0.16296 3.133753,-2.13411 3.046321,-2.21976 -0.03126,-0.0306 -0.892905,-0.20811 -1.914774,-0.39444 l -1.857945,-0.33877 -1.424424,1.13593 c -1.825456,1.45572 -1.943927,1.59544 -1.44527,1.70447 1.212229,0.26504 3.044212,0.3224 3.596092,0.11256 z m 5.784423,-0.11018 c 0.676614,-0.13976 1.718995,-0.40507 2.316406,-0.58959 1.257785,-0.38849 5.625433,-2.26934 5.518386,-2.37639 -0.0397,-0.0397 -0.647688,0.0431 -1.3511,0.18394 -0.703412,0.14085 -2.368257,0.36308 -3.699653,0.49383 -2.338285,0.22963 -2.885196,0.38752 -2.885196,0.83297 0,0.11538 -0.375278,0.54718 -0.833952,0.95957 -0.935846,0.8414 -0.880542,0.87072 0.935109,0.49568 z m -11.416894,-1.85027 c 1.412523,-1.06503 1.935733,-1.57726 1.734903,-1.6985 -0.07319,-0.0442 -1.114361,-0.3819 -2.313706,-0.75048 l -2.180625,-0.67014 -1.492703,1.33465 c -0.820985,0.73405 -1.513001,1.38251 -1.537812,1.441 -0.0595,0.14031 3.510735,1.2701 4.075722,1.28976 0.297367,0.0103 0.850197,-0.29482 1.714221,-0.94629 z m -6.842988,-2.64152 c 0.828466,-0.7246 1.506304,-1.3745 1.506304,-1.44422 0,-0.1194 -4.138117,-2.13609 -4.383082,-2.13609 -0.06281,0 -0.692152,0.58136 -1.398532,1.2919 -0.905821,0.91117 -1.254156,1.37055 -1.181944,1.55873 0.08155,0.21252 3.534474,2.03984 3.865478,2.04564 0.04701,0.001 0.763309,-0.59135 1.591776,-1.31596 z m 22.076942,0.26369 c 6.840132,-1.03882 13.349625,-5.59899 15.843448,-11.099001 0.404069,-0.891155 0.517777,-1.434214 0.671231,-3.205627 0.637689,-7.361451 -2.177737,-15.448686 -7.810719,-22.436064 -1.784479,-2.213539 -5.603934,-5.900349 -7.888661,-7.614693 -8.288135,-6.219005 -17.578696,-9.423691 -26.28371,-9.066307 -4.942747,0.202924 -8.670922,1.363616 -12.489332,3.888291 -1.66346,1.099858 -3.91862,3.270486 -4.64076,4.466798 -2.01659,3.340759 -2.17619,11.304463 -0.33874,16.901955 0.99892,3.043024 3.9386,8.539075 6.5029,12.157852 1.28327,1.810965 4.638153,5.126057 6.895971,6.814166 6.531816,4.88368 15.122271,8.39589 22.599863,9.23997 2.053954,0.23185 5.243474,0.2101 6.938509,-0.0473 z m -5.14266,-2.88363 c -3.163073,-0.23281 -8.081322,-1.54525 -8.081322,-2.15649 0,-0.56143 0.411705,-0.60692 1.648008,-0.18211 7.775655,2.67187 14.87201,1.69629 19.445635,-2.67332 3.118867,-2.979738 4.527093,-6.45412 4.534494,-11.187522 0.0058,-3.707668 -0.701789,-6.505887 -2.627972,-10.392593 -0.987404,-1.9924 -2.911348,-4.959863 -4.26271,-6.574732 -0.474348,-0.566839 -0.494347,-0.636731 -0.251641,-0.879435 0.371178,-0.371179 0.652633,-0.208596 1.513614,0.874348 4.790496,6.025511 7.251917,13.020927 6.61486,18.799571 -1.033545,9.375083 -8.435758,15.115493 -18.532966,14.372283 z m -12.924531,-3.885 c -4.901849,-2.34834 -9.726171,-5.888798 -13.869442,-10.178447 -2.73252,-2.829055 -5.71347,-6.854984 -5.49903,-7.426746 0.19182,-0.511487 0.68695,-0.144283 1.51068,1.120406 1.38009,2.118853 3.234568,4.307584 5.663923,6.684781 3.944323,3.859638 7.697359,6.575296 12.105867,8.759676 1.830491,0.90699 2.483767,1.30717 2.447217,1.49912 -0.08851,0.46489 -0.665282,0.35273 -2.359215,-0.45879 z m 2.801601,-4.78728 -1.388074,-1.657024 1.265878,-0.456586 c 0.696234,-0.251118 1.578159,-0.573598 1.959836,-0.716621 l 0.693956,-0.260039 -0.975685,-1.170089 c -0.536628,-0.643542 -4.286793,-5.100543 -8.3337,-9.904441 -8.544042,-10.142237 -8.667603,-10.324813 -8.783674,-12.978692 -0.05955,-1.361685 -0.02325,-1.616001 0.345797,-2.422101 1.22028,-2.66544 4.083831,-4.072002 8.278027,-4.066124 1.654974,0.0023 2.34027,0.08132 3.625299,0.41789 5.685111,1.489052 10.086045,5.649024 10.140938,9.585692 l 0.01487,1.066872 1.721357,0.426238 c 6.423859,1.590661 11.483151,6.211348 12.256179,11.193658 0.467533,3.013284 -1.087641,5.796784 -4.080931,7.304173 -1.172891,0.590661 -2.95783,1.12612 -3.11951,0.935816 -2.168488,-2.552434 -2.770256,-3.319866 -2.69663,-3.438997 0.04933,-0.0798 0.366808,-0.191083 0.70552,-0.2473 0.916598,-0.152105 2.207696,-0.808766 2.846845,-1.447914 0.895425,-0.895427 1.191747,-1.657443 1.194787,-3.072495 0.0026,-1.099102 -0.06399,-1.367742 -0.611335,-2.475218 -1.157691,-2.342431 -3.980343,-4.438023 -6.895934,-5.119683 -0.63866,-0.149311 -1.863032,-0.270153 -2.775404,-0.273911 -1.411022,-0.0058 -1.824812,0.06076 -3.048943,0.490513 l -1.416352,0.497236 -1.412791,-1.687072 c -0.777035,-0.927888 -1.388607,-1.746606 -1.359052,-1.819374 0.02956,-0.07277 0.596578,-0.368281 1.260042,-0.656701 1.454318,-0.632217 1.925555,-1.046512 2.153587,-1.893355 0.739694,-2.747015 -3.161769,-5.99739 -7.189962,-5.990079 -1.140618,0.0021 -2.383189,0.272915 -3.206646,0.698956 -0.726534,0.375897 -1.50084,1.321556 -1.6253,1.984978 -0.142963,0.762085 0.163733,1.964768 0.730596,2.864935 0.254454,0.404066 4.663213,5.722853 9.797244,11.819528 5.134031,6.096672 9.275637,11.142645 9.203568,11.213272 -0.07207,0.07064 -1.600365,0.655166 -3.396214,1.298973 -1.79585,0.643804 -3.540793,1.269902 -3.87765,1.391328 l -0.612467,0.220778 -1.388074,-1.657018 z M -105.18569,82.787968 c -0.25938,-0.164859 -1.24344,-2.728809 -1.66488,-4.337788 -1.05541,-4.029468 -0.79983,-7.970854 0.72569,-11.190648 2.27737,-4.806691 7.165648,-8.084248 13.543469,-9.080817 1.411558,-0.220564 2.40722,-0.261371 4.652882,-0.190699 4.089675,0.128705 7.090098,0.805123 10.967158,2.472445 1.331612,0.572657 1.728399,0.900069 1.513053,1.248507 -0.153177,0.247849 -0.44413,0.175362 -1.993639,-0.496699 -8.441302,-3.661192 -17.734008,-3.060666 -23.693823,1.531174 -5.27045,4.060697 -6.70494,10.85416 -3.85189,18.241659 0.31964,0.827663 0.54422,1.601134 0.49906,1.718823 -0.0913,0.237866 -0.39707,0.274734 -0.69708,0.08405 z m 40.839646,-12.406511 c -2.05648,-1.779016 -4.260442,-3.456939 -6.916583,-5.265743 -1.677153,-1.142124 -2.462366,-1.7728 -2.462366,-1.977755 0,-0.564164 0.642336,-0.314497 2.657771,1.033035 2.442117,1.632814 4.647562,3.290643 6.853801,5.151987 1.781588,1.50308 1.939952,1.666688 1.860305,1.921909 -0.145057,0.464824 -0.770989,0.193643 -1.992928,-0.863433 z m -29.722451,34.984383 c 0.349408,-0.40852 0.606541,-0.76681 0.571407,-0.79619 -0.03513,-0.0294 -0.742593,-0.50637 -1.572135,-1.05998 l -1.508257,-1.00656 -1.463604,1.31228 c -0.804981,0.72175 -1.505178,1.37955 -1.555997,1.46177 -0.104723,0.16944 1.556459,1.39656 2.74095,2.02476 l 0.786312,0.41702 0.683018,-0.80516 c 0.375662,-0.44284 0.9689,-1.13941 1.318306,-1.54794 z m -5.49224,-3.36729 c 0.381616,-0.45542 0.691874,-0.91258 0.689459,-1.0159 -0.01203,-0.5145 -1.926684,-2.228617 -2.489344,-2.228617 -0.4126,0 -3.38361,1.801437 -3.38361,2.051617 0,0.10232 0.69932,0.86256 1.55405,1.68943 l 1.55406,1.5034 0.69077,-0.58596 c 0.37992,-0.32227 1.002996,-0.95856 1.384615,-1.41397 z m -5.806745,-3.846325 c 0.56476,-0.330997 1.35565,-0.726626 1.75754,-0.879182 0.40188,-0.152552 0.75264,-0.343194 0.77946,-0.423647 0.0581,-0.174293 -2.23954,-3.024512 -2.50825,-3.111472 -0.16414,-0.05313 -0.57642,0.264876 -2.71272,2.092338 l -0.49454,0.423042 0.94111,1.250364 c 0.5176,0.687701 1.00173,1.250365 1.07583,1.250365 0.0741,0 0.59681,-0.270814 1.16157,-0.601808 z m -3.26218,-5.002731 c 0.56562,-0.568307 1.23841,-1.179317 1.49509,-1.357798 l 0.46669,-0.324511 -0.85394,-1.501902 c -0.46966,-0.82605 -0.91738,-1.541116 -0.99492,-1.589038 -0.14731,-0.09104 -2.34912,1.470873 -2.73527,1.940333 -0.13704,0.166605 -0.1815,0.432852 -0.11591,0.694166 0.10539,0.41987 1.53792,3.172038 1.65108,3.172038 0.0323,0 0.52158,-0.464979 1.08719,-1.033288 z m 61.842408,-3.109826 c 0,-0.03389 -0.110201,-0.153095 -0.244888,-0.264878 -0.200566,-0.16645 -0.244888,-0.155289 -0.244888,0.06165 0,0.145681 0.110201,0.264878 0.244888,0.264878 0.134688,0 0.244888,-0.02774 0.244888,-0.06165 z m 4.215105,-0.842609 c 0.465257,-0.138168 0.845927,-0.291879 0.845927,-0.341579 0,-0.04969 -0.453718,-0.582398 -1.00826,-1.183771 l -1.008262,-1.093411 -1.521426,0.414618 c -0.83678,0.228041 -1.521795,0.458535 -1.522252,0.51221 -4.93e-4,0.05367 0.434514,0.512844 0.966604,1.020369 0.875052,0.83466 1.035918,0.922777 1.684587,0.922777 0.394434,0 1.09782,-0.11305 1.563082,-0.251213 z m -68.981143,-1.684785 c 0.46755,-0.346462 1.08887,-0.766369 1.38069,-0.933126 0.29183,-0.166761 0.5301,-0.342458 0.5295,-0.390443 -0.003,-0.258637 -1.43291,-3.503376 -1.5612,-3.54324 -0.26983,-0.08386 -2.26581,1.658388 -2.42788,2.119226 -0.10777,0.306427 -0.0923,0.68819 0.0492,1.217399 0.2902,1.085015 0.78797,2.160109 1.00013,2.160109 0.0987,0 0.56199,-0.283466 1.02955,-0.629925 z m 73.964552,0.02386 1.117193,-0.437003 -0.461493,-0.335581 c -0.253814,-0.184561 -0.903484,-0.710033 -1.443703,-1.167703 l -0.982224,-0.832125 -1.214583,0.516844 c -0.668021,0.284264 -1.239083,0.590345 -1.26903,0.680179 -0.02995,0.08984 0.427436,0.626067 1.016406,1.191621 1.221256,1.172713 1.220676,1.172645 3.237434,0.383768 z m 4.739585,-2.338174 c 0.07873,-0.07334 -0.250588,-0.678333 -0.734668,-1.349654 -0.482555,-0.669212 -0.950838,-1.332884 -1.040634,-1.474826 -0.140439,-0.221993 -0.354123,-0.132248 -1.528369,0.641943 -0.750806,0.495009 -1.338544,0.926446 -1.306069,0.95875 0.03245,0.0323 0.64641,0.576108 1.36431,1.208456 l 1.305268,1.149728 0.898728,-0.500746 c 0.494297,-0.275411 0.962943,-0.560552 1.041434,-0.633651 z m -11.750558,-0.06854 c 4.134287,-1.383065 7.609548,-3.149729 10.073007,-5.12066 4.091563,-3.273521 7.434337,-8.908088 8.667807,-14.610428 0.508398,-2.35034 0.506123,-6.450143 -0.0047,-8.356969 -1.124773,-4.199103 -4.407454,-8.363842 -8.732898,-11.079443 -2.957957,-1.857058 -5.019926,-2.305801 -9.986823,-2.173411 -2.473265,0.06592 -3.501263,0.167252 -5.072373,0.499981 -7.333367,1.553052 -13.7094,5.681685 -17.953558,11.625354 -0.974036,1.364075 -2.291267,3.624655 -2.173783,3.730561 0.0318,0.02867 0.558738,0.356955 1.170967,0.729525 l 1.113143,0.677403 0.264488,-0.698914 c 0.377301,-0.997023 2.293647,-4.736331 2.568199,-5.011252 0.182148,-0.182392 0.280562,-0.189365 0.468714,-0.03321 0.203431,0.168832 0.07533,0.511984 -0.878483,2.353232 -0.614151,1.185566 -1.264007,2.532253 -1.44412,2.992635 l -0.327442,0.837051 0.91938,0.632275 c 4.005697,2.754792 8.206997,6.89528 11.358873,11.19446 0.638279,0.870617 1.179218,1.564227 1.202088,1.541357 0.02285,-0.02287 -0.06507,-0.882128 -0.195419,-1.90946 -0.130348,-1.02733 -0.306909,-2.529073 -0.392354,-3.337206 -0.1204,-1.138787 -0.317263,-1.854965 -0.875089,-3.18355 -0.826318,-1.968057 -1.035229,-2.730834 -1.184929,-4.326365 -0.134996,-1.438857 0.153752,-2.174192 1.450037,-3.692687 0.607372,-0.711484 0.920823,-1.223482 0.920823,-1.504084 0,-0.278352 -0.07217,-0.397724 -0.208757,-0.345309 -0.481882,0.184916 -0.736363,-0.35619 -1.076917,-2.28986 -0.273192,-1.551203 -0.302399,-1.99287 -0.141509,-2.139967 0.358688,-0.327931 6.15232,-1.775789 6.342968,-1.585141 0.09406,0.09405 0.391055,1.041725 0.659999,2.105935 0.488189,1.93176 0.488451,1.935364 0.159827,2.201466 -0.544924,0.441256 -0.278255,0.905751 0.738372,1.28612 2.039203,0.762963 2.704224,1.311742 3.288633,2.713785 0.520535,1.248817 0.688898,2.19112 0.84206,4.712891 0.130594,2.150325 0.184572,2.412753 0.874266,4.250917 0.698491,1.8616 1.581776,5.296195 1.581776,6.15063 0,0.5878 -0.779073,2.045213 -1.286392,2.406456 -0.424101,0.301989 -2.568744,0.953361 -6.223517,1.89021 -1.181031,0.30274 -1.930039,0.410334 -2.408075,0.345916 -0.381615,-0.05143 -0.693849,-0.06563 -0.693849,-0.03157 0,0.03406 0.204397,0.455088 0.45422,0.935617 0.249819,0.480528 0.65815,1.333182 0.907403,1.894787 0.516159,1.162972 0.228865,1.118043 2.801482,0.43811 5.141964,-1.359003 11.549664,-5.050622 13.713761,-7.900804 0.546706,-0.720031 1.061186,-0.868908 1.061186,-0.307077 0,0.551371 -2.612513,3.006235 -4.638825,4.358903 -3.118204,2.081562 -6.732934,3.716292 -10.186489,4.606753 -1.041023,0.268417 -1.914586,0.509843 -1.941246,0.536506 -0.04032,0.04032 0.170736,0.70301 0.858376,2.695305 0.111936,0.324319 1.023746,0.143584 3.565666,-0.706778 z m 14.244253,-16.04928 c -0.04828,-0.07815 0.125726,-0.761781 0.38671,-1.519184 0.814331,-2.363205 1.024732,-3.619511 1.023556,-6.111609 -0.0015,-2.661776 -0.302684,-4.054858 -1.340464,-6.195031 -2.43321,-5.017905 -8.324716,-8.990997 -13.562931,-9.146516 -1.390882,-0.04129 -1.550962,-0.07762 -1.550962,-0.351941 0,-0.281162 0.145201,-0.304986 1.79585,-0.294655 1.467145,0.0092 2.054456,0.09145 3.208724,0.449438 5.397895,1.674144 9.84152,5.802159 11.496235,10.679714 1.216829,3.586795 1.053756,7.785283 -0.44953,11.573962 -0.349984,0.882044 -0.784102,1.276785 -1.007188,0.915824 z M -61.896184,52.866164 c -0.150865,-0.244111 0.421613,-0.823351 2.10962,-2.134534 2.59198,-2.013354 4.805514,-3.053817 8.440222,-3.967301 1.801273,-0.4527 2.369304,-0.540138 2.547611,-0.392158 0.380854,0.316081 0.03148,0.479173 -2.263095,1.056428 -3.983253,1.002083 -6.391015,2.221435 -9.275923,4.697568 -1.073106,0.92105 -1.361813,1.058137 -1.558435,0.739997 z m 31.283686,30.744522 c 0.676629,-0.458261 2.110258,-1.712528 2.110258,-1.846243 0,-0.140187 -1.875861,-1.641782 -2.404249,-1.924567 -0.192325,-0.102937 -0.454376,-0.187143 -0.582324,-0.187143 -0.307058,0 -1.747937,1.274064 -1.747937,1.545575 0,0.205416 1.958379,2.692721 2.122366,2.695585 0.0449,8.21e-4 0.270748,-0.126658 0.501886,-0.283203 z m -83.281092,-1.991999 c 1.03867,-1.038671 1.50423,-1.853251 1.51404,-2.64907 0.0136,-1.1104 -0.20101,-2.092291 -0.45749,-2.092291 -0.42849,0 -1.66143,1.361504 -1.84803,2.040738 -0.22645,0.824292 -0.23999,3.346811 -0.018,3.346811 0.0898,0 0.45404,-0.290784 0.80945,-0.646188 z m 86.872885,-1.516994 c 0.170187,-0.202033 0.584157,-0.75925 0.91993,-1.238256 0.519717,-0.741415 0.572591,-0.892141 0.355555,-1.013601 -0.14022,-0.07847 -0.828332,-0.55406 -1.529139,-1.056865 -0.700804,-0.502805 -1.326639,-0.854818 -1.390741,-0.782251 -0.584917,0.66216 -1.472433,1.919673 -1.434716,2.032828 0.04503,0.1352 2.598514,2.413291 2.714223,2.421529 0.03051,0.0021 0.194701,-0.161346 0.364888,-0.363384 z m 3.057247,-4.657487 c 0.978598,-1.836037 1.00594,-1.663547 -0.470163,-2.96639 -0.717417,-0.633213 -1.360231,-1.151297 -1.428481,-1.151297 -0.06825,0 -0.446865,0.658529 -0.841376,1.463396 -0.713602,1.455855 -0.715673,1.465192 -0.401764,1.812059 0.46894,0.518171 2.195904,1.785576 2.43302,1.785576 0.113283,0 0.432229,-0.424505 0.708764,-0.943344 z m -89.671952,-1.235784 0.63225,-0.546537 0.11107,-2.188052 c 0.0611,-1.203428 0.0836,-2.21771 0.0501,-2.253962 -0.1761,-0.19039 -1.46027,3.420242 -1.77992,5.004496 -0.14215,0.704459 0.15874,0.699598 0.98651,-0.01596 z m 91.64671,-3.753725 c 0.216615,-0.772273 0.334467,-1.511096 0.272288,-1.706997 -0.106724,-0.336253 -2.29939,-2.48221 -2.536235,-2.48221 -0.106373,0 -0.840633,2.524349 -0.884883,3.042174 -0.01611,0.187602 2.462104,2.508633 2.678437,2.508633 0.04868,0 0.260342,-0.612721 0.470393,-1.3616 z m 0.523019,-6.852305 c -0.178306,-0.286248 -0.724879,-0.914503 -1.214604,-1.396119 -1.009247,-0.992544 -0.989108,-1.006433 -1.165629,0.803938 l -0.104432,1.071084 1.356571,1.296172 1.356569,1.296171 0.04787,-1.275397 c 0.03918,-1.044387 -0.01084,-1.369661 -0.276343,-1.795849 z m -0.396272,-3.889427 c -0.215978,-0.573813 -0.62186,-1.497271 -0.901953,-2.052131 -0.61144,-1.211255 -2.303854,-3.863489 -2.402426,-3.764917 -0.03851,0.03851 0.106975,0.590414 0.323302,1.226447 0.216327,0.636033 0.478129,1.585134 0.58178,2.109113 0.337754,1.707465 0.467651,1.967589 1.196726,2.396453 0.376475,0.221454 0.862331,0.593012 1.079685,0.825686 0.217356,0.232671 0.422275,0.39595 0.455381,0.362841 0.03314,-0.03311 -0.116505,-0.529681 -0.332495,-1.103492 z"
       id="path2232" />
    <g
       aria-label="brikcoin manual blockchain"
       id="text1196"
       style="font-size:10.5916px;line-height:1.25;fill:#4d4d4d;stroke-width:0.264788">
      <path
         d="m -133.04274,139.00613 v -7.79541 h 0.96384 v 3.81297 l -0.1271,-0.1271 q 0.18005,-0.63549 0.68845,-0.99561 0.5084,-0.36011 1.21803,-0.36011 0.70964,0 1.23922,0.33893 0.52958,0.33893 0.82615,0.96384 0.30715,0.61431 0.30715,1.45104 0,0.83674 -0.30715,1.47224 -0.29657,0.6249 -0.83674,0.97442 -0.52958,0.33894 -1.22863,0.33894 -0.70963,0 -1.21803,-0.34953 -0.5084,-0.36011 -0.68845,-1.0062 l 0.1165,-0.1271 v 1.40868 z m 2.54198,-0.70963 q 0.75201,0 1.16508,-0.51899 0.41307,-0.52958 0.41307,-1.48283 0,-0.93206 -0.41307,-1.44045 -0.41307,-0.51899 -1.16508,-0.51899 -0.76259,0 -1.17566,0.51899 -0.41308,0.51899 -0.41308,1.46164 0,0.95324 0.41308,1.47223 0.41307,0.5084 1.17566,0.5084 z"
         style="font-weight:500;font-family:Mulish;-inkscape-font-specification:'Mulish Medium'"
         id="path5205" />
      <path
         d="m -126.64543,139.00613 v -3.83416 q 0,-0.3707 -0.0212,-0.74141 -0.0106,-0.38129 -0.0636,-0.752 h 0.91088 l 0.11651,1.32395 -0.11651,-0.0424 q 0.13769,-0.69904 0.62491,-1.04857 0.4978,-0.36011 1.11211,-0.36011 0.14829,0 0.26479,0.0212 0.1271,0.0106 0.23302,0.0424 l -0.0106,0.8791 q -0.26479,-0.0953 -0.59313,-0.0953 -0.54017,0 -0.86851,0.23301 -0.32834,0.23302 -0.47662,0.59313 -0.14829,0.36012 -0.14829,0.77319 v 3.00801 z"
         style="font-weight:500;font-family:Mulish;-inkscape-font-specification:'Mulish Medium'"
         id="path5207" />
      <path
         d="m -122.73714,139.00613 v -5.32757 h 0.96384 v 5.32757 z m -0.0847,-7.62595 h 1.1333 v 1.04857 h -1.1333 z"
         style="font-weight:500;font-family:Mulish;-inkscape-font-specification:'Mulish Medium'"
         id="path5209" />
      <path
         d="m -116.56226,139.00613 -2.82795,-2.72204 2.62671,-2.59494 h 1.20745 l -2.92328,2.84914 0.0424,-0.56135 3.11393,3.02919 z m -3.60114,0 v -7.79541 h 0.96384 v 7.79541 z"
         style="font-weight:500;font-family:Mulish;-inkscape-font-specification:'Mulish Medium'"
         id="path5211" />
      <path
         d="m -112.44214,139.08028 q -0.80497,0 -1.3875,-0.33894 -0.57195,-0.33893 -0.8897,-0.95324 -0.31775,-0.61431 -0.31775,-1.45105 0,-0.82614 0.31775,-1.46164 0.32834,-0.6355 0.92147,-0.98502 0.59313,-0.34952 1.39809,-0.34952 0.55077,0 1.05916,0.19065 0.5084,0.18005 0.83674,0.50839 l -0.30716,0.69905 q -0.3813,-0.29657 -0.76259,-0.44485 -0.37071,-0.15887 -0.77319,-0.15887 -0.77319,0 -1.23922,0.51899 -0.45544,0.51899 -0.45544,1.48282 0,0.94265 0.45544,1.45105 0.45544,0.5084 1.24981,0.5084 0.3813,0 0.7626,-0.14829 0.38129,-0.14828 0.76259,-0.45543 l 0.30716,0.69904 q -0.33893,0.31775 -0.85792,0.5084 -0.51899,0.18006 -1.08034,0.18006 z"
         style="font-weight:500;font-family:Mulish;-inkscape-font-specification:'Mulish Medium'"
         id="path5213" />
      <path
         d="m -107.2099,139.08028 q -0.77318,0 -1.35572,-0.33894 -0.57195,-0.33893 -0.8897,-0.95324 -0.31774,-0.6249 -0.31774,-1.47223 0,-0.83674 0.31774,-1.46164 0.31775,-0.6355 0.8897,-0.97443 0.58254,-0.33893 1.35572,-0.33893 0.78378,0 1.35573,0.33893 0.57195,0.33893 0.88969,0.97443 0.31775,0.6249 0.31775,1.46164 0,0.84733 -0.31775,1.47223 -0.31774,0.61431 -0.88969,0.95324 -0.57195,0.33894 -1.35573,0.33894 z m 0,-0.78378 q 0.7626,0 1.17567,-0.49781 0.41307,-0.5084 0.41307,-1.48282 0,-0.96384 -0.42366,-1.47223 -0.41307,-0.5084 -1.16508,-0.5084 -0.74141,0 -1.16507,0.5084 -0.42367,0.50839 -0.42367,1.47223 0,0.97442 0.41308,1.48282 0.41307,0.49781 1.17566,0.49781 z"
         style="font-weight:500;font-family:Mulish;-inkscape-font-specification:'Mulish Medium'"
         id="path5215" />
      <path
         d="m -103.34396,139.00613 v -5.32757 h 0.96383 v 5.32757 z m -0.0847,-7.62595 h 1.1333 v 1.04857 h -1.1333 z"
         style="font-weight:500;font-family:Mulish;-inkscape-font-specification:'Mulish Medium'"
         id="path5217" />
      <path
         d="m -100.77023,139.00613 v -3.83416 q 0,-0.3707 -0.0212,-0.74141 -0.0106,-0.38129 -0.0636,-0.752 h 0.910879 l 0.09532,1.09093 -0.105916,0.0636 q 0.233015,-0.6249 0.741412,-0.95324 0.518989,-0.33893 1.186259,-0.33893 1.91708,0 1.91708,2.12891 v 3.33635 h -0.963836 v -3.28339 q 0,-0.72023 -0.285973,-1.04857 -0.275381,-0.33893 -0.889694,-0.33893 -0.709637,0 -1.133301,0.44485 -0.423664,0.43425 -0.423664,1.17566 v 3.05038 z"
         style="font-weight:500;font-family:Mulish;-inkscape-font-specification:'Mulish Medium'"
         id="path5219" />
      <path
         d="m -91.735604,139.00613 v -3.83416 q 0,-0.3707 -0.02118,-0.74141 -0.01059,-0.38129 -0.06355,-0.752 h 0.910878 l 0.09532,1.09093 -0.105916,0.053 q 0.190649,-0.61431 0.65668,-0.94265 0.476622,-0.33893 1.122709,-0.33893 0.773187,0 1.196851,0.3813 0.434256,0.38129 0.550763,1.16507 l -0.254198,-0.15887 q 0.180057,-0.6355 0.688454,-1.0062 0.508397,-0.3813 1.218034,-0.3813 0.889694,0 1.334542,0.52958 0.444847,0.52958 0.444847,1.59933 v 3.33635 h -0.963836 v -3.29398 q 0,-0.70964 -0.254198,-1.03798 -0.243607,-0.33893 -0.79437,-0.33893 -0.646088,0 -1.016794,0.44485 -0.370706,0.43425 -0.370706,1.19685 v 3.02919 h -0.963836 v -3.29398 q 0,-0.70964 -0.254198,-1.03798 -0.254198,-0.33893 -0.804962,-0.33893 -0.656679,0 -1.027385,0.44485 -0.360114,0.43425 -0.360114,1.19685 v 3.02919 z"
         style="font-weight:500;font-family:Mulish;-inkscape-font-specification:'Mulish Medium'"
         id="path5221" />
      <path
         d="m -80.32846,139.08028 q -0.699046,0 -1.239218,-0.32834 -0.52958,-0.33894 -0.826144,-0.95325 -0.296565,-0.6249 -0.296565,-1.46164 0,-0.83674 0.296565,-1.46164 0.307156,-0.6249 0.836736,-0.97443 0.540172,-0.36011 1.228626,-0.36011 0.720228,0 1.228625,0.36011 0.508397,0.34953 0.688454,1.0062 l -0.127099,0.0742 v -1.30277 h 0.953244 v 5.32757 h -0.953244 v -1.33454 l 0.127099,0.053 q -0.180057,0.64609 -0.688454,1.0062 -0.508397,0.34953 -1.228625,0.34953 z m 0.211832,-0.78378 q 0.762595,0 1.165076,-0.5084 0.413072,-0.51899 0.413072,-1.47223 0,-0.95325 -0.413072,-1.46164 -0.413073,-0.51899 -1.165076,-0.51899 -0.752004,0 -1.175668,0.52958 -0.423664,0.52958 -0.423664,1.47223 0,0.94265 0.423664,1.45105 0.423664,0.5084 1.175668,0.5084 z"
         style="font-weight:500;font-family:Mulish;-inkscape-font-specification:'Mulish Medium'"
         id="path5223" />
      <path
         d="m -75.975335,139.00613 v -3.83416 q 0,-0.3707 -0.02118,-0.74141 -0.01059,-0.38129 -0.06355,-0.752 h 0.910877 l 0.09533,1.09093 -0.105916,0.0636 q 0.233015,-0.6249 0.741412,-0.95324 0.518988,-0.33893 1.186259,-0.33893 1.917079,0 1.917079,2.12891 v 3.33635 h -0.963835 v -3.28339 q 0,-0.72023 -0.285973,-1.04857 -0.275382,-0.33893 -0.889695,-0.33893 -0.709637,0 -1.133301,0.44485 -0.423664,0.43425 -0.423664,1.17566 v 3.05038 z"
         style="font-weight:500;font-family:Mulish;-inkscape-font-specification:'Mulish Medium'"
         id="path5225" />
      <path
         d="m -67.840997,139.08028 q -0.963835,0 -1.451049,-0.52958 -0.476622,-0.54018 -0.476622,-1.58874 v -3.2834 h 0.963836 v 3.2728 q 0,0.68846 0.275381,1.0168 0.285973,0.31775 0.868511,0.31775 0.677863,0 1.090935,-0.43426 0.413073,-0.44485 0.413073,-1.17567 v -2.99742 h 0.974427 v 5.32757 h -0.942652 v -1.14389 l 0.127099,-0.053 q -0.211832,0.62491 -0.709638,0.95325 -0.497805,0.31775 -1.133301,0.31775 z"
         style="font-weight:500;font-family:Mulish;-inkscape-font-specification:'Mulish Medium'"
         id="path5227" />
      <path
         d="m -61.538997,139.08028 q -0.699046,0 -1.239218,-0.32834 -0.52958,-0.33894 -0.826144,-0.95325 -0.296565,-0.6249 -0.296565,-1.46164 0,-0.83674 0.296565,-1.46164 0.307156,-0.6249 0.836736,-0.97443 0.540172,-0.36011 1.228626,-0.36011 0.720229,0 1.228625,0.36011 0.508397,0.34953 0.688454,1.0062 l -0.127099,0.0742 v -1.30277 h 0.953244 v 5.32757 h -0.953244 v -1.33454 l 0.127099,0.053 q -0.180057,0.64609 -0.688454,1.0062 -0.508396,0.34953 -1.228625,0.34953 z m 0.211832,-0.78378 q 0.762595,0 1.165076,-0.5084 0.413072,-0.51899 0.413072,-1.47223 0,-0.95325 -0.413072,-1.46164 -0.413073,-0.51899 -1.165076,-0.51899 -0.752004,0 -1.175668,0.52958 -0.423664,0.52958 -0.423664,1.47223 0,0.94265 0.423664,1.45105 0.423664,0.5084 1.175668,0.5084 z"
         style="font-weight:500;font-family:Mulish;-inkscape-font-specification:'Mulish Medium'"
         id="path5229" />
      <path
         d="m -57.185875,139.00613 v -7.79541 h 0.963835 v 7.79541 z"
         style="font-weight:500;font-family:Mulish;-inkscape-font-specification:'Mulish Medium'"
         id="path5231" />
      <path
         d="m -51.815949,139.00613 v -7.79541 h 0.963836 v 3.81297 l -0.1271,-0.1271 q 0.180058,-0.63549 0.688454,-0.99561 0.508397,-0.36011 1.218034,-0.36011 0.709638,0 1.239218,0.33893 0.52958,0.33893 0.826145,0.96384 0.307156,0.61431 0.307156,1.45104 0,0.83674 -0.307156,1.47224 -0.296565,0.6249 -0.836737,0.97442 -0.52958,0.33894 -1.228626,0.33894 -0.709637,0 -1.218034,-0.34953 -0.508396,-0.36011 -0.688454,-1.0062 l 0.116508,-0.1271 v 1.40868 z m 2.541984,-0.70963 q 0.752004,0 1.165076,-0.51899 0.413073,-0.52958 0.413073,-1.48283 0,-0.93206 -0.413073,-1.44045 -0.413072,-0.51899 -1.165076,-0.51899 -0.762595,0 -1.175668,0.51899 -0.413072,0.51899 -0.413072,1.46164 0,0.95324 0.413072,1.47223 0.413073,0.5084 1.175668,0.5084 z"
         style="font-weight:500;font-family:Mulish;-inkscape-font-specification:'Mulish Medium'"
         id="path5233" />
      <path
         d="m -45.418641,139.00613 v -7.79541 h 0.963836 v 7.79541 z"
         style="font-weight:500;font-family:Mulish;-inkscape-font-specification:'Mulish Medium'"
         id="path5235" />
      <path
         d="m -40.599483,139.08028 q -0.773187,0 -1.355725,-0.33894 -0.571947,-0.33893 -0.889695,-0.95324 -0.317748,-0.6249 -0.317748,-1.47223 0,-0.83674 0.317748,-1.46164 0.317748,-0.6355 0.889695,-0.97443 0.582538,-0.33893 1.355725,-0.33893 0.783778,0 1.355725,0.33893 0.571946,0.33893 0.889694,0.97443 0.317748,0.6249 0.317748,1.46164 0,0.84733 -0.317748,1.47223 -0.317748,0.61431 -0.889694,0.95324 -0.571947,0.33894 -1.355725,0.33894 z m 0,-0.78378 q 0.762595,0 1.175667,-0.49781 0.413073,-0.5084 0.413073,-1.48282 0,-0.96384 -0.423664,-1.47223 -0.413073,-0.5084 -1.165076,-0.5084 -0.741412,0 -1.165076,0.5084 -0.423664,0.50839 -0.423664,1.47223 0,0.97442 0.413072,1.48282 0.413072,0.49781 1.175668,0.49781 z"
         style="font-weight:500;font-family:Mulish;-inkscape-font-specification:'Mulish Medium'"
         id="path5237" />
      <path
         d="m -34.456357,139.08028 q -0.804962,0 -1.3875,-0.33894 -0.571947,-0.33893 -0.889695,-0.95324 -0.317748,-0.61431 -0.317748,-1.45105 0,-0.82614 0.317748,-1.46164 0.32834,-0.6355 0.92147,-0.98502 0.593129,-0.34952 1.398091,-0.34952 0.550763,0 1.05916,0.19065 0.508397,0.18005 0.836736,0.50839 l -0.307156,0.69905 q -0.381298,-0.29657 -0.762595,-0.44485 -0.370706,-0.15887 -0.773187,-0.15887 -0.773187,0 -1.239217,0.51899 -0.455439,0.51899 -0.455439,1.48282 0,0.94265 0.455439,1.45105 0.455439,0.5084 1.249809,0.5084 0.381297,0 0.762595,-0.14829 0.381297,-0.14828 0.762595,-0.45543 l 0.307156,0.69904 q -0.338931,0.31775 -0.857919,0.5084 -0.518989,0.18006 -1.080343,0.18006 z"
         style="font-weight:500;font-family:Mulish;-inkscape-font-specification:'Mulish Medium'"
         id="path5239" />
      <path
         d="m -27.868385,139.00613 -2.827957,-2.72204 2.626717,-2.59494 h 1.207442 l -2.923281,2.84914 0.04237,-0.56135 3.113931,3.02919 z m -3.601144,0 v -7.79541 h 0.963836 v 7.79541 z"
         style="font-weight:500;font-family:Mulish;-inkscape-font-specification:'Mulish Medium'"
         id="path5241" />
      <path
         d="m -23.748273,139.08028 q -0.804962,0 -1.3875,-0.33894 -0.571946,-0.33893 -0.889694,-0.95324 -0.317748,-0.61431 -0.317748,-1.45105 0,-0.82614 0.317748,-1.46164 0.328339,-0.6355 0.921469,-0.98502 0.593129,-0.34952 1.398091,-0.34952 0.550763,0 1.05916,0.19065 0.508397,0.18005 0.836737,0.50839 l -0.307157,0.69905 q -0.381298,-0.29657 -0.762595,-0.44485 -0.370706,-0.15887 -0.773187,-0.15887 -0.773187,0 -1.239217,0.51899 -0.455439,0.51899 -0.455439,1.48282 0,0.94265 0.455439,1.45105 0.455439,0.5084 1.249809,0.5084 0.381297,0 0.762595,-0.14829 0.381297,-0.14828 0.762595,-0.45543 l 0.307157,0.69904 q -0.338932,0.31775 -0.85792,0.5084 -0.518989,0.18006 -1.080343,0.18006 z"
         style="font-weight:500;font-family:Mulish;-inkscape-font-specification:'Mulish Medium'"
         id="path5243" />
      <path
         d="m -20.761445,139.00613 v -7.79541 h 0.963836 v 3.54818 l -0.148282,0.0741 q 0.233015,-0.6249 0.741412,-0.95324 0.518988,-0.33893 1.186259,-0.33893 1.91708,0 1.91708,2.12891 v 3.33635 h -0.963836 v -3.28339 q 0,-0.72023 -0.285973,-1.04857 -0.275382,-0.33893 -0.889695,-0.33893 -0.709637,0 -1.133301,0.44485 -0.423664,0.43425 -0.423664,1.17566 v 3.05038 z"
         style="font-weight:500;font-family:Mulish;-inkscape-font-specification:'Mulish Medium'"
         id="path5245" />
      <path
         d="m -12.478832,139.08028 q -0.699046,0 -1.239217,-0.32834 -0.52958,-0.33894 -0.826145,-0.95325 -0.296565,-0.6249 -0.296565,-1.46164 0,-0.83674 0.296565,-1.46164 0.307156,-0.6249 0.836736,-0.97443 0.540172,-0.36011 1.228626,-0.36011 0.720229,0 1.228626,0.36011 0.508397,0.34953 0.688454,1.0062 l -0.127099,0.0742 v -1.30277 h 0.9532436 v 5.32757 h -0.9532436 v -1.33454 l 0.127099,0.053 q -0.180057,0.64609 -0.688454,1.0062 -0.508397,0.34953 -1.228626,0.34953 z M -12.267,138.2965 q 0.762595,0 1.165076,-0.5084 0.413073,-0.51899 0.413073,-1.47223 0,-0.95325 -0.413073,-1.46164 -0.413072,-0.51899 -1.165076,-0.51899 -0.752004,0 -1.175668,0.52958 -0.423664,0.52958 -0.423664,1.47223 0,0.94265 0.423664,1.45105 0.423664,0.5084 1.175668,0.5084 z"
         style="font-weight:500;font-family:Mulish;-inkscape-font-specification:'Mulish Medium'"
         id="path5247" />
      <path
         d="m -8.1257024,139.00613 v -5.32757 h 0.9638356 v 5.32757 z m -0.084733,-7.62595 h 1.1333012 v 1.04857 h -1.1333012 z"
         style="font-weight:500;font-family:Mulish;-inkscape-font-specification:'Mulish Medium'"
         id="path5249" />
      <path
         d="m -5.5519643,139.00613 v -3.83416 q 0,-0.3707 -0.021183,-0.74141 -0.010592,-0.38129 -0.06355,-0.752 h 0.9108776 l 0.095324,1.09093 -0.105916,0.0636 q 0.2330152,-0.6249 0.741412,-0.95324 0.5189884,-0.33893 1.1862593,-0.33893 1.91707965,0 1.91707965,2.12891 v 3.33635 H -1.8554958 v -3.28339 q 0,-0.72023 -0.2859732,-1.04857 -0.2753816,-0.33893 -0.8896944,-0.33893 -0.7096373,0 -1.1333013,0.44485 -0.423664,0.43425 -0.423664,1.17566 v 3.05038 z"
         style="font-weight:500;font-family:Mulish;-inkscape-font-specification:'Mulish Medium'"
         id="path5251" />
    </g>
    <g
       stroke-opacity="0"
       id="g1204"
       style="stroke:#000000">
      <path
         id="ellipse1198"
         style="opacity:0.9;fill-opacity:0;paint-order:markers stroke fill;stop-color:#000000"
         d="M -54.118002,87.550003 A 29.433001,33.875 0 0 1 -83.551003,121.425 29.433001,33.875 0 0 1 -112.984,87.550003 a 29.433001,33.875 0 0 1 29.432997,-33.875 29.433001,33.875 0 0 1 29.433001,33.875 z" />
      <path
         transform="matrix(0.26458,0,0,0.26458,-126.29,29.04)"
         d="m 214.79,312.88 c 1.6435,-1.8071 3.301,-3.469 3.6833,-3.6932 0.38227,-0.22419 5.0417,-0.92901 10.354,-1.5663 5.3123,-0.63729 10.688,-1.3109 11.945,-1.4969 l 2.2856,-0.33823 -3.1427,1.5269 c -8.499,4.1292 -22.729,8.8324 -26.771,8.848 -1.2176,0.005 -1.0639,-0.30168 1.6453,-3.2804 z"
         fill="#ffffff"
         stop-color="#000000"
         style="stroke:#000000;paint-order:markers stroke fill"
         id="path1200" />
      <path
         transform="matrix(0.26458,0,0,0.26458,-126.29,29.04)"
         d="m 56.219,171.46 c 0.56848,-2.6978 4.1632,-13.565 5.1509,-15.571 0.79962,-1.6243 0.82864,-1.4775 0.55327,2.8004 -0.15983,2.483 -0.29855,5.9543 -0.30827,7.714 -0.0171,3.0964 -0.09703,3.2591 -2.4844,5.0564 -1.3567,1.0214 -2.6548,1.8571 -2.8848,1.8571 -0.23,0 -0.24194,-0.83568 -0.02672,-1.8571 z"
         fill="#ffffff"
         stop-color="#000000"
         style="stroke:#000000;paint-order:markers stroke fill"
         id="path1202" />
    </g>
  </g>
</svg>
