<?xml version="1.0" encoding="UTF-8" standalone="no"?>
<!-- Created with Inkscape (http://www.inkscape.org/) -->

<svg
   width="78.227mm"
   height="84.281mm"
   version="1.1"
   viewBox="0 0 78.227 84.281"
   id="svg3788"
   sodipodi:docname="authenticated-brik.svg"
   inkscape:version="1.2.2 (b0a8486541, 2022-12-01)"
   xmlns:inkscape="http://www.inkscape.org/namespaces/inkscape"
   xmlns:sodipodi="http://sodipodi.sourceforge.net/DTD/sodipodi-0.dtd"
   xmlns="http://www.w3.org/2000/svg"
   xmlns:svg="http://www.w3.org/2000/svg">
  <sodipodi:namedview
     id="namedview3790"
     pagecolor="#ffffff"
     bordercolor="#000000"
     borderopacity="0.25"
     inkscape:showpageshadow="2"
     inkscape:pageopacity="0.0"
     inkscape:pagecheckerboard="0"
     inkscape:deskcolor="#d1d1d1"
     inkscape:document-units="mm"
     showgrid="false"
     inkscape:zoom="2.166117"
     inkscape:cx="147.72979"
     inkscape:cy="159.27118"
     inkscape:window-width="1503"
     inkscape:window-height="934"
     inkscape:window-x="0"
     inkscape:window-y="0"
     inkscape:window-maximized="1"
     inkscape:current-layer="g3772" />
  <defs
     id="defs3692">
    <marker
       id="Arrow2Sstart-1-2-2-3"
       overflow="visible"
       orient="auto">
      <path
         transform="matrix(.3 0 0 .3 -.69 0)"
         d="m8.7186 4.0337-10.926-4.0177 10.926-4.0177c-1.7455 2.3721-1.7354 5.6175-6e-7 8.0354z"
         fill="#00b300"
         fill-rule="evenodd"
         id="path3686" />
    </marker>
    <marker
       id="Arrow2Sstart-1-2-2-9"
       overflow="visible"
       orient="auto">
      <path
         transform="matrix(0.3,0,0,0.3,-0.69,0)"
         d="M 8.7186,4.0337 -2.2074,0.016 8.7186,-4.0017 c -1.7455,2.3721 -1.7354,5.6175 0,8.0354 z"
         fill="#00b300"
         fill-rule="evenodd"
         id="path3689" />
    </marker>
  </defs>
  <g
     transform="translate(-72.891 -78.673)"
     id="g3786">
    <g
       transform="matrix(.6901 0 0 .6901 97.023 34.94)"
       fill="#ffff09"
       fill-opacity=".5292"
       id="g3696">
      <path
         transform="matrix(1.7061,0,0,1.7467,-13.054,-85.455)"
         d="m 48.60491,129.41853 -8.090296,1.06402 4.527776,6.04409 -8.806892,0.63306 c -9.301346,-2.00832 -24.001566,-1.55049 -33.1474782,-0.0835 l -7.7155098,-0.79627 3.9431,-6.4588 -7.5618,-0.28997 5.4255,-5.2753 -7.2521,-2.1614 6.567,-3.7603 -6.4868,-3.897 7.2958,-2.009 -5.3138,-5.3878 7.5662,-0.13154 -3.807,-6.54 7.3612,1.7542 -2.061,-7.2813 6.6937,3.5298 -0.18542,-7.5651 5.6056,5.0836 1.7018,-7.3735 4.1652,6.3179 3.482,-6.7187 2.4632,7.1553 5.0435,-5.6416 0.60636,7.543 6.2881,-4.2101 -1.2886,7.4569 7.1375,-2.5141 -3.1025,6.9021 7.5385,-0.66007 -4.7215,5.9137 7.598393,2.36245 -6.951023,4.59017 6.625728,4.91402 -7.091143,1.92868 z"
         fill="#ffff09"
         fill-opacity="0.5292"
         id="path3694"
         sodipodi:nodetypes="cccccccccccccccccccccccccccccccccccccc" />
    </g>
    <g
       transform="matrix(1.2535 0 0 1.2535 293.27 -14.343)"
       id="g3702">
      <circle
         cx="-134.13"
         cy="116.6"
         r="4.0537"
         fill="#ccc"
         fill-opacity=".97255"
         stroke="#808080"
         stroke-width=".78684"
         id="circle3698" />
      <path
         d="m-135.42 117.78c-0.41491-0.4442-0.76904-0.82781-0.78695-0.85246-0.0289-0.0398 5e-3 -0.08 0.30343-0.35662 0.1848-0.1715 0.3449-0.30841 0.3558-0.30427 0.0109 4e-3 0.21819 0.22042 0.46067 0.48062 0.24249 0.2602 0.45394 0.47309 0.46987 0.47309 0.0159 0 0.58433-0.51783 1.2631-1.1508 0.67876-0.6329 1.2458-1.1507 1.2602-1.1507 0.0276 0 0.63758 0.64667 0.63758 0.67597 0 0.0167-3.1632 2.9749-3.1939 2.9868-8e-3 3e-3 -0.35489-0.35745-0.76979-0.80165z"
         fill="#00b300"
         marker-start="url(#Arrow2Sstart-1-2-2-3)"
         opacity=".93"
         stroke-width=".025572"
         id="path3700" />
    </g>
    <ellipse
       cx="111.07"
       cy="149.01"
       rx="29.166"
       ry="10.425"
       fill="#896300"
       opacity=".15476"
       id="ellipse3704" />
    <ellipse
       cx="111.21"
       cy="146.69"
       rx="22.848"
       ry="7.8102"
       fill="#876c00"
       opacity=".26859"
       id="ellipse3706" />
    <g
       transform="matrix(.32367 0 0 .32367 359.27 -50.734)"
       id="g3772">
      <ellipse
         transform="matrix(2.2665 0 0 2.2665 -814.8 259.64)"
         cx="21.523"
         cy="152.19"
         rx="23.05"
         ry="7.9335"
         fill="#867220"
         fill-opacity=".52535"
         stroke-width=".081214"
         id="ellipse3708" />
      <g
         transform="matrix(.21867 -.0015018 .0015018 .21867 -560.57 410.27)"
         id="g3734">
        <path
           d="m-812.7 574.27c10.146-64.939 26.602-104.58 4.508-190.93-27.758-46.496-56.703-43.457-87.078-80.682-0.495-22.531-1.084-43.114-1.307-67.185-0.189-19.007-20.554-20.558-42.066-20.037l-0.015-0.36c-1.336 0.211-2.763 0.363-4.227 0.49-4.539 0.153-9.082 0.344-13.446 0.443-4.373-0.018-8.913-0.131-13.459-0.199-1.454-0.109-2.886-0.228-4.217-0.42l-2e-3 0.359c-21.543-0.13-41.868 1.786-41.717 20.791 0.2 24.069-0.02 44.646-0.108 67.2-29.692 37.765-58.711 35.245-85.63 82.208-20.522 86.752-3.358 126.06 7.947 190.82 8.601 86.446-18.532 87.433-11.085 247.5 0 70.591 79.621 86.599 150.75 86.599 71.128 0 156.66-13.825 156.66-89.344 4.583-160.17-22.563-160.68-15.507-247.26z"
           fill="#99fff0"
           id="path3710" />
        <path
           d="m-812.7 574.27c10.146-64.939 26.602-104.58 4.508-190.93-27.758-46.496-56.703-43.457-87.078-80.682-0.495-22.531-1.084-43.114-1.307-67.185-0.189-19.007-20.554-20.558-42.066-20.037l-0.015-0.36c-1.336 0.211-2.763 0.363-4.227 0.49-4.539 0.153-9.082 0.344-13.446 0.443-4.373-0.018-8.913-0.131-13.459-0.199-1.454-0.109-2.886-0.228-4.217-0.42l-2e-3 0.359c-21.543-0.13-41.868 1.786-41.717 20.791 0.2 24.069-0.02 44.646-0.108 67.2-29.692 37.765-58.711 35.245-85.63 82.208-20.522 86.752-3.358 126.06 7.947 190.82 8.601 86.446-18.532 87.433-11.085 247.5 0 70.591 79.621 86.599 150.75 86.599 71.128 0 156.66-13.825 156.66-89.344 4.583-160.17-22.563-160.68-15.507-247.26z"
           fill="none"
           stroke="#231f20"
           stroke-linecap="round"
           stroke-linejoin="round"
           stroke-miterlimit="10"
           stroke-width="12.376"
           id="path3712" />
        <path
           d="m-837.35 384.08c-31.619-40.601-78.237-43.035-78.971-85.28-20.373 9.702-55.832 10.123-74.706 0.65458 2.5151 40.516-60.303 58.145-82.797 94.813-24.739 48.75-3.483 152.78-3.483 152.78l52.343 112.71h108.31l89.506-114.13c12.203-95.874 1.0072-147.16-10.197-161.55z"
           enable-background="new    "
           fill="#0f0"
           id="path3714" />
        <path
           d="m-820.88 756.1c-1.376-49.433-7.243-73.229-10.78-97.233-0.531-3.659-1.026-7.339-1.43-11.102 0 0-73.958-34.182-142.4 11.469-33.215 22.154-91.433-10.369-91.433-10.369-0.383 3.77-0.812 7.455-1.313 11.125-3.287 24.03-8.897 47.884-9.752 97.326 0 0 41.325-12.488 96.159 10.539 79.608 33.442 160.95-11.755 160.95-11.755z"
           enable-background="new    "
           fill="#f0f"
           id="path3716" />
        <path
           d="m-975.49 659.24c68.443-45.65 142.4-11.469 142.4-11.469-1.444-13.404-4.1304-27.128-2.4684-47.105 1.9743-18.437 3.2371-36.395 8.4073-55.033 0 0-80.275 45.191-156.94 0.97175-51.458-29.68-93.214 0.448-93.214 0.448 2.896 17.06 6.808 34.067 10.1 53.824 1.872 19.968 1.573 34.592 0.282 47.993 0 1e-3 58.217 32.525 91.433 10.37z"
           enable-background="new    "
           fill="#ff0"
           id="path3718" />
        <path
           d="m-820.79 760.69c-0.021-1.521-0.068-3.097-0.091-4.583 0 0-81.342 45.196-160.95 11.755-54.834-23.027-96.159-10.539-96.159-10.539-0.022 1.49-0.028 3.061-0.048 4.594-0.153 14.498 0.073 31.016 0.876 50.343 0 54.962 81.585 67.332 128.85 67.332 52.44 0 127.18-10.913 127.18-68.535 0.168-19.346 0.636-35.867 0.341-50.367z"
           fill="#f00"
           id="path3720" />
        <path
           d="m-1076.4 555.28c-10.362-43.07-12.239-91.328-7.4717-136.98 55.436 5.3732 64.225 33.398 115.81 36.072 39.382 0.99621 116.22-42.968 144.92-34.174 4.9573 38.72 4.2447 68.492-4.0558 125.44-30.143 18.315-56.931 23.025-87.074 22.018-43.584-0.12238-62.113-21.568-109.48-32.908-20.674-4.5939-33.316 5.2316-52.649 20.538z"
           fill="#ff7400"
           id="path3722" />
        <g
           stroke="#231f20"
           id="g3730">
          <path
             d="m-879.09 260.43-4.673-67.715c0.526-14.221-26.441-28.291-69.154-29.874-42.711-1.583-71.475 9.104-72.002 23.327l-8.838 68.531c-0.53 14.24 33.667 27.057 76.377 28.633 42.711 1.59 77.761-8.662 78.29-22.902z"
             fill="#99fff0"
             stroke-miterlimit="10"
             stroke-width="12.375"
             id="path3724" />
          <path
             d="m-879.33 233.13 0.578-69.009c0.117-14.232-34.43-26.07-77.171-26.425-42.738-0.36-77.477 10.896-77.6 25.124l-0.578 69.01c-0.121 14.25 34.428 26.083 77.165 26.434 42.743 0.367 77.485-10.887 77.606-25.134z"
             fill="#2479b3"
             stroke-miterlimit="10"
             stroke-width="12.375"
             id="path3726" />
          <ellipse
             cx="-956.92"
             cy="159.66"
             rx="76.77"
             ry="24.052"
             fill="#3f9ad8"
             stroke-width="10.314"
             id="ellipse3728" />
        </g>
        <path
           d="m-913.02 379.91c3.848-13.089 5.3951-18.838 31.111-15.29 52.269 36.18 45.525 62.941 44.729 108.83-2.0682 18.178-42.622 14.441-43.146 4.266 5.7632-43.652 2.2307-75.153-32.694-97.806z"
           fill="#fff"
           id="path3732" />
      </g>
      <g
         aria-label="Ani Himawati
18/15/2017
235g"
         transform="matrix(.59203 0 0 .56709 -1136.2 486.71)"
         id="flowRoot3750"
         style="font-size:40px;line-height:0px;font-family:'Roadshow IAIC 2013';letter-spacing:0px;word-spacing:0px;opacity:0.8">
        <path
           d="m 589.30611,138.35678 c 4.68224,-4.69146 7.2326,13.03017 1.25988,6.3158 -6.06043,6.67886 -1.19653,-4.16642 -1.25988,-6.3158 z m 0.89841,4.76551 c 5.17994,0.85646 -1.38334,-9.17401 0,0 z"
           style="font-size:13.333px;line-height:16.8412px;text-align:center;text-anchor:middle"
           id="path7072" />
        <path
           d="m 595.59501,139.99086 c 7.62865,-4.15643 4.36459,12.6301 3.54687,2.70514 -3.81918,-6.69783 -2.47861,10.07938 -4.47779,1.19271 -0.0526,-1.1362 -0.58105,-3.37903 0.93092,-3.89785 z"
           style="font-size:13.333px;line-height:16.8412px;text-align:center;text-anchor:middle"
           id="path7074" />
        <path
           d="m 602.93858,140.30335 c 1.71212,5.10945 -2.38459,8.70285 -1.60183,1.34356 -0.19656,-0.93617 0.79217,-1.70209 1.60183,-1.34356 z m -1.17185,-2.32416 c 5.17493,-0.88604 -1.2782,4.48419 0,0 z"
           style="font-size:13.333px;line-height:16.8412px;text-align:center;text-anchor:middle"
           id="path7076" />
        <path
           d="m 609.98267,136.76828 c 1.7556,2.97101 1.92647,7.72098 3.20483,1.12637 3.61651,-0.84365 0.11925,13.74866 -1.67775,6.19961 -2.2053,8.85566 -3.30204,-6.83496 -1.52708,-7.32598 z"
           style="font-size:13.333px;line-height:16.8412px;text-align:center;text-anchor:middle"
           id="path7078" />
        <path
           d="m 616.97469,140.30335 c 1.71217,5.10951 -2.3848,8.70283 -1.60193,1.34352 -0.19654,-0.93624 0.79228,-1.70207 1.60193,-1.34352 z m -1.17185,-2.32416 c 5.1749,-0.88606 -1.2782,4.48421 0,0 z"
           style="font-size:13.333px;line-height:16.8412px;text-align:center;text-anchor:middle"
           id="path7080" />
        <path
           d="m 619.38348,140.03643 c 4.13039,-1.52497 9.99184,3.29687 4.87377,6.10001 1.03046,-6.57898 -2.14759,-4.8002 -2.67157,0.31745 -0.98519,-8.35109 -1.24956,-1.58104 -2.64161,-0.30882 -0.64224,-1.56443 -1.96207,-5.43399 0.43941,-6.10864 z"
           style="font-size:13.333px;line-height:16.8412px;text-align:center;text-anchor:middle"
           id="path7082" />
        <path
           d="m 626.40154,140.91531 c 6.45708,-7.09669 4.86673,12.3538 0.314,3.69451 1.33789,-3.51544 5.94971,-2.77655 -0.314,-3.69451 z m 2.62363,3.09888 c -5.20001,-0.2165 2.37752,4.01634 0,0 z"
           style="font-size:13.333px;line-height:16.8412px;text-align:center;text-anchor:middle"
           id="path7084" />
        <path
           d="m 632.18264,140.03643 c -0.0624,4.52435 3.45095,7.21588 2.31614,0.77067 2.52932,-0.41086 1.15075,8.21483 3.19355,1.40209 2.85017,-5.14727 0.69112,8.90514 -4.88975,4.27975 -1.33144,-0.6831 -2.48343,-5.67589 -0.61994,-6.45251 z"
           style="font-size:13.333px;line-height:16.8412px;text-align:center;text-anchor:middle"
           id="path7086" />
        <path
           d="m 639.40251,140.91531 c 6.45709,-7.09668 4.86673,12.3538 0.314,3.69451 1.33788,-3.51545 5.94972,-2.77654 -0.314,-3.69451 z m 2.62363,3.09888 c -5.19997,-0.21649 2.37756,4.01617 0,0 z"
           style="font-size:13.333px;line-height:16.8412px;text-align:center;text-anchor:middle"
           id="path7088" />
        <path
           d="m 645.50262,137.73831 c 3.25719,3.77382 -0.23261,3.92832 0.77357,7.42952 6.91287,-0.54256 -2.34342,4.57961 -2.51266,-1.82354 1.47315,-1.56158 -0.45014,-4.6216 1.73909,-5.60598 z"
           style="font-size:13.333px;line-height:16.8412px;text-align:center;text-anchor:middle"
           id="path7090" />
        <path
           d="m 651.45299,140.30335 c 1.71216,5.10951 -2.38481,8.70283 -1.60193,1.34351 -0.19654,-0.93624 0.79228,-1.70207 1.60193,-1.34351 z m -1.17184,-2.32416 c 5.17492,-0.88605 -1.27823,4.48421 0,0 z"
           style="font-size:13.333px;line-height:16.8412px;text-align:center;text-anchor:middle"
           id="path7092" />
        <path
           d="m 591.21361,154.3191 c 5.31335,0.9434 -1.92498,15.77306 -0.42936,4.48042 1.19782,-1.8593 -2.40579,-3.39201 0.42936,-4.48042 z"
           style="font-size:13.333px;line-height:16.8412px;text-align:center;text-anchor:middle"
           id="path7094" />
        <path
           d="m 598.20563,154.22145 c 3.32648,3.03723 3.07991,14.00668 -3.91934,8.5456 -0.71098,-2.2166 -1.29608,-10.97143 3.91934,-8.5456 z m -2.10282,1.18486 c -1.87236,6.51795 6.19186,-0.60156 0,0 z m 0.007,4.26422 c -5.17242,6.81895 9.68628,0.5132 0,0 z"
           style="font-size:13.333px;line-height:16.8412px;text-align:center;text-anchor:middle"
           id="path7096" />
        <path
           d="m 605.13254,153.47928 c 1.94364,5.14066 -6.78636,15.48426 -2.44313,5.06667 0.61579,-1.77375 1.38117,-3.51086 2.44313,-5.06667 z"
           style="font-size:13.333px;line-height:16.8412px;text-align:center;text-anchor:middle"
           id="path7098" />
        <path
           d="m 607.80174,154.3191 c 5.31335,0.94339 -1.92498,15.77306 -0.42935,4.48043 1.19782,-1.85931 -2.40583,-3.39202 0.42935,-4.48043 z"
           style="font-size:13.333px;line-height:16.8412px;text-align:center;text-anchor:middle"
           id="path7100" />
        <path
           d="m 617.19604,154.48186 c -0.74589,2.34965 -9.94582,1.43718 -3.34195,3.70982 7.39238,0.56284 -4.13598,8.71257 -0.34651,3.80007 3.4527,-3.34678 -7.13319,-1.16274 -3.28511,-7.0534 1.36978,-2.693 4.96235,-1.77401 6.97357,-0.45649 z"
           style="font-size:13.333px;line-height:16.8412px;text-align:center;text-anchor:middle"
           id="path7102" />
        <path
           d="m 621.64905,153.47928 c 1.94367,5.14064 -6.78636,15.48426 -2.44312,5.06667 0.61579,-1.77375 1.38117,-3.51085 2.44312,-5.06667 z"
           style="font-size:13.333px;line-height:16.8412px;text-align:center;text-anchor:middle"
           id="path7104" />
        <path
           d="m 622.83392,156.66279 c 2.07167,-8.7928 12.53832,3.23342 2.83563,4.7424 9.10608,-0.34514 -2.26189,5.74416 -2.42899,-0.36799 4.74202,0.0878 5.25889,-7.76178 1.06467,-3.30682 -0.48823,0.0876 -1.86679,-0.19334 -1.47131,-1.06759 z"
           style="font-size:13.333px;line-height:16.8412px;text-align:center;text-anchor:middle"
           id="path7106" />
        <path
           d="m 634.68258,153.86338 c 9.72023,1.74976 -2.35231,17.76966 -4.25936,5.98799 -0.68219,-2.80818 0.52617,-6.95198 4.25936,-5.98799 z m -0.75519,2.08328 c -6.58971,2.06869 3.37866,11.35527 2.47823,2.43836 0.21038,-1.39727 -1.03202,-2.86214 -2.47823,-2.43836 z"
           style="font-size:13.333px;line-height:16.8412px;text-align:center;text-anchor:middle"
           id="path7108" />
        <path
           d="m 640.18374,154.3191 c 5.31335,0.9434 -1.92499,15.77306 -0.42935,4.48042 1.19781,-1.8593 -2.40578,-3.392 0.42935,-4.48042 z"
           style="font-size:13.333px;line-height:16.8412px;text-align:center;text-anchor:middle"
           id="path7110" />
        <path
           d="m 643.98573,153.73969 c 9.16985,-2.53611 3.22482,7.66917 1.39796,9.29655 -1.63917,-2.77594 4.60814,-11.202 -0.56716,-5.67527 -1.66234,2.66643 -4.17783,-3.93752 -0.8308,-3.62128 z"
           style="font-size:13.333px;line-height:16.8412px;text-align:center;text-anchor:middle"
           id="path7112" />
        <path
           d="m 598.91668,171.75258 c 1.42611,-11.81018 18.5132,0.9922 6.27541,5.78222 -6.54915,2.91265 8.88705,0.0761 1.65553,4.82063 -6.72548,2.56832 -10.0545,-6.08917 -1.93911,-6.97702 4.29607,-3.55668 -3.00439,-6.71954 -3.8938,-2.0672 -0.89844,0.18216 -2.50544,-0.36047 -2.09803,-1.55863 z"
           style="font-size:19.697px;line-height:16.8412px;text-align:center;text-anchor:middle"
           id="path7114" />
        <path
           d="m 612.10251,168.0113 c 6.43094,-2.91353 4.85299,6.28131 4.37836,5.69478 9.62139,4.27787 -8.13782,13.05828 -5.34798,4.92341 6.19299,2.36684 6.69352,-4.99598 0.13292,-4.15511 0.55816,-2.98612 5.87596,-4.72998 -0.42551,-2.98814 -1.53576,-0.85482 -0.51386,-3.78407 1.26221,-3.47494 z"
           style="font-size:19.697px;line-height:16.8412px;text-align:center;text-anchor:middle"
           id="path7116" />
        <path
           d="m 630.2703,168.53066 c 0.15623,5.46606 -11.72252,-1.50833 -7.84806,5.6552 9.02664,-3.72177 8.05331,11.97136 0.31665,7.09032 -0.55958,-2.13376 7.93385,-3.43883 1.46129,-4.81616 -10.89855,-0.351 -1.81747,-15.39386 6.07012,-7.92936 z"
           style="font-size:19.697px;line-height:16.8412px;text-align:center;text-anchor:middle"
           id="path7118" />
        <path
           d="m 638.24335,172.07958 c 6.83575,3.37679 0.18368,20.41308 -5.04628,12.5145 0.56767,-2.71091 6.3183,1.07679 2.43952,-2.27075 -9.46735,-0.31621 -4.8048,-13.52378 2.60676,-10.24375 z m -1.00023,3.01033 c -8.63223,-2.73585 0.20082,12.62519 0.83373,2.16847 l -0.2322,-1.1515 z"
           style="font-size:19.697px;line-height:16.8412px;text-align:center;text-anchor:middle"
           id="path7120" />
      </g>
      <g
         aria-label="A12X5"
         transform="matrix(0 -.78882 .77228 0 -878.65 1016.5)"
         id="flowRoot3770"
         style="font-size:40px;line-height:0px;font-family:'Roadshow IAIC 2013';letter-spacing:0px;word-spacing:0px;opacity:0.8">
        <path
           d="m 590.16279,132.08449 c 1.61444,-7.16946 9.41874,0.33655 7.89252,5.08743 0.44763,3.01898 4.47718,13.0684 -0.53119,11.00559 -1.43178,-6.76622 -8.34792,-3.30959 -9.19722,1.49275 -4.0558,-2.45184 1.60048,-12.78975 1.83589,-17.58577 z m 1.83491,9.73295 c 7.38968,3.71658 1.79627,-14.52959 -0.20028,-5.08166 0.14758,1.32237 -1.00649,4.32269 0.20028,5.08166 z"
           style="font-size:27.231px;line-height:15px;text-align:center;text-anchor:middle"
           id="path7061" />
        <path
           d="m 604.1373,130.28947 c 7.77752,-2.64754 1.335,9.84872 2.40636,14.07144 1.41566,3.75647 -3.42345,8.16652 -3.78931,2.46833 0.97968,-4.67944 1.70429,-10.68808 -1.16275,-13.65294 0.53765,-1.19895 1.544,-2.08495 2.5457,-2.88683 z"
           style="font-size:27.231px;line-height:15px;text-align:center;text-anchor:middle"
           id="path7063" />
        <path
           d="m 608.79103,135.07617 c -0.90407,-8.01602 13.19363,-9.54716 14.30503,-1.80088 1.5319,6.32245 -5.24273,9.23052 -8.64077,12.09895 3.99118,-2.56376 12.42646,2.44302 4.97737,3.85804 -5.04581,2.29832 -15.45747,-2.63443 -6.88923,-6.98764 5.43932,-0.0228 9.81669,-8.73354 2.10144,-8.55659 -0.56409,3.02885 -4.98936,5.87328 -5.85384,1.38812 z"
           style="font-size:27.231px;line-height:15px;text-align:center;text-anchor:middle"
           id="path7065" />
        <path
           d="m 628.61594,129.59806 c 1.36426,2.49123 3.36776,9.63711 4.17736,2.93321 0.36364,-4.76249 7.28958,-4.31933 3.54281,0.50804 -5.64294,5.08472 -0.72248,10.38726 -0.50429,15.93609 -4.22903,3.80848 -4.79208,-11.41744 -6.77005,-2.40342 -2.5371,6.60083 -7.02489,1.03419 -2.39381,-2.53585 6.19904,-3.50584 -5.10393,-14.72357 1.94798,-14.43807 z"
           style="font-size:27.231px;line-height:15px;text-align:center;text-anchor:middle"
           id="path7067" />
        <path
           d="m 653.00152,130.62188 c 0.55131,8.14248 -13.69149,-3.0261 -11.50377,6.38281 2.32864,4.00369 10.36808,-1.15352 10.4667,6.10652 2.32191,6.35451 -12.62202,8.87652 -8.77566,2.76161 5.54944,2.88796 6.29915,-7.58223 0.32213,-4.04176 -7.09788,1.47466 -6.88175,-12.58328 -1.28805,-13.67935 3.47502,1.15522 8.09592,-0.49256 10.77865,2.47017 z"
           style="font-size:27.231px;line-height:15px;text-align:center;text-anchor:middle"
           id="path7069" />
      </g>
    </g>
    <g
       transform="matrix(1.4608 0 0 1.4608 292.29 -52.142)"
       id="g3778">
      <circle
         cx="-134.13"
         cy="116.6"
         r="4.0537"
         fill="#ccc"
         fill-opacity=".97255"
         stroke="#808080"
         stroke-width=".78684"
         id="circle3774" />
      <path
         d="m-135.42 117.78c-0.41491-0.4442-0.76904-0.82781-0.78695-0.85246-0.0289-0.0398 5e-3 -0.08 0.30343-0.35662 0.1848-0.1715 0.3449-0.30841 0.3558-0.30427 0.0109 4e-3 0.21819 0.22042 0.46067 0.48062 0.24249 0.2602 0.45394 0.47309 0.46987 0.47309 0.0159 0 0.58433-0.51783 1.2631-1.1508 0.67876-0.6329 1.2458-1.1507 1.2602-1.1507 0.0276 0 0.63758 0.64667 0.63758 0.67597 0 0.0167-3.1632 2.9749-3.1939 2.9868-8e-3 3e-3 -0.35489-0.35745-0.76979-0.80165z"
         fill="#00b300"
         marker-start="url(#Arrow2Sstart-1-2-2-9)"
         opacity=".93"
         stroke-width=".025572"
         id="path3776" />
    </g>
    <g
       transform="matrix(1.7142 0 0 1.7142 355.47 -87.323)"
       id="g3784">
      <circle
         cx="-134.13"
         cy="116.6"
         r="4.0537"
         fill="#ccc"
         fill-opacity=".97255"
         stroke="#808080"
         stroke-width=".78684"
         id="circle3780" />
      <path
         d="m-135.42 117.78c-0.41491-0.4442-0.76904-0.82781-0.78695-0.85246-0.0289-0.0398 5e-3 -0.08 0.30343-0.35662 0.1848-0.1715 0.3449-0.30841 0.3558-0.30427 0.0109 4e-3 0.21819 0.22042 0.46067 0.48062 0.24249 0.2602 0.45394 0.47309 0.46987 0.47309 0.0159 0 0.58433-0.51783 1.2631-1.1508 0.67876-0.6329 1.2458-1.1507 1.2602-1.1507 0.0276 0 0.63758 0.64667 0.63758 0.67597 0 0.0167-3.1632 2.9749-3.1939 2.9868-8e-3 3e-3 -0.35489-0.35745-0.76979-0.80165z"
         fill="#00b300"
         marker-start="url(#Arrow2Sstart-1-2-2-9)"
         opacity=".93"
         stroke-width=".025572"
         id="path3782" />
    </g>
  </g>
</svg>
