<?xml version="1.0" encoding="UTF-8" standalone="no"?>
<!-- Created with Inkscape (http://www.inkscape.org/) -->

<svg
   width="78.227mm"
   height="84.281mm"
   version="1.1"
   viewBox="0 0 78.227 84.281"
   id="svg3788"
   sodipodi:docname="authenticated-brik.svg"
   inkscape:version="1.2.2 (b0a8486541, 2022-12-01)"
   xmlns:inkscape="http://www.inkscape.org/namespaces/inkscape"
   xmlns:sodipodi="http://sodipodi.sourceforge.net/DTD/sodipodi-0.dtd"
   xmlns="http://www.w3.org/2000/svg"
   xmlns:svg="http://www.w3.org/2000/svg">
  <sodipodi:namedview
     id="namedview3790"
     pagecolor="#ffffff"
     bordercolor="#000000"
     borderopacity="0.25"
     inkscape:showpageshadow="2"
     inkscape:pageopacity="0.0"
     inkscape:pagecheckerboard="0"
     inkscape:deskcolor="#d1d1d1"
     inkscape:document-units="mm"
     showgrid="false"
     inkscape:zoom="2.166117"
     inkscape:cx="147.72979"
     inkscape:cy="159.27118"
     inkscape:window-width="1503"
     inkscape:window-height="934"
     inkscape:window-x="0"
     inkscape:window-y="0"
     inkscape:window-maximized="1"
     inkscape:current-layer="g3696" />
  <defs
     id="defs3692">
    <marker
       id="Arrow2Sstart-1-2-2-3"
       overflow="visible"
       orient="auto">
      <path
         transform="matrix(.3 0 0 .3 -.69 0)"
         d="m8.7186 4.0337-10.926-4.0177 10.926-4.0177c-1.7455 2.3721-1.7354 5.6175-6e-7 8.0354z"
         fill="#00b300"
         fill-rule="evenodd"
         id="path3686" />
    </marker>
    <marker
       id="Arrow2Sstart-1-2-2-9"
       overflow="visible"
       orient="auto">
      <path
         transform="matrix(.3 0 0 .3 -.69 0)"
         d="m8.7186 4.0337-10.926-4.0177 10.926-4.0177c-1.7455 2.3721-1.7354 5.6175-6e-7 8.0354z"
         fill="#00b300"
         fill-rule="evenodd"
         id="path3689" />
    </marker>
  </defs>
  <g
     transform="translate(-72.891 -78.673)"
     id="g3786">
    <g
       transform="matrix(.6901 0 0 .6901 97.023 34.94)"
       fill="#ffff09"
       fill-opacity=".5292"
       id="g3696">
      <path
         d="m 71.7719,128.21343 -12.661413,2.55707 8.386389,10.07078 -12.892547,-0.74812 5.681412,11.88316 -12.313758,-4.00629 0.911086,6.21098 c -18.505822,-4.37491 -36.350368,-4.6526 -58.6129761,0.83091 l 2.1592245,-8.27354 -12.4536904,3.4572 6.121692,-11.62136 -12.909925,0.17605 8.756532,-9.6907 -12.555041,-3.11614 10.841178,-7.15106 -11.411406,-6.21248 12.244513,-4.16206 -9.550569,-8.918619 12.878511,-0.911661 -7.089771,-11.064192 12.7033266,2.396043 -4.1835146,-12.514639 11.7300071,5.553335 -1.0142579,-13.178776 10.0196295,8.361675 2.2187153,-13.014739 7.679539,10.64449 5.312117,-12.033114 4.857118,12.258596 8.071898,-10.295169 1.72938,13.102273 10.324489,-7.910485 -1.507041,13.122954 11.928187,-5.028808 -4.648627,12.318793 12.782528,-1.831058 -7.498183,10.740751 12.833644,1.4817 -9.876721,8.48781 12.078556,4.70143 -11.634602,5.70155 z"
         fill="#ffff09"
         fill-opacity="0.5292"
         id="path3694"
         style="stroke-width:1.72628"
         sodipodi:nodetypes="cccccccccccccccccccccccccccccccccccccccccc" />
    </g>
    <g
       transform="matrix(1.2535 0 0 1.2535 293.27 -14.343)"
       id="g3702">
      <circle
         cx="-134.13"
         cy="116.6"
         r="4.0537"
         fill="#ccc"
         fill-opacity=".97255"
         stroke="#808080"
         stroke-width=".78684"
         id="circle3698" />
      <path
         d="m-135.42 117.78c-0.41491-0.4442-0.76904-0.82781-0.78695-0.85246-0.0289-0.0398 5e-3 -0.08 0.30343-0.35662 0.1848-0.1715 0.3449-0.30841 0.3558-0.30427 0.0109 4e-3 0.21819 0.22042 0.46067 0.48062 0.24249 0.2602 0.45394 0.47309 0.46987 0.47309 0.0159 0 0.58433-0.51783 1.2631-1.1508 0.67876-0.6329 1.2458-1.1507 1.2602-1.1507 0.0276 0 0.63758 0.64667 0.63758 0.67597 0 0.0167-3.1632 2.9749-3.1939 2.9868-8e-3 3e-3 -0.35489-0.35745-0.76979-0.80165z"
         fill="#00b300"
         marker-start="url(#Arrow2Sstart-1-2-2-3)"
         opacity=".93"
         stroke-width=".025572"
         id="path3700" />
    </g>
    <ellipse
       cx="111.07"
       cy="149.01"
       rx="29.166"
       ry="10.425"
       fill="#896300"
       opacity=".15476"
       id="ellipse3704" />
    <ellipse
       cx="111.21"
       cy="146.69"
       rx="22.848"
       ry="7.8102"
       fill="#876c00"
       opacity=".26859"
       id="ellipse3706" />
    <g
       transform="matrix(.32367 0 0 .32367 359.27 -50.734)"
       id="g3772">
      <ellipse
         cx="21.523"
         cy="152.19"
         rx="23.05"
         ry="7.9335"
         fill="#867220"
         fill-opacity=".52535"
         stroke-width=".081214"
         id="ellipse3708"
         transform="matrix(2.2665 0 0 2.2665 -814.8 259.64)" />
      <g
         transform="matrix(.21867 -.0015018 .0015018 .21867 -560.57 410.27)"
         id="g3734">
        <path
           d="m-812.7 574.27c10.146-64.939 26.602-104.58 4.508-190.93-27.758-46.496-56.703-43.457-87.078-80.682-0.495-22.531-1.084-43.114-1.307-67.185-0.189-19.007-20.554-20.558-42.066-20.037l-0.015-0.36c-1.336 0.211-2.763 0.363-4.227 0.49-4.539 0.153-9.082 0.344-13.446 0.443-4.373-0.018-8.913-0.131-13.459-0.199-1.454-0.109-2.886-0.228-4.217-0.42l-2e-3 0.359c-21.543-0.13-41.868 1.786-41.717 20.791 0.2 24.069-0.02 44.646-0.108 67.2-29.692 37.765-58.711 35.245-85.63 82.208-20.522 86.752-3.358 126.06 7.947 190.82 8.601 86.446-18.532 87.433-11.085 247.5 0 70.591 79.621 86.599 150.75 86.599 71.128 0 156.66-13.825 156.66-89.344 4.583-160.17-22.563-160.68-15.507-247.26z"
           fill="#99fff0"
           id="path3710" />
        <path
           d="m-812.7 574.27c10.146-64.939 26.602-104.58 4.508-190.93-27.758-46.496-56.703-43.457-87.078-80.682-0.495-22.531-1.084-43.114-1.307-67.185-0.189-19.007-20.554-20.558-42.066-20.037l-0.015-0.36c-1.336 0.211-2.763 0.363-4.227 0.49-4.539 0.153-9.082 0.344-13.446 0.443-4.373-0.018-8.913-0.131-13.459-0.199-1.454-0.109-2.886-0.228-4.217-0.42l-2e-3 0.359c-21.543-0.13-41.868 1.786-41.717 20.791 0.2 24.069-0.02 44.646-0.108 67.2-29.692 37.765-58.711 35.245-85.63 82.208-20.522 86.752-3.358 126.06 7.947 190.82 8.601 86.446-18.532 87.433-11.085 247.5 0 70.591 79.621 86.599 150.75 86.599 71.128 0 156.66-13.825 156.66-89.344 4.583-160.17-22.563-160.68-15.507-247.26z"
           fill="none"
           stroke="#231f20"
           stroke-linecap="round"
           stroke-linejoin="round"
           stroke-miterlimit="10"
           stroke-width="12.376"
           id="path3712" />
        <path
           d="m-837.35 384.08c-31.619-40.601-78.237-43.035-78.971-85.28-20.373 9.702-55.832 10.123-74.706 0.65458 2.5151 40.516-60.303 58.145-82.797 94.813-24.739 48.75-3.483 152.78-3.483 152.78l52.343 112.71h108.31l89.506-114.13c12.203-95.874 1.0072-147.16-10.197-161.55z"
           enable-background="new    "
           fill="#0f0"
           id="path3714" />
        <path
           d="m-820.88 756.1c-1.376-49.433-7.243-73.229-10.78-97.233-0.531-3.659-1.026-7.339-1.43-11.102 0 0-73.958-34.182-142.4 11.469-33.215 22.154-91.433-10.369-91.433-10.369-0.383 3.77-0.812 7.455-1.313 11.125-3.287 24.03-8.897 47.884-9.752 97.326 0 0 41.325-12.488 96.159 10.539 79.608 33.442 160.95-11.755 160.95-11.755z"
           enable-background="new    "
           fill="#f0f"
           id="path3716" />
        <path
           d="m-975.49 659.24c68.443-45.65 142.4-11.469 142.4-11.469-1.444-13.404-4.1304-27.128-2.4684-47.105 1.9743-18.437 3.2371-36.395 8.4073-55.033 0 0-80.275 45.191-156.94 0.97175-51.458-29.68-93.214 0.448-93.214 0.448 2.896 17.06 6.808 34.067 10.1 53.824 1.872 19.968 1.573 34.592 0.282 47.993 0 1e-3 58.217 32.525 91.433 10.37z"
           enable-background="new    "
           fill="#ff0"
           id="path3718" />
        <path
           d="m-820.79 760.69c-0.021-1.521-0.068-3.097-0.091-4.583 0 0-81.342 45.196-160.95 11.755-54.834-23.027-96.159-10.539-96.159-10.539-0.022 1.49-0.028 3.061-0.048 4.594-0.153 14.498 0.073 31.016 0.876 50.343 0 54.962 81.585 67.332 128.85 67.332 52.44 0 127.18-10.913 127.18-68.535 0.168-19.346 0.636-35.867 0.341-50.367z"
           fill="#f00"
           id="path3720" />
        <path
           d="m-1076.4 555.28c-10.362-43.07-12.239-91.328-7.4717-136.98 55.436 5.3732 64.225 33.398 115.81 36.072 39.382 0.99621 116.22-42.968 144.92-34.174 4.9573 38.72 4.2447 68.492-4.0558 125.44-30.143 18.315-56.931 23.025-87.074 22.018-43.584-0.12238-62.113-21.568-109.48-32.908-20.674-4.5939-33.316 5.2316-52.649 20.538z"
           fill="#ff7400"
           id="path3722" />
        <g
           stroke="#231f20"
           id="g3730">
          <path
             d="m-879.09 260.43-4.673-67.715c0.526-14.221-26.441-28.291-69.154-29.874-42.711-1.583-71.475 9.104-72.002 23.327l-8.838 68.531c-0.53 14.24 33.667 27.057 76.377 28.633 42.711 1.59 77.761-8.662 78.29-22.902z"
             fill="#99fff0"
             stroke-miterlimit="10"
             stroke-width="12.375"
             id="path3724" />
          <path
             d="m-879.33 233.13 0.578-69.009c0.117-14.232-34.43-26.07-77.171-26.425-42.738-0.36-77.477 10.896-77.6 25.124l-0.578 69.01c-0.121 14.25 34.428 26.083 77.165 26.434 42.743 0.367 77.485-10.887 77.606-25.134z"
             fill="#2479b3"
             stroke-miterlimit="10"
             stroke-width="12.375"
             id="path3726" />
          <ellipse
             cx="-956.92"
             cy="159.66"
             rx="76.77"
             ry="24.052"
             fill="#3f9ad8"
             stroke-width="10.314"
             id="ellipse3728" />
        </g>
        <path
           d="m-913.02 379.91c3.848-13.089 5.3951-18.838 31.111-15.29 52.269 36.18 45.525 62.941 44.729 108.83-2.0682 18.178-42.622 14.441-43.146 4.266 5.7632-43.652 2.2307-75.153-32.694-97.806z"
           fill="#fff"
           id="path3732" />
      </g>
      <g
         aria-label="Ani Himawati
18/15/2017
235g"
         transform="matrix(.59203 0 0 .56709 -1136.2 486.71)"
         id="flowRoot3750"
         style="font-size:40px;line-height:0px;font-family:'Roadshow IAIC 2013';letter-spacing:0px;word-spacing:0px;opacity:0.8">
        <path
           d="m 589.30611,138.35678 c 4.42912,-5.61702 6.59018,12.5827 2.75874,6.3722 -2.80077,-0.70464 -5.49898,4.63958 -4.09108,-0.95109 0.36562,-1.82619 0.96927,-3.5944 1.33234,-5.42111 z m 0.89841,4.76551 c 4.49964,1.12229 -0.65508,-7.89946 -0.26524,-1.03899 -0.20876,0.30093 -0.20005,0.95924 0.26524,1.03899 z"
           style="font-size:13.333px;line-height:16.8412px;text-align:center;text-anchor:middle"
           id="path7964" />
        <path
           d="m 595.59501,139.99086 c 3.79419,-3.13594 8.12791,5.40437 3.4635,6.34089 2.63864,-4.16057 -4.13318,-7.69931 -2.85384,-1.70974 0.39198,6.6134 -3.52588,-3.1282 -0.60966,-4.63115 z"
           style="font-size:13.333px;line-height:16.8412px;text-align:center;text-anchor:middle"
           id="path7966" />
        <path
           d="m 602.93858,140.30335 c 1.55957,3.07756 -1.64169,9.50796 -1.59878,2.80994 -0.08,-1.07283 -0.18496,-3.36114 1.59878,-2.80994 z m -1.17185,-2.32416 c 4.97873,-0.76349 -1.29183,4.13216 0,0 z"
           style="font-size:13.333px;line-height:16.8412px;text-align:center;text-anchor:middle"
           id="path7968" />
        <path
           d="m 609.98267,136.76828 c 1.57129,2.3655 1.96117,7.59619 2.90855,1.84127 3.24503,-4.64664 1.53397,12.74151 -0.88282,6.05846 -0.50925,-2.38353 -2.10873,5.28964 -2.59209,0.23158 0.30831,-2.64434 -1.43336,-5.88073 0.56636,-8.13131 z"
           style="font-size:13.333px;line-height:16.8412px;text-align:center;text-anchor:middle"
           id="path7970" />
        <path
           d="m 616.97469,140.30335 c 1.55963,3.07761 -1.64187,9.50796 -1.59889,2.80991 -0.08,-1.07288 -0.18488,-3.36119 1.59889,-2.80991 z m -1.17185,-2.32416 c 4.97871,-0.7635 -1.29183,4.13217 0,0 z"
           style="font-size:13.333px;line-height:16.8412px;text-align:center;text-anchor:middle"
           id="path7972" />
        <path
           d="m 619.38348,140.03643 c 2.98169,0.84922 8.11281,-1.07607 6.6766,4.66317 -2.87209,6.00896 -0.98423,-7.97405 -3.42383,-1.66772 -0.81887,3.11973 -1.04835,4.17646 -1.45045,0.42085 -1.917,-5.28207 -0.84351,8.07473 -2.91482,0.75313 -0.1981,-1.27422 -0.71761,-3.87689 1.1125,-4.16943 z"
           style="font-size:13.333px;line-height:16.8412px;text-align:center;text-anchor:middle"
           id="path7974" />
        <path
           d="m 626.40154,140.91531 c 4.53058,-6.58039 7.45371,9.02383 0.66005,5.32376 -1.79091,-2.96515 5.71685,-6.13893 -0.36739,-4.73167 z m 2.62363,3.09888 c -5.00615,-0.0905 2.32379,3.66033 0,0 z"
           style="font-size:13.333px;line-height:16.8412px;text-align:center;text-anchor:middle"
           id="path7976" />
        <path
           d="m 632.18264,140.03643 c -0.39937,3.65527 3.41059,7.44588 2.19092,1.66935 1.93654,-4.44252 1.27516,8.1286 3.11861,1.21785 1.52989,-7.32305 3.05187,5.64295 -2.2397,3.8874 -3.75058,1.28351 -5.08204,-5.05985 -3.06983,-6.7746 z"
           style="font-size:13.333px;line-height:16.8412px;text-align:center;text-anchor:middle"
           id="path7978" />
        <path
           d="m 639.40251,140.91531 c 4.53059,-6.58038 7.4537,9.02382 0.66005,5.32376 -1.79092,-2.96515 5.71686,-6.13893 -0.36739,-4.73166 z m 2.62363,3.09888 c -5.0061,-0.0905 2.32383,3.6602 0,0 z"
           style="font-size:13.333px;line-height:16.8412px;text-align:center;text-anchor:middle"
           id="path7980" />
        <path
           d="m 645.50262,137.73831 c 0.12067,2.51745 3.94485,3.97447 0.38261,5.04989 -1.68051,4.55057 5.24786,0.36914 2.54685,3.99292 -5.90395,1.18558 -5.08236,-6.47711 -2.92946,-9.04281 z"
           style="font-size:13.333px;line-height:16.8412px;text-align:center;text-anchor:middle"
           id="path7982" />
        <path
           d="m 651.45299,140.30335 c 1.55963,3.07761 -1.64188,9.50796 -1.59889,2.8099 -0.08,-1.07287 -0.18488,-3.36119 1.59889,-2.8099 z m -1.17184,-2.32416 c 4.97873,-0.76349 -1.29185,4.13217 0,0 z"
           style="font-size:13.333px;line-height:16.8412px;text-align:center;text-anchor:middle"
           id="path7984" />
        <path
           d="m 591.21361,154.3191 c 3.99733,-0.20763 0.75431,9.02116 -0.0912,9.07351 -0.30973,-2.62886 -1.44825,-7.29642 0.0912,-9.07351 z"
           style="font-size:13.333px;line-height:16.8412px;text-align:center;text-anchor:middle"
           id="path7986" />
        <path
           d="m 598.20563,154.22145 c 2.32715,2.08812 1.53268,6.22523 1.88093,8.80667 -3.956,4.07457 -8.53783,-2.66482 -5.81599,-5.5973 -1.09289,-2.43806 1.73655,-4.76091 3.93506,-3.20937 z m -2.10282,1.18486 c -2.06652,6.07707 6.33369,-0.23123 0,0 z m 0.007,4.26422 c -3.7968,5.83803 7.57448,0.37813 0,4e-5 z"
           style="font-size:13.333px;line-height:16.8412px;text-align:center;text-anchor:middle"
           id="path7988" />
        <path
           d="m 605.13254,153.47928 c 1.2077,3.19065 -2.18374,10.03684 -3.79918,9.8567 0.83417,-3.42214 1.80551,-6.90509 3.79918,-9.8567 z"
           style="font-size:13.333px;line-height:16.8412px;text-align:center;text-anchor:middle"
           id="path7990" />
        <path
           d="m 607.80174,154.3191 c 3.99733,-0.20763 0.75431,9.02116 -0.0912,9.07351 -0.30971,-2.62887 -1.44827,-7.29643 0.0912,-9.07351 z"
           style="font-size:13.333px;line-height:16.8412px;text-align:center;text-anchor:middle"
           id="path7992" />
        <path
           d="m 617.19604,154.48186 c -0.0344,3.20061 -8.64399,-0.20914 -4.70046,3.97116 6.88432,-3.17076 2.30406,9.45823 -0.4313,3.60666 4.30534,0.77325 1.77277,-4.31526 -1.20765,-2.04423 -3.29621,-4.90948 1.86893,-9.03868 6.33941,-5.53359 z"
           style="font-size:13.333px;line-height:16.8412px;text-align:center;text-anchor:middle"
           id="path7994" />
        <path
           d="m 621.64905,153.47928 c 1.20774,3.19064 -2.18375,10.03683 -3.79917,9.8567 0.83416,-3.42214 1.80551,-6.90508 3.79917,-9.8567 z"
           style="font-size:13.333px;line-height:16.8412px;text-align:center;text-anchor:middle"
           id="path7996" />
        <path
           d="m 622.83392,156.66279 c 0.82518,-8.13839 12.52612,1.15252 4.33499,3.79009 -4.55785,1.75601 6.15727,0.68471 0.69791,3.42417 -4.10265,1.11946 -6.89166,-4.27407 -1.28474,-4.53412 3.19181,-3.28104 -2.03681,-3.58867 -3.35236,-1.78969 l -0.38308,-0.31151 z"
           style="font-size:13.333px;line-height:16.8412px;text-align:center;text-anchor:middle"
           id="path7998" />
        <path
           d="m 634.68258,153.86338 c 8.72391,1.04072 -0.20841,16.48574 -3.96485,7.51776 -0.98738,-3.01329 -0.58449,-8.53769 3.96485,-7.51776 z m -0.75519,2.08328 c -6.29752,1.26955 2.38419,11.59243 2.4327,3.15861 0.34933,-1.58863 -0.50045,-3.63855 -2.4327,-3.15861 z"
           style="font-size:13.333px;line-height:16.8412px;text-align:center;text-anchor:middle"
           id="path8000" />
        <path
           d="m 640.18374,154.3191 c 3.99733,-0.20763 0.75431,9.02116 -0.0912,9.07351 -0.30973,-2.62887 -1.44823,-7.2964 0.0912,-9.07351 z"
           style="font-size:13.333px;line-height:16.8412px;text-align:center;text-anchor:middle"
           id="path8002" />
        <path
           d="m 643.98573,153.73969 c 4.10297,-1.71873 7.83715,2.65875 3.36015,5.11873 0.13949,3.12372 -2.51868,6.73494 -2.48294,1.60655 0.73709,-1.93875 4.76071,-6.15146 0.0473,-4.81777 0.54989,6.18355 -5.44308,-1.47002 -0.92452,-1.90751 z"
           style="font-size:13.333px;line-height:16.8412px;text-align:center;text-anchor:middle"
           id="path8004" />
        <path
           d="m 598.91668,171.75258 c -0.0625,-9.63787 16.29481,-2.8699 8.80005,3.91436 -1.76527,1.62049 -7.6444,4.37077 -1.51947,3.31814 5.54106,-0.0997 -0.13776,5.32934 -3.1793,3.30385 -6.55025,-0.0809 -1.49979,-7.67968 2.56546,-7.43204 3.05791,-2.85598 -3.77989,-6.47258 -3.61792,-1.78672 -1.00384,0.5159 -3.47806,0.34261 -3.04882,-1.31759 z"
           style="font-size:19.697px;line-height:16.8412px;text-align:center;text-anchor:middle"
           id="path8006" />
        <path
           d="m 612.10251,168.0113 c 3.74765,-2.48389 8.1082,4.50331 3.13536,5.5494 8.84311,0.84201 0.0315,13.54827 -5.08288,6.88538 -0.32973,-4.22562 8.35166,0.85559 5.81327,-4.47331 -2.39223,-1.57028 -7.73532,-1.61739 -2.49328,-4.32263 3.26234,-2.44723 -6.0511,1.93902 -2.95106,-2.92796 l 0.64054,-0.55339 z"
           style="font-size:19.697px;line-height:16.8412px;text-align:center;text-anchor:middle"
           id="path8008" />
        <path
           d="m 630.2703,168.53066 c 0.0383,5.44514 -11.5859,-1.62803 -7.84806,5.6552 6.73141,-3.094 10.03363,8.41656 2.04891,8.11333 -6.5629,-2.56579 6.06858,-2.86362 0.99609,-5.6127 -7.33478,2.58159 -8.01892,-10.11488 -1.23578,-10.0696 1.807,0.97547 4.86829,0.0561 6.03884,1.91377 z"
           style="font-size:19.697px;line-height:16.8412px;text-align:center;text-anchor:middle"
           id="path8010" />
        <path
           d="m 638.24335,172.07958 c 5.98017,3.36634 1.72542,18.86884 -4.98855,13.41029 -0.52965,-4.99084 4.27927,1.34565 3.59988,-2.56409 -5.68997,-0.60693 -8.82955,-6.01762 -4.29036,-10.3417 1.64796,-1.1495 3.83518,-1.02851 5.67903,-0.5045 z m -1.00023,3.01033 c -6.48226,-3.48585 -3.79256,10.39338 0.69247,4.53954 0.19336,-1.51126 0.41689,-3.29044 -0.69247,-4.53954 z"
           style="font-size:19.697px;line-height:16.8412px;text-align:center;text-anchor:middle"
           id="path8012" />
      </g>
      <g
         aria-label="A12X5"
         transform="matrix(0 -.78882 .77228 0 -878.65 1016.5)"
         id="flowRoot3770"
         style="font-size:40px;line-height:0px;font-family:'Roadshow IAIC 2013';letter-spacing:0px;word-spacing:0px;opacity:0.8">
        <path
           d="m 590.16279,132.08449 c 0.5562,-6.42723 9.13001,-1.16202 7.52339,3.41338 0.0992,4.26325 4.60621,10.731 0.86784,13.62603 -2.02154,-2.18223 -2.9898,-6.39513 -6.95959,-4.51036 -1.9651,0.93856 -2.52163,7.57893 -4.99438,4.05441 0.72206,-5.61739 2.19228,-11.09947 3.56274,-16.58346 z m 1.83491,9.73295 c 5.71497,2.9419 3.91911,-7.90294 1.23942,-8.00093 -1.83931,1.68229 -2.14539,6.19808 -1.23942,8.00093 z"
           style="font-size:27.231px;line-height:15px;text-align:center;text-anchor:middle"
           id="path7953" />
        <path
           d="m 604.1373,130.28947 c 3.9551,-2.9003 4.72159,2.28784 3.33226,4.98966 -1.17228,4.52142 0.16678,11.10179 -2.39606,14.33106 -4.84702,-0.77076 -0.67855,-7.48785 -1.36405,-10.86719 0.89998,-3.5737 -4.84035,-4.73959 -0.54468,-7.62735 l 0.48692,-0.42999 z"
           style="font-size:27.231px;line-height:15px;text-align:center;text-anchor:middle"
           id="path7955" />
        <path
           d="m 608.79103,135.07617 c -0.5842,-6.33116 7.79761,-8.62491 12.24068,-5.50316 4.26091,3.77327 1.76747,11.50866 -3.22568,13.3467 -1.93275,0.28331 -5.41937,3.29358 -1.27196,2.16496 2.96113,-1.65964 8.76161,1.67583 4.4894,3.96591 -3.84719,0.60594 -13.3374,1.69242 -11.39719,-4.63711 2.46446,-3.36827 12.0191,-3.64658 8.58699,-9.55486 -2.50954,-3.40227 -4.54408,0.0991 -5.6277,2.21959 -1.3438,0.61175 -4.37665,-2.9e-4 -3.79454,-2.00203 z"
           style="font-size:27.231px;line-height:15px;text-align:center;text-anchor:middle"
           id="path7957" />
        <path
           d="m 628.61594,129.59806 c 1.6034,1.37683 2.46769,9.54319 4.06205,4.00222 -0.9537,-3.43642 6.16541,-7.22795 4.31157,-1.8823 -2.00567,3.84435 -5.80208,8.47325 -2.00503,12.51178 2.40124,2.01591 0.4478,7.8951 -2.18854,4.35582 -0.45848,-2.00063 -2.34375,-8.17032 -3.56839,-3.09832 0.77072,3.7693 -6.9136,6.56686 -4.34428,1.26699 3.62873,-3.84897 4.75181,-8.91619 1.76036,-13.49622 -0.8059,-1.72129 -0.97272,-4.90601 1.97226,-3.65997 z"
           style="font-size:27.231px;line-height:15px;text-align:center;text-anchor:middle"
           id="path7959" />
        <path
           d="m 653.00152,130.62188 c 0.10311,6.82696 -7.73909,0.45248 -11.04794,2.78839 -2.86972,3.96524 2.57164,7.24467 5.9768,4.98376 6.15791,1.10738 4.64554,10.82948 -1.26602,10.96519 -2.87545,1.63799 -7.11469,-3.10256 -2.64773,-3.16494 5.96879,1.01034 4.26485,-7.98727 -1.13302,-4.24196 -5.43521,0.6792 -4.60897,-6.25744 -4.30981,-9.72276 0.39145,-5.92543 6.66834,-3.30305 10.43048,-3.38847 1.45763,0.13488 3.13655,0.45732 3.99724,1.78079 z"
           style="font-size:27.231px;line-height:15px;text-align:center;text-anchor:middle"
           id="path7961" />
      </g>
    </g>
    <g
       transform="matrix(1.4608 0 0 1.4608 292.29 -52.142)"
       id="g3778">
      <circle
         cx="-134.13"
         cy="116.6"
         r="4.0537"
         fill="#ccc"
         fill-opacity=".97255"
         stroke="#808080"
         stroke-width=".78684"
         id="circle3774" />
      <path
         d="m-135.42 117.78c-0.41491-0.4442-0.76904-0.82781-0.78695-0.85246-0.0289-0.0398 5e-3 -0.08 0.30343-0.35662 0.1848-0.1715 0.3449-0.30841 0.3558-0.30427 0.0109 4e-3 0.21819 0.22042 0.46067 0.48062 0.24249 0.2602 0.45394 0.47309 0.46987 0.47309 0.0159 0 0.58433-0.51783 1.2631-1.1508 0.67876-0.6329 1.2458-1.1507 1.2602-1.1507 0.0276 0 0.63758 0.64667 0.63758 0.67597 0 0.0167-3.1632 2.9749-3.1939 2.9868-8e-3 3e-3 -0.35489-0.35745-0.76979-0.80165z"
         fill="#00b300"
         marker-start="url(#Arrow2Sstart-1-2-2-9)"
         opacity=".93"
         stroke-width=".025572"
         id="path3776" />
    </g>
    <g
       transform="matrix(1.7142 0 0 1.7142 355.47 -87.323)"
       id="g3784">
      <circle
         cx="-134.13"
         cy="116.6"
         r="4.0537"
         fill="#ccc"
         fill-opacity=".97255"
         stroke="#808080"
         stroke-width=".78684"
         id="circle3780" />
      <path
         d="m-135.42 117.78c-0.41491-0.4442-0.76904-0.82781-0.78695-0.85246-0.0289-0.0398 5e-3 -0.08 0.30343-0.35662 0.1848-0.1715 0.3449-0.30841 0.3558-0.30427 0.0109 4e-3 0.21819 0.22042 0.46067 0.48062 0.24249 0.2602 0.45394 0.47309 0.46987 0.47309 0.0159 0 0.58433-0.51783 1.2631-1.1508 0.67876-0.6329 1.2458-1.1507 1.2602-1.1507 0.0276 0 0.63758 0.64667 0.63758 0.67597 0 0.0167-3.1632 2.9749-3.1939 2.9868-8e-3 3e-3 -0.35489-0.35745-0.76979-0.80165z"
         fill="#00b300"
         marker-start="url(#Arrow2Sstart-1-2-2-9)"
         opacity=".93"
         stroke-width=".025572"
         id="path3782" />
    </g>
  </g>
</svg>
