<?xml version="1.0" encoding="UTF-8"?>
<!-- Created with Inkscape (http://www.inkscape.org/) -->
<svg width="78.227mm" height="84.281mm" version="1.1" viewBox="0 0 78.227 84.281" xmlns="http://www.w3.org/2000/svg">
 <defs>
  <marker id="Arrow2Sstart-1-2-2-3" overflow="visible" orient="auto">
   <path transform="matrix(.3 0 0 .3 -.69 0)" d="m8.7186 4.0337-10.926-4.0177 10.926-4.0177c-1.7455 2.3721-1.7354 5.6175-6e-7 8.0354z" fill="#00b300" fill-rule="evenodd"/>
  </marker>
  <marker id="Arrow2Sstart-1-2-2-9" overflow="visible" orient="auto">
   <path transform="matrix(.3 0 0 .3 -.69 0)" d="m8.7186 4.0337-10.926-4.0177 10.926-4.0177c-1.7455 2.3721-1.7354 5.6175-6e-7 8.0354z" fill="#00b300" fill-rule="evenodd"/>
  </marker>
 </defs>
 <g transform="translate(-72.891 -78.673)">
  <g transform="matrix(.6901 0 0 .6901 97.023 34.94)" fill="#ffff09" fill-opacity=".5292">
   <path transform="matrix(1.7061 0 0 1.7467 -13.054 -85.455)" d="m49.783 126.49-7.4901 1.0788 4.5967 6.0113-7.523-0.8178 2.9573 6.9656-7.0833-2.663 1.1321 7.4822-6.1985-4.3409-0.7642 7.5287-4.9242-5.746-2.6125 7.1021-3.3406-6.7901-4.2966 6.2293-1.547-7.4076-5.7108 4.965 0.34381-7.5596-6.7662 3.3888 2.213-7.2366-7.3964 1.5997 3.9431-6.4588-7.5618-0.28997 5.4255-5.2753-7.2521-2.1614 6.567-3.7603-6.4868-3.897 7.2958-2.009-5.3138-5.3878 7.5662-0.13154-3.807-6.54 7.3612 1.7542-2.061-7.2813 6.6937 3.5298-0.18542-7.5651 5.6056 5.0836 1.7018-7.3735 4.1652 6.3179 3.482-6.7187 2.4632 7.1553 5.0435-5.6416 0.60636 7.543 6.2881-4.2101-1.2886 7.4569 7.1375-2.5141-3.1025 6.9021 7.5385-0.66007-4.7215 5.9137 7.4658 1.2354-6.0439 4.5537 6.9241 3.0533-6.9865 2.9076z" fill="#ffff09" fill-opacity=".5292"/>
  </g>
  <g transform="matrix(1.2535 0 0 1.2535 293.27 -14.343)">
   <circle cx="-134.13" cy="116.6" r="4.0537" fill="#ccc" fill-opacity=".97255" stroke="#808080" stroke-width=".78684"/>
   <path d="m-135.42 117.78c-0.41491-0.4442-0.76904-0.82781-0.78695-0.85246-0.0289-0.0398 5e-3 -0.08 0.30343-0.35662 0.1848-0.1715 0.3449-0.30841 0.3558-0.30427 0.0109 4e-3 0.21819 0.22042 0.46067 0.48062 0.24249 0.2602 0.45394 0.47309 0.46987 0.47309 0.0159 0 0.58433-0.51783 1.2631-1.1508 0.67876-0.6329 1.2458-1.1507 1.2602-1.1507 0.0276 0 0.63758 0.64667 0.63758 0.67597 0 0.0167-3.1632 2.9749-3.1939 2.9868-8e-3 3e-3 -0.35489-0.35745-0.76979-0.80165z" fill="#00b300" marker-start="url(#Arrow2Sstart-1-2-2-3)" opacity=".93" stroke-width=".025572"/>
  </g>
  <ellipse cx="111.07" cy="149.01" rx="29.166" ry="10.425" fill="#896300" opacity=".15476"/>
  <ellipse cx="111.21" cy="146.69" rx="22.848" ry="7.8102" fill="#876c00" opacity=".26859"/>
  <g transform="matrix(.32367 0 0 .32367 359.27 -50.734)">
   <ellipse transform="matrix(2.2665 0 0 2.2665 -814.8 259.64)" cx="21.523" cy="152.19" rx="23.05" ry="7.9335" fill="#867220" fill-opacity=".52535" stroke-width=".081214"/>
   <g transform="matrix(.21867 -.0015018 .0015018 .21867 -560.57 410.27)">
    <path d="m-812.7 574.27c10.146-64.939 26.602-104.58 4.508-190.93-27.758-46.496-56.703-43.457-87.078-80.682-0.495-22.531-1.084-43.114-1.307-67.185-0.189-19.007-20.554-20.558-42.066-20.037l-0.015-0.36c-1.336 0.211-2.763 0.363-4.227 0.49-4.539 0.153-9.082 0.344-13.446 0.443-4.373-0.018-8.913-0.131-13.459-0.199-1.454-0.109-2.886-0.228-4.217-0.42l-2e-3 0.359c-21.543-0.13-41.868 1.786-41.717 20.791 0.2 24.069-0.02 44.646-0.108 67.2-29.692 37.765-58.711 35.245-85.63 82.208-20.522 86.752-3.358 126.06 7.947 190.82 8.601 86.446-18.532 87.433-11.085 247.5 0 70.591 79.621 86.599 150.75 86.599 71.128 0 156.66-13.825 156.66-89.344 4.583-160.17-22.563-160.68-15.507-247.26z" fill="#99fff0"/>
    <path d="m-812.7 574.27c10.146-64.939 26.602-104.58 4.508-190.93-27.758-46.496-56.703-43.457-87.078-80.682-0.495-22.531-1.084-43.114-1.307-67.185-0.189-19.007-20.554-20.558-42.066-20.037l-0.015-0.36c-1.336 0.211-2.763 0.363-4.227 0.49-4.539 0.153-9.082 0.344-13.446 0.443-4.373-0.018-8.913-0.131-13.459-0.199-1.454-0.109-2.886-0.228-4.217-0.42l-2e-3 0.359c-21.543-0.13-41.868 1.786-41.717 20.791 0.2 24.069-0.02 44.646-0.108 67.2-29.692 37.765-58.711 35.245-85.63 82.208-20.522 86.752-3.358 126.06 7.947 190.82 8.601 86.446-18.532 87.433-11.085 247.5 0 70.591 79.621 86.599 150.75 86.599 71.128 0 156.66-13.825 156.66-89.344 4.583-160.17-22.563-160.68-15.507-247.26z" fill="none" stroke="#231f20" stroke-linecap="round" stroke-linejoin="round" stroke-miterlimit="10" stroke-width="12.376"/>
    <path d="m-837.35 384.08c-31.619-40.601-78.237-43.035-78.971-85.28-20.373 9.702-55.832 10.123-74.706 0.65458 2.5151 40.516-60.303 58.145-82.797 94.813-24.739 48.75-3.483 152.78-3.483 152.78l52.343 112.71h108.31l89.506-114.13c12.203-95.874 1.0072-147.16-10.197-161.55z" enable-background="new    " fill="#0f0"/>
    <path d="m-820.88 756.1c-1.376-49.433-7.243-73.229-10.78-97.233-0.531-3.659-1.026-7.339-1.43-11.102 0 0-73.958-34.182-142.4 11.469-33.215 22.154-91.433-10.369-91.433-10.369-0.383 3.77-0.812 7.455-1.313 11.125-3.287 24.03-8.897 47.884-9.752 97.326 0 0 41.325-12.488 96.159 10.539 79.608 33.442 160.95-11.755 160.95-11.755z" enable-background="new    " fill="#f0f"/>
    <path d="m-975.49 659.24c68.443-45.65 142.4-11.469 142.4-11.469-1.444-13.404-4.1304-27.128-2.4684-47.105 1.9743-18.437 3.2371-36.395 8.4073-55.033 0 0-80.275 45.191-156.94 0.97175-51.458-29.68-93.214 0.448-93.214 0.448 2.896 17.06 6.808 34.067 10.1 53.824 1.872 19.968 1.573 34.592 0.282 47.993 0 1e-3 58.217 32.525 91.433 10.37z" enable-background="new    " fill="#ff0"/>
    <path d="m-820.79 760.69c-0.021-1.521-0.068-3.097-0.091-4.583 0 0-81.342 45.196-160.95 11.755-54.834-23.027-96.159-10.539-96.159-10.539-0.022 1.49-0.028 3.061-0.048 4.594-0.153 14.498 0.073 31.016 0.876 50.343 0 54.962 81.585 67.332 128.85 67.332 52.44 0 127.18-10.913 127.18-68.535 0.168-19.346 0.636-35.867 0.341-50.367z" fill="#f00"/>
    <path d="m-1076.4 555.28c-10.362-43.07-12.239-91.328-7.4717-136.98 55.436 5.3732 64.225 33.398 115.81 36.072 39.382 0.99621 116.22-42.968 144.92-34.174 4.9573 38.72 4.2447 68.492-4.0558 125.44-30.143 18.315-56.931 23.025-87.074 22.018-43.584-0.12238-62.113-21.568-109.48-32.908-20.674-4.5939-33.316 5.2316-52.649 20.538z" fill="#ff7400"/>
    <g stroke="#231f20">
     <path d="m-879.09 260.43-4.673-67.715c0.526-14.221-26.441-28.291-69.154-29.874-42.711-1.583-71.475 9.104-72.002 23.327l-8.838 68.531c-0.53 14.24 33.667 27.057 76.377 28.633 42.711 1.59 77.761-8.662 78.29-22.902z" fill="#99fff0" stroke-miterlimit="10" stroke-width="12.375"/>
     <path d="m-879.33 233.13 0.578-69.009c0.117-14.232-34.43-26.07-77.171-26.425-42.738-0.36-77.477 10.896-77.6 25.124l-0.578 69.01c-0.121 14.25 34.428 26.083 77.165 26.434 42.743 0.367 77.485-10.887 77.606-25.134z" fill="#2479b3" stroke-miterlimit="10" stroke-width="12.375"/>
     <ellipse cx="-956.92" cy="159.66" rx="76.77" ry="24.052" fill="#3f9ad8" stroke-width="10.314"/>
    </g>
    <path d="m-913.02 379.91c3.848-13.089 5.3951-18.838 31.111-15.29 52.269 36.18 45.525 62.941 44.729 108.83-2.0682 18.178-42.622 14.441-43.146 4.266 5.7632-43.652 2.2307-75.153-32.694-97.806z" fill="#fff"/>
   </g>
   <flowRoot transform="matrix(.59203 0 0 .56709 -1136.2 486.71)" fill="#000000" font-family="'Roadshow IAIC 2013'" font-size="40px" letter-spacing="0px" opacity=".8" word-spacing="0px" style="line-height:0px" xml:space="preserve"><flowRegion><rect x="573.7" y="135.07" width="92.8" height="92.738"/></flowRegion><flowPara font-size="13.333px" text-align="center" text-anchor="middle" style="line-height:16.8412px">Ani Himawati</flowPara><flowPara font-size="13.333px" text-align="center" text-anchor="middle" style="line-height:16.8412px">18/15/2017</flowPara><flowPara font-size="13.333px" text-align="center" text-anchor="middle" style="line-height:16.8412px"/><flowPara font-size="19.697px" text-align="center" text-anchor="middle" style="line-height:16.8412px">235g</flowPara><flowPara font-size="13.333px" text-align="center" text-anchor="middle" style="line-height:16.8412px"/></flowRoot>
   <flowRoot transform="matrix(0 -.78882 .77228 0 -878.65 1016.5)" fill="#000000" font-family="'Roadshow IAIC 2013'" font-size="40px" letter-spacing="0px" opacity=".8" word-spacing="0px" style="line-height:0px" xml:space="preserve"><flowRegion><rect x="573.7" y="135.07" width="92.8" height="92.738"/></flowRegion><flowPara font-size="27.231px" text-align="center" text-anchor="middle" style="line-height:15px">A12X5</flowPara><flowPara font-size="13.333px" text-align="center" text-anchor="middle" style="line-height:15px"/><flowPara font-size="13.333px" text-align="center" text-anchor="middle" style="line-height:15px"/><flowPara font-size="13.333px" text-align="center" text-anchor="middle" style="line-height:15px"/><flowPara font-size="13.333px" text-align="center" text-anchor="middle" style="line-height:15px"/><flowPara font-size="13.333px" text-align="center" text-anchor="middle" style="line-height:15px"/><flowPara font-size="19.805px" text-align="center" text-anchor="middle" style="line-height:15px"/></flowRoot>
  </g>
  <g transform="matrix(1.4608 0 0 1.4608 292.29 -52.142)">
   <circle cx="-134.13" cy="116.6" r="4.0537" fill="#ccc" fill-opacity=".97255" stroke="#808080" stroke-width=".78684"/>
   <path d="m-135.42 117.78c-0.41491-0.4442-0.76904-0.82781-0.78695-0.85246-0.0289-0.0398 5e-3 -0.08 0.30343-0.35662 0.1848-0.1715 0.3449-0.30841 0.3558-0.30427 0.0109 4e-3 0.21819 0.22042 0.46067 0.48062 0.24249 0.2602 0.45394 0.47309 0.46987 0.47309 0.0159 0 0.58433-0.51783 1.2631-1.1508 0.67876-0.6329 1.2458-1.1507 1.2602-1.1507 0.0276 0 0.63758 0.64667 0.63758 0.67597 0 0.0167-3.1632 2.9749-3.1939 2.9868-8e-3 3e-3 -0.35489-0.35745-0.76979-0.80165z" fill="#00b300" marker-start="url(#Arrow2Sstart-1-2-2-9)" opacity=".93" stroke-width=".025572"/>
  </g>
  <g transform="matrix(1.7142 0 0 1.7142 355.47 -87.323)">
   <circle cx="-134.13" cy="116.6" r="4.0537" fill="#ccc" fill-opacity=".97255" stroke="#808080" stroke-width=".78684"/>
   <path d="m-135.42 117.78c-0.41491-0.4442-0.76904-0.82781-0.78695-0.85246-0.0289-0.0398 5e-3 -0.08 0.30343-0.35662 0.1848-0.1715 0.3449-0.30841 0.3558-0.30427 0.0109 4e-3 0.21819 0.22042 0.46067 0.48062 0.24249 0.2602 0.45394 0.47309 0.46987 0.47309 0.0159 0 0.58433-0.51783 1.2631-1.1508 0.67876-0.6329 1.2458-1.1507 1.2602-1.1507 0.0276 0 0.63758 0.64667 0.63758 0.67597 0 0.0167-3.1632 2.9749-3.1939 2.9868-8e-3 3e-3 -0.35489-0.35745-0.76979-0.80165z" fill="#00b300" marker-start="url(#Arrow2Sstart-1-2-2-9)" opacity=".93" stroke-width=".025572"/>
  </g>
 </g>
</svg>
