<?xml version="1.0" encoding="UTF-8" standalone="no"?>
<!-- Created with Inkscape (http://www.inkscape.org/) -->

<svg
   xmlns:dc="http://purl.org/dc/elements/1.1/"
   xmlns:cc="http://creativecommons.org/ns#"
   xmlns:rdf="http://www.w3.org/1999/02/22-rdf-syntax-ns#"
   xmlns:svg="http://www.w3.org/2000/svg"
   xmlns="http://www.w3.org/2000/svg"
   xmlns:sodipodi="http://sodipodi.sourceforge.net/DTD/sodipodi-0.dtd"
   xmlns:inkscape="http://www.inkscape.org/namespaces/inkscape"
   width="92.577583mm"
   height="132.88379mm"
   viewBox="0 0 92.577583 132.88379"
   version="1.1"
   id="svg34540"
   inkscape:version="0.92.4 (f8dce91, 2019-08-02)"
   sodipodi:docname="basic.svg">
  <defs
     id="defs34534" />
  <sodipodi:namedview
     id="base"
     pagecolor="#ffffff"
     bordercolor="#666666"
     borderopacity="1.0"
     inkscape:pageopacity="0.0"
     inkscape:pageshadow="2"
     inkscape:zoom="0.98994949"
     inkscape:cx="222.09172"
     inkscape:cy="161.81137"
     inkscape:document-units="mm"
     inkscape:current-layer="layer1"
     showgrid="false"
     fit-margin-top="0"
     fit-margin-left="0"
     fit-margin-right="0"
     fit-margin-bottom="0"
     inkscape:window-width="1920"
     inkscape:window-height="1009"
     inkscape:window-x="0"
     inkscape:window-y="34"
     inkscape:window-maximized="1" />
  <metadata
     id="metadata34537">
    <rdf:RDF>
      <cc:Work
         rdf:about="">
        <dc:format>image/svg+xml</dc:format>
        <dc:type
           rdf:resource="http://purl.org/dc/dcmitype/StillImage" />
        <dc:title></dc:title>
      </cc:Work>
    </rdf:RDF>
  </metadata>
  <g
     inkscape:label="Layer 1"
     inkscape:groupmode="layer"
     id="layer1"
     transform="translate(-58.032644,-70.296201)">
    <rect
       inkscape:export-ydpi="81"
       inkscape:export-xdpi="81"
       ry="7.3911853"
       y="-144.46764"
       x="72.76194"
       height="83.969254"
       width="127.95232"
       id="rect1037"
       style="opacity:1;fill:#cccccc;fill-opacity:1;stroke:#666666;stroke-width:4.93147707;stroke-miterlimit:4;stroke-dasharray:none;stroke-opacity:1"
       transform="rotate(90)"
       inkscape:export-filename="/home/russs/Dropbox/Vision Ecobrick Source FIles/GoBrik Development/How to DIagram Scenes/weight proof photo.png" />
    <path
       sodipodi:nodetypes="ccccc"
       inkscape:connector-curvature="0"
       id="path17688"
       d="m 145.00705,184.75955 -44.98637,6.21932 c -0.0327,0.69519 -0.140165,2.04404 0.60815,2.87075 l 44.49296,-7.73819 c 2.68584,-0.85013 2.5207,-1.28217 -0.11474,-1.35188 z"
       style="fill:#666666;stroke:none;stroke-width:0.25894457px;stroke-linecap:butt;stroke-linejoin:miter;stroke-opacity:1" />
    <path
       sodipodi:nodetypes="ccsccc"
       inkscape:connector-curvature="0"
       id="path17690"
       d="m 101.20558,190.60213 c -1.09842,-0.12433 -2.183165,-0.34811 -3.379985,0.2431 0,0 -2.38473,1.59205 -3.51149,1.6543 -1.12676,0.0622 -3.84064,-0.32768 -1.24547,0.22228 2.2318,0.63233 5.04047,1.69804 6.27345,0.8495 l 2.154405,-1.22373"
       style="fill:#666666;stroke:none;stroke-width:0.26458332px;stroke-linecap:butt;stroke-linejoin:miter;stroke-opacity:1" />
    <path
       style="opacity:0.3;fill:#808000;stroke:#000000;stroke-width:0.24584876px;stroke-linecap:butt;stroke-linejoin:miter;stroke-opacity:1"
       d="m 62.524155,160.89688 c 80.027795,-0.75102 80.027795,-0.75102 80.027795,-0.75102 0,0 3.18951,36.55068 0.57991,38.05277 -2.6096,1.5021 -2.6096,1.5021 -2.6096,1.5021 l -77.128235,-0.75105 -3.76942,-5.2573 z"
       id="path1230"
       inkscape:connector-curvature="0"
       inkscape:export-filename="/home/russs/Dropbox/Vision Ecobrick Source FIles/GoBrik Development/How to DIagram Scenes/weight proof photo.png"
       inkscape:export-xdpi="81"
       inkscape:export-ydpi="81" />
    <ellipse
       style="opacity:0.9;fill:#6e6e48;fill-opacity:1;stroke:none;stroke-width:0.69009948;stroke-miterlimit:10;stroke-dasharray:none;stroke-opacity:1"
       id="path17692"
       cx="132.22121"
       cy="162.6181"
       rx="4.9027567"
       ry="0.90165639" />
    <rect
       inkscape:export-ydpi="81"
       inkscape:export-xdpi="81"
       style="opacity:1;fill:none;fill-opacity:1;stroke:#666666;stroke-width:4.93147707;stroke-miterlimit:4;stroke-dasharray:none;stroke-opacity:1"
       id="rect1097"
       width="127.95232"
       height="83.969254"
       x="72.76194"
       y="-144.46764"
       ry="7.3911853"
       transform="rotate(90)"
       inkscape:export-filename="/home/russs/Dropbox/Vision Ecobrick Source FIles/GoBrik Development/How to DIagram Scenes/weight proof photo.png" />
    <path
       style="fill:#4b4b8e;fill-opacity:1;stroke:#000000;stroke-width:0.15843682px;stroke-linecap:butt;stroke-linejoin:miter;stroke-opacity:1"
       d="m 127.74915,161.20644 c -0.0132,0.55959 0.0566,1.05698 0.46471,1.30059 2.21938,0.16568 4.60566,0.1883 7.34937,-0.0955 0.3972,-0.12581 0.78238,-0.26517 0.76358,-0.859 l -0.0954,-4.77234 c -0.34024,-0.75833 -0.79869,-0.80741 -1.24081,-0.95446 h -1.43169 l -0.38179,-1.81348 c 0,0 -2.19527,0.19089 -2.38616,0.0955 l -0.19089,-0.0955 c 0.0285,0.71363 -0.0128,1.28778 -0.0903,1.7894 l -1.58524,0.0415 c -0.55885,0.3116 -0.82264,0.55012 -1.27815,1.22338 z"
       id="path17680"
       inkscape:connector-curvature="0"
       sodipodi:nodetypes="cccccccccccccc" />
    <path
       style="fill:#4d4d4d;stroke:#000000;stroke-width:0.31541446px;stroke-linecap:butt;stroke-linejoin:miter;stroke-opacity:1"
       d="m 80.933915,156.69741 45.763915,1.36808 7.68555,14.02276 -61.484355,-0.68402 z"
       id="path1222"
       inkscape:connector-curvature="0"
       inkscape:export-filename="/home/russs/Dropbox/Vision Ecobrick Source FIles/GoBrik Development/How to DIagram Scenes/weight proof photo.png"
       inkscape:export-xdpi="81"
       inkscape:export-ydpi="81" />
    <ellipse
       style="opacity:0.3;fill:#000000;fill-opacity:1;stroke:none;stroke-width:0.92895204;stroke-miterlimit:4;stroke-dasharray:none;stroke-opacity:1"
       id="path1246"
       cx="103.28137"
       cy="166.59613"
       rx="19.445803"
       ry="3.8254039"
       inkscape:export-filename="/home/russs/Dropbox/Vision Ecobrick Source FIles/GoBrik Development/How to DIagram Scenes/weight proof photo.png"
       inkscape:export-xdpi="81"
       inkscape:export-ydpi="81" />
    <path
       style="fill:#808080;stroke:#000000;stroke-width:0.33215463px;stroke-linecap:butt;stroke-linejoin:miter;stroke-opacity:1"
       d="m 72.906385,171.40203 -5.1491,10.94563 69.761785,0.43574 -3.14331,-10.62262"
       id="path1224"
       inkscape:connector-curvature="0"
       sodipodi:nodetypes="cccc"
       inkscape:export-filename="/home/russs/Dropbox/Vision Ecobrick Source FIles/GoBrik Development/How to DIagram Scenes/weight proof photo.png"
       inkscape:export-xdpi="81"
       inkscape:export-ydpi="81" />
    <path
       style="fill:#b3b3b3;stroke:#000000;stroke-width:0.31541446px;stroke-linecap:butt;stroke-linejoin:miter;stroke-opacity:1"
       d="m 67.757285,182.34766 -0.18437,1.88177 69.868965,0.39618 0.0856,-1.90248 v 0"
       id="path1226"
       inkscape:connector-curvature="0"
       sodipodi:nodetypes="ccccc"
       inkscape:export-filename="/home/russs/Dropbox/Vision Ecobrick Source FIles/GoBrik Development/How to DIagram Scenes/weight proof photo.png"
       inkscape:export-xdpi="81"
       inkscape:export-ydpi="81" />
    <path
       style="fill:#cccccc;stroke:#000000;stroke-width:0.35384008px;stroke-linecap:butt;stroke-linejoin:miter;stroke-opacity:1"
       d="m 84.093005,172.39321 39.006735,0.41725 2.84427,8.72008 -45.671935,-0.34417 z"
       id="path1228"
       inkscape:connector-curvature="0"
       sodipodi:nodetypes="ccccc"
       inkscape:export-filename="/home/russs/Dropbox/Vision Ecobrick Source FIles/GoBrik Development/How to DIagram Scenes/weight proof photo.png"
       inkscape:export-xdpi="81"
       inkscape:export-ydpi="81" />
    <path
       style="fill:#008080;stroke:#008080;stroke-width:0.60854167;stroke-linecap:round;stroke-linejoin:round;stroke-miterlimit:4;stroke-dasharray:none;stroke-opacity:1"
       d="m 99.332385,173.72039 -2.9077,-0.0249"
       id="path1929-6"
       inkscape:connector-curvature="0"
       sodipodi:nodetypes="cc"
       inkscape:export-filename="/home/russs/Dropbox/Vision Ecobrick Source FIles/GoBrik Development/How to DIagram Scenes/weight proof photo.png"
       inkscape:export-xdpi="81"
       inkscape:export-ydpi="81" />
    <path
       inkscape:connector-curvature="0"
       id="path1266"
       d="m 98.415875,176.74884 0.5961,-2.17657"
       style="fill:#008080;stroke:#008080;stroke-width:0.60854167;stroke-linecap:round;stroke-linejoin:round;stroke-miterlimit:4;stroke-dasharray:none;stroke-opacity:1"
       sodipodi:nodetypes="cc"
       inkscape:export-filename="/home/russs/Dropbox/Vision Ecobrick Source FIles/GoBrik Development/How to DIagram Scenes/weight proof photo.png"
       inkscape:export-xdpi="81"
       inkscape:export-ydpi="81" />
    <path
       sodipodi:nodetypes="cc"
       inkscape:connector-curvature="0"
       id="path1268"
       d="m 104.21718,177.2435 -2.90769,-0.0249"
       style="fill:#008080;stroke:#008080;stroke-width:0.60854167;stroke-linecap:round;stroke-linejoin:round;stroke-miterlimit:4;stroke-dasharray:none;stroke-opacity:1"
       inkscape:export-filename="/home/russs/Dropbox/Vision Ecobrick Source FIles/GoBrik Development/How to DIagram Scenes/weight proof photo.png"
       inkscape:export-xdpi="81"
       inkscape:export-ydpi="81" />
    <path
       sodipodi:nodetypes="cc"
       style="fill:#008080;stroke:#008080;stroke-width:0.60854167;stroke-linecap:round;stroke-linejoin:round;stroke-miterlimit:4;stroke-dasharray:none;stroke-opacity:1"
       d="m 93.634125,179.65774 0.87786,-2.17656"
       id="path1270"
       inkscape:connector-curvature="0"
       inkscape:export-filename="/home/russs/Dropbox/Vision Ecobrick Source FIles/GoBrik Development/How to DIagram Scenes/weight proof photo.png"
       inkscape:export-xdpi="81"
       inkscape:export-ydpi="81" />
    <path
       style="fill:#008080;stroke:#008080;stroke-width:0.60854167;stroke-linecap:round;stroke-linejoin:round;stroke-miterlimit:4;stroke-dasharray:none;stroke-opacity:1"
       d="m 97.539225,180.09605 -2.90769,-0.0249"
       id="path1272"
       inkscape:connector-curvature="0"
       sodipodi:nodetypes="cc"
       inkscape:export-filename="/home/russs/Dropbox/Vision Ecobrick Source FIles/GoBrik Development/How to DIagram Scenes/weight proof photo.png"
       inkscape:export-xdpi="81"
       inkscape:export-ydpi="81" />
    <path
       sodipodi:nodetypes="cc"
       inkscape:connector-curvature="0"
       id="path1274"
       d="M 104.86559,173.7369 101.9579,173.712"
       style="fill:#008080;stroke:#008080;stroke-width:0.60854167;stroke-linecap:round;stroke-linejoin:round;stroke-miterlimit:4;stroke-dasharray:none;stroke-opacity:1"
       inkscape:export-filename="/home/russs/Dropbox/Vision Ecobrick Source FIles/GoBrik Development/How to DIagram Scenes/weight proof photo.png"
       inkscape:export-xdpi="81"
       inkscape:export-ydpi="81" />
    <path
       sodipodi:nodetypes="cc"
       style="fill:#008080;stroke:#008080;stroke-width:0.60854167;stroke-linecap:round;stroke-linejoin:round;stroke-miterlimit:4;stroke-dasharray:none;stroke-opacity:1"
       d="m 105.01414,176.76535 0.37068,-2.45833"
       id="path1276"
       inkscape:connector-curvature="0"
       inkscape:export-filename="/home/russs/Dropbox/Vision Ecobrick Source FIles/GoBrik Development/How to DIagram Scenes/weight proof photo.png"
       inkscape:export-xdpi="81"
       inkscape:export-ydpi="81" />
    <path
       style="fill:#008080;stroke:#008080;stroke-width:0.60854167;stroke-linecap:round;stroke-linejoin:round;stroke-miterlimit:4;stroke-dasharray:none;stroke-opacity:1"
       d="m 97.618925,176.82853 -2.9077,-0.0249"
       id="path1278"
       inkscape:connector-curvature="0"
       sodipodi:nodetypes="cc"
       inkscape:export-filename="/home/russs/Dropbox/Vision Ecobrick Source FIles/GoBrik Development/How to DIagram Scenes/weight proof photo.png"
       inkscape:export-xdpi="81"
       inkscape:export-ydpi="81" />
    <path
       style="fill:#008080;stroke:#008080;stroke-width:0.60854167;stroke-linecap:round;stroke-linejoin:round;stroke-miterlimit:4;stroke-dasharray:none;stroke-opacity:1"
       d="m 103.53859,180.15241 -2.90769,-0.0249"
       id="path1282"
       inkscape:connector-curvature="0"
       sodipodi:nodetypes="cc"
       inkscape:export-filename="/home/russs/Dropbox/Vision Ecobrick Source FIles/GoBrik Development/How to DIagram Scenes/weight proof photo.png"
       inkscape:export-xdpi="81"
       inkscape:export-ydpi="81" />
    <path
       inkscape:connector-curvature="0"
       id="path1286"
       d="m 107.15864,176.63176 -0.11955,-2.43062"
       style="fill:#008080;stroke:#008080;stroke-width:0.60854167;stroke-linecap:round;stroke-linejoin:round;stroke-miterlimit:4;stroke-dasharray:none;stroke-opacity:1"
       sodipodi:nodetypes="cc"
       inkscape:export-filename="/home/russs/Dropbox/Vision Ecobrick Source FIles/GoBrik Development/How to DIagram Scenes/weight proof photo.png"
       inkscape:export-xdpi="81"
       inkscape:export-ydpi="81" />
    <path
       style="fill:#008080;stroke:#008080;stroke-width:0.60854167;stroke-linecap:round;stroke-linejoin:round;stroke-miterlimit:4;stroke-dasharray:none;stroke-opacity:1"
       d="m 110.91164,176.65663 -2.90769,-0.0249"
       id="path1288"
       inkscape:connector-curvature="0"
       sodipodi:nodetypes="cc"
       inkscape:export-filename="/home/russs/Dropbox/Vision Ecobrick Source FIles/GoBrik Development/How to DIagram Scenes/weight proof photo.png"
       inkscape:export-xdpi="81"
       inkscape:export-ydpi="81" />
    <path
       inkscape:connector-curvature="0"
       id="path1294"
       d="m 104.50696,180.20292 0.37068,-2.45833"
       style="fill:#008080;stroke:#008080;stroke-width:0.60854167;stroke-linecap:round;stroke-linejoin:round;stroke-miterlimit:4;stroke-dasharray:none;stroke-opacity:1"
       sodipodi:nodetypes="cc"
       inkscape:export-filename="/home/russs/Dropbox/Vision Ecobrick Source FIles/GoBrik Development/How to DIagram Scenes/weight proof photo.png"
       inkscape:export-xdpi="81"
       inkscape:export-ydpi="81" />
    <path
       sodipodi:nodetypes="cc"
       style="fill:#008080;stroke:#008080;stroke-width:0.60854167;stroke-linecap:round;stroke-linejoin:round;stroke-miterlimit:4;stroke-dasharray:none;stroke-opacity:1"
       d="m 111.83598,176.5754 -0.40131,-2.43062"
       id="path1296"
       inkscape:connector-curvature="0"
       inkscape:export-filename="/home/russs/Dropbox/Vision Ecobrick Source FIles/GoBrik Development/How to DIagram Scenes/weight proof photo.png"
       inkscape:export-xdpi="81"
       inkscape:export-ydpi="81" />
    <path
       inkscape:connector-curvature="0"
       id="path1298"
       d="m 112.34316,180.01297 -0.40131,-2.43062"
       style="fill:#008080;stroke:#008080;stroke-width:0.60854167;stroke-linecap:round;stroke-linejoin:round;stroke-miterlimit:4;stroke-dasharray:none;stroke-opacity:1"
       sodipodi:nodetypes="cc"
       inkscape:export-filename="/home/russs/Dropbox/Vision Ecobrick Source FIles/GoBrik Development/How to DIagram Scenes/weight proof photo.png"
       inkscape:export-xdpi="81"
       inkscape:export-ydpi="81" />
    <ellipse
       style="opacity:1;fill:#000000;fill-opacity:1;stroke:#008080;stroke-width:0.60854167;stroke-miterlimit:4;stroke-dasharray:none;stroke-opacity:1"
       id="path1302"
       cx="114.00383"
       cy="180.05333"
       rx="0.33812112"
       ry="0.25359085"
       inkscape:export-filename="/home/russs/Dropbox/Vision Ecobrick Source FIles/GoBrik Development/How to DIagram Scenes/weight proof photo.png"
       inkscape:export-xdpi="81"
       inkscape:export-ydpi="81" />
    <path
       inkscape:connector-curvature="0"
       id="path1304"
       d="m 116.1752,176.74447 -0.73943,-2.48698"
       style="fill:#008080;stroke:#008080;stroke-width:0.60854167;stroke-linecap:round;stroke-linejoin:round;stroke-miterlimit:4;stroke-dasharray:none;stroke-opacity:1"
       sodipodi:nodetypes="cc"
       inkscape:export-filename="/home/russs/Dropbox/Vision Ecobrick Source FIles/GoBrik Development/How to DIagram Scenes/weight proof photo.png"
       inkscape:export-xdpi="81"
       inkscape:export-ydpi="81" />
    <path
       sodipodi:nodetypes="cc"
       inkscape:connector-curvature="0"
       id="path1306"
       d="m 119.98455,176.99474 -2.90769,-0.0249"
       style="fill:#008080;stroke:#008080;stroke-width:0.60854167;stroke-linecap:round;stroke-linejoin:round;stroke-miterlimit:4;stroke-dasharray:none;stroke-opacity:1"
       inkscape:export-filename="/home/russs/Dropbox/Vision Ecobrick Source FIles/GoBrik Development/How to DIagram Scenes/weight proof photo.png"
       inkscape:export-xdpi="81"
       inkscape:export-ydpi="81" />
    <path
       sodipodi:nodetypes="cc"
       style="fill:#008080;stroke:#008080;stroke-width:0.60854167;stroke-linecap:round;stroke-linejoin:round;stroke-miterlimit:4;stroke-dasharray:none;stroke-opacity:1"
       d="m 120.99962,176.85718 -0.73943,-2.48698"
       id="path1308"
       inkscape:connector-curvature="0"
       inkscape:export-filename="/home/russs/Dropbox/Vision Ecobrick Source FIles/GoBrik Development/How to DIagram Scenes/weight proof photo.png"
       inkscape:export-xdpi="81"
       inkscape:export-ydpi="81" />
    <path
       inkscape:connector-curvature="0"
       id="path1310"
       d="m 122.07034,180.4638 -0.73944,-2.48698"
       style="fill:#008080;stroke:#008080;stroke-width:0.60854167;stroke-linecap:round;stroke-linejoin:round;stroke-miterlimit:4;stroke-dasharray:none;stroke-opacity:1"
       sodipodi:nodetypes="cc"
       inkscape:export-filename="/home/russs/Dropbox/Vision Ecobrick Source FIles/GoBrik Development/How to DIagram Scenes/weight proof photo.png"
       inkscape:export-xdpi="81"
       inkscape:export-ydpi="81" />
    <path
       style="fill:#008080;stroke:#008080;stroke-width:0.60854167;stroke-linecap:round;stroke-linejoin:round;stroke-miterlimit:4;stroke-dasharray:none;stroke-opacity:1"
       d="m 119.26729,173.8866 -2.90769,-0.0249"
       id="path1615"
       inkscape:connector-curvature="0"
       sodipodi:nodetypes="cc"
       inkscape:export-filename="/home/russs/Dropbox/Vision Ecobrick Source FIles/GoBrik Development/How to DIagram Scenes/weight proof photo.png"
       inkscape:export-xdpi="81"
       inkscape:export-ydpi="81" />
    <g
       transform="matrix(0.10014658,-6.8781083e-4,6.8781083e-4,0.10014658,198.10016,75.861786)"
       id="g34078"
       inkscape:export-filename="/home/russs/Documents/Dropbox/Vision Ecobrick Source FIles/Cartoon Character Assets/just and ecobrick.png"
       inkscape:export-xdpi="78.174202"
       inkscape:export-ydpi="78.174202">
      <path
         style="fill:#99fff0"
         inkscape:connector-curvature="0"
         id="path34054"
         d="m -812.7,574.274 c 10.146,-64.939 26.602,-104.577 4.508,-190.929 -27.758,-46.496 -56.703,-43.457 -87.078,-80.682 -0.495,-22.531 -1.084,-43.114 -1.307,-67.185 -0.189,-19.007 -20.554,-20.558 -42.066,-20.037 l -0.015,-0.36 c -1.336,0.211 -2.763,0.363 -4.227,0.49 -4.539,0.153 -9.082,0.344 -13.446,0.443 -4.373,-0.018 -8.913,-0.131 -13.459,-0.199 -1.454,-0.109 -2.886,-0.228 -4.217,-0.42 l -0.002,0.359 c -21.543,-0.13 -41.868,1.786 -41.717,20.791 0.2,24.069 -0.02,44.646 -0.108,67.2 -29.692,37.765 -58.711,35.245 -85.63,82.208 -20.522,86.752 -3.358,126.063 7.947,190.824 8.601,86.446 -18.532,87.433 -11.085,247.499 0,70.591 79.621,86.599 150.748,86.599 71.128,0 156.661,-13.825 156.661,-89.344 4.583,-160.17 -22.563,-160.681 -15.507,-247.257 z" />
      <path
         style="fill:none;stroke:#231f20;stroke-width:12.37619972;stroke-linecap:round;stroke-linejoin:round;stroke-miterlimit:10"
         inkscape:connector-curvature="0"
         id="path34056"
         d="m -812.7,574.274 c 10.146,-64.939 26.602,-104.577 4.508,-190.929 -27.758,-46.496 -56.703,-43.457 -87.078,-80.682 -0.495,-22.531 -1.084,-43.114 -1.307,-67.185 -0.189,-19.007 -20.554,-20.558 -42.066,-20.037 l -0.015,-0.36 c -1.336,0.211 -2.763,0.363 -4.227,0.49 -4.539,0.153 -9.082,0.344 -13.446,0.443 -4.373,-0.018 -8.913,-0.131 -13.459,-0.199 -1.454,-0.109 -2.886,-0.228 -4.217,-0.42 l -0.002,0.359 c -21.54301,-0.13 -41.868,1.786 -41.717,20.791 0.2,24.069 -0.02,44.646 -0.108,67.2 -29.692,37.765 -58.711,35.245 -85.63,82.208 -20.522,86.752 -3.358,126.063 7.947,190.824 8.601,86.446 -18.532,87.433 -11.085,247.499 0,70.591 79.621,86.599 150.748,86.599 71.128,0 156.661,-13.825 156.661,-89.344 4.583,-160.17 -22.563,-160.681 -15.507,-247.257 z"
         stroke-miterlimit="10" />
      <g
         id="g34068">
        <path
           sodipodi:nodetypes="ccccccccc"
           style="fill:#00ff00"
           inkscape:connector-curvature="0"
           id="path34058"
           d="m -837.348,384.082 c -31.619,-40.601 -78.2371,-43.03539 -78.9711,-85.27959 -20.373,9.702 -55.83169,10.12307 -74.70649,0.65458 2.51514,40.51598 -60.30341,58.14501 -82.79741,94.81301 -24.739,48.75 -3.483,152.782 -3.483,152.782 l 52.343,112.71 h 108.306 l 89.50582,-114.13075 C -814.94849,449.75737 -826.144,398.471 -837.348,384.082 Z"
           enable-background="new    " />
        <path
           style="fill:#ff00ff"
           inkscape:connector-curvature="0"
           id="path34060"
           d="m -820.88,756.104 c -1.376,-49.433 -7.243,-73.229 -10.78,-97.233 -0.531,-3.659 -1.026,-7.339 -1.43,-11.102 0,0 -73.958,-34.182 -142.401,11.469 -33.215,22.154 -91.433,-10.369 -91.433,-10.369 -0.383,3.77 -0.812,7.455 -1.313,11.125 -3.287,24.03 -8.897,47.884 -9.752,97.326 0,0 41.325,-12.488 96.159,10.539 79.608,33.442 160.95,-11.755 160.95,-11.755 z"
           enable-background="new    " />
        <path
           sodipodi:nodetypes="ccccccccc"
           style="fill:#ffff00"
           inkscape:connector-curvature="0"
           id="path34062"
           d="m -975.491,659.238 c 68.443,-45.65 142.401,-11.469 142.401,-11.469 -1.444,-13.404 -4.13045,-27.12802 -2.46845,-47.10502 1.97427,-18.43653 3.23707,-36.39451 8.40727,-55.03273 0,0 -80.27482,45.19075 -156.94082,0.97175 -51.458,-29.68 -93.214,0.448 -93.214,0.448 2.896,17.06 6.808,34.067 10.1,53.824 1.872,19.968 1.573,34.592 0.282,47.993 0,10e-4 58.217,32.525 91.433,10.37 z"
           enable-background="new    " />
        <path
           style="fill:#ff0000"
           inkscape:connector-curvature="0"
           id="path34064"
           d="m -820.789,760.688 c -0.021,-1.521 -0.068,-3.097 -0.091,-4.583 0,0 -81.342,45.196 -160.95,11.755 -54.834,-23.027 -96.159,-10.539 -96.159,-10.539 -0.022,1.49 -0.028,3.061 -0.048,4.594 -0.153,14.498 0.073,31.016 0.876,50.343 0,54.962 81.585,67.332 128.852,67.332 52.44,0 127.179,-10.913 127.179,-68.535 0.168,-19.346 0.636,-35.867 0.341,-50.367 z" />
        <path
           sodipodi:nodetypes="cccccccc"
           inkscape:connector-curvature="0"
           id="path34066"
           d="m -1076.3567,555.27902 c -10.3621,-43.06973 -12.2393,-91.32796 -7.4717,-136.98188 55.4358,5.37324 64.2251,33.39801 115.81103,36.07229 39.3825,0.99621 116.22403,-42.9685 144.922,-34.17374 4.95727,38.71969 4.24473,68.49163 -4.05581,125.43556 -30.14345,18.31488 -56.93072,23.02524 -87.07417,22.01788 -43.58405,-0.12238 -62.11277,-21.5681 -109.48255,-32.90806 -20.6744,-4.59393 -33.3158,5.23157 -52.6488,20.53795 z"
           style="fill:#ff7400;fill-opacity:1;stroke:none;stroke-width:2.50594687px;stroke-linecap:butt;stroke-linejoin:miter;stroke-opacity:1" />
      </g>
      <path
         style="fill:#99fff0;stroke:#231f20;stroke-width:12.37530041;stroke-miterlimit:10"
         inkscape:connector-curvature="0"
         id="path34072"
         d="m -879.09219,260.434 -4.673,-67.715 c 0.526,-14.221 -26.441,-28.291 -69.154,-29.874 -42.711,-1.583 -71.47501,9.104 -72.00201,23.327 l -8.838,68.531 c -0.53,14.24 33.667,27.057 76.37701,28.633 42.711,1.59 77.761,-8.662 78.29,-22.902 z"
         stroke-miterlimit="10" />
      <path
         style="fill:#2479b3;fill-opacity:1;stroke:#231f20;stroke-width:12.37530041;stroke-miterlimit:10"
         inkscape:connector-curvature="0"
         id="path34074"
         d="m -879.33219,233.13 0.578,-69.009 c 0.117,-14.232 -34.43,-26.07 -77.171,-26.425 -42.73804,-0.36 -77.47701,10.896 -77.60001,25.124 l -0.578,69.01 c -0.121,14.25 34.42797,26.083 77.16501,26.434 42.743,0.367 77.485,-10.887 77.606,-25.134 z"
         stroke-miterlimit="10" />
      <ellipse
         ry="24.051786"
         rx="76.769691"
         cy="159.65742"
         cx="-956.91504"
         id="ellipse34076"
         style="opacity:1;fill:#3f9ad8;fill-opacity:1;stroke:#231f20;stroke-width:10.31424046;stroke-miterlimit:4;stroke-dasharray:none;stroke-opacity:1" />
      <path
         style="fill:#ffffff;stroke:none;stroke-width:4.89308786px;stroke-linecap:butt;stroke-linejoin:miter;stroke-opacity:1"
         d="m -913.01782,379.91309 c 3.84803,-13.08883 5.39506,-18.83785 31.11143,-15.28954 52.26913,36.18024 45.52477,62.94128 44.72866,108.82974 -2.06815,18.17759 -42.62226,14.44079 -43.14635,4.26596 5.76318,-43.65247 2.2307,-75.15256 -32.69374,-97.80616 z"
         id="path209956"
         inkscape:connector-curvature="0"
         sodipodi:nodetypes="ccccc" />
    </g>
    <g
       aria-label="Ani Himawati
18/15/2017

235g
"
       transform="matrix(0.2711422,0,0,0.25971935,-65.043531,110.89874)"
       style="font-style:normal;font-variant:normal;font-weight:normal;font-stretch:normal;font-size:40px;line-height:0px;font-family:'Roadshow IAIC 2013';-inkscape-font-specification:'Roadshow IAIC 2013, ';letter-spacing:0px;word-spacing:0px;fill:#000000;fill-opacity:1;stroke:none"
       id="flowRoot943-9-0-3-6">
      <path
         style="font-style:normal;font-variant:normal;font-weight:normal;font-stretch:normal;font-size:13.33333302px;line-height:16.84121895px;font-family:'Roadshow IAIC 2013';-inkscape-font-specification:'Roadshow IAIC 2013, ';text-align:center;text-anchor:middle"
         d="m 589.28776,138.36057 c 6.9295,-1.62763 5.38065,10.64938 -0.51974,8.00965 -3.50936,1.24699 1.28171,-6.8882 0.51974,-8.00965 z m 0.89844,4.76562 c 6.08554,-1.20129 -3.45435,-6.43609 0,0 z"
         id="path34703"
         inkscape:connector-curvature="0" />
      <path
         style="font-style:normal;font-variant:normal;font-weight:normal;font-stretch:normal;font-size:13.33333302px;line-height:16.84121895px;font-family:'Roadshow IAIC 2013';-inkscape-font-specification:'Roadshow IAIC 2013, ';text-align:center;text-anchor:middle"
         d="m 595.58984,139.99468 c 6.49227,-4.20619 4.75951,12.12881 2.34003,1.1979 -1.66681,7.36037 -5.12862,3.13124 -2.48846,-1.07247 z"
         id="path34705"
         inkscape:connector-curvature="0" />
      <path
         style="font-style:normal;font-variant:normal;font-weight:normal;font-stretch:normal;font-size:13.33333302px;line-height:16.84121895px;font-family:'Roadshow IAIC 2013';-inkscape-font-specification:'Roadshow IAIC 2013, ';text-align:center;text-anchor:middle"
         d="m 602.92708,140.30718 c 3.36099,8.96268 -6.18907,4.52466 0,0 z m -1.17187,-2.32421 c 5.42809,-1.68797 -1.57448,5.16529 0,0 z"
         id="path34707"
         inkscape:connector-curvature="0" />
      <path
         style="font-style:normal;font-variant:normal;font-weight:normal;font-stretch:normal;font-size:13.33333302px;line-height:16.84121895px;font-family:'Roadshow IAIC 2013';-inkscape-font-specification:'Roadshow IAIC 2013, ';text-align:center;text-anchor:middle"
         d="m 609.99088,136.77203 c 1.13265,7.02533 7.2631,-1.53384 3.91514,7.58625 -5.85353,6.43306 -5.50934,-4.36223 -3.91514,-7.58625 z"
         id="path34709"
         inkscape:connector-curvature="0" />
      <path
         style="font-style:normal;font-variant:normal;font-weight:normal;font-stretch:normal;font-size:13.33333302px;line-height:16.84121895px;font-family:'Roadshow IAIC 2013';-inkscape-font-specification:'Roadshow IAIC 2013, ';text-align:center;text-anchor:middle"
         d="m 616.98958,140.30718 c 3.36099,8.96268 -6.18907,4.52466 0,0 z m -1.17187,-2.32421 c 5.42809,-1.68797 -1.57448,5.16529 0,0 z"
         id="path34711"
         inkscape:connector-curvature="0" />
      <path
         style="font-style:normal;font-variant:normal;font-weight:normal;font-stretch:normal;font-size:13.33333302px;line-height:16.84121895px;font-family:'Roadshow IAIC 2013';-inkscape-font-specification:'Roadshow IAIC 2013, ';text-align:center;text-anchor:middle"
         d="m 619.40495,140.04026 c 5.87426,-5.3944 7.47444,11.10061 4.61943,1.95998 -3.20183,5.56566 -2.78939,-0.63551 -5.30158,3.9303 -0.92555,-1.70078 -1.23796,-4.75669 0.68215,-5.89028 z"
         id="path34713"
         inkscape:connector-curvature="0" />
      <path
         style="font-style:normal;font-variant:normal;font-weight:normal;font-stretch:normal;font-size:13.33333302px;line-height:16.84121895px;font-family:'Roadshow IAIC 2013';-inkscape-font-specification:'Roadshow IAIC 2013, ';text-align:center;text-anchor:middle"
         d="m 626.42969,140.91916 c 8.59158,-5.95355 -0.80278,14.01623 2.39594,1.40747 2.18322,-1.2791 -2.78977,-1.54831 -2.39594,-1.40747 z m 2.62369,3.09896 c -5.32883,-0.62205 2.49948,3.93315 0,0 z"
         id="path34715"
         inkscape:connector-curvature="0" />
      <path
         style="font-style:normal;font-variant:normal;font-weight:normal;font-stretch:normal;font-size:13.33333302px;line-height:16.84121895px;font-family:'Roadshow IAIC 2013';-inkscape-font-specification:'Roadshow IAIC 2013, ';text-align:center;text-anchor:middle"
         d="m 632.20443,140.04026 c -0.0465,8.01293 10.92583,-2.74566 4.0363,7.10769 -3.66458,1.6575 -6.77562,-4.70037 -4.0363,-7.10769 z"
         id="path34717"
         inkscape:connector-curvature="0" />
      <path
         style="font-style:normal;font-variant:normal;font-weight:normal;font-stretch:normal;font-size:13.33333302px;line-height:16.84121895px;font-family:'Roadshow IAIC 2013';-inkscape-font-specification:'Roadshow IAIC 2013, ';text-align:center;text-anchor:middle"
         d="m 639.42448,140.91916 c 8.59156,-5.95357 -0.80273,14.01623 2.39595,1.40746 2.18334,-1.27907 -2.78992,-1.5483 -2.39595,-1.40746 z m 2.6237,3.09896 c -5.32885,-0.62206 2.49947,3.93316 0,0 z"
         id="path34719"
         inkscape:connector-curvature="0" />
      <path
         style="font-style:normal;font-variant:normal;font-weight:normal;font-stretch:normal;font-size:13.33333302px;line-height:16.84121895px;font-family:'Roadshow IAIC 2013';-inkscape-font-specification:'Roadshow IAIC 2013, ';text-align:center;text-anchor:middle"
         d="m 645.51823,137.74208 c 5.20739,7.51387 -1.52837,13.15359 -1.27813,2.71109 z"
         id="path34721"
         inkscape:connector-curvature="0" />
      <path
         style="font-style:normal;font-variant:normal;font-weight:normal;font-stretch:normal;font-size:13.33333302px;line-height:16.84121895px;font-family:'Roadshow IAIC 2013';-inkscape-font-specification:'Roadshow IAIC 2013, ';text-align:center;text-anchor:middle"
         d="m 651.46875,140.30718 c 3.36077,8.96306 -6.18922,4.52422 0,0 z m -1.17188,-2.32421 c 5.42807,-1.68798 -1.57447,5.16529 0,0 z"
         id="path34723"
         inkscape:connector-curvature="0" />
      <path
         style="font-style:normal;font-variant:normal;font-weight:normal;font-stretch:normal;font-size:13.33333302px;line-height:16.84121895px;font-family:'Roadshow IAIC 2013';-inkscape-font-specification:'Roadshow IAIC 2013, ';text-align:center;text-anchor:middle"
         d="m 591.16927,154.32288 c 6.14191,7.11899 -4.53365,12.2573 0,0 z"
         id="path34725"
         inkscape:connector-curvature="0" />
      <path
         style="font-style:normal;font-variant:normal;font-weight:normal;font-stretch:normal;font-size:13.33333302px;line-height:16.84121895px;font-family:'Roadshow IAIC 2013';-inkscape-font-specification:'Roadshow IAIC 2013, ';text-align:center;text-anchor:middle"
         d="m 598.17448,154.22522 c 9.05273,12.25506 -12.06751,9.70745 -1.96395,-0.4273 z m -2.10286,1.1849 c -2.57578,6.58599 6.77804,-0.66972 0,0 z m 0.007,4.26432 c -4.66041,6.84186 8.80366,-0.71635 0,0 z"
         id="path34727"
         inkscape:connector-curvature="0" />
      <path
         style="font-style:normal;font-variant:normal;font-weight:normal;font-stretch:normal;font-size:13.33333302px;line-height:16.84121895px;font-family:'Roadshow IAIC 2013';-inkscape-font-specification:'Roadshow IAIC 2013, ';text-align:center;text-anchor:middle"
         d="m 605.10156,153.48304 c 1.42492,9.91499 -8.47657,11.22431 0,0 z"
         id="path34729"
         inkscape:connector-curvature="0" />
      <path
         style="font-style:normal;font-variant:normal;font-weight:normal;font-stretch:normal;font-size:13.33333302px;line-height:16.84121895px;font-family:'Roadshow IAIC 2013';-inkscape-font-specification:'Roadshow IAIC 2013, ';text-align:center;text-anchor:middle"
         d="m 607.78385,154.32288 c 6.14191,7.11898 -4.53363,12.25733 0,0 z"
         id="path34731"
         inkscape:connector-curvature="0" />
      <path
         style="font-style:normal;font-variant:normal;font-weight:normal;font-stretch:normal;font-size:13.33333302px;line-height:16.84121895px;font-family:'Roadshow IAIC 2013';-inkscape-font-specification:'Roadshow IAIC 2013, ';text-align:center;text-anchor:middle"
         d="m 617.19141,154.48564 c -10.61388,1.20013 3.73653,7.33577 -4.23053,8.23818 -0.34307,-2.13566 -7.27561,-9.83764 2.12549,-9.42088 z"
         id="path34733"
         inkscape:connector-curvature="0" />
      <path
         style="font-style:normal;font-variant:normal;font-weight:normal;font-stretch:normal;font-size:13.33333302px;line-height:16.84121895px;font-family:'Roadshow IAIC 2013';-inkscape-font-specification:'Roadshow IAIC 2013, ';text-align:center;text-anchor:middle"
         d="m 621.63802,153.48304 c 1.42506,9.91512 -8.4769,11.2242 0,0 z"
         id="path34735"
         inkscape:connector-curvature="0" />
      <path
         style="font-style:normal;font-variant:normal;font-weight:normal;font-stretch:normal;font-size:13.33333302px;line-height:16.84121895px;font-family:'Roadshow IAIC 2013';-inkscape-font-specification:'Roadshow IAIC 2013, ';text-align:center;text-anchor:middle"
         d="m 622.83594,156.66663 c 5.81951,-9.04753 8.57366,9.97449 2.83684,6.25817 -8.07494,-0.41139 9.35725,-7.63998 -2.83684,-6.25817 z"
         id="path34737"
         inkscape:connector-curvature="0" />
      <path
         style="font-style:normal;font-variant:normal;font-weight:normal;font-stretch:normal;font-size:13.33333302px;line-height:16.84121895px;font-family:'Roadshow IAIC 2013';-inkscape-font-specification:'Roadshow IAIC 2013, ';text-align:center;text-anchor:middle"
         d="m 634.69791,153.86715 c 11.81096,5.12778 -10.29428,15.67438 -3.82652,1.62693 0.72829,-1.27254 2.34697,-2.22566 3.82652,-1.62693 z m -0.7552,2.08333 c -8.98114,8.64788 10.73245,6.5005 0,0 z"
         id="path34739"
         inkscape:connector-curvature="0" />
      <path
         style="font-style:normal;font-variant:normal;font-weight:normal;font-stretch:normal;font-size:13.33333302px;line-height:16.84121895px;font-family:'Roadshow IAIC 2013';-inkscape-font-specification:'Roadshow IAIC 2013, ';text-align:center;text-anchor:middle"
         d="m 640.20573,154.32288 c 6.14188,7.11904 -4.53365,12.25726 0,0 z"
         id="path34741"
         inkscape:connector-curvature="0" />
      <path
         style="font-style:normal;font-variant:normal;font-weight:normal;font-stretch:normal;font-size:13.33333302px;line-height:16.84121895px;font-family:'Roadshow IAIC 2013';-inkscape-font-specification:'Roadshow IAIC 2013, ';text-align:center;text-anchor:middle"
         d="m 644.02083,153.74345 c 10.35976,-2.57172 -1.82576,15.64847 2.24356,2.67252 -3.11237,3.09516 -6.25122,-1.1666 -2.24356,-2.67252 z"
         id="path34743"
         inkscape:connector-curvature="0" />
      <path
         style="font-style:normal;font-variant:normal;font-weight:normal;font-stretch:normal;font-size:19.69733238px;line-height:16.84121895px;font-family:'Roadshow IAIC 2013';-inkscape-font-specification:'Roadshow IAIC 2013, ';text-align:center;text-anchor:middle"
         d="m 598.92308,171.75643 c 2.28787,-12.93012 18.32874,5.72076 4.87922,6.4335 13.81025,5.55128 -12.45981,5.36112 -0.0904,-2.8448 6.24388,-6.85934 -3.62764,-1.61055 -4.78882,-3.5887 z"
         id="path34745"
         inkscape:connector-curvature="0" />
      <path
         style="font-style:normal;font-variant:normal;font-weight:normal;font-stretch:normal;font-size:19.69733238px;line-height:16.84121895px;font-family:'Roadshow IAIC 2013';-inkscape-font-specification:'Roadshow IAIC 2013, ';text-align:center;text-anchor:middle"
         d="m 612.12837,168.0151 c 10.93122,-1.11912 4.76987,20.9553 -0.19132,11.26257 9.07086,-0.0962 -3.36103,-8.47314 0.47242,-7.81882 -2.91875,1.01089 -2.94609,-3.38763 -0.2811,-3.44375 z"
         id="path34747"
         inkscape:connector-curvature="0" />
      <path
         style="font-style:normal;font-variant:normal;font-weight:normal;font-stretch:normal;font-size:19.69733238px;line-height:16.84121895px;font-family:'Roadshow IAIC 2013';-inkscape-font-specification:'Roadshow IAIC 2013, ';text-align:center;text-anchor:middle"
         d="m 630.28685,168.53446 c -2.67532,3.11064 -14.4749,3.48906 -3.31341,5.4206 6.56251,5.38936 -7.87501,12.00199 -0.95962,3.57641 -13.78178,-1.36521 -4.38182,-15.85567 4.27303,-8.99701 z"
         id="path34749"
         inkscape:connector-curvature="0" />
      <path
         style="font-style:normal;font-variant:normal;font-weight:normal;font-stretch:normal;font-size:19.69733238px;line-height:16.84121895px;font-family:'Roadshow IAIC 2013';-inkscape-font-specification:'Roadshow IAIC 2013, ';text-align:center;text-anchor:middle"
         d="m 638.25042,172.08344 c 9.49394,4.71421 -5.07709,20.37739 -3.64557,10.29971 -8.81893,-2.28055 -3.26068,-13.07457 3.64557,-10.29971 z m -1.00025,3.01038 c -10.29195,-0.38446 4.43051,11.87642 0,0 z"
         id="path34751"
         inkscape:connector-curvature="0" />
    </g>
    <g
       aria-label="A1234





"
       transform="matrix(0,-0.36127145,0.35369709,0,52.929685,353.52491)"
       style="font-style:normal;font-variant:normal;font-weight:normal;font-stretch:normal;font-size:40px;line-height:0px;font-family:'Roadshow IAIC 2013';-inkscape-font-specification:'Roadshow IAIC 2013, ';letter-spacing:0px;word-spacing:0px;opacity:0.9;fill:#000000;fill-opacity:1;stroke:none"
       id="flowRoot943-9-0-5-1">
      <path
         style="font-style:normal;font-variant:normal;font-weight:normal;font-stretch:normal;font-size:27.23143768px;line-height:15px;font-family:'Roadshow IAIC 2013';-inkscape-font-specification:'Roadshow IAIC 2013, ';text-align:center;text-anchor:middle"
         d="m 591.10168,132.08822 c 7.09041,-8.56673 12.55778,14.28443 8.00893,15.56602 -3.8066,-6.35115 -7.97803,-0.98635 -11.04198,0.60378 -0.3685,-5.51519 2.06905,-10.81044 3.03305,-16.1698 z m 1.83493,9.73312 c 8.86142,1.84026 -1.65686,-14.98487 -0.56076,-1.82882 l 0.049,1.00014 z"
         id="path34692"
         inkscape:connector-curvature="0" />
      <path
         style="font-style:normal;font-variant:normal;font-weight:normal;font-stretch:normal;font-size:27.23143768px;line-height:15px;font-family:'Roadshow IAIC 2013';-inkscape-font-specification:'Roadshow IAIC 2013, ';text-align:center;text-anchor:middle"
         d="m 605.103,130.29318 c 7.57641,-0.4204 1.94222,21.72893 -0.93378,16.77023 2.69103,-5.92228 -3.88826,-13.14401 0.93378,-16.77023 z"
         id="path34694"
         inkscape:connector-curvature="0" />
      <path
         style="font-style:normal;font-variant:normal;font-weight:normal;font-stretch:normal;font-size:27.23143768px;line-height:15px;font-family:'Roadshow IAIC 2013';-inkscape-font-specification:'Roadshow IAIC 2013, ';text-align:center;text-anchor:middle"
         d="m 609.7834,135.07996 c -0.13022,-12.79824 22.21401,-4.89378 12.4856,4.89151 -4.88844,3.61918 -7.41249,5.45134 -0.25245,6.15457 1.2434,8.93569 -20.92871,-0.26011 -6.8624,-3.90911 8.1726,-3.18383 1.94314,-13.14455 -2.31101,-5.07257 -1.46374,0.8106 -3.10154,-0.48753 -3.05974,-2.0644 z"
         id="path34696"
         inkscape:connector-curvature="0" />
      <path
         style="font-style:normal;font-variant:normal;font-weight:normal;font-stretch:normal;font-size:27.23143768px;line-height:15px;font-family:'Roadshow IAIC 2013';-inkscape-font-specification:'Roadshow IAIC 2013, ';text-align:center;text-anchor:middle"
         d="m 628.03963,129.90758 c 8.84862,-2.99534 5.17726,9.04937 9.9119,12.34934 1.47822,8.0988 -16.02281,9.14814 -10.44469,2.65762 8.84593,2.13795 6.6931,-6.61226 -0.4384,-6.75053 5.34152,-4.85055 1.78618,-2.98023 -1.92762,-5.99607 0.13128,-1.94178 1.69988,-1.8392 2.89881,-2.26036 z"
         id="path34698"
         inkscape:connector-curvature="0" />
      <path
         style="font-style:normal;font-variant:normal;font-weight:normal;font-stretch:normal;font-size:27.23143768px;line-height:15px;font-family:'Roadshow IAIC 2013';-inkscape-font-specification:'Roadshow IAIC 2013, ';text-align:center;text-anchor:middle"
         d="m 642.45315,129.4555 c -1.71359,5.01194 1.6033,16.01165 4.46532,5.96805 9.19871,-6.45477 1.59875,22.7584 -1.89954,9.54753 -8.08979,-0.90002 -9.07771,-13.37914 -2.56578,-15.51558 z"
         id="path34700"
         inkscape:connector-curvature="0" />
    </g>
    <path
       style="fill:#4b4b8e;fill-opacity:1;stroke:#000000;stroke-width:0.15843682px;stroke-linecap:butt;stroke-linejoin:miter;stroke-opacity:1"
       d="m 130.22207,154.06425 3.44203,-0.0675 -0.2407,-2.16744 -3.1062,0.10734 z"
       id="path17682"
       inkscape:connector-curvature="0"
       sodipodi:nodetypes="ccccc" />
    <path
       style="fill:#a05a2c;stroke:#000000;stroke-width:0.26458332px;stroke-linecap:butt;stroke-linejoin:miter;stroke-opacity:1"
       d="m 148.33309,182.76009 -46.96693,6.21932 c -0.0341,0.69519 -0.14634,2.04404 0.63491,2.87076 l 46.45181,-7.73819 c 2.80409,-0.85013 2.63168,-1.28215 -0.11979,-1.35189 z"
       id="path17684"
       inkscape:connector-curvature="0"
       sodipodi:nodetypes="ccccc" />
    <path
       style="fill:#333333;stroke:#000000;stroke-width:0.26458332px;stroke-linecap:butt;stroke-linejoin:miter;stroke-opacity:1"
       d="m 101.20004,189.54379 c -1.09842,-0.12432 -2.183165,-0.34808 -3.379985,0.24313 0,0 -2.38473,1.59202 -3.51149,1.65428 -1.12676,0.0623 -3.84064,-0.32769 -1.24547,0.22228 2.23181,0.63233 5.04047,1.69807 6.27345,0.8495 l 2.154405,-1.2237"
       id="path17686"
       inkscape:connector-curvature="0"
       sodipodi:nodetypes="ccsccc" />
    <rect
       style="opacity:0.9;fill:#7a7ac4;fill-opacity:1;stroke:none;stroke-width:0.62799996;stroke-miterlimit:10;stroke-dasharray:none;stroke-opacity:1"
       id="rect17694"
       width="6.4524789"
       height="4.3392215"
       x="128.98087"
       y="157.1738"
       ry="0.64805752" />
    <text
       xml:space="preserve"
       style="font-style:normal;font-weight:normal;font-size:2.32577658px;line-height:1.25;font-family:sans-serif;letter-spacing:0px;word-spacing:0px;fill:#4b4b8e;fill-opacity:1;stroke:#4b4b8e;stroke-width:0.05814441;stroke-opacity:1"
       x="129.89081"
       y="159.2366"
       id="text17698"><tspan
         sodipodi:role="line"
         id="tspan17696"
         x="129.89081"
         y="159.2366"
         style="font-style:normal;font-variant:normal;font-weight:normal;font-stretch:normal;line-height:0;font-family:'Roadshow IAIC 2013';-inkscape-font-specification:'Roadshow IAIC 2013, ';letter-spacing:-0.01322917px;fill:#4b4b8e;fill-opacity:1;stroke:#4b4b8e;stroke-width:0.05814441;stroke-opacity:1">perm.</tspan><tspan
         sodipodi:role="line"
         x="129.89081"
         y="162.14383"
         style="font-style:normal;font-variant:normal;font-weight:normal;font-stretch:normal;line-height:0;font-family:'Roadshow IAIC 2013';-inkscape-font-specification:'Roadshow IAIC 2013, ';letter-spacing:-0.01322917px;fill:#4b4b8e;fill-opacity:1;stroke:#4b4b8e;stroke-width:0.05814441;stroke-opacity:1"
         id="tspan17700" /></text>
    <text
       id="text17706"
       y="160.88898"
       x="130.53322"
       style="font-style:normal;font-weight:normal;font-size:1.85874152px;line-height:1.25;font-family:sans-serif;letter-spacing:0px;word-spacing:0px;fill:#4b4b8e;fill-opacity:1;stroke:#4b4b8e;stroke-width:0.04646853;stroke-opacity:1"
       xml:space="preserve"><tspan
         style="font-style:normal;font-variant:normal;font-weight:normal;font-stretch:normal;line-height:0;font-family:'Roadshow IAIC 2013';-inkscape-font-specification:'Roadshow IAIC 2013, ';letter-spacing:-0.01057264px;fill:#4b4b8e;fill-opacity:1;stroke:#4b4b8e;stroke-width:0.04646853;stroke-opacity:1"
         y="160.88898"
         x="130.53322"
         id="tspan17702"
         sodipodi:role="line">paint</tspan><tspan
         id="tspan17704"
         style="font-style:normal;font-variant:normal;font-weight:normal;font-stretch:normal;line-height:0;font-family:'Roadshow IAIC 2013';-inkscape-font-specification:'Roadshow IAIC 2013, ';letter-spacing:-0.01057264px;fill:#4b4b8e;fill-opacity:1;stroke:#4b4b8e;stroke-width:0.04646853;stroke-opacity:1"
         y="163.2124"
         x="130.53322"
         sodipodi:role="line" /></text>
  </g>
</svg>
