<svg id="eg2ylr45yam1" xmlns="http://www.w3.org/2000/svg" xmlns:xlink="http://www.w3.org/1999/xlink" viewBox="0 0 68.787918 155.536550" shape-rendering="geometricPrecision" text-rendering="geometricPrecision" width="68.787918" height="155.536550"><style><![CDATA[#eg2ylr45yam10 {animation: eg2ylr45yam10_f_o 4000ms linear infinite normal forwards}@keyframes eg2ylr45yam10_f_o { 0% {fill-opacity: 0} 62.500000% {fill-opacity: 0} 65% {fill-opacity: 1} 100% {fill-opacity: 1} }#eg2ylr45yam11 {animation: eg2ylr45yam11_c_o 4000ms linear infinite normal forwards}@keyframes eg2ylr45yam11_c_o { 0% {opacity: 0} 25% {opacity: 0} 27.500000% {opacity: 1} 100% {opacity: 1} }#eg2ylr45yam12 {animation: eg2ylr45yam12_f_o 4000ms linear infinite normal forwards}@keyframes eg2ylr45yam12_f_o { 0% {fill-opacity: 0} 37.500000% {fill-opacity: 0} 40% {fill-opacity: 1} 100% {fill-opacity: 1} }#eg2ylr45yam13 {animation: eg2ylr45yam13_c_o 4000ms linear infinite normal forwards}@keyframes eg2ylr45yam13_c_o { 0% {opacity: 0} 12.500000% {opacity: 0} 15% {opacity: 1} 100% {opacity: 1} }#eg2ylr45yam14 {animation: eg2ylr45yam14_f_o 4000ms linear infinite normal forwards}@keyframes eg2ylr45yam14_f_o { 0% {fill-opacity: 0} 50% {fill-opacity: 0} 52.500000% {fill-opacity: 1} 100% {fill-opacity: 1} }#eg2ylr45yam15 {animation: eg2ylr45yam15_c_o 4000ms linear infinite normal forwards}@keyframes eg2ylr45yam15_c_o { 0% {opacity: 0} 80% {opacity: 0} 82.500000% {opacity: 1} 100% {opacity: 1} }#eg2ylr45yam19 {animation: eg2ylr45yam19_c_o 4000ms linear infinite normal forwards}@keyframes eg2ylr45yam19_c_o { 0% {opacity: 1} 100% {opacity: 0.820000} }]]></style><defs><linearGradient id="eg2ylr45yam9-fill" x1="105.266266" y1="81.062635" x2="105.189892" y2="69.829861" spreadMethod="pad" gradientUnits="userSpaceOnUse"><stop id="eg2ylr45yam9-fill-0" offset="0%" stop-color="rgb(35,190,168)"/><stop id="eg2ylr45yam9-fill-1" offset="100%" stop-color="rgba(209,244,244,0.979695)"/></linearGradient></defs><g id="eg2ylr45yam2" transform="matrix(1 0 0 1 -71.43569946289063 -69.84116363525391)"><g id="eg2ylr45yam3"><g id="eg2ylr45yam4" transform="matrix(0.81405949592590 0 0 0.81405949592590 -70.80813598632813 49.61965942382813)"><path id="eg2ylr45yam5" d="M210.182900,214.346690C195.496530,213.211900,186.188380,209.233310,181.819130,202.223140C179.555840,198.591840,179.105200,196.306260,178.727320,186.541880C178.248810,174.177500,178.649320,165.387270,180.127770,155.803570C181.670450,145.803700,181.568780,141.450520,179.544370,130.823920C177.210580,118.573290,176.608550,114.246160,176.257660,107.200750C175.918520,100.391260,176.415290,93.547968,177.755480,86.567299C178.406930,83.174067,178.786020,82.334566,181.038980,79.296011C183.559000,75.897258,185.699040,74.006256,192.841420,68.867054C194.140700,67.932177,196.301640,66.079640,197.643530,64.750305L200.083320,62.333328L200.083320,53.539857C200.083320,47.456430,200.165620,44.471835,200.350220,43.855534C200.735090,42.570954,202.124520,41.103069,203.526410,40.499991C205.584820,39.614486,207.946070,39.341963,214.495090,39.234043C222.857620,39.096237,224.214170,39.123086,226.196240,39.465634C229.178130,39.980972,231.281080,41.454093,231.877640,43.445458C232.008520,43.882350,232.219620,48.120773,232.346750,52.864176L232.577890,61.488544L233.657130,62.736808C235.082750,64.385696,237.797640,66.773652,242.083920,70.148824C247.127130,74.120028,249.798610,76.863796,252.332800,80.675047C253.386000,82.258999,253.710260,82.993275,254.183150,84.865121C256.734710,94.965072,257.237480,106.422100,255.672130,118.795200C255.427350,120.730010,254.710980,125.530150,254.080190,129.462180C253.054940,135.853120,252.919600,137.116800,252.804100,141.377430C252.606620,148.662180,252.986940,151.953330,255.098910,161.236170C257.031150,169.729050,257.729080,176.573520,257.801130,187.736330C257.839130,193.620060,257.808130,194.164950,257.323500,196.074080C255.832240,201.951600,252.205090,206.253130,246.148350,209.327000C241.576720,211.647170,235.559930,213.236880,228.452950,214.002360C224.585820,214.418880,213.758210,214.622940,210.182900,214.346690Z" fill="rgb(153,255,240)" stroke="rgb(0,0,0)" stroke-width="2.841320"/></g><path id="eg2ylr45yam6" d="M120.325400,91.892240L120.829630,78.268947C121.482450,75.332542,117.400550,72.358077,106.496730,72.614366C98.059406,72.301606,90.379989,74.327126,90.275908,77.136879L89.771682,90.760183C89.666995,93.573393,96.422071,96.104864,104.859370,96.416490C113.297250,96.730424,120.221320,94.704883,120.325400,91.892240Z" fill="rgb(153,255,240)" stroke="rgb(35,31,32)" stroke-width="2.145000" stroke-miterlimit="10"/><path id="eg2ylr45yam7" d="M89.899068,81.003553C89.899068,81.003553,98.768740,89.852524,120.282570,86.727122" fill="none" stroke="rgb(35,31,32)" stroke-width="1.149890" stroke-miterlimit="10"/><path id="eg2ylr45yam8" d="M89.879203,87.853262C89.879203,87.853262,96.594549,93.914912,120.325400,91.892240" fill="none" stroke="rgb(35,31,32)" stroke-width="1.149890" stroke-miterlimit="10"/><path id="eg2ylr45yam9" d="M105.608740,79.844722C108.898091,79.752790,112.036557,79.336927,114.333713,78.688618C116.630868,78.040309,117.898542,77.212660,117.857860,76.387744C117.817178,75.562828,116.471471,74.808219,114.116781,74.289921C111.762091,73.771624,108.591302,73.532094,105.301950,73.624027C98.452239,73.815468,92.968134,75.363209,93.052851,77.081005C93.137569,78.798801,98.759029,80.036158,105.608740,79.844722Z" fill="url(#eg2ylr45yam9-fill)" stroke="rgb(35,31,32)" stroke-width="1.069240" stroke-miterlimit="10"/></g><path id="eg2ylr45yam10" d="M129.014830,116.356630C122.413330,107.998880,115.927450,107.703070,113.164160,99.197596C108.961600,101.234460,101.482010,101.513740,97.562277,99.581007C96.203265,108.387740,84.692206,111.180550,80.089024,118.801240C75.038393,128.925580,79.585354,150.425570,79.585354,150.425570L78.052483,123.788050L101.890190,133.051580L132.015850,123.810370C131.539750,119.620610,131.354040,119.318610,129.014830,116.356630Z" fill="rgb(255,0,255)" fill-opacity="0" stroke="none" stroke-width="0.206962"/><path id="eg2ylr45yam11" d="M132.951800,193.325980C132.596760,183.097400,131.348720,178.180980,130.582590,173.218200C130.467500,172.461700,130.359810,171.700790,130.270850,170.922590C130.270850,170.922590,114.916100,163.953490,100.816190,173.498590C93.973593,178.130740,81.878710,171.482610,81.878710,171.482610C80.882177,179.936860,79.832448,187.686010,79.742873,193.943090C79.742873,193.943090,88.277642,191.299870,99.658685,195.987540C116.181690,202.795460,132.951800,193.325980,132.951800,193.325980Z" opacity="0" fill="rgb(255,241,0)" stroke="none" stroke-width="0.206962"/><path id="eg2ylr45yam12" d="M100.816190,173.498590C114.916110,163.953700,130.270850,170.922590,130.270850,170.922590C129.952960,168.150580,129.377470,165.314110,129.693040,161.177360C130.075420,157.358970,130.311240,153.640630,131.354770,149.775960C131.354770,149.775960,114.805520,159.242640,98.876056,150.200150C88.184248,144.130800,79.585351,150.425360,79.585351,150.425360C80.208952,153.951940,81.042741,157.466110,81.752130,161.550280C82.167935,165.680150,82.126841,168.707130,81.878712,171.482400C83.201629,172.805530,93.973390,178.130940,100.816200,173.498590Z" fill="rgb(0,242,0)" fill-opacity="0" stroke="none" stroke-width="0.206962"/><path id="eg2ylr45yam13" d="M132.977150,194.274540C132.971150,193.959790,132.958650,193.633690,132.951650,193.326180C132.951650,193.326180,116.181540,202.795460,99.658535,195.987740C88.277495,191.300070,79.742723,193.943300,79.742723,193.943300C79.740323,194.251700,79.741323,194.576840,79.739223,194.894130C79.728233,197.894820,79.798423,201.313030,79.992066,205.311750C80.070196,216.686550,96.972404,219.130650,106.754660,219.063470C117.607520,218.988970,133.059810,216.624170,132.977900,204.698860Z" opacity="0" fill="rgb(255,0,0)" fill-rule="evenodd" stroke="none" stroke-width="0.206962"/><path id="eg2ylr45yam14" d="M79.793514,152.126860C77.587779,143.227990,77.130684,133.243250,78.052483,123.788050C89.532977,124.821290,91.391824,130.608730,102.071720,131.088870C110.223640,131.239070,126.064090,122.031020,132.015850,123.810370C133.096830,131.816650,132.991690,137.979190,131.354770,149.775960C125.142380,153.609210,119.605250,154.622140,113.365400,154.456500C104.345180,154.493100,100.480040,150.081100,90.660388,147.801550C86.375134,146.880190,83.772867,148.931610,79.793514,152.126860Z" fill="rgb(0,214,255)" fill-opacity="0" stroke="none" stroke-width="0.518637"/><g id="eg2ylr45yam15" transform="matrix(0.20695754885674 -0.00142139999662 0.00142139999662 0.20695754885674 302.70108032226563 41.48496627807617)" opacity="0"><g id="eg2ylr45yam16"><path id="eg2ylr45yam17" d="M-879.332190,233.130000L-878.754190,164.121000C-878.637190,149.889000,-913.184190,138.051000,-955.925190,137.696000C-998.663230,137.336000,-1033.402200,148.592000,-1033.525200,162.820000L-1034.103200,231.830000C-1034.224200,246.080000,-999.675230,257.913000,-956.938190,258.264000C-914.195190,258.631000,-879.453190,247.377000,-879.332190,233.130000Z" fill="rgb(36,121,179)" stroke="rgb(35,31,32)" stroke-width="12.375300" stroke-miterlimit="10"/></g><ellipse id="eg2ylr45yam18" rx="76.769700" ry="24.051800" transform="matrix(1 0 0 1 -956.91499999999996 159.65700000000001)" fill="rgb(63,154,216)" stroke="rgb(35,31,32)" stroke-width="10.314200"/></g><path id="eg2ylr45yam19" d="M113.348460,115.601390C114.126240,112.887090,114.438230,111.695090,119.765470,112.392890C130.634390,119.806360,129.276630,125.354350,129.177100,134.852440C128.774920,138.617370,120.376620,137.901660,120.253700,135.796640C121.384380,126.754250,120.608540,120.240090,113.348460,115.601390Z" fill="rgb(255,255,255)" stroke="none" stroke-width="1.012690"/></g></svg>