<?xml version="1.0" encoding="UTF-8" standalone="no"?>
<!-- Created with Inkscape (http://www.inkscape.org/) -->

<svg
   width="126.50786mm"
   height="126.50786mm"
   viewBox="0 0 126.50786 126.50786"
   version="1.1"
   id="svg139116"
   inkscape:export-filename="gobrik-favicon-1000px.png"
   inkscape:export-xdpi="200.78"
   inkscape:export-ydpi="200.78"
   inkscape:version="1.2.2 (b0a8486541, 2022-12-01)"
   sodipodi:docname="bottle-loader-night.svg"
   xmlns:inkscape="http://www.inkscape.org/namespaces/inkscape"
   xmlns:sodipodi="http://sodipodi.sourceforge.net/DTD/sodipodi-0.dtd"
   xmlns="http://www.w3.org/2000/svg"
   xmlns:svg="http://www.w3.org/2000/svg">
  <sodipodi:namedview
     id="namedview139118"
     pagecolor="#ffffff"
     bordercolor="#000000"
     borderopacity="0.25"
     inkscape:showpageshadow="2"
     inkscape:pageopacity="0.0"
     inkscape:pagecheckerboard="0"
     inkscape:deskcolor="#d1d1d1"
     inkscape:document-units="mm"
     showgrid="false"
     inkscape:zoom="0.5946522"
     inkscape:cx="257.29325"
     inkscape:cy="391.82567"
     inkscape:window-width="1503"
     inkscape:window-height="934"
     inkscape:window-x="0"
     inkscape:window-y="0"
     inkscape:window-maximized="1"
     inkscape:current-layer="g646" />
  <defs
     id="defs139113">
    <clipPath
       id="clipPath6603-6">
      <path
         transform="matrix(0.38984,-0.0015378,0.0015378,0.38984,-191.48,-165.47)"
         d="m 638.86,565.08 -22.197,-0.0302 -0.56345,14.49 3.0937,-0.003 c -0.0212,1.8291 -0.0475,3.627 -0.072,5.4948 -4.3123,5.3811 -8.475,4.9838 -12.401,11.695 -3.0607,12.43 -0.64511,18.1 0.89325,27.415 1.1251,12.423 -2.7724,12.529 -1.908,35.529 -0.0464,4.8162 4.2193,9.865 9.1615,9.7536 l 9.3328,-9.4e-4 v 10e-4 l 16.495,-6.7e-4 c 4.9422,0.11143 9.2079,-4.9365 9.1615,-9.7526 0.86445,-23 -3.0338,-23.107 -1.9088,-35.531 1.5384,-9.3143 3.9534,-14.985 0.89275,-27.415 -3.9264,-6.7113 -8.0891,-6.314 -12.401,-11.695 -0.0246,-1.8743 -0.0507,-3.679 -0.0719,-5.515 l 2.8867,-0.004 -0.39342,-14.432 z"
         fill="#ffffff"
         filter="url(#filter4530-5-2)"
         stroke="#000000"
         stroke-linecap="round"
         stroke-linejoin="round"
         stroke-width="3.37"
         id="path605" />
    </clipPath>
  </defs>
  <g
     inkscape:label="Layer 1"
     inkscape:groupmode="layer"
     id="layer1"
     transform="translate(-40.679379,-54.531818)">
    <g
       transform="matrix(0.65617909,-0.56514518,0.56519201,0.65692977,307.99665,-674.2268)"
       id="g648">
      <g
         transform="matrix(1.9274973,1.6497432,-1.6498619,1.9252985,-755.44001,304.29311)"
         clip-path="url(#clipPath6603-6)"
         fill-rule="evenodd"
         id="g638">
        <path
           d="m 45.708,66.816 0.43519,-9.7918 c 8.7427,-10.184 13.385,-2.9161 16.32,0.2176 l 0.2176,9.3566 c -6.9137,3.8778 -11.353,0.2398 -16.972,0.21759 z"
           fill="#ff00ff"
           id="path628"
           style="fill:#00d0d0;fill-opacity:1" />
        <path
           d="m 45.578,74.494 0.43519,-9.7918 c 8.0577,-1.7312 10.172,3.8557 16.32,0.2176 l 0.2176,9.3566 z"
           fill="#00d6ff"
           id="path630"
           style="fill:#00b300;fill-opacity:1" />
        <path
           d="m 46.156,80.201 -0.12695,-8.7097 c 2.5623,-3.0488 10.077,6.2534 16.882,-0.8645 l 0.2176,9.3566 c -5.8463,0.63489 -12.788,4.5331 -16.972,0.21759 z"
           fill="#00f200"
           id="path632"
           style="fill:#c6c600;fill-opacity:1" />
        <path
           d="m 45.926,89.701 0.43519,-9.7918 c 7.9476,3.6455 11.478,-3.8916 16.32,0.2176 l 0.2176,9.3566 z"
           fill="#fff100"
           id="path634"
           style="fill:#a50000;fill-opacity:1" />
        <path
           d="m 45.919,96.017 0.43553,-8.935 c 8.0493,0.61277 11.765,4.5126 16.332,0.19856 l 0.21776,8.5379 z"
           fill="#ff0000"
           id="path636"
           style="fill:#a600a6;fill-opacity:1" />
      </g>
      <g
         stroke="#000000"
         stroke-linecap="round"
         stroke-linejoin="round"
         id="g646">
        <path
           d="m -742.38507,503.98953 c -3.16606,-1.9508 -7.49544,-8.11765 -10.27326,-4.85611 -2.21607,2.60234 -4.1521,4.79085 -6.2585,7.2043 -6.69628,1.2918 -9.58062,-1.67193 -16.83771,0.86902 -10.26522,7.40133 -12.07442,13.21746 -16.87796,21.21706 -7.10538,10.07615 -10.11229,7.66126 -24.18551,25.53577 -3.11818,3.59741 -2.09516,9.24814 0.66304,13.21011"
           fill-opacity="0"
           stroke-width="3.33207"
           id="path640" />
        <path
           d="m -746.2136,500.74095 c 2.43777,2.80734 9.22662,6.08087 6.45482,9.34764 -2.21169,2.60597 -4.06024,4.86881 -6.103,7.3366 -0.19379,6.81299 3.19881,9.17904 1.86234,16.74637 -5.65025,11.32026 -11.10097,14.04397 -18.22415,20.07386 -8.80192,8.63578 -5.93129,11.21103 -21.30823,27.97901 -3.04854,3.65653 -7.3468,3.90216 -13.15118,1.48009 -3.3966,-1.91519 -11.0776,-5.60431 -19.47272,-16.53417"
           fill="none"
           stroke-width="3.33207"
           id="path642" />
        <path
           d="m -747.97908,489.72027 c 8.27833,4.14531 12.59342,9.16729 16.71592,14.23193 l -8.94302,11.12171 c -6.0198,-3.491 -11.88502,-8.12839 -17.47449,-14.80234 z"
           fill="#2479b3"
           fill-rule="evenodd"
           stroke-width="2.57161"
           id="path644"
           style="fill:#1e6595;fill-opacity:1" />
      </g>
    </g>
  </g>
</svg>
