<?xml version="1.0" encoding="UTF-8" standalone="no"?>
<!-- Created with Inkscape (http://www.inkscape.org/) -->

<svg
   width="126.50786mm"
   height="126.50786mm"
   viewBox="0 0 126.50786 126.50786"
   version="1.1"
   id="svg139116"
   inkscape:export-filename="gobrik-favicon-1000px.png"
   inkscape:export-xdpi="200.78"
   inkscape:export-ydpi="200.78"
   inkscape:version="1.2.2 (b0a8486541, 2022-12-01)"
   sodipodi:docname="bottle-loader-night.svg"
   xmlns:inkscape="http://www.inkscape.org/namespaces/inkscape"
   xmlns:sodipodi="http://sodipodi.sourceforge.net/DTD/sodipodi-0.dtd"
   xmlns="http://www.w3.org/2000/svg"
   xmlns:svg="http://www.w3.org/2000/svg">
  <sodipodi:namedview
     id="namedview139118"
     pagecolor="#ffffff"
     bordercolor="#000000"
     borderopacity="0.25"
     inkscape:showpageshadow="2"
     inkscape:pageopacity="0.0"
     inkscape:pagecheckerboard="0"
     inkscape:deskcolor="#d1d1d1"
     inkscape:document-units="mm"
     showgrid="false"
     inkscape:zoom="1.1893044"
     inkscape:cx="242.99919"
     inkscape:cy="242.15836"
     inkscape:window-width="1503"
     inkscape:window-height="934"
     inkscape:window-x="0"
     inkscape:window-y="0"
     inkscape:window-maximized="1"
     inkscape:current-layer="g648" />
  <defs
     id="defs139113">
    <clipPath
       id="clipPath6603-6">
      <path
         transform="matrix(0.38984,-0.0015378,0.0015378,0.38984,-191.48,-165.47)"
         d="m 638.86,565.08 -22.197,-0.0302 -0.56345,14.49 3.0937,-0.003 c -0.0212,1.8291 -0.0475,3.627 -0.072,5.4948 -4.3123,5.3811 -8.475,4.9838 -12.401,11.695 -3.0607,12.43 -0.64511,18.1 0.89325,27.415 1.1251,12.423 -2.7724,12.529 -1.908,35.529 -0.0464,4.8162 4.2193,9.865 9.1615,9.7536 l 9.3328,-9.4e-4 v 10e-4 l 16.495,-6.7e-4 c 4.9422,0.11143 9.2079,-4.9365 9.1615,-9.7526 0.86445,-23 -3.0338,-23.107 -1.9088,-35.531 1.5384,-9.3143 3.9534,-14.985 0.89275,-27.415 -3.9264,-6.7113 -8.0891,-6.314 -12.401,-11.695 -0.0246,-1.8743 -0.0507,-3.679 -0.0719,-5.515 l 2.8867,-0.004 -0.39342,-14.432 z"
         fill="#ffffff"
         filter="url(#filter4530-5-2)"
         stroke="#000000"
         stroke-linecap="round"
         stroke-linejoin="round"
         stroke-width="3.37"
         id="path605" />
    </clipPath>
    <clipPath
       id="clipPath6603-6-6">
      <path
         transform="matrix(0.38984,-0.0015378,0.0015378,0.38984,-191.48,-165.47)"
         d="m 638.86,565.08 -22.197,-0.0302 -0.56345,14.49 3.0937,-0.003 c -0.0212,1.8291 -0.0475,3.627 -0.072,5.4948 -4.3123,5.3811 -8.475,4.9838 -12.401,11.695 -3.0607,12.43 -0.64511,18.1 0.89325,27.415 1.1251,12.423 -2.7724,12.529 -1.908,35.529 -0.0464,4.8162 4.2193,9.865 9.1615,9.7536 l 9.3328,-9.4e-4 v 10e-4 l 16.495,-6.7e-4 c 4.9422,0.11143 9.2079,-4.9365 9.1615,-9.7526 0.86445,-23 -3.0338,-23.107 -1.9088,-35.531 1.5384,-9.3143 3.9534,-14.985 0.89275,-27.415 -3.9264,-6.7113 -8.0891,-6.314 -12.401,-11.695 -0.0246,-1.8743 -0.0507,-3.679 -0.0719,-5.515 l 2.8867,-0.004 -0.39342,-14.432 z"
         fill="#ffffff"
         filter="url(#filter4530-5-2)"
         stroke="#000000"
         stroke-linecap="round"
         stroke-linejoin="round"
         stroke-width="3.37"
         id="path605-2" />
    </clipPath>
  </defs>
  <g
     inkscape:label="Layer 1"
     inkscape:groupmode="layer"
     id="layer1"
     transform="translate(-40.679379,-54.531818)">
    <g
       transform="matrix(0.65617909,-0.56514518,0.56519201,0.65692977,307.99665,-674.2268)"
       id="g648">
      <g
         stroke="#000000"
         stroke-linecap="round"
         stroke-linejoin="round"
         id="g11969"
         style="fill:#3867c1;fill-opacity:1"
         transform="matrix(0.19966974,0,0,0.19966974,-618.72729,429.0869)">
        <path
           id="path11965"
           style="fill:#3867c1;fill-opacity:1;stroke:#000000;stroke-width:3.77005;stroke-dasharray:none"
           d="m -742.38494,503.98954 c -0.17421,-0.10734 -0.35334,-0.23216 -0.53415,-0.36276 -0.4798,-0.38695 -0.95951,-0.7717 -1.41733,-1.14773 -0.47628,-0.41628 -0.96704,-0.85835 -1.45998,-1.29846 -0.14726,-0.14748 -0.29128,-0.29492 -0.41723,-0.43997 l -0.0363,0.0348 c -2.29968,-2.01388 -4.66082,-3.69375 -6.40833,-1.64194 -2.21607,2.60234 -4.1524,4.79075 -6.2588,7.2042 -6.69627,1.29179 -9.58033,-1.67155 -16.83742,0.8694 -10.26521,7.40132 -12.07442,13.21745 -16.87795,21.21704 -7.10538,10.07614 -10.11218,7.66074 -24.18539,25.53523 -3.11817,3.59741 -2.09513,9.24812 0.66307,13.21009 l -7.8e-4,9e-4 c 8.39511,10.92985 16.07623,14.61905 19.47283,16.53424 5.80437,2.42206 10.10249,2.17628 13.15103,-1.48025 15.37692,-16.76796 12.50635,-19.34312 21.30826,-27.9789 7.12317,-6.02988 12.5736,-8.75389 18.22385,-20.07414 1.33647,-7.56732 -2.05587,-9.93323 -1.86208,-16.74622 2.04276,-2.46778 3.89118,-4.7308 6.10287,-7.33676 1.74633,-2.05819 -0.30292,-4.11832 -2.66752,-6.06359 z" />
        <path
           d="m -747.81683,488.98071 c 8.27833,4.14531 12.59342,9.16729 16.71592,14.23193 l -8.94302,11.12171 c -6.0198,-3.491 -11.88502,-8.12839 -17.47449,-14.80234 z"
           fill="#2479b3"
           fill-rule="evenodd"
           stroke-width="2.57161"
           id="path11967"
           style="fill:#3867c1;fill-opacity:1;stroke:#000000" />
      </g>
      <path
         d="m -776.74761,533.72862 3.39317,-3.62085 c 3.67142,1.98872 2.64465,4.83292 6.20928,5.45952 l -2.99857,3.66858 z"
         fill="#00d6ff"
         id="path630"
         style="fill:#3867c1;fill-opacity:1;stroke-width:0.506424" />
      <path
         d="m -779.29448,536.8345 3.39318,-3.62085 c 1.85781,4.01939 5.69946,2.28488 6.20928,5.45952 l -2.99858,3.66858 z"
         fill="#fff100"
         id="path634"
         style="fill:#0037a9;fill-opacity:1;stroke-width:0.506424" />
      <path
         d="m -781.08711,538.76008 2.82036,-3.39004 c 1.99049,-0.328 1.81822,5.72336 6.78204,5.22866 l -2.99857,3.66858 c -2.45918,-1.68172 -6.41496,-2.46978 -6.60358,-5.50699 z"
         fill="#00f200"
         id="path632"
         style="fill:#0041c6;fill-opacity:1;stroke-width:0.506424" />
      <path
         d="m -781.81853,542.17906 -0.23168,-2.09022 1.75475,-1.85645 c 2.89601,2.88704 3.04133,5.61019 6.22017,5.45616 l -1.60551,1.97328 c -1.31902,1.02169 -2.78357,-0.007 -4.46247,-1.41046 z"
         fill="#ff0000"
         id="path636"
         style="fill:#1251d4;fill-opacity:1;stroke-width:0.506424"
         sodipodi:nodetypes="ccccccc" />
      <g
         transform="matrix(0.38486289,0.3294038,-0.3294275,0.38442385,-769.33827,489.35223)"
         clip-path="url(#clipPath6603-6-6)"
         fill-rule="evenodd"
         id="g638">
        <path
           d="m 45.708,66.816 0.43519,-9.7918 c 8.7427,-10.184 13.385,-2.9161 16.32,0.2176 l 0.2176,9.3566 c -6.9137,3.8778 -11.353,0.2398 -16.972,0.21759 z"
           fill="#ff00ff"
           id="path628"
           style="fill:#2a51cc;fill-opacity:1" />
      </g>
      <g
         stroke="#000000"
         stroke-linecap="round"
         stroke-linejoin="round"
         id="g646"
         transform="matrix(0.19966974,0,0,0.19966974,-618.72729,429.0869)">
        <path
           id="path640"
           style="fill:none;stroke:#000000;stroke-width:3.77005;stroke-dasharray:none"
           d="m -742.38494,503.98954 c -0.17421,-0.10734 -0.35334,-0.23216 -0.53415,-0.36276 -0.4798,-0.38695 -0.95951,-0.7717 -1.41733,-1.14773 -0.47628,-0.41628 -0.96704,-0.85835 -1.45998,-1.29846 -0.14726,-0.14748 -0.29128,-0.29492 -0.41723,-0.43997 l -0.0363,0.0348 c -2.29968,-2.01388 -4.66082,-3.69375 -6.40833,-1.64194 -2.21607,2.60234 -4.1524,4.79075 -6.2588,7.2042 -6.69627,1.29179 -9.58033,-1.67155 -16.83742,0.8694 -10.26521,7.40132 -12.07442,13.21745 -16.87795,21.21704 -7.10538,10.07614 -10.11218,7.66074 -24.18539,25.53523 -3.11817,3.59741 -2.09513,9.24812 0.66307,13.21009 l -7.8e-4,9e-4 c 8.39511,10.92985 16.07623,14.61905 19.47283,16.53424 5.80437,2.42206 10.10249,2.17628 13.15103,-1.48025 15.37692,-16.76796 12.50635,-19.34312 21.30826,-27.9789 7.12317,-6.02988 12.5736,-8.75389 18.22385,-20.07414 1.33647,-7.56732 -2.05587,-9.93323 -1.86208,-16.74622 2.04276,-2.46778 3.89118,-4.7308 6.10287,-7.33676 1.74633,-2.05819 -0.30292,-4.11832 -2.66752,-6.06359 z" />
        <path
           d="m -747.81683,488.98071 c 8.27833,4.14531 12.59342,9.16729 16.71592,14.23193 l -8.94302,11.12171 c -6.0198,-3.491 -11.88502,-8.12839 -17.47449,-14.80234 z"
           fill="#2479b3"
           fill-rule="evenodd"
           stroke-width="2.57161"
           id="path644"
           style="fill:#1e6595;fill-opacity:1;stroke:#000000" />
      </g>
    </g>
  </g>
</svg>
