<?xml version="1.0" encoding="UTF-8"?>
<svg width="68.788" height="155.54" shape-rendering="geometricPrecision" text-rendering="geometricPrecision" version="1.1" viewBox="0 0 68.788 155.54" xmlns="http://www.w3.org/2000/svg">
 <style><![CDATA[#eg2ylr45yam10 {animation: eg2ylr45yam10_f_o 4000ms linear infinite normal forwards}@keyframes eg2ylr45yam10_f_o { 0% {fill-opacity: 0} 62.500000% {fill-opacity: 0} 65% {fill-opacity: 1} 100% {fill-opacity: 1} }#eg2ylr45yam11 {animation: eg2ylr45yam11_c_o 4000ms linear infinite normal forwards}@keyframes eg2ylr45yam11_c_o { 0% {opacity: 0} 25% {opacity: 0} 27.500000% {opacity: 1} 100% {opacity: 1} }#eg2ylr45yam12 {animation: eg2ylr45yam12_f_o 4000ms linear infinite normal forwards}@keyframes eg2ylr45yam12_f_o { 0% {fill-opacity: 0} 37.500000% {fill-opacity: 0} 40% {fill-opacity: 1} 100% {fill-opacity: 1} }#eg2ylr45yam13 {animation: eg2ylr45yam13_c_o 4000ms linear infinite normal forwards}@keyframes eg2ylr45yam13_c_o { 0% {opacity: 0} 12.500000% {opacity: 0} 15% {opacity: 1} 100% {opacity: 1} }#eg2ylr45yam14 {animation: eg2ylr45yam14_f_o 4000ms linear infinite normal forwards}@keyframes eg2ylr45yam14_f_o { 0% {fill-opacity: 0} 50% {fill-opacity: 0} 52.500000% {fill-opacity: 1} 100% {fill-opacity: 1} }#eg2ylr45yam15 {animation: eg2ylr45yam15_c_o 4000ms linear infinite normal forwards}@keyframes eg2ylr45yam15_c_o { 0% {opacity: 0} 80% {opacity: 0} 82.500000% {opacity: 1} 100% {opacity: 1} }#eg2ylr45yam19 {animation: eg2ylr45yam19_c_o 4000ms linear infinite normal forwards}@keyframes eg2ylr45yam19_c_o { 0% {opacity: 1} 100% {opacity: 0.820000} }]]></style>
 <defs>
  <linearGradient id="eg2ylr45yam9-fill" x1="105.27" x2="105.19" y1="81.063" y2="69.83" gradientUnits="userSpaceOnUse">
   <stop stop-color="#23bea8" offset="0"/>
   <stop stop-color="rgba(209,244,244,0.979695)" offset="1"/>
  </linearGradient>
 </defs>
 <g transform="translate(-71.436 -69.841)">
  <g transform="matrix(.81406 0 0 .81406 -70.808 49.62)">
   <path d="m210.18 214.35c-14.686-1.1348-23.995-5.1134-28.364-12.124-2.2633-3.6313-2.7139-5.9169-3.0918-15.681-0.47851-12.364-0.078-21.155 1.4004-30.738 1.5427-9.9999 1.441-14.353-0.5834-24.98-2.3338-12.251-2.9358-16.578-3.2867-23.623-0.33914-6.8095 0.15763-13.653 1.4978-20.633 0.65145-3.3932 1.0305-4.2327 3.2835-7.2713 2.52-3.3988 4.6601-5.2898 11.802-10.429 1.2993-0.93488 3.4602-2.7874 4.8021-4.1167l2.4398-2.417v-8.7935c0-6.0834 0.0823-9.068 0.2669-9.6843 0.38487-1.2846 1.7743-2.7525 3.1762-3.3555 2.0584-0.8855 4.4197-1.158 10.969-1.2659 8.3625-0.13781 9.7191-0.11096 11.701 0.23159 2.9819 0.51534 5.0848 1.9885 5.6814 3.9798 0.13088 0.43689 0.34198 4.6753 0.46911 9.4187l0.23114 8.6244 1.0792 1.2483c1.4256 1.6489 4.1405 4.0368 8.4268 7.412 5.0432 3.9712 7.7147 6.715 10.249 10.526 1.0532 1.584 1.3775 2.3182 1.8504 4.1901 2.5516 10.1 3.0543 21.557 1.489 33.93-0.24478 1.9348-0.96115 6.735-1.5919 10.667-1.0252 6.3909-1.1606 7.6546-1.2761 11.915-0.19748 7.2848 0.18284 10.576 2.2948 19.859 1.9322 8.4929 2.6302 15.337 2.7022 26.5 0.038 5.8837 7e-3 6.4286-0.47763 8.3378-1.4913 5.8775-5.1184 10.179-11.175 13.253-4.5716 2.3202-10.588 3.9099-17.695 4.6754-3.8671 0.41652-14.695 0.62058-18.27 0.34433z" fill="#a7f1e6" stroke="#000" stroke-width="2.8413"/>
  </g>
  <g stroke="#231f20" stroke-miterlimit="10">
   <path d="m120.33 91.892 0.50423-13.623c0.65282-2.9364-3.4291-5.9109-14.333-5.6546-8.4373-0.31276-16.117 1.7128-16.221 4.5225l-0.50423 13.623c-0.10469 2.8132 6.6504 5.3447 15.088 5.6563 8.4379 0.31393 15.362-1.7116 15.466-4.5242z" fill="#a7f1e6" stroke-width="2.145"/>
   <path d="m89.899 81.004s8.8697 8.849 30.384 5.7236" fill="none" stroke-width="1.1499"/>
   <path d="m89.879 87.853s6.7153 6.0616 30.446 4.039" fill="none" stroke-width="1.1499"/>
   <path d="m105.61 79.845c3.2894-0.09193 6.4278-0.5078 8.725-1.1561 2.2972-0.64831 3.5648-1.476 3.5242-2.3009-0.0407-0.82492-1.3864-1.5795-3.7411-2.0978-2.3547-0.5183-5.5255-0.75783-8.8148-0.66589-6.8497 0.19144-12.334 1.7392-12.249 3.457 0.08472 1.7178 5.7062 2.9552 12.556 2.7637z" fill="url(#eg2ylr45yam9-fill)" stroke-width="1.0692"/>
  </g>
  <g>
   <g stroke-width=".20696">
    <path d="m129.01 116.36c-6.6015-8.3578-13.087-8.6536-15.851-17.159-4.2026 2.0369-11.682 2.3161-15.602 0.38341-1.359 8.8067-12.87 11.6-17.473 19.22-5.0506 10.124-0.50367 31.624-0.50367 31.624l-1.5329-26.638 23.838 9.2635 30.126-9.2412c-0.4761-4.1898-0.66181-4.4918-3.001-7.4537z" fill="#f0f" fill-opacity="0"/>
    <path d="m132.95 193.33c-0.35504-10.229-1.6031-15.145-2.3692-20.108-0.11509-0.7565-0.22278-1.5174-0.31174-2.2956 0 0-15.355-6.9691-29.455 2.576-6.8426 4.6322-18.937-2.016-18.937-2.016-0.99653 8.4542-2.0463 16.203-2.1358 22.46 0 0 8.5348-2.6432 19.916 2.0444 16.523 6.8079 33.293-2.6616 33.293-2.6616z" fill="#fff100" opacity="0"/>
    <path d="m100.82 173.5c14.1-9.5449 29.455-2.576 29.455-2.576-0.31789-2.772-0.89338-5.6085-0.57781-9.7452 0.38238-3.8184 0.6182-7.5367 1.6617-11.401 0 0-16.549 9.4667-32.479 0.42419-10.692-6.0694-19.291 0.22521-19.291 0.22521 0.6236 3.5266 1.4574 7.0408 2.1668 11.125 0.4158 4.1299 0.37471 7.1568 0.12658 9.9321 1.3229 1.3231 12.095 6.6485 18.937 2.0162z" fill="#00f200" fill-opacity="0"/>
    <path d="m132.98 194.27c-6e-3 -0.31475-0.0185-0.64085-0.0255-0.94836 0 0-16.77 9.4693-33.293 2.6616-11.381-4.6877-19.916-2.0444-19.916-2.0444-0.0024 0.3084-0.0014 0.63354-0.0035 0.95083-0.01099 3.0007 0.0592 6.4189 0.25284 10.418 0.07813 11.375 16.98 13.819 26.763 13.752 10.853-0.0745 26.305-2.4393 26.223-14.365z" fill="#f00" fill-rule="evenodd" opacity="0"/>
   </g>
   <path d="m79.794 152.13c-2.2057-8.8989-2.6628-18.884-1.741-28.339 11.48 1.0332 13.339 6.8207 24.019 7.3008 8.1519 0.1502 23.992-9.0578 29.944-7.2785 1.081 8.0063 0.97584 14.169-0.66108 25.966-6.2124 3.8332-11.75 4.8462-17.989 4.6805-9.0202 0.0366-12.885-4.3754-22.705-6.655-4.2853-0.92136-6.8875 1.1301-10.867 4.3253z" fill="#00d6ff" fill-opacity="0" stroke-width=".51864"/>
  </g>
  <g transform="matrix(.20696 -.0014214 .0014214 .20696 302.7 41.485)" opacity="0">
   <g>
    <path d="m-879.33 233.13 0.578-69.009c0.117-14.232-34.43-26.07-77.171-26.425-42.738-0.36-77.477 10.896-77.6 25.124l-0.578 69.01c-0.121 14.25 34.428 26.083 77.165 26.434 42.743 0.367 77.485-10.887 77.606-25.134z" stroke="#231f20" stroke-miterlimit="10" stroke-width="12.375"/>
   </g>
   <ellipse transform="translate(-956.92 159.66)" rx="76.77" ry="24.052" fill="#3f9ad8" stroke="#231f20" stroke-width="10.314"/>
  </g>
  <path d="m113.35 115.6c0.77778-2.7143 1.0898-3.9063 6.417-3.2085 10.869 7.4135 9.5112 12.961 9.4116 22.46-0.40218 3.7649-8.8005 3.0492-8.9234 0.9442 1.1307-9.0424 0.35484-15.557-6.9052-20.195z" fill="#fff" stroke-width="1.0127"/>
 </g>
</svg>
