<svg id="e8yDQZ7iq911" xmlns="http://www.w3.org/2000/svg" xmlns:xlink="http://www.w3.org/1999/xlink" viewBox="0 0 126.50786 126.50786" shape-rendering="geometricPrecision" text-rendering="geometricPrecision">
<style><![CDATA[
#e8yDQZ7iq912_tr {animation: e8yDQZ7iq912_tr__tr 4700ms linear infinite normal forwards}@keyframes e8yDQZ7iq912_tr__tr { 0% {transform: translate(62.546505px,64.016374px) rotate(0deg)} 74.468085% {transform: translate(62.546505px,64.016374px) rotate(0deg)} 89.361702% {transform: translate(62.546505px,64.016374px) rotate(359.999998deg)} 100% {transform: translate(62.546505px,64.016374px) rotate(359.999998deg)}} #e8yDQZ7iq915 {animation: e8yDQZ7iq915_f_p 4700ms linear infinite normal forwards}@keyframes e8yDQZ7iq915_f_p { 0% {fill: rgba(132,224,252,0.55)} 51.06383% {fill: rgba(132,224,252,0.55)} 61.702128% {fill: #00ebff} 72.340426% {fill: #00ebff} 89.361702% {fill: rgba(132,224,252,0.55)} 100% {fill: rgba(132,224,252,0.55)}} #e8yDQZ7iq917 {animation: e8yDQZ7iq917_f_o 4700ms linear infinite normal forwards}@keyframes e8yDQZ7iq917_f_o { 0% {fill-opacity: 0} 38.297872% {fill-opacity: 0} 48.93617% {fill-opacity: 1} 85.106383% {fill-opacity: 1} 89.361702% {fill-opacity: 0} 100% {fill-opacity: 0}} #e8yDQZ7iq918 {animation: e8yDQZ7iq918_f_o 4700ms linear infinite normal forwards}@keyframes e8yDQZ7iq918_f_o { 0% {fill-opacity: 0} 25.531915% {fill-opacity: 0} 36.170213% {fill-opacity: 1} 85.106383% {fill-opacity: 1} 89.361702% {fill-opacity: 0} 100% {fill-opacity: 0}} #e8yDQZ7iq919 {animation: e8yDQZ7iq919_f_o 4700ms linear infinite normal forwards}@keyframes e8yDQZ7iq919_f_o { 0% {fill-opacity: 0} 12.765957% {fill-opacity: 0} 23.404255% {fill-opacity: 1} 85.106383% {fill-opacity: 1} 89.361702% {fill-opacity: 0} 100% {fill-opacity: 0}} #e8yDQZ7iq9110 {animation: e8yDQZ7iq9110_f_o 4700ms linear infinite normal forwards}@keyframes e8yDQZ7iq9110_f_o { 0% {fill-opacity: 0} 10.638298% {fill-opacity: 1} 85.106383% {fill-opacity: 1} 89.361702% {fill-opacity: 0} 100% {fill-opacity: 0}}
]]></style>
<g id="e8yDQZ7iq912_tr" transform="translate(62.546505,64.016374) rotate(0)"><g transform="translate(-103.225883,-118.548191)"><g transform="matrix(.656179-.565145 0.565192 0.65693 307.996643-674.226806)"><g transform="matrix(1.007776 0 0 1.007776 2.616736-1.123019)"><path id="e8yDQZ7iq915" d="M-742.38494,503.98954c-.17421-.10734-.35334-.23216-.53415-.36276-.4798-.38695-.95951-.7717-1.41733-1.14773-.47628-.41628-.96704-.85835-1.45998-1.29846-.14726-.14748-.29128-.29492-.41723-.43997l-.0363.0348c-2.29968-2.01388-4.66082-3.69375-6.40833-1.64194-2.21607,2.60234-4.1524,4.79075-6.2588,7.2042-6.69627,1.29179-9.58033-1.67155-16.83742.8694-10.26521,7.40132-12.07442,13.21745-16.87795,21.21704-7.10538,10.07614-10.11218,7.66074-24.18539,25.53523-3.11817,3.59741-2.09513,9.24812.66307,13.21009l-.00078.0009c8.39511,10.92985,16.07623,14.61905,19.47283,16.53424c5.80437,2.42206,10.10249,2.17628,13.15103-1.48025c15.37692-16.76796,12.50635-19.34312,21.30826-27.9789c7.12317-6.02988,12.5736-8.75389,18.22385-20.07414c1.33647-7.56732-2.05587-9.93323-1.86208-16.74622c2.04276-2.46778,3.89118-4.7308,6.10287-7.33676c1.74633-2.05819-.30292-4.11832-2.66752-6.06359Z" fill="rgba(132,224,252,0.55)" stroke="#000" stroke-width="0" stroke-linecap="round" stroke-linejoin="round"/><path d="M-747.81683,488.98071c8.27833,4.14531,12.59342,9.16729,16.71592,14.23193l-8.94302,11.12171c-6.0198-3.491-11.88502-8.12839-17.47449-14.80234Z" fill="#5aa6da" fill-rule="evenodd" stroke="#000" stroke-width="2.57161" stroke-linecap="round" stroke-linejoin="round"/></g><path id="e8yDQZ7iq917" d="M-794.94572,527.02618l17.12604-18.27522c18.53045,10.03751,13.34811,24.39279,31.33953,27.55548l-15.13449,18.51613Z" fill="#00f200" fill-opacity="0" stroke-width="2.55602"/><path id="e8yDQZ7iq918" d="M-807.80038,542.70223l17.12613-18.27517c9.3768,20.28671,28.76642,11.53229,31.33949,27.55545l-15.13446,18.51611Z" fill="#ff0" fill-opacity="0" stroke-width="2.55602"/><path id="e8yDQZ7iq919" d="M-816.84817,552.42108l14.992195-15.01222c10.04641-1.65546,8.419555,26.7888,33.473085,24.29194l-15.13452,18.51612c-12.41198-8.48801-32.37764-12.4655-33.32965-27.79496Z" fill="#f00" fill-opacity="0" stroke-width="2.55602"/><path id="e8yDQZ7iq9110" d="M-820.29246,568.64143l-1.16936-10.54975l8.85666-9.36993c14.61672,14.5715,15.35017,28.31584,31.39454,27.53836l-8.10324,9.95961c-6.6574,5.15673-14.04926-.0355-22.52306-7.11888Z" fill="#f0f" fill-opacity="0" stroke-width="2.55602"/><g transform="matrix(1.007776 0 0 1.007776 2.616736-1.123019)"><path d="M-742.38494,503.98954c-.17421-.10734-.35334-.23216-.53415-.36276-.4798-.38695-.95951-.7717-1.41733-1.14773-.47628-.41628-.96704-.85835-1.45998-1.29846-.14726-.14748-.29128-.29492-.41723-.43997l-.0363.0348c-2.29968-2.01388-4.66082-3.69375-6.40833-1.64194-2.21607,2.60234-4.1524,4.79075-6.2588,7.2042-6.69627,1.29179-9.58033-1.67155-16.83742.8694-10.26521,7.40132-12.07442,13.21745-16.87795,21.21704-7.10538,10.07614-10.11218,7.66074-24.18539,25.53523-3.11817,3.59741-2.09513,9.24812.66307,13.21009l-.00078.0009c8.39511,10.92985,16.07623,14.61905,19.47283,16.53424c5.80437,2.42206,10.10249,2.17628,13.15103-1.48025c15.37692-16.76796,12.50635-19.34312,21.30826-27.9789c7.12317-6.02988,12.5736-8.75389,18.22385-20.07414c1.33647-7.56732-2.05587-9.93323-1.86208-16.74622c2.04276-2.46778,3.89118-4.7308,6.10287-7.33676c1.74633-2.05819-.30292-4.11832-2.66752-6.06359Z" fill="none" stroke="#000" stroke-width="3" stroke-linecap="round" stroke-linejoin="round"/><path d="M-747.81683,488.98071c8.27833,4.14531,12.59342,9.16729,16.71592,14.23193l-8.94302,11.12171c-6.0198-3.491-11.88502-8.12839-17.47449-14.80234Z" fill="#1f7fc0" fill-rule="evenodd" stroke="#000" stroke-width="2.57161" stroke-linecap="round" stroke-linejoin="round"/></g><g display="none" clip-path="url(#e8yDQZ7iq9117)"><g transform="matrix(1.942486 1.662572-1.662691 1.940269-756.993652 304.06369)"><path d="M45.708,66.816l5.154652-10.871956c8.7427-10.184,8.665538-1.835944,11.600538,1.297756l.2176,9.3566c-6.9137,3.8778-11.353.2398-16.972.21759Z" fill="#0ff" fill-rule="evenodd"/></g><clipPath id="e8yDQZ7iq9117"><path d="M638.86,565.08l-22.197-.0302-.56345,14.49l3.0937-.003c-.0212,1.8291-.0475,3.627-.072,5.4948-4.3123,5.3811-8.475,4.9838-12.401,11.695-3.0607,12.43-.64511,18.1.89325,27.415c1.1251,12.423-2.7724,12.529-1.908,35.529-.0464,4.8162,4.2193,9.865,9.1615,9.7536l9.3328-.00094v.001l16.495-.00067c4.9422.11143,9.2079-4.9365,9.1615-9.7526.86445-23-3.0338-23.107-1.9088-35.531c1.5384-9.3143,3.9534-14.985.89275-27.415-3.9264-6.7113-8.0891-6.314-12.401-11.695-.0246-1.8743-.0507-3.679-.0719-5.515l2.8867-.004-.39342-14.432Z" transform="matrix(.38984-.001538 0.001538 0.38984-191.479996-165.470001)" fill="#fff" stroke="#000" stroke-width="3.37" stroke-linecap="round" stroke-linejoin="round"/></clipPath></g></g></g></g></svg>