<?xml version="1.0" encoding="UTF-8"?>
<!-- Created with Inkscape (http://www.inkscape.org/) -->
<svg width="38.374mm" height="65.153mm" version="1.1" viewBox="0 0 38.374 65.153" xmlns="http://www.w3.org/2000/svg" xmlns:cc="http://creativecommons.org/ns#" xmlns:dc="http://purl.org/dc/elements/1.1/" xmlns:rdf="http://www.w3.org/1999/02/22-rdf-syntax-ns#">
 <metadata>
  <rdf:RDF>
   <cc:Work rdf:about="">
    <dc:format>image/svg+xml</dc:format>
    <dc:type rdf:resource="http://purl.org/dc/dcmitype/StillImage"/>
   </cc:Work>
  </rdf:RDF>
 </metadata>
 <g transform="translate(-66.992 -86.019)">
  <g transform="matrix(-.070125 0 0 .070125 121.29 327.57)">
   <ellipse cx="548.7" cy="-2623.9" rx="186.5" ry="49.328" opacity=".5" stroke-width=".92244"/>
   <g stroke="#231f20" stroke-linecap="round" stroke-linejoin="round" stroke-miterlimit="10">
    <g stroke-width="3.9225">
     <path d="m584.53-2647.2h-41.284l-1.6853 14.379 7.9745 1.5589c1.6881 5.197 7.053 9.0003 13.427 9.0003h21.569c7.7236 0 13.986-5.5836 13.986-12.47-9.2e-4 -6.886-6.2634-12.469-13.987-12.469z" fill="#fff"/>
     <path d="m475.68-2647.2h-41.284l-1.6853 14.379 7.9736 1.5589c1.6881 5.197 7.053 9.0003 13.427 9.0003h21.569c7.7236 0 13.986-5.5836 13.986-12.47-9.2e-4 -6.886-6.2624-12.469-13.986-12.469z" fill="#fff"/>
     <path d="m648.6-2873.5 59.91 15.057s3.3697 26.288-4.7183 34.376l-69.425-4.7183s-23.591-3.3696-20.894-31.679" fill="#ddae68"/>
     <path d="m643.38-2870.3c8.7189 13.866-41.496 45.439-50.215 31.572l-35.373-56.26c-8.7189-13.866-4.5458-32.175 9.3204-40.894 13.866-8.7189 32.176-4.5458 40.895 9.3204z" fill="#3a65ba"/>
     <path d="m635.56-2777.9s0.69921 71.752-36.709 131.65c0 0-34.076 6.1924-61.613 0l-14.353-36.364-31.89 36.364c-31.06 6.1924-62.158 0-62.158 0l-34.56-61.021c-31.802-28.269-21.252-70.625-21.252-70.625z" fill="#aed8ed"/>
     <path d="m502.66-3036.9s-67.185 64.706-135.39 256.4c-0.3533 16.896 86.689 26.949 162.47 25.344 2.9389-0.062 9.7179-8.0787 9.7179-8.0787s4.8908 7.6221 7.7753 7.4865c49.363-2.3227 90.161-10.086 92.42-24.752-0.22139-33.675-11.745-69.29-28.026-102.91 7.7771-15.242-11.276-27.212-20.727-38.035-39.366-65.29-88.243-115.46-88.243-115.46z" fill="#3a65ba"/>
     <path d="m482.2-2953c0.0369-1.1439 5.3188 8.5243 9.824 16.993 3.3614 6.316 6.291 11.966 6.291 11.966l10.559-13.03 26.287 10.784 19.547-11.459 12.132 11.459-3.3697-26.805" fill="none"/>
     <path d="m403.47-2787.6-34.244-4.8807 17.313-61.957c3.3134-10.859 14.801-16.977 25.661-13.663 10.859 3.3116 16.977 14.802 13.664 25.66z" fill="#ddae68"/>
     <path d="m463.39-2906.5-23.291 62.243c-5.7413 15.34-61.294-5.4479-55.554-20.788l23.292-62.242c5.7413-15.34 22.83-23.123 38.171-17.382" fill="#3a65ba"/>
    </g>
    <polyline transform="matrix(.92244 0 0 .92244 28.28 -254.18)" points="525.52 -2926.5 549.5 -2896.7 569.22 -2926.5" fill="#ddae68" stroke-width="4.2523"/>
    <path d="m702.8-3064.8s-5.2634 82.368 36.448 92.333c0 0-59.531 42.523-120.28-17.008" fill="#231f20" stroke-width="3.9225"/>
    <path d="m724.63-3160.7c-7.2615-137.37-96.241-243.39-229.99-235.94-133.75 7.4561-236.29 124.85-229.04 262.22 5.614 106.17 94.476 159.1 196.3 174.22 21.387 6.3491 25.872 20.211 114.16 17.762 68.03-1.8873 84.231-31.152 101.22-52.598 38.169-32.34 51.56-85.891 47.342-165.67z" fill="#ddae68" stroke-width="3.9225"/>
   </g>
   <g fill="#231f20">
    <path d="m388.13-3155.9c30.928-107.1 205.65-83.77 256.35-115.42 17.561 4.2165 75.391 63.32 79.895 97.863 28.231-111.23-16.72-230.29-121.2-233.93-320.92-116.29-432.51 252.7-321.95 406.23 14.525 99.173 100.7 93.564 193.17 78.519-17.428-53.793-109.33-153.37-86.258-233.26z" stroke="#231f20" stroke-linecap="round" stroke-linejoin="round" stroke-miterlimit="10" stroke-width="3.9225"/>
    <path d="m487.71-3140.4c-6.0973 0.1651-10.913 5.2469-10.745 11.347 0.16788 6.1112 5.2552 10.92 11.351 10.762 6.1075-0.1771 10.922-5.2551 10.754-11.364-0.16973-6.1038-5.2542-10.915-11.36-10.745z" stroke-width=".92244"/>
    <path d="m653.86-3147.8c-6.1029 0.1669-10.911 5.2524-10.745 11.352 0.1642 6.1038 5.245 10.915 11.348 10.746 6.1084-0.166 10.917-5.2459 10.75-11.358-0.16511-6.0964-5.2524-10.909-11.353-10.741z" stroke-width=".92244"/>
   </g>
   <path d="m654.67-3036.1c1.5949 24.92-28.522 47.122-67.28 49.606-38.766 2.4832-71.465-15.709-73.064-40.624-1.5968-24.907 30.218-20.68 68.978-23.164 38.76-2.4776 69.771-10.732 71.366 14.182z" fill="#db4826" stroke-width=".92244"/>
   <path d="m514.39-3026.2 140.34-8.9892s3.7147-11.009-12.31-16.233c-7.4718-2.2812-72.87 2.1383-110.43 4.3466-13.847 2.8965-17.615 12.553-17.598 20.876z" fill="#fff" stroke-width=".92244"/>
   <path d="m654.67-3036.1c1.5949 24.92-28.522 47.122-67.28 49.606-38.766 2.4832-71.465-15.709-73.064-40.624-1.5968-24.907 30.218-20.68 68.978-23.164 38.76-2.4776 69.771-10.732 71.366 14.182z" fill="none" stroke="#231f20" stroke-linecap="round" stroke-linejoin="round" stroke-miterlimit="10" stroke-width="3.9225"/>
   <g id="g4138_1_" transform="matrix(.92244 0 0 .92244 28.28 -299.46)">
    <path d="m741.93-2830.6c5.691-15.836 11.746-25.002 10.371-47.779-4.728-13.029-12.153-13.667-17.986-24.493 0.968-5.691 1.814-10.892 2.923-16.956 0.874-4.785-4.173-6.16-9.606-7.069l0.013-0.093c-0.346-0.012-0.711-0.042-1.085-0.08-1.15-0.181-2.301-0.354-3.402-0.541-1.099-0.216-2.233-0.464-3.374-0.701-0.359-0.099-0.713-0.199-1.039-0.309l-0.02 0.09c-5.406-1.076-10.609-1.578-11.491 3.208-1.113 6.059-2.165 11.222-3.278 16.889-9.292 8.054-16.464 6.019-25.505 16.522-9.356 20.813-6.944 31.528-7.235 48.353-2.021 22.146-8.89 21.083-14.762 61.681-1.628 8.433 4.23 18.653 12.93 20.048l16.363 2.997 12.555 2.302 16.365 2.999c8.63 1.78 17.73-5.7 19.196-14.162 8.904-40.043 2.103-41.485 8.067-62.906z" fill="#99fff0"/>
    <g opacity=".8">
     <path d="m678.45-2891.9c-6.015 13.384-7.16 22.59-7.297 31.928l76.653 14.044c3.184-8.781 5.378-17.793 4.494-32.44-1.251-3.447-2.693-6.015-4.238-8.146l-62.756-11.497c-2.203 1.443-4.461 3.335-6.856 6.111z" enable-background="new    " fill="#0f0"/>
     <path d="m671.21-2843.5c-0.548 5.984-1.45 10.272-2.587 14.151l70.702 12.953c0.313-4.028 0.992-8.357 2.6-14.145 2.032-5.653 4.104-10.461 5.877-15.339l-76.653-14.044c-0.07 5.188 0.163 10.421 0.061 16.424z" enable-background="new    " fill="#ff0"/>
     <path d="m739.14-2813.1c0.037-1.109 0.1-2.22 0.183-3.35l-70.702-12.953c-0.321 1.087-0.659 2.146-1.015 3.197-2.328 6.893-5.349 13.596-8.357 28.107l77.74 14.243c2.33-14.634 1.883-21.973 2.151-29.244z" enable-background="new    " fill="#f0f"/>
     <path d="m736.76-2782.5c0.075-0.452 0.154-0.916 0.229-1.355l-77.74-14.243c-0.085 0.437-0.18 0.898-0.267 1.348-0.852 4.261-1.705 9.139-2.536 14.878-1.628 8.433 4.23 18.653 12.93 20.048l16.363 2.997 12.555 2.302 16.365 2.999c8.63 1.78 17.73-5.7 19.196-14.162 1.258-5.664 2.191-10.527 2.905-14.812z" enable-background="new    " fill="#f00"/>
    </g>
    <g id="g4051_29_" transform="translate(1.1866 -.51496)" fill="none" stroke="#231f20" stroke-linecap="round" stroke-linejoin="round" stroke-miterlimit="10" stroke-width="4.2523">
     <path id="path3346-5-5_29_" d="m726.46-2926.5c-6.702-0.197-19.013-5.936-20.411 1.667-1.113 6.059-2.165 11.222-3.278 16.889-9.292 8.054-16.464 6.019-25.505 16.522-9.356 20.813-6.944 31.528-7.235 48.353-2.021 22.146-8.89 21.083-14.762 61.681-1.628 8.433 4.23 18.653 12.93 20.048l28.918 5.299"/>
     <path id="path4049_29_" d="m717.56-2928.1c6.331 2.19 19.878 1.188 18.493 8.792-1.109 6.064-1.955 11.264-2.923 16.956 5.833 10.825 13.258 11.464 17.986 24.493 1.375 22.777-4.68 31.943-10.371 47.779-5.964 21.42 0.836 22.863-8.067 62.905-1.466 8.462-10.566 15.942-19.196 14.162l-28.92-5.3"/>
    </g>
    <path id="path3348-2_27_" d="m706.06-2944.2 38.904 7.176-3.943 25.434-40.606-7.391z" fill="#478cd1" stroke="#231f20" stroke-linecap="round" stroke-linejoin="round" stroke-miterlimit="10" stroke-width="4.2523"/>
    <path d="m732.61-2847.7c-0.819 4.389-5.041 7.282-9.43 6.463-4.388-0.818-7.282-5.041-6.465-9.43l3.486-18.67c0.819-4.389 5.041-7.283 9.43-6.464 4.39 0.819 7.281 5.042 6.463 9.43z" fill="#fff"/>
   </g>
   <path d="m535.16-2926.3s10.784 104.25 4.306 163.06" fill="none" stroke="#231f20" stroke-linecap="round" stroke-linejoin="round" stroke-miterlimit="10" stroke-width="3.9225"/>
   <path d="m432.29-2759.3s-0.91322 20.345-17.793 25.797" fill="none" stroke="#231f20" stroke-linecap="round" stroke-linejoin="round" stroke-miterlimit="10" stroke-width="2.6961"/>
   <g transform="matrix(.92244 0 0 .92244 28.28 -254.18)">
    <path d="m634.25-2849.2s-0.099 0.149-0.285 0.428c-0.213 0.328-0.502 0.687-0.876 1.173-0.394 0.451-0.85 1.021-1.433 1.599-0.556 0.608-1.246 1.217-1.983 1.893-0.377 0.328-0.79 0.642-1.206 0.98-0.412 0.343-0.852 0.677-1.325 0.99-0.466 0.321-0.944 0.651-1.433 0.988-0.509 0.301-1.03 0.609-1.559 0.921-0.264 0.155-0.531 0.311-0.799 0.468-0.279 0.138-0.56 0.276-0.842 0.416-0.563 0.276-1.133 0.557-1.708 0.839-1.185 0.479-2.376 0.991-3.597 1.402-1.241 0.355-2.445 0.815-3.683 1.069-1.237 0.251-2.43 0.589-3.616 0.748-1.181 0.164-2.322 0.322-3.405 0.473-1.087 0.066-2.115 0.129-3.064 0.188-0.473 0.028-0.926 0.055-1.356 0.081-0.432 0.01-0.842-0.01-1.227-0.013-0.768-0.013-1.438-0.023-1.99-0.032-1.1-0.019-1.728-0.029-1.728-0.029s0.626-0.056 1.723-0.154c0.547-0.049 1.211-0.108 1.972-0.176 0.38-0.038 0.785-0.063 1.209-0.116 0.422-0.07 0.866-0.145 1.33-0.222 0.923-0.155 1.923-0.324 2.98-0.501 1.038-0.258 2.131-0.53 3.263-0.811 1.129-0.274 2.249-0.726 3.405-1.09 1.158-0.366 2.261-0.932 3.396-1.388 1.113-0.512 2.18-1.114 3.236-1.674 0.506-0.319 1.007-0.636 1.503-0.949l0.736-0.463c0.231-0.171 0.461-0.341 0.688-0.51 0.453-0.336 0.899-0.667 1.335-0.991 0.41-0.353 0.811-0.698 1.202-1.034 0.397-0.326 0.761-0.668 1.095-1.015 0.338-0.342 0.677-0.66 0.979-0.984 0.585-0.667 1.135-1.261 1.554-1.835 0.453-0.552 0.775-1.068 1.066-1.477 0.252-0.416 0.471-0.757 0.557-0.937 0.118-0.225 0.182-0.345 0.182-0.345l0.044-0.083c0.547-1.042 1.836-1.442 2.877-0.895 1.042 0.548 1.442 1.836 0.895 2.878-0.033 0.065-0.072 0.13-0.112 0.19z" fill="#231f20"/>
    <path d="m484.94-2841.7s2.82 0.659 7.05 1.647c2.084 0.498 4.515 1.028 7.099 1.598 1.302 0.249 2.627 0.573 3.992 0.816 1.359 0.27 2.735 0.553 4.124 0.771 1.377 0.287 2.768 0.47 4.133 0.699 1.363 0.247 2.714 0.393 4.021 0.592 1.306 0.22 2.577 0.326 3.784 0.484 0.605 0.08 1.194 0.158 1.763 0.233 0.572 0.054 1.125 0.106 1.655 0.156 1.07 0.124 2.05 0.237 2.919 0.337 0.871 0.051 1.638 0.14 2.272 0.203 1.269 0.133 2.009 0.258 2.009 0.258s-0.694 0.244-1.936 0.585c-0.621 0.167-1.378 0.382-2.255 0.579-0.877 0.192-1.875 0.341-2.97 0.502-0.549 0.073-1.121 0.15-1.712 0.229-0.593 0.053-1.207 0.076-1.839 0.118-1.264 0.057-2.605 0.149-3.984 0.075-1.38-0.052-2.816-0.067-4.254-0.261-1.445-0.143-2.909-0.33-4.357-0.606-0.724-0.139-1.447-0.278-2.167-0.417-0.716-0.161-1.422-0.351-2.126-0.523-1.412-0.327-2.765-0.791-4.078-1.208-1.305-0.447-2.549-0.927-3.715-1.413-1.159-0.507-2.248-0.991-3.226-1.506-0.987-0.488-1.86-1.008-2.632-1.463-0.774-0.449-1.422-0.896-1.954-1.258-1.061-0.732-1.616-1.227-1.616-1.227z" fill="#231f20"/>
    <ellipse transform="matrix(.998 -.0632 .0632 .998 198.2 26.166)" cx="512.59" cy="-3119" rx="65.209" ry="56.284" fill="#fff" opacity=".1"/>
    <ellipse transform="matrix(.998 -.0632 .0632 .998 199.26 37.324)" cx="689.44" cy="-3130.2" rx="65.209" ry="56.284" fill="#fff" opacity=".1"/>
    <path d="m510.02-3046.1c-40.669 0-74.765-31.804-77.622-72.404-0.403-5.746-0.139-11.322 0.786-16.607-5.182-1.845-8.895-6.614-9.289-12.225l-0.912-12.95c-0.263-3.739 0.945-7.357 3.404-10.188 2.458-2.83 5.872-4.533 9.611-4.796l31.057-2.186c10.831-5.087 23.816-8.193 38.604-9.233 3.335-0.234 6.641-0.354 9.825-0.354 21.679 0 39.706 5.524 52.25 15.99 1.291-0.526 2.647-0.843 4.048-0.942l50.466-3.55c0.31-0.021 0.617-0.032 0.922-0.032 1.087 0 2.164 0.134 3.217 0.398 12.626-13.98 33.081-22.329 59.275-24.172 3.332-0.234 6.633-0.353 9.813-0.353 10.894 0 20.885 1.376 29.705 4.092l31.057-2.185c0.334-0.023 0.667-0.035 0.997-0.035 7.329 0 13.473 5.731 13.988 13.048l0.911 12.951c0.395 5.612-2.613 10.854-7.486 13.405 1.656 5.104 2.698 10.588 3.102 16.334 3.011 42.83-29.383 80.125-72.21 83.137-1.833 0.129-3.688 0.194-5.513 0.194h-6e-3c-40.67 0-74.765-31.807-77.618-72.405-0.418-5.943-0.127-11.682 0.866-17.1l-28.773 2.025c1.743 5.226 2.835 10.866 3.254 16.811 1.457 20.715-5.261 40.781-18.914 56.5-13.654 15.72-32.583 25.18-53.298 26.637-1.833 0.13-3.689 0.195-5.517 0.195zm5.442-121.18c-2.736 0-5.567 0.102-8.416 0.302-10.451 0.735-25.343 3.107-36.939 10.235-13.095 8.05-19.149 20.448-17.996 36.849 2.131 30.296 27.572 54.027 57.919 54.027 1.366 0 2.751-0.049 4.119-0.145 15.456-1.087 29.58-8.147 39.769-19.878s15.202-26.704 14.114-42.159c-2.28-32.424-29.846-39.231-52.57-39.231zm180-12.661c-2.736 0-5.567 0.102-8.415 0.302-21.645 1.523-57.564 9.667-54.934 47.085 2.132 30.295 27.574 54.027 57.919 54.027 1.366 0 2.751-0.049 4.119-0.145 15.456-1.087 29.58-8.146 39.769-19.877 10.19-11.731 15.203-26.704 14.115-42.16-2.281-32.426-29.848-39.232-52.573-39.232z" fill="#262827"/>
    <path d="m695.47-3197.6c10.948 0 20.812 1.405 29.455 4.115l31.456-2.213c0.284-0.02 0.566-0.03 0.847-0.03 6.196 0 11.425 4.795 11.867 11.072l0.911 12.95c0.387 5.502-3.033 10.38-8.013 12.087 1.942 5.378 3.18 11.263 3.629 17.652 2.929 41.661-28.578 77.937-70.238 80.867-1.803 0.127-3.589 0.189-5.37 0.189-39.361 0-72.696-30.569-75.498-70.427-0.484-6.877 8e-3 -13.311 1.398-19.27l-34.379 2.419c2.211 5.703 3.601 12.006 4.085 18.884 2.93 41.66-28.579 77.937-70.24 80.867-1.8 0.126-3.589 0.189-5.367 0.189-39.363 0-72.696-30.567-75.5-70.427-0.448-6.388-0.047-12.389 1.123-17.985-5.171-0.994-9.239-5.344-9.626-10.846l-0.912-12.95c-0.462-6.561 4.482-12.252 11.043-12.713l31.456-2.214c10.518-5.006 23.339-8.16 38.206-9.205 3.313-0.233 6.538-0.348 9.675-0.348 22.111 0 39.802 5.728 51.912 16.374 1.361-0.74 2.893-1.214 4.537-1.332l50.464-3.549c0.259-0.018 0.517-0.027 0.773-0.027 1.368 0 2.683 0.253 3.904 0.709 11.989-13.972 32.082-22.613 58.737-24.488 3.309-0.235 6.531-0.35 9.665-0.35m-5.444 121.18c1.412 0 2.839-0.05 4.269-0.15 33.128-2.33 58.187-31.179 55.855-64.308-2.434-34.606-32.283-41.209-54.694-41.209-3.018 0-5.901 0.12-8.564 0.307-22.438 1.58-59.666 10.089-56.906 49.355 2.231 31.698 28.733 56.005 60.04 56.005m-180 12.662c1.412 0 2.839-0.05 4.269-0.15 33.128-2.331 58.186-31.179 55.854-64.308-2.434-34.605-32.28-41.209-54.691-41.208-3.017 0-5.902 0.12-8.564 0.307-22.439 1.578-59.669 10.091-56.907 49.355 2.228 31.697 28.732 56.004 60.039 56.004m185.44-138.09c-3.23 0-6.582 0.12-9.962 0.358-26.193 1.843-46.82 10.114-59.875 23.969-0.815-0.133-1.64-0.2-2.469-0.2-0.355 0-0.715 0.013-1.069 0.037l-50.466 3.55c-1.194 0.085-2.36 0.305-3.487 0.657-12.88-10.287-31.017-15.709-52.664-15.709-3.233 0-6.588 0.121-9.974 0.359-14.887 1.047-28.002 4.162-38.998 9.261l-30.665 2.159c-4.306 0.302-8.236 2.264-11.067 5.522-2.831 3.259-4.223 7.425-3.919 11.731l0.912 12.95c0.411 5.849 3.952 10.903 9.045 13.385-0.732 4.952-0.915 10.131-0.542 15.446 2.935 41.709 37.961 74.382 79.742 74.382 1.878 0 3.784-0.067 5.665-0.2 21.282-1.497 40.728-11.214 54.754-27.363 14.026-16.148 20.927-36.762 19.43-58.044-0.362-5.149-1.217-10.082-2.55-14.729l23.424-1.648c-0.668 4.789-0.824 9.792-0.461 14.941 2.932 41.708 37.957 74.381 79.739 74.381 1.879 0 3.787-0.067 5.668-0.2 43.997-3.094 77.275-41.408 74.182-85.407-0.374-5.314-1.279-10.417-2.698-15.219 4.696-3.17 7.494-8.67 7.083-14.52l-0.911-12.95c-0.593-8.426-7.669-15.026-16.108-15.026-0.38 0-0.766 0.014-1.146 0.041l-30.665 2.157c-8.927-2.702-18.998-4.071-29.948-4.071zm-5.444 121.18c-29.234 0-53.744-22.864-55.798-52.051-1.108-15.768 4.449-27.18 16.989-34.888 11.227-6.901 25.76-9.207 35.974-9.926 2.797-0.196 5.578-0.296 8.266-0.296 21.821 0 48.287 6.463 50.452 37.255 1.047 14.889-3.782 29.314-13.599 40.616-9.817 11.303-23.423 18.104-38.313 19.151-1.319 0.092-2.655 0.139-3.971 0.139zm-180 12.661c-29.236 0-53.745-22.863-55.798-52.05-1.109-15.768 4.448-27.18 16.988-34.889 11.229-6.902 25.762-9.208 35.976-9.926 2.797-0.197 5.578-0.296 8.266-0.296 21.819 0 48.283 6.462 50.449 37.254 1.048 14.889-3.782 29.313-13.598 40.616-9.817 11.302-23.423 18.104-38.313 19.151-1.318 0.093-2.654 0.14-3.97 0.14z" fill="#231f20"/>
    <circle cx="716.54" cy="-3151.4" r="12.989" fill="#fff" opacity=".3"/>
    <circle cx="536.59" cy="-3137.1" r="12.988" fill="#fff" opacity=".3"/>
   </g>
   <g fill="none" stroke="#231f20" stroke-linecap="round" stroke-linejoin="round" stroke-miterlimit="10" stroke-width="2.6961">
    <path d="m535.16-2653.8s32.052 3.1446 68.149 0"/>
    <path d="m423.11-2656.4s32.404 5.305 74.47 2.6096"/>
    <path d="m611.34-2762.6s-0.69645 15.32 14.581 22.06"/>
   </g>
   <g transform="matrix(.92244 0 0 .92244 28.28 -299.46)">
    <path d="m695.82-2805.7c-8.027 10.658-2.163 22.49 7.063 26.061-1.977 15.756 22.059 14.782 22.059 14.782 18.099 1.461 34.174-11.691 37.343-29.473 0 0 10.384-34.975-17.66-43.393-1.967 11.278-7.405 16.471-17.902 13.436 0 1e-3 -31.391-10.641-30.903 18.587z" fill="#ddae68" stroke="#231f20" stroke-linecap="round" stroke-linejoin="round" stroke-miterlimit="10" stroke-width="4.2523"/>
    <path d="m703.23-2781.8s1.318 0.349 3.347 0.829c2.02 0.479 4.726 1.088 7.448 1.6 2.722 0.515 5.463 0.929 7.534 1.087 0.518 0.045 0.994 0.077 1.414 0.079 0.421 0 0.794 0.035 1.095 0.01 0.609-0.032 0.957-0.051 0.957-0.051s-0.339 0.086-0.933 0.238c-0.298 0.089-0.667 0.13-1.089 0.21-0.424 0.083-0.903 0.145-1.429 0.203-2.101 0.254-4.922 0.385-7.74 0.412-2.819 0.031-5.636-0.04-7.751-0.117-2.106-0.076-3.535-0.164-3.535-0.164h-0.016c-1.214-0.075-2.139-1.121-2.064-2.335 0.075-1.215 1.121-2.139 2.335-2.064 0.143 0.01 0.294 0.034 0.427 0.068z" fill="#231f20"/>
    <path d="m696.51-2807.7s0.645 0.258 1.718 0.637c1.066 0.403 2.666 0.917 4.573 1.549 0.958 0.307 2.007 0.605 3.113 0.94 1.107 0.331 2.272 0.69 3.497 0.998 1.221 0.323 2.483 0.656 3.766 0.995 1.279 0.361 2.604 0.611 3.917 0.925 1.318 0.299 2.636 0.599 3.933 0.894 1.307 0.248 2.593 0.491 3.838 0.728 1.248 0.233 2.454 0.458 3.597 0.672 1.143 0.236 2.236 0.349 3.24 0.504 4.029 0.575 6.715 0.958 6.715 0.958s-2.714-0.111-6.785-0.277c-1.018-0.054-2.128-0.056-3.291-0.176-1.165-0.098-2.395-0.201-3.666-0.308-1.273-0.11-2.589-0.224-3.926-0.34-1.333-0.164-2.686-0.331-4.04-0.497-1.352-0.182-2.717-0.3-4.041-0.532-1.33-0.211-2.638-0.419-3.904-0.62-1.271-0.186-2.487-0.43-3.644-0.651-1.156-0.226-2.253-0.421-3.262-0.636-2.014-0.448-3.69-0.805-4.885-1.123-1.203-0.294-1.84-0.478-1.84-0.478l-0.048-0.014c-1.165-0.336-1.838-1.553-1.502-2.718s1.553-1.837 2.718-1.501c0.071 0.02 0.142 0.045 0.209 0.071z" fill="#231f20"/>
   </g>
   <g transform="matrix(.92244 0 0 .92244 28.28 -254.18)">
    <path d="m407.86-2748.8c19.02 18.368 11.067 40.506-9.005 45.856-1.053 10.792-10.765 17.767-22.392 14.288-15.602 2.471-22.682-7.457-26.417-27.258-5.331-20.819 23.241-48.919 23.241-48.919" fill="#ddae68" stroke="#231f20" stroke-linecap="round" stroke-linejoin="round" stroke-miterlimit="10" stroke-width="4.2523"/>
    <path d="m396.74-2702.8s0.031-6.375 0.175-12.741c0.074-3.185 0.158-6.367 0.303-8.757 0.032-0.596 0.062-1.143 0.088-1.627 0.049-0.485 0.092-0.907 0.127-1.255 0.07-0.691 0.111-1.085 0.111-1.085s0.026 0.397 0.072 1.092c0.022 0.345 0.051 0.763 0.083 1.244 0.055 0.48 0.116 1.022 0.184 1.614 0.252 2.361 0.699 5.505 1.154 8.645 0.917 6.283 1.942 12.541 1.942 12.541 0.191 1.163-0.597 2.26-1.76 2.451s-2.26-0.597-2.451-1.76c-0.019-0.117-0.028-0.249-0.028-0.362z" fill="#231f20"/>
   </g>
   <path d="m387.24-2872.3s8.4597 12.17 30.66 20.076" fill="none" stroke="#231f20" stroke-linecap="round" stroke-linejoin="round" stroke-miterlimit="10" stroke-width="2.6961"/>
   <line x1="491" x2="531.47" y1="-2646.3" y2="-2693.1" fill="none" stroke="#231f20" stroke-linecap="round" stroke-linejoin="round" stroke-miterlimit="10" stroke-width="3.9225"/>
  </g>
 </g>
</svg>
