<?xml version="1.0" encoding="UTF-8"?>
<!-- Created with Inkscape (http://www.inkscape.org/) -->
<svg width="38.374mm" height="65.153mm" version="1.1" viewBox="0 0 38.374 65.153" xmlns="http://www.w3.org/2000/svg" xmlns:cc="http://creativecommons.org/ns#" xmlns:dc="http://purl.org/dc/elements/1.1/" xmlns:rdf="http://www.w3.org/1999/02/22-rdf-syntax-ns#">
 <metadata>
  <rdf:RDF>
   <cc:Work rdf:about="">
    <dc:format>image/svg+xml</dc:format>
    <dc:type rdf:resource="http://purl.org/dc/dcmitype/StillImage"/>
   </cc:Work>
  </rdf:RDF>
 </metadata>
 <g transform="translate(-66.992 -86.019)">
  <g transform="matrix(-.070125 0 0 .070125 121.29 327.57)">
   <ellipse cx="564.18" cy="-2569" rx="202.18" ry="53.475" opacity=".5"/>
   <g stroke="#231f20" stroke-linecap="round" stroke-linejoin="round" stroke-miterlimit="10" stroke-width="4.2523">
    <path d="m603.02-2594.2h-44.755l-1.827 15.588 8.645 1.69c1.83 5.634 7.646 9.757 14.556 9.757h23.382c8.373 0 15.162-6.053 15.162-13.518-1e-3 -7.465-6.79-13.517-15.163-13.517z" fill="#fff"/>
    <path d="m485.01-2594.2h-44.755l-1.827 15.588 8.644 1.69c1.83 5.634 7.646 9.757 14.556 9.757h23.382c8.373 0 15.162-6.053 15.162-13.518-1e-3 -7.465-6.789-13.517-15.162-13.517z" fill="#fff"/>
    <path d="m664.3-2823.2 64.947 16.323s3.653 28.498-5.115 37.266l-75.262-5.115s-25.574-3.653-22.651-34.343" fill="#ddae68"/>
    <path d="m666.81-2836.1c9.452 15.032-44.985 49.259-54.437 34.227l-38.347-60.99c-9.452-15.032-4.928-34.88 10.104-44.332s34.881-4.928 44.333 10.104z" fill="#3a65ba"/>
    <path d="m658.34-2735.9s0.758 77.785-39.796 142.72c0 0-36.941 6.713-66.793 0l-15.56-39.421-34.571 39.421c-33.672 6.713-67.384 0-67.384 0l-37.466-66.152c-34.476-30.646-23.039-76.563-23.039-76.563z" fill="#aed8ed"/>
    <path d="m514.27-3016.6s-72.834 70.146-146.78 277.96c-0.383 18.316 93.978 29.215 176.14 27.475 3.186-0.067 10.535-8.758 10.535-8.758s5.302 8.263 8.429 8.116c53.513-2.518 97.742-10.934 100.19-26.833-0.24-36.506-12.733-75.116-30.382-111.57 8.431-16.524-12.224-29.5-22.47-41.233-42.676-70.779-95.662-125.16-95.662-125.16z" fill="#3a65ba"/>
    <path d="m492.08-2925.7c0.04-1.24 5.766 9.241 10.65 18.422 3.644 6.847 6.82 12.972 6.82 12.972l11.447-14.126 28.497 11.691 21.19-12.422 13.152 12.422-3.653-29.059" fill="none"/>
    <path d="m406.73-2746.4-37.123-5.291 18.769-67.166c3.592-11.772 16.045-18.404 27.819-14.812 11.772 3.59 18.404 16.046 14.813 27.818z" fill="#ddae68"/>
    <path d="m471.69-2875.3-25.249 67.476c-6.224 16.63-66.448-5.906-60.225-22.536l25.25-67.475c6.224-16.63 24.749-25.067 41.38-18.844" fill="#3a65ba"/>
    <polyline points="525.52 -2926.5 549.5 -2896.7 569.22 -2926.5" fill="#ddae68"/>
    <path d="m731.23-3046.9s-5.706 89.294 39.512 100.1c0 0-64.536 46.098-130.39-18.438" fill="#231f20"/>
    <path d="m754.9-3150.9c-7.872-148.92-104.33-263.86-249.32-255.77-145 8.083-256.16 135.35-248.3 284.27 6.086 115.1 102.42 172.48 212.81 188.87 23.185 6.883 28.047 21.91 123.76 19.256 73.75-2.046 91.313-33.771 109.73-57.02 41.378-35.059 55.895-93.113 51.322-179.6z" fill="#ddae68"/>
   </g>
   <g fill="#231f20">
    <path d="m390.11-3145.7c33.528-116.11 222.94-90.813 277.9-125.12 19.038 4.571 81.73 68.644 86.613 106.09 30.605-120.58-18.126-249.65-131.39-253.6-347.9-126.07-468.87 273.95-349.02 440.38 15.746 107.51 109.17 101.43 209.41 85.121-18.893-58.316-118.52-166.26-93.511-252.87z" stroke="#231f20" stroke-linecap="round" stroke-linejoin="round" stroke-miterlimit="10" stroke-width="4.2523"/>
    <path d="m498.06-3128.9c-6.61 0.179-11.831 5.688-11.648 12.301 0.182 6.625 5.697 11.838 12.305 11.667 6.621-0.192 11.84-5.697 11.658-12.32-0.184-6.617-5.696-11.833-12.315-11.648z"/>
    <path d="m678.18-3136.9c-6.616 0.181-11.828 5.694-11.648 12.307 0.178 6.617 5.686 11.833 12.302 11.65 6.622-0.18 11.835-5.687 11.654-12.313-0.179-6.609-5.694-11.826-12.308-11.644z"/>
   </g>
   <path d="m679.05-3015.8c1.729 27.015-30.92 51.084-72.937 53.777-42.025 2.692-77.474-17.03-79.207-44.04-1.731-27.001 32.759-22.419 74.778-25.111 42.019-2.686 75.637-11.634 77.366 15.374z" fill="#db4826"/>
   <path d="m526.98-3005.1 152.14-9.745s4.027-11.935-13.345-17.598c-8.1-2.473-78.997 2.318-119.72 4.712-15.011 3.14-19.096 13.608-19.078 22.631z" fill="#fff"/>
   <path d="m679.05-3015.8c1.729 27.015-30.92 51.084-72.937 53.777-42.025 2.692-77.474-17.03-79.207-44.04-1.731-27.001 32.759-22.419 74.778-25.111 42.019-2.686 75.637-11.634 77.366 15.374z" fill="none" stroke="#231f20" stroke-linecap="round" stroke-linejoin="round" stroke-miterlimit="10" stroke-width="4.2523"/>
   <g id="g4138_1_">
    <path d="m741.93-2830.6c5.691-15.836 11.746-25.002 10.371-47.779-4.728-13.029-12.153-13.667-17.986-24.493 0.968-5.691 1.814-10.892 2.923-16.956 0.874-4.785-4.173-6.16-9.606-7.069l0.013-0.093c-0.346-0.012-0.711-0.042-1.085-0.08-1.15-0.181-2.301-0.354-3.402-0.541-1.099-0.216-2.233-0.464-3.374-0.701-0.359-0.099-0.713-0.199-1.039-0.309l-0.02 0.09c-5.406-1.076-10.609-1.578-11.491 3.208-1.113 6.059-2.165 11.222-3.278 16.889-9.292 8.054-16.464 6.019-25.505 16.522-9.356 20.813-6.944 31.528-7.235 48.353-2.021 22.146-8.89 21.083-14.762 61.681-1.628 8.433 4.23 18.653 12.93 20.048l16.363 2.997 12.555 2.302 16.365 2.999c8.63 1.78 17.73-5.7 19.196-14.162 8.904-40.043 2.103-41.485 8.067-62.906z" fill="#99fff0"/>
    <g opacity=".8">
     <path d="m678.45-2891.9c-6.015 13.384-7.16 22.59-7.297 31.928l76.653 14.044c3.184-8.781 5.378-17.793 4.494-32.44-1.251-3.447-2.693-6.015-4.238-8.146l-62.756-11.497c-2.203 1.443-4.461 3.335-6.856 6.111z" enable-background="new    " fill="#0f0"/>
     <path d="m671.21-2843.5c-0.548 5.984-1.45 10.272-2.587 14.151l70.702 12.953c0.313-4.028 0.992-8.357 2.6-14.145 2.032-5.653 4.104-10.461 5.877-15.339l-76.653-14.044c-0.07 5.188 0.163 10.421 0.061 16.424z" enable-background="new    " fill="#ff0"/>
     <path d="m739.14-2813.1c0.037-1.109 0.1-2.22 0.183-3.35l-70.702-12.953c-0.321 1.087-0.659 2.146-1.015 3.197-2.328 6.893-5.349 13.596-8.357 28.107l77.74 14.243c2.33-14.634 1.883-21.973 2.151-29.244z" enable-background="new    " fill="#f0f"/>
     <path d="m736.76-2782.5c0.075-0.452 0.154-0.916 0.229-1.355l-77.74-14.243c-0.085 0.437-0.18 0.898-0.267 1.348-0.852 4.261-1.705 9.139-2.536 14.878-1.628 8.433 4.23 18.653 12.93 20.048l16.363 2.997 12.555 2.302 16.365 2.999c8.63 1.78 17.73-5.7 19.196-14.162 1.258-5.664 2.191-10.527 2.905-14.812z" enable-background="new    " fill="#f00"/>
    </g>
    <g id="g4051_29_" transform="translate(1.1866 -.51496)" fill="none" stroke="#231f20" stroke-linecap="round" stroke-linejoin="round" stroke-miterlimit="10" stroke-width="4.2523">
     <path id="path3346-5-5_29_" d="m726.46-2926.5c-6.702-0.197-19.013-5.936-20.411 1.667-1.113 6.059-2.165 11.222-3.278 16.889-9.292 8.054-16.464 6.019-25.505 16.522-9.356 20.813-6.944 31.528-7.235 48.353-2.021 22.146-8.89 21.083-14.762 61.681-1.628 8.433 4.23 18.653 12.93 20.048l28.918 5.299"/>
     <path id="path4049_29_" d="m717.56-2928.1c6.331 2.19 19.878 1.188 18.493 8.792-1.109 6.064-1.955 11.264-2.923 16.956 5.833 10.825 13.258 11.464 17.986 24.493 1.375 22.777-4.68 31.943-10.371 47.779-5.964 21.42 0.836 22.863-8.067 62.905-1.466 8.462-10.566 15.942-19.196 14.162l-28.92-5.3"/>
    </g>
    <path id="path3348-2_27_" d="m706.06-2944.2 38.904 7.176-3.943 25.434-40.606-7.391z" fill="#478cd1" stroke="#231f20" stroke-linecap="round" stroke-linejoin="round" stroke-miterlimit="10" stroke-width="4.2523"/>
    <path d="m732.61-2847.7c-0.819 4.389-5.041 7.282-9.43 6.463-4.388-0.818-7.282-5.041-6.465-9.43l3.486-18.67c0.819-4.389 5.041-7.283 9.43-6.464 4.39 0.819 7.281 5.042 6.463 9.43z" fill="#fff"/>
   </g>
   <path d="m549.5-2896.7s11.691 113.02 4.668 176.76" fill="none" stroke="#231f20" stroke-linecap="round" stroke-linejoin="round" stroke-miterlimit="10" stroke-width="4.2523"/>
   <path d="m437.98-2715.7s-0.99 22.056-19.289 27.966" fill="none" stroke="#231f20" stroke-linecap="round" stroke-linejoin="round" stroke-miterlimit="10" stroke-width="2.9228"/>
   <path d="m634.25-2849.2s-0.099 0.149-0.285 0.428c-0.213 0.328-0.502 0.687-0.876 1.173-0.394 0.451-0.85 1.021-1.433 1.599-0.556 0.608-1.246 1.217-1.983 1.893-0.377 0.328-0.79 0.642-1.206 0.98-0.412 0.343-0.852 0.677-1.325 0.99-0.466 0.321-0.944 0.651-1.433 0.988-0.509 0.301-1.03 0.609-1.559 0.921-0.264 0.155-0.531 0.311-0.799 0.468-0.279 0.138-0.56 0.276-0.842 0.416-0.563 0.276-1.133 0.557-1.708 0.839-1.185 0.479-2.376 0.991-3.597 1.402-1.241 0.355-2.445 0.815-3.683 1.069-1.237 0.251-2.43 0.589-3.616 0.748-1.181 0.164-2.322 0.322-3.405 0.473-1.087 0.066-2.115 0.129-3.064 0.188-0.473 0.028-0.926 0.055-1.356 0.081-0.432 0.01-0.842-0.01-1.227-0.013-0.768-0.013-1.438-0.023-1.99-0.032-1.1-0.019-1.728-0.029-1.728-0.029s0.626-0.056 1.723-0.154c0.547-0.049 1.211-0.108 1.972-0.176 0.38-0.038 0.785-0.063 1.209-0.116 0.422-0.07 0.866-0.145 1.33-0.222 0.923-0.155 1.923-0.324 2.98-0.501 1.038-0.258 2.131-0.53 3.263-0.811 1.129-0.274 2.249-0.726 3.405-1.09 1.158-0.366 2.261-0.932 3.396-1.388 1.113-0.512 2.18-1.114 3.236-1.674 0.506-0.319 1.007-0.636 1.503-0.949l0.736-0.463c0.231-0.171 0.461-0.341 0.688-0.51 0.453-0.336 0.899-0.667 1.335-0.991 0.41-0.353 0.811-0.698 1.202-1.034 0.397-0.326 0.761-0.668 1.095-1.015 0.338-0.342 0.677-0.66 0.979-0.984 0.585-0.667 1.135-1.261 1.554-1.835 0.453-0.552 0.775-1.068 1.066-1.477 0.252-0.416 0.471-0.757 0.557-0.937 0.118-0.225 0.182-0.345 0.182-0.345l0.044-0.083c0.547-1.042 1.836-1.442 2.877-0.895 1.042 0.548 1.442 1.836 0.895 2.878-0.033 0.065-0.072 0.13-0.112 0.19z" fill="#231f20"/>
   <path d="m484.94-2841.7s2.82 0.659 7.05 1.647c2.084 0.498 4.515 1.028 7.099 1.598 1.302 0.249 2.627 0.573 3.992 0.816 1.359 0.27 2.735 0.553 4.124 0.771 1.377 0.287 2.768 0.47 4.133 0.699 1.363 0.247 2.714 0.393 4.021 0.592 1.306 0.22 2.577 0.326 3.784 0.484 0.605 0.08 1.194 0.158 1.763 0.233 0.572 0.054 1.125 0.106 1.655 0.156 1.07 0.124 2.05 0.237 2.919 0.337 0.871 0.051 1.638 0.14 2.272 0.203 1.269 0.133 2.009 0.258 2.009 0.258s-0.694 0.244-1.936 0.585c-0.621 0.167-1.378 0.382-2.255 0.579-0.877 0.192-1.875 0.341-2.97 0.502-0.549 0.073-1.121 0.15-1.712 0.229-0.593 0.053-1.207 0.076-1.839 0.118-1.264 0.057-2.605 0.149-3.984 0.075-1.38-0.052-2.816-0.067-4.254-0.261-1.445-0.143-2.909-0.33-4.357-0.606-0.724-0.139-1.447-0.278-2.167-0.417-0.716-0.161-1.422-0.351-2.126-0.523-1.412-0.327-2.765-0.791-4.078-1.208-1.305-0.447-2.549-0.927-3.715-1.413-1.159-0.507-2.248-0.991-3.226-1.506-0.987-0.488-1.86-1.008-2.632-1.463-0.774-0.449-1.422-0.896-1.954-1.258-1.061-0.732-1.616-1.227-1.616-1.227z" fill="#231f20"/>
   <ellipse transform="matrix(.998 -.0632 .0632 .998 198.2 26.166)" cx="512.59" cy="-3119" rx="65.209" ry="56.284" fill="#fff" opacity=".1"/>
   <ellipse transform="matrix(.998 -.0632 .0632 .998 199.26 37.324)" cx="689.44" cy="-3130.2" rx="65.209" ry="56.284" fill="#fff" opacity=".1"/>
   <path d="m510.02-3046.1c-40.669 0-74.765-31.804-77.622-72.404-0.403-5.746-0.139-11.322 0.786-16.607-5.182-1.845-8.895-6.614-9.289-12.225l-0.912-12.95c-0.263-3.739 0.945-7.357 3.404-10.188 2.458-2.83 5.872-4.533 9.611-4.796l31.057-2.186c10.831-5.087 23.816-8.193 38.604-9.233 3.335-0.234 6.641-0.354 9.825-0.354 21.679 0 39.706 5.524 52.25 15.99 1.291-0.526 2.647-0.843 4.048-0.942l50.466-3.55c0.31-0.021 0.617-0.032 0.922-0.032 1.087 0 2.164 0.134 3.217 0.398 12.626-13.98 33.081-22.329 59.275-24.172 3.332-0.234 6.633-0.353 9.813-0.353 10.894 0 20.885 1.376 29.705 4.092l31.057-2.185c0.334-0.023 0.667-0.035 0.997-0.035 7.329 0 13.473 5.731 13.988 13.048l0.911 12.951c0.395 5.612-2.613 10.854-7.486 13.405 1.656 5.104 2.698 10.588 3.102 16.334 3.011 42.83-29.383 80.125-72.21 83.137-1.833 0.129-3.688 0.194-5.513 0.194h-6e-3c-40.67 0-74.765-31.807-77.618-72.405-0.418-5.943-0.127-11.682 0.866-17.1l-28.773 2.025c1.743 5.226 2.835 10.866 3.254 16.811 1.457 20.715-5.261 40.781-18.914 56.5-13.654 15.72-32.583 25.18-53.298 26.637-1.833 0.13-3.689 0.195-5.517 0.195zm5.442-121.18c-2.736 0-5.567 0.102-8.416 0.302-10.451 0.735-25.343 3.107-36.939 10.235-13.095 8.05-19.149 20.448-17.996 36.849 2.131 30.296 27.572 54.027 57.919 54.027 1.366 0 2.751-0.049 4.119-0.145 15.456-1.087 29.58-8.147 39.769-19.878s15.202-26.704 14.114-42.159c-2.28-32.424-29.846-39.231-52.57-39.231zm180-12.661c-2.736 0-5.567 0.102-8.415 0.302-21.645 1.523-57.564 9.667-54.934 47.085 2.132 30.295 27.574 54.027 57.919 54.027 1.366 0 2.751-0.049 4.119-0.145 15.456-1.087 29.58-8.146 39.769-19.877 10.19-11.731 15.203-26.704 14.115-42.16-2.281-32.426-29.848-39.232-52.573-39.232z" fill="#262827"/>
   <path d="m695.47-3197.6c10.948 0 20.812 1.405 29.455 4.115l31.456-2.213c0.284-0.02 0.566-0.03 0.847-0.03 6.196 0 11.425 4.795 11.867 11.072l0.911 12.95c0.387 5.502-3.033 10.38-8.013 12.087 1.942 5.378 3.18 11.263 3.629 17.652 2.929 41.661-28.578 77.937-70.238 80.867-1.803 0.127-3.589 0.189-5.37 0.189-39.361 0-72.696-30.569-75.498-70.427-0.484-6.877 8e-3 -13.311 1.398-19.27l-34.379 2.419c2.211 5.703 3.601 12.006 4.085 18.884 2.93 41.66-28.579 77.937-70.24 80.867-1.8 0.126-3.589 0.189-5.367 0.189-39.363 0-72.696-30.567-75.5-70.427-0.448-6.388-0.047-12.389 1.123-17.985-5.171-0.994-9.239-5.344-9.626-10.846l-0.912-12.95c-0.462-6.561 4.482-12.252 11.043-12.713l31.456-2.214c10.518-5.006 23.339-8.16 38.206-9.205 3.313-0.233 6.538-0.348 9.675-0.348 22.111 0 39.802 5.728 51.912 16.374 1.361-0.74 2.893-1.214 4.537-1.332l50.464-3.549c0.259-0.018 0.517-0.027 0.773-0.027 1.368 0 2.683 0.253 3.904 0.709 11.989-13.972 32.082-22.613 58.737-24.488 3.309-0.235 6.531-0.35 9.665-0.35m-5.444 121.18c1.412 0 2.839-0.05 4.269-0.15 33.128-2.33 58.187-31.179 55.855-64.308-2.434-34.606-32.283-41.209-54.694-41.209-3.018 0-5.901 0.12-8.564 0.307-22.438 1.58-59.666 10.089-56.906 49.355 2.231 31.698 28.733 56.005 60.04 56.005m-180 12.662c1.412 0 2.839-0.05 4.269-0.15 33.128-2.331 58.186-31.179 55.854-64.308-2.434-34.605-32.28-41.209-54.691-41.208-3.017 0-5.902 0.12-8.564 0.307-22.439 1.578-59.669 10.091-56.907 49.355 2.228 31.697 28.732 56.004 60.039 56.004m185.44-138.09c-3.23 0-6.582 0.12-9.962 0.358-26.193 1.843-46.82 10.114-59.875 23.969-0.815-0.133-1.64-0.2-2.469-0.2-0.355 0-0.715 0.013-1.069 0.037l-50.466 3.55c-1.194 0.085-2.36 0.305-3.487 0.657-12.88-10.287-31.017-15.709-52.664-15.709-3.233 0-6.588 0.121-9.974 0.359-14.887 1.047-28.002 4.162-38.998 9.261l-30.665 2.159c-4.306 0.302-8.236 2.264-11.067 5.522-2.831 3.259-4.223 7.425-3.919 11.731l0.912 12.95c0.411 5.849 3.952 10.903 9.045 13.385-0.732 4.952-0.915 10.131-0.542 15.446 2.935 41.709 37.961 74.382 79.742 74.382 1.878 0 3.784-0.067 5.665-0.2 21.282-1.497 40.728-11.214 54.754-27.363 14.026-16.148 20.927-36.762 19.43-58.044-0.362-5.149-1.217-10.082-2.55-14.729l23.424-1.648c-0.668 4.789-0.824 9.792-0.461 14.941 2.932 41.708 37.957 74.381 79.739 74.381 1.879 0 3.787-0.067 5.668-0.2 43.997-3.094 77.275-41.408 74.182-85.407-0.374-5.314-1.279-10.417-2.698-15.219 4.696-3.17 7.494-8.67 7.083-14.52l-0.911-12.95c-0.593-8.426-7.669-15.026-16.108-15.026-0.38 0-0.766 0.014-1.146 0.041l-30.665 2.157c-8.927-2.702-18.998-4.071-29.948-4.071zm-5.444 121.18c-29.234 0-53.744-22.864-55.798-52.051-1.108-15.768 4.449-27.18 16.989-34.888 11.227-6.901 25.76-9.207 35.974-9.926 2.797-0.196 5.578-0.296 8.266-0.296 21.821 0 48.287 6.463 50.452 37.255 1.047 14.889-3.782 29.314-13.599 40.616-9.817 11.303-23.423 18.104-38.313 19.151-1.319 0.092-2.655 0.139-3.971 0.139zm-180 12.661c-29.236 0-53.745-22.863-55.798-52.05-1.109-15.768 4.448-27.18 16.988-34.889 11.229-6.902 25.762-9.208 35.976-9.926 2.797-0.197 5.578-0.296 8.266-0.296 21.819 0 48.283 6.462 50.449 37.254 1.048 14.889-3.782 29.313-13.598 40.616-9.817 11.302-23.423 18.104-38.313 19.151-1.318 0.093-2.654 0.14-3.97 0.14z" fill="#231f20"/>
   <circle cx="716.54" cy="-3151.4" r="12.989" fill="#fff" opacity=".3"/>
   <circle cx="536.59" cy="-3137.1" r="12.988" fill="#fff" opacity=".3"/>
   <g fill="none" stroke="#231f20" stroke-linecap="round" stroke-linejoin="round" stroke-miterlimit="10" stroke-width="2.9228">
    <path d="m549.5-2601.4s34.747 3.409 73.879 0"/>
    <path d="m428.03-2604.2s35.128 5.751 80.731 2.829"/>
    <path d="m632.08-2719.3s-0.755 16.608 15.807 23.915"/>
   </g>
   <path d="m695.82-2805.7c-8.027 10.658-2.163 22.49 7.063 26.061-1.977 15.756 22.059 14.782 22.059 14.782 18.099 1.461 34.174-11.691 37.343-29.473 0 0 10.384-34.975-17.66-43.393-1.967 11.278-7.405 16.471-17.902 13.436 0 1e-3 -31.391-10.641-30.903 18.587z" fill="#ddae68" stroke="#231f20" stroke-linecap="round" stroke-linejoin="round" stroke-miterlimit="10" stroke-width="4.2523"/>
   <path d="m703.23-2781.8s1.318 0.349 3.347 0.829c2.02 0.479 4.726 1.088 7.448 1.6 2.722 0.515 5.463 0.929 7.534 1.087 0.518 0.045 0.994 0.077 1.414 0.079 0.421 0 0.794 0.035 1.095 0.01 0.609-0.032 0.957-0.051 0.957-0.051s-0.339 0.086-0.933 0.238c-0.298 0.089-0.667 0.13-1.089 0.21-0.424 0.083-0.903 0.145-1.429 0.203-2.101 0.254-4.922 0.385-7.74 0.412-2.819 0.031-5.636-0.04-7.751-0.117-2.106-0.076-3.535-0.164-3.535-0.164h-0.016c-1.214-0.075-2.139-1.121-2.064-2.335 0.075-1.215 1.121-2.139 2.335-2.064 0.143 0.01 0.294 0.034 0.427 0.068z" fill="#231f20"/>
   <path d="m696.51-2807.7s0.645 0.258 1.718 0.637c1.066 0.403 2.666 0.917 4.573 1.549 0.958 0.307 2.007 0.605 3.113 0.94 1.107 0.331 2.272 0.69 3.497 0.998 1.221 0.323 2.483 0.656 3.766 0.995 1.279 0.361 2.604 0.611 3.917 0.925 1.318 0.299 2.636 0.599 3.933 0.894 1.307 0.248 2.593 0.491 3.838 0.728 1.248 0.233 2.454 0.458 3.597 0.672 1.143 0.236 2.236 0.349 3.24 0.504 4.029 0.575 6.715 0.958 6.715 0.958s-2.714-0.111-6.785-0.277c-1.018-0.054-2.128-0.056-3.291-0.176-1.165-0.098-2.395-0.201-3.666-0.308-1.273-0.11-2.589-0.224-3.926-0.34-1.333-0.164-2.686-0.331-4.04-0.497-1.352-0.182-2.717-0.3-4.041-0.532-1.33-0.211-2.638-0.419-3.904-0.62-1.271-0.186-2.487-0.43-3.644-0.651-1.156-0.226-2.253-0.421-3.262-0.636-2.014-0.448-3.69-0.805-4.885-1.123-1.203-0.294-1.84-0.478-1.84-0.478l-0.048-0.014c-1.165-0.336-1.838-1.553-1.502-2.718s1.553-1.837 2.718-1.501c0.071 0.02 0.142 0.045 0.209 0.071z" fill="#231f20"/>
   <path d="m407.86-2748.8c19.02 18.368 11.067 40.506-9.005 45.856-1.053 10.792-10.765 17.767-22.392 14.288-15.602 2.471-22.682-7.457-26.417-27.258-5.331-20.819 23.241-48.919 23.241-48.919" fill="#ddae68" stroke="#231f20" stroke-linecap="round" stroke-linejoin="round" stroke-miterlimit="10" stroke-width="4.2523"/>
   <path d="m396.74-2702.8s0.031-6.375 0.175-12.741c0.074-3.185 0.158-6.367 0.303-8.757 0.032-0.596 0.062-1.143 0.088-1.627 0.049-0.485 0.092-0.907 0.127-1.255 0.07-0.691 0.111-1.085 0.111-1.085s0.026 0.397 0.072 1.092c0.022 0.345 0.051 0.763 0.083 1.244 0.055 0.48 0.116 1.022 0.184 1.614 0.252 2.361 0.699 5.505 1.154 8.645 0.917 6.283 1.942 12.541 1.942 12.541 0.191 1.163-0.597 2.26-1.76 2.451s-2.26-0.597-2.451-1.76c-0.019-0.117-0.028-0.249-0.028-0.362z" fill="#231f20"/>
   <path d="m389.14-2838.2s9.171 13.193 33.238 21.764" fill="none" stroke="#231f20" stroke-linecap="round" stroke-linejoin="round" stroke-miterlimit="10" stroke-width="2.9228"/>
   <line x1="501.62" x2="545.5" y1="-2593.2" y2="-2644" fill="none" stroke="#231f20" stroke-linecap="round" stroke-linejoin="round" stroke-miterlimit="10" stroke-width="4.2523"/>
  </g>
 </g>
</svg>
