<?xml version="1.0" encoding="UTF-8"?>
<!-- Created with Inkscape (http://www.inkscape.org/) -->
<svg width="590.58mm" height="381.24mm" version="1.1" viewBox="0 0 590.58 381.24" xmlns="http://www.w3.org/2000/svg">
 <defs>
  <filter id="filter82306" x="0" y="0" width="1" height="1" color-interpolation-filters="sRGB">
   <feColorMatrix values="0.612707 0 0 -0.294364 0.193646 0 0.612707 0 -0.294364 0.193646 0 0 0.612707 -0.294364 0.193646 0 0 0 1 0"/>
  </filter>
  <filter id="filter34921" x="-.015508" y="-.099124" width="1.031" height="1.1982" color-interpolation-filters="sRGB">
   <feGaussianBlur stdDeviation="1.5708483"/>
  </filter>
  <filter id="filter34925" x="-.038261" y="-.047915" width="1.0765" height="1.0958" color-interpolation-filters="sRGB">
   <feGaussianBlur stdDeviation="1.3039418"/>
  </filter>
  <filter id="filter34929" x="-.064617" y="-.074021" width="1.1292" height="1.148" color-interpolation-filters="sRGB">
   <feGaussianBlur stdDeviation="1.3039418"/>
  </filter>
  <filter id="filter80834" x="0" y="0" width="1" height="1" color-interpolation-filters="sRGB">
   <feColorMatrix values="1.03599 0 0 -0.163819 -0.0179953 0 1.03599 0 -0.163819 -0.0179953 0 0 1.03599 -0.163819 -0.0179953 0 0 0 1 0"/>
  </filter>
  <filter id="filter80080" x="0" y="0" width="1" height="1" color-interpolation-filters="sRGB">
   <feColorMatrix values="0.784486 0 0 -0.148818 0.107757 0 0.784486 0 -0.148818 0.107757 0 0 0.784486 -0.148818 0.107757 0 0 0 1 0"/>
  </filter>
  <filter id="filter78846" x="0" y="0" width="1" height="1" color-interpolation-filters="sRGB">
   <feColorMatrix values="0.552643 0 0 -0.16058 0.223679 0 0.552643 0 -0.16058 0.223679 0 0 0.552643 -0.16058 0.223679 0 0 0 1 0"/>
  </filter>
 </defs>
 <g transform="translate(215.49 57.759)">
  <g transform="translate(319.23 265.49)">
   <g transform="matrix(1.026 .088323 -.090979 .99609 138.23 50.453)">
    <path transform="matrix(1.2242 0 0 1.3943 -785.88 -1094.3)" d="m149.18 684.18-1.5173-27.947 10.8-4.4844-2.2323-12.416 6.0972-0.61908 1.8434 3.551 5.4463-0.88434-1.8121-14.464 7.8879-0.71707 1.4382 4.804 11.82-1.2784-2.6092-30.906 14.34-2.3954 2.7916 22.353 8.7094-0.82347 2.4871 12.328 11.141-1.9784-1.4785-8.4072 7.6618-2.8247-9e-3 -7.232 4.5634-0.47357-4.6139-31.368 6.1369-1.6343 2.7346 12.674 3.8387 1.7341-0.55188-4.2638 3.2866-0.61538 5.5468 29.021 8.3301 0.1181-0.73955-11.751 13.565-2.3831 5.9162 18.572 6.7628-1.0535 0.26144-16.748h2.8422l6.57-0.30304 3.1015 13.075 10.553-1.9482c-2.5885-20.587-4.437-33.446-4.437-33.446l15.852-2.7624c1.4791 32.565 3.7848 26.573 3.7848 26.573l6.7118-1.2399-3.431-40.419 15.014 1.1033 2.2172 46.624 3.3697-0.34859 1.4044-21.138 12.873-0.60149 2.5637 25.907 3.81 0.15078 4.7981-4.9061h5.3891l3.8154 13.159 1.7282-32.17h8.0231l0.36976 16.437 12.138-0.41474-0.21717 12.293 4.9872-0.81906-0.31779-23.419c6.7735 0.34523 15.021-0.76378 15.021-0.76378l1.1094 13.951 9.1842-2.037c2.0266-21.166 0.83541-18.678 0.83541-18.678l9.5307-1.4211-0.63677 14.135 7.5297 1.7404v8.0799l7.5294 0.9109v10.382l7.3547-1.5744 0.66311-14.132 11.561 1.2444-2.5885 19.748 5.8717 0.62792 5.4604 5.7607 5.1109-8.359 3.8529 2.5912 4.9604 28.318" fill="#215e87" filter="url(#filter82306)" opacity=".80961"/>
    <g transform="matrix(1.553 0 0 2.4598 -1128.2 -1796.3)" opacity=".8">
     <g transform="matrix(1.0766 0 0 -.93148 678.92 668.24)">
      <path d="m0 0s1.952 2.624 2.624 2.624c0.673 0 2.669-2.714 2.669-2.714l-0.493-1e-3 -0.112-1.412-4.239 0.045-0.067 1.436z" fill="#80b9bb"/>
     </g>
     <g transform="translate(-19.713 .51327)" fill-rule="evenodd" filter="url(#filter34921)" opacity=".71453">
      <path d="m628.93 623.57c-1.7624-5.6987-9.3081-8.0303-3.77-14.388-6.3744-1.0458-17.216-10.042-4.5052-10.402 8.9949-4.8087 22.94 7.1615 10.285 13.767-8.3753 5.7559 5.7478 5.6299-2.0097 11.023z" fill="#b5d0db" fill-opacity=".32263" opacity=".506"/>
      <path d="m416.63 631.27c-5.9756-7.2672 13.679-12.048 1.4256-16.911-14.78-5.9959 18.625-11.464 7.256-20.267-7.6291-0.0216-16.166-1.9857-23.329 0.11264-11.39 3.2496-12.644 16.087-0.41922 18.758 6.114 3.7988 16.757 6.6802 8.0756 14.428 2.3304 1.2932 4.6609 2.5863 6.9913 3.8795z" fill="#9ec1d0" fill-opacity=".43116" opacity=".506"/>
     </g>
     <path transform="matrix(1.1367 .0018234 .0045742 .94331 -60.249 34.851)" d="m452.83 625.17v-7.8375l11.179-5.2249 14.227-8.4908c-14.096-14.254-16.806-15.47 6.0976-22.859 16.211-5.6437 32.319-16.743 13.212-20.9l-55.858 2.1084c-24.884 7.3462-20.927 7.5203-0.42384 22.008l15.63 20.949-15.244 11.756z" fill="#d1d1d1" fill-opacity=".16326" fill-rule="evenodd" filter="url(#filter34925)" opacity=".52683" stroke-width="1.2573"/>
     <path d="m350.78 668.79c10.04-3.2874 7.0785-0.13781 9.2041-7.3643l2.1256-7.2265 8.7508-0.38026 5.7354 2.189 5.9183-8.967 13.295-1.9554 0.47303 1.1164 4.84 0.0968 5.7674-4.7884 6.8296 0.13663 7.6681 9.5736 9.3062-2.1586-0.10678-3.7269 14.391 0.1028-1.1746-4.7462 12.413 0.43347 4.4459-5.215 13.01 0.87934 0.54893-7.5726 14.835-0.97276 2.5085 7.0073 6.893-0.50487 0.81452-1.8693 6.275 7.6904c6.8257 2.8794 5.3041-0.70199 8.9374-2.4121l9.4686 0.0556 2.9315 8.8244 8.6554-5.6147 0.37398-13.305 14.703 0.29415 0.43591 14.735 9.6579 0.37835 1.7846 2.7318 5.0873-3.6831 7.0235-0.0446 0.73596 2.6551 13.596 0.8729 3.3089-4.7389 14.901 0.29811 4.3494 4.3111 4.2992-4.8348 6.601 1.9814 2.3509 12.58" fill="#13659b" opacity="1"/>
     <path d="m561.29 629.21v-4.6976l-6.7005-3.1317-8.5274-5.0891 7.9184-9.0035 1.2182-0.39146-12.791-4.3062c-9.7163-3.3827-19.371-10.036-7.919-12.527l22.538-3.1316 13.401 4.6975 6.0912 3.1318c3.9367 7.4208-2.4627 9.9923-9.7463 15.658l-7.9184 6.655 9.137 7.0464z" fill="#d1d1d1" fill-opacity=".16326" fill-rule="evenodd" filter="url(#filter34929)" opacity=".52683" stroke-width=".75362"/>
    </g>
    <g transform="matrix(1.3203 -.034083 .034889 1.5306 -891.52 -1166)" filter="url(#filter80834)">
     <g transform="matrix(1.2275 0 0 1.662 -288.79 -419.84)" fill="#25527f">
      <g transform="matrix(.98303 0 0 1 20.172 -.82084)">
       <path d="m496.35 651.75-2.4874-16.693-2.9765 0.36686-0.43233-1.9917 15.998-5.6416 14.985 3.0846 0.54188 2.6269-4.081 0.433 2.0377 16.439"/>
       <path d="m524.22 648.03-0.17804-5.7012-2.5453-0.45064-0.67922-2.3253 9.1787-5.0602 10.782 2.8349-0.0581 3.2769s-1.3321 0.13506-1.6419 0.52085c-1.543 1.9218 0.68194 6.0083 0.68194 6.0083"/>
       <path d="m433.62 653.79-1.3869-5.8265-2.3039 0.25662-0.61478-2.1047 8.308-4.5801 9.7594 2.566-0.0526 2.3015-1.4861 0.47144 1.843 6.1044"/>
       <path d="m455.34 652.24-0.1995-6.3881-2.852-0.50493-0.76105-2.6055 10.285-5.6698 12.081 3.1765-0.0651 3.6717s-1.4926 0.15133-1.8397 0.5836c-1.7289 2.1533 0.7641 6.7322 0.7641 6.7322"/>
       <path d="m480.63 650.58-0.1697-5.4339-2.426-0.4295-0.64737-2.2163 8.7483-4.8229 10.277 2.702-0.0554 3.1232s-1.2697 0.12873-1.5649 0.49642c-1.4706 1.8316 0.64996 5.7265 0.64996 5.7265"/>
       <path d="m388.21 661.54c-0.17573-5.6735-0.16695-5.5575-0.17573-5.6735l0.13826-0.11781-2.2326 0.41135c-0.14805-1.8049-0.14805-1.8049-0.14805-1.8049 6.4408-6.6875 6.4408-6.6875 6.4408-6.6875l7.9418 3.4804 0.32332 2.8059-1.6828 0.17926 0.8395 5.1726"/>
       <path d="m597.39 644.7-1.2022-4.2807-2.5004 0.99815-0.61478-2.1047 8.308-4.5801 9.7594 2.566-0.0526 2.3015-2.131-0.21042 0.15695 4.0694"/>
       <path d="m565.99 647.1-1.1526-4.8422-1.9147 0.21327-0.51093-1.7492 6.9045-3.8064 8.1107 2.1325-0.0437 1.9127-1.2351 0.39181 1.5317 5.0732m68.366-1.3482 0.57473-1.7411-2.4979-0.24807 5.5193-2.3912 4.0007 2.7571-1.5662 0.2427-0.15639 2.1"/>
       <path d="m402.3 660.26-1.7017-14.388-2.9765 0.36686-0.43233-1.9917 17.5-4.2773c13.483 1.7202 13.483 1.7202 13.483 1.7202l0.54188 2.6269c-4.081 0.433-4.081 0.433-4.081 0.433l2.3014 11.795"/>
       <path d="m545.31 648.03-0.17191-8.4907-3.3761 0.47618-0.88487-3.0294 11.958-6.5923 14.047 3.6933-0.0757 4.269s-2.3706-0.87156-2.7741-0.36896c-2.0102 2.5036 1.5235 8.875 1.5235 8.875"/>
       <path d="m583.32 644.63-1.0992-10.236-1.9147 0.21327-0.51093-1.7492 6.9045-3.8064 8.1107 2.1325-0.0437 1.9127-1.2351 0.39181 1.4782 10.467"/>
       <path d="m613.73 642.54-0.93033-3.3127-1.9349 0.77243-0.47575-1.6288 6.4292-3.5444 7.5523 1.9857-0.0407 1.781-1.6491-0.16283 2.0112 6.8413"/>
       <path d="m628.56 645.47-0.5579-2.2747-2.5453-0.45064-0.67922-2.3253 9.1787-5.0602 10.782 2.8349-2e-3 1.7475s-3.0645 1.2981-3.0006 1.748c0.47263 3.325 1.766 3.2972 1.766 3.2972"/>
       <path d="m653.16 644.65 0.23665-3.2852-2.8012-0.16676 0.0854-1.0416 5.6535-2.7515 5.0311 4.4937-0.51249 1.1508-2.0631-0.36106-0.21537 2.5109"/>
      </g>
      <path d="m621.14 642.91-2.0394-10.191-1.9349 0.77243-0.47575-1.6288 6.2738-4.518 7.7077 2.9594-0.0407 1.781-1.6491-0.16283 1.2305 10.028"/>
     </g>
     <g transform="matrix(1.0028 0 0 1.1913 -16.192 -128.93)" fill="#ffe200" fill-opacity=".39353">
      <path d="m423.07 646.97 0.84852 8.3792 4.399-0.1399-0.98698-8.6742z"/>
      <path d="m412.49 648.93 0.3359 2.7656 3.3375-0.1399-0.47436-3.0606z"/>
      <path d="m420.3 651.19-0.3359-2.7656-3.3375 0.1399 0.47436 3.0606z"/>
      <path d="m351.41 644.51 0.3359 2.7656 3.3375-0.1399-0.47436-3.0606z"/>
      <path d="m352.24 649.68 0.69725 3.0788 2.9762-0.45315-0.47436-3.0606z"/>
      <path d="m356.32 656.74-0.3359-2.7656-3.3375 0.1399 0.47436 3.0606z"/>
      <path d="m213.18 669.7 0.38119 3.1384 3.7875-0.15876-0.53832-3.4732z"/>
      <path d="m224.01 668.06 3.9622-0.39915 0.53353 3.29-3.7151 0.29337z"/>
      <path d="m239.5 656.61 3.9622-0.39915 0.53353 3.29-3.7151 0.29337z"/>
      <path d="m240.37 661.91 3.893-0.39218 0.52422 3.2326-3.6503 0.28825z"/>
      <path d="m241.33 666.99 0.3359 2.7656 3.3375-0.1399-0.47436-3.0606z"/>
      <path d="m247.06 655.84 0.3359 2.7656 3.3375-0.1399-0.47436-3.0606z"/>
      <path d="m247.19 661.5 0.3359 2.7656 3.3375-0.1399-0.47436-3.0606z"/>
      <path d="m247.85 666.69 0.3359 2.7656 3.3375-0.1399-0.47436-3.0606z"/>
      <path d="m253.37 655.11 0.3359 2.7656 3.3375-0.1399-0.47436-3.0606z"/>
      <path d="m253.56 661.22 0.3359 2.7656 3.3375-0.1399-0.47436-3.0606z"/>
      <path d="m257.63 668.32-0.3359-2.7656-3.3375 0.1399 0.47436 3.0606z"/>
      <path d="m260.46 670.22c-0.52901-6.242-0.52901-6.242-0.52901-6.242l3.2292 0.0241 0.71631 6.268"/>
      <path d="m276.66 660.07 0.69341 2.7299 3.3166-0.47128-0.86993-3.0109z"/>
      <path d="m282.92 659.49 0.98908 5.9838 3.1003-0.51856-1.1306-6.2091z"/>
      <path d="m313.67 656.08 0.18302 2.7921 3.36 2e-3 -0.30564-3.0943z"/>
      <path d="m303.82 656.49 0.18302 2.7921 3.36 2e-3 -0.30564-3.0943z"/>
      <path d="m335.03 657.15c2.5861-0.15113 2.5966-0.162 2.5966-0.162l0.66998 5.0621-2.8033-2e-3z"/>
      <path d="m342.02 657.82c0-1.7494-0.25455-1.8642-0.25455-1.8642l4.2889-0.53041 0.20647 1.8993z"/>
      <path d="m360.44 646.48-0.3359-2.7656-3.3375 0.1399 0.47436 3.0606z"/>
      <path d="m398.38 654.41-0.3359-2.7656-3.3375 0.1399 0.47436 3.0606z"/>
      <path d="m438.86 652.42-0.18291-1.506-1.8174 0.0762 0.25831 1.6666z"/>
      <path d="m465.12 642.08-0.18291-1.506-1.8174 0.0762 0.25831 1.6666z"/>
      <path d="m465.36 644.84-0.18291-1.506-1.8174 0.0762 0.25831 1.6666z"/>
      <path d="m465.56 647.47-0.18291-1.506-1.8174 0.0762 0.25831 1.6666z"/>
      <path d="m462.12 642.39-0.18291-1.506-1.8174 0.0762 0.25831 1.6666z"/>
      <path d="m475.59 649.73-0.18291-1.506-1.8174 0.0762 0.25831 1.6666z"/>
      <path d="m536.1 652.35 0.38053-1.4773-1.7485-0.44081-0.36821 1.6506z"/>
      <path d="m544.99 651.93-0.18291-1.506-1.8174 0.0762 0.25831 1.6666z"/>
      <path d="m516.82 650.63-0.29622-2.4389-2.9433 0.12341 0.41834 2.699z"/>
      <path d="m478.18 649.4-0.18291-1.506-1.8174 0.0762 0.25831 1.6666z"/>
      <path d="m494.58 649.13-0.14154-1.1654-1.4064 0.059 0.1999 1.2897z"/>
      <path d="m496.59 648.87-0.14154-1.1654-1.4064 0.059 0.19989 1.2897z"/>
      <path d="m494.46 637.76-0.14154-1.1654-1.4064 0.059 0.1999 1.2897z"/>
      <path d="m496.46 637.5-0.14154-1.1654-1.4064 0.059 0.19989 1.2897z"/>
      <path d="m520.89 650.64-0.29622-2.4389-2.9433 0.12341 0.41834 2.699z"/>
     </g>
    </g>
    <path transform="matrix(1.2242 0 0 1.3943 -785.1 -1093.7)" d="m111.73 703.97c6.7003-13.029 11.893-15.558 24.347-18.949l16.357-4.4535 19.742-1.1416c-3.423 7.4083 22.445-1.2668 33.762-1.9523l-0.019-4.8763s33.408-12.442 66.07-12.501l24.694 0.61948 10.587 1.5041 11.622 0.3208c6.4058-9.4773 25.274-5.4158 34.081-8.1144l9.5207 2.1944c6.0614-0.4062 12.653-4.1371 16.884-4.5338 13.539-1.2694 17.546 0.82191 24.295-0.51245 2.566-0.50732 5.2994-1.0283 8.7006-1.5697l50.617-3.7835 22.363 3.149c31.819 0.65384 43.567-8.5023 59.126 14.757z" fill="#043e77" filter="url(#filter80080)"/>
   </g>
   <path d="m-364.83-442.85c-0.20409-0.48652-0.40485-0.97456-0.60859-1.4613-0.0263 0.0671-0.0533-0.18385 0.0606-0.0746 0.67713 0.18202 1.3738 0.27686 2.0722 0.29161 0.16567 0.0452 0.32191 0.15983 0.49759 0.13064 0.2596 0.0298-0.0384-0.0984-0.0215-0.15151 0.23659 0.071-2e-3 -0.15855 0.0389-0.11531 0.0611 0.10903 0.18887 0.12799 0.27304 0.0408 0.1818-0.19461-0.32047-0.23948-0.15998-0.29585 0.16907-0.0252 0.38127-0.0675 0.11985-0.14743-0.0987-0.0537-0.42579 0.072-0.25202-0.10443 0.27356-0.3117 0.59348-0.57446 0.90139-0.84546-0.26192-0.19305-0.53942-4e-3 -0.76857 0.14461-0.26722 0.15683-0.53648 0.30977-0.80283 0.46823 0.1152 0.13399 0.23875 0.26002 0.3583 0.38985-0.12278-0.12883-0.24565-0.25758-0.36846-0.38634-0.0872 0.0428-0.16808 0.13944-0.26806 0.0777-0.35778-0.11307-0.72207-0.20738-1.076-0.33122 0.49126-0.13973 0.98576-0.26847 1.4766-0.40935-0.24022-0.13594-0.5106-0.14091-0.77517-0.10805-0.69603 0.0347-1.3943 0.0839-2.0893 0.11112-0.63923-0.17098-1.2723-0.43054-1.9397-0.43143-0.17089 0.0159-0.75438 0.0382-0.49775 0.33351 0.36547 0.38081 0.87431 0.55137 1.3466 0.73356 0.2292 0.10945 0.52985 0.10722 0.68042 0.34678 0.0163 0.10262-0.12441 0.37411 0.0563 0.39893 0.25991 0.0473 0.48253 0.17265 0.62731 0.4113 0.0525 1e-3 0.11226 0.18817 0.22453 0.26568 0.21683 0.22427 0.37606 0.52305 0.64534 0.68314 0.0367 6e-3 0.32166 0.14461 0.24876 0.035zm-1.0582-0.99592c0.0371-0.0431 0.0619-0.0558 0 0zm0.0528-0.0559c0.0371-0.0431 0.0619-0.0558 0 0zm0.0528-0.0559c0.0371-0.0431 0.0619-0.0558 0 0zm0.0528-0.0559c0.0371-0.0431 0.0619-0.0558 0 0zm0.0526-0.0559c0.0371-0.0431 0.0619-0.0558 0 0zm0.0528-0.0559c0.0371-0.0431 0.062-0.0558 0 0zm0.0528-0.0559c0.0371-0.0431 0.062-0.0558 0 0zm2.5068-0.0494c5e-3 -0.0351 0.0312 8e-3 0 0zm-2.4543-6e-3c0.0371-0.0431 0.062-0.0558 0 0zm2.6879-0.0329c-0.0338-0.0499 0.0491 0.0506 0 0zm-0.069-0.0733c-0.0465-0.062 0.0619 0.0632 0 0zm-0.036-0.0251c-0.0491-0.068 0.0408 0.01 0 0zm-2.3778-0.0434c-0.0835 0.031 6e-3 -0.0443-0.1081-0.11433-0.11789-0.12214-0.13088-0.14595-2e-3 -8e-3 0.034 0.147 0.20602 0.0112 0.11618 0.08-0.0629 0.0174 0.1043 0.13482-5e-3 0.0439zm2.3178-0.0346c-0.0689-0.0818 0.0759 0.0814 0 0zm-0.0457-0.0471c-0.0338-0.0499 0.0491 0.0508 0 0zm-2.2141-0.0231c0.0371-0.0431 0.062-0.0558 0 0zm2.1614-0.0328c-0.0338-0.0499 0.0491 0.0506 0 0zm-2.0958-0.0369c0.0688-0.0735-0.0638 0.0816 0 0zm0.0463-0.0494c0.0411-0.0485 0.0346-0.0247 0 0zm-0.44456-0.0692c-0.0689-0.0818 0.0759 0.0814 0 0zm0.49719 0.0139c0.0411-0.0482 0.0346-0.0247 0 0zm0.0528-0.0559c0.0411-0.0482 0.0346-0.0248 0 0zm-0.60619-0.0169c9e-3 -0.0173 0.0273 0.0354 0 0zm0.65883-0.0389c0.0411-0.0485 0.0346-0.0247 0 0zm-0.71144-0.0169c9e-3 -0.0173 0.027 0.0354 0 0zm0.76409-0.039c0.0411-0.0482 0.0346-0.0247 0 0zm-0.81673-0.0169c9e-3 -0.0173 0.027 0.0354 0 0zm0.86935-0.0389c0.0411-0.0482 0.0346-0.0248 0 0zm-0.922-0.0169c9e-3 -0.0173 0.0272 0.0354 0 0zm-1.4006-0.0245c0.0343-0.0379 0.28235-0.29776 0.13109-0.13622-0.0438 0.0452-0.0834 0.0956-0.13109 0.13622zm2.3752-0.0155c0.0411-0.0482 0.0346-0.0247 0 0zm-1.0273-0.0169c9e-3 -0.0173 0.0272 0.0354 0 0zm1.0799-0.0389c0.0411-0.0482 0.0348-0.0248 0 0zm0.0528-0.0559c0.0411-0.0485 0.0346-0.0245 0 0zm-1.2378-0.0169c9e-3 -0.0173 0.0272 0.0354 0 0z" fill="#a9cdd8" stroke="#000" stroke-width=".0010404"/>
   <g transform="rotate(-6.4279 1964.1 7192.3)">
    <g transform="matrix(-.9611 .0029823 -.0057145 -.94937 1214.4 -475.36)">
     <path transform="matrix(1.3352 .004511 .0051302 1.4754 -998.32 -1165.6)" d="m1101.2 613.66c32.535-13.402 40.124-21.568 40.018-25.07l-0.097-2.2474s-10.395 3.0151-2.4833-1.2665l7.9117-4.2816 12.744 4.6826s-6.5855-0.31463-6.4957 0.83081l0.2341 2.9845 5.1933-0.52698c1.6641-3.4822 5.8786-5.1362 4.0196-11.144 0 0 6.9901-2.5238 9.6308 0.44755l0.8039 4.6634 4.6018 2.4866s3.9302 1.8401 4.123-0.86312l0.1928-2.7032 10.262 0.91721s-5.0276 8.0393 1.3379 6.7046c6.3654-1.3348 3.6782 11.315 6.3654-1.3348l2.597-12.225s-8.1221-7.0506 0.6249-6.1017c8.747 0.94892 5.1993-7.2255 9.0276-0.24754 1.2392 2.2588 9.6663 1.2765 7.4213 4.5594-1.3984 2.0452-1.0486 2.9512-5.5992 3.689-1.0978 3.2808 0.8319 8.3288 0.5968 11.739 0 0 1.2332 4.9538 4.4667 2.1506l3.2337-2.8032s6.9672 2.4695 7.1998-0.98195l0.4045-6.0038s-4.8-3.9448 8.5312-3.8365c7.3972 0.06 8.2002 0.70691 7.3286 3.0111-0.6956 1.8385-0.7652 5.162 0.1872 7.2568l0.9522 2.0948s7.7338 3.02 9.369-0.26846l1.6352-3.2885-0.2539-4.6694s-8.5224-3.2724 0.7742-3.974c9.2964-0.70161 1.9395-3.6547 9.2964-0.70161l7.3571 2.9531-2.4622 2.1727s-5.1472 4.2922 1.0588 5.1807l6.2061 0.88847 2.4918 2.9367 8.6384-6.1575s-5.0558-4.4502 1.7393-3.8545l6.7951 0.59567c5.6002 3.8511 4.6207 5.699 0.043 6.4514 0 0 0.1542 9.341 1.958 8.5023l1.8029-0.83873s5.9881-2.6748 6.8064 1.8834l0.8182 4.5581 5.9934 2.0831 4.1775-14.42s3.7009-1.1743 8.4307 0.91742c1.3269 0.58685 1.7844 17.312 6.0064 12.986 1.789-1.8335 4.3879 6.4139 6.8983 6.1753 0.95-0.0901 2.792-3.6156 1.3157-2.8589-0.688 0.35273-0.062-1.9258 0.8598-2.7161 1.0756-0.92149 6.0169-2.9662 8.4191 0.32367 4.0657 5.5682 0.3131 4.5646 0.9919 3.3552 0.7736-1.3783-1.2422 10.967 2.9668 3.8166 0.3658-0.6216-1.1023-3.6723 1.9104-4.2406 1.928-0.36366 4.2677 0.91978 6.1889 2.2867 3.2378 2.3036-1.0646 6.2548-0.2368 6.6658 11.553 5.737 15.019 15.024 15.412 16.842 1.4448 6.675 9.9803 9.0892 16.239 12.969 4.7559 2.9481 2.0085 19.408 2.0831 20.819" fill="#22631e" filter="url(#filter78846)"/>
     <g fill="#12ffff" fill-opacity=".32549">
      <ellipse transform="matrix(1.3064 .31523 -.31911 1.4302 -998.32 -1165.6)" cx="1482.5" cy="310.61" rx=".91632" ry=".73568" filter="url(#filter78846)"/>
      <ellipse transform="matrix(1.3064 .31523 -.31911 1.4302 -998.32 -1165.6)" cx="1441.9" cy="305.39" rx=".91632" ry=".73568" filter="url(#filter78846)"/>
      <ellipse transform="matrix(1.3064 .31523 -.31911 1.4302 -998.32 -1165.6)" cx="1442.1" cy="308.03" rx=".91632" ry=".73568" filter="url(#filter78846)"/>
      <ellipse transform="matrix(1.3064 .31523 -.31911 1.4302 -998.32 -1165.6)" cx="1441.7" cy="302.95" rx=".91632" ry=".73568" filter="url(#filter78846)"/>
      <ellipse transform="matrix(1.3064 .31523 -.31911 1.4302 -998.32 -1165.6)" cx="1441.7" cy="302.95" rx=".91632" ry=".73568" filter="url(#filter78846)"/>
      <ellipse transform="matrix(1.2968 .3615 -.27707 1.4411 -998.32 -1165.6)" cx="1457.1" cy="263.23" rx="1.1481" ry="1.0511" filter="url(#filter78846)"/>
      <ellipse transform="matrix(1.3352 .004511 .0051302 1.4754 -998.32 -1165.6)" cx="1307.3" cy="592.62" rx=".91958" ry=".73267" filter="url(#filter78846)"/>
      <ellipse transform="matrix(1.3352 .004511 .0051302 1.4754 -998.32 -1165.6)" cx="1289.5" cy="593.45" rx=".64578" ry=".51452" filter="url(#filter78846)"/>
      <ellipse transform="matrix(1.3352 .004511 .0051302 1.4754 -998.32 -1165.6)" cx="1287.3" cy="593.14" rx=".91958" ry=".73267" filter="url(#filter78846)"/>
      <ellipse transform="matrix(1.3352 .004511 .0051302 1.4754 -998.32 -1165.6)" cx="1186.7" cy="587.38" rx=".91958" ry=".73267" filter="url(#filter78846)"/>
      <ellipse transform="matrix(1.3352 .004511 .0051302 1.4754 -998.32 -1165.6)" cx="1186.8" cy="590.01" rx=".91958" ry=".73267" filter="url(#filter78846)"/>
      <ellipse transform="matrix(1.3352 .004511 .0051302 1.4754 -998.32 -1165.6)" cx="1165.9" cy="591.76" rx=".91958" ry=".73267" filter="url(#filter78846)"/>
     </g>
     <path transform="matrix(1.3352 .004511 .0051302 1.4754 -998.32 -1165.6)" d="m1074.4 637.16-1.4116-17.152c0.5157 0.32887 23.622-3.1073 32.892-14.141 14.098-16.778 17.461 7.4834 23.556 2.483l6.0942-5.0005 8.7714 2.508 19.452 5.0741s-15.86 9.071 11.356 10.415l27.215 1.3444s5.8732-8.1029 21.539-7.7418c15.666 0.36105 5.3793-8.4361 15.666 0.36105l10.286 8.7972 15.237-5.2592s9.0211-14.679 23.702-1.3849l14.681 13.294s5.1449 0.69242 27.898 0.23079c22.753-0.4616 11.162-6.6934 22.753-0.4616l11.591 6.2318c12.641-3.4187 10.872 5.0071 21.746 10.076 2.224 1.0366 21.125-2.0474 22.94-1.0031 12.82 9.15 11.151 19.238 10.084 29.288 8.9982-9.0652 7.4627 20.673-3.659 12.072l-35.356-15.493" fill="#32c531" filter="url(#filter78846)"/>
     <path transform="matrix(1.3352 .004511 .0051302 1.4754 -998.32 -1165.6)" d="m1057 653.67 3.46-12.425" fill="#5dd65d" fill-opacity=".88628" filter="url(#filter78846)" opacity=".7"/>
     <path transform="matrix(1.3352 .004511 .0051302 1.4754 -998.32 -1165.6)" d="m1052.6 656.9s-13.466-6.0008-3.1416-13.593l10.324-7.5926 23.9 0.73855 22.74-12.27 25.586 5.5438 13.339 3.3633 26.732-4.5125 43.712-4.1106 6.3629 6.019s-3.1637 4.2722 14.529 4.5349l17.693 0.26271 12.124 7.2708s10.173-10.634 18.598-5.6917l8.4246 4.9423 12.934 1.9396 17.921-6.0459 14.607 8.3984 18.973 3.315 2.6339 3.997 16.215 0.72316 11.287 7.5912s3.5582-5.981 11.421-1.6718c7.8624 4.3092 11.271-11.09 7.8624 4.3092l-4.3832 19.802" fill="#32c531" filter="url(#filter78846)"/>
     <path transform="matrix(1.3352 .004511 .0051302 1.4754 -998.32 -1165.6)" d="m1375.2 693.24-1.712-5.2005-0.9448-7.0351 0.1203-6.9266 7.2139-5.388s9.5295 3.212 9.2975-0.96389l7.3639-7.9122c-9.0161-10.876-12.929-10.421-28.565-9.5605-13.744 8.8691-19.728 6.6916-5.3085 16.433l5.342 5.571c-1.7605 4.9762 0.2158 10.208-1.6134 13.386l-2.5679 4.2221" fill="#299d28" fill-opacity=".99608" filter="url(#filter78846)"/>
     <path transform="matrix(1.3352 .004511 .0051302 1.4754 -998.32 -1165.6)" d="m1061.4 652.29 1.9519-10.083-5.0605-0.17056 7.853-5.8724 9.8316-3.4034 8.113-0.31237 9.2935 2.9773 6.5239 7.5109-5.6705 9e-3 2.296 9.8396" fill="#a38043" filter="url(#filter78846)"/>
     <path transform="matrix(1.3352 .004511 .0051302 1.4754 -998.32 -1165.6)" d="m1056.5 651.63 16.628-13.524" fill="#5dd65d" fill-opacity=".88628" filter="url(#filter78846)" opacity=".7"/>
     <path transform="matrix(1.3352 .004511 .0051302 1.4754 -998.32 -1165.6)" d="m1115.1 654.08 0.2446-15.115-5.0605-0.17056 7.853-5.8724 9.8316-3.4034 8.113-0.31237 9.2935 2.9773 6.5239 7.5109-5.6705 9e-3 0.8433 14.557" fill="#ba8c3c" filter="url(#filter78846)"/>
     <path transform="matrix(1.3352 .004511 .0051302 1.4754 -998.32 -1165.6)" d="m1166.1 655.19 2.2147-13.074-4.9913-0.75294 8.6614-4.9156 8.5368-2.4395 5.9423 0.37648 8.7688 4.0238 5.3467 8.1987-5.6228-0.64531-1.0531 12.647" fill="#ba8c3c" filter="url(#filter78846)"/>
     <path transform="matrix(1.3352 .004511 .0051302 1.4754 -998.32 -1165.6)" d="m1097.7 652.97 2.6314-4.3681 2.4839-6.1376 1.6213-6.2181-4.3256-6.024s-8.2728 1.2853-7.0563-2.4127l1.2165-3.698 8.2866-7.0864 10.261 3.0132s10.438 6.2216 5.8658 8.7412l-4.5727 2.5196-5.5714 4.0944-0.7209 5.594s-2.2979 2.4472-1.3288 6.6534l0.969 4.2062" fill="#2ca92b" fill-opacity=".99608" filter="url(#filter78846)"/>
     <g>
      <path transform="matrix(1.3352 .004511 .0051302 1.4754 -998.32 -1165.6)" d="m1153.9 652.99 3.6083-9.9199 1.1713-7.999-1.7415-7.1248-3.6071-2.5828-3.6619-2.86-1.8167-6.5539 8.5656-6.0246 21.795-0.53819 4.3248 14.308c-1.9663 6.8419-9.7078 9.0532-17.878 8.0798l-1.9385 7.7645-0.3866 5.6271 3.1761 8.9158" fill="#279926" filter="url(#filter78846)"/>
      <path transform="matrix(1.3352 .004511 .0051302 1.4754 -998.32 -1165.6)" d="m1200.2 659.4 1.4542-7.5114-3.77-0.12706 5.8503-4.3748 7.3243-2.5354 6.044-0.23271 6.9235 2.218 4.8601 5.5955-4.2244 7e-3 1.7105 7.3303" fill="#b58b41" filter="url(#filter78846)"/>
      <path transform="matrix(1.3352 .004511 .0051302 1.4754 -998.32 -1165.6)" d="m1214.9 661.33c2.069-5.4046 5.064-10.02 5.064-10.02l0.2043-4.9779-2.1314-3.848s-8.7389 11.52-10.239 2.992l-1.5-8.5277 2.9307-4.8668 11.937-4.2762 16.002 7.0166 1.2254 10.613s-0.048-0.36017-5.6321-0.0599l-5.584 0.30025-4.2952 8.6426 1.7171 6.663" fill="#289d28" filter="url(#filter78846)"/>
      <path transform="matrix(1.3352 .004511 .0051302 1.4754 -998.32 -1165.6)" d="m1237.6 659.62 2.1763-14.995-5.0068-0.66637 8.5546-5.0643 10.205-2.4166 8.1019 0.4862 8.8541 3.871 5.5221 8.1042-5.6359-0.54783-1.024 14.548" fill="#b58b41" filter="url(#filter78846)"/>
      <path transform="matrix(1.3352 .004511 .0051302 1.4754 -998.32 -1165.6)" d="m1251 659.01-0.5506-7.4619c1.2686-3.0078 6.732-3.1183 7.4107 0.35804l0.06 7.0294" fill="#8d7240" filter="url(#filter78846)"/>
      <path transform="matrix(1.3352 .004511 .0051302 1.4754 -998.32 -1165.6)" d="m1282.9 663.28 3.0246-12.572-4.189-0.86722 7.6459-3.7731 8.8355-1.4302 6.8253 0.90172 7.1959 3.8147 4.0398 7.1994-4.7313-0.80483-2.0133 12.263" fill="#a28146" filter="url(#filter78846)"/>
      <path transform="matrix(1.3352 .004511 .0051302 1.4754 -998.32 -1165.6)" d="m1305.7 667.64 1.6336-17.012-5.6861-0.54121 9.3753-6.0745 11.382-3.1563 9.1688 0.20766 10.203 3.9954 6.6752 8.9122-6.3894-0.38098-0.358 16.459" fill="#9e7936" filter="url(#filter78846)"/>
      <path transform="matrix(1.3352 .004511 .0051302 1.4754 -998.32 -1165.6)" d="m1349.6 669.41 3.3899-8.484-4.3561-0.80226 7.7938-4.0727 9.0923-1.6774 7.0823 0.77859 7.551 3.7817 4.3874 7.3518-4.9148-0.72557 0.3317 8.8227" fill="#b38534" filter="url(#filter78846)"/>
      <path transform="matrix(1.3352 .004511 .0051302 1.4754 -998.32 -1165.6)" d="m1364.9 671.14 1.5412-6.1114c1.8166-2.1201 6.2277-0.95036 5.8483 1.994l-1.82 5.6514" fill="#a18249" filter="url(#filter78846)"/>
      <ellipse transform="matrix(1.3352 .004511 .0051302 1.4754 -998.32 -1165.6)" cx="1362.2" cy="663.27" rx="2.2304" ry="1.7771" fill="#bd841f" filter="url(#filter78846)"/>
      <path transform="matrix(1.3352 .004511 .0051302 1.4754 -998.32 -1165.6)" d="m1390.6 678.51 1.8519-7.8014-2.3798-0.7377 4.2579-3.745 4.9673-1.5425 3.8692 0.71593 4.1252 3.4774 2.3969 6.7602-2.685-0.66719 0.1812 8.1128" fill="#c58f31" filter="url(#filter78846)"/>
     </g>
     <path transform="matrix(1.3352 .004511 .0051302 1.4754 -998.32 -1165.6)" d="m1325.4 670.67-1.712-5.9308-0.9448-8.0231 0.1203-7.8994 7.2139-6.1447s9.5295 3.6631 9.2975-1.0993l7.3639-9.0234c-9.0161-12.403-12.929-11.885-28.565-10.903-13.744 10.115-19.728 7.6314-5.3085 18.741l5.342 6.3534c-1.7605 5.6751 0.2158 11.641-1.6134 15.266l-2.5679 4.8151" fill="#299d28" fill-opacity=".99608" filter="url(#filter78846)"/>
     <g>
      <path transform="matrix(1.3352 .004511 .0051302 1.4754 -998.32 -1165.6)" d="m1082.6 651.28 0.228-5.5984c1.5763-2.894 7.0284-2.5676 7.3426 0.94841l-0.7943 6.1944" fill="#a18249" filter="url(#filter78846)"/>
      <path transform="matrix(1.3352 .004511 .0051302 1.4754 -998.32 -1165.6)" d="m1443.7 701.89c-4.7213-20.965-8.066-17.469-30.853-20.948-29.24-5.4016-40.452-8.7308-63.867-14.458-31.322 2.4529-61.822-3.9559-92.57-8.2674-46.63 8.0156-79.445-8.2584-115.03-5.9865l-55.749-0.3441c-28.555-2.5546-64.991-8.9616-65.444 11.924z" fill="#319e31" filter="url(#filter78846)"/>
      <path transform="matrix(1.3352 .004511 .0051302 1.4754 -998.32 -1165.6)" d="m1130.1 652.52-0.5506-7.4619c1.2686-3.0078 6.732-3.1183 7.4107 0.35804l0.06 7.0294" fill="#a18249" filter="url(#filter78846)"/>
      <ellipse transform="matrix(1.3352 .004511 .0051302 1.4754 -998.32 -1165.6)" cx="1375.7" cy="665.66" rx="2.2304" ry="1.7771" fill="#bd841f" filter="url(#filter78846)"/>
     </g>
     <g fill="#12ffff" fill-opacity=".32549">
      <ellipse transform="matrix(1.3352 .004511 .0051302 1.4754 -998.32 -1165.6)" cx="1168.6" cy="591.71" rx=".91958" ry=".73267" filter="url(#filter78846)"/>
      <ellipse transform="matrix(1.3352 .004511 .0051302 1.4754 -998.32 -1165.6)" cx="1186.5" cy="584.95" rx=".91958" ry=".73267" filter="url(#filter78846)"/>
      <ellipse transform="matrix(1.3352 .004511 .0051302 1.4754 -998.32 -1165.6)" cx="1186.5" cy="584.95" rx=".91958" ry=".73267" filter="url(#filter78846)"/>
     </g>
     <path transform="matrix(1.3352 .004511 .0051302 1.4754 -998.32 -1165.6)" d="m1179.5 655.33 2.1375-7.2375c2.277-2.5065 7.5044-1.1054 6.9094 2.3828l-2.4491 6.6916" fill="#8d7240" filter="url(#filter78846)"/>
     <g fill="#c69b01" fill-opacity=".7018">
      <ellipse transform="matrix(.99999 .0033784 .0034772 .99999 0 0)" cx="577.46" cy="-209.92" rx="3.5893" ry="3.1599"/>
      <ellipse transform="matrix(.99999 .0033784 .0034772 .99999 0 0)" cx="693.16" cy="-203.14" rx="2.6566" ry="2.3388"/>
      <ellipse transform="matrix(.99999 .0033784 .0034772 .99999 0 0)" cx="735.49" cy="-198.09" rx="4.2913" ry="3.7779"/>
      <ellipse transform="matrix(.99999 .0033784 .0034772 .99999 0 0)" cx="787.4" cy="-196.63" rx="4.2913" ry="3.7779"/>
      <ellipse transform="matrix(.99999 .0033784 .0034772 .99999 0 0)" cx="534.83" cy="-214.7" rx="3.3666" ry="3.7779"/>
      <ellipse transform="matrix(.99999 .0033784 .0034772 .99999 0 0)" cx="441.13" cy="-213.65" rx="4.2913" ry="3.7779"/>
      <ellipse transform="matrix(.99999 .0033784 .0034772 .99999 0 0)" cx="507.01" cy="-213.46" rx="4.2913" ry="3.7779"/>
     </g>
    </g>
   </g>
  </g>
 </g>
</svg>
