<?xml version="1.0" encoding="UTF-8" standalone="no"?>
<!-- Created with Inkscape (http://www.inkscape.org/) -->

<svg
   width="566.86377mm"
   height="307.67935mm"
   viewBox="0 0 566.86378 307.67935"
   version="1.1"
   id="svg1046"
   inkscape:version="1.2.2 (b0a8486541, 2022-12-01)"
   sodipodi:docname="city-village-night.svg"
   inkscape:export-filename="city-village-night.webp"
   inkscape:export-xdpi="26.884766"
   inkscape:export-ydpi="26.884766"
   xmlns:inkscape="http://www.inkscape.org/namespaces/inkscape"
   xmlns:sodipodi="http://sodipodi.sourceforge.net/DTD/sodipodi-0.dtd"
   xmlns="http://www.w3.org/2000/svg"
   xmlns:svg="http://www.w3.org/2000/svg">
  <sodipodi:namedview
     id="namedview1048"
     pagecolor="#ffffff"
     bordercolor="#000000"
     borderopacity="0.25"
     inkscape:showpageshadow="2"
     inkscape:pageopacity="0.0"
     inkscape:pagecheckerboard="0"
     inkscape:deskcolor="#d1d1d1"
     inkscape:document-units="mm"
     showgrid="false"
     inkscape:zoom="0.2713383"
     inkscape:cx="1733.9977"
     inkscape:cy="1138.7998"
     inkscape:window-width="1503"
     inkscape:window-height="934"
     inkscape:window-x="0"
     inkscape:window-y="0"
     inkscape:window-maximized="1"
     inkscape:current-layer="g23020"
     showguides="true">
    <sodipodi:guide
       position="282.98054,309.45911"
       orientation="1,0"
       id="guide117590"
       inkscape:locked="false" />
  </sodipodi:namedview>
  <defs
     id="defs1043">
    <filter
       style="color-interpolation-filters:sRGB"
       inkscape:label="Lightness-Contrast"
       id="filter82306"
       x="0"
       y="0"
       width="1"
       height="1">
      <feColorMatrix
         values="0.612707 0 0 -0.294364 0.193646 0 0.612707 0 -0.294364 0.193646 0 0 0.612707 -0.294364 0.193646 0 0 0 1 0"
         id="feColorMatrix82304" />
    </filter>
    <filter
       style="color-interpolation-filters:sRGB"
       inkscape:label="Lightness-Contrast"
       id="filter80834"
       x="0"
       y="0"
       width="1"
       height="1">
      <feColorMatrix
         values="1.03599 0 0 -0.163819 -0.0179953 0 1.03599 0 -0.163819 -0.0179953 0 0 1.03599 -0.163819 -0.0179953 0 0 0 1 0"
         id="feColorMatrix80832" />
    </filter>
    <filter
       style="color-interpolation-filters:sRGB"
       inkscape:label="Lightness-Contrast"
       id="filter80080"
       x="0"
       y="0"
       width="1"
       height="1">
      <feColorMatrix
         values="0.784486 0 0 -0.148818 0.107757 0 0.784486 0 -0.148818 0.107757 0 0 0.784486 -0.148818 0.107757 0 0 0 1 0"
         id="feColorMatrix80078" />
    </filter>
    <filter
       style="color-interpolation-filters:sRGB"
       inkscape:label="Lightness-Contrast"
       id="filter78846"
       x="0"
       y="0"
       width="1"
       height="1">
      <feColorMatrix
         values="0.552643 0 0 -0.16058 0.223679 0 0.552643 0 -0.16058 0.223679 0 0 0.552643 -0.16058 0.223679 0 0 0 1 0"
         id="feColorMatrix78844" />
    </filter>
    <filter
       style="color-interpolation-filters:sRGB"
       inkscape:label="Lightness-Contrast"
       id="filter80834-6"
       x="0"
       y="0"
       width="1"
       height="1">
      <feColorMatrix
         values="1.03599 0 0 -0.163819 -0.0179953 0 1.03599 0 -0.163819 -0.0179953 0 0 1.03599 -0.163819 -0.0179953 0 0 0 1 0"
         id="feColorMatrix80832-7" />
    </filter>
    <clipPath
       clipPathUnits="userSpaceOnUse"
       id="clipPath130538">
      <g
         id="g130546"
         transform="matrix(1.0243475,0.10715783,-0.10473069,1.0396517,470.90229,25.511728)"
         style="fill:#808080">
        <g
           id="g130544"
           transform="matrix(1.3350523,-0.03446247,0.03527741,1.5476522,-894.25296,-1177.2679)"
           style="fill:#808080;filter:url(#filter80834-6)">
          <g
             id="g130542"
             transform="matrix(1.2275255,0,0,1.6619702,-288.79198,-419.84337)"
             style="fill:#808080;fill-opacity:1">
            <rect
               style="fill:#808080;fill-opacity:1;stroke-width:2.44272;stroke-opacity:0.996078"
               id="rect130540"
               width="216.81085"
               height="111.13731"
               x="40.852318"
               y="623.05591"
               transform="matrix(0.99879638,-0.04904893,0.12341529,0.99235511,0,0)" />
          </g>
        </g>
      </g>
    </clipPath>
    <clipPath
       clipPathUnits="userSpaceOnUse"
       id="clipPath130602">
      <rect
         style="fill:#808080;fill-opacity:1;stroke-width:5.63414;stroke-opacity:0.996078"
         id="rect130604"
         width="331.82697"
         height="308.08847"
         x="-620.61084"
         y="-479.01437"
         transform="matrix(-0.99319369,-0.11647441,-0.11647442,0.99319369,0,0)" />
    </clipPath>
    <filter
       style="color-interpolation-filters:sRGB"
       inkscape:label="Lightness-Contrast"
       id="filter80834-9"
       x="0"
       y="0"
       width="1"
       height="1">
      <feColorMatrix
         values="1.03599 0 0 -0.163819 -0.0179953 0 1.03599 0 -0.163819 -0.0179953 0 0 1.03599 -0.163819 -0.0179953 0 0 0 1 0"
         id="feColorMatrix80832-4" />
    </filter>
    <filter
       style="color-interpolation-filters:sRGB"
       inkscape:label="Lightness-Contrast"
       id="filter80834-8"
       x="0"
       y="0"
       width="1"
       height="1">
      <feColorMatrix
         values="1.03599 0 0 -0.163819 -0.0179953 0 1.03599 0 -0.163819 -0.0179953 0 0 1.03599 -0.163819 -0.0179953 0 0 0 1 0"
         id="feColorMatrix80832-45" />
    </filter>
    <filter
       style="color-interpolation-filters:sRGB"
       inkscape:label="Lightness-Contrast"
       id="filter80834-3"
       x="0"
       y="0"
       width="1"
       height="1">
      <feColorMatrix
         values="1.03599 0 0 -0.163819 -0.0179953 0 1.03599 0 -0.163819 -0.0179953 0 0 1.03599 -0.163819 -0.0179953 0 0 0 1 0"
         id="feColorMatrix80832-6" />
    </filter>
    <filter
       style="color-interpolation-filters:sRGB"
       inkscape:label="Lightness-Contrast"
       id="filter80834-0"
       x="0"
       y="0"
       width="1"
       height="1">
      <feColorMatrix
         values="1.03599 0 0 -0.163819 -0.0179953 0 1.03599 0 -0.163819 -0.0179953 0 0 1.03599 -0.163819 -0.0179953 0 0 0 1 0"
         id="feColorMatrix80832-63" />
    </filter>
    <filter
       style="color-interpolation-filters:sRGB"
       inkscape:label="Lightness-Contrast"
       id="filter80834-06"
       x="0"
       y="0"
       width="1"
       height="1">
      <feColorMatrix
         values="1.03599 0 0 -0.163819 -0.0179953 0 1.03599 0 -0.163819 -0.0179953 0 0 1.03599 -0.163819 -0.0179953 0 0 0 1 0"
         id="feColorMatrix80832-1" />
    </filter>
    <filter
       style="color-interpolation-filters:sRGB"
       inkscape:label="Lightness-Contrast"
       id="filter80834-5"
       x="0"
       y="0"
       width="1"
       height="1">
      <feColorMatrix
         values="1.03599 0 0 -0.163819 -0.0179953 0 1.03599 0 -0.163819 -0.0179953 0 0 1.03599 -0.163819 -0.0179953 0 0 0 1 0"
         id="feColorMatrix80832-47" />
    </filter>
    <filter
       style="color-interpolation-filters:sRGB"
       inkscape:label="Lightness-Contrast"
       id="filter80834-56"
       x="0"
       y="0"
       width="1"
       height="1">
      <feColorMatrix
         values="1.03599 0 0 -0.163819 -0.0179953 0 1.03599 0 -0.163819 -0.0179953 0 0 1.03599 -0.163819 -0.0179953 0 0 0 1 0"
         id="feColorMatrix80832-9" />
    </filter>
    <filter
       style="color-interpolation-filters:sRGB"
       inkscape:label="Lightness-Contrast"
       id="filter80834-7"
       x="0"
       y="0"
       width="1"
       height="1">
      <feColorMatrix
         values="1.03599 0 0 -0.163819 -0.0179953 0 1.03599 0 -0.163819 -0.0179953 0 0 1.03599 -0.163819 -0.0179953 0 0 0 1 0"
         id="feColorMatrix80832-452" />
    </filter>
    <filter
       style="color-interpolation-filters:sRGB"
       inkscape:label="Lightness-Contrast"
       id="filter80834-74"
       x="0"
       y="0"
       width="1"
       height="1">
      <feColorMatrix
         values="1.03599 0 0 -0.163819 -0.0179953 0 1.03599 0 -0.163819 -0.0179953 0 0 1.03599 -0.163819 -0.0179953 0 0 0 1 0"
         id="feColorMatrix80832-43" />
    </filter>
    <filter
       style="color-interpolation-filters:sRGB"
       inkscape:label="Lightness-Contrast"
       id="filter80834-86"
       x="0"
       y="0"
       width="1"
       height="1">
      <feColorMatrix
         values="1.03599 0 0 -0.163819 -0.0179953 0 1.03599 0 -0.163819 -0.0179953 0 0 1.03599 -0.163819 -0.0179953 0 0 0 1 0"
         id="feColorMatrix80832-8" />
    </filter>
    <filter
       style="color-interpolation-filters:sRGB"
       inkscape:label="Lightness-Contrast"
       id="filter80834-4"
       x="0"
       y="0"
       width="1"
       height="1">
      <feColorMatrix
         values="1.03599 0 0 -0.163819 -0.0179953 0 1.03599 0 -0.163819 -0.0179953 0 0 1.03599 -0.163819 -0.0179953 0 0 0 1 0"
         id="feColorMatrix80832-3" />
    </filter>
    <filter
       style="color-interpolation-filters:sRGB"
       inkscape:label="Lightness-Contrast"
       id="filter80834-92"
       x="0"
       y="0"
       width="1"
       height="1">
      <feColorMatrix
         values="1.03599 0 0 -0.163819 -0.0179953 0 1.03599 0 -0.163819 -0.0179953 0 0 1.03599 -0.163819 -0.0179953 0 0 0 1 0"
         id="feColorMatrix80832-0" />
    </filter>
    <filter
       style="color-interpolation-filters:sRGB"
       inkscape:label="Lightness-Contrast"
       id="filter80834-92-9"
       x="0"
       y="0"
       width="1"
       height="1">
      <feColorMatrix
         values="1.03599 0 0 -0.163819 -0.0179953 0 1.03599 0 -0.163819 -0.0179953 0 0 1.03599 -0.163819 -0.0179953 0 0 0 1 0"
         id="feColorMatrix80832-0-2" />
    </filter>
  </defs>
  <g
     inkscape:label="Layer 1"
     inkscape:groupmode="layer"
     id="layer1"
     transform="translate(201.84495,34.664432)">
    <g
       id="g20172"
       transform="translate(319.22965,265.49076)">
      <path
         id="path131159"
         style="stroke-width:5.71501;stroke-opacity:0.996078"
         d="m 25.530991,-118.42628 c 1e-6,39.126314 -13.109857,58.875593 -71.435228,82.088046 -45.857597,18.250502 -125.350183,6.721772 -189.671863,6.721772 -63.656,0 -142.2206,12.154998 -187.8712,-5.757232 -59.14668,-23.207777 -80.20945,-43.607899 -80.20945,-83.052586 0,-69.88889 117.3933,-157.45964 263.52446,-157.45964 146.13116,0 265.663279,87.57075 265.663281,157.45964 z"
         sodipodi:nodetypes="sssssss" />
      <path
         d="m -360.88722,-350.87995 c -0.20409,-0.48652 -0.40485,-0.97456 -0.60859,-1.46126 -0.0263,0.0671 -0.0533,-0.18385 0.0606,-0.0746 0.67713,0.18202 1.37375,0.27686 2.07222,0.29161 0.16567,0.0452 0.32191,0.15983 0.49759,0.13064 0.2596,0.0298 -0.0384,-0.0984 -0.0215,-0.15151 0.23659,0.071 -0.002,-0.15855 0.0389,-0.11531 0.0611,0.10903 0.18887,0.12799 0.27304,0.0408 0.1818,-0.19461 -0.32047,-0.23948 -0.15998,-0.29585 0.16907,-0.0252 0.38127,-0.0675 0.11985,-0.14743 -0.0987,-0.0537 -0.42579,0.072 -0.25202,-0.10443 0.27356,-0.3117 0.59348,-0.57446 0.90139,-0.84546 -0.26192,-0.19305 -0.53942,-0.004 -0.76857,0.14461 -0.26722,0.15683 -0.53648,0.30977 -0.80283,0.46823 0.1152,0.13399 0.23875,0.26002 0.3583,0.38985 -0.12278,-0.12883 -0.24565,-0.25758 -0.36846,-0.38634 -0.0872,0.0428 -0.16808,0.13944 -0.26806,0.0777 -0.35778,-0.11307 -0.72207,-0.20738 -1.076,-0.33122 0.49126,-0.13973 0.98576,-0.26847 1.4766,-0.40935 -0.24022,-0.13594 -0.5106,-0.14091 -0.77517,-0.10805 -0.69603,0.0347 -1.39428,0.0839 -2.08934,0.11112 -0.63923,-0.17098 -1.27227,-0.43054 -1.93972,-0.43143 -0.17089,0.0159 -0.75438,0.0382 -0.49775,0.33351 0.36547,0.38081 0.87431,0.55137 1.34663,0.73356 0.2292,0.10945 0.52985,0.10722 0.68042,0.34678 0.0163,0.10262 -0.12441,0.37411 0.0563,0.39893 0.25991,0.0473 0.48253,0.17265 0.62731,0.4113 0.0525,10e-4 0.11226,0.18817 0.22453,0.26568 0.21683,0.22427 0.37606,0.52305 0.64534,0.68314 0.0367,0.006 0.32166,0.14461 0.24876,0.035 z m -1.05823,-0.99592 c 0.0371,-0.0431 0.0619,-0.0558 0,0 z m 0.0528,-0.0559 c 0.0371,-0.0431 0.0619,-0.0558 0,0 z m 0.0528,-0.0559 c 0.0371,-0.0431 0.0619,-0.0558 0,0 z m 0.0528,-0.0559 c 0.0371,-0.0431 0.0619,-0.0558 0,0 z m 0.0526,-0.0559 c 0.0371,-0.0431 0.0619,-0.0558 0,0 z m 0.0528,-0.0559 c 0.0371,-0.0431 0.062,-0.0558 0,0 z m 0.0528,-0.0559 c 0.0371,-0.0431 0.062,-0.0558 0,0 z m 2.50685,-0.0494 c 0.005,-0.0351 0.0312,0.008 0,0 z m -2.45428,-0.006 c 0.0371,-0.0431 0.062,-0.0558 0,0 z m 2.68786,-0.0329 c -0.0338,-0.0499 0.0491,0.0506 0,0 z m -0.069,-0.0733 c -0.0465,-0.062 0.0619,0.0632 0,0 z m -0.036,-0.0251 c -0.0491,-0.068 0.0408,0.01 0,0 z m -2.37776,-0.0434 c -0.0835,0.031 0.006,-0.0443 -0.1081,-0.11433 -0.11789,-0.12214 -0.13088,-0.14595 -0.002,-0.008 0.034,0.147 0.20602,0.0112 0.11618,0.08 -0.0629,0.0174 0.1043,0.13482 -0.005,0.0439 z m 2.31775,-0.0346 c -0.0689,-0.0818 0.0759,0.0814 0,0 z m -0.0457,-0.0471 c -0.0338,-0.0499 0.0491,0.0508 0,0 z m -2.21414,-0.0231 c 0.0371,-0.0431 0.062,-0.0558 0,0 z m 2.16144,-0.0328 c -0.0338,-0.0499 0.0491,0.0506 0,0 z m -2.09577,-0.0369 c 0.0688,-0.0735 -0.0638,0.0816 0,0 z m 0.0463,-0.0494 c 0.0411,-0.0485 0.0346,-0.0247 0,0 z m -0.44456,-0.0692 c -0.0689,-0.0818 0.0759,0.0814 0,0 z m 0.49719,0.0139 c 0.0411,-0.0482 0.0346,-0.0247 0,0 z m 0.0528,-0.0559 c 0.0411,-0.0482 0.0346,-0.0248 0,0 z m -0.60619,-0.0169 c 0.009,-0.0173 0.0273,0.0354 0,0 z m 0.65883,-0.0389 c 0.0411,-0.0485 0.0346,-0.0247 0,0 z m -0.71144,-0.0169 c 0.009,-0.0173 0.027,0.0354 0,0 z m 0.76409,-0.039 c 0.0411,-0.0482 0.0346,-0.0247 0,0 z m -0.81673,-0.0169 c 0.009,-0.0173 0.027,0.0354 0,0 z m 0.86935,-0.0389 c 0.0411,-0.0482 0.0346,-0.0248 0,0 z m -0.922,-0.0169 c 0.009,-0.0173 0.0272,0.0354 0,0 z m -1.40059,-0.0245 c 0.0343,-0.0379 0.28235,-0.29776 0.13109,-0.13622 -0.0438,0.0452 -0.0834,0.0956 -0.13109,0.13622 z m 2.37525,-0.0155 c 0.0411,-0.0482 0.0346,-0.0247 0,0 z m -1.02728,-0.0169 c 0.009,-0.0173 0.0272,0.0354 0,0 z m 1.07992,-0.0389 c 0.0411,-0.0482 0.0348,-0.0248 0,0 z m 0.0528,-0.0559 c 0.0411,-0.0485 0.0346,-0.0245 0,0 z m -1.23783,-0.0169 c 0.009,-0.0173 0.0272,0.0354 0,0 z"
         fill="#a9cdd8"
         stroke="#000000"
         stroke-width="0.00104042"
         id="path43414" />
      <g
         id="g23020"
         transform="matrix(1.00479,-0.11319991,0.11319991,1.00479,-833.84735,444.6044)">
        <g
           id="g60454"
           transform="matrix(1.2967774,0,0,1.4747735,-949.83559,-1150.8833)"
           style="opacity:1;filter:url(#filter78846)" />
        <g
           id="g2577"
           transform="matrix(-0.97937821,-0.2116916,-0.21232452,0.8403443,1234.431,-132.67216)"
           clip-path="url(#clipPath130602)">
          <path
             style="opacity:1;fill:#1b4f18;fill-opacity:1;stroke:none;stroke-width:2.81975;stroke-linecap:round;stroke-opacity:0.87451;filter:url(#filter78846)"
             d="m 1101.2002,613.66497 c 32.5349,-13.40202 40.1236,-21.56794 40.018,-25.06966 l -0.097,-2.24736 c 0,0 -10.3951,3.01508 -2.4833,-1.26654 l 7.9117,-4.28157 12.7445,4.68262 c 0,0 -6.5855,-0.31463 -6.4957,0.83081 l 0.2341,2.98451 5.1933,-0.52698 c 1.6641,-3.48224 5.8786,-5.13625 4.0196,-11.14392 0,0 6.9901,-2.52378 9.6308,0.44755 l 0.8039,4.66335 4.6018,2.4866 c 0,0 3.9302,1.84006 4.123,-0.86312 l 0.1928,-2.70317 10.2615,0.91721 c 0,0 -5.0276,8.03934 1.3379,6.70455 6.3654,-1.33477 3.6782,11.31525 6.3654,-1.33477 l 2.597,-12.22486 c 0,0 -8.1221,-7.05062 0.6249,-6.10171 8.747,0.94892 5.1993,-7.22548 9.0276,-0.24754 1.2392,2.25882 9.6663,1.27646 7.4213,4.55936 -1.3984,2.04517 -1.0486,2.95123 -5.5992,3.68897 -1.0978,3.28078 0.8319,8.32877 0.5968,11.73931 0,0 1.2332,4.95378 4.4667,2.15056 l 3.2337,-2.80324 c 0,0 -2.1394,3.67401 -1.9068,0.22254 l 0.4045,-6.0038 c 0,0 -4.8,-3.94476 8.5312,-3.83654 7.3972,0.06 8.2002,0.70691 7.3286,3.01107 -0.6956,1.83854 -0.7651,5.16191 0.1872,7.25683 l 0.9522,2.09484 c 0,0 16.8404,1.81548 18.4756,-1.47295 l 1.6352,-3.28846 -0.2539,-4.66938 c 0,0 -8.5224,-3.27244 0.7742,-3.97404 9.2964,-0.70161 1.9395,-3.65469 9.2964,-0.70161 l 7.3571,2.95307 -2.4622,2.17267 c 0,0 -5.1472,4.29225 1.0588,5.18067 l 6.2061,0.88847 2.4918,2.93671 8.6384,-6.15749 c 0,0 -5.0558,-4.45018 1.7393,-3.85452 l 6.7951,0.59567 c 5.6002,3.85109 4.6207,5.69899 0.043,6.45141 0,0 0.1542,9.34099 1.958,8.50227 l 1.8029,-0.83873 c 0,0 5.9881,-2.67475 6.8064,1.88336 l 0.8182,4.55811 5.9934,2.08313 4.1775,-14.42033 c 0,0 3.7009,-1.17426 8.4307,0.91742 1.3269,0.58685 1.7844,17.31248 6.0064,12.98575 1.789,-1.83354 4.3879,6.41394 6.8983,6.17529 0.95,-0.0901 2.792,-3.61559 1.3157,-2.85889 -0.688,0.35273 -0.062,-1.92577 0.8598,-2.71614 1.0756,-0.92149 6.0169,-2.96615 8.4191,0.32367 4.0657,5.56821 0.3131,4.56455 0.9919,3.35515 0.7736,-1.37832 -1.2422,10.9667 2.9668,3.81662 0.3658,-0.6216 -1.1023,-3.67232 1.9104,-4.24056 1.928,-0.36366 4.2677,0.91978 6.1889,2.28667 3.2378,2.30363 -1.0646,6.25477 -0.2368,6.66584 11.5526,5.73696 15.0189,15.02375 15.4123,16.84154 1.4448,6.67505 9.9803,9.08923 16.2394,12.96918 4.7559,2.94813 2.0085,19.4084 2.0831,20.81911"
             id="path59191"
             sodipodi:nodetypes="cccsccscccsccsccsscsssccscscssscsccssccscccsccscscccsssssssssssssc"
             transform="matrix(1.3352433,0.00451099,0.00513017,1.4753751,-998.31797,-1165.6291)" />
          <ellipse
             style="opacity:1;fill:#12ffff;fill-opacity:0.32549;stroke:none;stroke-width:0.657905;stroke-linecap:round;stroke-opacity:0.87451;filter:url(#filter78846)"
             id="ellipse68576-2-8"
             cx="1482.504"
             cy="310.6098"
             rx="0.91631633"
             ry="0.73568177"
             transform="matrix(1.3063567,0.31523168,-0.3191069,1.430163,-998.31797,-1165.6291)" />
          <ellipse
             style="opacity:1;fill:#12ffff;fill-opacity:0.32549;stroke:none;stroke-width:0.657905;stroke-linecap:round;stroke-opacity:0.87451;filter:url(#filter78846)"
             id="ellipse68572-1-7"
             cx="1441.9131"
             cy="305.39392"
             rx="0.91631633"
             ry="0.73568177"
             transform="matrix(1.3063567,0.31523168,-0.3191069,1.430163,-998.31797,-1165.6291)" />
          <ellipse
             style="opacity:1;fill:#12ffff;fill-opacity:0.32549;stroke:none;stroke-width:0.657905;stroke-linecap:round;stroke-opacity:0.87451;filter:url(#filter78846)"
             id="ellipse68572-8-5"
             cx="1442.1006"
             cy="308.03412"
             rx="0.91631633"
             ry="0.73568177"
             transform="matrix(1.3063567,0.31523168,-0.3191069,1.430163,-998.31797,-1165.6291)" />
          <ellipse
             style="opacity:1;fill:#12ffff;fill-opacity:0.32549;stroke:none;stroke-width:0.657905;stroke-linecap:round;stroke-opacity:0.87451;filter:url(#filter78846)"
             id="ellipse68574-9"
             cx="1441.7354"
             cy="302.95264"
             rx="0.91631633"
             ry="0.73568177"
             transform="matrix(1.3063567,0.31523168,-0.3191069,1.430163,-998.31797,-1165.6291)" />
          <ellipse
             style="opacity:1;fill:#12ffff;fill-opacity:0.32549;stroke:none;stroke-width:0.657905;stroke-linecap:round;stroke-opacity:0.87451;filter:url(#filter78846)"
             id="ellipse68576-2"
             cx="1441.7354"
             cy="302.95264"
             rx="0.91631633"
             ry="0.73568177"
             transform="matrix(1.3063567,0.31523168,-0.3191069,1.430163,-998.31797,-1165.6291)" />
          <ellipse
             style="opacity:1;fill:#12ffff;fill-opacity:0.32549;stroke:none;stroke-width:0.880244;stroke-linecap:round;stroke-opacity:0.87451;filter:url(#filter78846)"
             id="ellipse68576-2-2"
             cx="1457.1045"
             cy="263.23434"
             rx="1.1480758"
             ry="1.0511026"
             transform="matrix(1.296779,0.36149502,-0.27706726,1.4411233,-998.31797,-1165.6291)" />
          <ellipse
             style="opacity:1;fill:#12ffff;fill-opacity:0.32549;stroke:none;stroke-width:0.657727;stroke-linecap:round;stroke-opacity:0.87451;filter:url(#filter78846)"
             id="ellipse68572-23"
             cx="1307.3289"
             cy="592.61725"
             rx="0.91958338"
             ry="0.73267138"
             transform="matrix(1.3352433,0.00451099,0.00513017,1.4753751,-998.31797,-1165.6291)" />
          <ellipse
             style="opacity:1;fill:#12ffff;fill-opacity:0.32549;stroke:none;stroke-width:0.46189;stroke-linecap:round;stroke-opacity:0.87451;filter:url(#filter78846)"
             id="ellipse68572-2"
             cx="1289.4938"
             cy="593.44775"
             rx="0.64577907"
             ry="0.51451981"
             transform="matrix(1.3352433,0.00451099,0.00513017,1.4753751,-998.31797,-1165.6291)" />
          <ellipse
             style="opacity:1;fill:#12ffff;fill-opacity:0.32549;stroke:none;stroke-width:0.657727;stroke-linecap:round;stroke-opacity:0.87451;filter:url(#filter78846)"
             id="ellipse68572-0"
             cx="1287.3373"
             cy="593.14001"
             rx="0.91958338"
             ry="0.73267138"
             transform="matrix(1.3352433,0.00451099,0.00513017,1.4753751,-998.31797,-1165.6291)" />
          <ellipse
             style="opacity:1;fill:#12ffff;fill-opacity:0.32549;stroke:none;stroke-width:0.657727;stroke-linecap:round;stroke-opacity:0.87451;filter:url(#filter78846)"
             id="ellipse68572-1"
             cx="1186.652"
             cy="587.38434"
             rx="0.91958338"
             ry="0.73267138"
             transform="matrix(1.3352433,0.00451099,0.00513017,1.4753751,-998.31797,-1165.6291)" />
          <ellipse
             style="opacity:1;fill:#12ffff;fill-opacity:0.32549;stroke:none;stroke-width:0.657727;stroke-linecap:round;stroke-opacity:0.87451;filter:url(#filter78846)"
             id="ellipse68572-8"
             cx="1186.8402"
             cy="590.01373"
             rx="0.91958338"
             ry="0.73267138"
             transform="matrix(1.3352433,0.00451099,0.00513017,1.4753751,-998.31797,-1165.6291)" />
          <ellipse
             style="opacity:1;fill:#12ffff;fill-opacity:0.32549;stroke:none;stroke-width:0.657727;stroke-linecap:round;stroke-opacity:0.87451;filter:url(#filter78846)"
             id="ellipse54103-06"
             cx="1165.9011"
             cy="591.76251"
             rx="0.91958338"
             ry="0.73267138"
             transform="matrix(1.3352433,0.00451099,0.00513017,1.4753751,-1024.0467,-1172.5128)" />
          <path
             style="opacity:1;fill:#207d1f;fill-opacity:1;stroke:none;stroke-width:2.2987;stroke-linecap:round;stroke-opacity:0.87451;filter:url(#filter78846)"
             d="m 1074.3526,637.15862 -1.4116,-17.15193 c 0.5157,0.32887 23.6217,-3.10734 32.8923,-14.14052 14.0979,-16.77815 17.4614,7.4834 23.5556,2.48295 l 6.0942,-5.00046 8.7714,2.50795 19.4515,5.07412 c 0,0 -15.8595,9.07103 11.3555,10.41547 l 27.2151,1.34444 c 0,0 5.8732,-8.10289 21.5389,-7.74183 15.6658,0.36105 11.7276,16.04259 24.244,9.98499 l 1.7082,-0.82674 15.2371,-5.25918 c 0,0 9.0211,-14.67873 23.7023,-1.38486 l 14.6813,13.29386 c 0,0 5.1449,0.69242 27.8979,0.23079 22.753,-0.4616 11.1623,-6.69343 22.753,-0.4616 l 11.5907,6.23182 c 12.6406,-3.41869 10.8722,5.00714 21.7462,10.07553 2.224,1.03657 21.1254,-2.04735 22.9401,-1.00314 12.8204,9.15002 11.1512,19.23827 10.084,29.28755 8.9982,-9.06515 7.4627,20.6731 -3.659,12.07156 l -35.3555,-15.49341"
             id="path58928"
             sodipodi:nodetypes="ccsscccscssccscsscscccc"
             transform="matrix(1.3352433,0.00451099,0.00513017,1.4753751,-998.31797,-1165.6291)" />
          <path
             style="opacity:0.7;fill:#5dd65d;fill-opacity:0.886275;stroke:none;stroke-width:2.2987;stroke-linecap:round;stroke-opacity:0.87451;filter:url(#filter78846)"
             d="m 1057.0367,653.67409 3.46,-12.42507"
             id="path51271"
             transform="matrix(1.3352433,0.00451099,0.00513017,1.4753751,-998.31797,-1165.6291)" />
          <path
             style="opacity:1;fill:#32c531;fill-opacity:1;stroke:none;stroke-width:2.04649;stroke-linecap:round;stroke-opacity:0.87451;filter:url(#filter78846)"
             d="m 1052.5766,656.89539 c 0,0 -13.466,-6.00076 -3.1416,-13.59339 l 10.3243,-7.59263 23.9004,0.73855 22.7402,-12.26965 25.586,5.54375 13.3388,3.36329 26.7315,-4.51251 43.7121,-4.11063 6.3629,6.01898 c 0,0 -3.1637,4.27218 14.5293,4.5349 l 17.693,0.26271 12.1235,7.27077 c 0,0 10.1733,-10.63404 18.5978,-5.69172 l 8.4246,4.94232 12.9338,1.93963 17.9206,-6.04587 14.6066,8.39845 18.9734,3.31498 2.6339,3.99702 16.2147,0.72316 11.2873,7.59119 c 0,0 3.5582,-5.98103 11.4207,-1.67182 7.8624,4.30921 11.271,-11.08971 7.8624,4.30921 l -4.3832,19.80189"
             id="path52983"
             sodipodi:nodetypes="csccccccccsccsccccccccssc"
             transform="matrix(1.3352433,0.00451099,0.00513017,1.4753751,-998.31797,-1165.6291)" />
          <path
             style="opacity:1;fill:#299d28;fill-opacity:0.996078;stroke:none;stroke-width:2.66608;stroke-linecap:round;stroke-opacity:0.87451;filter:url(#filter78846)"
             d="m 1375.1649,693.24219 -1.712,-5.20048 -0.9448,-7.03511 0.1203,-6.92661 7.2139,-5.388 c 0,0 9.5295,3.21199 9.2975,-0.96389 l 7.3639,-7.91219 c -9.0161,-10.87579 -12.9293,-10.42118 -28.5649,-9.56047 -13.7436,8.86907 -19.7277,6.6916 -5.3085,16.43315 l 5.342,5.57101 c -1.7605,4.97622 0.2158,10.20784 -1.6134,13.38643 l -2.5679,4.22214"
             id="path68702"
             sodipodi:nodetypes="cccccscccccc"
             transform="matrix(1.3352433,0.00451099,0.00513017,1.4753751,-998.31797,-1165.6291)" />
          <path
             style="opacity:1;fill:#886830;fill-opacity:1;stroke:none;stroke-width:2.2987;stroke-linecap:round;stroke-opacity:0.87451;filter:url(#filter78846)"
             d="m 1061.3907,652.28562 1.9519,-10.08273 -5.0605,-0.17056 7.853,-5.87241 9.8316,-3.40338 8.113,-0.31237 9.2935,2.97729 6.5239,7.51094 -5.6705,0.009 2.296,9.83961"
             id="path51331"
             transform="matrix(1.3352433,0.00451099,0.00513017,1.4753751,-992.91707,-1164.9961)" />
          <path
             style="opacity:0.7;fill:#5dd65d;fill-opacity:0.886275;stroke:none;stroke-width:2.2987;stroke-linecap:round;stroke-opacity:0.87451;filter:url(#filter78846)"
             d="m 1056.5289,651.6312 16.6278,-13.52365"
             id="path51275"
             transform="matrix(1.3352433,0.00451099,0.00513017,1.4753751,-998.31797,-1165.6291)" />
          <path
             style="opacity:1;fill:#886830;fill-opacity:1;stroke:none;stroke-width:2.2987;stroke-linecap:round;stroke-opacity:0.87451;filter:url(#filter78846)"
             d="m 1115.1059,654.08425 0.2446,-15.11457 -5.0605,-0.17056 7.853,-5.87241 9.8316,-3.40338 8.113,-0.31237 9.2935,2.97729 6.5239,7.51094 -5.6705,0.009 0.8433,14.55716"
             id="path52899"
             sodipodi:nodetypes="cccccccccc"
             transform="matrix(1.3352433,0.00451099,0.00513017,1.4753751,-992.91707,-1164.9961)" />
          <path
             style="opacity:1;fill:#886830;fill-opacity:1;stroke:none;stroke-width:2.2987;stroke-linecap:round;stroke-opacity:0.87451;filter:url(#filter78846)"
             d="m 1166.1476,655.1886 2.2147,-13.07444 -4.9913,-0.75294 8.6614,-4.9156 8.5368,-2.43954 5.9423,0.37648 8.7688,4.02378 5.3467,8.1987 -5.6228,-0.64531 -1.0531,12.64737"
             id="path52901"
             sodipodi:nodetypes="cccccccccc"
             transform="matrix(1.3352433,0.00451099,0.00513017,1.4753751,-994.00745,-1170.6537)" />
          <path
             style="opacity:1;fill:#2ca92b;fill-opacity:0.996078;stroke:none;stroke-width:2.2987;stroke-linecap:round;stroke-opacity:0.87451;filter:url(#filter78846)"
             d="m 1097.7006,652.9738 2.6314,-4.36806 2.4839,-6.1376 1.6213,-6.2181 -4.3256,-6.02402 c 0,0 -8.2728,1.28529 -7.0563,-2.41266 1.2165,-3.69795 1.2165,-3.69795 1.2165,-3.69795 l 8.2866,-7.08644 10.2612,3.01324 c 0,0 10.4385,6.22159 5.8658,8.74122 -4.5727,2.51963 -4.5727,2.51963 -4.5727,2.51963 l -5.5714,4.09437 -0.7209,5.59397 c 0,0 -2.2979,2.44725 -1.3288,6.65343 0.969,4.20618 0.969,4.20618 0.969,4.20618"
             id="path52903"
             transform="matrix(1.3352433,0.00451099,0.00513017,1.4753751,-998.31797,-1165.6291)" />
          <path
             style="opacity:1;fill:#279926;fill-opacity:1;stroke:none;stroke-width:2.45652;stroke-linecap:round;stroke-opacity:0.87451;filter:url(#filter78846)"
             d="m 1153.9447,652.99194 3.6083,-9.9199 1.1713,-7.99903 -1.7415,-7.12479 -3.6071,-2.58282 -3.6619,-2.85998 -1.8167,-6.55392 8.5656,-6.02461 c 4.682,-3.39832 8.4591,-7.92412 21.7951,-0.53819 l 4.3248,14.3075 c -1.9663,6.84191 -9.7078,9.05315 -17.8777,8.07978 l -1.9385,7.76449 -0.3866,5.62707 3.1761,8.9158"
             id="path52959"
             sodipodi:nodetypes="cccccccccccccc"
             transform="matrix(1.3352433,0.00451099,0.00513017,1.4753751,-998.31797,-1165.6291)" />
          <path
             style="opacity:1;fill:#886830;fill-opacity:1;stroke:none;stroke-width:1.71248;stroke-linecap:round;stroke-opacity:0.87451;filter:url(#filter78846)"
             d="m 1200.1606,659.39787 1.4542,-7.51141 -3.77,-0.12706 5.8503,-4.37481 7.3243,-2.53544 6.044,-0.23271 6.9235,2.21801 4.8601,5.59548 -4.2244,0.007 1.7105,7.33028"
             id="path52965"
             transform="matrix(1.3448787,-0.07765115,-0.08830957,2.2721489,-934.33723,-1595.4592)" />
          <path
             style="opacity:1;fill:#289d28;fill-opacity:1;stroke:none;stroke-width:2.47172;stroke-linecap:round;stroke-opacity:0.87451;filter:url(#filter78846)"
             d="m 1214.9198,661.33134 c 2.069,-5.40455 5.064,-10.0195 5.064,-10.0195 l 0.2043,-4.97792 -2.1314,-3.84796 c 0,0 -8.7389,11.51969 -10.2389,2.992 -1.5,-8.52767 -1.5,-8.52767 -1.5,-8.52767 l 2.9307,-4.86682 11.9369,-4.27617 16.0017,7.01659 1.2254,10.61284 c 0,0 -0.048,-0.36017 -5.6321,-0.0599 -5.584,0.30025 -5.584,0.30025 -5.584,0.30025 l -4.2952,8.64261 1.7171,6.663"
             id="path52963"
             transform="matrix(1.3352433,0.00451099,0.00513017,1.4753751,-1026.2501,-1177.3336)" />
          <path
             style="opacity:1;fill:#b58b41;fill-opacity:1;stroke:none;stroke-width:2.2987;stroke-linecap:round;stroke-opacity:0.87451;filter:url(#filter78846)"
             d="m 1237.6256,659.61999 2.1763,-14.99534 -5.0068,-0.66637 8.5546,-5.06434 10.205,-2.4166 8.1019,0.4862 8.8541,3.87105 5.5221,8.10419 -5.6359,-0.54783 -1.024,14.54826"
             id="path52969"
             sodipodi:nodetypes="cccccccccc"
             transform="matrix(1.3352433,0.00451099,0.00513017,1.4753751,-998.31797,-1165.6291)" />
          <path
             style="opacity:1;fill:#8d7240;fill-opacity:1;stroke:none;stroke-width:2.2987;stroke-linecap:round;stroke-opacity:0.87451;filter:url(#filter78846)"
             d="m 1251.0082,659.01214 -0.5506,-7.46188 c 1.2686,-3.0078 6.732,-3.11829 7.4107,0.35804 l 0.06,7.02938"
             id="path54101-3"
             sodipodi:nodetypes="cccc"
             transform="matrix(1.3352433,0.00451099,0.00513017,1.4753751,-998.31797,-1165.6291)" />
          <path
             style="opacity:1;fill:#a28146;fill-opacity:1;stroke:none;stroke-width:1.95381;stroke-linecap:round;stroke-opacity:0.87451;filter:url(#filter78846)"
             d="m 1282.9352,663.27893 3.0246,-12.57181 -4.189,-0.86722 7.6459,-3.77309 8.8355,-1.43025 6.8253,0.90172 7.1959,3.81469 4.0398,7.19936 -4.7313,-0.80483 -2.0133,12.26273"
             id="path52971"
             sodipodi:nodetypes="cccccccccc"
             transform="matrix(1.3352433,0.00451099,0.00513017,1.4753751,-998.31797,-1165.6291)" />
          <path
             style="opacity:1;fill:#9e7936;fill-opacity:1;stroke:none;stroke-width:2.59617;stroke-linecap:round;stroke-opacity:0.87451;filter:url(#filter78846)"
             d="m 1305.668,667.63723 1.6336,-17.01206 -5.6861,-0.54121 9.3753,-6.07454 11.3825,-3.15628 9.1688,0.20766 10.203,3.99542 6.6752,8.91223 -6.3894,-0.38098 -0.358,16.45909"
             id="path52973"
             sodipodi:nodetypes="cccccccccc"
             transform="matrix(1.3352433,0.00451099,0.00513017,1.4753751,-998.31797,-1165.6291)" />
          <path
             style="opacity:1;fill:#b38534;fill-opacity:1;stroke:none;stroke-width:2.02047;stroke-linecap:round;stroke-opacity:0.87451;filter:url(#filter78846)"
             d="m 1349.6417,669.40855 3.3899,-8.48402 -4.3561,-0.80226 7.7938,-4.07268 9.0923,-1.67744 7.0823,0.77859 7.551,3.78167 4.3874,7.35179 -4.9148,-0.72557 0.3317,8.82274"
             id="path52975"
             transform="matrix(1.3352433,0.00451099,0.00513017,1.4753751,-998.31797,-1165.6291)" />
          <path
             style="opacity:1;fill:#a18249;fill-opacity:1;stroke:none;stroke-width:1.92932;stroke-linecap:round;stroke-opacity:0.87451;filter:url(#filter78846)"
             d="m 1364.9074,671.13523 1.5412,-6.1114 c 1.8166,-2.12013 6.2277,-0.95036 5.8483,1.99405 l -1.82,5.65143"
             id="path54101-6"
             sodipodi:nodetypes="cccc"
             transform="matrix(1.3352433,0.00451099,0.00513017,1.4753751,-998.31797,-1165.6291)" />
          <ellipse
             style="opacity:1;fill:#bd841f;fill-opacity:1;stroke:none;stroke-width:1.59532;stroke-linecap:round;stroke-opacity:0.87451;filter:url(#filter78846)"
             id="ellipse54103-0"
             cx="1362.2128"
             cy="663.26562"
             rx="2.2304471"
             ry="1.7770925"
             transform="matrix(1.3352433,0.00451099,0.00513017,1.4753751,-998.31797,-1165.6291)" />
          <path
             style="opacity:1;fill:#c58f31;fill-opacity:1;stroke:none;stroke-width:1.43205;stroke-linecap:round;stroke-opacity:0.87451;filter:url(#filter78846)"
             d="m 1390.5896,678.50638 1.8519,-7.80136 -2.3798,-0.7377 4.2579,-3.74497 4.9673,-1.54246 3.8692,0.71593 4.1252,3.47738 2.3969,6.76023 -2.685,-0.66719 0.1812,8.11281"
             id="path52977"
             transform="matrix(1.3352433,0.00451099,0.00513017,1.4753751,-998.31797,-1165.6291)" />
          <path
             style="opacity:1;fill:#299d28;fill-opacity:0.996078;stroke:none;stroke-width:2.84715;stroke-linecap:round;stroke-opacity:0.87451;filter:url(#filter78846)"
             d="m 1325.4383,670.67082 -1.712,-5.93085 -0.9448,-8.02313 0.1203,-7.8994 7.2139,-6.1447 c 0,0 9.5295,3.66309 9.2975,-1.09926 l 7.3639,-9.02339 c -9.0161,-12.4032 -12.9293,-11.88474 -28.5649,-10.90315 -13.7436,10.11465 -19.7277,7.63137 -5.3085,18.74105 l 5.342,6.35341 c -1.7605,5.67509 0.2158,11.64144 -1.6134,15.26644 l -2.5679,4.81511"
             id="path52985"
             sodipodi:nodetypes="cccccscccccc"
             transform="matrix(1.3352433,0.00451099,0.00513017,1.4753751,-998.31797,-1165.6291)" />
          <path
             style="opacity:1;fill:#a18249;fill-opacity:1;stroke:none;stroke-width:2.2987;stroke-linecap:round;stroke-opacity:0.87451;filter:url(#filter78846)"
             d="m 1082.5511,651.27727 0.228,-5.59844 c 1.5763,-2.89396 7.0284,-2.56765 7.3426,0.94841 l -0.7943,6.19435"
             id="path53041"
             sodipodi:nodetypes="cccc"
             transform="matrix(1.3352433,0.00451099,0.00513017,1.4753751,-998.31797,-1165.6291)" />
          <path
             style="opacity:1;fill:#319e31;fill-opacity:1;stroke:none;stroke-width:2.13001;stroke-linecap:round;stroke-opacity:0.87451;filter:url(#filter78846)"
             d="m 1443.673,701.88597 c -4.7213,-20.96495 -8.066,-17.46879 -30.853,-20.94762 -29.2403,-5.40158 -40.452,-8.73081 -63.8666,-14.45838 -31.3216,2.45289 -61.8217,-3.95594 -92.5702,-8.26738 -13.641,2.34486 -14.012,-3.5329 -25.7037,-4.27296 -28.2749,-1.78975 -64.1516,-3.32082 -89.3288,-1.71355 l -55.7491,-0.3441 c -13.4954,-1.20732 -39.1023,-3.83877 -53.58,-1.41428 -11.072,1.85418 -10.9057,7.87175 -5.2406,9.69027 92.7582,29.77583 211.6222,37.58089 199.1101,37.84166 z"
             id="path50263"
             sodipodi:nodetypes="ccccsccsscc"
             transform="matrix(1.3352433,0.00451099,0.00513017,1.4753751,-998.31797,-1165.6291)" />
          <path
             style="opacity:1;fill:#a18249;fill-opacity:1;stroke:none;stroke-width:2.2987;stroke-linecap:round;stroke-opacity:0.87451;filter:url(#filter78846)"
             d="m 1130.1,652.52009 -0.5506,-7.46188 c 1.2686,-3.0078 6.732,-3.11829 7.4107,0.35804 l 0.06,7.02938"
             id="path54101"
             sodipodi:nodetypes="cccc"
             transform="matrix(1.3352433,0.00451099,0.00513017,1.4753751,-998.31797,-1165.6291)" />
          <ellipse
             style="opacity:1;fill:#bd841f;fill-opacity:1;stroke:none;stroke-width:1.59532;stroke-linecap:round;stroke-opacity:0.87451;filter:url(#filter78846)"
             id="ellipse67317"
             cx="1375.7181"
             cy="665.65991"
             rx="2.2304471"
             ry="1.7770925"
             transform="matrix(1.3352433,0.00451099,0.00513017,1.4753751,-998.31797,-1165.6291)" />
          <ellipse
             style="opacity:1;fill:#12ffff;fill-opacity:0.32549;stroke:none;stroke-width:0.657727;stroke-linecap:round;stroke-opacity:0.87451;filter:url(#filter78846)"
             id="ellipse68572"
             cx="1168.6432"
             cy="591.70697"
             rx="0.91958338"
             ry="0.73267138"
             transform="matrix(1.3352433,0.00451099,0.00513017,1.4753751,-1024.0467,-1172.5128)" />
          <ellipse
             style="opacity:1;fill:#12ffff;fill-opacity:0.32549;stroke:none;stroke-width:0.657727;stroke-linecap:round;stroke-opacity:0.87451;filter:url(#filter78846)"
             id="ellipse68574"
             cx="1186.4736"
             cy="584.95306"
             rx="0.91958338"
             ry="0.73267138"
             transform="matrix(1.3352433,0.00451099,0.00513017,1.4753751,-998.31797,-1165.6291)" />
          <ellipse
             style="opacity:1;fill:#12ffff;fill-opacity:0.32549;stroke:none;stroke-width:0.657727;stroke-linecap:round;stroke-opacity:0.87451;filter:url(#filter78846)"
             id="ellipse68576"
             cx="1186.4736"
             cy="584.95306"
             rx="0.91958338"
             ry="0.73267138"
             transform="matrix(1.3352433,0.00451099,0.00513017,1.4753751,-998.31797,-1165.6291)" />
          <path
             style="opacity:1;fill:#8d7240;fill-opacity:1;stroke:none;stroke-width:2.2987;stroke-linecap:round;stroke-opacity:0.87451;filter:url(#filter78846)"
             d="m 1179.4721,655.3343 2.1375,-7.2375 c 2.277,-2.50649 7.5044,-1.10538 6.9094,2.38279 l -2.4491,6.69157"
             id="path32782"
             sodipodi:nodetypes="cccc"
             transform="matrix(1.3077887,-0.33765618,0.31191255,1.4257979,-1164.5119,-734.10135)" />
          <ellipse
             style="fill:#c69b01;fill-opacity:0.701803;stroke:none;stroke-width:2.69859;stroke-linecap:round;stroke-opacity:0.87451"
             id="ellipse54103-1"
             cx="577.46344"
             cy="-209.91742"
             rx="3.5892901"
             ry="3.159868"
             transform="matrix(0.99999429,0.00337838,0.00347717,0.99999395,0,0)" />
          <ellipse
             style="fill:#c69b01;fill-opacity:0.701803;stroke:none;stroke-width:1.99733;stroke-linecap:round;stroke-opacity:0.87451"
             id="ellipse54103-2"
             cx="693.15826"
             cy="-203.13858"
             rx="2.6565847"
             ry="2.3387516"
             transform="matrix(0.99999429,0.00337838,0.00347717,0.99999395,0,0)" />
          <ellipse
             style="fill:#c69b01;fill-opacity:0.701803;stroke:none;stroke-width:3.2264;stroke-linecap:round;stroke-opacity:0.87451"
             id="ellipse54103-9"
             cx="735.49249"
             cy="-198.08925"
             rx="4.291316"
             ry="3.7779036"
             transform="matrix(0.99999429,0.00337838,0.00347717,0.99999395,0,0)" />
          <ellipse
             style="fill:#c69b01;fill-opacity:0.701803;stroke:none;stroke-width:3.2264;stroke-linecap:round;stroke-opacity:0.87451"
             id="ellipse54103-7"
             cx="787.39893"
             cy="-196.6263"
             rx="4.291316"
             ry="3.7779036"
             transform="matrix(0.99999429,0.00337838,0.00347717,0.99999395,0,0)" />
          <ellipse
             style="fill:#c69b01;fill-opacity:0.701803;stroke:none;stroke-width:2.8577;stroke-linecap:round;stroke-opacity:0.87451"
             id="ellipse54105"
             cx="534.82922"
             cy="-214.70073"
             rx="3.3665724"
             ry="3.7779036"
             transform="matrix(0.99999429,0.00337838,0.00347717,0.99999395,0,0)" />
          <ellipse
             style="fill:#c69b01;fill-opacity:0.701803;stroke:none;stroke-width:3.2264;stroke-linecap:round;stroke-opacity:0.87451"
             id="path53203"
             cx="441.12643"
             cy="-213.64516"
             rx="4.291316"
             ry="3.7779036"
             transform="matrix(0.99999429,0.00337838,0.00347717,0.99999395,0,0)" />
          <ellipse
             style="fill:#c69b01;fill-opacity:0.701803;stroke:none;stroke-width:3.2264;stroke-linecap:round;stroke-opacity:0.87451"
             id="ellipse54103"
             cx="507.00751"
             cy="-213.45966"
             rx="4.291316"
             ry="3.7779036"
             transform="matrix(0.99999429,0.00337838,0.00347717,0.99999395,0,0)" />
          <ellipse
             style="opacity:1;fill:#12ffff;fill-opacity:0.32549;stroke:none;stroke-width:0.657727;stroke-linecap:round;stroke-opacity:0.87451;filter:url(#filter78846)"
             id="ellipse130606"
             cx="1165.9011"
             cy="591.76251"
             rx="0.91958338"
             ry="0.73267138"
             transform="matrix(1.3352433,0.00451099,0.00513017,1.4753751,-913.51758,-1175.8567)" />
          <ellipse
             style="opacity:1;fill:#12ffff;fill-opacity:0.32549;stroke:none;stroke-width:0.657727;stroke-linecap:round;stroke-opacity:0.87451;filter:url(#filter78846)"
             id="ellipse130608"
             cx="1168.6432"
             cy="591.70697"
             rx="0.91958338"
             ry="0.73267138"
             transform="matrix(1.3352433,0.00451099,0.00513017,1.4753751,-913.51758,-1175.8567)" />
          <ellipse
             style="opacity:1;fill:#12ffff;fill-opacity:0.32549;stroke:none;stroke-width:0.657727;stroke-linecap:round;stroke-opacity:0.87451;filter:url(#filter78846)"
             id="ellipse130610"
             cx="1165.9011"
             cy="591.76251"
             rx="0.91958338"
             ry="0.73267138"
             transform="matrix(1.3352433,0.00451099,0.00513017,1.4753751,-921.46806,-1175.9546)" />
          <ellipse
             style="opacity:1;fill:#12ffff;fill-opacity:0.32549;stroke:none;stroke-width:0.657727;stroke-linecap:round;stroke-opacity:0.87451;filter:url(#filter78846)"
             id="ellipse130612"
             cx="1168.6432"
             cy="591.70697"
             rx="0.91958338"
             ry="0.73267138"
             transform="matrix(1.3352433,0.00451099,0.00513017,1.4753751,-921.46806,-1175.9546)" />
          <ellipse
             style="opacity:1;fill:#12ffff;fill-opacity:0.32549;stroke:none;stroke-width:0.657727;stroke-linecap:round;stroke-opacity:0.87451;filter:url(#filter78846)"
             id="ellipse130614"
             cx="1186.8402"
             cy="590.01373"
             rx="0.91958338"
             ry="0.73267138"
             transform="matrix(1.3352433,0.00451099,0.00513017,1.4753751,-1022.1628,-1179.0311)" />
          <ellipse
             style="opacity:1;fill:#12ffff;fill-opacity:0.32549;stroke:none;stroke-width:0.657727;stroke-linecap:round;stroke-opacity:0.87451;filter:url(#filter78846)"
             id="ellipse130616"
             cx="1186.8402"
             cy="590.01373"
             rx="0.91958338"
             ry="0.73267138"
             transform="matrix(1.3352433,0.00451099,0.00513017,1.4753751,-961.94246,-1188.7011)" />
          <ellipse
             style="opacity:1;fill:#12ffff;fill-opacity:0.32549;stroke:none;stroke-width:0.657727;stroke-linecap:round;stroke-opacity:0.87451;filter:url(#filter78846)"
             id="ellipse130618"
             cx="1186.8402"
             cy="590.01373"
             rx="0.91958338"
             ry="0.73267138"
             transform="matrix(1.3352433,0.00451099,0.00513017,1.4753751,-966.77224,-1188.4242)" />
          <ellipse
             style="opacity:1;fill:#12ffff;fill-opacity:0.32549;stroke:none;stroke-width:0.657727;stroke-linecap:round;stroke-opacity:0.87451;filter:url(#filter78846)"
             id="ellipse130620"
             cx="1186.8402"
             cy="590.01373"
             rx="0.91958338"
             ry="0.73267138"
             transform="matrix(1.3352433,0.00451099,0.00513017,1.4753751,-971.88648,-1189.1926)" />
          <ellipse
             style="opacity:1;fill:#12ffff;fill-opacity:0.32549;stroke:none;stroke-width:0.657727;stroke-linecap:round;stroke-opacity:0.87451;filter:url(#filter78846)"
             id="ellipse130622"
             cx="1186.8402"
             cy="590.01373"
             rx="0.91958338"
             ry="0.73267138"
             transform="matrix(1.3352433,0.00451099,0.00513017,1.4753751,-976.7108,-1174.5101)" />
          <ellipse
             style="opacity:1;fill:#12ffff;fill-opacity:0.32549;stroke:none;stroke-width:0.657727;stroke-linecap:round;stroke-opacity:0.87451;filter:url(#filter78846)"
             id="ellipse130624"
             cx="1186.8402"
             cy="590.01373"
             rx="0.91958338"
             ry="0.73267138"
             transform="matrix(1.3352433,0.00451099,0.00513017,1.4753751,-977.47549,-1169.8757)" />
        </g>
        <ellipse
           style="opacity:0.779044;fill:#ffbc00;fill-opacity:0.76642573;stroke-width:3.22999;stroke-opacity:0.996078"
           id="path118038"
           cx="605.71588"
           cy="-512.50793"
           transform="rotate(6.4278547)"
           rx="2.7895262"
           ry="2.7737737" />
      </g>
      <g
         id="g129723"
         clip-path="url(#clipPath130538)"
         transform="matrix(0.95757848,0,0,1,-17.933271,91.969305)">
        <path
           style="opacity:0.809607;fill:#256997;fill-opacity:1;stroke:none;stroke-width:2.3972;stroke-linecap:round;stroke-opacity:0.87451;filter:url(#filter82306)"
           d="m 149.17872,684.18127 -1.51733,-27.947 10.7999,-4.48437 -2.23229,-12.41648 6.09725,-0.61908 1.84338,3.55101 5.44634,-0.88434 -1.81212,-14.46422 7.88792,-0.71707 1.4382,4.80395 11.81996,-1.27835 -2.60917,-30.90598 14.33985,-2.39536 2.79161,22.35324 8.70944,-0.82347 2.48713,12.32787 11.14056,-1.97841 -1.47848,-8.40725 7.66176,-2.82471 -0.009,-7.23196 4.56338,-0.47357 -4.61389,-31.36788 6.13688,-1.63427 2.73458,12.67423 3.83868,1.73411 -0.55188,-4.26377 3.28663,-0.61538 5.54675,29.02086 8.33011,0.1181 -0.73955,-11.75062 13.56489,-2.38306 5.91621,18.57206 6.76277,-1.0535 0.26144,-16.74765 h 2.84218 l 6.56998,-0.30304 3.10151,13.07487 10.55288,-1.94822 c -2.58848,-20.58727 -4.43697,-33.44565 -4.43697,-33.44565 l 15.85207,-2.76241 c 1.47913,32.56543 3.78482,26.57331 3.78482,26.57331 l 6.71177,-1.23991 -3.43096,-40.4189 15.01364,1.10334 2.21721,46.62438 3.36966,-0.34859 1.40436,-21.1382 12.87345,-0.60149 2.56373,25.90745 3.80998,0.15078 4.79813,-4.90606 h 5.38914 l 3.81543,13.15939 1.72815,-32.17024 h 8.02306 l 0.36976,16.4373 12.13762,-0.41474 -0.21717,12.29281 4.98715,-0.81906 -0.31779,-23.41905 c 6.77348,0.34523 15.02134,-0.76378 15.02134,-0.76378 l 1.10937,13.95103 9.18424,-2.03696 c 2.02657,-21.16587 0.83541,-18.6779 0.83541,-18.6779 l 9.53073,-1.42111 -0.63677,14.13528 7.52966,1.74043 v 8.07989 l 7.52936,0.9109 v 10.38197 l 7.35474,-1.57444 0.66311,-14.13223 11.56093,1.24439 -2.58847,19.74782 5.87174,0.62792 5.46044,5.76074 5.11089,-8.35901 3.85286,2.59121 4.96038,28.31797 m -268.42507,-32.99926 0.51881,4.0949 4.09089,-0.30046 -0.70012,-4.52882 z"
           id="path74454"
           sodipodi:nodetypes="ccccccccccccccccccccccccccccccccccccccccccccccccccccccccccccccccccccccccccccccc"
           transform="matrix(1.2679927,0.13264575,-0.147651,1.4657176,-557.19367,-1164.286)" />
        <ellipse
           style="fill:#808080;fill-opacity:1;stroke-width:5.197;stroke-opacity:0.996078"
           id="path130680"
           cx="51.712219"
           cy="-497.08264"
           rx="210.80182"
           ry="89.781479" />
        <g
           transform="matrix(1.5906268,0.18222183,-0.26135514,2.8396007,-832.22875,-2103.0117)"
           opacity="0.8"
           id="g43162"
           style="fill:#215d86;fill-opacity:1">
          <g
             transform="matrix(1.0886003,0,0,-0.94186271,630.37586,647.09777)"
             id="g43144"
             style="fill:#215d86;fill-opacity:1">
            <path
               d="m 0,0 c 0,0 1.952,2.624 2.624,2.624 0.673,0 2.669,-2.714 2.669,-2.714 L 4.8,-0.091 4.688,-1.503 0.449,-1.458 0.382,-0.022 Z"
               fill="#80b9bb"
               id="path43142"
               style="fill:#215d86;fill-opacity:1" />
          </g>
          <path
             style="opacity:1;fill:#215d86;fill-opacity:1;stroke:none;stroke-width:1.55368;stroke-linecap:round;stroke-opacity:0.87451"
             d="m 352.27329,669.33108 c 10.15148,-3.32407 7.15743,-0.13935 9.30672,-7.44641 l 2.14931,-7.30708 8.84839,-0.3845 5.79928,2.21341 5.98429,-9.06697 13.44362,-1.97715 0.47831,1.12883 4.89393,0.0979 5.83167,-4.84177 6.90568,0.13815 7.75358,9.68026 9.40989,-2.18263 -0.10797,-3.76848 14.55188,0.10394 -1.1877,-4.7991 12.55186,0.4383 4.49545,-5.27317 13.1546,0.88915 0.55505,-7.65704 15.0007,-0.98361 2.53643,7.08542 6.96982,-0.5105 0.8236,-1.89012 6.34498,7.77607 c 6.90178,2.91148 5.36325,-0.70982 9.03706,-2.43895 l 9.57411,0.0562 2.96422,8.9228 8.75183,-5.67729 0.37814,-13.45349 14.8666,0.29743 0.44077,14.89914 9.76556,0.38257 1.80444,2.7623 5.14403,-3.72412 7.10175,-0.0451 0.74416,2.68467 13.74746,0.88263 3.34582,-4.79175 15.06691,0.30144 4.39787,4.35914 4.34712,-4.88873 6.67457,2.00346 2.37711,12.71996"
             id="path74456"
             sodipodi:nodetypes="cscccccccccccccccccccccccccccccccccccccccccc" />
        </g>
        <g
           id="g62971"
           style="opacity:1;fill:#25527f;fill-opacity:1;filter:url(#filter80834)"
           transform="matrix(1.6545796,0.12939669,-0.20932574,2.6804247,-967.18501,-1961.7714)">
          <path
             style="opacity:1;fill:#25527f;fill-opacity:1;stroke:none;stroke-width:1.62079;stroke-linecap:round;stroke-opacity:0.87451"
             d="m 496.35022,651.75323 -2.12812,-13.85229 -2.98124,0.32916 -0.38932,-1.65173 16.102,-4.81904 14.90374,2.44131 0.48518,2.17867 -4.08602,0.39313 1.68424,13.64555"
             id="path59993"
             sodipodi:nodetypes="ccccccccc" />
          <g
             id="g62954"
             style="fill:#25527f;fill-opacity:1">
            <path
               style="opacity:1;fill:#25527f;fill-opacity:1;stroke:none;stroke-width:1.58772;stroke-linecap:round;stroke-opacity:0.87451"
               d="m 523.90094,650.96866 -0.17804,-5.70121 -2.54534,-0.45064 -0.67922,-2.32531 9.17867,-5.06016 10.78217,2.83491 -0.0581,3.27688 c 0,0 -1.33213,0.13506 -1.64189,0.52085 -1.543,1.92175 0.68194,6.00827 0.68194,6.00827"
               id="path59995"
               sodipodi:nodetypes="cccccccsc" />
            <path
               style="opacity:1;fill:#25527f;fill-opacity:1;stroke:none;stroke-width:1.4371;stroke-linecap:round;stroke-opacity:0.87451"
               d="m 433.62404,653.78902 -1.38691,-5.82646 -2.30389,0.25662 -0.61478,-2.10473 8.30796,-4.58014 9.75935,2.56599 -0.0526,2.30151 -1.48613,0.47144 1.843,6.1044"
               id="path59983"
               sodipodi:nodetypes="ccccccccc" />
            <path
               style="opacity:1;fill:#25527f;fill-opacity:1;stroke:none;stroke-width:1.77901;stroke-linecap:round;stroke-opacity:0.87451"
               d="m 455.34259,652.24427 -0.1995,-6.38811 -2.85201,-0.50493 -0.76105,-2.60548 10.28454,-5.66982 12.08124,3.17647 -0.0651,3.67169 c 0,0 -1.49262,0.15133 -1.8397,0.5836 -1.72891,2.15329 0.7641,6.73217 0.7641,6.73217"
               id="path59985"
               sodipodi:nodetypes="cccccccsc" />
            <path
               style="opacity:1;fill:#25527f;fill-opacity:1;stroke:none;stroke-width:1.51327;stroke-linecap:round;stroke-opacity:0.87451"
               d="m 480.63186,650.58463 -0.1697,-5.43387 -2.42598,-0.4295 -0.64737,-2.21628 8.74826,-4.82287 10.27656,2.70197 -0.0554,3.12322 c 0,0 -1.26966,0.12873 -1.56489,0.49642 -1.47065,1.83164 0.64996,5.72654 0.64996,5.72654"
               id="path59987"
               sodipodi:nodetypes="cccccccsc" />
            <path
               style="opacity:1;fill:#25527f;fill-opacity:1;stroke:none;stroke-width:1.34374;stroke-linecap:round;stroke-opacity:0.87451"
               d="m 388.20804,661.54104 c -0.17573,-5.67349 -0.16695,-5.55747 -0.17573,-5.67349 0.13826,-0.11781 0.13826,-0.11781 0.13826,-0.11781 l -2.2326,0.41135 c -0.14805,-1.80494 -0.14805,-1.80494 -0.14805,-1.80494 6.44081,-6.68751 6.44081,-6.68751 6.44081,-6.68751 l 7.94185,3.48036 0.32332,2.80588 c -1.68278,0.17926 -1.68278,0.17926 -1.68278,0.17926 0.8395,5.17256 0.8395,5.17256 0.8395,5.17256"
               id="path59989" />
            <path
               style="opacity:1;fill:#25527f;fill-opacity:1;stroke:none;stroke-width:1.4371;stroke-linecap:round;stroke-opacity:0.87451"
               d="m 597.38811,644.70227 -1.2022,-4.28071 -2.50036,0.99815 -0.61478,-2.10473 8.30796,-4.58014 9.75935,2.56599 -0.0526,2.30151 -2.13102,-0.21042 0.15695,4.06936"
               id="path60003"
               sodipodi:nodetypes="ccccccccc" />
            <path
               style="opacity:1;fill:#25527f;fill-opacity:1;stroke:none;stroke-width:1.19434;stroke-linecap:round;stroke-opacity:0.87451"
               d="m 565.98591,647.09949 -1.15262,-4.84222 -1.9147,0.21327 -0.51093,-1.74918 6.90453,-3.80644 8.11074,2.13253 -0.0437,1.91272 -1.23508,0.39181 1.53167,5.0732 m 68.36626,-1.34817 0.57473,-1.74109 -2.49791,-0.24807 5.51926,-2.39122 4.0007,2.75711 -1.56623,0.2427 v 0 l -0.15639,2.09999"
               id="path59999"
               sodipodi:nodetypes="ccccccccccccccccc" />
            <path
               style="opacity:1;fill:#25527f;fill-opacity:1;stroke:none;stroke-width:1.77901;stroke-linecap:round;stroke-opacity:0.87451"
               d="m 402.29881,660.25598 -1.70174,-14.38835 -2.97647,0.36686 c -0.43233,-1.99174 -0.43233,-1.99174 -0.43233,-1.99174 17.50041,-4.27727 17.50041,-4.27727 17.50041,-4.27727 13.48264,1.72025 13.48264,1.72025 13.48264,1.72025 l 0.54188,2.62686 c -4.08097,0.433 -4.08097,0.433 -4.08097,0.433 l 2.30138,11.79535"
               id="path59991" />
            <path
               style="opacity:1;fill:#25527f;fill-opacity:1;stroke:none;stroke-width:2.06845;stroke-linecap:round;stroke-opacity:0.87451"
               d="m 545.30642,648.03269 -0.17191,-8.49069 -3.37606,0.47618 -0.88487,-3.02936 11.95778,-6.59228 14.0468,3.69327 -0.0757,4.26905 c 0,0 -2.37057,-0.87156 -2.77412,-0.36896 -2.01018,2.50362 1.52351,8.87497 1.52351,8.87497"
               id="path59997"
               sodipodi:nodetypes="cccccccsc" />
            <path
               style="opacity:1;fill:#25527f;fill-opacity:1;stroke:none;stroke-width:1.19434;stroke-linecap:round;stroke-opacity:0.87451"
               d="m 583.31512,644.62918 -1.09919,-10.23565 -1.9147,0.21327 -0.51093,-1.74918 6.90453,-3.80644 8.11074,2.13253 -0.0437,1.91272 -1.23508,0.39181 1.47824,10.46663"
               id="path60001"
               sodipodi:nodetypes="ccccccccc" />
            <path
               style="opacity:1;fill:#25527f;fill-opacity:1;stroke:none;stroke-width:1.11211;stroke-linecap:round;stroke-opacity:0.87451"
               d="m 613.73126,642.54214 -0.93033,-3.31266 -1.93492,0.77243 -0.47575,-1.62876 6.42917,-3.54437 7.55234,1.9857 -0.0407,1.78104 -1.64911,-0.16283 2.01122,6.84132"
               id="path61753"
               sodipodi:nodetypes="ccccccccc" />
            <path
               style="opacity:1;fill:#25527f;fill-opacity:1;stroke:none;stroke-width:1.58772;stroke-linecap:round;stroke-opacity:0.87451"
               d="m 628.56128,645.4709 -0.5579,-2.27468 -2.54534,-0.45064 -0.67922,-2.32531 9.17867,-5.06016 10.78217,2.83491 -0.002,1.74747 c 0,0 -3.06453,1.29813 -3.00059,1.74801 0.47263,3.32505 1.76595,3.29715 1.76595,3.29715"
               id="path61765"
               sodipodi:nodetypes="cccccccsc" />
            <path
               style="opacity:1;fill:#25527f;fill-opacity:1;stroke:none;stroke-width:1.77901;stroke-linecap:round;stroke-opacity:0.87451"
               d="m 653.15887,644.65042 c 0.23665,-3.28516 0.23665,-3.28516 0.23665,-3.28516 l -2.80122,-0.16676 c 0.0854,-1.04161 0.0854,-1.04161 0.0854,-1.04161 5.6535,-2.75147 5.6535,-2.75147 5.6535,-2.75147 l 5.03111,4.49369 c -0.51249,1.1508 -0.51249,1.1508 -0.51249,1.1508 -2.06311,-0.36106 -2.06311,-0.36106 -2.06311,-0.36106 l -0.21537,2.51091"
               id="path61797" />
          </g>
        </g>
        <path
           style="opacity:1;fill:#25527f;fill-opacity:1;stroke:none;stroke-width:1.11211;stroke-linecap:round;stroke-opacity:0.87451;filter:url(#filter80834)"
           d="m 621.13674,642.91258 -2.03939,-10.19126 -1.93492,0.77243 -0.47575,-1.62876 6.27382,-4.51804 7.70769,2.95937 -0.0407,1.78104 -1.64911,-0.16283 1.23052,10.0277"
           id="path61759"
           sodipodi:nodetypes="ccccccccc"
           transform="matrix(1.6831422,0.13163043,-0.20932574,2.6804247,-1001.3092,-1962.2265)" />
        <g
           id="g61895"
           transform="matrix(1.3749792,0.10753049,-0.15003973,1.921265,-664.16976,-1463.808)"
           style="fill:#ffe200;fill-opacity:0.393529;stroke:none;filter:url(#filter80834)">
          <path
             style="fill:#ffe200;fill-opacity:0.393529;stroke:none;stroke-width:2.0256;stroke-linecap:round;stroke-opacity:0.87451"
             d="m 423.0653,646.96808 0.84852,8.3792 4.39895,-0.1399 -0.98698,-8.67419 z"
             id="path60472-5"
             sodipodi:nodetypes="ccccc" />
          <path
             style="fill:#ffe200;fill-opacity:0.393529;stroke:none;stroke-width:2.0256;stroke-linecap:round;stroke-opacity:0.87451"
             d="m 412.4889,648.93263 0.3359,2.76557 3.33753,-0.1399 -0.47436,-3.06056 z"
             id="path60474-3" />
          <path
             style="fill:#ffe200;fill-opacity:0.393529;stroke:none;stroke-width:2.0256;stroke-linecap:round;stroke-opacity:0.87451"
             d="m 420.30309,651.18517 -0.3359,-2.76557 -3.33753,0.1399 0.47436,3.06056 z"
             id="path60476-5" />
          <path
             style="fill:#ffe200;fill-opacity:0.393529;stroke:none;stroke-width:2.0256;stroke-linecap:round;stroke-opacity:0.87451"
             d="m 351.40941,644.51351 0.3359,2.76557 3.33753,-0.1399 -0.47436,-3.06056 z"
             id="path60472-3" />
          <path
             style="fill:#ffe200;fill-opacity:0.393529;stroke:none;stroke-width:2.0256;stroke-linecap:round;stroke-opacity:0.87451"
             d="m 352.24267,649.6812 0.69725,3.07882 2.97618,-0.45315 -0.47436,-3.06056 z"
             id="path60474-6"
             sodipodi:nodetypes="ccccc" />
          <path
             style="fill:#ffe200;fill-opacity:0.393529;stroke:none;stroke-width:2.0256;stroke-linecap:round;stroke-opacity:0.87451"
             d="m 356.31911,656.74222 -0.3359,-2.76557 -3.33753,0.1399 0.47436,3.06056 z"
             id="path60476-7" />
          <path
             style="opacity:1;fill:#ffe200;fill-opacity:0.393529;stroke:none;stroke-width:2.2987;stroke-linecap:round;stroke-opacity:0.87451"
             d="m 228.40732,667.45616 0.38119,3.13845 3.78752,-0.15876 -0.53832,-3.47321 z"
             id="path60456" />
          <path
             style="fill:#ffe200;fill-opacity:0.393529;stroke:none;stroke-width:2.2987;stroke-linecap:round;stroke-opacity:0.87451;filter:url(#filter80834)"
             d="m 254.52322,614.14433 0.38119,3.13845 3.78752,-0.15876 -0.53832,-3.47321 z"
             id="path60456-1"
             transform="matrix(0.46083946,0,0,0.46083946,137.01649,330.86819)" />
          <path
             style="opacity:1;fill:#ffe200;fill-opacity:0.393529;stroke:none;stroke-width:2.2987;stroke-linecap:round;stroke-opacity:0.87451"
             d="m 222.8103,668.12677 3.96218,-0.39915 0.53353,3.28998 -3.71511,0.29337 z"
             id="path60458" />
          <path
             style="opacity:1;fill:#ffe200;fill-opacity:0.393529;stroke:none;stroke-width:2.2987;stroke-linecap:round;stroke-opacity:0.87451"
             d="m 239.50343,656.60813 3.96218,-0.39915 0.53353,3.28998 -3.71511,0.29337 z"
             id="path60460" />
          <path
             style="opacity:1;fill:#ffe200;fill-opacity:0.393529;stroke:none;stroke-width:2.25857;stroke-linecap:round;stroke-opacity:0.87451"
             d="m 240.36977,661.91458 3.89301,-0.39218 0.52422,3.23255 -3.65026,0.28825 z"
             id="path60462" />
          <path
             style="opacity:1;fill:#ffe200;fill-opacity:0.393529;stroke:none;stroke-width:2.0256;stroke-linecap:round;stroke-opacity:0.87451"
             d="m 241.33367,666.98581 0.3359,2.76557 3.33753,-0.1399 -0.47436,-3.06056 z"
             id="path60464" />
          <path
             style="opacity:1;fill:#ffe200;fill-opacity:0.393529;stroke:none;stroke-width:2.0256;stroke-linecap:round;stroke-opacity:0.87451"
             d="m 247.05725,655.84449 0.3359,2.76557 3.33753,-0.1399 -0.47436,-3.06056 z"
             id="path60466" />
          <path
             style="opacity:1;fill:#ffe200;fill-opacity:0.393529;stroke:none;stroke-width:2.0256;stroke-linecap:round;stroke-opacity:0.87451"
             d="m 247.18897,661.49875 0.3359,2.76557 3.33753,-0.1399 -0.47436,-3.06056 z"
             id="path60468" />
          <path
             style="opacity:1;fill:#ffe200;fill-opacity:0.393529;stroke:none;stroke-width:2.0256;stroke-linecap:round;stroke-opacity:0.87451"
             d="m 247.84755,666.69367 0.3359,2.76557 3.33753,-0.1399 -0.47436,-3.06056 z"
             id="path60470" />
          <path
             style="opacity:1;fill:#ffe200;fill-opacity:0.393529;stroke:none;stroke-width:2.0256;stroke-linecap:round;stroke-opacity:0.87451"
             d="m 253.37152,655.11052 0.3359,2.76557 3.33753,-0.1399 -0.47436,-3.06056 z"
             id="path60472" />
          <path
             style="opacity:1;fill:#ffe200;fill-opacity:0.393529;stroke:none;stroke-width:2.0256;stroke-linecap:round;stroke-opacity:0.87451"
             d="m 253.55935,661.21523 0.3359,2.76557 3.33753,-0.1399 -0.47436,-3.06056 z"
             id="path60474" />
          <path
             style="opacity:1;fill:#ffe200;fill-opacity:0.393529;stroke:none;stroke-width:2.0256;stroke-linecap:round;stroke-opacity:0.87451"
             d="m 257.62793,668.3187 -0.3359,-2.76557 -3.33753,0.1399 0.47436,3.06056 z"
             id="path60476" />
          <path
             style="opacity:1;fill:#ffe200;fill-opacity:0.393529;stroke:none;stroke-width:2.2987;stroke-linecap:round;stroke-opacity:0.87451"
             d="m 260.46179,670.2179 c -0.52901,-6.24201 -0.52901,-6.24201 -0.52901,-6.24201 l 3.22922,0.0241 0.71631,6.26804"
             id="path60478" />
          <path
             style="opacity:1;fill:#ffe200;fill-opacity:0.393529;stroke:none;stroke-width:2.03688;stroke-linecap:round;stroke-opacity:0.87451"
             d="m 276.65551,660.07415 0.69341,2.7299 3.31663,-0.47128 -0.86993,-3.01086 z"
             id="path60480" />
          <path
             style="opacity:1;fill:#ffe200;fill-opacity:0.393529;stroke:none;stroke-width:1.63297;stroke-linecap:round;stroke-opacity:0.87451"
             d="m 282.91531,659.48741 0.98908,5.98384 3.10026,-0.51856 -1.13059,-6.20909 z"
             id="path60482"
             sodipodi:nodetypes="ccccc" />
          <path
             style="opacity:1;fill:#ffe200;fill-opacity:0.393529;stroke:none;stroke-width:2.03688;stroke-linecap:round;stroke-opacity:0.87451"
             d="m 313.66639,656.08019 0.18302,2.79209 3.35996,0.002 -0.30564,-3.09427 z"
             id="path60484" />
          <path
             style="opacity:1;fill:#ffe200;fill-opacity:0.393529;stroke:none;stroke-width:2.03688;stroke-linecap:round;stroke-opacity:0.87451"
             d="m 303.81643,656.4878 0.18302,2.79209 3.35996,0.002 -0.30564,-3.09427 z"
             id="path60486" />
          <path
             style="opacity:1;fill:#ffe200;fill-opacity:0.393529;stroke:none;stroke-width:2.2987;stroke-linecap:round;stroke-opacity:0.87451"
             d="m 335.03015,657.15013 c 2.58612,-0.15113 2.59659,-0.162 2.59659,-0.162 0.66998,5.06207 0.66998,5.06207 0.66998,5.06207 l -2.80333,-0.002 z"
             id="path60488" />
          <path
             style="opacity:1;fill:#ffe200;fill-opacity:0.393529;stroke:none;stroke-width:2.2987;stroke-linecap:round;stroke-opacity:0.87451"
             d="m 342.02437,657.81799 c 0,-1.74936 -0.25455,-1.86425 -0.25455,-1.86425 l 4.28894,-0.53041 c 0.20647,1.89928 0.20647,1.89928 0.20647,1.89928 z"
             id="path60494" />
          <path
             style="fill:#ffe200;fill-opacity:0.393529;stroke:none;stroke-width:2.0256;stroke-linecap:round;stroke-opacity:0.87451"
             d="m 360.44454,646.48175 -0.3359,-2.76557 -3.33753,0.1399 0.47436,3.06056 z"
             id="path60535" />
          <path
             style="fill:#ffe200;fill-opacity:0.393529;stroke:none;stroke-width:2.0256;stroke-linecap:round;stroke-opacity:0.87451"
             d="m 398.3788,654.40559 -0.3359,-2.76557 -3.33753,0.1399 0.47436,3.06056 z"
             id="path60537" />
          <path
             style="fill:#ffe200;fill-opacity:0.393529;stroke:none;stroke-width:1.10301;stroke-linecap:round;stroke-opacity:0.87451"
             d="m 438.85884,652.42456 -0.18291,-1.50595 -1.8174,0.0762 0.25831,1.66658 z"
             id="path60560" />
          <path
             style="fill:#ffe200;fill-opacity:0.393529;stroke:none;stroke-width:1.10301;stroke-linecap:round;stroke-opacity:0.87451"
             d="m 465.12473,642.08031 -0.18291,-1.50595 -1.8174,0.0762 0.25831,1.66658 z"
             id="path61015" />
          <path
             style="fill:#ffe200;fill-opacity:0.393529;stroke:none;stroke-width:1.10301;stroke-linecap:round;stroke-opacity:0.87451"
             d="m 465.35757,644.84495 -0.18291,-1.50595 -1.8174,0.0762 0.25831,1.66658 z"
             id="path61017" />
          <path
             style="fill:#ffe200;fill-opacity:0.393529;stroke:none;stroke-width:1.10301;stroke-linecap:round;stroke-opacity:0.87451"
             d="m 465.55889,647.47424 -0.18291,-1.50595 -1.8174,0.0762 0.25831,1.66658 z"
             id="path61019" />
          <path
             style="fill:#ffe200;fill-opacity:0.393529;stroke:none;stroke-width:1.10301;stroke-linecap:round;stroke-opacity:0.87451"
             d="m 462.12217,642.39024 -0.18291,-1.50595 -1.8174,0.0762 0.25831,1.66658 z"
             id="path61021" />
          <path
             style="fill:#ffe200;fill-opacity:0.393529;stroke:none;stroke-width:1.10301;stroke-linecap:round;stroke-opacity:0.87451"
             d="m 475.59441,649.73276 -0.18291,-1.50595 -1.8174,0.0762 0.25831,1.66658 z"
             id="path61023" />
          <path
             style="fill:#ffe200;fill-opacity:0.393529;stroke:none;stroke-width:1.10301;stroke-linecap:round;stroke-opacity:0.87451"
             d="m 536.09643,652.35331 0.38053,-1.4773 -1.74854,-0.44081 -0.36821,1.65065 z"
             id="path61023-6" />
          <path
             style="fill:#ffe200;fill-opacity:0.393529;stroke:none;stroke-width:1.10301;stroke-linecap:round;stroke-opacity:0.87451"
             d="m 544.98593,651.92956 -0.18291,-1.50595 -1.8174,0.0762 0.25831,1.66658 z"
             id="path61023-2" />
          <path
             style="fill:#ffe200;fill-opacity:0.393529;stroke:none;stroke-width:1.78633;stroke-linecap:round;stroke-opacity:0.87451"
             d="m 516.81528,650.62823 -0.29622,-2.4389 -2.9433,0.12341 0.41834,2.69904 z"
             id="path61023-9" />
          <path
             style="fill:#ffe200;fill-opacity:0.393529;stroke:none;stroke-width:1.10301;stroke-linecap:round;stroke-opacity:0.87451"
             d="m 478.1838,649.40499 -0.18291,-1.50595 -1.8174,0.0762 0.25831,1.66658 z"
             id="path61025" />
          <path
             style="fill:#ffe200;fill-opacity:0.393529;stroke:none;stroke-width:0.853572;stroke-linecap:round;stroke-opacity:0.87451"
             d="m 494.5822,649.12735 -0.14154,-1.16539 -1.40641,0.059 0.1999,1.2897 z"
             id="path61755" />
          <path
             style="fill:#ffe200;fill-opacity:0.393529;stroke:none;stroke-width:0.853572;stroke-linecap:round;stroke-opacity:0.87451"
             d="m 496.58602,648.8737 -0.14154,-1.16539 -1.40641,0.059 0.19989,1.28969 z"
             id="path61757" />
          <path
             style="fill:#ffe200;fill-opacity:0.393529;stroke:none;stroke-width:0.853572;stroke-linecap:round;stroke-opacity:0.87451"
             d="m 494.45562,637.7556 -0.14154,-1.16539 -1.40641,0.059 0.1999,1.2897 z"
             id="path61761"
             sodipodi:nodetypes="ccccc" />
          <path
             style="fill:#ffe200;fill-opacity:0.393529;stroke:none;stroke-width:0.853572;stroke-linecap:round;stroke-opacity:0.87451"
             d="m 496.45944,637.50195 -0.14154,-1.16539 -1.40641,0.059 0.19989,1.28969 z"
             id="path61763"
             sodipodi:nodetypes="ccccc" />
          <path
             style="fill:#ffe200;fill-opacity:0.393529;stroke:none;stroke-width:1.78633;stroke-linecap:round;stroke-opacity:0.87451"
             d="m 520.88725,650.64235 -0.29622,-2.4389 -2.9433,0.12341 0.41834,2.69904 z"
             id="path61852" />
          <path
             style="fill:#ffe200;fill-opacity:0.393529;stroke:none;stroke-width:2.2987;stroke-linecap:round;stroke-opacity:0.87451;filter:url(#filter80834)"
             d="m 254.52322,614.14433 0.38119,3.13845 3.78752,-0.15876 -0.53832,-3.47321 z"
             id="path117659"
             transform="matrix(0.46083946,0,0,0.46083946,137.37493,334.15321)" />
          <path
             style="fill:#ffe200;fill-opacity:0.393529;stroke:none;stroke-width:2.2987;stroke-linecap:round;stroke-opacity:0.87451;filter:url(#filter80834)"
             d="m 254.52322,614.14433 0.38119,3.13845 3.78752,-0.15876 -0.53832,-3.47321 z"
             id="path117661"
             transform="matrix(0.46083946,0,0,0.46083946,137.85285,338.53324)" />
          <path
             style="fill:#ffe200;fill-opacity:0.393529;stroke:none;stroke-width:2.2987;stroke-linecap:round;stroke-opacity:0.87451;filter:url(#filter80834)"
             d="m 254.52322,614.14433 0.38119,3.13845 3.78752,-0.15876 -0.53832,-3.47321 z"
             id="path117663"
             transform="matrix(0.46083946,0,0,0.46083946,147.04051,338.01904)" />
          <path
             style="fill:#ffe200;fill-opacity:0.393529;stroke:none;stroke-width:2.2987;stroke-linecap:round;stroke-opacity:0.87451;filter:url(#filter80834)"
             d="m 254.52322,614.14433 0.38119,3.13845 3.78752,-0.15876 -0.53832,-3.47321 z"
             id="path117665"
             transform="matrix(0.46083946,0,0,0.46083946,147.72752,344.31534)" />
          <path
             style="fill:#ffe200;fill-opacity:0.393529;stroke:none;stroke-width:2.2987;stroke-linecap:round;stroke-opacity:0.87451;filter:url(#filter80834)"
             d="m 254.52322,614.14433 0.38119,3.13845 3.78752,-0.15876 -0.53832,-3.47321 z"
             id="path117667"
             transform="matrix(0.46083946,0,0,0.46083946,140.70527,349.94143)" />
          <path
             style="fill:#ffe200;fill-opacity:0.393529;stroke:none;stroke-width:2.2987;stroke-linecap:round;stroke-opacity:0.87451;filter:url(#filter80834-9)"
             d="m 254.52322,614.14433 0.38119,3.13845 3.78752,-0.15876 -0.53832,-3.47321 z"
             id="path117667-7"
             transform="matrix(0.46083946,0,0,0.46083946,183.50372,325.83002)" />
          <path
             style="fill:#ffe200;fill-opacity:0.393529;stroke:none;stroke-width:2.2987;stroke-linecap:round;stroke-opacity:0.87451;filter:url(#filter80834-8)"
             d="m 254.52322,614.14433 0.38119,3.13845 3.78752,-0.15876 -0.53832,-3.47321 z"
             id="path117667-0"
             transform="matrix(0.46083946,0,0,0.46083946,187.8978,325.58408)" />
          <path
             style="fill:#ffe200;fill-opacity:0.393529;stroke:none;stroke-width:2.2987;stroke-linecap:round;stroke-opacity:0.87451;filter:url(#filter80834-3)"
             d="m 254.52322,614.14433 0.38119,3.13845 3.78752,-0.15876 -0.53832,-3.47321 z"
             id="path117667-1"
             transform="matrix(0.46083946,0,0,0.46083946,183.78738,329.16596)" />
          <path
             style="fill:#ffe200;fill-opacity:0.393529;stroke:none;stroke-width:2.2987;stroke-linecap:round;stroke-opacity:0.87451;filter:url(#filter80834-3)"
             d="m 254.52322,614.14433 0.38119,3.13845 3.78752,-0.15876 -0.53832,-3.47321 z"
             id="path117744"
             transform="matrix(0.46083946,0,0,0.46083946,184.2653,333.54598)" />
          <path
             style="fill:#ffe200;fill-opacity:0.393529;stroke:none;stroke-width:2.2987;stroke-linecap:round;stroke-opacity:0.87451;filter:url(#filter80834-0)"
             d="m 254.52322,614.14433 0.38119,3.13845 3.78752,-0.15876 -0.53832,-3.47321 z"
             id="path117667-2"
             transform="matrix(0.46083946,0,0,0.46083946,206.35085,335.66743)" />
          <path
             style="fill:#ffe200;fill-opacity:0.393529;stroke:none;stroke-width:2.2987;stroke-linecap:round;stroke-opacity:0.87451;filter:url(#filter80834-06)"
             d="m 254.52322,614.14433 0.38119,3.13845 3.78752,-0.15876 -0.53832,-3.47321 z"
             id="path117667-5"
             transform="matrix(0.46083946,0,0,0.46083946,119.46978,353.94962)" />
          <path
             style="fill:#ffe200;fill-opacity:0.393529;stroke:none;stroke-width:2.2987;stroke-linecap:round;stroke-opacity:0.87451;filter:url(#filter80834-5)"
             d="m 254.52322,614.14433 0.38119,3.13845 3.78752,-0.15876 -0.53832,-3.47321 z"
             id="path117667-6"
             transform="matrix(0.46083946,0,0,0.46083946,119.87117,356.83926)" />
          <path
             style="fill:#ffe200;fill-opacity:0.393529;stroke:none;stroke-width:2.2987;stroke-linecap:round;stroke-opacity:0.87451;filter:url(#filter80834-56)"
             d="m 254.52322,614.14433 0.38119,3.13845 3.78752,-0.15876 -0.53832,-3.47321 z"
             id="path117667-3"
             transform="matrix(-0.45524459,0.05127193,0.09996442,0.45524459,384.31685,326.1701)" />
          <path
             style="fill:#ffe200;fill-opacity:0.393529;stroke:none;stroke-width:2.2987;stroke-linecap:round;stroke-opacity:0.87451;filter:url(#filter80834-56)"
             d="m 254.52322,614.14433 0.38119,3.13845 3.78752,-0.15876 -0.53832,-3.47321 z"
             id="path117822"
             transform="matrix(-0.45524459,0.05127193,0.09996442,0.45524459,384.67529,329.45512)" />
          <path
             style="fill:#ffe200;fill-opacity:0.393529;stroke:none;stroke-width:2.2987;stroke-linecap:round;stroke-opacity:0.87451;filter:url(#filter80834-56)"
             d="m 254.52322,614.14433 0.38119,3.13845 3.78752,-0.15876 -0.53832,-3.47321 z"
             id="path117824"
             transform="matrix(-0.45524459,0.05127193,0.09996442,0.45524459,380.68067,329.6787)" />
          <path
             style="fill:#ffe200;fill-opacity:0.393529;stroke:none;stroke-width:2.2987;stroke-linecap:round;stroke-opacity:0.87451;filter:url(#filter80834-7)"
             d="m 254.52322,614.14433 0.38119,3.13845 3.78752,-0.15876 -0.53832,-3.47321 z"
             id="path117667-54"
             transform="matrix(0.46083946,0,0,0.46083946,249.67594,317.72633)" />
          <path
             style="fill:#ffe200;fill-opacity:0.393529;stroke:none;stroke-width:2.2987;stroke-linecap:round;stroke-opacity:0.87451;filter:url(#filter80834-7)"
             d="m 254.52322,614.14433 0.38119,3.13845 3.78752,-0.15876 -0.53832,-3.47321 z"
             id="path117845"
             transform="matrix(0.46083946,0,0,0.46083946,253.67054,317.50273)" />
          <path
             style="fill:#ffe200;fill-opacity:0.393529;stroke:none;stroke-width:2.2987;stroke-linecap:round;stroke-opacity:0.87451;filter:url(#filter80834-7)"
             d="m 254.52322,614.14433 0.38119,3.13845 3.78752,-0.15876 -0.53832,-3.47321 z"
             id="path117847"
             transform="matrix(0.46083946,0,0,0.46083946,254.05885,321.0615)" />
          <path
             style="fill:#ffe200;fill-opacity:0.393529;stroke:none;stroke-width:2.2987;stroke-linecap:round;stroke-opacity:0.87451;filter:url(#filter80834-7)"
             d="m 254.52322,614.14433 0.38119,3.13845 3.78752,-0.15876 -0.53832,-3.47321 z"
             id="path117849"
             transform="matrix(0.46083946,0,0,0.46083946,254.44716,324.62027)" />
          <path
             style="fill:#ffe200;fill-opacity:0.393529;stroke:none;stroke-width:2.2987;stroke-linecap:round;stroke-opacity:0.87451;filter:url(#filter80834-7)"
             d="m 254.52322,614.14433 0.38119,3.13845 3.78752,-0.15876 -0.53832,-3.47321 z"
             id="path117851"
             transform="matrix(0.46083946,0,0,0.46083946,254.83547,328.17903)" />
          <path
             style="fill:#ffe200;fill-opacity:0.393529;stroke:none;stroke-width:2.2987;stroke-linecap:round;stroke-opacity:0.87451;filter:url(#filter80834-7)"
             d="m 254.52322,614.14433 0.38119,3.13845 3.78752,-0.15876 -0.53832,-3.47321 z"
             id="path117853"
             transform="matrix(0.46083946,0,0,0.46083946,255.28352,332.2853)" />
          <path
             style="fill:#ffe200;fill-opacity:0.393529;stroke:none;stroke-width:2.2987;stroke-linecap:round;stroke-opacity:0.87451;filter:url(#filter80834-7)"
             d="m 254.52322,614.14433 0.38119,3.13845 3.78752,-0.15876 -0.53832,-3.47321 z"
             id="path117855"
             transform="matrix(0.46083946,0,0,0.46083946,254.83547,328.17903)" />
          <path
             style="fill:#ffe200;fill-opacity:0.393529;stroke:none;stroke-width:2.2987;stroke-linecap:round;stroke-opacity:0.87451;filter:url(#filter80834-74)"
             d="m 254.52322,614.14433 0.38119,3.13845 3.78752,-0.15876 -0.53832,-3.47321 z"
             id="path117667-07"
             transform="matrix(0.46083946,0,0,0.46083946,230.88672,340.64134)" />
          <path
             style="fill:#ffe200;fill-opacity:0.393529;stroke:none;stroke-width:2.2987;stroke-linecap:round;stroke-opacity:0.87451;filter:url(#filter80834-86)"
             d="m 254.52322,614.14433 0.38119,3.13845 3.78752,-0.15876 -0.53832,-3.47321 z"
             id="path117667-8"
             transform="matrix(0.46083946,0,0,0.46083946,231.148,335.6691)" />
          <path
             style="fill:#ffe200;fill-opacity:0.393529;stroke:none;stroke-width:2.2987;stroke-linecap:round;stroke-opacity:0.87451;filter:url(#filter80834-86)"
             d="m 254.52322,614.14433 0.38119,3.13845 3.78752,-0.15876 -0.53832,-3.47321 z"
             id="path117895"
             transform="matrix(0.46083946,0,0,0.46083946,236.34857,342.81447)" />
          <path
             style="fill:#ffe200;fill-opacity:0.393529;stroke:none;stroke-width:2.2987;stroke-linecap:round;stroke-opacity:0.87451;filter:url(#filter80834-4)"
             d="m 254.52322,614.14433 0.38119,3.13845 3.78752,-0.15876 -0.53832,-3.47321 z"
             id="path117667-14"
             transform="matrix(0.46083946,0,0,0.46083946,174.48952,347.17728)" />
        </g>
        <path
           d="m -515.57312,-122.01552 c 10.28217,-16.2444 17.22924,-18.99451 33.52985,-22.11332 l 21.40912,-4.09598 25.26818,0.56016 c -5.35438,9.27664 28.72363,0.67727 43.21267,0.95797 l 0.634,-6.34135 c 0,0 44.17818,-12.71571 85.73597,-9.41026 l 31.33002,3.3624 13.26485,3.05166 14.74124,1.62053 c 9.42813,-11.65756 16.94435,6.41811 28.51212,3.82179 l 27.75333,-7.00309 c 7.76563,0.0996 16.65447,-4.06817 22.09034,-4.1458 17.3945,-0.24822 22.20959,2.8854 30.97521,1.84956 3.33272,-0.39384 6.88025,-0.78809 11.28005,-1.13976 l 64.901341,0.32269 28.023282,6.40952 c 37.2541761,3.82313 50.474779,4.02231 42.8418997,30.56272 -1.601086,5.56716 -130.4840027,23.894033 -270.7119227,24.757353 -136.83469,0.84243 -256.5746,-20.321743 -254.03457,-22.942163 z"
           fill="#5682b0"
           id="path65807"
           style="fill:#002655;fill-opacity:1;stroke-width:1.29143"
           sodipodi:nodetypes="cccccccccccccscccsscc" />
      </g>
      <path
         style="opacity:0.792145;fill:#b98504;fill-opacity:1;stroke-width:0.0301099"
         d="m -237.4572,-216.96146 c -2.761,-0.12934 -5.26215,-0.92278 -7.48223,-2.37382 -2.24318,-1.46608 -3.96509,-3.4013 -5.16337,-5.80296 -0.81098,-1.62526 -1.27906,-3.26971 -1.48124,-5.2034 -0.0521,-0.49295 -0.0509,-2.21368 0,-2.67976 0.0675,-0.60358 0.12756,-1.02713 0.20455,-1.4303 0.80364,-4.20743 3.40498,-7.85912 7.13224,-10.01168 0.34881,-0.20147 1.51759,-0.78267 1.57397,-0.78267 0.0178,0 -0.0936,0.26104 -0.24825,0.57966 -0.76467,1.57599 -1.19994,3.1399 -1.37641,4.94554 -0.058,0.59495 -0.0498,2.0596 0.0166,2.66472 0.31731,2.93393 1.39205,5.47843 3.27481,7.75323 0.33637,0.4065 1.3166,1.38198 1.74288,1.73435 0.92977,0.76892 1.74879,1.30547 2.77012,1.81477 1.59186,0.7938 3.12249,1.23867 4.95302,1.43967 0.48312,0.0533 2.38376,0.0533 2.81526,0.001 1.2222,-0.149 2.09299,-0.33613 3.06303,-0.65676 0.61377,-0.20277 1.04324,-0.3796 1.71422,-0.70484 0.57433,-0.27847 0.60547,-0.29019 0.57859,-0.21273 -0.0758,0.21806 -0.65167,1.33863 -0.89934,1.75058 -1.48988,2.47839 -3.60869,4.42642 -6.18778,5.68901 -1.65641,0.81097 -3.41019,1.29245 -5.25421,1.44251 -0.43042,0.0355 -1.41183,0.0592 -1.74632,0.045 z"
         id="path117415"
         sodipodi:nodetypes="cssscssssscsssscsssssscc" />
      <path
         d="m -126.821,-208.14271 c 0.10272,-1.0065 0.47164,-2.00936 0.98487,-2.67696 0.65642,-0.85389 1.77765,-1.42541 3.13541,-1.59816 l 0.60572,-0.0768 -0.54905,-0.0758 c -0.74587,-0.1032 -1.28119,-0.25794 -1.86407,-0.53864 -0.3928,-0.18904 -0.59086,-0.33594 -0.99805,-0.73972 -0.43182,-0.42823 -0.54773,-0.58658 -0.77382,-1.05726 -1.27371,-3.18061 0.0787,-2.63165 -1.21762,0.055 -0.19273,0.38994 -0.34815,0.59981 -0.71422,0.96458 -0.25736,0.25642 -0.61842,0.55433 -0.80235,0.66219 -0.48386,0.28372 -1.22197,0.52064 -1.974,0.63366 l -0.65642,0.0985 0.57425,0.072 c 1.37274,0.17256 2.50875,0.7546 3.15816,1.61837 0.51722,0.68806 0.78881,1.38791 0.94914,2.44601 l 0.0978,0.6459 z"
         style="opacity:0.51902;fill:#fad009;fill-opacity:0.963521;stroke-width:0.0582725"
         id="path88609" />
      <path
         d="m -183.94319,-219.88404 c 0.10263,-1.00646 0.47154,-2.00934 0.98477,-2.67696 0.65652,-0.85399 1.77764,-1.4254 3.1355,-1.59816 l 0.60562,-0.0768 -0.54904,-0.0758 c -0.74588,-0.10311 -1.28119,-0.25784 -1.86398,-0.53854 -0.39281,-0.18904 -0.59094,-0.33594 -0.99805,-0.73972 -0.43192,-0.42831 -0.54782,-0.58656 -0.77392,-1.05725 -1.27362,-3.18061 0.0787,-2.63165 -1.2175,0.0549 -0.19285,0.38995 -0.34817,0.59976 -0.71433,0.96449 -0.25737,0.25653 -0.61842,0.55444 -0.80235,0.6623 -0.48376,0.28371 -1.22188,0.52063 -1.974,0.63366 l -0.65643,0.0985 0.57427,0.072 c 1.37273,0.17265 2.50884,0.75468 3.15815,1.61846 0.51731,0.68806 0.7888,1.38788 0.94915,2.44591 l 0.0979,0.64591 z"
         style="opacity:0.51902;fill:#fad009;fill-opacity:0.963521;stroke-width:0.0582725"
         id="path88625" />
      <path
         d="m -158.89409,-195.66034 c -0.0749,-0.73175 -0.34274,-1.46106 -0.7162,-1.94651 -0.47734,-0.621 -1.29266,-1.03653 -2.27997,-1.16209 l -0.44048,-0.0559 0.39924,-0.0549 c 0.54241,-0.0749 0.9317,-0.18762 1.35549,-0.39154 0.28579,-0.13761 0.42972,-0.24431 0.72577,-0.53799 0.31404,-0.31157 0.3983,-0.4265 0.56272,-0.76881 0.92621,-2.31286 -0.0578,-1.91362 0.88545,0.0398 0.13995,0.28362 0.2532,0.43608 0.51938,0.70134 0.18725,0.18667 0.44967,0.40323 0.58337,0.48158 0.35175,0.20628 0.88858,0.37857 1.43546,0.46074 l 0.47733,0.072 -0.41763,0.0521 c -0.99811,0.12537 -1.82427,0.54877 -2.29646,1.17685 -0.37611,0.50035 -0.57351,1.00921 -0.69016,1.77859 l -0.0711,0.46974 z"
         style="opacity:0.51902;fill:#fad009;fill-opacity:0.963521;stroke-width:0.042374"
         id="path131989" />
      <path
         d="m -212.40335,-187.47657 c -0.0749,-0.73175 -0.34274,-1.46106 -0.7162,-1.94651 -0.47733,-0.621 -1.29266,-1.03653 -2.27997,-1.1621 l -0.44048,-0.0559 0.39923,-0.055 c 0.54242,-0.0749 0.93172,-0.18762 1.3555,-0.39154 0.28579,-0.13761 0.42972,-0.24431 0.72576,-0.53799 0.31405,-0.31158 0.39831,-0.42651 0.56273,-0.76881 0.92621,-2.31286 -0.0578,-1.91362 0.88545,0.0398 0.13995,0.28363 0.2532,0.43609 0.51938,0.70134 0.18725,0.18667 0.44967,0.40323 0.58337,0.48158 0.35175,0.20629 0.88858,0.37858 1.43546,0.46074 l 0.47733,0.072 -0.41762,0.0521 c -0.99812,0.12536 -1.82428,0.54876 -2.29647,1.17685 -0.37611,0.50035 -0.57352,1.00921 -0.69017,1.77859 l -0.0711,0.46974 z"
         style="opacity:0.51902;fill:#fad009;fill-opacity:0.963521;stroke-width:0.042374"
         id="path131989-0" />
      <path
         d="m -58.572287,-150.97552 c 0.10272,-1.0065 0.47164,-2.00936 0.98487,-2.67696 0.65642,-0.85389 1.77765,-1.42541 3.13541,-1.59816 l 0.60572,-0.0768 -0.54905,-0.0758 c -0.74587,-0.1032 -1.28119,-0.25794 -1.86407,-0.53864 -0.3928,-0.18904 -0.59086,-0.33594 -0.99805,-0.73972 -0.43182,-0.42823 -0.54773,-0.58658 -0.77382,-1.05726 -1.27371,-3.18061 0.0787,-2.63165 -1.21762,0.055 -0.19273,0.38994 -0.34815,0.59981 -0.71422,0.96458 -0.25736,0.25642 -0.61842,0.55433 -0.80235,0.66219 -0.48386,0.28372 -1.22197,0.52064 -1.974,0.63366 l -0.65642,0.0985 0.57425,0.072 c 1.37274,0.17256 2.50875,0.7546 3.15816,1.61837 0.51722,0.68806 0.78881,1.38791 0.94914,2.44601 l 0.0978,0.6459 z"
         style="opacity:0.51902;fill:#fad009;fill-opacity:0.963521;stroke-width:0.0582725"
         id="path133327" />
      <path
         d="m -123.52131,-165.42493 c -0.0749,-0.73175 -0.34274,-1.46106 -0.7162,-1.94651 -0.47734,-0.621 -1.29266,-1.03653 -2.27997,-1.16209 l -0.44048,-0.0559 0.39924,-0.0549 c 0.54241,-0.0749 0.9317,-0.18762 1.35549,-0.39154 0.28579,-0.13761 0.42972,-0.24431 0.72577,-0.53799 0.31404,-0.31157 0.3983,-0.4265 0.56272,-0.76881 0.92621,-2.31286 -0.0578,-1.91362 0.88545,0.0398 0.13995,0.28362 0.2532,0.43608 0.51938,0.70134 0.18725,0.18667 0.44967,0.40323 0.58337,0.48158 0.35175,0.20628 0.88858,0.37857 1.43546,0.46074 l 0.47733,0.072 -0.41763,0.0521 c -0.99811,0.12537 -1.82427,0.54877 -2.29646,1.17685 -0.37611,0.50035 -0.57351,1.00921 -0.69016,1.77859 l -0.0711,0.46974 z"
         style="opacity:0.51902;fill:#fad009;fill-opacity:0.963521;stroke-width:0.042374"
         id="path133329" />
      <path
         d="m -287.94533,-165.82191 c -0.0749,-0.73175 -0.34274,-1.46106 -0.7162,-1.94651 -0.47734,-0.621 -1.29266,-1.03653 -2.27997,-1.16209 l -0.44048,-0.0559 0.39924,-0.0549 c 0.54241,-0.0749 0.9317,-0.18762 1.35549,-0.39154 0.28579,-0.13761 0.42972,-0.24431 0.72577,-0.53799 0.31404,-0.31157 0.3983,-0.4265 0.56272,-0.76881 0.92621,-2.31286 -0.0578,-1.91362 0.88545,0.0398 0.13995,0.28362 0.2532,0.43608 0.51938,0.70134 0.18725,0.18667 0.44967,0.40323 0.58337,0.48158 0.35175,0.20628 0.88858,0.37857 1.43546,0.46074 l 0.47733,0.072 -0.41763,0.0521 c -0.99811,0.12537 -1.82427,0.54877 -2.29646,1.17685 -0.37611,0.50035 -0.57351,1.00921 -0.69016,1.77859 l -0.0711,0.46974 z"
         style="opacity:0.51902;fill:#fad009;fill-opacity:0.963521;stroke-width:0.042374"
         id="path133331" />
      <path
         d="m -338.93529,-223.57689 c -0.0749,-0.73175 -0.34274,-1.46106 -0.7162,-1.94651 -0.47734,-0.621 -1.29266,-1.03653 -2.27997,-1.16209 l -0.44048,-0.0559 0.39924,-0.0549 c 0.54241,-0.0749 0.9317,-0.18762 1.35549,-0.39154 0.28579,-0.13761 0.42972,-0.24431 0.72577,-0.53799 0.31404,-0.31157 0.3983,-0.4265 0.56272,-0.76881 0.92621,-2.31286 -0.0578,-1.91362 0.88545,0.0398 0.13995,0.28362 0.2532,0.43608 0.51938,0.70134 0.18725,0.18667 0.44967,0.40323 0.58337,0.48158 0.35175,0.20628 0.88858,0.37857 1.43546,0.46074 l 0.47733,0.072 -0.41763,0.0521 c -0.99811,0.12537 -1.82427,0.54877 -2.29646,1.17685 -0.37611,0.50035 -0.57351,1.00921 -0.69016,1.77859 l -0.0711,0.46974 z"
         style="opacity:0.51902;fill:#fad009;fill-opacity:0.963521;stroke-width:0.042374"
         id="path133333" />
      <path
         d="m -370.82794,-168.22357 c -0.0621,-0.60701 -0.28431,-1.212 -0.59411,-1.61469 -0.39597,-0.51514 -1.0723,-0.85984 -1.89131,-0.96399 l -0.36539,-0.0464 0.33118,-0.0455 c 0.44995,-0.0621 0.77288,-0.15563 1.12442,-0.32479 0.23708,-0.11415 0.35647,-0.20266 0.60205,-0.44628 0.26051,-0.25846 0.33041,-0.3538 0.4668,-0.63775 0.76832,-1.91859 -0.048,-1.58741 0.73451,0.033 0.11609,0.23527 0.21003,0.36174 0.43084,0.58179 0.15533,0.15484 0.37301,0.33449 0.48392,0.39948 0.29179,0.17112 0.73711,0.31404 1.19076,0.3822 l 0.39596,0.0597 -0.34643,0.0432 c -0.82797,0.104 -1.51329,0.45523 -1.90499,0.97624 -0.312,0.41506 -0.47575,0.83717 -0.57251,1.4754 l -0.059,0.38966 z"
         style="opacity:0.51902;fill:#fad009;fill-opacity:0.963521;stroke-width:0.0351506"
         id="path133335" />
      <path
         d="m -295.96541,-204.59703 c -0.0621,-0.60701 -0.28431,-1.212 -0.59411,-1.61469 -0.39596,-0.51514 -1.0723,-0.85984 -1.8913,-0.96399 l -0.36539,-0.0464 0.33118,-0.0455 c 0.44995,-0.0621 0.77288,-0.15563 1.12442,-0.32479 0.23708,-0.11415 0.35647,-0.20266 0.60205,-0.44628 0.26051,-0.25846 0.33041,-0.3538 0.4668,-0.63775 0.76832,-1.91859 -0.048,-1.58741 0.73451,0.033 0.11609,0.23527 0.21003,0.36174 0.43084,0.58179 0.15532,0.15484 0.37301,0.33449 0.48392,0.39948 0.29179,0.17112 0.7371,0.31404 1.19076,0.3822 l 0.39596,0.0597 -0.34643,0.0432 c -0.82797,0.104 -1.51329,0.45523 -1.90499,0.97624 -0.312,0.41506 -0.47575,0.83717 -0.57251,1.4754 l -0.059,0.38966 z"
         style="opacity:0.51902;fill:#fad009;fill-opacity:0.963521;stroke-width:0.0351506"
         id="path133335-9" />
      <path
         d="m -283.0622,-241.97182 c -0.0621,-0.60701 -0.28431,-1.212 -0.59411,-1.61469 -0.39597,-0.51514 -1.0723,-0.85984 -1.89131,-0.96399 l -0.36539,-0.0464 0.33118,-0.0455 c 0.44995,-0.0621 0.77288,-0.15563 1.12442,-0.32479 0.23708,-0.11415 0.35647,-0.20266 0.60205,-0.44628 0.26051,-0.25846 0.33041,-0.3538 0.4668,-0.63775 0.76832,-1.91859 -0.048,-1.58741 0.73451,0.033 0.11609,0.23527 0.21003,0.36174 0.43084,0.58179 0.15533,0.15484 0.37301,0.33449 0.48392,0.39948 0.29179,0.17112 0.73711,0.31404 1.19076,0.3822 l 0.39596,0.0597 -0.34643,0.0432 c -0.82797,0.104 -1.51329,0.45523 -1.90499,0.97624 -0.312,0.41506 -0.47575,0.83717 -0.57251,1.4754 l -0.059,0.38966 z"
         style="opacity:0.51902;fill:#fad009;fill-opacity:0.963521;stroke-width:0.0351506"
         id="path133335-3" />
      <path
         d="m -417.10942,-194.64088 c -0.0749,-0.73175 -0.34274,-1.46106 -0.7162,-1.94651 -0.47734,-0.621 -1.29266,-1.03653 -2.27997,-1.16209 l -0.44048,-0.0559 0.39924,-0.0549 c 0.54241,-0.0749 0.9317,-0.18762 1.35549,-0.39154 0.28579,-0.13761 0.42972,-0.24431 0.72577,-0.53799 0.31404,-0.31157 0.3983,-0.4265 0.56272,-0.76881 0.92621,-2.31286 -0.0578,-1.91362 0.88545,0.0398 0.13995,0.28362 0.2532,0.43608 0.51938,0.70134 0.18725,0.18667 0.44967,0.40323 0.58337,0.48158 0.35175,0.20628 0.88858,0.37857 1.43546,0.46074 l 0.47733,0.072 -0.41763,0.0521 c -0.99811,0.12537 -1.82427,0.54877 -2.29646,1.17685 -0.37611,0.50035 -0.57351,1.00921 -0.69016,1.77859 l -0.0711,0.46974 z"
         style="opacity:0.51902;fill:#fad009;fill-opacity:0.963521;stroke-width:0.042374"
         id="path133337" />
      <path
         d="m -460.33172,-133.85025 c -0.0749,-0.73175 -0.34274,-1.46106 -0.7162,-1.94651 -0.47734,-0.621 -1.29266,-1.03653 -2.27997,-1.16209 l -0.44048,-0.0559 0.39924,-0.0549 c 0.54241,-0.0749 0.9317,-0.18762 1.35549,-0.39154 0.28579,-0.13761 0.42972,-0.24431 0.72577,-0.53799 0.31404,-0.31157 0.3983,-0.4265 0.56272,-0.76881 0.92621,-2.31286 -0.0578,-1.91362 0.88545,0.0398 0.13995,0.28362 0.2532,0.43608 0.51938,0.70134 0.18725,0.18667 0.44967,0.40323 0.58337,0.48158 0.35175,0.20628 0.88858,0.37857 1.43546,0.46074 l 0.47733,0.072 -0.41763,0.0521 c -0.99811,0.12537 -1.82427,0.54877 -2.29646,1.17685 -0.37611,0.50035 -0.57351,1.00921 -0.69016,1.77859 l -0.0711,0.46974 z"
         style="opacity:0.51902;fill:#fad009;fill-opacity:0.963521;stroke-width:0.042374"
         id="path133339" />
      <path
         d="m -385.12809,-200.02107 c 0.10272,-1.0065 0.47164,-2.00936 0.98487,-2.67696 0.65642,-0.85389 1.77765,-1.42541 3.13541,-1.59816 l 0.60572,-0.0768 -0.54905,-0.0758 c -0.74587,-0.1032 -1.28119,-0.25794 -1.86407,-0.53864 -0.3928,-0.18904 -0.59086,-0.33594 -0.99805,-0.73972 -0.43182,-0.42823 -0.54773,-0.58658 -0.77382,-1.05726 -1.27371,-3.18061 0.0787,-2.63165 -1.21762,0.055 -0.19273,0.38994 -0.34815,0.59981 -0.71422,0.96458 -0.25736,0.25642 -0.61842,0.55433 -0.80235,0.66219 -0.48386,0.28372 -1.22197,0.52064 -1.974,0.63366 l -0.65642,0.0985 0.57425,0.072 c 1.37274,0.17256 2.50875,0.7546 3.15816,1.61837 0.51722,0.68806 0.78881,1.38791 0.94914,2.44601 l 0.0978,0.6459 z"
         style="opacity:0.51902;fill:#fad009;fill-opacity:0.963521;stroke-width:0.0582725"
         id="path133341" />
    </g>
  </g>
</svg>
