<?xml version="1.0" encoding="UTF-8" standalone="no"?>
<!-- Created with Inkscape (http://www.inkscape.org/) -->

<svg
   width="529.35107mm"
   height="331.54428mm"
   viewBox="0 0 529.35107 331.54428"
   version="1.1"
   id="svg66669"
   inkscape:version="1.2.2 (b0a8486541, 2022-12-01)"
   sodipodi:docname="city-village-day.svg"
   xmlns:inkscape="http://www.inkscape.org/namespaces/inkscape"
   xmlns:sodipodi="http://sodipodi.sourceforge.net/DTD/sodipodi-0.dtd"
   xmlns="http://www.w3.org/2000/svg"
   xmlns:svg="http://www.w3.org/2000/svg">
  <sodipodi:namedview
     id="namedview66671"
     pagecolor="#ffffff"
     bordercolor="#000000"
     borderopacity="0.25"
     inkscape:showpageshadow="2"
     inkscape:pageopacity="0.0"
     inkscape:pagecheckerboard="0"
     inkscape:deskcolor="#d1d1d1"
     inkscape:document-units="mm"
     showgrid="false"
     inkscape:zoom="0.4204826"
     inkscape:cx="879.94128"
     inkscape:cy="613.58068"
     inkscape:window-width="1503"
     inkscape:window-height="934"
     inkscape:window-x="0"
     inkscape:window-y="0"
     inkscape:window-maximized="1"
     inkscape:current-layer="layer1" />
  <defs
     id="defs66666" />
  <g
     inkscape:label="Layer 1"
     inkscape:groupmode="layer"
     id="layer1"
     transform="translate(245.01696,-12.723552)">
    <path
       d="m -189.5176,161.45135 2.06732,-37.38014 13.23753,-4.66556 -0.90254,-16.79487 7.21049,-0.0883 1.66628,4.94876 6.48627,-0.51991 -0.13002,-19.470029 9.3166,-0.0027 1.02058,6.567584 13.98896,-0.275349 1.19792,-41.45027 17.08742,-1.458 0.19059,30.088359 10.29129,-0.04516 1.2124,16.708483 13.29164,-1.288963 -0.572506,-11.36826 9.34203,-2.835174 0.983307,-9.626778 5.398033,-0.0797 -1.081358,-42.307075 7.396391,-1.434762 1.454082,17.19887 4.247742,2.771234 -0.05901,-5.741646 3.925406,-0.422506 2.494105,39.295812 9.718627,1.162288 0.750566,-15.72965 16.180038,-1.535139 4.361708,25.432911 8.048026,-0.586204 2.607051,-22.259807 3.321497,0.342935 7.7195846,0.389386 1.8277494,17.776863 12.6003414,-1.319718 C 8.1826068,57.735865 7.7894757,40.397679 7.7894757,40.397679 L 26.694309,38.633643 c -2.746577,43.522024 0.771373,35.824959 0.771373,35.824959 l 8.01404,-0.840454 1.544818,-54.211101 17.394288,3.280044 -3.816003,62.323414 3.985857,-0.05739 4.546032,-27.964928 15.126511,0.752663 -0.564125,34.791185 4.431783,0.660395 6.281433,-5.951019 6.297898,0.650241 2.650496,17.974818 6.440462,-42.609309 9.376078,0.968055 -1.82666,21.922032 14.24189,0.91254 -1.94309,16.335612 5.94078,-0.48841 2.84687,-31.208708 c 7.86831,1.276777 17.65904,0.795831 17.65904,0.795831 l -0.62067,18.702444 11.01291,-1.603066 c 5.27701,-27.927122 3.54304,-24.759356 3.54304,-24.759356 l 11.33321,-0.741505 -2.6866,18.736656 8.56031,3.22497 -1.11034,10.754233 8.67395,2.120882 -1.4267,13.818299 8.81133,-1.2081 2.71697,-18.729483 13.33959,3.051213 -5.7388,25.97198 6.7756,1.54424 5.58957,8.32625 7.12149,-10.50904 4.14655,3.91374 1.90543,38.28937"
       fill="#7ca4bf"
       opacity="0.80961"
       id="path65553"
       style="stroke-width:1.25381;opacity:1" />
    <g
       transform="matrix(1.2637334,0.09759429,-0.1175555,1.4645951,-363.61117,-846.10526)"
       id="g65805"
       style="opacity:1">
      <g
         transform="matrix(1.2275,0,0,1.662,-288.79,-419.84)"
         id="g65719">
        <g
           transform="matrix(0.98303,0,0,1,20.172,-0.82084)"
           fill="#5e8fb1"
           id="g65715">
          <path
             d="m 496.35,651.75 -2.4874,-16.693 -2.9765,0.36686 -0.43233,-1.9917 15.998,-5.6416 14.985,3.0846 0.54188,2.6269 -4.081,0.433 2.0377,16.439"
             id="path65687" />
          <path
             d="m 524.22,648.03 -0.17804,-5.7012 -2.5453,-0.45064 -0.67922,-2.3253 9.1787,-5.0602 10.782,2.8349 -0.0581,3.2769 c 0,0 -1.3321,0.13506 -1.6419,0.52085 -1.543,1.9218 0.68194,6.0083 0.68194,6.0083"
             id="path65689" />
          <path
             d="m 433.62,653.79 -1.3869,-5.8265 -2.3039,0.25662 -0.61478,-2.1047 8.308,-4.5801 9.7594,2.566 -0.0526,2.3015 -1.4861,0.47144 1.843,6.1044"
             id="path65691" />
          <path
             d="m 455.34,652.24 -0.1995,-6.3881 -2.852,-0.50493 -0.76105,-2.6055 10.285,-5.6698 12.081,3.1765 -0.0651,3.6717 c 0,0 -1.4926,0.15133 -1.8397,0.5836 -1.7289,2.1533 0.7641,6.7322 0.7641,6.7322"
             id="path65693" />
          <path
             d="m 480.63,650.58 -0.1697,-5.4339 -2.426,-0.4295 -0.64737,-2.2163 8.7483,-4.8229 10.277,2.702 -0.0554,3.1232 c 0,0 -1.2697,0.12873 -1.5649,0.49642 -1.4706,1.8316 0.64996,5.7265 0.64996,5.7265"
             id="path65695" />
          <path
             d="m 388.21,661.54 c -0.17573,-5.6735 -0.16695,-5.5575 -0.17573,-5.6735 l 0.13826,-0.11781 -2.2326,0.41135 c -0.14805,-1.8049 -0.14805,-1.8049 -0.14805,-1.8049 6.4408,-6.6875 6.4408,-6.6875 6.4408,-6.6875 l 7.9418,3.4804 0.32332,2.8059 -1.6828,0.17926 0.8395,5.1726"
             id="path65697" />
          <path
             d="m 597.39,644.7 -1.2022,-4.2807 -2.5004,0.99815 -0.61478,-2.1047 8.308,-4.5801 9.7594,2.566 -0.0526,2.3015 -2.131,-0.21042 0.15695,4.0694"
             id="path65699" />
          <path
             d="m 565.99,647.1 -1.1526,-4.8422 -1.9147,0.21327 -0.51093,-1.7492 6.9045,-3.8064 8.1107,2.1325 -0.0437,1.9127 -1.2351,0.39181 1.5317,5.0732 m 68.366,-1.3482 0.57473,-1.7411 -2.4979,-0.24807 5.5193,-2.3912 4.0007,2.7571 -1.5662,0.2427 -0.15639,2.1"
             id="path65701" />
          <path
             d="m 402.3,660.26 -1.7017,-14.388 -2.9765,0.36686 -0.43233,-1.9917 17.5,-4.2773 c 13.483,1.7202 13.483,1.7202 13.483,1.7202 l 0.54188,2.6269 c -4.081,0.433 -4.081,0.433 -4.081,0.433 l 2.3014,11.795"
             id="path65703" />
          <path
             d="m 545.31,648.03 -0.17191,-8.4907 -3.3761,0.47618 -0.88487,-3.0294 11.958,-6.5923 14.047,3.6933 -0.0757,4.269 c 0,0 -2.3706,-0.87156 -2.7741,-0.36896 -2.0102,2.5036 1.5235,8.875 1.5235,8.875"
             id="path65705" />
          <path
             d="m 583.32,644.63 -1.0992,-10.236 -1.9147,0.21327 -0.51093,-1.7492 6.9045,-3.8064 8.1107,2.1325 -0.0437,1.9127 -1.2351,0.39181 1.4782,10.467"
             id="path65707" />
          <path
             d="m 613.73,642.54 -0.93033,-3.3127 -1.9349,0.77243 -0.47575,-1.6288 6.4292,-3.5444 7.5523,1.9857 -0.0407,1.781 -1.6491,-0.16283 2.0112,6.8413"
             id="path65709" />
          <path
             d="m 628.56,645.47 -0.5579,-2.2747 -2.5453,-0.45064 -0.67922,-2.3253 9.1787,-5.0602 10.782,2.8349 -0.002,1.7475 c 0,0 -3.0645,1.2981 -3.0006,1.748 0.47263,3.325 1.766,3.2972 1.766,3.2972"
             id="path65711" />
          <path
             d="m 653.16,644.65 0.23665,-3.2852 -2.8012,-0.16676 0.0854,-1.0416 5.6535,-2.7515 5.0311,4.4937 -0.51249,1.1508 -2.0631,-0.36106 -0.21537,2.5109"
             id="path65713" />
        </g>
        <path
           d="m 621.14,642.91 -2.0394,-10.191 -1.9349,0.77243 -0.47575,-1.6288 6.2738,-4.518 7.7077,2.9594 -0.0407,1.781 -1.6491,-0.16283 1.2305,10.028"
           fill="#4b89a4"
           fill-opacity="0.87843"
           id="path65717" />
      </g>
      <g
         transform="matrix(1.0028,0,0,1.1913,-16.192,-128.93)"
         fill="#2d70b3"
         id="g65803">
        <path
           d="m 423.07,646.97 0.84852,8.3792 4.399,-0.1399 -0.98698,-8.6742 z"
           id="path65721" />
        <path
           d="m 412.49,648.93 0.3359,2.7656 3.3375,-0.1399 -0.47436,-3.0606 z"
           id="path65723" />
        <path
           d="m 420.3,651.19 -0.3359,-2.7656 -3.3375,0.1399 0.47436,3.0606 z"
           id="path65725" />
        <path
           d="m 351.41,644.51 0.3359,2.7656 3.3375,-0.1399 -0.47436,-3.0606 z"
           id="path65727" />
        <path
           d="m 352.24,649.68 0.69725,3.0788 2.9762,-0.45315 -0.47436,-3.0606 z"
           id="path65729" />
        <path
           d="m 356.32,656.74 -0.3359,-2.7656 -3.3375,0.1399 0.47436,3.0606 z"
           id="path65731" />
        <path
           d="m 213.18,669.7 0.38119,3.1384 3.7875,-0.15876 -0.53832,-3.4732 z"
           id="path65733" />
        <path
           d="m 224.01,668.06 3.9622,-0.39915 0.53353,3.29 -3.7151,0.29337 z"
           id="path65735" />
        <path
           d="m 239.5,656.61 3.9622,-0.39915 0.53353,3.29 -3.7151,0.29337 z"
           id="path65737" />
        <path
           d="m 240.37,661.91 3.893,-0.39218 0.52422,3.2326 -3.6503,0.28825 z"
           id="path65739" />
        <path
           d="m 241.33,666.99 0.3359,2.7656 3.3375,-0.1399 -0.47436,-3.0606 z"
           id="path65741" />
        <path
           d="m 247.06,655.84 0.3359,2.7656 3.3375,-0.1399 -0.47436,-3.0606 z"
           id="path65743" />
        <path
           d="m 247.19,661.5 0.3359,2.7656 3.3375,-0.1399 -0.47436,-3.0606 z"
           id="path65745" />
        <path
           d="m 247.85,666.69 0.3359,2.7656 3.3375,-0.1399 -0.47436,-3.0606 z"
           id="path65747" />
        <path
           d="m 253.37,655.11 0.3359,2.7656 3.3375,-0.1399 -0.47436,-3.0606 z"
           id="path65749" />
        <path
           d="m 253.56,661.22 0.3359,2.7656 3.3375,-0.1399 -0.47436,-3.0606 z"
           id="path65751" />
        <path
           d="m 257.63,668.32 -0.3359,-2.7656 -3.3375,0.1399 0.47436,3.0606 z"
           id="path65753" />
        <path
           d="m 260.46,670.22 c -0.52901,-6.242 -0.52901,-6.242 -0.52901,-6.242 l 3.2292,0.0241 0.71631,6.268"
           id="path65755" />
        <path
           d="m 276.66,660.07 0.69341,2.7299 3.3166,-0.47128 -0.86993,-3.0109 z"
           id="path65757" />
        <path
           d="m 282.92,659.49 0.98908,5.9838 3.1003,-0.51856 -1.1306,-6.2091 z"
           id="path65759" />
        <path
           d="m 313.67,656.08 0.18302,2.7921 3.36,0.002 -0.30564,-3.0943 z"
           id="path65761" />
        <path
           d="m 303.82,656.49 0.18302,2.7921 3.36,0.002 -0.30564,-3.0943 z"
           id="path65763" />
        <path
           d="m 335.03,657.15 c 2.5861,-0.15113 2.5966,-0.162 2.5966,-0.162 l 0.66998,5.0621 -2.8033,-0.002 z"
           id="path65765" />
        <path
           d="m 342.02,657.82 c 0,-1.7494 -0.25455,-1.8642 -0.25455,-1.8642 l 4.2889,-0.53041 0.20647,1.8993 z"
           id="path65767" />
        <path
           d="m 360.44,646.48 -0.3359,-2.7656 -3.3375,0.1399 0.47436,3.0606 z"
           id="path65769" />
        <path
           d="m 398.38,654.41 -0.3359,-2.7656 -3.3375,0.1399 0.47436,3.0606 z"
           id="path65771" />
        <path
           d="m 438.86,652.42 -0.18291,-1.506 -1.8174,0.0762 0.25831,1.6666 z"
           id="path65773" />
        <path
           d="m 465.12,642.08 -0.18291,-1.506 -1.8174,0.0762 0.25831,1.6666 z"
           id="path65775" />
        <path
           d="m 465.36,644.84 -0.18291,-1.506 -1.8174,0.0762 0.25831,1.6666 z"
           id="path65777" />
        <path
           d="m 465.56,647.47 -0.18291,-1.506 -1.8174,0.0762 0.25831,1.6666 z"
           id="path65779" />
        <path
           d="m 462.12,642.39 -0.18291,-1.506 -1.8174,0.0762 0.25831,1.6666 z"
           id="path65781" />
        <path
           d="m 475.59,649.73 -0.18291,-1.506 -1.8174,0.0762 0.25831,1.6666 z"
           id="path65783" />
        <path
           d="m 536.1,652.35 0.38053,-1.4773 -1.7485,-0.44081 -0.36821,1.6506 z"
           id="path65785" />
        <path
           d="m 544.99,651.93 -0.18291,-1.506 -1.8174,0.0762 0.25831,1.6666 z"
           id="path65787" />
        <path
           d="m 516.82,650.63 -0.29622,-2.4389 -2.9433,0.12341 0.41834,2.699 z"
           id="path65789" />
        <path
           d="m 478.18,649.4 -0.18291,-1.506 -1.8174,0.0762 0.25831,1.6666 z"
           id="path65791" />
        <path
           d="m 494.58,649.13 -0.14154,-1.1654 -1.4064,0.059 0.1999,1.2897 z"
           id="path65793" />
        <path
           d="m 496.59,648.87 -0.14154,-1.1654 -1.4064,0.059 0.19989,1.2897 z"
           id="path65795" />
        <path
           d="m 494.46,637.76 -0.14154,-1.1654 -1.4064,0.059 0.1999,1.2897 z"
           id="path65797" />
        <path
           d="m 496.46,637.5 -0.14154,-1.1654 -1.4064,0.059 0.19989,1.2897 z"
           id="path65799" />
        <path
           d="m 520.89,650.64 -0.29622,-2.4389 -2.9433,0.12341 0.41834,2.699 z"
           id="path65801" />
      </g>
    </g>
    <path
       d="m -235.31007,183.83497 c 9.62068,-16.53297 16.03659,-19.27249 31.05677,-22.28318 l 19.72739,-3.95394 23.2281,0.86259 c -5.01829,9.44734 26.40413,1.02208 39.72378,1.4752 l 0.64787,-6.49259 c 0,0 40.751585,-12.52917 78.92969,-8.66674 l 28.773174,3.80406 12.1656574,3.27935 13.5378066,1.82927 c 8.788427,-11.84125 30.280355,-4.15883 40.943378,-6.68799 l 10.824679,4.06947 c 7.139393,0.19071 15.355278,-3.97973 20.354293,-3.99723 15.996602,-0.0559 20.391942,3.21102 28.462442,2.24935 3.06843,-0.36564 6.33438,-0.72924 10.38355,-1.03947 l 59.67278,1.07161 25.70148,6.88956 c 37.09498,4.70948 52.08237,-6.05973 67.06887,26.77541 z"
       fill="#5682b0"
       id="path65807"
       style="stroke-width:1.25381;opacity:1" />
    <g
       transform="matrix(-1.1175996,0.11823293,-0.12129147,-1.4088662,1494.3038,997.77254)"
       opacity="0.82034"
       id="g65681"
       style="opacity:1">
      <path
         d="m 1124.9,617.75 c 31.004,-13.104 38.268,-21.031 38.19,-24.414 l -0.078,-2.171 c 0,0 -9.8979,2.9627 -2.3519,-1.212 l 7.5459,-4.1746 12.082,4.4639 c 0,0 -6.2564,-0.27268 -6.1783,0.83367 l 0.2035,2.8826 4.9387,-0.5339 c 1.6035,-3.3726 5.6192,-4.9908 3.8907,-10.787 0,0 6.659,-2.4718 9.1496,0.38661 l 0.7343,4.5021 4.3573,2.3808 c 0,0 3.7233,1.7592 3.9237,-0.85359 l 0.2005,-2.6128 9.7458,0.83742 c 0,0 -4.829,7.7918 1.2288,6.4718 6.0577,-1.32 3.4234,10.916 6.0577,-1.32 l 2.5458,-11.824 c 0,0 -7.6737,-6.7739 0.6327,-5.8987 8.3064,0.87526 4.987,-7.0063 8.5807,-0.28213 1.1632,2.1767 9.178,1.1874 7.0237,4.3701 -1.342,1.9828 -1.0153,2.8566 -5.3446,3.5911 -1.0641,3.1752 0.7376,8.0436 0.4925,11.34 0,0 1.1404,4.7807 4.2311,2.0567 l 3.0909,-2.724 c 0,0 6.6053,2.353 6.8483,-0.98306 l 0.4227,-5.803 c 0,0 -4.5365,-3.7887 8.1317,-3.7476 7.0294,0.0228 7.7884,0.64404 6.9454,2.8745 -0.6727,1.7798 -0.76,4.9914 0.1317,7.0109 l 0.8916,2.0196 c 0,0 7.3304,2.8812 8.9053,-0.30398 l 1.5749,-3.1852 -0.2115,-4.5105 c 0,0 -8.0782,-3.1214 0.761,-3.8436 8.839,-0.72216 1.8663,-3.5405 8.839,-0.72216 l 6.9728,2.8184 -2.3537,2.111 c 0,0 -4.9188,4.1718 0.9733,5.0007 l 5.8921,0.82895 2.3493,2.8257 8.2485,-5.9907 c 0,0 -4.7764,-4.2759 1.6774,-3.7326 l 6.4537,0.54323 c 5.2976,3.6944 4.355,5.4846 0,6.2334 0,0 0.087,9.0249 1.8066,8.2059 l 1.7187,-0.81899 c 0,0 5.7076,-2.6129 6.4562,1.7874 l 0.7486,4.4003 5.6824,1.9843 4.0617,-13.953 c 0,0 3.5246,-1.1522 8.0061,0.84633 1.2573,0.56072 1.5855,16.719 5.6254,12.519 1.7118,-1.7801 4.129,6.1765 6.5163,5.934 0.9033,-0.0917 2.6763,-3.5068 1.2685,-2.7686 -0.6561,0.34408 -0.047,-1.8605 0.8344,-2.6285 1.028,-0.8955 5.7369,-2.8946 7.9988,0.27268 3.8283,5.3609 0.2685,4.409 0.9213,3.2372 0.7439,-1.3355 -1.2503,10.602 2.795,3.6736 0.3517,-0.60236 -1.0241,-3.5431 1.8426,-4.1065 1.8345,-0.36055 4.0499,0.86843 5.8669,2.18 3.0623,2.2104 -0.815,5.8236 -0.2675,6.4419 5.1861,5.8567 11.758,14.6 14.54,16.2 6.3729,3.6654 14.578,8.0931 20.501,11.812 4.5009,2.826 -3.3658,19.385 -3.3039,20.748"
         fill="#47b23f"
         opacity="1"
         id="path65577" />
      <g
         fill="#12ffff"
         fill-opacity="0.32549"
         id="g65603">
        <ellipse
           transform="matrix(0.97756,0.21067,-0.24272,0.9701,0,0)"
           cx="1482.5"
           cy="310.60999"
           rx="0.91632003"
           ry="0.73567998"
           id="ellipse65579" />
        <ellipse
           transform="matrix(0.97756,0.21067,-0.24272,0.9701,0,0)"
           cx="1441.9"
           cy="305.39001"
           rx="0.91632003"
           ry="0.73567998"
           id="ellipse65581" />
        <ellipse
           transform="matrix(0.97756,0.21067,-0.24272,0.9701,0,0)"
           cx="1442.1"
           cy="308.03"
           rx="0.91632003"
           ry="0.73567998"
           id="ellipse65583" />
        <ellipse
           transform="matrix(0.97756,0.21067,-0.24272,0.9701,0,0)"
           cx="1441.7"
           cy="302.95001"
           rx="0.91632003"
           ry="0.73567998"
           id="ellipse65585" />
        <ellipse
           transform="matrix(0.97756,0.21067,-0.24272,0.9701,0,0)"
           cx="1441.7"
           cy="302.95001"
           rx="0.91632003"
           ry="0.73567998"
           id="ellipse65587" />
        <ellipse
           transform="matrix(0.97026,0.24205,-0.21126,0.97743,0,0)"
           cx="1457.1"
           cy="263.23001"
           rx="1.1481"
           ry="1.0511"
           id="ellipse65589" />
        <ellipse
           cx="1307.3"
           cy="592.62"
           rx="0.91957998"
           ry="0.73267001"
           id="ellipse65591" />
        <ellipse
           cx="1289.5"
           cy="593.45001"
           rx="0.64578003"
           ry="0.51451999"
           id="ellipse65593" />
        <ellipse
           cx="1287.3"
           cy="593.14001"
           rx="0.91957998"
           ry="0.73267001"
           id="ellipse65595" />
        <ellipse
           cx="1186.7"
           cy="587.38"
           rx="0.91957998"
           ry="0.73267001"
           id="ellipse65597" />
        <ellipse
           cx="1186.8"
           cy="590.01001"
           rx="0.91957998"
           ry="0.73267001"
           id="ellipse65599" />
        <ellipse
           cx="1165.9"
           cy="591.76001"
           rx="0.91957998"
           ry="0.73267001"
           id="ellipse65601" />
      </g>
      <path
         d="m 1089.7,632.54 -1.4116,-17.152 c 0,0 -6.0378,-12.008 17.518,-9.5252 23.556,2.483 17.461,7.4834 23.556,2.483 l 6.0942,-5.0005 8.7714,2.508 19.452,5.0741 c 0,0 -15.86,9.071 11.356,10.415 l 27.215,1.3444 c 0,0 5.8732,-8.1029 21.539,-7.7418 15.666,0.36105 5.3793,-8.4361 15.666,0.36105 l 10.286,8.7972 15.237,-5.2592 c 0,0 9.0211,-14.679 23.702,-1.3849 l 14.681,13.294 c 0,0 5.1449,0.69242 27.898,0.23079 22.753,-0.4616 11.162,-6.6934 22.753,-0.4616 l 11.591,6.2318 37.396,6.3854 c 16.2092,7.02968 23.6466,10.37009 29.6994,25.18361 21.1775,-3.57679 13.7964,26.23076 2.6747,17.62976 L 1381.36,671.69314"
         fill="#32c531"
         opacity="1"
         id="path65605"
         sodipodi:nodetypes="cccccccccccccccssccccc" />
      <path
         d="m 1057,653.67 3.46,-12.425"
         fill="#5dd65d"
         fill-opacity="0.88628"
         opacity="0.7"
         id="path65607" />
      <path
         d="m 1052.6,656.9 c 0,0 -13.466,-6.0008 -3.1416,-13.593 l 10.324,-7.5926 23.9,0.73855 22.74,-12.27 25.586,5.5438 13.339,3.3633 26.732,-4.5125 43.712,-4.1106 6.3629,6.019 c 0,0 -3.1637,4.2722 14.529,4.5349 l 17.693,0.26271 12.124,7.2708 c 0,0 10.173,-10.634 18.598,-5.6917 l 8.4246,4.9423 12.934,1.9396 17.921,-6.0459 14.607,8.3984 18.973,3.315 2.6339,3.997 16.215,0.72316 11.287,7.5912 c 0,0 3.5582,-5.981 11.421,-1.6718 7.8624,4.3092 11.271,-11.09 7.8624,4.3092 l -4.3832,19.802"
         fill="#32c531"
         opacity="1"
         id="path65609" />
      <path
         d="m 1375.2,693.24 -1.712,-5.2005 -0.9448,-7.0351 0.1203,-6.9266 7.2139,-5.388 c 0,0 9.5295,3.212 9.2975,-0.96389 l 7.3639,-7.9122 c -9.0161,-10.876 -12.929,-10.421 -28.565,-9.5605 -13.744,8.8691 -19.728,6.6916 -5.3085,16.433 l 5.342,5.571 c -1.7605,4.9762 0.2158,10.208 -1.6134,13.386 l -2.5679,4.2221"
         fill="#299d28"
         fill-opacity="0.99608"
         opacity="1"
         id="path65611" />
      <path
         d="m 1061.4,652.29 1.9519,-10.083 -5.0605,-0.17056 7.853,-5.8724 9.8316,-3.4034 8.113,-0.31237 9.2935,2.9773 6.5239,7.5109 -5.6705,0.009 2.296,9.8396"
         fill="#a38043"
         opacity="1"
         id="path65613" />
      <path
         d="m 1056.5,651.63 16.628,-13.524"
         fill="#5dd65d"
         fill-opacity="0.88628"
         opacity="0.7"
         id="path65615" />
      <path
         d="m 1115.1,654.08 0.2446,-15.115 -5.0605,-0.17056 7.853,-5.8724 9.8316,-3.4034 8.113,-0.31237 9.2935,2.9773 6.5239,7.5109 -5.6705,0.009 0.8433,14.557"
         fill="#ba8c3c"
         opacity="1"
         id="path65617" />
      <path
         d="m 1163.4,654.63 0.2446,-13.217 -5.0605,-0.17056 7.853,-5.8724 8.0989,-3.4034 5.9471,-0.31237 9.2935,2.9773 6.5239,7.5109 -5.6705,0.009 0.8433,12.66"
         fill="#ba8c3c"
         opacity="1"
         id="path65619" />
      <path
         d="m 1097.7,652.97 2.6314,-4.3681 2.4839,-6.1376 1.6213,-6.2181 -4.3256,-6.024 c 0,0 -8.2728,1.2853 -7.0563,-2.4127 l 1.2165,-3.698 8.2866,-7.0864 10.261,3.0132 c 0,0 10.438,6.2216 5.8658,8.7412 l -4.5727,2.5196 -5.5714,4.0944 -0.7209,5.594 c 0,0 -2.2979,2.4472 -1.3288,6.6534 l 0.969,4.2062"
         fill="#2ca92b"
         fill-opacity="0.99608"
         opacity="1"
         id="path65621" />
      <g
         id="g65653">
        <path
           d="m 1153.9,652.99 3.6083,-9.9199 1.1713,-7.999 -1.7415,-7.1248 -3.6071,-2.5828 -3.6619,-2.86 -1.8167,-6.5539 8.5656,-6.0246 21.795,-0.53819 4.3248,14.308 c -1.9663,6.8419 -9.7078,9.0532 -17.878,8.0798 l -1.9385,7.7645 -0.3866,5.6271 3.1761,8.9158"
           fill="#279926"
           opacity="1"
           id="path65623" />
        <path
           d="m 1200.2,659.4 1.4542,-7.5114 -3.77,-0.12706 5.8503,-4.3748 7.3243,-2.5354 6.044,-0.23271 6.9235,2.218 4.8601,5.5955 -4.2244,0.007 1.7105,7.3303"
           fill="#b58b41"
           opacity="1"
           id="path65625" />
        <path
           d="m 1214.9,659.98 c 2.069,-5.4046 5.064,-10.02 5.064,-10.02 l 0.2043,-4.9779 -2.1314,-3.848 c 0,0 -8.7389,11.52 -10.239,2.992 l -1.5,-8.5277 2.9307,-4.8668 11.937,-4.2762 16.002,7.0166 1.2254,10.613 c 0,0 -0.048,-0.36017 -5.6321,-0.0599 l -5.584,0.30025 -4.2952,8.6426 1.7171,6.663"
           fill="#289d28"
           opacity="1"
           id="path65627" />
        <path
           d="m 1237.6,659.62 2.1763,-14.995 -5.0068,-0.66637 8.5546,-5.0643 10.205,-2.4166 8.1019,0.4862 8.8541,3.871 5.5221,8.1042 -5.6359,-0.54783 -1.024,14.548"
           fill="#b58b41"
           opacity="1"
           id="path65629" />
        <ellipse
           cx="1246.1"
           cy="649.87"
           rx="3.2139001"
           ry="2.5606"
           fill="#957947"
           id="ellipse65631" />
        <ellipse
           cx="1265.4"
           cy="650.06"
           rx="3.2139001"
           ry="2.5606"
           fill="#957947"
           id="ellipse65633" />
        <path
           d="m 1251,659.01 -0.5506,-7.4619 c 1.2686,-3.0078 6.732,-3.1183 7.4107,0.35804 l 0.06,7.0294"
           fill="#a18249"
           id="path65635" />
        <path
           d="m 1282.9,663.28 3.0246,-12.572 -4.189,-0.86722 7.6459,-3.7731 8.8355,-1.4302 6.8253,0.90172 7.1959,3.8147 4.0398,7.1994 -4.7313,-0.80483 -2.0133,12.263"
           fill="#a28146"
           opacity="1"
           id="path65637" />
        <ellipse
           cx="1293.1"
           cy="655.89001"
           rx="3.2139001"
           ry="2.5606"
           fill="#b6904b"
           id="ellipse65639" />
        <path
           d="m 1305.7,667.64 1.6336,-17.012 -5.6861,-0.54121 9.3753,-6.0745 11.382,-3.1563 9.1688,0.20766 10.203,3.9954 6.6752,8.9122 -6.3894,-0.38098 -0.358,16.459"
           fill="#9e7936"
           opacity="1"
           id="path65641" />
        <ellipse
           cx="1331.9"
           cy="656.88"
           rx="3.2139001"
           ry="2.5606"
           fill="#b2935d"
           id="ellipse65643" />
        <path
           d="m 1349.6,669.41 3.3899,-8.484 -4.3561,-0.80226 7.7938,-4.0727 9.0923,-1.6774 7.0823,0.77859 7.551,3.7817 4.3874,7.3518 -4.9148,-0.72557 0.3317,8.8227"
           fill="#b38534"
           opacity="1"
           id="path65645" />
        <path
           d="m 1364.9,671.14 1.5412,-6.1114 c 1.8166,-2.1201 6.2277,-0.95036 5.8483,1.994 l -1.82,5.6514"
           fill="#a18249"
           id="path65647" />
        <ellipse
           cx="1362.2"
           cy="663.27002"
           rx="2.2304001"
           ry="1.7771"
           fill="#bd841f"
           id="ellipse65649" />
        <path
           d="m 1390.8,673.7 1.8519,-7.8014 -2.3798,-0.7377 4.2579,-3.745 4.9673,-1.5425 3.8692,0.71593 4.1252,3.4774 2.3969,6.7602 -2.685,-0.66719 0.1812,8.1128"
           fill="#c58f31"
           opacity="1"
           id="path65651"
           style="fill:#ad7d2b;fill-opacity:1" />
        <path
           d="m 1433.1501,682.13188 -0.2924,-7.98136 2.8674,-0.29735 -3.9578,-4.43446 -5.2714,-2.40175 -4.5501,0.009 -5.4794,2.67137 -4.2809,6.19979 3.1968,-0.17358 -2.0835,7.92275"
           fill="#c58f31"
           opacity="1"
           id="path67794"
           style="fill:#c08b30;fill-opacity:1;stroke-width:1.07357" />
      </g>
      <path
         d="m 1325.4,670.67 -1.712,-5.9308 -0.9448,-8.0231 0.1203,-7.8994 7.2139,-6.1447 c 0,0 9.5295,3.6631 9.2975,-1.0993 l 7.3639,-9.0234 c -9.0161,-12.403 -12.929,-11.885 -28.565,-10.903 -13.744,10.115 -19.728,7.6314 -5.3085,18.741 l 5.342,6.3534 c -1.7605,5.6751 0.2158,11.641 -1.6134,15.266 l -2.5679,4.8151"
         fill="#299d28"
         fill-opacity="0.99608"
         opacity="1"
         id="path65655" />
      <g
         id="g65671">
        <path
           d="m 1082.6,651.28 0.228,-5.5984 c 1.5763,-2.894 7.0284,-2.5676 7.3426,0.94841 l -0.7943,6.1944"
           fill="#a18249"
           opacity="1"
           id="path65657" />
        <path
           d="m 1470.6201,701.28503 c -4.7213,-20.965 -26.4943,-17.21034 -42.3514,-20.48456 -19.6424,-7.04912 -52.1739,-9.77502 -79.2777,-14.32147 -31.322,2.4529 -61.822,-3.9559 -92.57,-8.2674 -46.63,8.0156 -79.445,-8.2584 -115.03,-5.9865 l -55.749,-0.3441 c -28.555,-2.5546 -64.991,-8.9616 -65.444,11.924 z"
           fill="#319e31"
           opacity="1"
           id="path65659"
           sodipodi:nodetypes="cccccccc" />
        <ellipse
           cx="1072.6"
           cy="645.34998"
           rx="3.2139001"
           ry="2.5606"
           fill="#b2aa55"
           opacity="1"
           id="ellipse65661" />
        <path
           d="m 1130.1,652.52 -0.5506,-7.4619 c 1.2686,-3.0078 6.732,-3.1183 7.4107,0.35804 l 0.06,7.0294"
           fill="#a18249"
           opacity="1"
           id="path65663" />
        <ellipse
           cx="1121.9"
           cy="645.46997"
           rx="3.2139001"
           ry="2.5606"
           fill="#957947"
           opacity="1"
           id="ellipse65665" />
        <ellipse
           cx="1142.8"
           cy="644.63"
           rx="2.5213001"
           ry="2.5606"
           fill="#957947"
           opacity="1"
           id="ellipse65667" />
        <ellipse
           cx="1375.7"
           cy="665.65997"
           rx="2.2304001"
           ry="1.7771"
           fill="#bd841f"
           id="ellipse65669" />
      </g>
      <g
         fill="#12ffff"
         fill-opacity="0.32549"
         id="g65679">
        <ellipse
           cx="1168.6"
           cy="591.71002"
           rx="0.91957998"
           ry="0.73267001"
           id="ellipse65673" />
        <ellipse
           cx="1186.5"
           cy="584.95001"
           rx="0.91957998"
           ry="0.73267001"
           id="ellipse65675" />
        <ellipse
           cx="1186.5"
           cy="584.95001"
           rx="0.91957998"
           ry="0.73267001"
           id="ellipse65677" />
      </g>
    </g>
    <ellipse
       cx="11.117417"
       cy="-310.98349"
       rx="1.0367132"
       ry="0.98738098"
       fill="#12ffff"
       fill-opacity="0.32549"
       id="ellipse65683"
       style="stroke-width:1.19097;opacity:1"
       transform="matrix(-0.99445057,0.10520484,-0.08577433,-0.99631459,0,0)" />
    <ellipse
       cx="-29.303741"
       cy="-317.01306"
       rx="0.7569477"
       ry="0.72092956"
       fill="#12ffff"
       fill-opacity="0.32549"
       id="ellipse65685"
       style="stroke-width:1.19097;opacity:1"
       transform="matrix(-0.99445057,0.10520484,-0.08577433,-0.99631459,0,0)" />
    <g
       fill="#12ffff"
       fill-opacity="0.32549"
       id="g66095"
       transform="matrix(-1.055036,0.1116142,-0.11467474,-1.3320093,1425.4672,950.88067)"
       style="opacity:1">
      <ellipse
         cx="1237"
         cy="582.88"
         rx="0.71348"
         ry="0.53924"
         id="ellipse66089" />
      <ellipse
         cx="1239.6"
         cy="582.88"
         rx="0.71348"
         ry="0.53924"
         id="ellipse66091" />
      <ellipse
         cx="1241.9"
         cy="581.97998"
         rx="0.53619999"
         ry="0.40525001"
         id="ellipse66093" />
    </g>
  </g>
</svg>
