<svg id="elG4jit7x1I1" xmlns="http://www.w3.org/2000/svg" xmlns:xlink="http://www.w3.org/1999/xlink" viewBox="0 0 100 94.8" shape-rendering="geometricPrecision" text-rendering="geometricPrecision">
<style><![CDATA[
#elG4jit7x1I8_to {animation: elG4jit7x1I8_to__to 20000ms linear infinite normal forwards}@keyframes elG4jit7x1I8_to__to { 0% {transform: translate(1276.930516px,-3134.848022px)} 55.5% {transform: translate(1936.546636px,-3134.848022px)} 100% {transform: translate(1936.546636px,-3134.848022px)}} #elG4jit7x1I9_to {animation: elG4jit7x1I9_to__to 20000ms linear infinite normal forwards}@keyframes elG4jit7x1I9_to__to { 0% {transform: translate(991.096864px,-3134.848022px)} 56% {transform: translate(991.096864px,-3134.848022px)} 100% {transform: translate(1276.930516px,-3134.848022px)}} #elG4jit7x1I10_to {animation: elG4jit7x1I10_to__to 20000ms linear infinite normal forwards}@keyframes elG4jit7x1I10_to__to { 0% {transform: translate(1718.126027px,-3055.81311px)} 11% {transform: translate(1927.004465px,-3055.81311px)} 100% {transform: translate(1927.004465px,-3055.81311px)}} #elG4jit7x1I11_to {animation: elG4jit7x1I11_to__to 20000ms linear infinite normal forwards}@keyframes elG4jit7x1I11_to__to { 0% {transform: translate(1001.343177px,-3055.81311px)} 11% {transform: translate(1001.343177px,-3055.81311px)} 100% {transform: translate(1718.126027px,-3055.81311px)}} #elG4jit7x1I12_to {animation: elG4jit7x1I12_to__to 20000ms linear infinite normal forwards}@keyframes elG4jit7x1I12_to__to { 0% {transform: translate(1330.349723px,-3304.970703px)} 67% {transform: translate(1859.012643px,-3304.970703px)} 100% {transform: translate(1859.012643px,-3304.970703px)}} #elG4jit7x1I13_to {animation: elG4jit7x1I13_to__to 20000ms linear infinite normal forwards}@keyframes elG4jit7x1I13_to__to { 0% {transform: translate(1055.509673px,-3304.970703px)} 68% {transform: translate(1055.509673px,-3304.970703px)} 100% {transform: translate(1330.349723px,-3304.970703px)}} #elG4jit7x1I28_tr {animation: elG4jit7x1I28_tr__tr 20000ms linear infinite normal forwards}@keyframes elG4jit7x1I28_tr__tr { 0% {transform: translate(212.131075px,150.753798px) rotate(246.015183deg)} 25% {transform: translate(212.131075px,150.753798px) rotate(-105.708061deg)} 50% {transform: translate(212.131075px,150.753798px) rotate(-463.631635deg)} 75% {transform: translate(212.131075px,150.753798px) rotate(-826.557302deg)} 100% {transform: translate(212.131075px,150.753798px) rotate(-1184.659583deg)}} #elG4jit7x1I124 {animation: elG4jit7x1I124_c_o 20000ms linear infinite normal forwards}@keyframes elG4jit7x1I124_c_o { 0% {opacity: 0} 34% {opacity: 0} 35% {opacity: 1} 70% {opacity: 1} 71% {opacity: 0} 100% {opacity: 0}} #elG4jit7x1I160_to {animation: elG4jit7x1I160_to__to 20000ms linear infinite normal forwards}@keyframes elG4jit7x1I160_to__to { 0% {offset-distance: 0%} 18.75% {offset-distance: 0%} 26% {offset-distance: 18.310865%} 29.95% {offset-distance: 41.541648%} 34% {offset-distance: 71.133906%} 71% {offset-distance: 77.801872%} 77% {offset-distance: 100%} 100% {offset-distance: 100%}} #elG4jit7x1I160_tr {animation: elG4jit7x1I160_tr__tr 20000ms linear infinite normal forwards}@keyframes elG4jit7x1I160_tr__tr { 0% {transform: rotate(23.482518deg)} 26% {transform: rotate(23.482518deg)} 34% {transform: rotate(-4.085358deg)} 70% {transform: rotate(-4.085358deg)} 71% {transform: rotate(-24.538653deg)} 77% {transform: rotate(-4.085358deg)} 100% {transform: rotate(-4.085358deg)}} #elG4jit7x1I160 {animation: elG4jit7x1I160_c_o 20000ms linear infinite normal forwards}@keyframes elG4jit7x1I160_c_o { 0% {opacity: 0} 26% {opacity: 0} 28% {opacity: 1} 34% {opacity: 1} 35% {opacity: 0} 70% {opacity: 0} 71% {opacity: 1} 76% {opacity: 1} 77% {opacity: 0} 100% {opacity: 0}}
]]></style>
<defs><linearGradient id="elG4jit7x1I58-fill" x1="30.961384" y1="89.51345" x2="44.553929" y2="89.112845" spreadMethod="pad" gradientUnits="userSpaceOnUse" gradientTransform="translate(0 0)"><stop id="elG4jit7x1I58-fill-0" offset="0%" stop-color="#d1a448"/><stop id="elG4jit7x1I58-fill-1" offset="100%" stop-color="rgba(155,117,39,0.991803)"/></linearGradient><linearGradient id="elG4jit7x1I67-fill" x1="36.256506" y1="76.941643" x2="26.449165" y2="77.321582" spreadMethod="pad" gradientUnits="userSpaceOnUse" gradientTransform="translate(0 0)"><stop id="elG4jit7x1I67-fill-0" offset="0%" stop-color="#96312a"/><stop id="elG4jit7x1I67-fill-1" offset="100%" stop-color="rgba(101,33,28,0.995902)"/></linearGradient><linearGradient id="elG4jit7x1I74-fill" x1="29.703397" y1="82.131915" x2="41.526209" y2="82.064104" spreadMethod="pad" gradientUnits="userSpaceOnUse" gradientTransform="translate(0 0)"><stop id="elG4jit7x1I74-fill-0" offset="0%" stop-color="#c33f37"/><stop id="elG4jit7x1I74-fill-1" offset="100%" stop-color="rgba(179,58,51,0.980392)"/></linearGradient><linearGradient id="elG4jit7x1I144-fill" x1="367.10999" y1="87.487" x2="367.22" y2="90.810997" spreadMethod="pad" gradientUnits="userSpaceOnUse" gradientTransform="translate(0 0)"><stop id="elG4jit7x1I144-fill-0" offset="0%" stop-color="#916f6f"/><stop id="elG4jit7x1I144-fill-1" offset="100%" stop-color="rgba(104,80,80,0.9918)"/></linearGradient></defs><g transform="translate(-52.748623-15.135294)"><path d="M140.47314,63.511708c.000008,19.425857-16.743709,35.173633-37.39814,35.173643-9.918613.000003-19.430987-3.70578-26.444505-10.302119s-10.95367-15.542893-10.953666-24.871524C65.676837,44.085851,82.420568,28.338087,103.075,28.338093s37.398132,15.747769,37.39814,35.173615Z" transform="matrix(1.252522 0 0 1.300246-26.028702-19.069141)" opacity="0.14" fill="#0ff" stroke-width="0.316889" stroke-linecap="round" stroke-linejoin="round" stroke-miterlimit="10"/><path d="M140.47314,63.511708c.000008,19.425857-16.743709,35.173633-37.39814,35.173643-9.918613.000003-19.430987-3.70578-26.444505-10.302119s-10.95367-15.542893-10.953666-24.871524C65.676837,44.085851,82.420568,28.338087,103.075,28.338093s37.398132,15.747769,37.39814,35.173615Z" transform="matrix(1.139252 0 0 1.139252-14.353398-8.844134)" opacity="0.27" fill="#0ff" stroke-width="0.316889" stroke-linecap="round" stroke-linejoin="round" stroke-miterlimit="10"/><path d="M140.47314,63.511708c.000008,19.425857-16.743709,35.173633-37.39814,35.173643-9.918613.000003-19.430987-3.70578-26.444505-10.302119s-10.95367-15.542893-10.953666-24.871524C65.676837,44.085851,82.420568,28.338087,103.075,28.338093s37.398132,15.747769,37.39814,35.173615Z" fill="#0ff" stroke-width="0.316889" stroke-linecap="round" stroke-linejoin="round" stroke-miterlimit="10"/><g mask="url(#elG4jit7x1I14)"><g transform="matrix(.090962 0 0 0.090962-29.683117 345.622681)"><g id="elG4jit7x1I8_to" transform="translate(1276.930516,-3134.848022)"><path d="M1213.041,-3143.6039c-2.3667.0007-4.6197.4925-6.7036,1.3446-3.1179-13.6157-14.622-23.7284-28.3469-23.7283-13.7297-.0001-25.2346,10.1126-28.3492,23.7281-2.0827-.8527-4.3412-1.3439-6.7054-1.3438-10.3245-.0001-18.6932,8.9343-18.6932,19.9477c0,11.0169,8.3687,19.9474,18.6932,19.9472c3.2396.0002,19.436.0002,35.0546.0002c15.6165.0001,31.8105.0001,35.0505-.0002c10.3235.0002,18.6929-8.9303,18.6928-19.9474-.0001-11.0131-8.3693-19.9476-18.6928-19.9479Z" transform="translate(-1177.988098,3134.848022)" fill="#fff" stroke-width="0.323354"/></g><g id="elG4jit7x1I9_to" transform="translate(991.096864,-3134.848022)"><path d="M1213.041,-3143.6039c-2.3667.0007-4.6197.4925-6.7036,1.3446-3.1179-13.6157-14.622-23.7284-28.3469-23.7283-13.7297-.0001-25.2346,10.1126-28.3492,23.7281-2.0827-.8527-4.3412-1.3439-6.7054-1.3438-10.3245-.0001-18.6932,8.9343-18.6932,19.9477c0,11.0169,8.3687,19.9474,18.6932,19.9472c3.2396.0002,19.436.0002,35.0546.0002c15.6165.0001,31.8105.0001,35.0505-.0002c10.3235.0002,18.6929-8.9303,18.6928-19.9474-.0001-11.0131-8.3693-19.9476-18.6928-19.9479Z" transform="translate(-1177.988098,3134.848022)" fill="#fff" stroke-width="0.323354"/></g><g id="elG4jit7x1I10_to" transform="translate(1718.126027,-3055.81311)"><path d="M1760.0651,-3063.0585c-2.0895,0-4.0787.4069-5.918,1.1126-2.7525-11.267-12.9085-19.6355-25.0256-19.6357-12.1209.0002-22.2778,8.3687-25.0272,19.6356-1.8383-.7054-3.8327-1.1124-5.9196-1.1124-9.1149-.0001-16.5029,7.3938-16.5028,16.5076-.0001,9.1165,7.3878,16.5066,16.5029,16.5066c2.8597.0003,17.1583,0,30.9468.0001c13.7865-.0001,28.0831-.0001,30.9435-.0001c9.1137,0,16.5023-7.3899,16.5023-16.5068c0-9.1136-7.3887-16.5074-16.5023-16.5075Z" transform="translate(-1729.119629,3055.81311)" fill="#fff" stroke-width="0.276382"/></g><g id="elG4jit7x1I11_to" transform="translate(1001.343177,-3055.81311)"><path d="M1760.0651,-3063.0585c-2.0895,0-4.0787.4069-5.918,1.1126-2.7525-11.267-12.9085-19.6355-25.0256-19.6357-12.1209.0002-22.2778,8.3687-25.0272,19.6356-1.8383-.7054-3.8327-1.1124-5.9196-1.1124-9.1149-.0001-16.5029,7.3938-16.5028,16.5076-.0001,9.1165,7.3878,16.5066,16.5029,16.5066c2.8597.0003,17.1583,0,30.9468.0001c13.7865-.0001,28.0831-.0001,30.9435-.0001c9.1137,0,16.5023-7.3899,16.5023-16.5068c0-9.1136-7.3887-16.5074-16.5023-16.5075Z" transform="translate(-1729.119629,3055.81311)" fill="#fff" stroke-width="0.276382"/></g><g id="elG4jit7x1I12_to" transform="translate(1330.349723,-3304.970703)"><path d="M1739.7764,-3310.7427c-1.6645-.0006-3.2489.3244-4.7145.8864-2.1924-8.9753-10.2824-15.6416-19.9345-15.6417-9.6553.0001-17.7463,6.6665-19.9365,15.6415-1.4644-.5619-3.053-.886-4.7154-.8862-7.2605.0002-13.1458,5.89-13.1458,13.1496-.0002,7.2624,5.8852,13.1489,13.1459,13.1492c2.2777,0,13.6682-.0004,24.6518,0c10.9819,0,22.3703,0,24.6489,0c7.2597,0,13.1456-5.8869,13.1455-13.1493c0-7.2596-5.8859-13.1493-13.1454-13.1495Z" transform="translate(-1715.125793,3304.970703)" fill="#fff" stroke-width="0.220161"/></g><g id="elG4jit7x1I13_to" transform="translate(1055.509673,-3304.970703)"><path d="M1739.7764,-3310.7427c-1.6645-.0006-3.2489.3244-4.7145.8864-2.1924-8.9753-10.2824-15.6416-19.9345-15.6417-9.6553.0001-17.7463,6.6665-19.9365,15.6415-1.4644-.5619-3.053-.886-4.7154-.8862-7.2605.0002-13.1458,5.89-13.1458,13.1496-.0002,7.2624,5.8852,13.1489,13.1459,13.1492c2.2777,0,13.6682-.0004,24.6518,0c10.9819,0,22.3703,0,24.6489,0c7.2597,0,13.1456-5.8869,13.1455-13.1493c0-7.2596-5.8859-13.1493-13.1454-13.1495Z" transform="translate(-1715.125793,3304.970703)" fill="#fff" stroke-width="0.220161"/></g></g><mask id="elG4jit7x1I14" mask-type="luminance" x="-150%" y="-150%" height="400%" width="400%"><path d="M140.47314,63.511708c.000008,19.425857-16.743709,35.173633-37.39814,35.173643-9.918613.000003-19.430987-3.70578-26.444505-10.302119s-10.95367-15.542893-10.953666-24.871524C65.676837,44.085851,82.420568,28.338087,103.075,28.338093s37.398132,15.747769,37.39814,35.173615Z" fill="#0ff" stroke-width="0.316889" stroke-linecap="round" stroke-linejoin="round" stroke-miterlimit="10"/></mask></g><g mask="url(#elG4jit7x1I17)"><mask id="elG4jit7x1I17" mask-type="luminance" x="-150%" y="-150%" height="400%" width="400%"><path d="M140.47314,63.511708c.000008,19.425857-16.743709,35.173633-37.39814,35.173643-9.918613.000003-19.430987-3.70578-26.444505-10.302119s-10.95367-15.542893-10.953666-24.871524C65.676837,44.085851,82.420568,28.338087,103.075,28.338093s37.398132,15.747769,37.39814,35.173615Z" fill="#0ff" stroke-width="0.316889" stroke-linecap="round" stroke-linejoin="round" stroke-miterlimit="10"/></mask></g></g><g transform="translate(7.111709 13.149)"><path d="M13.781421,67.223156c-1.504476,1.566179-3.239793,3.801034-2.121645-.89097.173089-.726351-.917102-1.246696-1.058857-2.344034.407875-.920005.06293-2.151785,2.378869-2.281583.358504-.579607,2.015654.491737,1.952219,1.509563-.01694.271851.310116-.290284-.141643-1.29852-.473214-1.056123-.06342-1.975512,2.011926-2.63698c5.53256-.361995,2.309333.87738,3.490058-1.696126-1.132835-.721666-1.021038-1.471784-.258113-2.236794c1.262944-1.050404,1.843449-.727345,2.378394-.31263c1.770218.430603-.159709,1.687892.32087,1.783108c4.146588.821535,1.707007,2.224138,2.951505.742533l2.275747,5.358805" fill="#1b835b" stroke-width="0.23584"/><path d="M61.558365,56.916036c.65557-.09885,1.25093,1.380163,1.96734-.312812-.19082-1.181109,1.02088-1.37744,2.43238-1.433488c2.96151.894051,2.14449,1.75392,1.24333,2.61303.12252.418746-.3725,1.332483.50001,1.150105c1.37964-1.78712,1.37857-.03481,1.9814.169401c1.72494,1.470704.25722,1.437409.29889,2.115163-1.18261,2.213628,1.64286.873071,2.5707,1.215234c2.71396.739162,1.15988,1.828466,1.09519,2.795585l-.9997,2.804346-12.04705-3.56305" fill="#1b835b" stroke-width="0.237401"/><g transform="matrix(3.191522-.443383 0.397915 2.922984-715.684814-305.61438)"><g transform="matrix(.83053 0 0 0.83053 35.401001 27.148001)"><path d="M211.07882,158.21015c-.21225-2.15161-.16841-3.92971.002-6.2666l.50937.13464c-.15963,2.53734.0433,4.55275.40487,6.07831" fill="#c87137" stroke-width="0.035278"/><g transform="matrix(-.844781-.261227-.214713 0.844781 422.88678 79.74379)"><path d="M211.98926,150.27145l-1.15671.11273-.11539-.46053c0,0-.46031-.68929-.39419.0327.0227,1.1534.0596.7977.44262.87987.97155.20755.87908.39722.87908.39722" fill="#b3b3b3" stroke-width="0.035278"/><ellipse rx="0.533212" ry="0.573392" transform="matrix(.999113 0.042121-.032812 0.999462 212.134637 150.773061)" fill="#999" stroke-width="0.056203"/><g id="elG4jit7x1I28_tr" transform="translate(212.131075,150.753798) rotate(246.015183)"><g transform="skewX(3.706982) skewY(0) scale(1.076425,0.929001) translate(-212.131897,-150.753876)"><g transform="matrix(-.352697-1.023147-.855796 0.352697 415.813049 314.69812)"><path d="M44.164985,168.4321c13.548097-.32833,9.648218,12.89171,22.577672,16.95224c9.994343,3.13875,26.623069-12.27075,21.606585-3.07437-6.48971,11.89716-15.988658,1.90975-25.96991,11.07672-7.715412,7.08598-2.684749,29.19163-8.140813,20.24903-7.058387-11.56883,6.340441-14.80145,3.392239-28.02896-2.278932-10.22473-23.93832-16.92087-13.465773-17.17466Z" transform="matrix(.097965 0.01486-.013336 0.106966 208.54863 129.552475)" fill="#fff" stroke-width="1.66299"/></g><ellipse rx="0.304085" ry="0.326999" transform="matrix(.999113 0.042121-.032812 0.999462 212.134637 150.773062)" fill="#ccc" stroke-width="0.032052"/><ellipse rx="2.98705" ry="3.24956" transform="matrix(-.98869-.149973-.123721 0.992317 212.131895 150.753882)" fill="none" stroke-width="0.195893"/></g></g></g></g></g><g transform="matrix(.264583 0 0 0.264583-731.868774-510.266449)"><g transform="translate(-352.253632 60.346622)"><g transform="matrix(.454758 0 0 0.454758 1907.320435 1127.557739)"><path d="M3221.7659,2045.4745c-.9497,27.5581-6.2188,82.7529-32.6905,109.8381c0,0,3.528,1.5642,15.0132,1.5642c7.9184,0,14.3381-.8178,14.3381-1.8267c0-.2149,15.526-54.0229,13.6002-110.8483-10.261,1.2727-10.261,1.2727-10.261,1.2727Z" fill="#c1a778" stroke-width="0.617606" stroke-linecap="round" stroke-linejoin="round" stroke-miterlimit="10"/><path d="M3235.891,2049.4152l4.6006,3.4422-.2956,5.3781l3.5241-.9006l1.3881,7.7103l15.9338,11.3783c4.1419-18.1486-2.2928-33.3167-11.7413-42.512l10.3416-9.0257l5.2054,1.4055-.1572-3.6304l7.8379.257l14.4576-13.2078c-23.9617-11.1249-46.5161-.2072-54.737,13.5081-4.7948-12.7801-21.7956-25.4515-43.5926-20.1583l9.9385,13.5111l6.6193,1.1004-.7322,3.0217l4.5988-.3077l2.9039,3.762c-13.957-2.6944-31.4288,1.0842-44.7679,16.2236l19.7776,6.6906l7.5307-3.6026l1.4192,3.6026l4.4672-3.6026l8.5111,2.6696c-3.2155,5.733-4.9304,12.9279-3.8351,21.2046l12.3979-7.2303l1.5335-5.5352l2.5042.8965.1589-3.9465l4.6195-2.8276l9.7864,14.3582c0,0,1.6669-6.5542-.1969-13.6331Z" transform="translate(.000001 0)" fill="#75c108" stroke-width="0.445073" stroke-linecap="round" stroke-linejoin="round" stroke-miterlimit="10"/></g></g></g><g transform="matrix(.109006 0 0 0.109006-252.949982-161.51178)"><g transform="translate(-352.253632 60.346622)"><g transform="matrix(.130238 0 0 0.130238 2156.252441 1790.758057)"><path d="M4964.92,2184.703c0,12.865-10.43,23.293-23.294,23.293h-166.321c-12.864,0-23.293-10.429-23.293-23.293v0c0-12.865,10.429-23.293,23.293-23.293h166.321c12.864-.001,23.294,10.428,23.294,23.293Z" opacity="0.2" fill="#38200e"/><path d="M4863.536,2174.709v-31.525c0-1.928,1.562-3.493,3.501-3.493c1.928,0,3.486,1.565,3.486,3.493v30.983c41.307.472,40.213,9.235,40.213,9.235h-53.613c-.541-5.616,3.346-7.826,6.413-8.693Z" fill="#ffde55" stroke="#283f00" stroke-width="4.298" stroke-linecap="round" stroke-linejoin="round" stroke-miterlimit="10"/><path d="M4847.223,2180.7v-31.53c0-1.928,1.559-3.494,3.486-3.494c1.939,0,3.5,1.566,3.5,3.494v30.983c41.308.472,40.213,9.235,40.213,9.235h-53.624c-.532-5.617,3.358-7.821,6.425-8.688Z" fill="#ffde55" stroke="#283f00" stroke-width="4.298" stroke-linecap="round" stroke-linejoin="round" stroke-miterlimit="10"/><path d="M4792.547,2130.765c-.064-.455,74.498-73.248,99.785-73.248c25.273,0,45.777,20.501,45.777,45.786s-20.504,45.786-45.777,45.786c-21.063,0-76.32,3.857-94.206-9.457-27.938,50.054-53.277,17.479-53.277,17.479Z" fill="#fff" stroke="#283f00" stroke-width="4.298" stroke-linecap="round" stroke-linejoin="round" stroke-miterlimit="10"/><path d="M4928.709,2087.227c18.546-6.072,30.256-25.019,26.747-44.773-3.868-21.628-24.526-36.031-46.151-32.179-21.633,3.856-36.028,24.509-32.184,46.144.66,3.656,1.799,7.111,3.324,10.297" fill="#fff" stroke="#283f00" stroke-width="4.298" stroke-linecap="round" stroke-linejoin="round" stroke-miterlimit="10"/><path d="M4941.958,2077.791c-21.202,2.194-21.624-18.449-3.651-20.469c0,0,8.05-8.764,17.149-14.869c11.481,13.818,32.543,14.939,34.655,36.768Z" fill="#ffde55" stroke="#283f00" stroke-width="4.298" stroke-linecap="round" stroke-linejoin="round" stroke-miterlimit="10"/><path d="M4919.707,2099.49c0,0,6.986,36.644-23.314,39.557c0,0-82.766,4.653-81.596-11.077l31.234-13.405" fill="#fff" stroke="#283f00" stroke-width="4.298" stroke-linecap="round" stroke-linejoin="round" stroke-miterlimit="10"/><path d="M4907.465,2044.81c1.094,3.954,5.188,6.278,9.145,5.173c3.961-1.089,6.271-5.195,5.176-9.148-1.094-3.949-5.188-6.268-9.152-5.173-3.954,1.104-6.263,5.193-5.169,9.148Z" fill="#283f00"/></g></g></g></g><g transform="translate(-52.748623-12.135294)"><g transform="matrix(.928954-.020679 0.012925 0.728238 55.47897 5.135476)"><path d="M9.06773,127.45002c-2.636487-6.32037,27.682034-17.35405,34.40971-18.72921c10.078213-.65272,42.432672,9.90183,47.215745,18.77468.299603.55578.168678.31312.38521.78324.286391.6218.38004,1.27732-.0052,1.5815-14.959945,12.44464-66.933404,11.82448-82.005506-2.41025Z" fill="#2db337" stroke-width="0.071224"/><path d="M22.343307,116.7203c-.749422-2.46222-.797495-1.19766-.65354-.20845-.7557-1.77734.298369,1.81155-.757099-.37545.718254,2.4474-1.242086-2.18786-.340024.5543-1.021416-1.85434-1.13654-2.11323-.377384.0416-.437255-.58316-1.045242-1.66861-.402788.50576-.635767-.44832-.465008-.9918-.494177.0412-.87665-.48991.499586,1.22208-.831249-.24842.06938.76185-.386684.0963.235537,1.69055-.802834-1.24002-1.11622-2.66688-.70438-.40216-1.330581-2.28679.07114,1.46034-1.1812-1.01926-.05934.32361.126403,1.54201.191875,2.22975" fill="#2db337" stroke="#000" stroke-width="0.195281" stroke-opacity="0"/><path d="M80.20539,119.50485c.782662-2.44103.813587-1.17535.65624-.19034.779652-1.75609-.322879,1.80295.762043-.35445-.751319,2.42706,1.271513-2.15307.332443.5636c1.046372-1.82572,1.164986-2.08138.376748.0521.445082-.57094,1.067675-1.63936.395855.51681.641726-.43065.47837-.97874.493526.0549.883141-.46552-.516073,1.20806.834461-.22535-.0797.75977.385305.10695-.258421,1.68369.81951-1.21756,1.152167-2.63547.709703-.38257c1.361343-2.24954-.09093,1.4581,1.194798-.9864.05491.32522-.147288,1.53824-.222075,2.22402" fill="#2db337" stroke="#000" stroke-width="0.195281" stroke-opacity="0"/></g><path d="M99.299613,92.147123c-2.62897,2.707702-1.96721,4.615365-.38569,6.688775c2.116477,2.774732-3.439732,5.099672-4.873102,6.307272-.276173.23321.284483.34624.499788.38066c4.850403.77525,12.037951.64428,17.537861-.22425.16693-.0264.56544-.0402.53006-.34967c0,0,.43883-5.031862-2.91596-6.761112-3.5389-1.824141-4.93311-3.198667-4.91695-6.271345" fill="#b0c767" stroke-width="0.114267"/><path d="M84.847893,87.418747c-15.151822,5.880883,1.91692,10.048488,19.103607,9.256654c16.67887-.768428,32.63128-4.822458,19.36727-8.468633L101.2056,86.591829Z" opacity="0.2" stroke-width="0.499273"/></g><g transform="matrix(.109006 0 0 0.109006-231.740876-169.611132)"><g transform="matrix(9.702475 0 0 9.702475 2280.156738 1361.753052)"><path d="M13.371059,93.456553c-1.523968-3.462385-1.398149-6.286755-.817666-9.535307.126637-1.727387,2.945558-4.307014,2.945558-4.307014l5.60193-1.443703l8.535412-.775269l12.74039-.266045l6.77567,1.649586l1.649,2.950679c.21782,1.084986.6517,2.200216.76971,3.231688.32795,2.867004.38797,5.885832-.39467,8.170269-2.73121,2.27847-13.24465,3.269165-16.84223,3.294625l-7.27817.273286c-4.7611-.07077-9.319668-1.007822-13.684934-3.242795Z" fill="url(#elG4jit7x1I58-fill)" stroke-width="0.083078"/><path d="M11.870848,90.792598c1.854406-.830265,2.412605-.743637,2.460724.494537.04659,1.224976.734591.539241.04659,1.224976-.796108.692494-.387673.327067-.781202,1.437667-.554252-.100513-.994721-.305271-1.296723-.636888-.196582-.914446-.67129-.117687-.429389-2.520292Z" fill="#43cc32" stroke-width="0.584904"/><path d="M49.950217,91.679098c2.317506-2.496801,2.533947-1.627431,2.581086-.3891.0466,1.224985.339071.869514.111536,1.467739-.368971.553148-.7498.797319-2.024496,1.170077-.427481-.724395-1.321292.595129-.668126-2.248716Z" fill="#43cc32" stroke-width="0.584904"/><path d="M27.187853,96.751551c-.21241-4.912984-.59134-8.779614,3.4735-9.639068c4.45744,0,3.47893,5.677601,3.75769,9.421724" fill="#6c5353" stroke-width="0.083078"/><path d="M21.017296,79.366315c11.212617-2.423227,10.094087-2.598874,11.212617-2.423227s1.11854.175657,1.11854.175657s6.13654-1.255867,9.45919.333148s3.32264,1.589015,3.32264,1.589015l-6.32629,2.453863-11.62564.242778Z" fill="#906821" stroke="#000" stroke-width="0.083078"/><path d="M36.185013,78.040635l.11682,2.680777.59384-.05367-.16155-3.299037-.58994.259997Z" fill="#74541a" stroke-width="0.584904"/><path d="M29.906203,78.171757l.11682,2.680768.59382-.05366-.16154-3.299045-.58995.260006Z" fill="#74541a" stroke-width="0.584904"/><path d="M26.075023,78.293037l.11683,2.680768.59381-.05366-.16155-3.299036-.58994.259996Z" fill="#74541a" stroke-width="0.584904"/><path d="M39.324433,77.975088l.11682,2.680768.59384-.05367-.16157-3.299036-.58992.259997Z" fill="#6f5019" stroke-width="0.584904"/><path d="M21.711921,79.309365c10.14548-2.977832,15.87132-1.100686,22.09718.268256l2.83145-1.916542-3.43005-1.653106c-3.94615-.375501-5.654716-1.274732-11.838449-1.126502-4.724889.486788-5.517524.696827-6.2664.903787L18.072035,77.79332Z" fill="url(#elG4jit7x1I67-fill)" stroke-width="0.083078"/><ellipse rx="2.7227" ry="3.12722" transform="matrix(.999782-.020878 0.018915 0.999821 20.635216 89.205344)" fill="#836652" stroke-width="0.111043" stroke-linejoin="round"/><ellipse rx="2.1783" ry="2.65287" transform="matrix(.999782-.020878 0.018915 0.999821 20.915255 89.199496)" fill="#8fffff" stroke-width="0.091481" stroke-linejoin="round"/><ellipse rx="2.86334" ry="2.90125" transform="matrix(.999834-.018221 0.021673 0.999765 40.846413 89.005965)" fill="#755b49" stroke-width="0.111666" stroke-linejoin="round"/><ellipse rx="2.36542" ry="2.61984" transform="matrix(.99983-.018426 0.021432 0.99977 40.610607 89.00866)" fill="#8fffff" stroke-width="0.096447" stroke-linejoin="round"/><ellipse rx="1.37462" ry="2.17724" transform="matrix(.999782-.020878 0.018915 0.999821 49.462485 87.062425)" fill="#836652" stroke-width="0.106895" stroke-linejoin="round"/><ellipse rx="1.16813" ry="1.98965" transform="matrix(.999782-.020878 0.018915 0.999821 49.256065 87.068637)" fill="#8fffff" stroke-width="0.094199" stroke-linejoin="round"/><path d="M11.583186,82.413658c4.204281-5.035524,5.144273-5.054075,5.156298-5.054316c9.31543-2.969096,16.55267-1.90315,15.38838-2.074475-3.03264-.548094-15.586022,2.667656-12.456256,2.919649c1.639536,1.606783,17.560196,2.516584,26.181056-.291286-.56564-1.689764-11.63244-2.672635-13.64872-2.677096c5.40351-.552331,11.1093-.386758,15.704,1.884247c2.58768,1.79267,2.67072,3.04599,3.96803,4.560784-7.2228,2.337033-12.78517,3.022676-19.473,3.402436-7.41869.959781-15.112633-1.389966-20.819788-2.669943Z" fill="url(#elG4jit7x1I74-fill)" stroke-width="0.080763"/><g transform="translate(4.680452 0.463679)"><ellipse rx="1.06382" ry="2.48706" transform="matrix(.999782-.020878 0.018915 0.999821 9.428236 86.649971)" fill="#836652" stroke-width="0.103803" stroke-linejoin="round"/><ellipse rx="0.876094" ry="2.48706" transform="matrix(.999782-.020878 0.018915 0.999821 9.615895 86.646053)" fill="#8fffff" stroke-width="0.094199" stroke-linejoin="round"/></g><path d="M28.074763,96.733031c-.17613-4.527969-.47512-8.092296,2.60078-8.870339c3.37592.01555,2.65247,5.243758,2.87522,8.694855" fill="#97623e" stroke-width="0.069403"/><ellipse rx="0.319132" ry="0.422068" transform="matrix(.999782-.020878 0.018915 0.999821 25.77395 95.148841)" fill="#ac9393" stroke-width="0.094199" stroke-linejoin="round"/><ellipse rx="0.319132" ry="0.422068" transform="matrix(.999782-.020878 0.018915 0.999821 24.626438 95.032073)" fill="#ac9393" stroke-width="0.094199" stroke-linejoin="round"/><ellipse rx="0.262815" ry="0.347586" transform="matrix(.999782-.020878 0.018915 0.999821 23.496738 94.868124)" fill="#ac9393" stroke-width="0.077576" stroke-linejoin="round"/><ellipse rx="0.319132" ry="0.422068" transform="matrix(.999782-.020878 0.018915 0.999821 22.461014 94.702112)" fill="#ac9393" stroke-width="0.094199" stroke-linejoin="round"/><ellipse rx="0.319132" ry="0.422068" transform="matrix(.999782-.020878 0.018915 0.999821 25.226287 93.987624)" fill="#ac9393" stroke-width="0.094199" stroke-linejoin="round"/><ellipse rx="0.319132" ry="0.422068" transform="matrix(.999782-.020878 0.018915 0.999821 24.003249 93.849029)" fill="#ac9393" stroke-width="0.094199" stroke-linejoin="round"/><ellipse rx="0.319132" ry="0.422068" transform="matrix(.999782-.020878 0.018915 0.999821 20.275359 94.302058)" fill="#ac9393" stroke-width="0.094199" stroke-linejoin="round"/><ellipse rx="0.319132" ry="0.422068" transform="matrix(.999782-.020878 0.018915 0.999821 19.199828 94.019652)" fill="#ac9393" stroke-width="0.094199" stroke-linejoin="round"/><ellipse rx="0.319132" ry="0.422068" transform="matrix(.999782-.020878 0.018915 0.999821 35.245941 93.637658)" fill="#ac9393" stroke-width="0.094199" stroke-linejoin="round"/><ellipse rx="0.265944" ry="0.351724" transform="matrix(.999782-.020878 0.018915 0.999821 36.258533 93.569604)" fill="#ac9393" stroke-width="0.078499" stroke-linejoin="round"/><ellipse rx="0.319132" ry="0.422068" transform="matrix(.999782-.020878 0.018915 0.999821 37.250557 93.408257)" fill="#ac9393" stroke-width="0.094199" stroke-linejoin="round"/><ellipse rx="0.319132" ry="0.422068" transform="matrix(.999782-.020878 0.018915 0.999821 36.86204 94.706249)" fill="#ac9393" stroke-width="0.094199" stroke-linejoin="round"/><ellipse rx="0.319132" ry="0.422068" transform="matrix(.999782-.020878 0.018915 0.999821 44.071158 86.498263)" fill="#ac9393" stroke-width="0.094199" stroke-linejoin="round"/><ellipse rx="0.319132" ry="0.422068" transform="matrix(.999782-.020878 0.018915 0.999821 45.108021 86.290971)" fill="#ac9393" stroke-width="0.094199" stroke-linejoin="round"/><ellipse rx="0.319132" ry="0.422068" transform="matrix(.999782-.020878 0.018915 0.999821 45.996414 86.086679)" fill="#ac9393" stroke-width="0.094199" stroke-linejoin="round"/><ellipse rx="0.319132" ry="0.422068" transform="matrix(.999782-.020878 0.018915 0.999821 47.330709 85.873076)" fill="#ac9393" stroke-width="0.094199" stroke-linejoin="round"/><ellipse rx="0.319132" ry="0.422068" transform="matrix(.999782-.020878 0.018915 0.999821 45.723767 87.392553)" fill="#ac9393" stroke-width="0.094199" stroke-linejoin="round"/><ellipse rx="0.319132" ry="0.422068" transform="matrix(.999782-.020878 0.018915 0.999821 45.348016 91.115202)" fill="#ac9393" stroke-width="0.094199" stroke-linejoin="round"/><ellipse rx="0.319132" ry="0.422068" transform="matrix(.999782-.020878 0.018915 0.999821 46.236408 90.910911)" fill="#ac9393" stroke-width="0.094199" stroke-linejoin="round"/><ellipse rx="0.319132" ry="0.422068" transform="matrix(.999782-.020878 0.018915 0.999821 47.121188 90.520954)" fill="#ac9393" stroke-width="0.094199" stroke-linejoin="round"/><ellipse rx="0.319132" ry="0.422068" transform="matrix(.999782-.020878 0.018915 0.999821 45.818607 92.405556)" fill="#ac9393" stroke-width="0.094199" stroke-linejoin="round"/><ellipse rx="0.319132" ry="0.422068" transform="matrix(.999782-.020878 0.018915 0.999821 44.311156 91.322595)" fill="#ac9393" stroke-width="0.094199" stroke-linejoin="round"/><ellipse rx="0.319132" ry="0.422068" transform="matrix(.999782-.020878 0.018915 0.999821 44.732469 90.013616)" fill="#ac9393" stroke-width="0.094199" stroke-linejoin="round"/><ellipse rx="0.248214" ry="0.328275" transform="matrix(.999782-.020878 0.018915 0.999821 35.422429 89.569895)" fill="#ac9393" stroke-width="0.073267" stroke-linejoin="round"/><ellipse rx="0.319132" ry="0.422068" transform="matrix(.999782-.020878 0.018915 0.999821 36.459387 89.362401)" fill="#ac9393" stroke-width="0.094199" stroke-linejoin="round"/><ellipse rx="0.319132" ry="0.422068" transform="matrix(.999782-.020878 0.018915 0.999821 35.843743 88.260917)" fill="#ac9393" stroke-width="0.094199" stroke-linejoin="round"/><ellipse rx="0.319132" ry="0.422068" transform="matrix(.999782-.020878 0.018915 0.999821 41.507898 93.888676)" fill="#ac9393" stroke-width="0.094199" stroke-linejoin="round"/><ellipse rx="0.319132" ry="0.422068" transform="matrix(.999782-.020878 0.018915 0.999821 48.903264 91.787622)" fill="#ac9393" stroke-width="0.094199" stroke-linejoin="round"/><ellipse rx="0.319132" ry="0.422068" transform="matrix(.999782-.020878 0.018915 0.999821 26.120289 88.645105)" fill="#ac9393" stroke-width="0.094199" stroke-linejoin="round"/><ellipse rx="0.281587" ry="0.372413" transform="matrix(.999782-.020878 0.018915 0.999821 25.141299 88.501414)" fill="#ac9393" stroke-width="0.083117" stroke-linejoin="round"/><ellipse rx="0.319132" ry="0.422068" transform="matrix(.999782-.020878 0.018915 0.999821 24.179669 88.286845)" fill="#ac9393" stroke-width="0.094199" stroke-linejoin="round"/><ellipse rx="0.319132" ry="0.422068" transform="matrix(.999782-.020878 0.018915 0.999821 25.648597 87.529112)" fill="#ac9393" stroke-width="0.094199" stroke-linejoin="round"/><ellipse rx="0.319132" ry="0.422068" transform="matrix(.999782-.020878 0.018915 0.999821 17.280651 86.859573)" fill="#ac9393" stroke-width="0.094199" stroke-linejoin="round"/><ellipse rx="0.319132" ry="0.422068" transform="matrix(.999782-.020878 0.018915 0.999821 16.38182 86.506863)" fill="#ac9393" stroke-width="0.094199" stroke-linejoin="round"/><ellipse rx="0.319132" ry="0.422068" transform="matrix(.999782-.020878 0.018915 0.999821 16.604252 90.402761)" fill="#ac9393" stroke-width="0.094199" stroke-linejoin="round"/><ellipse rx="0.262815" ry="0.347586" transform="matrix(.999782-.020878 0.018915 0.999821 15.882089 91.532282)" fill="#ac9393" stroke-width="0.077576" stroke-linejoin="round"/><ellipse rx="0.259417" ry="0.311237" transform="matrix(.844678 0.535275-.373093 0.927794 13.638491 84.097513)" fill="#ac9393" stroke-width="0.072932" stroke-linejoin="round"/><ellipse rx="0.248214" ry="0.328275" transform="matrix(.999782-.020878 0.018915 0.999821 50.22158 83.819676)" fill="#ac9393" stroke-width="0.073267" stroke-linejoin="round"/><ellipse rx="0.413017" ry="0.51589" transform="matrix(.999782-.020878 0.018915 0.999821 29.146236 92.912051)" fill="#6c5353" stroke-width="0.663202" stroke-linejoin="round"/><ellipse rx="0.630822" ry="0.768246" transform="matrix(.999782-.020878 0.018915 0.999821 20.053337 88.529946)" fill="#fff" fill-opacity="0.991803" stroke-width="0.789621" stroke-linecap="round" stroke-linejoin="round" stroke-dasharray="0.789621,1.57924"/><ellipse rx="0.630822" ry="0.768246" transform="matrix(.999782-.020878 0.018915 0.999821 39.632838 88.383735)" fill="#fff" fill-opacity="0.991803" stroke-width="0.789621" stroke-linecap="round" stroke-linejoin="round" stroke-dasharray="0.789621,1.57924"/><ellipse rx="0.338781" ry="0.768236" transform="matrix(.999993-.003754 0.00794 0.999968 14.033108 87.137746)" fill="#fff" fill-opacity="0.991803" stroke-width="0.578658" stroke-linecap="round" stroke-linejoin="round" stroke-dasharray="0.578658,1.15732"/><ellipse rx="0.257095" ry="0.768067" transform="matrix(.998158-.060674 0.044444 0.999012 49.902053 86.476348)" fill="#fff" fill-opacity="0.991803" stroke-width="0.504032" stroke-linecap="round" stroke-linejoin="round" stroke-dasharray="0.504032,1.00809"/><path d="M36.823253,96.75553c0,0-.81782-1.079812-.49843-1.563943s.38394-.553616.38394-.553616-.94526-.872496.30068-1.304259l1.24593-.431784c3.35043,2.127722,1.24225-.08851,2.11262-.104913c1.22492-.07802.59735.465224,1.466.521624c1.05866.05006.96058-.502798,1.113.383408.28088.743041.10734,1.344868-.51576,2.61464-1.67372.459688-3.42295.798379-5.60798.438843Z" fill="#43cc32" stroke-width="0.532279"/><path d="M14.701697,94.892115c0,0-.401416-1.212377-.05672-1.572114c1.033164-.822969-.266828-1.407773.908883-1.525523l1.04236-.06335c.394212,2.191798.634413.312872,2.650232,1.34218.799219.329701.83887-.205128.77164.65087.06066.75875-.196869,1.265845-.936727,2.266863-1.375299-.0256-2.783236-.182761-4.379637-1.098939Z" fill="#43cc32" stroke-width="0.463722"/></g><g id="elG4jit7x1I124" transform="matrix(.164342 0 0 0.164342 1934.706285 1755.231715)" opacity="0"><ellipse rx="49.935" ry="12.142" transform="translate(4888.74 2190.75)" opacity="0.2" stroke-width="24.5614"/><path d="M4880.9565,2180.9203v-21.748c0-1.3301,1.0776-2.4097,2.4152-2.4097c1.3301,0,2.4049,1.0796,2.4049,2.4097v21.3741c28.4963.3256,27.7416,6.3709,27.7416,6.3709h-36.9858c-.3732-3.8743,2.3083-5.3989,4.4241-5.997Z" fill="#ffde55" stroke-width="2.96504" stroke-linecap="round" stroke-linejoin="round" stroke-miterlimit="10"/><path d="M4869.7027,2185.0533v-21.7515c0-1.33,1.0755-2.4103,2.4049-2.4103c1.3377,0,2.4145,1.0803,2.4145,2.4103v21.3742c28.497.3256,27.7416,6.3709,27.7416,6.3709h-36.9934c-.367-3.875,2.3166-5.3955,4.4324-5.9936Z" fill="#ffde55" stroke-width="2.96504" stroke-linecap="round" stroke-linejoin="round" stroke-miterlimit="10"/><path d="M4831.9836,2150.6049c-.044-.3139,51.3937-50.5313,68.8383-50.5313c17.435,0,31.58,14.1429,31.58,31.5862s-14.145,31.5862-31.58,31.5862c-14.5306,0-52.6506,2.6608-64.9895-6.5241-19.2735,34.5306-36.754,12.0582-36.754,12.0582Z" fill="#fff" stroke-width="2.96504" stroke-linecap="round" stroke-linejoin="round" stroke-miterlimit="10"/><path d="M4925.9172,2120.5695c12.7942-4.1889,20.8725-17.2598,18.4518-30.8874-2.6684-14.9204-16.9197-24.8566-31.838-22.1992-14.9239,2.6601-24.8545,16.9079-22.2026,31.8332.4553,2.5221,1.241,4.9056,2.2931,7.1035" fill="#fff" stroke-width="2.96504" stroke-linecap="round" stroke-linejoin="round" stroke-miterlimit="10"/><path d="M4935.0572,2114.0599c-14.6265,1.5136-14.9177-12.7273-2.5187-14.1209c0,0,5.5534-6.0459,11.8305-10.2576c7.9204,9.5326,22.4503,10.3059,23.9073,25.365Z" fill="#ffde55" stroke-width="2.96504" stroke-linecap="round" stroke-linejoin="round" stroke-miterlimit="10"/><path d="M4875.2748,2128.1433c7.3754-5.9986,44.0581-2.3577,44.8534,4.769.7961,7.135-.7559,21.892-16.5048,23.406c0,0-57.0974,3.21-56.2903-7.6416l27.9417-20.5334" fill="#b3b3b3" stroke-width="2.96504" stroke-linecap="round" stroke-linejoin="round" stroke-miterlimit="10"/><path d="M4911.2616,2091.3074c.7548,2.7278,3.5791,4.331,6.3089,3.5687c2.7325-.7513,4.3261-3.5838,3.5707-6.3109-.7547-2.7243-3.579-4.3241-6.3136-3.5687-2.7278.7617-4.3207,3.5825-3.566,6.3109Z" fill="#283f00" stroke-width="0.689866"/></g><g transform="matrix(.215454 0.050005-.050005 0.215454 2816.855225 2938.59668)"><g><path d="M-2241.9574,-2580.9235c-3.973-3.974-10.215-4.29-14.554-.954-4.338-3.335-10.579-3.02-14.554.954-3.971,3.973-4.287,10.214-.951,14.553-3.336,4.338-3.02,10.58.951,14.552c3.975,3.974,10.216,4.29,14.554.954c4.339,3.335,10.581,3.02,14.554-.954c3.973-3.973,4.29-10.214.954-14.552c3.336-4.339,3.019-10.58-.954-14.553Z" fill="#fc0" stroke-width="2.5855" stroke-linecap="round" stroke-linejoin="round" stroke-miterlimit="10"/><circle r="7.13694" transform="translate(-2256.51-2566.37)" fill="#ffe680" stroke-width="3.54448" stroke-linecap="round" stroke-linejoin="round" stroke-miterlimit="10"/></g></g><g transform="matrix(.215454 0.050005-.050005 0.215454 3012.615479 2946.4646)"><g><path d="M-2241.9574,-2580.9235c-3.973-3.974-10.215-4.29-14.554-.954-4.338-3.335-10.579-3.02-14.554.954-3.971,3.973-4.287,10.214-.951,14.553-3.336,4.338-3.02,10.58.951,14.552c3.975,3.974,10.216,4.29,14.554.954c4.339,3.335,10.581,3.02,14.554-.954c3.973-3.973,4.29-10.214.954-14.552c3.336-4.339,3.019-10.58-.954-14.553Z" fill="#fc0" stroke-width="2.5855" stroke-linecap="round" stroke-linejoin="round" stroke-miterlimit="10"/><circle r="7.13694" transform="translate(-2256.51-2566.37)" fill="#ffe680" stroke-width="3.54448" stroke-linecap="round" stroke-linejoin="round" stroke-miterlimit="10"/></g></g><g transform="matrix(3.438288 0 0 3.458513 624.285095 2038.972168)"><path d="M558.46066,15.697843c-4.41728.547684-9.70666,3.43716-10.13817-6.715992c0,0-12.99378,4.060814-12.56557-6.559815l.42845-10.620642l2.99872-6.403647c-4.00913-.787154-1.64057-4.674837-2.42754-7.028386-4.5754-7.00478,1.5395-8.351476,8.56741-9.215104c1.29052-4.937801,3.79347-8.498482,14.85057-2.342777l7.42516-9.839787c10.91348-2.451909,17.73993.786123,20.27608,9.995901c11.84319-3.670964,9.04487,4.188686,12.42272,7.184664c6.04477,3.6964,1.47211,8.683178,1.42802,13.11964c6.72513,17.274126-.0828,16.15745-6.99689,21.39699.76193,6.336326-2.71544,8.499217-9.56686,7.340777-7.98389-2.724946-13.60712-5.362819-17.40222-2.92609-4.00346,2.570673-7.02971,4.104179-9.30007,2.613697Z" fill="#43cc32" stroke="#43cc32" stroke-width="1.18271"/><g transform="matrix(-2.811088 0 0 3.342408 1603.797241-281.363525)"><path d="M366.26,88.642c-.68926-1.0208-1.3886-2.117-2.7007-2.8709-.76316-.43377-1.3843-.0191-2.6292.02894-.31184-.10072-.66929-.18775-.11625-.54793l1.7426-.07748c-.61734-.58621-.38726-.42005-.79888-1.0929-.25824-.42216-.39918-.88466-.32644-1.4167.12197-.63955.26331-.77547.4298-.25731.68962,1.478.4694,1.6867,1.305,2.2242c1.6442,1.0577,2.2117,1.8463,3.2648,2.4799.15356-1.1454.73824-2.7579-.0945-2.8348-1.3569-1.6465-2.7418-3.3425-4.8203-5.0907-.95217-.84718-1.5692-1.5396-.33378-1.5993.0208.70932,2.3802,3.1181,3.3031,3.4579.38196-.90387-.25182-2.5568-.51771-3.79-.19251-.07764-.349-1.5034.70652.17044.23274.36909.39443,1.3511.62352,4.2765.39457,1.0419,1.9471,2.3361,2.7508,1.2512c2.7572-.82621,3.5563-3.1555,5.791-5.0935.99838-.86586,1.0234-.07788.88689.09641-.22915.02864-3.5076,2.9829-2.2068,2.7317.82192-.25381,1.9576-.18612,2.5213-.0859.62308.12263.24092.51202-.23087.52236-3.3002.0723-3.2349.40555-4.2146,1.44-.29414.47433-2.0983.9568-1.9826,2.5437c1.7227-.23793,6.8486-2.2968,5.8628-.6523-1.5723-.07752-2.7334.63649-3.4943.80241.46446.58694,1.0572.78909,1.6523.98404.20863.57954-.11158.45395-.4239.33888-2.3941-1.0817-3.6075-.68714-3.9845.7733-.17538,1.9568-.43803,3.180093.0853,5.151493-.74522.03847-1.82555.0103-2.62615.01329.294-1.2665.51107-2.021904.57586-3.876904Z" fill="url(#elG4jit7x1I144-fill)"/></g><g transform="matrix(1.293941 0 0 1.538508 22.34185-63.895443)"><ellipse rx="0.67365" ry="0.72547" transform="translate(409.18 43.112)" fill="#fa4545"/><ellipse rx="0.67365" ry="0.72547" transform="translate(412.65 36.22)" fill="#fa4545"/><ellipse rx="0.67365" ry="0.72547" transform="translate(406.59 30.157)" fill="#fa4545"/><ellipse rx="0.67365" ry="0.72547" transform="translate(402.44 37.204)" fill="#fa4545"/><ellipse rx="0.67365" ry="0.72547" transform="translate(402.44 37.204)" fill="#fa4545"/><ellipse rx="0.76525" ry="0.72547" transform="translate(437.22 32.299)" fill="#fa4545"/><ellipse rx="0.76525" ry="0.72547" transform="translate(437.99 46.7323)" fill="#fa4545"/><ellipse rx="0.76525" ry="0.72547" transform="translate(444.25 37.612)" fill="#fa4545"/><ellipse rx="0.76525" ry="0.72547" transform="translate(426.388 32.116)" fill="#fa4545"/><ellipse rx="0.76525" ry="0.72547" transform="translate(419.19 26.07)" fill="#fa4545"/></g></g><g transform="matrix(.170468 0.039564-.039564 0.170468 2966.263184 2811.911621)"><g><path d="M-2241.9574,-2580.9235c-3.973-3.974-10.215-4.29-14.554-.954-4.338-3.335-10.579-3.02-14.554.954-3.971,3.973-4.287,10.214-.951,14.553-3.336,4.338-3.02,10.58.951,14.552c3.975,3.974,10.216,4.29,14.554.954c4.339,3.335,10.581,3.02,14.554-.954c3.973-3.973,4.29-10.214.954-14.552c3.336-4.339,3.019-10.58-.954-14.553Z" fill="#fc0" stroke-width="2.5855" stroke-linecap="round" stroke-linejoin="round" stroke-miterlimit="10"/><circle r="7.13694" transform="translate(-2256.51-2566.37)" fill="#ffe680" stroke-width="3.54448" stroke-linecap="round" stroke-linejoin="round" stroke-miterlimit="10"/></g></g></g><g id="elG4jit7x1I160_to" style="offset-path:path('M15.264153,35.138511Q25.169975,49.98658,9.152444,24.989511C14.22018,32.58566,19.025421,45.610057,27.593409,50.796898C33.130165,54.826232,57.076722,61.820002,66.7319,60.896675Q73.392328,67.144662,66.844204,60.626583Q67.955861,44.393305,87.724522,42.502823');offset-rotate:0deg"><g id="elG4jit7x1I160_tr" transform="rotate(23.482518)"><g id="elG4jit7x1I160" transform="scale(4.156431,4.318593) translate(-64.700718,-70.94548)" opacity="0"><g transform="matrix(.004188 0.002221-.002221 0.004188 48.967209 51.162773)"><g transform="matrix(.84661-.532214 0.532214 0.84661-358.281891 2944.501465)"><path d="M4916.4151,2120.351c15.5049,2.6915,30.3746-17.0413,27.9539-30.6689-2.6684-14.9204-16.9197-24.8566-31.838-22.1992-14.9239,2.6601-24.8545,16.9079-22.2026,31.8332.4553,2.5221,1.241,4.9056,2.2931,7.1035" fill="#fff" stroke-width="2.96504" stroke-linecap="round" stroke-linejoin="round" stroke-miterlimit="10"/><path d="M4935.0572,2114.0599c-14.6265,1.5136-14.9177-12.7273-2.5187-14.1209c0,0,5.5534-6.0459,11.8305-10.2576c7.9204,9.5326,22.4503,10.3059,23.9073,25.365Z" fill="#ffde55" stroke-width="2.96504" stroke-linecap="round" stroke-linejoin="round" stroke-miterlimit="10"/><path d="M4911.2616,2091.3074c.7548,2.7278,3.5791,4.331,6.3089,3.5687c2.7325-.7513,4.3261-3.5838,3.5707-6.3109-.7547-2.7243-3.579-4.3241-6.3136-3.5687-2.7278.7617-4.3207,3.5825-3.566,6.3109Z" fill="#283f00" stroke-width="0.689866"/></g><path d="M4831.9836,2150.6049c-.044-.3139,51.3937-50.5313,68.8383-50.5313c17.435,0,31.58,14.1429,31.58,31.5862s-14.145,31.5862-31.58,31.5862c-14.5306,0-52.6506,2.6608-64.9895-6.5241-19.2735,34.5306-36.754,12.0582-36.754,12.0582Z" fill="#fff" stroke-width="2.96504" stroke-linecap="round" stroke-linejoin="round" stroke-miterlimit="10"/><path d="M4865.5141,2147.1591c2.6327-11.6156,38.3674-35.5701,43.9089-28.9697c5.5478,6.6083,14.1208,22.6853.86,36.0782c0,0-49.6181,46.2536-56.2253,34.6831l11.4564-41.7916" fill="#b3b3b3" stroke-width="3.54043" stroke-linecap="round" stroke-linejoin="round" stroke-miterlimit="10"/></g></g></g></g></svg>