<?xml version="1.0" encoding="UTF-8" standalone="no"?>
<!-- Created with Inkscape (http://www.inkscape.org/) -->

<svg
   width="156.42mm"
   height="63.157mm"
   version="1.1"
   viewBox="0 0 156.42 63.157"
   id="svg1535"
   sodipodi:docname="earth-community-night.svg"
   inkscape:version="1.2.2 (b0a8486541, 2022-12-01)"
   xmlns:inkscape="http://www.inkscape.org/namespaces/inkscape"
   xmlns:sodipodi="http://sodipodi.sourceforge.net/DTD/sodipodi-0.dtd"
   xmlns:xlink="http://www.w3.org/1999/xlink"
   xmlns="http://www.w3.org/2000/svg"
   xmlns:svg="http://www.w3.org/2000/svg">
  <sodipodi:namedview
     id="namedview1537"
     pagecolor="#ffffff"
     bordercolor="#000000"
     borderopacity="0.25"
     inkscape:showpageshadow="2"
     inkscape:pageopacity="0.0"
     inkscape:pagecheckerboard="0"
     inkscape:deskcolor="#d1d1d1"
     inkscape:document-units="mm"
     showgrid="false"
     inkscape:zoom="1.6136843"
     inkscape:cx="295.59685"
     inkscape:cy="119.60208"
     inkscape:window-width="1503"
     inkscape:window-height="934"
     inkscape:window-x="0"
     inkscape:window-y="0"
     inkscape:window-maximized="1"
     inkscape:current-layer="svg1535" />
  <defs
     id="defs875">
    <linearGradient
       id="linearGradient50606"
       x1="421.46"
       x2="458.99"
       y1="81.216"
       y2="80.958"
       gradientTransform="matrix(.36219 -.0075634 .0085593 .45242 -122.38 55.957)"
       gradientUnits="userSpaceOnUse"
       xlink:href="#linearGradient15073" />
    <linearGradient
       id="linearGradient15073">
      <stop
         stop-color="#d1a448"
         offset="0"
         id="stop801" />
      <stop
         stop-color="#9b7527"
         stop-opacity=".9918"
         offset="1"
         id="stop803" />
    </linearGradient>
    <linearGradient
       id="linearGradient33560"
       x1="439.64"
       x2="412.56"
       y1="53.484"
       y2="53.871"
       gradientTransform="matrix(.36219 -.0075634 .0085593 .45242 -123.44 56.069)"
       gradientUnits="userSpaceOnUse"
       xlink:href="#linearGradient15111" />
    <linearGradient
       id="linearGradient15111">
      <stop
         stop-color="#96312a"
         offset="0"
         id="stop807" />
      <stop
         stop-color="#65211c"
         stop-opacity=".9959"
         offset="1"
         id="stop809" />
    </linearGradient>
    <linearGradient
       id="linearGradient33562"
       x1="419.65"
       x2="452.28"
       y1="64.964"
       y2="65.351"
       gradientTransform="matrix(.36219 -.0071478 .0085593 .42756 -122.85 57.356)"
       gradientUnits="userSpaceOnUse"
       xlink:href="#linearGradient15103" />
    <linearGradient
       id="linearGradient15103">
      <stop
         stop-color="#c33f37"
         offset="0"
         id="stop813" />
      <stop
         stop-color="#b33a33"
         stop-opacity=".98039"
         offset="1"
         id="stop815" />
    </linearGradient>
    <linearGradient
       id="linearGradient15121"
       x1="367.11"
       x2="367.22"
       y1="87.487"
       y2="90.811"
       gradientUnits="userSpaceOnUse">
      <stop
         stop-color="#916f6f"
         offset="0"
         id="stop818" />
      <stop
         stop-color="#685050"
         stop-opacity=".9918"
         offset="1"
         id="stop820" />
    </linearGradient>
    <mask
       maskUnits="userSpaceOnUse"
       id="mask825">
      <path
         d="m1881.6-3090.4a411.14 386.68 0 0 1-411.14 386.69 411.14 386.68 0 0 1-411.14-386.69 411.14 386.68 0 0 1 411.14-386.68 411.14 386.68 0 0 1 411.14 386.68z"
         fill="#0ff"
         stroke-linecap="round"
         stroke-linejoin="round"
         stroke-miterlimit="10"
         stroke-width="3.4838"
         id="path823" />
    </mask>
    <filter
       id="filter147381"
       x="0"
       y="0"
       width="1"
       height="1"
       color-interpolation-filters="sRGB">
      <feColorMatrix
         values="0.918789 0 0 -0.218724 0.0406056 0 0.918789 0 -0.218724 0.0406056 0 0 0.918789 -0.218724 0.0406056 0 0 0 1 0"
         id="feColorMatrix827" />
    </filter>
    <filter
       id="filter147385"
       x="0"
       y="0"
       width="1"
       height="1"
       color-interpolation-filters="sRGB">
      <feColorMatrix
         values="0.918789 0 0 -0.218724 0.0406056 0 0.918789 0 -0.218724 0.0406056 0 0 0.918789 -0.218724 0.0406056 0 0 0 1 0"
         id="feColorMatrix830" />
    </filter>
    <filter
       id="filter147389"
       x="0"
       y="0"
       width="1"
       height="1"
       color-interpolation-filters="sRGB">
      <feColorMatrix
         values="0.918789 0 0 -0.218724 0.0406056 0 0.918789 0 -0.218724 0.0406056 0 0 0.918789 -0.218724 0.0406056 0 0 0 1 0"
         id="feColorMatrix833" />
    </filter>
    <filter
       id="filter147393"
       x="-0.0087584352"
       y="-0.010825404"
       width="1.0175172"
       height="1.0108254"
       color-interpolation-filters="sRGB">
      <feColorMatrix
         values="0.918789 0 0 -0.218724 0.0406056 0 0.918789 0 -0.218724 0.0406056 0 0 0.918789 -0.218724 0.0406056 0 0 0 1 0"
         id="feColorMatrix836" />
    </filter>
    <filter
       id="filter147397"
       x="0"
       y="0"
       width="1"
       height="1"
       color-interpolation-filters="sRGB">
      <feColorMatrix
         values="0.918789 0 0 -0.218724 0.0406056 0 0.918789 0 -0.218724 0.0406056 0 0 0.918789 -0.218724 0.0406056 0 0 0 1 0"
         id="feColorMatrix839" />
    </filter>
    <filter
       id="filter147401"
       x="0"
       y="-0.00069515421"
       width="1"
       height="1.0006952"
       color-interpolation-filters="sRGB">
      <feColorMatrix
         values="0.918789 0 0 -0.218724 0.0406056 0 0.918789 0 -0.218724 0.0406056 0 0 0.918789 -0.218724 0.0406056 0 0 0 1 0"
         id="feColorMatrix842" />
    </filter>
    <filter
       id="filter147405"
       x="0"
       y="0"
       width="1"
       height="1"
       color-interpolation-filters="sRGB">
      <feColorMatrix
         values="0.918789 0 0 -0.218724 0.0406056 0 0.918789 0 -0.218724 0.0406056 0 0 0.918789 -0.218724 0.0406056 0 0 0 1 0"
         id="feColorMatrix845" />
    </filter>
    <filter
       id="filter147409"
       x="0"
       y="0"
       width="1"
       height="1"
       color-interpolation-filters="sRGB">
      <feColorMatrix
         values="0.918789 0 0 -0.218724 0.0406056 0 0.918789 0 -0.218724 0.0406056 0 0 0.918789 -0.218724 0.0406056 0 0 0 1 0"
         id="feColorMatrix848" />
    </filter>
    <filter
       id="filter147413"
       x="0"
       y="0"
       width="1"
       height="1"
       color-interpolation-filters="sRGB">
      <feColorMatrix
         values="0.918789 0 0 -0.218724 0.0406056 0 0.918789 0 -0.218724 0.0406056 0 0 0.918789 -0.218724 0.0406056 0 0 0 1 0"
         id="feColorMatrix851" />
    </filter>
    <filter
       id="filter147417"
       x="0"
       y="0"
       width="1"
       height="1"
       color-interpolation-filters="sRGB">
      <feColorMatrix
         values="0.918789 0 0 -0.218724 0.0406056 0 0.918789 0 -0.218724 0.0406056 0 0 0.918789 -0.218724 0.0406056 0 0 0 1 0"
         id="feColorMatrix854" />
    </filter>
    <filter
       id="filter147421"
       x="0"
       y="0"
       width="1"
       height="1"
       color-interpolation-filters="sRGB">
      <feColorMatrix
         values="0.918789 0 0 -0.218724 0.0406056 0 0.918789 0 -0.218724 0.0406056 0 0 0.918789 -0.218724 0.0406056 0 0 0 1 0"
         id="feColorMatrix857" />
    </filter>
    <filter
       id="filter147425"
       x="-0.0087601172"
       y="-0.010761518"
       width="1.0175206"
       height="1.0107615"
       color-interpolation-filters="sRGB">
      <feColorMatrix
         values="0.918789 0 0 -0.218724 0.0406056 0 0.918789 0 -0.218724 0.0406056 0 0 0.918789 -0.218724 0.0406056 0 0 0 1 0"
         id="feColorMatrix860" />
    </filter>
    <filter
       id="filter147429"
       x="-0.036215444"
       y="-0.036212244"
       width="1.0724278"
       height="1.072423"
       color-interpolation-filters="sRGB">
      <feColorMatrix
         values="0.918789 0 0 -0.218724 0.0406056 0 0.918789 0 -0.218724 0.0406056 0 0 0.918789 -0.218724 0.0406056 0 0 0 1 0"
         id="feColorMatrix863" />
    </filter>
    <filter
       id="filter147433"
       x="-0.036215444"
       y="-0.036212244"
       width="1.0724278"
       height="1.072423"
       color-interpolation-filters="sRGB">
      <feColorMatrix
         values="0.918789 0 0 -0.218724 0.0406056 0 0.918789 0 -0.218724 0.0406056 0 0 0.918789 -0.218724 0.0406056 0 0 0 1 0"
         id="feColorMatrix866" />
    </filter>
    <filter
       id="filter147437"
       x="-0.0085310901"
       y="-0.0079194364"
       width="1.0170472"
       height="1.0079194"
       color-interpolation-filters="sRGB">
      <feColorMatrix
         values="0.918789 0 0 -0.218724 0.0406056 0 0.918789 0 -0.218724 0.0406056 0 0 0.918789 -0.218724 0.0406056 0 0 0 1 0"
         id="feColorMatrix869" />
    </filter>
    <filter
       id="filter147441"
       x="-0.036215444"
       y="-0.036212244"
       width="1.0724278"
       height="1.072423"
       color-interpolation-filters="sRGB">
      <feColorMatrix
         values="0.918789 0 0 -0.218724 0.0406056 0 0.918789 0 -0.218724 0.0406056 0 0 0.918789 -0.218724 0.0406056 0 0 0 1 0"
         id="feColorMatrix872" />
    </filter>
  </defs>
  <path
     d="m 146.73783,25.283056 c -0.2134,8.3429 -8.2278,13.302 -15.011,16.447 -15.817,6.8148 -33.166997,9.331 -50.264997,10.154 -17.152,0.14507 -34.366,-2.6911 -50.622,-8.1477 -8.2097,-3.137 -17.551,-6.8719 -21.6070003,-15.268 -2.7321,-5.9303 1.1375003,-12.532 6.4768003,-15.382 11.645,-6.6759996 25.354,-8.1435996 38.463,-9.5816996 23.378,-1.9145 47.280997,-1.8592 70.159997,3.8577 7.9344,2.3211 16.986,5.1896996 21.246,12.8669996 0.76623,1.5669 1.1638,3.3094 1.1581,5.0534 z"
     stroke-linecap="round"
     stroke-linejoin="round"
     stroke-miterlimit="10"
     stroke-width="0.31689"
     style="mix-blend-mode:difference;fill:#1a1a1a;fill-opacity:1"
     id="path911" />
  <g
     transform="translate(-24.288 -47.076)"
     opacity=".81761"
     style="mix-blend-mode:difference"
     id="g877" />
  <g
     transform="translate(35.573 -21.791)"
     id="g909"
     style="opacity:0.72419915">
    <path
       d="m5.4386 67.223c-2.3897 1.5662-5.146 3.801-3.37-0.89097 0.27493-0.72635-29.842-1.3879-30.068-2.4852 0.64786-0.92 0.92298-7.0676 7.3717-7.1974 0.56944-0.57961 27.994 5.5487 27.893 6.5665-0.026907 0.27185 0.49258-0.29028-0.22498-1.2985-0.75164-1.0561-14.539-2.3145-11.242-2.976 8.7878-0.362 8.6757-0.35409 10.551-2.9276-0.52215-2.6478 9.9673 0.19517 9.2201 2.3844 0.89609-1.3425 1.3224-4.1481 3.5778-3.3634 2.8118 0.4306-0.25368 1.6879 0.50966 1.7831 4.2998 0.53633 33.686 14.253 49.914 0.17166 3.6715-3.1858 6.9002 0.3583 7.0548 0.80848 10.522-1.8003 28.606-5.9304 34.946 1.8987l-0.93152 3.7677"
       fill="#469946"
       filter="url(#filter147381)"
       id="path879" />
    <path
       d="m13.781 67.223c-1.5045 1.5662-3.2398 3.801-2.1216-0.89097 0.17309-0.72635-0.9171-1.2467-1.0589-2.344 0.40788-0.92 0.06293-2.1518 2.3789-2.2816 0.3585-0.57961 2.0157 0.49174 1.9522 1.5096-0.01694 0.27185 0.31012-0.29028-0.14164-1.2985-0.47321-1.0561-0.06342-1.9755 2.0119-2.637 5.5326-0.362 2.3093 0.87738 3.4901-1.6961-1.1328-0.72167-1.021-1.4718-0.25811-2.2368 1.2629-1.0504 1.8434-0.72734 2.3784-0.31263 1.7702 0.4306-0.15971 1.6879 0.32087 1.7831 4.1466 0.82154 1.707 2.2241 2.9515 0.74253l2.2757 5.3588"
       fill="#008000"
       filter="url(#filter147385)"
       id="path881" />
    <path
       d="m61.558 56.916c0.65557-0.09885 1.2509 1.3802 1.9673-0.31281-0.19082-1.1811 1.0209-1.3774 2.4324-1.4335 2.9615 0.89405 2.1445 1.7539 1.2433 2.613 0.12252 0.41875-0.3725 1.3325 0.50001 1.1501 1.3796-1.7871 1.3786-0.03481 1.9814 0.1694 1.7249 1.4707 0.25722 1.4374 0.29889 2.1152-1.1826 2.2136 1.6429 0.87307 2.5707 1.2152 2.714 0.73916 1.1599 1.8285 1.0952 2.7956l-0.9997 2.8043-12.047-3.563"
       fill="#008000"
       filter="url(#filter147389)"
       id="path883" />
    <g
       transform="matrix(.10901 0 0 .10901 -252.95 -161.51)"
       filter="url(#filter147393)"
       id="g907">
      <g
         transform="translate(-352.25 60.347)"
         id="g905">
        <g
           transform="matrix(.13024 0 0 .13024 2156.3 1790.8)"
           id="g903">
          <path
             d="m4964.9 2184.7c0 12.865-10.43 23.293-23.294 23.293h-166.32c-12.864 0-23.293-10.429-23.293-23.293 0-12.865 10.429-23.293 23.293-23.293h166.32c12.864-1e-3 23.294 10.428 23.294 23.293z"
             fill="#38200e"
             opacity=".2"
             id="path885" />
          <g
             stroke="#283f00"
             stroke-linecap="round"
             stroke-linejoin="round"
             stroke-miterlimit="10"
             stroke-width="4.298"
             id="g899">
            <path
               d="m4863.5 2174.7v-31.525c0-1.928 1.562-3.493 3.501-3.493 1.928 0 3.486 1.565 3.486 3.493v30.983c41.307 0.472 40.213 9.235 40.213 9.235h-53.613c-0.541-5.616 3.346-7.826 6.413-8.693z"
               fill="#ffde55"
               id="path887" />
            <path
               d="m4847.2 2180.7v-31.53c0-1.928 1.559-3.494 3.486-3.494 1.939 0 3.5 1.566 3.5 3.494v30.983c41.308 0.472 40.213 9.235 40.213 9.235h-53.624c-0.532-5.617 3.358-7.821 6.425-8.688z"
               fill="#ffde55"
               id="path889" />
            <path
               d="m4792.5 2130.8c-0.064-0.455 74.498-73.248 99.785-73.248 25.273 0 45.777 20.501 45.777 45.786s-20.504 45.786-45.777 45.786c-21.063 0-76.32 3.857-94.206-9.457-27.938 50.054-53.277 17.479-53.277 17.479z"
               fill="#fff"
               id="path891" />
            <path
               d="m4928.7 2087.2c18.546-6.072 30.256-25.019 26.747-44.773-3.868-21.628-24.526-36.031-46.151-32.179-21.633 3.856-36.028 24.509-32.184 46.144 0.66 3.656 1.799 7.111 3.324 10.297"
               fill="#fff"
               id="path893" />
            <path
               d="m4942 2077.8c-21.202 2.194-21.624-18.449-3.651-20.469 0 0 8.05-8.764 17.149-14.869 11.481 13.818 32.543 14.939 34.655 36.768z"
               fill="#ffde55"
               id="path895" />
            <path
               d="m4919.7 2099.5s6.986 36.644-23.314 39.557c0 0-82.766 4.653-81.596-11.077l31.234-13.405"
               fill="#fff"
               id="path897" />
          </g>
          <path
             d="m4907.5 2044.8c1.094 3.954 5.188 6.278 9.145 5.173 3.961-1.089 6.271-5.195 5.176-9.148-1.094-3.949-5.188-6.268-9.152-5.173-3.954 1.104-6.263 5.193-5.169 9.148z"
             fill="#283f00"
             id="path901" />
        </g>
      </g>
    </g>
  </g>
  <g
     transform="translate(-24.288 -47.076)"
     id="g1307">
    <g
       fill="#fbc02d"
       id="g933">
      <g
         id="g929">
        <path
           d="m 77.651976,64.090638 c -0.542761,-0.02542 -1.034454,-0.181401 -1.470875,-0.466646 -0.44097,-0.288207 -0.779486,-0.668636 -1.01506,-1.140739 -0.159423,-0.3195 -0.251443,-0.642764 -0.291184,-1.022878 -0.01024,-0.09691 -0.01002,-0.435166 0,-0.526788 0.01326,-0.118651 0.02508,-0.201915 0.04021,-0.281171 0.15798,-0.827066 0.669358,-1.54499 1.402097,-1.968107 0.06857,-0.03961 0.298332,-0.15386 0.309419,-0.15386 0.0035,0 -0.0184,0.05131 -0.0488,0.113954 -0.150319,0.309809 -0.23589,0.617244 -0.27058,0.972214 -0.01141,0.116953 -0.0098,0.404882 0.0032,0.523834 0.06237,0.576759 0.273655,1.076922 0.643771,1.524169 0.06612,0.07991 0.258817,0.271669 0.34262,0.340943 0.182777,0.151154 0.343778,0.25663 0.544558,0.356752 0.312929,0.156048 0.613824,0.243498 0.973643,0.283013 0.09497,0.01047 0.468609,0.01047 0.553427,2.07e-4 0.240265,-0.02929 0.411444,-0.06608 0.602136,-0.129107 0.120658,-0.03986 0.205086,-0.07462 0.336983,-0.138556 0.1129,-0.05475 0.119027,-0.05705 0.113742,-0.04182 -0.0149,0.04287 -0.128107,0.263153 -0.176793,0.344131 -0.292882,0.487205 -0.709407,0.870137 -1.216434,1.11834 -0.325624,0.159423 -0.67038,0.254073 -1.032874,0.283569 -0.08461,0.0069 -0.277541,0.01165 -0.34329,0.0088 z"
           opacity="0.79214"
           stroke-width="0.00739109"
           id="path913" />
        <path
           d="m125.15 60.837c-0.0266-0.25973-0.12165-0.51859-0.25421-0.6909-0.16942-0.22041-0.45881-0.3679-0.80925-0.41247l-0.15634-0.01984 0.14171-0.01951c0.19252-0.02657 0.33069-0.06659 0.48112-0.13897 0.10142-0.04884 0.15252-0.08672 0.25759-0.19095 0.11147-0.11059 0.14137-0.15139 0.19974-0.27288 0.32874-0.82093-0.0206-0.67922 0.31428 0.01412 0.0497 0.10067 0.0899 0.15479 0.18435 0.24893 0.0664 0.06625 0.15959 0.14312 0.20705 0.17093 0.12486 0.07322 0.3154 0.13437 0.5095 0.16353l0.16943 0.02557-0.14823 0.0185c-0.35428 0.04449-0.64751 0.19478-0.81511 0.41771-0.13349 0.17759-0.20356 0.35821-0.24496 0.63129l-0.0252 0.16673z"
           opacity=".90921"
           stroke-width=".01504"
           id="path915" />
        <path
           d="m 68.800001,70.260378 c -0.01642,-0.160155 -0.07512,-0.319733 -0.156696,-0.425953 -0.104471,-0.135894 -0.282881,-0.226825 -0.49894,-0.254317 l -0.09636,-0.01227 0.08738,-0.01202 c 0.118681,-0.01636 0.203864,-0.04099 0.296589,-0.08575 0.0625,-0.03015 0.09406,-0.05345 0.158825,-0.117708 0.06873,-0.06812 0.08718,-0.09336 0.123136,-0.168237 0.202663,-0.506095 -0.01254,-0.418745 0.19373,0.0087 0.03079,0.06207 0.05535,0.09549 0.113671,0.153487 0.04098,0.04079 0.0984,0.08825 0.127683,0.105384 0.07692,0.04514 0.194422,0.08283 0.314107,0.10083 l 0.104433,0.01585 -0.09131,0.01151 c -0.218447,0.02744 -0.399221,0.120065 -0.502529,0.257518 -0.08234,0.109497 -0.125532,0.220834 -0.151055,0.389208 l -0.01566,0.102776 z"
           opacity="0.90921"
           stroke-width="0.012196"
           id="path917" />
        <path
           d="m41.921 70.818c-0.0208-0.20446-0.0958-0.40819-0.20006-0.54381-0.13337-0.17353-0.36114-0.2896-0.63698-0.32468l-0.12307-0.01547 0.11149-0.01548c0.15153-0.02085 0.26028-0.0524 0.3787-0.10948 0.0798-0.03838 0.11998-0.06825 0.20275-0.15028 0.0877-0.08695 0.11123-0.1191 0.15722-0.21479 0.25871-0.64615-0.0162-0.53459 0.24735 0.01144 0.0391 0.07916 0.0708 0.12176 0.14509 0.19592 0.0523 0.05213 0.1256 0.11264 0.16301 0.13457 0.0983 0.05758 0.24825 0.10576 0.40101 0.12869l0.13337 0.02018-0.11672 0.01446c-0.27886 0.03497-0.50966 0.15327-0.64158 0.32878-0.10514 0.13978-0.16023 0.28192-0.19282 0.49692l-0.0198 0.13121z"
           opacity=".90921"
           stroke-width=".011838"
           id="path919" />
        <path
           d="m 81.889904,71.200359 c 0.01837,-0.178256 0.08353,-0.355846 0.174421,-0.474094 0.116256,-0.151243 0.314822,-0.25244 0.555307,-0.283054 l 0.107268,-0.01367 -0.09724,-0.01339 c -0.132104,-0.01831 -0.226905,-0.04565 -0.330117,-0.09535 -0.06957,-0.03348 -0.104667,-0.0595 -0.176778,-0.131006 -0.07648,-0.07583 -0.09701,-0.103871 -0.137053,-0.187246 -0.225572,-0.563295 0.01398,-0.466064 -0.215624,0.0093 -0.03414,0.06914 -0.06169,0.106228 -0.126497,0.170812 -0.04559,0.04546 -0.109535,0.09816 -0.142124,0.117297 -0.08567,0.05021 -0.21638,0.09218 -0.349581,0.112209 l -0.116257,0.01749 0.101717,0.01285 c 0.243118,0.03059 0.444294,0.13364 0.559298,0.286638 0.09163,0.121831 0.139702,0.245759 0.168115,0.433183 l 0.01723,0.114395 z"
           opacity="0.90921"
           stroke-width="0.00955876"
           id="path921" />
        <path
           d="m 64.620571,58.743288 c 0.01927,-0.188792 0.08847,-0.376927 0.18475,-0.502155 0.123148,-0.160193 0.333467,-0.267398 0.588181,-0.299794 l 0.113613,-0.01455 -0.102975,-0.01432 c -0.139929,-0.01949 -0.240341,-0.04837 -0.349682,-0.101027 -0.07368,-0.0355 -0.110842,-0.06299 -0.187221,-0.138777 -0.08103,-0.08029 -0.102766,-0.110018 -0.145171,-0.19832 -0.238932,-0.596656 0.0148,-0.49366 -0.22842,0.01032 -0.03616,0.07311 -0.06527,0.11251 -0.133988,0.180946 -0.0483,0.04809 -0.116007,0.104014 -0.150525,0.12423 -0.09074,0.05325 -0.229215,0.09767 -0.370303,0.118869 l -0.12312,0.01855 0.107721,0.01361 c 0.257514,0.03231 0.470625,0.141555 0.592433,0.303605 0.09703,0.129088 0.147984,0.260355 0.178063,0.458835 l 0.01829,0.121152 z"
           opacity="0.90921"
           stroke-width="0.01566"
           id="path923" />
        <path
           d="m 140.54276,58.929787 c 0.0223,-0.218225 0.10227,-0.435668 0.21354,-0.580418 0.14233,-0.185141 0.38543,-0.309054 0.67983,-0.346513 l 0.13133,-0.01665 -0.11905,-0.01643 c -0.16171,-0.02238 -0.27778,-0.05592 -0.40416,-0.116785 -0.0852,-0.04099 -0.12811,-0.07284 -0.21639,-0.160388 -0.0936,-0.09284 -0.11876,-0.127182 -0.16778,-0.229233 -0.27617,-0.689604 0.0171,-0.570589 -0.26401,0.01192 -0.0418,0.08455 -0.0755,0.130053 -0.15485,0.209141 -0.0558,0.0556 -0.13409,0.120188 -0.17397,0.143578 -0.10491,0.06151 -0.26494,0.112881 -0.42799,0.137389 l -0.14233,0.02135 0.12451,0.01561 c 0.29764,0.03742 0.54394,0.163613 0.68478,0.350892 0.11214,0.149185 0.17102,0.300923 0.20578,0.530339 l 0.0212,0.140047 z"
           opacity="0.90921"
           stroke-width="0.020683"
           id="path925" />
        <path
           d="m 133.21591,70.536288 c 0.0188,-0.184066 0.0862,-0.367484 0.18009,-0.489584 0.12009,-0.156183 0.32514,-0.260704 0.57349,-0.292289 l 0.11076,-0.01419 -0.10042,-0.01396 c -0.13642,-0.01899 -0.23433,-0.04716 -0.34091,-0.0985 -0.0719,-0.03461 -0.10809,-0.06141 -0.18255,-0.13531 -0.079,-0.07828 -0.10017,-0.107263 -0.14153,-0.193355 -0.23294,-0.581718 0.0144,-0.481294 -0.22269,0.01007 -0.0352,0.07128 -0.0637,0.109693 -0.13063,0.176416 -0.0471,0.04688 -0.11311,0.101404 -0.14675,0.121113 -0.0885,0.05191 -0.22349,0.09522 -0.36103,0.115893 l -0.12007,0.01809 0.10505,0.01327 c 0.25104,0.03149 0.45884,0.138005 0.5776,0.295991 0.0946,0.125857 0.14426,0.253844 0.1736,0.447355 l 0.0178,0.118119 z"
           opacity="0.90921"
           stroke-width="0.01566"
           id="path927" />
      </g>
      <path
         d="m163.19 68.468c-0.0208-0.20447-0.0959-0.4082-0.20006-0.5438-0.13336-0.1735-0.36114-0.2896-0.63698-0.32468l-0.12307-0.01581 0.1115-0.01547c0.15152-0.02086 0.26028-0.05238 0.37866-0.10945 0.0798-0.03841 0.12001-0.06828 0.20275-0.15031 0.0877-0.08695 0.11126-0.11911 0.15721-0.21476 0.25875-0.64617-0.0162-0.53463 0.24735 0.01143 0.0392 0.07918 0.0708 0.12176 0.1451 0.19592 0.0523 0.05214 0.12563 0.11264 0.16303 0.13458 0.0983 0.05758 0.24823 0.10574 0.40103 0.12868l0.13336 0.02018-0.11671 0.01446c-0.27888 0.03498-0.50967 0.15332-0.64159 0.32878-0.10514 0.13979-0.16023 0.28196-0.19283 0.49692l-0.0198 0.13121z"
         fill-opacity=".67168"
         opacity=".90921"
         stroke-width=".011838"
         id="path931" />
    </g>
    <path
       d="m49.995 98.132c2.9869 6.4101 8.1284 4.5021 11.034 5.4279l4.9769-1.0765c8.5707 6.5975 48.72 11.885 75.684-0.26456l7.0053 0.64724c4.3182 0.15322 6.3261-1.9225 6.9161-4.0256l-24.797-3.8865-57.105 1.2775z"
       fill="#b0c767"
       filter="url(#filter147397)"
       stroke-width="5.413"
       id="path935" />
    <g
       transform="matrix(.10901 0 0 .10901 -76.174 -159.14)"
       filter="url(#filter147401)"
       id="g1107">
      <g
         transform="translate(-56.498 23.317)"
         id="g1093">
        <g
           id="g949">
          <g
             transform="matrix(6.3401 -.14113 .088212 4.9703 1822.7 1661.8)"
             fill="#31c23c"
             id="g943">
            <path
               d="m9.0677 127.45c-2.6365-6.3204 27.682-17.354 34.41-18.729 10.078-0.65272 42.433 9.9018 47.216 18.775 0.2996 0.55578 0.16868 0.31312 0.38521 0.78324 0.28639 0.6218 0.38004 1.2773-0.0052 1.5815-14.96 12.445-66.933 11.824-82.006-2.4102z"
               id="path937" />
            <path
               d="m22.343 116.72c-0.74942-2.4622-0.7975-1.1977-0.65354-0.20845-0.7557-1.7773 0.29837 1.8116-0.7571-0.37545 0.71825 2.4474-1.2421-2.1879-0.34002 0.5543-1.0214-1.8543-1.1365-2.1132-0.37738 0.0416-0.43726-0.58316-1.0452-1.6686-0.40279 0.50576-0.63577-0.44832-0.46501-0.9918-0.49418 0.0412-0.87665-0.48991 0.49959 1.2221-0.83125-0.24842 0.06938 0.76185-0.38668 0.0963 0.23554 1.6906-0.80283-1.24-1.1162-2.6669-0.70438-0.40216-1.3306-2.2868 0.07114 1.4603-1.1812-1.0193-0.05934 0.32361 0.1264 1.542 0.19188 2.2298"
               stroke-opacity="0"
               id="path939" />
            <path
               d="m80.205 119.5c0.78266-2.441 0.81359-1.1754 0.65624-0.19034 0.77965-1.7561-0.32288 1.803 0.76204-0.35445-0.75132 2.4271 1.2715-2.1531 0.33244 0.5636 1.0464-1.8257 1.165-2.0814 0.37675 0.0521 0.44508-0.57094 1.0677-1.6394 0.39586 0.51681 0.64173-0.43065 0.47837-0.97874 0.49353 0.0549 0.88314-0.46552-0.51607 1.2081 0.83446-0.22535-0.0797 0.75977 0.3853 0.10695-0.25842 1.6837 0.81951-1.2176 1.1522-2.6355 0.7097-0.38257 1.3613-2.2495-0.09093 1.4581 1.1948-0.9864 0.05491 0.32522-0.14729 1.5382-0.22208 2.224"
               stroke-opacity="0"
               id="path941" />
          </g>
          <path
             transform="matrix(9.1738 0 0 9.1738 1642 1444.7)"
             d="m52.289 88.401c-1.9559 2.0144-1.4635 3.4337-0.28694 4.9762 1.5746 2.0643-2.5591 3.794-3.6254 4.6924-0.20546 0.1735 0.21165 0.25759 0.37183 0.2832 3.6085 0.57676 5.2318 0.57048 9.3235-0.07568 2.3117-1.2399 2.0671-4.3372 0.10415-5.4633-2.6328-1.3571-1.8252-2.2977-1.8132-4.5837"
             fill="#b0c767"
             id="path945" />
          <path
             transform="matrix(9.1738 0 0 9.1738 1642 1444.7)"
             d="m41.537 84.883c-11.272 4.3752 1.4261 7.4758 14.212 6.8867 12.409-0.57169 24.277-3.5878 14.409-6.3004l-16.452-1.2015z"
             opacity=".2"
             id="path947" />
        </g>
        <g
           transform="matrix(7.2183 0 0 7.2183 1918.7 1565)"
           id="g1091">
          <g
             id="g959">
            <path
               d="m13.371 93.457c-1.524-3.4624-1.3981-6.2868-0.81767-9.5353 0.12664-1.7274 2.9456-4.307 2.9456-4.307l5.6019-1.4437 8.5354-0.77527 12.74-0.26604 6.7757 1.6496 1.649 2.9507c0.21782 1.085 0.6517 2.2002 0.76971 3.2317 0.32795 2.867 0.38797 5.8858-0.39467 8.1703-2.7312 2.2785-13.245 3.2692-16.842 3.2946l-7.2782 0.27329c-4.7611-0.07077-9.3197-1.0078-13.685-3.2428z"
               fill="url(#linearGradient50606)"
               id="path951" />
            <path
               d="m49.95 91.679c2.3175-2.4968 2.5339-1.6274 2.5811-0.3891 0.0466 1.225 0.33907 0.86951 0.11154 1.4677-0.36897 0.55315-0.7498 0.79732-2.0245 1.1701-0.42748-0.7244-1.3213 0.59513-0.66813-2.2487z"
               fill="#43cc32"
               id="path953" />
            <path
               d="m27.188 96.752c-0.21241-4.913-0.59134-8.7796 3.4735-9.6391 4.4574 0 3.4789 5.6776 3.7577 9.4217"
               fill="#6c5353"
               id="path955" />
            <path
               d="m21.017 79.366c11.213-2.4232 10.094-2.5989 11.213-2.4232l1.1185 0.17566s6.1365-1.2559 9.4592 0.33315l3.3226 1.589-6.3263 2.4539-11.626 0.24278z"
               fill="#906821"
               stroke="#000"
               stroke-width=".083078px"
               id="path957" />
          </g>
          <g
             fill="#74541a"
             id="g967">
            <path
               d="m36.185 78.041 0.11682 2.6808 0.59384-0.05367-0.16155-3.299-0.58994 0.26z"
               id="path961" />
            <path
               d="m29.906 78.172 0.11682 2.6808 0.59382-0.05366-0.16154-3.299-0.58995 0.26001z"
               id="path963" />
            <path
               d="m26.075 78.293 0.11683 2.6808 0.59381-0.05366-0.16155-3.299-0.58994 0.26z"
               id="path965" />
          </g>
          <g
             id="g987">
            <path
               d="m39.324 77.975 0.11682 2.6808 0.59384-0.05367-0.16157-3.299-0.58992 0.26z"
               fill="#6f5019"
               id="path969" />
            <path
               d="m21.712 79.309c10.145-2.9778 15.871-1.1007 22.097 0.26826l2.8314-1.9165-3.43-1.6531c-3.9462-0.3755-5.6547-1.2747-11.838-1.1265-4.7249 0.48679-5.5175 0.69683-6.2664 0.90379l-7.0336 2.0081z"
               fill="url(#linearGradient33560)"
               id="path971" />
            <ellipse
               transform="matrix(.99978 -.020878 .018915 .99982 0 0)"
               cx="18.944"
               cy="89.617"
               rx="2.7227"
               ry="3.1272"
               fill="#836652"
               id="ellipse973" />
            <ellipse
               transform="matrix(.99978 -.020878 .018915 .99982 0 0)"
               cx="19.224"
               cy="89.617"
               rx="2.1783"
               ry="2.6529"
               fill="#8fffff"
               id="ellipse975" />
            <ellipse
               transform="matrix(.99983 -.018221 .021673 .99977 0 0)"
               cx="38.908"
               cy="89.736"
               rx="2.8633"
               ry="2.9012"
               fill="#755b49"
               id="ellipse977" />
            <ellipse
               transform="matrix(.99983 -.018426 .021432 .99977 0 0)"
               cx="38.694"
               cy="89.742"
               rx="2.3654"
               ry="2.6198"
               fill="#8fffff"
               id="ellipse979" />
            <ellipse
               transform="matrix(.99978 -.020878 .018915 .99982 0 0)"
               cx="47.807"
               cy="88.076"
               rx="1.3746"
               ry="2.1772"
               fill="#836652"
               id="ellipse981" />
            <ellipse
               transform="matrix(.99978 -.020878 .018915 .99982 0 0)"
               cx="47.6"
               cy="88.078"
               rx="1.1681"
               ry="1.9896"
               fill="#8fffff"
               id="ellipse983" />
            <path
               d="m11.583 82.414c4.2043-5.0355 5.1443-5.0541 5.1563-5.0543 9.3154-2.9691 16.553-1.9032 15.388-2.0745-3.0326-0.54809-15.586 2.6677-12.456 2.9196 1.6395 1.6068 17.56 2.5166 26.181-0.29129-0.56564-1.6898-11.632-2.6726-13.649-2.6771 5.4035-0.55233 11.109-0.38676 15.704 1.8842 2.5877 1.7927 2.6707 3.046 3.968 4.5608-7.2228 2.337-12.785 3.0227-19.473 3.4024-7.4187 0.95978-15.113-1.39-20.82-2.6699z"
               fill="url(#linearGradient33562)"
               id="path985" />
          </g>
          <g
             transform="translate(4.6805 .46368)"
             id="g993">
            <ellipse
               transform="matrix(.99978 -.020878 .018915 .99982 0 0)"
               cx="7.7875"
               cy="86.828"
               rx="1.0638"
               ry="2.4871"
               fill="#836652"
               id="ellipse989" />
            <ellipse
               transform="matrix(.99978 -.020878 .018915 .99982 0 0)"
               cx="7.9752"
               cy="86.828"
               rx=".87609"
               ry="2.4871"
               fill="#8fffff"
               id="ellipse991" />
          </g>
          <path
             d="m28.075 96.733c-0.17613-4.528-0.47512-8.0923 2.6008-8.8703 3.3759 0.01555 2.6525 5.2438 2.8752 8.6949"
             fill="#97623e"
             id="path995" />
          <g
             fill="#ac9393"
             id="g1073">
            <ellipse
               transform="matrix(.99978 -.020878 .018915 .99982 0 0)"
               cx="23.97"
               cy="95.666"
               rx=".31913"
               ry=".42207"
               id="ellipse997" />
            <ellipse
               transform="matrix(.99978 -.020878 .018915 .99982 0 0)"
               cx="22.824"
               cy="95.526"
               rx=".31913"
               ry=".42207"
               id="ellipse999" />
            <ellipse
               transform="matrix(.99978 -.020878 .018915 .99982 0 0)"
               cx="21.698"
               cy="95.338"
               rx=".26281"
               ry=".34759"
               id="ellipse1001" />
            <ellipse
               transform="matrix(.99978 -.020878 .018915 .99982 0 0)"
               cx="20.666"
               cy="95.151"
               rx=".31913"
               ry=".42207"
               id="ellipse1003" />
            <ellipse
               transform="matrix(.99978 -.020878 .018915 .99982 0 0)"
               cx="23.444"
               cy="94.494"
               rx=".31913"
               ry=".42207"
               id="ellipse1005" />
            <ellipse
               transform="matrix(.99978 -.020878 .018915 .99982 0 0)"
               cx="22.224"
               cy="94.33"
               rx=".31913"
               ry=".42207"
               id="ellipse1007" />
            <ellipse
               transform="matrix(.99978 -.020878 .018915 .99982 0 0)"
               cx="18.488"
               cy="94.705"
               rx=".31913"
               ry=".42207"
               id="ellipse1009" />
            <ellipse
               transform="matrix(.99978 -.020878 .018915 .99982 0 0)"
               cx="17.418"
               cy="94.4"
               rx=".31913"
               ry=".42207"
               id="ellipse1011" />
            <ellipse
               transform="matrix(.99978 -.020878 .018915 .99982 0 0)"
               cx="33.469"
               cy="94.353"
               rx=".31913"
               ry=".42207"
               id="ellipse1013" />
            <ellipse
               transform="matrix(.99978 -.020878 .018915 .99982 0 0)"
               cx="34.482"
               cy="94.306"
               rx=".26594"
               ry=".35172"
               id="ellipse1015" />
            <ellipse
               transform="matrix(.99978 -.020878 .018915 .99982 0 0)"
               cx="35.477"
               cy="94.166"
               rx=".31913"
               ry=".42207"
               id="ellipse1017" />
            <ellipse
               transform="matrix(.99978 -.020878 .018915 .99982 0 0)"
               cx="35.064"
               cy="95.455"
               rx=".31913"
               ry=".42207"
               id="ellipse1019" />
            <ellipse
               transform="matrix(.99978 -.020878 .018915 .99982 0 0)"
               cx="42.427"
               cy="87.4"
               rx=".31913"
               ry=".42207"
               id="ellipse1021" />
            <ellipse
               transform="matrix(.99978 -.020878 .018915 .99982 0 0)"
               cx="43.468"
               cy="87.214"
               rx=".31913"
               ry=".42207"
               id="ellipse1023" />
            <ellipse
               transform="matrix(.99978 -.020878 .018915 .99982 0 0)"
               cx="44.36"
               cy="87.028"
               rx=".31913"
               ry=".42207"
               id="ellipse1025" />
            <ellipse
               transform="matrix(.99978 -.020878 .018915 .99982 0 0)"
               cx="45.698"
               cy="86.843"
               rx=".31913"
               ry=".42207"
               id="ellipse1027" />
            <ellipse
               transform="matrix(.99978 -.020878 .018915 .99982 0 0)"
               cx="44.063"
               cy="88.328"
               rx=".31913"
               ry=".42207"
               id="ellipse1029" />
            <ellipse
               transform="matrix(.99978 -.020878 .018915 .99982 0 0)"
               cx="43.617"
               cy="92.042"
               rx=".31913"
               ry=".42207"
               id="ellipse1031" />
            <ellipse
               transform="matrix(.99978 -.020878 .018915 .99982 0 0)"
               cx="44.509"
               cy="91.857"
               rx=".31913"
               ry=".42207"
               id="ellipse1033" />
            <ellipse
               transform="matrix(.99978 -.020878 .018915 .99982 0 0)"
               cx="45.401"
               cy="91.485"
               rx=".31913"
               ry=".42207"
               id="ellipse1035" />
            <ellipse
               transform="matrix(.99978 -.020878 .018915 .99982 0 0)"
               cx="44.063"
               cy="93.342"
               rx=".31913"
               ry=".42207"
               id="ellipse1037" />
            <ellipse
               transform="matrix(.99978 -.020878 .018915 .99982 0 0)"
               cx="42.576"
               cy="92.228"
               rx=".31913"
               ry=".42207"
               id="ellipse1039" />
            <ellipse
               transform="matrix(.99978 -.020878 .018915 .99982 0 0)"
               cx="43.022"
               cy="90.928"
               rx=".31913"
               ry=".42207"
               id="ellipse1041" />
            <ellipse
               transform="matrix(.99978 -.020878 .018915 .99982 0 0)"
               cx="33.722"
               cy="90.29"
               rx=".24821"
               ry=".32828"
               id="ellipse1043" />
            <ellipse
               transform="matrix(.99978 -.020878 .018915 .99982 0 0)"
               cx="34.763"
               cy="90.104"
               rx=".31913"
               ry=".42207"
               id="ellipse1045" />
            <ellipse
               transform="matrix(.99978 -.020878 .018915 .99982 0 0)"
               cx="34.168"
               cy="88.99"
               rx=".31913"
               ry=".42207"
               id="ellipse1047" />
            <ellipse
               transform="matrix(.99978 -.020878 .018915 .99982 0 0)"
               cx="39.725"
               cy="94.735"
               rx=".31913"
               ry=".42207"
               id="ellipse1049" />
            <ellipse
               transform="matrix(.99978 -.020878 .018915 .99982 0 0)"
               cx="47.158"
               cy="92.789"
               rx=".31913"
               ry=".42207"
               id="ellipse1051" />
            <ellipse
               transform="matrix(.99978 -.020878 .018915 .99982 0 0)"
               cx="24.439"
               cy="89.171"
               rx=".31913"
               ry=".42207"
               id="ellipse1053" />
            <ellipse
               transform="matrix(.99978 -.020878 .018915 .99982 0 0)"
               cx="23.463"
               cy="89.007"
               rx=".28159"
               ry=".37241"
               id="ellipse1055" />
            <ellipse
               transform="matrix(.99978 -.020878 .018915 .99982 0 0)"
               cx="22.505"
               cy="88.773"
               rx=".31913"
               ry=".42207"
               id="ellipse1057" />
            <ellipse
               transform="matrix(.99978 -.020878 .018915 .99982 0 0)"
               cx="23.988"
               cy="88.046"
               rx=".31913"
               ry=".42207"
               id="ellipse1059" />
            <ellipse
               transform="matrix(.99978 -.020878 .018915 .99982 0 0)"
               cx="15.635"
               cy="87.202"
               rx=".31913"
               ry=".42207"
               id="ellipse1061" />
            <ellipse
               transform="matrix(.99978 -.020878 .018915 .99982 0 0)"
               cx="14.743"
               cy="86.83"
               rx=".31913"
               ry=".42207"
               id="ellipse1063" />
            <ellipse
               transform="matrix(.99978 -.020878 .018915 .99982 0 0)"
               cx="14.891"
               cy="90.73"
               rx=".31913"
               ry=".42207"
               id="ellipse1065" />
            <ellipse
               transform="matrix(.99978 -.020878 .018915 .99982 0 0)"
               cx="14.148"
               cy="91.844"
               rx=".26281"
               ry=".34759"
               id="ellipse1067" />
            <ellipse
               transform="matrix(.84468 .53528 -.37309 .92779 0 0)"
               cx="44.773"
               cy="64.811"
               rx=".25942"
               ry=".31124"
               id="ellipse1069" />
            <ellipse
               transform="matrix(.99978 -.020878 .018915 .99982 0 0)"
               cx="48.627"
               cy="84.85"
               rx=".24821"
               ry=".32828"
               id="ellipse1071" />
          </g>
          <ellipse
             transform="matrix(.99978 -.020878 .018915 .99982 0 0)"
             cx="27.384"
             cy="93.501"
             rx=".41302"
             ry=".51589"
             fill="#6c5353"
             id="ellipse1075" />
          <g
             fill="#fff"
             fill-opacity=".9918"
             id="g1085">
            <ellipse
               transform="matrix(.99978 -.020878 .018915 .99982 0 0)"
               cx="18.375"
               cy="88.929"
               rx=".63082"
               ry=".76825"
               id="ellipse1077" />
            <ellipse
               transform="matrix(.99978 -.020878 .018915 .99982 0 0)"
               cx="37.954"
               cy="89.192"
               rx=".63082"
               ry=".76825"
               id="ellipse1079" />
            <ellipse
               transform="matrix(.99999 -.0037542 .0079401 .99997 0 0)"
               cx="13.341"
               cy="87.191"
               rx=".33878"
               ry=".76824"
               id="ellipse1081" />
            <ellipse
               transform="matrix(.99816 -.060674 .044444 .99901 0 0)"
               cx="46.016"
               cy="89.357"
               rx=".25709"
               ry=".76807"
               id="ellipse1083" />
          </g>
          <path
             d="m36.823 96.756s-0.81782-1.0798-0.49843-1.5639c0.31945-0.48412 0.38394-0.55362 0.38394-0.55362s-0.94526-0.8725 0.30068-1.3043l1.2459-0.43178c3.3504 2.1277 1.2422-0.08851 2.1126-0.10491 1.2249-0.07802 0.59735 0.46522 1.466 0.52162 1.0587 0.05006 0.96058-0.5028 1.113 0.38341 0.28088 0.74304 0.10734 1.3449-0.51576 2.6146-1.6737 0.45969-3.423 0.79838-5.608 0.43884z"
             fill="#43cc32"
             id="path1087" />
          <path
             d="m18.169 95.685s-0.40142-1.2124-0.05672-1.5721c2.5848 0.60868-1.561-1.3754 1.9512-1.5889 0.39421 2.1918-0.47664 0.7989 1.5392 1.8282 1.5868 0.41096 1.7001 1.4044 0.94597 2.4317-1.3753-0.0256-2.7832-0.18276-4.3796-1.0989z"
             fill="#43cc32"
             id="path1089" />
        </g>
      </g>
      <g
         transform="matrix(2.4272 0 0 2.4272 -5234.5 -3072.8)"
         id="g1103">
        <g
           transform="translate(-352.25 60.347)"
           id="g1101">
          <g
             transform="matrix(.45476 0 0 .45476 1907.3 1127.6)"
             stroke="#283f00"
             stroke-linecap="round"
             stroke-linejoin="round"
             stroke-miterlimit="10"
             id="g1099">
            <path
               d="m3221.8 2045.5c-0.9497 27.558 1.3953 47.908-8.08 86.859 6.0949-0.5045 7.1257 2.7217 16.428-1.5828 0-0.2149 3.8392-29.724 1.9134-86.549z"
               fill="#c1a778"
               stroke-width=".61761"
               id="path1095" />
            <path
               d="m3235.9 2049.4 4.6006 3.4422-0.2956 5.3781 3.5241-0.9006 1.3881 7.7103 15.934 11.378c4.1419-18.149-2.2928-33.317-11.741-42.512l10.342-9.0257 5.2054 1.4055-0.1572-3.6304 7.8379 0.257 14.458-13.208c-23.962-11.125-46.516-0.2072-54.737 13.508-4.7948-12.78-21.796-25.452-43.593-20.158l9.9385 13.511 6.6193 1.1004-0.7322 3.0217 4.5988-0.3077 2.9039 3.762c-13.957-2.6944-31.429 1.0842-44.768 16.224l19.778 6.6906 7.5307-3.6026 1.4192 3.6026 4.4672-3.6026 8.5111 2.6696c-3.2155 5.733-4.9304 12.928-3.8351 21.205l12.398-7.2303 1.5335-5.5352 2.5042 0.8965 0.1589-3.9465 4.6195-2.8276 9.7864 14.358s1.6669-6.5542-0.1969-13.633z"
               fill="#75c108"
               stroke-width=".44507"
               id="path1097" />
          </g>
        </g>
      </g>
      <path
         d="m2057.5 2147.8c13.386-5.9931 17.415-5.3678 17.762 3.5698 0.3363 8.8423 24.239-5.3042 19.273-0.3543-5.7466 4.9986 37.072 4.5229 34.231 12.54-4.0008-0.7255-68.267 6.1123-98.364-2.7536-1.419-6.6008 25.351 4.3414 27.097-13.002z"
         fill="#36a528"
         id="path1105" />
    </g>
    <g
       transform="matrix(.10901 0 0 .10901 -175.61 -159.26)"
       filter="url(#filter147405)"
       id="g1291">
      <g
         transform="translate(-56.498 23.317)"
         id="g1267">
        <g
           id="g1121">
          <g
             transform="matrix(6.3401 -.14113 .088212 4.9703 1822.7 1661.8)"
             fill="#31c23c"
             id="g1115">
            <path
               d="m9.0677 127.45c-2.6365-6.3204 27.682-17.354 34.41-18.729 10.078-0.65272 42.433 9.9018 47.216 18.775 0.2996 0.55578 0.16868 0.31312 0.38521 0.78324 0.28639 0.6218 0.38004 1.2773-0.0052 1.5815-14.96 12.445-66.933 11.824-82.006-2.4102z"
               id="path1109" />
            <path
               d="m22.343 116.72c-0.74942-2.4622-0.7975-1.1977-0.65354-0.20845-0.7557-1.7773 0.29837 1.8116-0.7571-0.37545 0.71825 2.4474-1.2421-2.1879-0.34002 0.5543-1.0214-1.8543-1.1365-2.1132-0.37738 0.0416-0.43726-0.58316-1.0452-1.6686-0.40279 0.50576-0.63577-0.44832-0.46501-0.9918-0.49418 0.0412-0.87665-0.48991 0.49959 1.2221-0.83125-0.24842 0.06938 0.76185-0.38668 0.0963 0.23554 1.6906-0.80283-1.24-1.1162-2.6669-0.70438-0.40216-1.3306-2.2868 0.07114 1.4603-1.1812-1.0193-0.05934 0.32361 0.1264 1.542 0.19188 2.2298"
               stroke-opacity="0"
               id="path1111" />
            <path
               d="m80.205 119.5c0.78266-2.441 0.81359-1.1754 0.65624-0.19034 0.77965-1.7561-0.32288 1.803 0.76204-0.35445-0.75132 2.4271 1.2715-2.1531 0.33244 0.5636 1.0464-1.8257 1.165-2.0814 0.37675 0.0521 0.44508-0.57094 1.0677-1.6394 0.39586 0.51681 0.64173-0.43065 0.47837-0.97874 0.49353 0.0549 0.88314-0.46552-0.51607 1.2081 0.83446-0.22535-0.0797 0.75977 0.3853 0.10695-0.25842 1.6837 0.81951-1.2176 1.1522-2.6355 0.7097-0.38257 1.3613-2.2495-0.09093 1.4581 1.1948-0.9864 0.05491 0.32522-0.14729 1.5382-0.22208 2.224"
               stroke-opacity="0"
               id="path1113" />
          </g>
          <path
             transform="matrix(9.1738,0,0,9.1738,1642,1444.7)"
             d="m 52.289,88.401 c -1.9559,2.0144 -3.1481,3.8339 -1.9715,5.3764 1.5746,2.0643 2.615976,3.940374 3.643052,5.743736 7.819,0.749044 3.459748,-0.483656 7.835548,-1.335156 -3.99,0.94224 3.0069,0.01397 2.9806,-0.21627 0,0 -3.8024,-1.7175 -6.1156,-3.3092 -4.4487,-3.0611 -2.3101,-4.1445 -2.298,-6.4304"
             fill="#b0c767"
             id="path1117"
             sodipodi:nodetypes="ccccccc" />
          <path
             transform="matrix(9.1738 0 0 9.1738 1642 1444.7)"
             d="m41.537 84.883c-11.272 4.3752 1.4261 7.4758 14.212 6.8867 12.409-0.57169 24.277-3.5878 14.409-6.3004l-16.452-1.2015z"
             opacity=".2"
             id="path1119" />
        </g>
        <g
           transform="matrix(7.2183 0 0 7.2183 1918.7 1565)"
           id="g1265">
          <g
             id="g1133">
            <path
               d="m13.371 93.457c-1.524-3.4624-1.3981-6.2868-0.81767-9.5353 0.12664-1.7274 2.9456-4.307 2.9456-4.307l5.6019-1.4437 8.5354-0.77527 12.74-0.26604 6.7757 1.6496 1.649 2.9507c0.21782 1.085 0.6517 2.2002 0.76971 3.2317 0.32795 2.867 0.38797 5.8858-0.39467 8.1703-2.7312 2.2785-13.245 3.2692-16.842 3.2946l-7.2782 0.27329c-4.7611-0.07077-9.3197-1.0078-13.685-3.2428z"
               fill="url(#linearGradient50606)"
               id="path1123" />
            <path
               d="m11.871 90.793c1.8544-0.83026 2.4126-0.74364 2.4607 0.49454 0.04659 1.225 0.73459 0.53924 0.04659 1.225-0.79611 0.69249-0.38767 0.32707-0.7812 1.4377-0.55425-0.10051-0.99472-0.30527-1.2967-0.63689-0.19658-0.91445-0.67129-0.11769-0.42939-2.5203z"
               fill="#43cc32"
               id="path1125" />
            <path
               d="m49.95 91.679c2.3175-2.4968 2.5339-1.6274 2.5811-0.3891 0.0466 1.225 0.33907 0.86951 0.11154 1.4677-0.36897 0.55315-0.7498 0.79732-2.0245 1.1701-0.42748-0.7244-1.3213 0.59513-0.66813-2.2487z"
               fill="#43cc32"
               id="path1127" />
            <path
               d="m27.188 96.752c-0.21241-4.913-0.59134-8.7796 3.4735-9.6391 4.4574 0 3.4789 5.6776 3.7577 9.4217"
               fill="#6c5353"
               id="path1129" />
            <path
               d="m21.017 79.366c11.213-2.4232 10.094-2.5989 11.213-2.4232l1.1185 0.17566s6.1365-1.2559 9.4592 0.33315l3.3226 1.589-6.3263 2.4539-11.626 0.24278z"
               fill="#906821"
               stroke="#000"
               stroke-width=".083078px"
               id="path1131" />
          </g>
          <g
             fill="#74541a"
             id="g1141">
            <path
               d="m36.185 78.041 0.11682 2.6808 0.59384-0.05367-0.16155-3.299-0.58994 0.26z"
               id="path1135" />
            <path
               d="m29.906 78.172 0.11682 2.6808 0.59382-0.05366-0.16154-3.299-0.58995 0.26001z"
               id="path1137" />
            <path
               d="m26.075 78.293 0.11683 2.6808 0.59381-0.05366-0.16155-3.299-0.58994 0.26z"
               id="path1139" />
          </g>
          <g
             id="g1161">
            <path
               d="m39.324 77.975 0.11682 2.6808 0.59384-0.05367-0.16157-3.299-0.58992 0.26z"
               fill="#6f5019"
               id="path1143" />
            <path
               d="m21.712 79.309c10.145-2.9778 15.871-1.1007 22.097 0.26826l2.8314-1.9165-3.43-1.6531c-3.9462-0.3755-5.6547-1.2747-11.838-1.1265-4.7249 0.48679-5.5175 0.69683-6.2664 0.90379l-7.0336 2.0081z"
               fill="url(#linearGradient33560)"
               id="path1145" />
            <ellipse
               transform="matrix(.99978 -.020878 .018915 .99982 0 0)"
               cx="18.944"
               cy="89.617"
               rx="2.7227"
               ry="3.1272"
               fill="#836652"
               id="ellipse1147" />
            <ellipse
               transform="matrix(.99978 -.020878 .018915 .99982 0 0)"
               cx="19.224"
               cy="89.617"
               rx="2.1783"
               ry="2.6529"
               fill="#8fffff"
               id="ellipse1149" />
            <ellipse
               transform="matrix(.99983 -.018221 .021673 .99977 0 0)"
               cx="38.908"
               cy="89.736"
               rx="2.8633"
               ry="2.9012"
               fill="#755b49"
               id="ellipse1151" />
            <ellipse
               transform="matrix(.99983 -.018426 .021432 .99977 0 0)"
               cx="38.694"
               cy="89.742"
               rx="2.3654"
               ry="2.6198"
               fill="#8fffff"
               id="ellipse1153" />
            <ellipse
               transform="matrix(.99978 -.020878 .018915 .99982 0 0)"
               cx="47.807"
               cy="88.076"
               rx="1.3746"
               ry="2.1772"
               fill="#836652"
               id="ellipse1155" />
            <ellipse
               transform="matrix(.99978 -.020878 .018915 .99982 0 0)"
               cx="47.6"
               cy="88.078"
               rx="1.1681"
               ry="1.9896"
               fill="#8fffff"
               id="ellipse1157" />
            <path
               d="m11.583 82.414c4.2043-5.0355 5.1443-5.0541 5.1563-5.0543 9.3154-2.9691 16.553-1.9032 15.388-2.0745-3.0326-0.54809-15.586 2.6677-12.456 2.9196 1.6395 1.6068 17.56 2.5166 26.181-0.29129-0.56564-1.6898-11.632-2.6726-13.649-2.6771 5.4035-0.55233 11.109-0.38676 15.704 1.8842 2.5877 1.7927 2.6707 3.046 3.968 4.5608-7.2228 2.337-12.785 3.0227-19.473 3.4024-7.4187 0.95978-15.113-1.39-20.82-2.6699z"
               fill="url(#linearGradient33562)"
               id="path1159" />
          </g>
          <g
             transform="translate(4.6805 .46368)"
             id="g1167">
            <ellipse
               transform="matrix(.99978 -.020878 .018915 .99982 0 0)"
               cx="7.7875"
               cy="86.828"
               rx="1.0638"
               ry="2.4871"
               fill="#836652"
               id="ellipse1163" />
            <ellipse
               transform="matrix(.99978 -.020878 .018915 .99982 0 0)"
               cx="7.9752"
               cy="86.828"
               rx=".87609"
               ry="2.4871"
               fill="#8fffff"
               id="ellipse1165" />
          </g>
          <path
             d="m28.075 96.733c-0.17613-4.528-0.47512-8.0923 2.6008-8.8703 3.3759 0.01555 2.6525 5.2438 2.8752 8.6949"
             fill="#97623e"
             id="path1169" />
          <g
             fill="#ac9393"
             id="g1247">
            <ellipse
               transform="matrix(.99978 -.020878 .018915 .99982 0 0)"
               cx="23.97"
               cy="95.666"
               rx=".31913"
               ry=".42207"
               id="ellipse1171" />
            <ellipse
               transform="matrix(.99978 -.020878 .018915 .99982 0 0)"
               cx="22.824"
               cy="95.526"
               rx=".31913"
               ry=".42207"
               id="ellipse1173" />
            <ellipse
               transform="matrix(.99978 -.020878 .018915 .99982 0 0)"
               cx="21.698"
               cy="95.338"
               rx=".26281"
               ry=".34759"
               id="ellipse1175" />
            <ellipse
               transform="matrix(.99978 -.020878 .018915 .99982 0 0)"
               cx="20.666"
               cy="95.151"
               rx=".31913"
               ry=".42207"
               id="ellipse1177" />
            <ellipse
               transform="matrix(.99978 -.020878 .018915 .99982 0 0)"
               cx="23.444"
               cy="94.494"
               rx=".31913"
               ry=".42207"
               id="ellipse1179" />
            <ellipse
               transform="matrix(.99978 -.020878 .018915 .99982 0 0)"
               cx="22.224"
               cy="94.33"
               rx=".31913"
               ry=".42207"
               id="ellipse1181" />
            <ellipse
               transform="matrix(.99978 -.020878 .018915 .99982 0 0)"
               cx="18.488"
               cy="94.705"
               rx=".31913"
               ry=".42207"
               id="ellipse1183" />
            <ellipse
               transform="matrix(.99978 -.020878 .018915 .99982 0 0)"
               cx="17.418"
               cy="94.4"
               rx=".31913"
               ry=".42207"
               id="ellipse1185" />
            <ellipse
               transform="matrix(.99978 -.020878 .018915 .99982 0 0)"
               cx="33.469"
               cy="94.353"
               rx=".31913"
               ry=".42207"
               id="ellipse1187" />
            <ellipse
               transform="matrix(.99978 -.020878 .018915 .99982 0 0)"
               cx="34.482"
               cy="94.306"
               rx=".26594"
               ry=".35172"
               id="ellipse1189" />
            <ellipse
               transform="matrix(.99978 -.020878 .018915 .99982 0 0)"
               cx="35.477"
               cy="94.166"
               rx=".31913"
               ry=".42207"
               id="ellipse1191" />
            <ellipse
               transform="matrix(.99978 -.020878 .018915 .99982 0 0)"
               cx="35.064"
               cy="95.455"
               rx=".31913"
               ry=".42207"
               id="ellipse1193" />
            <ellipse
               transform="matrix(.99978 -.020878 .018915 .99982 0 0)"
               cx="42.427"
               cy="87.4"
               rx=".31913"
               ry=".42207"
               id="ellipse1195" />
            <ellipse
               transform="matrix(.99978 -.020878 .018915 .99982 0 0)"
               cx="43.468"
               cy="87.214"
               rx=".31913"
               ry=".42207"
               id="ellipse1197" />
            <ellipse
               transform="matrix(.99978 -.020878 .018915 .99982 0 0)"
               cx="44.36"
               cy="87.028"
               rx=".31913"
               ry=".42207"
               id="ellipse1199" />
            <ellipse
               transform="matrix(.99978 -.020878 .018915 .99982 0 0)"
               cx="45.698"
               cy="86.843"
               rx=".31913"
               ry=".42207"
               id="ellipse1201" />
            <ellipse
               transform="matrix(.99978 -.020878 .018915 .99982 0 0)"
               cx="44.063"
               cy="88.328"
               rx=".31913"
               ry=".42207"
               id="ellipse1203" />
            <ellipse
               transform="matrix(.99978 -.020878 .018915 .99982 0 0)"
               cx="43.617"
               cy="92.042"
               rx=".31913"
               ry=".42207"
               id="ellipse1205" />
            <ellipse
               transform="matrix(.99978 -.020878 .018915 .99982 0 0)"
               cx="44.509"
               cy="91.857"
               rx=".31913"
               ry=".42207"
               id="ellipse1207" />
            <ellipse
               transform="matrix(.99978 -.020878 .018915 .99982 0 0)"
               cx="45.401"
               cy="91.485"
               rx=".31913"
               ry=".42207"
               id="ellipse1209" />
            <ellipse
               transform="matrix(.99978 -.020878 .018915 .99982 0 0)"
               cx="44.063"
               cy="93.342"
               rx=".31913"
               ry=".42207"
               id="ellipse1211" />
            <ellipse
               transform="matrix(.99978 -.020878 .018915 .99982 0 0)"
               cx="42.576"
               cy="92.228"
               rx=".31913"
               ry=".42207"
               id="ellipse1213" />
            <ellipse
               transform="matrix(.99978 -.020878 .018915 .99982 0 0)"
               cx="43.022"
               cy="90.928"
               rx=".31913"
               ry=".42207"
               id="ellipse1215" />
            <ellipse
               transform="matrix(.99978 -.020878 .018915 .99982 0 0)"
               cx="33.722"
               cy="90.29"
               rx=".24821"
               ry=".32828"
               id="ellipse1217" />
            <ellipse
               transform="matrix(.99978 -.020878 .018915 .99982 0 0)"
               cx="34.763"
               cy="90.104"
               rx=".31913"
               ry=".42207"
               id="ellipse1219" />
            <ellipse
               transform="matrix(.99978 -.020878 .018915 .99982 0 0)"
               cx="34.168"
               cy="88.99"
               rx=".31913"
               ry=".42207"
               id="ellipse1221" />
            <ellipse
               transform="matrix(.99978 -.020878 .018915 .99982 0 0)"
               cx="39.725"
               cy="94.735"
               rx=".31913"
               ry=".42207"
               id="ellipse1223" />
            <ellipse
               transform="matrix(.99978 -.020878 .018915 .99982 0 0)"
               cx="47.158"
               cy="92.789"
               rx=".31913"
               ry=".42207"
               id="ellipse1225" />
            <ellipse
               transform="matrix(.99978 -.020878 .018915 .99982 0 0)"
               cx="24.439"
               cy="89.171"
               rx=".31913"
               ry=".42207"
               id="ellipse1227" />
            <ellipse
               transform="matrix(.99978 -.020878 .018915 .99982 0 0)"
               cx="23.463"
               cy="89.007"
               rx=".28159"
               ry=".37241"
               id="ellipse1229" />
            <ellipse
               transform="matrix(.99978 -.020878 .018915 .99982 0 0)"
               cx="22.505"
               cy="88.773"
               rx=".31913"
               ry=".42207"
               id="ellipse1231" />
            <ellipse
               transform="matrix(.99978 -.020878 .018915 .99982 0 0)"
               cx="23.988"
               cy="88.046"
               rx=".31913"
               ry=".42207"
               id="ellipse1233" />
            <ellipse
               transform="matrix(.99978 -.020878 .018915 .99982 0 0)"
               cx="15.635"
               cy="87.202"
               rx=".31913"
               ry=".42207"
               id="ellipse1235" />
            <ellipse
               transform="matrix(.99978 -.020878 .018915 .99982 0 0)"
               cx="14.743"
               cy="86.83"
               rx=".31913"
               ry=".42207"
               id="ellipse1237" />
            <ellipse
               transform="matrix(.99978 -.020878 .018915 .99982 0 0)"
               cx="14.891"
               cy="90.73"
               rx=".31913"
               ry=".42207"
               id="ellipse1239" />
            <ellipse
               transform="matrix(.99978 -.020878 .018915 .99982 0 0)"
               cx="14.148"
               cy="91.844"
               rx=".26281"
               ry=".34759"
               id="ellipse1241" />
            <ellipse
               transform="matrix(.84468 .53528 -.37309 .92779 0 0)"
               cx="44.773"
               cy="64.811"
               rx=".25942"
               ry=".31124"
               id="ellipse1243" />
            <ellipse
               transform="matrix(.99978 -.020878 .018915 .99982 0 0)"
               cx="48.627"
               cy="84.85"
               rx=".24821"
               ry=".32828"
               id="ellipse1245" />
          </g>
          <ellipse
             transform="matrix(.99978 -.020878 .018915 .99982 0 0)"
             cx="27.384"
             cy="93.501"
             rx=".41302"
             ry=".51589"
             fill="#6c5353"
             id="ellipse1249" />
          <g
             fill="#fff"
             fill-opacity=".9918"
             id="g1259">
            <ellipse
               transform="matrix(.99978 -.020878 .018915 .99982 0 0)"
               cx="18.375"
               cy="88.929"
               rx=".63082"
               ry=".76825"
               id="ellipse1251" />
            <ellipse
               transform="matrix(.99978 -.020878 .018915 .99982 0 0)"
               cx="37.954"
               cy="89.192"
               rx=".63082"
               ry=".76825"
               id="ellipse1253" />
            <ellipse
               transform="matrix(.99999 -.0037542 .0079401 .99997 0 0)"
               cx="13.341"
               cy="87.191"
               rx=".33878"
               ry=".76824"
               id="ellipse1255" />
            <ellipse
               transform="matrix(.99816 -.060674 .044444 .99901 0 0)"
               cx="46.016"
               cy="89.357"
               rx=".25709"
               ry=".76807"
               id="ellipse1257" />
          </g>
          <path
             d="m36.823 96.756s-0.81782-1.0798-0.49843-1.5639c0.31945-0.48412 0.38394-0.55362 0.38394-0.55362s-0.94526-0.8725 0.30068-1.3043l1.2459-0.43178c3.3504 2.1277 1.2422-0.08851 2.1126-0.10491 1.2249-0.07802 0.59735 0.46522 1.466 0.52162 1.0587 0.05006 0.96058-0.5028 1.113 0.38341 0.28088 0.74304 0.10734 1.3449-0.51576 2.6146-1.6737 0.45969-3.423 0.79838-5.608 0.43884z"
             fill="#43cc32"
             id="path1261" />
          <path
             d="m14.702 94.892s-0.40142-1.2124-0.05672-1.5721c1.0332-0.82297-0.26683-1.4078 0.90888-1.5255l1.0424-0.06335c0.39421 2.1918 0.63441 0.31287 2.6502 1.3422 0.79922 0.3297 0.83887-0.20513 0.77164 0.65087 0.06066 0.75875-0.19687 1.2658-0.93673 2.2669-1.3753-0.0256-2.7832-0.18276-4.3796-1.0989z"
             fill="#43cc32"
             id="path1263" />
        </g>
      </g>
      <g
         transform="matrix(29.509 -1.7261 1.5063 27.02 -4367.3 -1725.7)"
         fill="#d4aa00"
         stroke="#000"
         stroke-width=".035278"
         id="g1289">
        <g
           transform="matrix(.83053 0 0 .83053 35.401 27.148)"
           fill="#d4aa00"
           stroke="none"
           id="g1287">
          <path
             d="m210.74 156.93c0.11722-2.1182 0.17196-2.6453 0.34237-4.9822l0.50937 0.13464c-0.15963 2.5373-0.0796 3.2676 0.0645 4.7939"
             fill="#784421"
             id="path1269" />
          <g
             transform="matrix(-.84478 -.26123 -.21471 .84478 422.89 79.744)"
             id="g1285">
            <path
               d="m211.99 150.27-1.1567 0.11273-0.11539-0.46053s-0.46031-0.68929-0.39419 0.0327c0.0227 1.1534 0.0596 0.7977 0.44262 0.87987 0.97155 0.20755 0.87908 0.39722 0.87908 0.39722"
               fill="#b3b3b3"
               id="path1271" />
            <ellipse
               transform="matrix(.99911 .042121 -.032812 .99946 0 0)"
               cx="216.98"
               cy="141.71"
               rx=".53321"
               ry=".57339"
               fill="#999"
               stroke-width=".056203"
               id="ellipse1273" />
            <g
               transform="matrix(-.43756 -.98348 .82432 -.43263 180.68 424.6)"
               id="g1283">
              <g
                 transform="matrix(-.3527 -1.0231 -.8558 .3527 415.81 314.7)"
                 fill="#f9f9f9"
                 id="g1277">
                <path
                   transform="matrix(.097965 .01486 -.013336 .10697 208.55 129.55)"
                   d="m44.165 168.43c13.548-0.32833 9.6482 12.892 22.578 16.952 9.9943 3.1388 26.623-12.271 21.607-3.0744-6.4897 11.897-15.989 1.9098-25.97 11.077-7.7154 7.086-2.6847 29.192-8.1408 20.249-7.0584-11.569 6.3404-14.801 3.3922-28.029-2.2789-10.225-23.938-16.921-13.466-17.175z"
                   fill="#fff"
                   id="path1275" />
              </g>
              <ellipse
                 transform="matrix(.99911 .042121 -.032812 .99946 0 0)"
                 cx="216.98"
                 cy="141.71"
                 rx=".30409"
                 ry=".327"
                 fill="#ccc"
                 stroke-width=".032052"
                 id="ellipse1279" />
              <ellipse
                 transform="matrix(-.98869 -.14997 -.12372 .99232 0 0)"
                 cx="-229.23"
                 cy="117.28"
                 rx="2.9871"
                 ry="3.2496"
                 fill="none"
                 id="ellipse1281" />
            </g>
          </g>
        </g>
      </g>
    </g>
    <g
       id="g1305">
      <g
         transform="matrix(.92895 -.020679 .012925 .72824 55.479 5.1355)"
         fill="#2db337"
         filter="url(#filter147409)"
         id="g1299">
        <path
           d="m9.0677 127.45c-2.6365-6.3204 27.682-17.354 34.41-18.729 10.078-0.65272 42.433 9.9018 47.216 18.775 0.2996 0.55578 0.16868 0.31312 0.38521 0.78324 0.28639 0.6218 0.38004 1.2773-0.0052 1.5815-14.96 12.445-66.933 11.824-82.006-2.4102z"
           id="path1293" />
        <path
           d="m22.343 116.72c-0.74942-2.4622-0.7975-1.1977-0.65354-0.20845-0.7557-1.7773 0.29837 1.8116-0.7571-0.37545 0.71825 2.4474-1.2421-2.1879-0.34002 0.5543-1.0214-1.8543-1.1365-2.1132-0.37738 0.0416-0.43726-0.58316-1.0452-1.6686-0.40279 0.50576-0.63577-0.44832-0.46501-0.9918-0.49418 0.0412-0.87665-0.48991 0.49959 1.2221-0.83125-0.24842 0.06938 0.76185-0.38668 0.0963 0.23554 1.6906-0.80283-1.24-1.1162-2.6669-0.70438-0.40216-1.3306-2.2868 0.07114 1.4603-1.1812-1.0193-0.05934 0.32361 0.1264 1.542 0.19188 2.2298"
           stroke-opacity="0"
           id="path1295" />
        <path
           d="m80.205 119.5c0.78266-2.441 0.81359-1.1754 0.65624-0.19034 0.77965-1.7561-0.32288 1.803 0.76204-0.35445-0.75132 2.4271 1.2715-2.1531 0.33244 0.5636 1.0464-1.8257 1.165-2.0814 0.37675 0.0521 0.44508-0.57094 1.0677-1.6394 0.39586 0.51681 0.64173-0.43065 0.47837-0.97874 0.49353 0.0549 0.88314-0.46552-0.51607 1.2081 0.83446-0.22535-0.0797 0.75977 0.3853 0.10695-0.25842 1.6837 0.81951-1.2176 1.1522-2.6355 0.7097-0.38257 1.3613-2.2495-0.09093 1.4581 1.1948-0.9864 0.05491 0.32522-0.14729 1.5382-0.22208 2.224"
           stroke-opacity="0"
           id="path1297" />
      </g>
      <path
         d="m99.3 92.147c-2.629 2.7077-1.9672 4.6154-0.38569 6.6888 2.1165 2.7747-3.4397 5.0997-4.8731 6.3073-0.27617 0.23321 0.28448 0.34624 0.49979 0.38066 4.8504 0.77525 12.038 0.64428 17.538-0.22425 0.16693-0.0264 0.56544-0.0402 0.53006-0.34967 0 0 0.43883-5.0319-2.916-6.7611-3.5389-1.8241-4.9331-3.1987-4.917-6.2713"
         fill="#b0c767"
         filter="url(#filter147413)"
         id="path1301" />
      <path
         d="m84.848 87.419c-15.152 5.8809 1.9169 10.048 19.104 9.2567 16.679-0.76843 32.631-4.8225 19.367-8.4686l-22.113-1.6149z"
         filter="url(#filter147417)"
         opacity=".2"
         id="path1303" />
    </g>
  </g>
  <g
     transform="matrix(.10901 0 0 .10901 -203.28 -204.55)"
     id="g1533">
    <g
       transform="matrix(9.7025 0 0 9.7025 2280.2 1361.8)"
       filter="url(#filter147421)"
       id="g1453">
      <g
         id="g1319">
        <path
           d="m13.371 93.457c-1.524-3.4624-1.3981-6.2868-0.81767-9.5353 0.12664-1.7274 2.9456-4.307 2.9456-4.307l5.6019-1.4437 8.5354-0.77527 12.74-0.26604 6.7757 1.6496 1.649 2.9507c0.21782 1.085 0.6517 2.2002 0.76971 3.2317 0.32795 2.867 0.38797 5.8858-0.39467 8.1703-2.7312 2.2785-13.245 3.2692-16.842 3.2946l-7.2782 0.27329c-4.7611-0.07077-9.3197-1.0078-13.685-3.2428z"
           fill="url(#linearGradient50606)"
           id="path1309" />
        <path
           d="m11.871 90.793c1.8544-0.83026 2.4126-0.74364 2.4607 0.49454 0.04659 1.225 0.73459 0.53924 0.04659 1.225-0.79611 0.69249-0.38767 0.32707-0.7812 1.4377-0.55425-0.10051-0.99472-0.30527-1.2967-0.63689-0.19658-0.91445-0.67129-0.11769-0.42939-2.5203z"
           fill="#43cc32"
           id="path1311" />
        <path
           d="m49.95 91.679c2.3175-2.4968 2.5339-1.6274 2.5811-0.3891 0.0466 1.225 0.33907 0.86951 0.11154 1.4677-0.36897 0.55315-0.7498 0.79732-2.0245 1.1701-0.42748-0.7244-1.3213 0.59513-0.66813-2.2487z"
           fill="#43cc32"
           id="path1313" />
        <path
           d="m27.188 96.752c-0.21241-4.913-0.59134-8.7796 3.4735-9.6391 4.4574 0 3.4789 5.6776 3.7577 9.4217"
           fill="#6c5353"
           id="path1315" />
        <path
           d="m21.017 79.366c11.213-2.4232 10.094-2.5989 11.213-2.4232l1.1185 0.17566s6.1365-1.2559 9.4592 0.33315l3.3226 1.589-6.3263 2.4539-11.626 0.24278z"
           fill="#906821"
           stroke="#000"
           stroke-width=".083078px"
           id="path1317" />
      </g>
      <g
         fill="#74541a"
         id="g1327">
        <path
           d="m36.185 78.041 0.11682 2.6808 0.59384-0.05367-0.16155-3.299-0.58994 0.26z"
           id="path1321" />
        <path
           d="m29.906 78.172 0.11682 2.6808 0.59382-0.05366-0.16154-3.299-0.58995 0.26001z"
           id="path1323" />
        <path
           d="m26.075 78.293 0.11683 2.6808 0.59381-0.05366-0.16155-3.299-0.58994 0.26z"
           id="path1325" />
      </g>
      <g
         id="g1347">
        <path
           d="m39.324 77.975 0.11682 2.6808 0.59384-0.05367-0.16157-3.299-0.58992 0.26z"
           fill="#6f5019"
           id="path1329" />
        <path
           d="m21.712 79.309c10.145-2.9778 15.871-1.1007 22.097 0.26826l2.8314-1.9165-3.43-1.6531c-3.9462-0.3755-5.6547-1.2747-11.838-1.1265-4.7249 0.48679-5.5175 0.69683-6.2664 0.90379l-7.0336 2.0081z"
           fill="url(#linearGradient33560)"
           id="path1331" />
        <ellipse
           transform="matrix(.99978 -.020878 .018915 .99982 0 0)"
           cx="18.944"
           cy="89.617"
           rx="2.7227"
           ry="3.1272"
           fill="#836652"
           id="ellipse1333" />
        <ellipse
           transform="matrix(.99978 -.020878 .018915 .99982 0 0)"
           cx="19.224"
           cy="89.617"
           rx="2.1783"
           ry="2.6529"
           fill="#8fffff"
           id="ellipse1335" />
        <ellipse
           transform="matrix(.99983 -.018221 .021673 .99977 0 0)"
           cx="38.908"
           cy="89.736"
           rx="2.8633"
           ry="2.9012"
           fill="#755b49"
           id="ellipse1337" />
        <ellipse
           transform="matrix(.99983 -.018426 .021432 .99977 0 0)"
           cx="38.694"
           cy="89.742"
           rx="2.3654"
           ry="2.6198"
           fill="#8fffff"
           id="ellipse1339" />
        <ellipse
           transform="matrix(.99978 -.020878 .018915 .99982 0 0)"
           cx="47.807"
           cy="88.076"
           rx="1.3746"
           ry="2.1772"
           fill="#836652"
           id="ellipse1341" />
        <ellipse
           transform="matrix(.99978 -.020878 .018915 .99982 0 0)"
           cx="47.6"
           cy="88.078"
           rx="1.1681"
           ry="1.9896"
           fill="#8fffff"
           id="ellipse1343" />
        <path
           d="m11.583 82.414c4.2043-5.0355 5.1443-5.0541 5.1563-5.0543 9.3154-2.9691 16.553-1.9032 15.388-2.0745-3.0326-0.54809-15.586 2.6677-12.456 2.9196 1.6395 1.6068 17.56 2.5166 26.181-0.29129-0.56564-1.6898-11.632-2.6726-13.649-2.6771 5.4035-0.55233 11.109-0.38676 15.704 1.8842 2.5877 1.7927 2.6707 3.046 3.968 4.5608-7.2228 2.337-12.785 3.0227-19.473 3.4024-7.4187 0.95978-15.113-1.39-20.82-2.6699z"
           fill="url(#linearGradient33562)"
           id="path1345" />
      </g>
      <g
         transform="translate(4.6805 .46368)"
         id="g1353">
        <ellipse
           transform="matrix(.99978 -.020878 .018915 .99982 0 0)"
           cx="7.7875"
           cy="86.828"
           rx="1.0638"
           ry="2.4871"
           fill="#836652"
           id="ellipse1349" />
        <ellipse
           transform="matrix(.99978 -.020878 .018915 .99982 0 0)"
           cx="7.9752"
           cy="86.828"
           rx=".87609"
           ry="2.4871"
           fill="#8fffff"
           id="ellipse1351" />
      </g>
      <g
         fill="#ac9393"
         id="g1431">
        <ellipse
           transform="matrix(.99978 -.020878 .018915 .99982 0 0)"
           cx="23.97"
           cy="95.666"
           rx=".31913"
           ry=".42207"
           id="ellipse1355" />
        <ellipse
           transform="matrix(.99978 -.020878 .018915 .99982 0 0)"
           cx="22.824"
           cy="95.526"
           rx=".31913"
           ry=".42207"
           id="ellipse1357" />
        <ellipse
           transform="matrix(.99978 -.020878 .018915 .99982 0 0)"
           cx="21.698"
           cy="95.338"
           rx=".26281"
           ry=".34759"
           id="ellipse1359" />
        <ellipse
           transform="matrix(.99978 -.020878 .018915 .99982 0 0)"
           cx="20.666"
           cy="95.151"
           rx=".31913"
           ry=".42207"
           id="ellipse1361" />
        <ellipse
           transform="matrix(.99978 -.020878 .018915 .99982 0 0)"
           cx="23.444"
           cy="94.494"
           rx=".31913"
           ry=".42207"
           id="ellipse1363" />
        <ellipse
           transform="matrix(.99978 -.020878 .018915 .99982 0 0)"
           cx="22.224"
           cy="94.33"
           rx=".31913"
           ry=".42207"
           id="ellipse1365" />
        <ellipse
           transform="matrix(.99978 -.020878 .018915 .99982 0 0)"
           cx="18.488"
           cy="94.705"
           rx=".31913"
           ry=".42207"
           id="ellipse1367" />
        <ellipse
           transform="matrix(.99978 -.020878 .018915 .99982 0 0)"
           cx="17.418"
           cy="94.4"
           rx=".31913"
           ry=".42207"
           id="ellipse1369" />
        <ellipse
           transform="matrix(.99978 -.020878 .018915 .99982 0 0)"
           cx="33.469"
           cy="94.353"
           rx=".31913"
           ry=".42207"
           id="ellipse1371" />
        <ellipse
           transform="matrix(.99978 -.020878 .018915 .99982 0 0)"
           cx="34.482"
           cy="94.306"
           rx=".26594"
           ry=".35172"
           id="ellipse1373" />
        <ellipse
           transform="matrix(.99978 -.020878 .018915 .99982 0 0)"
           cx="35.477"
           cy="94.166"
           rx=".31913"
           ry=".42207"
           id="ellipse1375" />
        <ellipse
           transform="matrix(.99978 -.020878 .018915 .99982 0 0)"
           cx="35.064"
           cy="95.455"
           rx=".31913"
           ry=".42207"
           id="ellipse1377" />
        <ellipse
           transform="matrix(.99978 -.020878 .018915 .99982 0 0)"
           cx="42.427"
           cy="87.4"
           rx=".31913"
           ry=".42207"
           id="ellipse1379" />
        <ellipse
           transform="matrix(.99978 -.020878 .018915 .99982 0 0)"
           cx="43.468"
           cy="87.214"
           rx=".31913"
           ry=".42207"
           id="ellipse1381" />
        <ellipse
           transform="matrix(.99978 -.020878 .018915 .99982 0 0)"
           cx="44.36"
           cy="87.028"
           rx=".31913"
           ry=".42207"
           id="ellipse1383" />
        <ellipse
           transform="matrix(.99978 -.020878 .018915 .99982 0 0)"
           cx="45.698"
           cy="86.843"
           rx=".31913"
           ry=".42207"
           id="ellipse1385" />
        <ellipse
           transform="matrix(.99978 -.020878 .018915 .99982 0 0)"
           cx="44.063"
           cy="88.328"
           rx=".31913"
           ry=".42207"
           id="ellipse1387" />
        <ellipse
           transform="matrix(.99978 -.020878 .018915 .99982 0 0)"
           cx="43.617"
           cy="92.042"
           rx=".31913"
           ry=".42207"
           id="ellipse1389" />
        <ellipse
           transform="matrix(.99978 -.020878 .018915 .99982 0 0)"
           cx="44.509"
           cy="91.857"
           rx=".31913"
           ry=".42207"
           id="ellipse1391" />
        <ellipse
           transform="matrix(.99978 -.020878 .018915 .99982 0 0)"
           cx="45.401"
           cy="91.485"
           rx=".31913"
           ry=".42207"
           id="ellipse1393" />
        <ellipse
           transform="matrix(.99978 -.020878 .018915 .99982 0 0)"
           cx="44.063"
           cy="93.342"
           rx=".31913"
           ry=".42207"
           id="ellipse1395" />
        <ellipse
           transform="matrix(.99978 -.020878 .018915 .99982 0 0)"
           cx="42.576"
           cy="92.228"
           rx=".31913"
           ry=".42207"
           id="ellipse1397" />
        <ellipse
           transform="matrix(.99978 -.020878 .018915 .99982 0 0)"
           cx="43.022"
           cy="90.928"
           rx=".31913"
           ry=".42207"
           id="ellipse1399" />
        <ellipse
           transform="matrix(.99978 -.020878 .018915 .99982 0 0)"
           cx="33.722"
           cy="90.29"
           rx=".24821"
           ry=".32828"
           id="ellipse1401" />
        <ellipse
           transform="matrix(.99978 -.020878 .018915 .99982 0 0)"
           cx="34.763"
           cy="90.104"
           rx=".31913"
           ry=".42207"
           id="ellipse1403" />
        <ellipse
           transform="matrix(.99978 -.020878 .018915 .99982 0 0)"
           cx="34.168"
           cy="88.99"
           rx=".31913"
           ry=".42207"
           id="ellipse1405" />
        <ellipse
           transform="matrix(.99978 -.020878 .018915 .99982 0 0)"
           cx="39.725"
           cy="94.735"
           rx=".31913"
           ry=".42207"
           id="ellipse1407" />
        <ellipse
           transform="matrix(.99978 -.020878 .018915 .99982 0 0)"
           cx="47.158"
           cy="92.789"
           rx=".31913"
           ry=".42207"
           id="ellipse1409" />
        <ellipse
           transform="matrix(.99978 -.020878 .018915 .99982 0 0)"
           cx="24.439"
           cy="89.171"
           rx=".31913"
           ry=".42207"
           id="ellipse1411" />
        <ellipse
           transform="matrix(.99978 -.020878 .018915 .99982 0 0)"
           cx="23.463"
           cy="89.007"
           rx=".28159"
           ry=".37241"
           id="ellipse1413" />
        <ellipse
           transform="matrix(.99978 -.020878 .018915 .99982 0 0)"
           cx="22.505"
           cy="88.773"
           rx=".31913"
           ry=".42207"
           id="ellipse1415" />
        <ellipse
           transform="matrix(.99978 -.020878 .018915 .99982 0 0)"
           cx="23.988"
           cy="88.046"
           rx=".31913"
           ry=".42207"
           id="ellipse1417" />
        <ellipse
           transform="matrix(.99978 -.020878 .018915 .99982 0 0)"
           cx="15.635"
           cy="87.202"
           rx=".31913"
           ry=".42207"
           id="ellipse1419" />
        <ellipse
           transform="matrix(.99978 -.020878 .018915 .99982 0 0)"
           cx="14.743"
           cy="86.83"
           rx=".31913"
           ry=".42207"
           id="ellipse1421" />
        <ellipse
           transform="matrix(.99978 -.020878 .018915 .99982 0 0)"
           cx="14.891"
           cy="90.73"
           rx=".31913"
           ry=".42207"
           id="ellipse1423" />
        <ellipse
           transform="matrix(.99978 -.020878 .018915 .99982 0 0)"
           cx="14.148"
           cy="91.844"
           rx=".26281"
           ry=".34759"
           id="ellipse1425" />
        <ellipse
           transform="matrix(.84468 .53528 -.37309 .92779 0 0)"
           cx="44.773"
           cy="64.811"
           rx=".25942"
           ry=".31124"
           id="ellipse1427" />
        <ellipse
           transform="matrix(.99978 -.020878 .018915 .99982 0 0)"
           cx="48.627"
           cy="84.85"
           rx=".24821"
           ry=".32828"
           id="ellipse1429" />
      </g>
      <g
         fill="#fff"
         fill-opacity=".9918"
         id="g1441">
        <ellipse
           transform="matrix(.99978 -.020878 .018915 .99982 0 0)"
           cx="18.375"
           cy="88.929"
           rx=".63082"
           ry=".76825"
           id="ellipse1433" />
        <ellipse
           transform="matrix(.99978 -.020878 .018915 .99982 0 0)"
           cx="37.954"
           cy="89.192"
           rx=".63082"
           ry=".76825"
           id="ellipse1435" />
        <ellipse
           transform="matrix(.99999 -.0037542 .0079401 .99997 0 0)"
           cx="13.341"
           cy="87.191"
           rx=".33878"
           ry=".76824"
           id="ellipse1437" />
        <ellipse
           transform="matrix(.99816 -.060674 .044444 .99901 0 0)"
           cx="46.016"
           cy="89.357"
           rx=".25709"
           ry=".76807"
           id="ellipse1439" />
      </g>
      <g
         id="g1451">
        <path
           d="m36.823 96.756s-0.81782-1.0798-0.49843-1.5639c0.31945-0.48412 0.38394-0.55362 0.38394-0.55362s-0.94526-0.8725 0.30068-1.3043l1.2459-0.43178c3.3504 2.1277 1.2422-0.08851 2.1126-0.10491 1.2249-0.07802 0.59735 0.46522 1.466 0.52162 1.0587 0.05006 0.96058-0.5028 1.113 0.38341 0.28088 0.74304 0.10734 1.3449-0.51576 2.6146-1.6737 0.45969-3.423 0.79838-5.608 0.43884z"
           fill="#43cc32"
           id="path1443" />
        <path
           d="m14.702 94.892s-0.40142-1.2124-0.05672-1.5721c1.0332-0.82297-0.26683-1.4078 0.90888-1.5255l1.0424-0.06335c0.39421 2.1918 0.63441 0.31287 2.6502 1.3422 0.79922 0.3297 0.83887-0.20513 0.77164 0.65087 0.06066 0.75875-0.19687 1.2658-0.93673 2.2669-1.3753-0.0256-2.7832-0.18276-4.3796-1.0989z"
           fill="#43cc32"
           id="path1445" />
        <path
           d="m37.116 97.802c0.10221-4.528 0.26322-9.0818-1.5216-9.8599-1.9589 0.01555-1.3274 5.1548-1.4567 8.6059"
           fill="#97623e"
           id="path1447" />
        <ellipse
           transform="matrix(-.99935 -.035965 -.010977 .99994 0 0)"
           cx="-37.512"
           cy="91.648"
           rx=".23976"
           ry=".51583"
           fill="#6c5353"
           id="ellipse1449" />
      </g>
    </g>
    <path
       d="m2548.4 2300.5c-1.8062-44.166-5.0283-78.925 29.536-86.651 37.903 0 29.582 51.039 31.953 84.697"
       fill="#f2b200"
       id="path1455" />
    <path
       d="m2572.9 2299.8c0.2927-0.824 0.5367-1.6916 0.7385-2.5959 0.2449-1.0965 3.3829 0.1362 3.5205-1.0554 0.3256-2.827-1.3363-7.0652-1.9246-10.656-0.8605-5.2541 3.8426-12.101 4.1089-16.424l-1.4267-14.859-11.34-5.8251-4.2489-9.4613-2.6409-4.044c0.3597-1.9363 1.9455-4.7957 5.4388-5.5316l0.3148 4.8115 2.2626-0.4025-0.866 3.8605 5.7992 7.5775 8.9552 3.5807 2.4344-3.443-1.7167-2.2616c-0.3486-2.4676-0.4652-4.2303-0.1973-5.5871 0.2073-1.054-0.3926-2.0988 0.3211-2.9481 0.8027-0.9542 1.9619-1.9077 3.5619-3.1493l7.1902 0.58 2.4668 6.5475-1.6329 0.7829-0.4816 4.8918-1.6013 1.3802 1.1533 2.5491 2.9908 1.2414c3.1821 0.404 5.9004 1.7491 10.259-0.2321l5.0771-2.0134 1.5454-0.6128c0.8045-3.5598 1.4714-2.206 2.1381-0.848l2.3156-0.9182c2.0592 1.4555 2.2016 3.7807 1.1427 6.6509-0.9691 0.3848-2.99 1.6824-3.9649 2.0057-0.9794 0.3247-0.9128-0.325-1.8985-0.054-5.254 1.4447-10.602 2.1848-16.082 2.8494-1.2042 5.526-1.2167 11.052-0.7523 16.578 0.037 9.4194 1.5359 15.299 2.7471 22.117 0.1073 0.6021 2.0287 1.5852 2.1299 2.205 0.1184 0.7258 0.2321 1.4659 0.3395 2.2253l-8.1724-0.1448c-0.1357-0.674-0.2752-1.3245-0.4164-1.9564-0.2055-0.9203 0.4825-0.98 0.2697-1.8367-1.5118-6.1011-4.0128-11.801-4.6684-20.964l-2.7786 0.1625c-1.2483 3.9316-2.3998 4.3999-3.0794 11.637l1.026 13.218z"
       fill="#3a3a3a"
       stroke-width="49.658"
       style="mix-blend-mode:normal"
       id="path1457" />
    <g
       transform="matrix(.16434 0 0 .16434 1936.5 1755.3)"
       filter="url(#filter147425)"
       id="g1477">
      <ellipse
         cx="4894.7"
         cy="2192.6"
         rx="49.935"
         ry="12.142"
         opacity=".3"
         id="ellipse1459" />
      <g
         stroke="#283f00"
         stroke-linecap="round"
         stroke-linejoin="round"
         stroke-miterlimit="10"
         stroke-width="2.965"
         id="g1473">
        <path
           d="m4881 2180.9v-21.748c0-1.3301 1.0776-2.4097 2.4152-2.4097 1.3301 0 2.4049 1.0796 2.4049 2.4097v21.374c28.496 0.3256 27.742 6.3709 27.742 6.3709h-36.986c-0.3732-3.8743 2.3083-5.3989 4.4241-5.997z"
           fill="#ffde55"
           id="path1461" />
        <path
           d="m4869.7 2185.1v-21.752c0-1.33 1.0755-2.4103 2.4049-2.4103 1.3377 0 2.4145 1.0803 2.4145 2.4103v21.374c28.497 0.3256 27.742 6.3709 27.742 6.3709h-36.993c-0.367-3.875 2.3166-5.3955 4.4324-5.9936z"
           fill="#ffde55"
           id="path1463" />
        <path
           d="m4832 2150.6c-0.044-0.3139 51.394-50.531 68.838-50.531 17.435 0 31.58 14.143 31.58 31.586 0 17.443-14.145 31.586-31.58 31.586-14.531 0-52.651 2.6608-64.99-6.5241-19.274 34.531-36.754 12.058-36.754 12.058z"
           fill="#fff"
           id="path1465" />
        <path
           d="m4925.9 2120.6c12.794-4.1889 20.872-17.26 18.452-30.887-2.6684-14.92-16.92-24.857-31.838-22.199-14.924 2.6601-24.854 16.908-22.203 31.833 0.4553 2.5221 1.241 4.9056 2.2931 7.1035"
           fill="#fff"
           id="path1467" />
        <path
           d="m4935.1 2114.1c-14.626 1.5136-14.918-12.727-2.5187-14.121 0 0 5.5534-6.0459 11.83-10.258 7.9204 9.5326 22.45 10.306 23.907 25.365z"
           fill="#ffde55"
           id="path1469" />
        <path
           d="m4875.3 2128.1c7.3754-5.9986 44.058-2.3577 44.853 4.769 0.7961 7.135-0.7559 21.892-16.505 23.406 0 0-57.097 3.21-56.29-7.6416l27.942-20.533"
           fill="#b3b3b3"
           id="path1471" />
      </g>
      <path
         d="m4911.3 2091.3c0.7548 2.7278 3.5791 4.331 6.3089 3.5687 2.7325-0.7513 4.3261-3.5838 3.5707-6.3109-0.7547-2.7243-3.579-4.3241-6.3136-3.5687-2.7278 0.7617-4.3207 3.5825-3.566 6.3109z"
         fill="#283f00"
         id="path1475" />
    </g>
    <g
       transform="matrix(.21545 .050005 -.050005 .21545 2816.9 2938.6)"
       filter="url(#filter147429)"
       id="g1485">
      <g
         stroke="#283f00"
         stroke-linecap="round"
         stroke-linejoin="round"
         stroke-miterlimit="10"
         id="g1483">
        <path
           d="m-2242-2580.9c-3.973-3.974-10.215-4.29-14.554-0.954-4.338-3.335-10.579-3.02-14.554 0.954-3.971 3.973-4.287 10.214-0.951 14.553-3.336 4.338-3.02 10.58 0.951 14.552 3.975 3.974 10.216 4.29 14.554 0.954 4.339 3.335 10.581 3.02 14.554-0.954 3.973-3.973 4.29-10.214 0.954-14.552 3.336-4.339 3.019-10.58-0.954-14.553z"
           fill="#fc0"
           stroke-width="2.5855"
           id="path1479" />
        <circle
           cx="-2256.5"
           cy="-2566.4"
           r="7.1369"
           fill="#ffe680"
           stroke-width="3.5445"
           id="circle1481" />
      </g>
    </g>
    <g
       transform="matrix(.21545 .050005 -.050005 .21545 3012.6 2946.5)"
       filter="url(#filter147433)"
       id="g1493">
      <g
         stroke="#283f00"
         stroke-linecap="round"
         stroke-linejoin="round"
         stroke-miterlimit="10"
         id="g1491">
        <path
           d="m-2242-2580.9c-3.973-3.974-10.215-4.29-14.554-0.954-4.338-3.335-10.579-3.02-14.554 0.954-3.971 3.973-4.287 10.214-0.951 14.553-3.336 4.338-3.02 10.58 0.951 14.552 3.975 3.974 10.216 4.29 14.554 0.954 4.339 3.335 10.581 3.02 14.554-0.954 3.973-3.973 4.29-10.214 0.954-14.552 3.336-4.339 3.019-10.58-0.954-14.553z"
           fill="#fc0"
           stroke-width="2.5855"
           id="path1487" />
        <circle
           cx="-2256.5"
           cy="-2566.4"
           r="7.1369"
           fill="#ffe680"
           stroke-width="3.5445"
           id="circle1489" />
      </g>
    </g>
    <g
       transform="matrix(3.4383 0 0 3.4585 624.29 2039)"
       filter="url(#filter147437)"
       id="g1523">
      <path
         d="m558.46 15.698c-4.4173 0.54768-9.7067 3.4372-10.138-6.716 0 0-12.994 4.0608-12.566-6.5598l0.42845-10.621 2.9987-6.4036c-4.0091-0.78715-1.6406-4.6748-2.4275-7.0284-4.5754-7.0048 1.5395-11.159 8.5674-12.022 1.2905-4.9378 3.7935-8.4985 14.851-2.3428l7.4252-9.8398c10.913-2.4519 17.74 3.5934 20.276 12.803 11.843-3.671 9.0449 4.1887 12.423 7.1847 6.0448 3.6964 1.4721 8.6832 1.428 13.12 6.7251 17.274-0.0828 16.157-6.9969 21.397 0.76193 6.3363-2.7154 8.4992-9.5669 7.3408-7.9839-2.7249-13.607-5.3628-17.402-2.9261-4.0035 2.5707-7.0297 4.1042-9.3001 2.6137z"
         fill="#43cc32"
         stroke="#43cc32"
         stroke-width="1.1827px"
         id="path1495" />
      <g
         transform="matrix(-2.8111 0 0 3.3424 1603.8 -281.36)"
         fill="#916f6f"
         id="g1499">
        <path
           d="m366.26 88.642c-0.68926-1.0208-1.3886-2.117-2.7007-2.8709-0.76316-0.43377-1.3843-0.0191-2.6292 0.02894-0.31184-0.10072-0.66929-0.18775-0.11625-0.54793l1.7426-0.07748c-0.61734-0.58621-0.38726-0.42005-0.79888-1.0929-0.25824-0.42216-0.39918-0.88466-0.32644-1.4167 0.12197-0.63955 0.26331-0.77547 0.4298-0.25731 0.68962 1.478 0.4694 1.6867 1.305 2.2242 1.6442 1.0577 2.2117 1.8463 3.2648 2.4799 0.15356-1.1454 0.73824-2.7579-0.0945-2.8348-1.3569-1.6465-2.7418-3.3425-4.8203-5.0907-0.95217-0.84718-1.5692-1.5396-0.33378-1.5993 0.0208 0.70932 2.3802 3.1181 3.3031 3.4579 0.38196-0.90387-0.25182-2.5568-0.51771-3.79-0.19251-0.07764-0.349-1.5034 0.70652 0.17044 0.23274 0.36909 0.39443 1.3511 0.62352 4.2765 0.39457 1.0419 1.9471 2.3361 2.7508 1.2512 2.7572-0.82621 3.5563-3.1555 5.791-5.0935 0.99838-0.86586 1.0234-0.07788 0.88689 0.09641-0.22915 0.02864-3.5076 2.9829-2.2068 2.7317 0.82192-0.25381 1.9576-0.18612 2.5213-0.0859 0.62308 0.12263 0.24092 0.51202-0.23087 0.52236-3.3002 0.0723-3.2349 0.40555-4.2146 1.44-0.29414 0.47433-2.0983 0.9568-1.9826 2.5437 1.7227-0.23793 6.8486-2.2968 5.8628-0.6523-1.5723-0.07752-2.7334 0.63649-3.4943 0.80241 0.46446 0.58694 1.0572 0.78909 1.6523 0.98404 0.20863 0.57954-0.11158 0.45395-0.4239 0.33888-2.3941-1.0817-3.6075-0.68714-3.9845 0.7733-0.17538 1.9568-0.43803 3.1801 0.0853 5.1515-0.74522 0.03847-1.8256 0.0103-2.6262 0.01329 0.294-1.2665 0.51107-2.0219 0.57586-3.8769z"
           fill="url(#linearGradient15121)"
           id="path1497" />
      </g>
      <g
         transform="matrix(1.2939 0 0 1.5385 22.342 -63.895)"
         fill="#fa4545"
         id="g1521">
        <ellipse
           cx="409.18"
           cy="43.112"
           rx=".67365"
           ry=".72547"
           id="ellipse1501" />
        <ellipse
           cx="412.65"
           cy="36.22"
           rx=".67365"
           ry=".72547"
           id="ellipse1503" />
        <ellipse
           cx="406.59"
           cy="30.157"
           rx=".67365"
           ry=".72547"
           id="ellipse1505" />
        <ellipse
           cx="402.44"
           cy="37.204"
           rx=".67365"
           ry=".72547"
           id="ellipse1507" />
        <ellipse
           cx="402.44"
           cy="37.204"
           rx=".67365"
           ry=".72547"
           id="ellipse1509" />
        <ellipse
           cx="437.22"
           cy="32.299"
           rx=".76525"
           ry=".72547"
           id="ellipse1511" />
        <ellipse
           cx="437.99"
           cy="46.732"
           rx=".76525"
           ry=".72547"
           id="ellipse1513" />
        <ellipse
           cx="444.25"
           cy="37.612"
           rx=".76525"
           ry=".72547"
           id="ellipse1515" />
        <ellipse
           cx="426.39"
           cy="32.116"
           rx=".76525"
           ry=".72547"
           id="ellipse1517" />
        <ellipse
           cx="419.19"
           cy="26.07"
           rx=".76525"
           ry=".72547"
           id="ellipse1519" />
      </g>
    </g>
    <g
       transform="matrix(.17047 .039564 -.039564 .17047 2966.3 2811.9)"
       filter="url(#filter147441)"
       id="g1531">
      <g
         stroke="#283f00"
         stroke-linecap="round"
         stroke-linejoin="round"
         stroke-miterlimit="10"
         id="g1529">
        <path
           d="m-2242-2580.9c-3.973-3.974-10.215-4.29-14.554-0.954-4.338-3.335-10.579-3.02-14.554 0.954-3.971 3.973-4.287 10.214-0.951 14.553-3.336 4.338-3.02 10.58 0.951 14.552 3.975 3.974 10.216 4.29 14.554 0.954 4.339 3.335 10.581 3.02 14.554-0.954 3.973-3.973 4.29-10.214 0.954-14.552 3.336-4.339 3.019-10.58-0.954-14.553z"
           fill="#fc0"
           stroke-width="2.5855"
           id="path1525" />
        <circle
           cx="-2256.5"
           cy="-2566.4"
           r="7.1369"
           fill="#ffe680"
           stroke-width="3.5445"
           id="circle1527" />
      </g>
    </g>
  </g>
</svg>
