<?xml version="1.0" encoding="UTF-8"?>
<svg width="185.49mm" height="198.14mm" version="1.1" viewBox="0 0 185.49 198.14" xmlns="http://www.w3.org/2000/svg">
 <defs>
  <filter id="filter120947" x="-.078364" y="-.15892" width="1.1749" height="1.3546" color-interpolation-filters="sRGB">
   <feFlood flood-color="rgb(0,0,0)" flood-opacity=".49804" result="flood"/>
   <feComposite in="flood" in2="SourceGraphic" operator="in" result="composite1"/>
   <feGaussianBlur in="composite1" result="blur" stdDeviation="9.7575"/>
   <feOffset dx="6" dy="6" result="offset"/>
   <feComposite in="offset" in2="offset" operator="atop" result="composite2"/>
  </filter>
  <filter id="filter2724" x="-.55944" y="-.61155" width="2.1189" height="2.2231" color-interpolation-filters="sRGB">
   <feFlood flood-color="rgb(0,0,0)" result="flood"/>
   <feComposite in="SourceGraphic" in2="flood" operator="in" result="composite1"/>
   <feGaussianBlur in="composite1" result="blur" stdDeviation="39.7976"/>
   <feOffset dx="0" dy="0" result="offset"/>
   <feComposite in="offset" in2="offset" operator="atop" result="fbSourceGraphic"/>
   <feColorMatrix in="fbSourceGraphic" result="fbSourceGraphicAlpha" values="0 0 0 -1 0 0 0 0 -1 0 0 0 0 -1 0 0 0 0 1 0"/>
   <feFlood flood-color="rgb(0,0,0)" in="fbSourceGraphic" result="flood"/>
   <feComposite in="fbSourceGraphic" in2="flood" operator="in" result="composite1"/>
   <feGaussianBlur in="composite1" result="blur" stdDeviation="12.0865"/>
   <feOffset dx="0" dy="0" result="offset"/>
   <feComposite in="offset" in2="offset" operator="atop" result="composite2"/>
  </filter>
 </defs>
 <g transform="translate(-12.297 -49.606)">
  <g transform="matrix(-.5176 0 0 -.57091 371 541.28)" fill="#008080">
   <g fill="#0ff">
    <ellipse transform="matrix(-.87606 0 0 -.82818 72.617 126.1)" cx="-511.69" cy="-663.48" rx="111.29" ry="101.81" filter="url(#filter2724)" stop-color="#000000" style="paint-order:fill markers stroke"/>
    <ellipse transform="matrix(-.85132 0 0 -.80921 81.186 153.98)" cx="-511.69" cy="-663.48" rx="111.29" ry="101.81" filter="url(#filter2724)" stop-color="#000000" style="paint-order:fill markers stroke"/>
    <ellipse transform="matrix(-.96804 0 0 -.81621 12.247 157.95)" cx="-511.69" cy="-663.48" rx="111.29" ry="101.81" filter="url(#filter2724)" stop-color="#000000" style="paint-order:fill markers stroke"/>
   </g>
   <path class="cls-5" transform="matrix(-.79561 0 0 -.72132 697.38 863.35)" d="m71.973 284.48c-2.0314 6e-3 -3.9714 0.84435-5.368 2.3195-1.3376 1.5103-2.0278 3.4859-1.9219 5.5006 5.5272 87.261 77.912 155.21 165.35 155.21s159.82-67.945 165.35-155.21c0.19481-2.0264-0.5075-4.0364-1.9219-5.5006-1.345-1.5165-3.2747-2.3848-5.3017-2.3858-103.81 27.664-146.86 26.428-209.44 23.356-44.143-2.1667-82.686-10.578-106.74-23.29z" fill="#000" filter="url(#filter120947)" stroke="#333" stroke-linecap="round" stroke-linejoin="round" stroke-width="5"/>
   <path class="cls-2" d="m597.25 716.35a9.2543 8.3902 0 0 0 3.1477-0.54223 14.952 13.556 0 0 0 29.557 0 9.1284 8.276 0 0 0 3.1477 0.54223 9.0025 8.1619 0 0 0 0-16.324h-35.853a9.0025 8.1619 0 1 0 0 16.324z" fill="#fff" opacity=".8"/>
   <path d="m638.26 662.12c-79.342 33.728-212.75 26.274-256.74-0.71006 68.851-22.916 195.21-25.67 256.74 0.71006z" fill="#0a0" stroke="#333" stroke-linejoin="round" stroke-width="3.8923"/>
   <path class="cls-2" d="m570.76 769.76a6.1864 5.6087 0 0 0 2.1042-0.36247 9.995 9.0617 0 0 0 19.758 0 6.1022 5.5324 0 0 0 2.1042 0.36247 6.018 5.4561 0 0 0 0-10.912h-23.967a6.018 5.4561 0 1 0 0 10.912z" fill="#fff" opacity=".89"/>
   <path class="cls-2" d="m396.49 714.39a9.3336 8.0268 0 0 0 3.1112-0.53514 14.778 12.709 0 0 0 29.214 0 9.3336 8.0268 0 0 0 3.1112 0.53514 8.9291 7.679 0 0 0 0-15.331h-35.437a8.9291 7.679 0 0 0 0 15.331z" fill="#fff" opacity=".84"/>
   <line class="cls-5" x1="604.85" x2="604.85" y1="664.92" y2="676.63" fill="#55d400" stroke="#333" stroke-linecap="round" stroke-linejoin="round" stroke-width="2.4893"/>
   <polygon class="cls-6" transform="matrix(-2.2569 0 0 -2.0461 673.1 782.37)" points="35.97 47.38 31.67 42.37 34.53 42.37 30.24 37.36 25.95 42.37 28.81 42.37 24.52 47.38 28.09 47.38 24.52 51.68 30.24 51.68 35.97 51.68 32.39 47.38" fill="#55d400" stroke="#333" stroke-linecap="round" stroke-linejoin="round" stroke-width=".79906"/>
   <g stroke-width="5.0204">
    <path class="cls-7" d="m636.57 662.36c1.6162-4e-3 3.1597-0.60905 4.2708-1.6731 1.0642-1.0894 1.6134-2.5144 1.5291-3.9676-4.3975-62.943-61.988-111.95-131.55-111.95s-127.15 49.01-131.55 111.95c-0.15499 1.4616 0.40378 2.9115 1.529 3.9676 1.0701 1.0939 2.6054 1.7202 4.2181 1.7209 90.999-25.824 173.93-22.461 251.56-0.0478z" fill="#06f"/>
    <path class="cls-8" d="m393.03 660.06c15.252-52.484 56.067-86.593 117.76-87 59.864-0.39509 112.21 36.575 127.47 89.06 0.97232-0.28968 1.8569-0.78067 2.5836-1.4341 1.0642-1.0894 1.6134-2.5144 1.5291-3.9676-4.3975-62.943-61.988-111.95-131.55-111.95-69.564 0-127.22 51.951-131.62 114.89-0.155 1.4617 2.726 4.6623 3.8513 5.7184 0.68798 0.67351 9.0126-5.5824 9.9819-5.3168z" fill="#0b428c"/>
    <path class="cls-8" d="m453.72 650.86c15.252-52.484 20.212-63.277 80.077-63.277 59.865 0 75.005 23.513 104.46 74.528 0.97232-0.28968 1.8569-0.78067 2.5836-1.4341 1.0642-1.0894 1.6134-2.5144 1.5291-3.9676-4.3975-62.943-52.795-101.4-122.36-101.4-58.127 0.79775-128.64 54.759-122.23 102.78 0.68798 0.67352 54.964-7.4939 55.933-7.2284z" fill="#145dbf"/>
   </g>
   <path class="cls-6" d="m599.15 650.75c7.9966-0.42853 0.87475-5.9508 0.87475-13.213 0-7.2626-2.4444-17.708-10.441-18.137-6.663-0.0775-12.515-4.0324-14.5-9.7996l-12.602-36.617c-1.9706-5.5348-8.0788-8.9563-14.42-8.0773-6.3414 0.879-11.043 5.7989-11.099 11.615v9.5606c-3e-3 10.359-4.5347 20.294-12.602 27.63-7.9143 6.713-10.143 15.541-10.171 30.565 41.629 0.0743 65.009 2.4324 84.96 6.4737z" fill="#6f0" stroke="#333" stroke-linecap="round" stroke-linejoin="round" stroke-width="2.8992"/>
   <path class="cls-5" d="m422.12 574.92v22.276c0 10.772 9.6314 19.504 21.512 19.504 8.9689 0 16.24-6.5918 16.24-14.723 0.11315-7.1842 5.9293-13.245 13.762-14.341l4.0072-0.57364c18.637-2.601 19.304-2.0801 21.265-19.083l2.9527-22.42c-36.466 2.1114-54.702 10.419-79.738 29.361z" fill="#55d400" stroke="#333" stroke-linecap="round" stroke-linejoin="round" stroke-width="2.8992"/>
   <path class="cls-5" d="m430.3 572.61v15.038c0 7.2714 3.3193 16.051 11.34 16.051 6.0546 0 10.963-4.4499 10.963-9.9391 0.0763-4.8498 7.185-14.712 12.472-15.451l2.7051-0.38724c12.581-1.7558 13.031-1.4042 14.355-12.882l2.8713-14.566c-27.103 0.97067-37.805 9.35-54.706 22.137z" fill="#6f0"/>
   <g stroke="#333">
    <path class="cls-5" d="m636.57 662.36c1.6162-4e-3 3.1597-0.60905 4.2708-1.6731 1.0642-1.0894 1.6134-2.5144 1.5291-3.9676-4.3975-62.943-61.988-111.95-131.55-111.95s-127.15 49.01-131.55 111.95c-0.15499 1.4616 0.40378 2.9115 1.529 3.9676 1.0701 1.0939 2.6054 1.7202 4.2181 1.7209 82.591-19.955 116.84-19.063 166.64-16.847 35.12 1.5629 65.785 7.6301 84.921 16.799z" fill="none" stroke-linecap="round" stroke-linejoin="round" stroke-width="3.7878"/>
    <path d="m569.3 670.22s8.6772-7.398-17.343-6.8146c-34.572-22.316-78.372-2.5043-39.132 1.1417l21.328 8.13c16.843 4.5415 22.07 2.5502 35.147-2.457z" fill="#00b8f0" stroke-width="1.4947"/>
    <line class="cls-5" x1="576.8" x2="576.8" y1="656.77" y2="670.66" fill="none" stroke-linecap="round" stroke-linejoin="round" stroke-width="3.4007"/>
    <path d="m543.5 684.18c-34.196 26.662-30.156 35.95-61.947-1.1522 26.733-7.0879 38.089-8.5998 61.947 1.1522z" fill="#4a0" stroke-width="1.7171"/>
   </g>
   <g transform="matrix(.044844 0 0 -.040657 531.34 597.54)" stroke-miterlimit="10">
    <path d="m1585.5-1566.8c-44.379 0-85.409 3.785-118.75 10.197-21.078-6.309-49.922-10.197-81.741-10.197-64.56 0-116.9 16.004-116.9 35.746 0 19.74 52.335 35.742 116.9 35.742 3.339 0 6.644-0.045 9.912-0.129 27.819 20.738 102.64 35.59 190.58 35.59 111.66 0 202.18-23.941 202.18-53.473-1e-3 -29.532-90.52-53.476-202.18-53.476z" fill="#000" opacity=".2" stroke-width="3.9178"/>
    <g stroke="#231f20" stroke-linecap="round" stroke-linejoin="round" stroke-width="16.66">
     <path d="m1645.3-1538.5h-44.756l-1.826 15.59 8.644 1.691c1.83 5.633 7.647 9.756 14.556 9.756h23.383c8.373 0 15.162-6.053 15.162-13.518 0-7.469-6.789-13.519-15.163-13.519z" fill="#231f20"/>
     <path d="m1527.3-1538.5h-44.755l-1.827 15.59 8.645 1.691c1.829 5.633 7.646 9.756 14.555 9.756h23.383c8.373 0 15.162-6.053 15.162-13.518-1e-3 -7.469-6.79-13.519-15.163-13.519z" fill="#231f20"/>
     <path d="m1716-1786c11.2 13.777-38.695 54.34-49.896 40.561l-45.446-55.902c-11.2-13.775-9.11-34.027 4.667-45.227 13.778-11.201 34.029-9.113 45.229 4.666z" fill="#bfbebe"/>
     <path d="m1695.1-1675.6c-25.444-165.12-138.54-285.39-138.54-285.39s-57.613 143.66-98.482 226.18c-25.924 47.621-16.675 75.305-16.554 75.443l35.005 121.8s33.712 6.715 67.384 0l30.165-57.24 19.966 57.24c29.852 6.715 66.794 0 66.794 0 40.553-64.931 34.259-138.03 34.259-138.03z" fill="#3f4f56"/>
     <path d="m1665.5-1782.6c-23.458-84.844-108.98-178.36-108.98-178.36l-96.229 193.51s62.252-4.035 75.176-54.061h96.571s15.333 36.728 33.458 38.906z" fill="#bfbebe"/>
     <path d="m1553.9-1823.9c-1.41 3.252-11.018 8.914-11.018 8.914l-12.177-7.25s0.757-40.006-4.678-65.264l23.195-1.664s5.913 36.524 4.678 65.264z" fill="#3f4f56"/>
     <path d="m1635.2-1822.5-7.555 8.729-12.691-7.271s0.159-36.82-10.043-62.414c2.726-3.74 14.802-5.836 18.296-2.803 6.966 14.078 11.993 63.759 11.993 63.759z" fill="#3f4f56"/>
     <path d="m1822-2086.4c-7.871-148.92-104.33-263.86-249.32-255.77-145 8.082-256.16 135.35-248.3 284.27 6.087 115.1 102.42 172.48 212.81 188.87 23.186 6.883 28.048 21.91 123.76 19.256 73.75-2.047 91.313-33.771 109.73-57.021 41.38-35.059 55.895-93.113 51.323-179.6z" fill="#efcfac"/>
     <path d="m1505.6-1756.3c0 11.16-9.048 20.209-20.209 20.209h-25.081c-11.162 0-20.21-9.049-20.21-20.209 0-11.162 9.048-20.211 20.21-20.211h25.081c11.161 1e-3 20.209 9.049 20.209 20.211z" fill="#efcfac"/>
    </g>
    <g fill="#231f20" stroke-width="3.9178">
     <path d="m1661-1849.8c71.964-1.996 90.43-32.248 108.39-55.314-7.229 8.711-25.736 41.111-108.03 42.123 0 0-122.3 5.809-135.27-39.008 0 0-3.59 23.383 11.154 32.943 23.576 5.385 28.048 21.91 123.76 19.256z" opacity=".3"/>
     <path d="m1735.1-2019.2c-6.616 0.182-11.828 5.695-11.648 12.309 0.179 6.616 5.686 11.834 12.302 11.65 6.622-0.18 11.835-5.687 11.654-12.313-0.179-6.609-5.694-11.826-12.308-11.646z"/>
     <path d="m1567.9-2019.2c-6.616 0.182-11.828 5.695-11.647 12.309 0.178 6.616 5.686 11.834 12.302 11.65 6.622-0.18 11.835-5.687 11.653-12.313-0.178-6.609-5.693-11.826-12.308-11.646z"/>
    </g>
    <g fill="none" stroke="#231f20" stroke-linecap="round" stroke-linejoin="round" stroke-width="11.451">
     <path d="m1482.1-1660.9s0.063 24.914-21.116 28.809"/>
     <path d="m1590.3-1548.2s36.386 5.557 75.517 2.146"/>
     <path d="m1473.5-1548.5s29.843 4.414 75.445 1.492"/>
     <path d="m1672.9-1663.6s-0.756 16.609 15.807 23.916"/>
    </g>
    <path d="m1519.1-1808.2-23.555 53.979c-7.103 16.271-66.037-9.445-58.936-25.719l28.815-66.031c7.103-16.275 26.053-23.711 42.328-16.609" fill="#bfbebe" stroke="#231f20" stroke-linecap="round" stroke-linejoin="round" stroke-width="16.66"/>
    <g fill="none" stroke="#231f20" stroke-linecap="round" stroke-linejoin="round">
     <g stroke-width="11.451">
      <path d="m1440.1-1788s13.399 20.521 33.715 23.635"/>
      <path d="m1695.1-1676.8s-92.353 6.668-212.35-1.332"/>
      <path d="m1628.3-1807.2h-81.418s-10.796 25.818-29.688 32.639"/>
     </g>
     <path d="m1571.4-1913.7c9.79 15.182 144.52 20.459 163.62 0" stroke-width="16.66"/>
    </g>
    <g stroke="#231f20" stroke-linecap="round" stroke-linejoin="round" stroke-width="16.66">
     <path d="m1475.1-2115.4s-12.34 43.092 0 72.213c0 0-39.66-12.88-49.66-56.213 0 0-84.177 29.432-67.434 138.24-45.241-44.317-139.74-341.3 182.11-395.3 0 0 256.87-41.966 279.5 243 1e-3 0-165.68-42.882-344.51-1.95z" fill="#c1853e"/>
     <path d="m1779.2-2248.5s55.497 25.499 55.497 154.49c0 0-38.998-29.999-90.588-32.677" fill="#c1853e"/>
     <path d="m1439-2070.4c0.955-36.448-12.185-64.054-46.461-64.94-34.277-0.903-62.4 11.122-63.353 47.568-0.947 36.44 18.15 83.821 52.436 84.712 40.465 5.158 52.485-17.046 54.561-30.938" fill="#efcfac"/>
     <path d="m1447.7-2162.1c-38.938-17.357-39.676-48.882-39.676-48.882l-51.759 43.524c-53.998-249.6 271.49-278.99 320.58-172.22 0 0 138.4-18.269 157.9 130.22 0 0-59.997-37.498-94.495-23.999" fill="#c1853e"/>
     <path d="m1471.5-2135.4c0.191 2.418-5.81 68.416 61.688 74.416 0 0 72.219-104.66 172.49-86.996" fill="#c1853e"/>
    </g>
    <g id="g4138_12_" stroke-width="3.9178">
     <path d="m1728.6-1791.9c-16.711-1.98-27.006-5.814-48.887 0.656-11.63 7.541-10.58 14.918-19.813 23.041-5.761 0.34-11.021 0.686-17.177 0.971-4.859 0.229-5.062 5.453-4.726 10.951l-0.092 0.01c0.065 0.34 0.118 0.703 0.166 1.076 0.082 1.16 0.173 2.32 0.239 3.436 0.038 1.119 0.052 2.281 0.077 3.445-0.015 0.373-0.032 0.74-0.067 1.082h0.092c0.17 5.512 0.854 10.693 5.714 10.475 6.156-0.279 11.421-0.418 17.193-0.609 9.94 7.238 9.572 14.686 21.842 21.127 22.387 4.428 32.281-0.336 48.74-3.842 22.032-3.02 22.543 3.912 63.422 0.49 8.583-0.311 17.22-8.322 16.619-17.113l-0.765-16.617-0.585-12.75-0.766-16.621c-0.21-8.809-9.547-15.99-18.122-15.514-41.017 0.345-40.891 7.294-63.104 6.31z" fill="#99fff0"/>
     <g opacity=".8">
      <path d="m1746.2-1793.1c-1.089 0.215-2.185 0.402-3.306 0.576 0 0-0.324 25.557-9.845 42.795-11.636 21.066 13.15 29.01 13.15 29.01 1.131 0.066 2.238 0.158 3.345 0.268 7.239 0.715 14.451 2.148 29.266 1.811l-3.632-78.949c-14.783 1.023-21.833 3.112-28.978 4.489z" enable-background="new    " fill="#f0f"/>
      <path d="m1776.6-1797.7c-0.458 0.027-0.927 0.055-1.372 0.082l3.632 78.949c0.445-0.014 0.916-0.025 1.374-0.043 4.343-0.129 9.287-0.396 15.067-0.881 8.583-0.311 17.22-8.322 16.619-17.113l-0.765-16.617-0.585-12.75-0.766-16.621c-0.21-8.809-9.547-15.99-18.122-15.514-5.799 0.051-10.746 0.239-15.082 0.508z" enable-background="new    " fill="#f00"/>
     </g>
     <g id="g4051_31_" transform="translate(1.1866 -.51496)" fill="none" stroke="#231f20" stroke-linecap="round" stroke-linejoin="round">
      <path id="path3346-5-5_31_" d="m1636.7-1755.8c1.318 6.576-1.502 19.861 6.221 19.512 6.156-0.279 11.421-0.418 17.193-0.609 9.94 7.238 9.572 14.686 21.842 21.127 22.387 4.428 32.281-0.336 48.74-3.842 22.032-3.02 22.543 3.912 63.422 0.49 8.583-0.311 17.22-8.322 16.619-17.113l-1.35-29.367"/>
      <path id="path4049_31_" d="m1637.1-1746.7c0.71-6.66-3.319-19.633 4.402-19.998 6.156-0.285 11.416-0.631 17.177-0.971 9.233-8.123 8.184-15.5 19.813-23.041 21.881-6.471 32.176-2.637 48.887-0.656 22.214 0.984 22.088-5.965 63.105-6.311 8.575-0.477 17.912 6.705 18.122 15.514l1.351 29.371"/>
     </g>
     <path d="m1714-1779c4.461-0.189 8.23 3.271 8.42 7.73 0.191 4.461-3.269 8.23-7.731 8.424l-18.974 0.809c-4.461 0.189-8.231-3.271-8.423-7.73-0.19-4.463 3.273-8.23 7.733-8.422z" fill="#fff"/>
     <path d="m1648.9-1771.2h-17.666c-3.646 0-6.601 8.869-6.601 19.811s2.955 19.811 6.601 19.811h17.666c3.646 0 6.601-8.869 6.601-19.811s-2.956-19.811-6.601-19.811z" fill="#99fff0" stroke="#231f20"/>
     <ellipse cx="1630.3" cy="-1751.4" rx="5" ry="15.008" fill="#99fff0" stroke="#231f20"/>
    </g>
    <g stroke-width="3.9178">
     <path d="m1753.1-1761.5c12.813 3.725 21.793-5.953 21.858-15.85 15.433-3.74 5.994-25.865 5.994-25.865-5.054-17.443-23.055-27.807-40.804-24.459 0 0-35.491 3.758-33.412 32.961 10.958 1.359 17.134 0.025 18.021 10.916 0 0 1.189 33.121 28.343 22.297z" fill="#efcfac" stroke="#231f20" stroke-linecap="round" stroke-linejoin="round"/>
     <g fill="#231f20">
      <path d="m1772.8-1776.9s-0.142-1.356-0.413-3.423c-0.269-2.059-0.658-4.804-1.146-7.531-0.484-2.728-1.07-5.437-1.657-7.429-0.142-0.5-0.281-0.956-0.429-1.35-0.146-0.396-0.249-0.755-0.382-1.025-0.247-0.559-0.388-0.877-0.388-0.877s0.201 0.286 0.554 0.788c0.189 0.247 0.358 0.576 0.583 0.943 0.228 0.367 0.456 0.794 0.696 1.264 0.983 1.874 2.107 4.465 3.132 7.091 1.029 2.625 1.962 5.283 2.641 7.287 0.677 1.997 1.101 3.363 1.101 3.363v0.016c0.361 1.162-0.289 2.396-1.451 2.758s-2.396-0.289-2.758-1.451c-0.043-0.137-0.073-0.286-0.088-0.424z"/>
      <path d="m1750.9-1761.4s0.012-0.695-0.014-1.832c-1e-3 -1.14-0.089-2.817-0.174-4.825-0.054-1.004-0.147-2.092-0.226-3.244-0.083-1.152-0.161-2.369-0.308-3.623-0.132-1.256-0.268-2.555-0.406-3.874-0.117-1.324-0.352-2.651-0.525-3.99-0.188-1.339-0.375-2.677-0.561-3.994-0.231-1.31-0.46-2.599-0.681-3.847-0.225-1.249-0.442-2.457-0.648-3.602-0.185-1.152-0.467-2.214-0.678-3.208-0.892-3.972-1.486-6.619-1.486-6.619s0.859 2.577 2.148 6.442c0.311 0.971 0.702 2.01 1.002 3.139 0.322 1.124 0.662 2.31 1.014 3.536 0.349 1.23 0.709 2.501 1.075 3.792 0.32 1.304 0.644 2.628 0.969 3.952 0.31 1.329 0.684 2.647 0.936 3.968 0.274 1.317 0.544 2.614 0.806 3.869 0.277 1.254 0.481 2.478 0.684 3.639 0.199 1.161 0.406 2.256 0.563 3.274 0.296 2.042 0.558 3.736 0.685 4.967 0.151 1.229 0.205 1.889 0.205 1.889l0.01 0.05c0.099 1.209-0.8 2.27-2.009 2.369-1.208 0.099-2.269-0.8-2.368-2.009-0.01-0.072-0.01-0.147-0.01-0.219z"/>
     </g>
     <path d="m1609-1755.1-135.23 12.76 1.034 10.951 135.19-13.189c2.905-0.275 5.038-2.854 4.764-5.758-0.274-2.905-2.852-5.04-5.757-4.764z" fill="#c98441" stroke="#231f20" stroke-linecap="round" stroke-linejoin="round"/>
     <path d="m1498.5-1711.5c-10.171 8.637-22.324 3.477-26.429-5.525-15.612 2.893-16.046-21.156-16.046-21.156-2.519-17.982 12.763-30.656 27.737-33.719 36.49-7.459 48.579 26.172 31.485 28.465 1e-3 0 12.459 30.713-16.747 31.935z" fill="#efcfac" stroke="#231f20" stroke-linecap="round" stroke-linejoin="round"/>
     <g fill="#231f20">
      <path d="m1469.9-1716.5s-0.172-1.42-0.371-3.52c-0.201-2.106-0.436-4.914-0.57-7.73-0.139-2.814-0.172-5.639-0.041-7.751 0.027-0.528 0.062-1.011 0.119-1.438 0.055-0.427 0.074-0.797 0.146-1.1 0.116-0.602 0.183-0.945 0.183-0.945v0.959c-0.011 0.301 0.042 0.672 0.07 1.092 0.026 0.42 0.086 0.893 0.161 1.407 0.278 2.058 0.852 4.771 1.525 7.458 0.669 2.688 1.436 5.354 2.032 7.342 0.598 1.996 1.023 3.292 1.023 3.293 0.379 1.156-0.251 2.4-1.407 2.78-1.156 0.379-2.401-0.251-2.78-1.407-0.045-0.137-0.075-0.273-0.093-0.411z"/>
      <path d="m1496.4-1710.7s-0.22-0.625-0.584-1.809c-0.387-1.175-0.842-2.827-1.406-4.812-0.272-0.993-0.532-2.077-0.825-3.219-0.289-1.142-0.604-2.342-0.863-3.6-0.274-1.252-0.559-2.546-0.847-3.86-0.31-1.308-0.508-2.664-0.768-4.003-0.246-1.341-0.491-2.683-0.732-4.003-0.194-1.328-0.385-2.635-0.569-3.899-0.181-1.263-0.355-2.483-0.521-3.642-0.188-1.152-0.255-2.261-0.369-3.274-0.403-4.054-0.673-6.757-0.673-6.757s0.54 2.659 1.35 6.647c0.214 0.993 0.39 2.078 0.692 3.205 0.281 1.129 0.576 2.319 0.882 3.552 0.308 1.229 0.627 2.498 0.95 3.789 0.37 1.277 0.746 2.575 1.122 3.873 0.39 1.292 0.717 2.601 1.152 3.856 0.414 1.26 0.82 2.501 1.214 3.701 0.378 1.204 0.805 2.347 1.2 3.432 0.399 1.084 0.758 2.115 1.121 3.053 0.743 1.867 1.349 3.434 1.814 4.474 0.44 1.049 0.735 1.678 0.735 1.678 0.516 1.098 0.044 2.406-1.054 2.921-1.098 0.516-2.406 0.044-2.921-1.054-0.03-0.066-0.058-0.133-0.082-0.2z"/>
     </g>
     <path d="m1420.4-1561.7c0 13.807-11.193 25-25 25h-32c-13.808 0-25-11.193-25-25v-53.145c0-13.807 11.192-25 25-25h32c13.807 0 25 11.193 25 25z" enable-background="new    " fill="#0f0" stroke="#231f20" stroke-linecap="round" stroke-linejoin="round"/>
     <path d="m1410.9-1566.3c0 12.93-11.193 23.41-25 23.41h-15.66c-13.808 0-25-10.48-25-23.41v-38.201c0-12.93 11.192-23.41 25-23.41h15.66c13.807 0 25 10.48 25 23.41z" fill="#fff" opacity=".5"/>
     <polygon points="1329.7 -1651.6 1333.2 -1638.9 1309 -1615.6 1339.2 -1621.2 1358.1 -1549.5 1290 -1530.5 1265.3 -1619.1" enable-background="new    " fill="#ff0" stroke="#231f20" stroke-linecap="round" stroke-linejoin="round"/>
     <circle cx="1313.5" cy="-1577.9" r="23.784" fill="#fff"/>
     <path d="m1395.4-1534.1c0 11.529-21.49 20.877-48 20.877s-48-9.348-48-20.877c0-11.531-4.51-50.221 22-50.221s74 38.69 74 50.221z" enable-background="new    " fill="#f0f" stroke="#231f20" stroke-linecap="round" stroke-linejoin="round"/>
     <path d="m1338.4-1553.3c0 6.074-4.925 11-11 11s-11-4.926-11-11c0-6.076 4.925-11 11-11 6.076 0 11 4.924 11 11z" fill="#fff" opacity=".5"/>
     <path d="m1360.9-1536.2c0 2.729-2.212 4.941-4.94 4.941-2.729 0-4.941-2.213-4.941-4.941 0-2.729 2.212-4.941 4.941-4.941 2.728-1e-3 4.94 2.212 4.94 4.941z" fill="#fff" opacity=".5"/>
    </g>
   </g>
   <polygon class="cls-6" transform="matrix(-3.5716 0 0 -3.2381 730.8 840.86)" points="38.83 43.8 41.69 43.8 37.4 48.81 40.98 48.81 37.4 53.11 43.12 53.11 48.85 53.11 45.27 48.81 48.85 48.81 44.55 43.8 47.42 43.8 43.12 38.8" fill="#4a0" stroke="#333" stroke-linecap="round" stroke-linejoin="round" stroke-width=".50493"/>
   <g>
    <path d="m538.77 685.67c-27.289 21.033-25.48 24.975-50.851-4.2928 21.334-5.5913 31.812-3.4001 50.851 4.2928z" fill="#55d400" opacity=".5"/>
    <path d="m514.59 674.62c-56.06 47.968-57.185 61.992-109.3-4.7585 43.826-12.752 70.191-12.786 109.3 4.7585z" fill="#4a0" stroke="#333" stroke-width="1.7171"/>
    <path d="m510.54 676.39c-44.737 39.911-53.61 49.041-95.201-6.4967 34.974-10.61 63.989-8.101 95.201 6.4967z" fill="#55d400" opacity=".5"/>
   </g>
   <line class="cls-5" x1="463.64" x2="463.64" y1="654.93" y2="672.85" fill="none" stroke="#333" stroke-linecap="round" stroke-linejoin="round" stroke-width="3.7468"/>
   <line class="cls-5" x1="438.7" x2="438.7" y1="659.68" y2="674.73" fill="none" stroke="#333" stroke-linecap="round" stroke-linejoin="round" stroke-width="3.4336"/>
   <g transform="matrix(-.42758 0 0 -.38765 461.05 682.84)">
    <g transform="matrix(.63972 0 0 .63972 41.723 10.153)">
     <ellipse transform="matrix(.064241 0 0 .064241 88.416 14.961)" cx="-410.88" cy="903.87" rx="221.43" ry="96.698" fill="#000" opacity=".2" stroke-width=".8788"/>
     <path transform="matrix(.064241 0 0 .064241 88.416 14.961)" d="m-256.68 597.21c10.146-64.939 26.602-104.58 4.508-190.93-27.758-46.496-56.703-43.457-87.078-80.682-0.495-22.531-1.084-43.114-1.307-67.185-0.189-19.007-20.554-20.558-42.066-20.037l-0.015-0.36c-1.336 0.211-2.7629 0.363-4.2269 0.49-4.5391 0.153-9.0821 0.344-13.446 0.443-4.3729-0.018-8.913-0.131-13.459-0.199-1.454-0.1091-2.886-0.228-4.217-0.42v0.359c-21.543-0.13-41.868 1.786-41.717 20.791 0.2 24.069-0.02 44.646-0.1079 67.2-29.692 37.765-58.711 35.245-85.63 82.208-20.522 86.752-3.358 126.06 7.947 190.82 8.601 86.446-18.532 87.433-11.085 247.5 0 70.591 79.621 86.599 150.75 86.599 71.128 0 156.66-13.825 156.66-89.344 4.583-160.17-22.563-160.68-15.507-247.26z" fill="#99fff0"/>
     <path transform="matrix(.064241 0 0 .064241 88.416 14.961)" d="m-256.68 597.21c10.146-64.939 26.602-104.58 4.508-190.93-27.758-46.496-56.703-43.457-87.078-80.682-0.495-22.531-1.084-43.114-1.307-67.185-0.189-19.007-20.554-20.558-42.066-20.037l-0.015-0.36c-1.336 0.211-2.7629 0.363-4.2269 0.49-4.5391 0.153-9.0821 0.344-13.446 0.443-4.3729-0.018-8.913-0.131-13.459-0.199-1.454-0.1091-2.886-0.228-4.217-0.42v0.359c-21.543-0.13-41.868 1.786-41.717 20.791 0.2 24.069-0.02 44.646-0.1079 67.2-29.692 37.765-58.711 35.245-85.63 82.208-20.522 86.752-3.358 126.06 7.947 190.82 8.601 86.446-18.532 87.433-11.085 247.5 0 70.591 79.621 86.599 150.75 86.599 71.128 0 156.66-13.825 156.66-89.344 4.583-160.17-22.563-160.68-15.507-247.26z" fill="none" stroke="#231f20" stroke-linecap="round" stroke-linejoin="round" stroke-miterlimit="10" stroke-width="12.376"/>
     <g>
      <g>
       <path transform="matrix(.064241 0 0 .064241 88.416 14.961)" d="m-281.33 407.02c-31.619-40.601-78.237-43.035-78.971-85.28-20.373 9.702-55.832 10.123-74.706 0.6546 2.5151 40.516-60.303 58.145-82.797 94.813-24.739 48.75-3.483 152.78-3.483 152.78l52.343 112.71h108.31l89.506-114.13c12.203-95.874 1.0072-147.16-10.197-161.55z" enable-background="new    " fill="#ff0"/>
       <path transform="matrix(.064241 0 0 .064241 88.416 14.961)" d="m-264.86 779.04c-1.376-49.433-7.243-73.229-10.78-97.233-0.531-3.659-1.026-7.339-1.43-11.102 0 0-73.958-34.182-142.4 11.469-33.215 22.154-91.433-10.369-91.433-10.369-0.383 3.77-0.812 7.455-1.313 11.125-3.287 24.03-8.897 47.884-9.752 97.326 0 0 41.325-12.488 96.159 10.539 79.608 33.442 160.95-11.755 160.95-11.755z" enable-background="new    " fill="#ff7400"/>
       <path transform="matrix(.064241 0 0 .064241 88.416 14.961)" d="m-419.47 682.18c68.443-45.65 142.4-11.469 142.4-11.469-1.444-13.404-4.1305-27.128-2.4685-47.105 1.9743-18.437 3.2371-36.394 8.4073-55.033 0 0-80.275 45.191-156.94 0.9718-51.458-29.68-93.214 0.448-93.214 0.448 2.896 17.06 6.808 34.067 10.1 53.824 1.872 19.968 1.573 34.592 0.282 47.993 0 1e-3 58.217 32.525 91.433 10.37z" enable-background="new    " fill="#f0f"/>
       <path transform="matrix(.064241 0 0 .064241 88.416 14.961)" d="m-264.77 783.63c-0.021-1.521-0.068-3.097-0.091-4.583 0 0-81.342 45.196-160.95 11.755-54.834-23.027-96.159-10.539-96.159-10.539-0.022 1.49-0.028 3.061-0.048 4.594-0.153 14.498 0.073 31.016 0.876 50.343 0 54.962 81.585 67.332 128.85 67.332 52.44 0 127.18-10.913 127.18-68.535 0.168-19.346 0.636-35.867 0.341-50.367z" fill="#0f0"/>
      </g>
      <path transform="matrix(.064241 0 0 .064241 88.416 14.961)" d="m-520.34 578.22c-10.362-43.07-12.239-91.328-7.4717-136.98 55.436 5.3733 64.225 33.398 115.81 36.072 39.382 0.9962 116.22-42.968 144.92-34.174 4.9573 38.72 4.2447 68.492-4.0558 125.44-30.144 18.315-56.931 23.025-87.074 22.018-43.584-0.1223-62.113-21.568-109.48-32.908-20.674-4.594-33.316 5.2315-52.649 20.538z" fill="#f0f"/>
     </g>
     <g stroke="#231f20">
      <path transform="matrix(.064241 0 0 .064241 88.416 14.961)" d="m-323.07 283.37-4.673-67.715c0.526-14.221-26.441-28.291-69.154-29.874-42.711-1.583-71.475 9.104-72.002 23.327l-8.838 68.531c-0.53 14.24 33.667 27.057 76.377 28.633 42.711 1.59 77.761-8.662 78.29-22.902z" fill="#99fff0" stroke-miterlimit="10" stroke-width="12.375"/>
      <path transform="matrix(.064241 0 0 .064241 88.416 14.961)" d="m-323.31 256.07 0.578-69.009c0.117-14.232-34.43-26.07-77.171-26.425-42.738-0.36-77.477 10.896-77.6 25.124l-0.578 69.01c-0.121 14.25 34.428 26.083 77.165 26.434 42.743 0.367 77.485-10.887 77.606-25.134z" fill="#2479b3" stroke-miterlimit="10" stroke-width="12.375"/>
      <ellipse transform="matrix(.064241 0 0 .064241 88.416 14.961)" cx="-400.9" cy="182.6" rx="76.77" ry="24.052" fill="#3f9ad8" stroke-width="10.314"/>
     </g>
     <path transform="matrix(.064241 0 0 .064241 88.416 14.961)" d="m-357.85 423.34c3.6708-12.811 5.1434-18.436 30.286-15.143 51.297 34.989 44.889 61.173 44.419 106-1.8982 17.769-41.535 14.391-42.115 4.4563 5.3364-42.677 1.6747-73.421-32.59-95.314z" fill="#fff"/>
     <flowRoot transform="matrix(0 -.1997 .19551 0 35.038 178.69)" fill="#000000" font-family="'Roadshow IAIC 2013'" font-size="40px" letter-spacing="0px" opacity=".8" word-spacing="0px" style="line-height:0px" xml:space="preserve"><flowRegion><rect x="573.7" y="135.07" width="115.75" height="89.879"/></flowRegion><flowPara font-size="27.231px" text-align="center" text-anchor="middle" style="line-height:15px">C 76345</flowPara><flowPara font-size="13.333px" text-align="center" text-anchor="middle" style="line-height:15px"/><flowPara font-size="13.333px" text-align="center" text-anchor="middle" style="line-height:15px"/><flowPara font-size="13.333px" text-align="center" text-anchor="middle" style="line-height:15px"/><flowPara font-size="13.333px" text-align="center" text-anchor="middle" style="line-height:15px"/><flowPara font-size="13.333px" text-align="center" text-anchor="middle" style="line-height:15px"/><flowPara font-size="19.805px" text-align="center" text-anchor="middle" style="line-height:15px"/></flowRoot>
     <flowRoot transform="matrix(.27328 0 0 .26177 -107.81 28.402)" fill="#000000" font-family="'Roadshow IAIC 2013'" font-size="40px" letter-spacing="0px" word-spacing="0px" style="line-height:0px" xml:space="preserve"><flowRegion><rect x="573.7" y="135.07" width="92.8" height="92.738"/></flowRegion><flowPara font-size="13.333px" text-align="center" text-anchor="middle" style="line-height:16.8412px"/><flowPara font-size="13.333px" text-align="center" text-anchor="middle" style="line-height:16.8412px">234g</flowPara><flowPara font-size="13.333px" text-align="center" text-anchor="middle" style="line-height:16.8412px"/></flowRoot>
    </g>
    <g transform="matrix(.70644 0 0 .70644 30.84 14.035)">
     <g transform="matrix(1.04 0 0 1.04 1.2881 -6.4333)">
      <ellipse transform="matrix(.75271 0 0 .75271 -1.4239 -13.292)" cx="59.783" cy="122.95" rx="23.05" ry="9.3295" fill="#000" opacity=".2" stroke-width=".08807"/>
      <g transform="matrix(.072623 0 0 .072623 112.53 15.28)">
       <path d="m-812.7 574.27c10.146-64.939 26.602-104.58 4.508-190.93-27.758-46.496-56.703-43.457-87.078-80.682-0.495-22.531-1.084-43.114-1.307-67.185-0.189-19.007-20.554-20.558-42.066-20.037l-0.015-0.36c-1.336 0.211-2.763 0.363-4.227 0.49-4.539 0.153-9.082 0.344-13.446 0.443-4.373-0.018-8.913-0.131-13.459-0.199-1.454-0.109-2.886-0.228-4.217-0.42l-2e-3 0.359c-21.543-0.13-41.868 1.786-41.717 20.791 0.2 24.069-0.02 44.646-0.108 67.2-29.692 37.765-58.711 35.245-85.63 82.208-20.522 86.752-3.358 126.06 7.947 190.82 8.601 86.446-18.532 87.433-11.085 247.5 0 70.591 79.621 86.599 150.75 86.599 71.128 0 156.66-13.825 156.66-89.344 4.583-160.17-22.563-160.68-15.507-247.26z" fill="#99fff0"/>
       <path d="m-812.7 574.27c10.146-64.939 26.602-104.58 4.508-190.93-27.758-46.496-56.703-43.457-87.078-80.682-0.495-22.531-1.084-43.114-1.307-67.185-0.189-19.007-20.554-20.558-42.066-20.037l-0.015-0.36c-1.336 0.211-2.763 0.363-4.227 0.49-4.539 0.153-9.082 0.344-13.446 0.443-4.373-0.018-8.913-0.131-13.459-0.199-1.454-0.109-2.886-0.228-4.217-0.42l-2e-3 0.359c-21.543-0.13-41.868 1.786-41.717 20.791 0.2 24.069-0.02 44.646-0.108 67.2-29.692 37.765-58.711 35.245-85.63 82.208-20.522 86.752-3.358 126.06 7.947 190.82 8.601 86.446-18.532 87.433-11.085 247.5 0 70.591 79.621 86.599 150.75 86.599 71.128 0 156.66-13.825 156.66-89.344 4.583-160.17-22.563-160.68-15.507-247.26z" fill="none" stroke="#231f20" stroke-linecap="round" stroke-linejoin="round" stroke-miterlimit="10" stroke-width="12.376"/>
       <path d="m-837.35 384.08c-31.619-40.601-78.237-43.035-78.971-85.28-20.373 9.702-55.832 10.123-74.706 0.65458 2.5151 40.516-60.303 58.145-82.797 94.813-24.739 48.75-3.483 152.78-3.483 152.78l52.343 112.71h108.31l89.506-114.13c12.203-95.874 1.0072-147.16-10.197-161.55z" enable-background="new    " fill="#0f0"/>
       <path d="m-820.88 756.1c-1.376-49.433-7.243-73.229-10.78-97.233-0.531-3.659-1.026-7.339-1.43-11.102 0 0-73.958-34.182-142.4 11.469-33.215 22.154-91.433-10.369-91.433-10.369-0.383 3.77-0.812 7.455-1.313 11.125-3.287 24.03-8.897 47.884-9.752 97.326 0 0 41.325-12.488 96.159 10.539 79.608 33.442 160.95-11.755 160.95-11.755z" enable-background="new    " fill="#f0f"/>
       <path d="m-975.49 659.24c68.443-45.65 142.4-11.469 142.4-11.469-1.444-13.404-4.1304-27.128-2.4684-47.105 1.9743-18.437 3.2371-36.395 8.4073-55.033 0 0-80.275 45.191-156.94 0.97175-51.458-29.68-93.214 0.448-93.214 0.448 2.896 17.06 6.808 34.067 10.1 53.824 1.872 19.968 1.573 34.592 0.282 47.993 0 1e-3 58.217 32.525 91.433 10.37z" enable-background="new    " fill="#ff0"/>
       <path d="m-820.79 760.69c-0.021-1.521-0.068-3.097-0.091-4.583 0 0-81.342 45.196-160.95 11.755-54.834-23.027-96.159-10.539-96.159-10.539-0.022 1.49-0.028 3.061-0.048 4.594-0.153 14.498 0.073 31.016 0.876 50.343 0 54.962 81.585 67.332 128.85 67.332 52.44 0 127.18-10.913 127.18-68.535 0.168-19.346 0.636-35.867 0.341-50.367z" fill="#f00"/>
       <path d="m-1076.4 555.28c-10.362-43.07-12.239-91.328-7.4717-136.98 55.436 5.3732 64.225 33.398 115.81 36.072 39.382 0.99621 116.22-42.968 144.92-34.174 4.9573 38.72 4.2447 68.492-4.0558 125.44-30.143 18.315-56.931 23.025-87.074 22.018-43.584-0.12238-62.113-21.568-109.48-32.908-20.674-4.5939-33.316 5.2316-52.649 20.538z" fill="#ff7400"/>
       <g stroke="#231f20">
        <path d="m-879.09 260.43-4.673-67.715c0.526-14.221-26.441-28.291-69.154-29.874-42.711-1.583-71.475 9.104-72.002 23.327l-8.838 68.531c-0.53 14.24 33.667 27.057 76.377 28.633 42.711 1.59 77.761-8.662 78.29-22.902z" fill="#99fff0" stroke-miterlimit="10" stroke-width="12.375"/>
        <path d="m-879.33 233.13 0.578-69.009c0.117-14.232-34.43-26.07-77.171-26.425-42.738-0.36-77.477 10.896-77.6 25.124l-0.578 69.01c-0.121 14.25 34.428 26.083 77.165 26.434 42.743 0.367 77.485-10.887 77.606-25.134z" fill="#2479b3" stroke-miterlimit="10" stroke-width="12.375"/>
        <ellipse cx="-956.92" cy="159.66" rx="76.77" ry="24.052" fill="#3f9ad8" stroke-width="10.314"/>
       </g>
       <path d="m-919.61 387.71c3.996-13.945 5.5989-20.069 32.969-16.484 55.841 38.088 48.866 66.592 48.354 115.39-2.0663 19.343-45.214 15.666-45.846 4.851 5.8092-46.457 1.8231-79.925-35.477-103.76z" fill="#fff"/>
      </g>
      <flowRoot transform="matrix(0 -.23584 .2309 0 10.968 204.14)" fill="#000000" font-family="'Roadshow IAIC 2013'" font-size="40px" letter-spacing="0px" opacity=".75" word-spacing="0px" style="line-height:0px" xml:space="preserve"><flowRegion><rect x="573.7" y="135.07" width="110.81" height="89.833"/></flowRegion><flowPara font-size="27.231px" text-align="center" text-anchor="middle" style="line-height:15px">C 74562</flowPara><flowPara font-size="13.333px" text-align="center" text-anchor="middle" style="line-height:15px"/><flowPara font-size="13.333px" text-align="center" text-anchor="middle" style="line-height:15px"/><flowPara font-size="13.333px" text-align="center" text-anchor="middle" style="line-height:15px"/><flowPara font-size="13.333px" text-align="center" text-anchor="middle" style="line-height:15px"/><flowPara font-size="13.333px" text-align="center" text-anchor="middle" style="line-height:15px"/><flowPara font-size="19.805px" text-align="center" text-anchor="middle" style="line-height:15px"/></flowRoot>
      <flowRoot transform="matrix(.31304 0 0 .29986 -150.82 30.023)" fill="#000000" font-family="'Roadshow IAIC 2013'" font-size="40px" letter-spacing="0px" word-spacing="0px" style="line-height:0px" xml:space="preserve"><flowRegion><rect x="573.7" y="135.07" width="92.8" height="92.738"/></flowRegion><flowPara font-size="13.333px" text-align="center" text-anchor="middle" style="line-height:16.8412px"/><flowPara font-size="13.333px" text-align="center" text-anchor="middle" style="line-height:16.8412px">241g</flowPara><flowPara font-size="13.333px" text-align="center" text-anchor="middle" style="line-height:16.8412px"/></flowRoot>
     </g>
    </g>
    <g transform="matrix(.72891 0 0 .72891 17.659 12.227)">
     <ellipse transform="matrix(.17197 0 0 .17197 163.97 -296.76)" cx="-807.54" cy="2146.8" rx="84.348" ry="35.034" fill="#000" opacity=".2" stroke-width=".32647"/>
     <path transform="matrix(.17197 0 0 .17197 163.97 -296.76)" d="m-764.44 2036.4c3.7901-24.258 9.9374-39.066 1.684-71.323-10.369-17.369-21.182-16.234-32.529-30.139-0.18491-8.4166-0.40494-16.106-0.48824-25.098-0.0706-7.1002-7.6781-7.6796-15.714-7.4849l-6e-3 -0.1345c-0.49907 0.079-1.0321 0.1356-1.579 0.183-1.6956 0.057-3.3926 0.1285-5.0228 0.1655-1.6336-0.01-3.3295-0.049-5.0278-0.074-0.54315-0.041-1.0781-0.085-1.5753-0.1569v0.1341c-8.0476-0.049-15.64 0.6672-15.584 7.7666 0.075 8.9912-0.01 16.678-0.04 25.103-11.092 14.107-21.932 13.166-31.988 30.709-7.6662 32.407-1.2544 47.092 2.9686 71.284 3.213 32.292-6.9227 32.661-4.1409 92.455 0 26.37 29.743 32.35 56.313 32.35 26.57 0 58.522-5.1644 58.522-33.375 1.712-59.833-8.4286-60.024-5.7928-92.365z" fill="#99fff0" stroke-width=".37356"/>
     <path transform="matrix(.17197 0 0 .17197 163.97 -296.76)" d="m-764.44 2036.4c3.7901-24.258 9.9374-39.066 1.684-71.323-10.369-17.369-21.182-16.234-32.529-30.139-0.18491-8.4166-0.40494-16.106-0.48824-25.098-0.0706-7.1002-7.6781-7.6796-15.714-7.4849l-6e-3 -0.1345c-0.49907 0.079-1.0321 0.1356-1.579 0.183-1.6956 0.057-3.3926 0.1285-5.0228 0.1655-1.6336-0.01-3.3295-0.049-5.0278-0.074-0.54315-0.041-1.0781-0.085-1.5753-0.1569v0.1341c-8.0476-0.049-15.64 0.6672-15.584 7.7666 0.075 8.9912-0.01 16.678-0.04 25.103-11.092 14.107-21.932 13.166-31.988 30.709-7.6662 32.407-1.2544 47.092 2.9686 71.284 3.213 32.292-6.9227 32.661-4.1409 92.455 0 26.37 29.743 32.35 56.313 32.35 26.57 0 58.522-5.1644 58.522-33.375 1.712-59.833-8.4286-60.024-5.7928-92.365z" fill="none" stroke="#231f20" stroke-linecap="round" stroke-linejoin="round" stroke-miterlimit="10" stroke-width="4.6232"/>
     <path transform="matrix(.064241 0 0 .064241 88.416 14.961)" d="m-895.01 408.79c-31.619-40.601-78.237-43.035-78.971-85.28-20.373 9.702-55.832 10.123-74.707 0.65458 2.5151 40.516-60.304 58.145-82.798 94.813-24.739 48.75-3.483 152.78-3.483 152.78l52.343 112.71h108.31l89.506-114.13c12.203-95.874 1.0072-147.16-10.197-161.55z" enable-background="new    " fill="#0f0"/>
     <g>
      <path transform="matrix(.064241 0 0 .064241 88.416 14.961)" d="m-878.54 780.82c-1.376-49.433-7.243-73.229-10.78-97.233-0.531-3.659-1.026-7.339-1.43-11.102 0 0-73.958-34.182-142.4 11.469-33.215 22.154-91.433-10.369-91.433-10.369-0.383 3.77-0.812 7.455-1.313 11.125-3.287 24.03-8.897 47.884-9.752 97.326 0 0 41.325-12.488 96.159 10.539 79.608 33.442 160.95-11.755 160.95-11.755z" enable-background="new    " fill="#ff0"/>
      <path transform="matrix(.064241 0 0 .064241 88.416 14.961)" d="m-1033.2 683.95c68.443-45.65 142.4-11.469 142.4-11.469-1.444-13.404-4.1304-27.128-2.4684-47.105 1.9743-18.437 3.2371-36.395 8.4073-55.033 0 0-80.275 45.191-156.94 0.97175-51.458-29.68-93.214 0.448-93.214 0.448 2.896 17.06 6.808 34.067 10.1 53.824 1.872 19.968 1.573 34.592 0.282 47.993 0 1e-3 58.217 32.525 91.433 10.37z" enable-background="new    " fill="#0f0"/>
      <path transform="matrix(.064241 0 0 .064241 88.416 14.961)" d="m-878.45 785.4c-0.021-1.521-0.068-3.097-0.091-4.583 0 0-81.342 45.196-160.95 11.755-54.834-23.027-96.159-10.539-96.159-10.539-0.022 1.49-0.028 3.061-0.048 4.594-0.153 14.498 0.073 31.016 0.876 50.343 0 54.962 81.585 67.332 128.85 67.332 52.44 0 127.18-10.913 127.18-68.535 0.168-19.346 0.636-35.867 0.341-50.367z" fill="#ff7400"/>
      <path transform="matrix(.064241 0 0 .064241 88.416 14.961)" d="m-1134 579.99c-10.362-43.07-12.239-91.328-7.4717-136.98 55.436 5.3732 64.225 33.398 115.81 36.072 39.383 0.99621 116.22-42.968 144.92-34.174 4.9573 38.72 4.2447 68.492-4.0558 125.44-30.143 18.315-56.931 23.025-87.074 22.018-43.584-0.12238-62.113-21.568-109.48-32.908-20.674-4.5939-33.316 5.2316-52.649 20.538z" fill="#f0f"/>
     </g>
     <path transform="matrix(.064241 0 0 .064241 88.416 14.961)" d="m-958.07 411.02c3.6709-12.811 5.1434-18.436 30.286-15.143 51.297 34.989 44.889 61.173 44.419 106-1.8981 17.769-41.535 14.391-42.115 4.4563 5.3365-42.677 1.6747-73.421-32.59-95.314z" fill="#fff"/>
     <g stroke="#231f20">
      <path transform="matrix(.17197 0 0 .17197 163.97 -296.76)" d="m-789.24 1919.1-1.7456-25.295c0.19649-5.3124-9.8772-10.568-25.833-11.16-15.955-0.5913-26.7 3.4009-26.897 8.714l-3.3015 25.6c-0.198 5.3194 12.577 10.107 28.531 10.696 15.955 0.594 29.048-3.2357 29.246-8.5552z" fill="#99fff0" stroke-miterlimit="10" stroke-width="4.6229"/>
      <path transform="matrix(.17197 0 0 .17197 163.97 -296.76)" d="m-789.33 1908.9 0.21592-25.779c0.0437-5.3165-12.862-9.7386-28.828-9.8712-15.965-0.1345-28.942 4.0702-28.988 9.3852l-0.2159 25.779c-0.045 5.3232 12.861 9.7435 28.826 9.8746 15.967 0.1371 28.945-4.0669 28.99-9.389z" fill="#2479b3" stroke-miterlimit="10" stroke-width="4.6229"/>
      <ellipse transform="matrix(.17197 0 0 .17197 163.97 -296.76)" cx="-818.31" cy="1881.5" rx="28.678" ry="8.9847" fill="#3f9ad8" stroke-width="3.853"/>
     </g>
     <flowRoot transform="matrix(0 -.1997 .19551 0 -4.755 179.3)" fill="#000000" font-family="'Roadshow IAIC 2013'" font-size="40px" letter-spacing="0px" opacity=".75" word-spacing="0px" style="line-height:0px" xml:space="preserve"><flowRegion><rect x="573.7" y="135.07" width="119.67" height="91.023"/></flowRegion><flowPara font-size="27.231px" text-align="center" text-anchor="middle" style="line-height:15px">C 75623</flowPara><flowPara font-size="13.333px" text-align="center" text-anchor="middle" style="line-height:15px"/><flowPara font-size="13.333px" text-align="center" text-anchor="middle" style="line-height:15px"/><flowPara font-size="13.333px" text-align="center" text-anchor="middle" style="line-height:15px"/><flowPara font-size="13.333px" text-align="center" text-anchor="middle" style="line-height:15px"/><flowPara font-size="13.333px" text-align="center" text-anchor="middle" style="line-height:15px"/><flowPara font-size="19.805px" text-align="center" text-anchor="middle" style="line-height:15px"/></flowRoot>
     <flowRoot transform="matrix(.26969 0 0 .25833 -143.83 30.279)" fill="#000000" font-family="'Roadshow IAIC 2013'" font-size="40px" letter-spacing="0px" word-spacing="0px" style="line-height:0px" xml:space="preserve"><flowRegion><rect x="573.7" y="135.07" width="92.8" height="92.738"/></flowRegion><flowPara font-size="13.333px" text-align="center" text-anchor="middle" style="line-height:16.8412px"/><flowPara font-size="13.333px" text-align="center" text-anchor="middle" style="line-height:16.8412px">225</flowPara><flowPara font-size="13.333px" text-align="center" text-anchor="middle" style="line-height:16.8412px"/></flowRoot>
    </g>
   </g>
   <path d="m429.02 674.15 7.3217-2.8533s22.556 7.1914 13.215 14.507c-10.028 11.996-13.498 9.4576-17.645 3.8317 0 0-16.668-1.8412-2.8914-15.486z" fill="#6f0" stroke="#333" stroke-width="1.7171"/>
   <g transform="matrix(-.062076 0 0 -.05628 721.76 506.94)">
    <g transform="matrix(.74373 0 0 .74373 1088.5 -734.07)" stroke="#202020">
     <g stroke-width="9.2486">
      <g fill="#fff" stroke="#202020" stroke-linecap="round" stroke-linejoin="round" stroke-width="13.378">
       <path d="m3348.8-2859.9c-12.973 12.125 30.938 59.102 43.91 46.977l52.631-49.196c12.973-12.125 13.66-32.471 1.535-45.443-12.125-12.973-32.473-13.659-45.445-1.534z"/>
       <path d="m3392.8-2812.9s-14.354 21.645-35.486 17.724l-77.857-20.532 14.25-54.037 55.184 9.868"/>
      </g>
      <path d="m3314.1-2576.3c0 29.531 81.688 53.474 182.45 53.474 100.77 0 182.46-23.942 182.46-53.474s-81.688-53.476-182.46-53.476c-100.76 0-182.45 23.944-182.45 53.476z" fill="#000" opacity=".2" stroke="none"/>
      <g stroke="#202020" stroke-linecap="round" stroke-linejoin="round" stroke-width="13.378">
       <path d="m3429-2603.4h44.756l1.826 15.589-8.646 1.69c-1.828 5.634-7.646 9.757-14.553 9.757h-23.383c-8.375 0-15.162-6.053-15.162-13.518 0-7.466 6.787-13.518 15.162-13.518z" fill="#fff"/>
       <path d="m3547-2603.4h44.756l1.826 15.589-8.646 1.69c-1.828 5.634-7.646 9.757-14.553 9.757h-23.383c-8.375 0-15.162-6.053-15.162-13.518 0-7.466 6.787-13.518 15.162-13.518z" fill="#fff"/>
       <path d="m3373.7-2745.1s-2.338 78.793 28.352 142.72c0 0 54.91 6.713 84.76 0l13.885-40.542 14.613 40.542c39.457 10.606 104.49 0 104.49 0l15.473-66.151c34.475-30.646 23.037-76.563 23.037-76.563z" fill="#303030"/>
       <path d="m3517.8-3025.8s72.836 70.146 146.78 277.96c0.383 18.316-93.977 29.215-176.14 27.475-3.186-0.067-10.535-8.757-10.535-8.757s-5.301 8.263-8.428 8.116c-53.514-2.518-97.742-10.934-100.19-26.833 0.24-36.506 42.605-141.06 52.852-152.8 42.675-70.781 95.662-125.16 95.662-125.16z" fill="#fff"/>
       <path d="m3762.2-2771.6-12.268-5.065c-0.021-0.053-0.047-0.104-0.072-0.157 0 0 10.199-6.898 8.838-12.954-1.359-6.054-7.516-10.073-13.744-8.976 0 0-16.295 2.915-16.775 3.067-17.225-5.576-26.973 5.939-33.66 22.136-7.045 17.067-7.053 33.256 10.9 40.668 1.156 0.478 34.848 14.391 34.848 14.391 9.996 4.127 21.279-0.229 25.201-9.731l7.727-18.707c3.921-9.498-1.003-20.546-10.995-24.672z" fill="#ddae68"/>
       <path d="m3589.9-2910c16.371-6.872 35.215 0.832 42.088 17.205l27.875 66.432v66.228" fill="#fff"/>
       <path d="m3598.6-2793.7c4.088 7.407 10.787 14.788 21.76 19.448l70.393 29.137 19.457-52.387-50.299-28.884" fill="#fff"/>
      </g>
      <g fill="#db5637" stroke="#202020" stroke-linecap="round" stroke-linejoin="round" stroke-width="13.378">
       <path d="m3588.8-2921.2s-4.748 103.59-135.7 134.22c0 0-48.006-36.154-53.227-93.578l15.801-32.657"/>
       <path d="m3556.4-2846.3c32.029 27.125 99.889-7.855 99.889-7.855-18.998-73.858-38.066-67.106-38.066-67.106h-81.77"/>
       <path d="m3446.9-2921.2h-40.398l-33.461 35.201c7.307 18.758 30.166 23.896 30.166 23.896l3.971-9.313"/>
       <path d="m3577.4-2907.1c211.9-26.021 222.36-206.93 222.36-206.93 1.688-313.32-278.12-320.92-278.12-320.92-187.04-5.996-240.5 132.18-255.6 220.13-11.709 10.902-18.094 31.805-4.695 37.555-1.594 20.23-1.074 33.031-1.074 33.031s-19.586 219.88 168.5 237.13"/>
      </g>
      <g stroke="#202020" stroke-width="13.378">
       <path d="m3277.1-3160c32.479-93.41 244.39-88.768 323.66 2.729 43.67 50.408 43.842 178.29-38.844 214.63-23.186 6.883-28.047 21.91-123.76 19.256-73.752-2.046-91.314-33.771-109.73-57.02-41.379-35.059-55.895-93.112-51.322-179.6z" fill="#ddae68" stroke-linecap="round" stroke-linejoin="round"/>
       <path d="m3534-3138c6.611 0.178 11.832 5.688 11.648 12.301-0.18 6.625-5.697 11.838-12.305 11.666-6.619-0.192-11.84-5.697-11.656-12.32 0.182-6.616 5.694-11.831 12.313-11.647z" fill="#231f20"/>
       <path d="m3353.9-3146c6.617 0.181 11.828 5.693 11.648 12.307-0.178 6.617-5.686 11.833-12.303 11.651-6.621-0.18-11.834-5.687-11.652-12.313 0.18-6.609 5.693-11.827 12.307-11.645z" fill="#231f20"/>
       <path d="m3353-3025c-1.727 27.015 30.92 51.085 72.938 53.777 42.023 2.692 77.475-17.03 79.207-44.04 1.73-27.001-32.758-22.419-74.779-25.11-42.018-2.687-75.637-11.635-77.366 15.373z" fill="#db4826"/>
       <path d="m3505.1-3014.2-152.14-9.745s-4.027-11.935 13.346-17.597c8.098-2.473 78.996 2.317 119.72 4.712 15.011 3.139 19.095 13.607 19.078 22.63z" fill="#fff"/>
       <path d="m3353-3025c-1.727 27.015 30.92 51.085 72.938 53.777 42.023 2.692 77.475-17.03 79.207-44.04 1.73-27.001-32.758-22.419-74.779-25.11-42.018-2.687-75.637-11.635-77.366 15.373z" fill="none" stroke-linecap="round" stroke-linejoin="round"/>
       <path d="m3601-2725.7s-0.063 24.911 21.117 28.808" fill="none" stroke-linecap="round" stroke-linejoin="round"/>
       <g opacity=".1">
        <path d="m3477.1-3171.4c-8.951-0.352-16.518 6.644-16.871 15.595l-2.238 56.95c-0.35 8.951 6.646 16.519 15.596 16.871l101.46 3.987c8.951 0.353 16.518-6.644 16.871-15.594l2.238-56.95c0.352-8.951-6.645-16.519-15.596-16.871z" fill="#fff" stroke="#202020" stroke-width="13.378"/>
       </g>
       <circle cx="3490.8" cy="-3143.8" r="12.032" fill="#fff" opacity=".3"/>
       <g opacity=".1">
        <path d="m3298.7-3178.4c-8.951-0.353-16.518 6.643-16.871 15.594l-2.238 56.95c-0.352 8.951 6.645 16.52 15.596 16.872l101.46 3.987c8.951 0.351 16.52-6.643 16.869-15.594l2.242-56.951c0.35-8.951-6.646-16.52-15.598-16.871z" fill="#fff" stroke="#202020" stroke-width="13.378"/>
       </g>
       <path d="m3300.4-3151.5c-0.354 6.636 4.738 12.302 11.373 12.657 6.635 0.354 12.301-4.737 12.658-11.372 0.354-6.637-4.738-12.304-11.375-12.658-6.633-0.354-12.301 4.738-12.656 11.373z" fill="#fff" opacity=".3"/>
       <path d="m3575.7-3068.4c-0.341 0-0.684-0.01-1.026-0.02l-101.46-3.988c-14.229-0.559-25.354-12.592-24.797-26.824l1.759-44.663-25.352-0.996-1.755 44.662c-0.548 13.915-11.88 24.815-25.797 24.815-0.341 0-0.684-0.01-1.027-0.02l-101.46-3.987c-14.231-0.56-25.354-12.593-24.795-26.824l2.24-56.951c0.546-13.915 11.877-24.814 25.796-24.814 0.341 0 0.685 0.01 1.028 0.02l101.46 3.987c13.309 0.523 23.909 11.012 24.731 24.162l25.687 1.01c1.803-12.542 12.744-22.167 25.526-22.167 0.34 0 0.682 0.01 1.024 0.02l101.46 3.988c14.231 0.56 25.354 12.593 24.795 26.824l-2.238 56.952c-0.547 13.914-11.879 24.814-25.797 24.814zm-99.237-101.55c-7.965 0-14.451 6.239-14.766 14.204l-2.238 56.95c-0.317 8.145 6.049 15.033 14.193 15.353l101.46 3.987c0.197 0.01 0.394 0.012 0.59 0.012 7.964 0 14.449-6.239 14.764-14.203l2.238-56.95c0.319-8.146-6.047-15.033-14.193-15.353l-101.46-3.988c-0.198-0.01-0.393-0.012-0.588-0.012zm-178.43-7.013c-7.964 0-14.449 6.239-14.764 14.203l-2.238 56.95c-0.319 8.146 6.047 15.034 14.193 15.354l101.46 3.987c0.196 0.01 0.392 0.012 0.587 0.012 7.968 0 14.453-6.238 14.765-14.203l2.242-56.951c0.318-8.146-6.05-15.033-14.195-15.353l-101.46-3.987c-0.197-0.01-0.394-0.012-0.59-0.012z" fill="#262827"/>
       <path d="m3298-3186.6c0.321 0 0.646 0.01 0.971 0.019l101.46 3.987c13.045 0.513 23.285 11.248 23.379 24.168 0.176-0.011 0.348-0.038 0.527-0.038h0.064l27.207 1.07c0.203 0.01 0.391 0.055 0.588 0.083 1.078-12.555 11.617-22.279 24.236-22.278 0.32 0 0.644 0.01 0.967 0.019l101.46 3.988c13.428 0.528 23.92 11.881 23.393 25.306l-2.238 56.951c-0.517 13.102-11.338 23.411-24.338 23.411-0.321 0-0.645-0.01-0.969-0.019l-101.46-3.988c-13.428-0.527-23.92-11.88-23.395-25.306l1.818-46.177c-0.161 0.01-0.318 0.034-0.48 0.034h-0.057l-27.207-1.069c-0.182-0.01-0.35-0.052-0.527-0.075l-1.814 46.177c-0.517 13.102-11.338 23.411-24.336 23.411-0.322 0-0.646-0.01-0.971-0.019l-101.46-3.987c-13.426-0.528-23.92-11.88-23.393-25.306l2.24-56.951c0.516-13.101 11.336-23.411 24.337-23.411m99.236 101.55c8.667 0 15.883-6.872 16.225-15.607l2.242-56.951c0.35-8.951-6.646-16.52-15.598-16.871l-101.46-3.987c-0.217-0.01-0.432-0.013-0.647-0.013-8.665 0-15.879 6.873-16.224 15.607l-2.238 56.95c-0.352 8.951 6.645 16.52 15.596 16.872l101.46 3.987c0.217 0.01 0.43 0.013 0.644 0.013m178.43 7.013c8.665 0 15.879-6.873 16.224-15.607l2.238-56.95c0.352-8.951-6.645-16.519-15.596-16.871l-101.46-3.988c-0.217-0.01-0.432-0.013-0.646-0.013-8.666 0-15.879 6.873-16.225 15.608l-2.238 56.95c-0.35 8.951 6.646 16.519 15.596 16.871l101.46 3.987c0.216 0.01 0.431 0.013 0.647 0.013m-277.66-111.49c-14.707 0-26.679 11.517-27.257 26.219l-2.24 56.951c-0.591 15.037 11.162 27.75 26.198 28.341l101.46 3.987c0.363 0.014 0.726 0.021 1.086 0.021 14.704 0 26.677-11.517 27.256-26.218l1.698-43.203 22.431 0.881-1.701 43.203c-0.589 15.037 11.164 27.751 26.199 28.341l101.46 3.988c0.363 0.014 0.725 0.021 1.084 0.021 14.705 0 26.679-11.517 27.258-26.218l2.238-56.952c0.592-15.037-11.161-27.75-26.197-28.341l-101.46-3.988c-0.361-0.014-0.723-0.021-1.082-0.021-13.061 0-24.301 9.508-26.752 22.117l-23.116-0.909c-1.471-13.271-12.403-23.677-26.019-24.212l-101.46-3.987c-0.363-0.014-0.727-0.021-1.086-0.021zm99.236 101.55c-0.176 0-0.352 0-0.529-0.01l-101.46-3.987c-7.342-0.289-13.079-6.496-12.79-13.836l2.238-56.95c0.283-7.176 6.126-12.799 13.303-12.799 0.177 0 0.354 0 0.532 0.01l101.46 3.987c7.341 0.289 13.079 6.496 12.793 13.836l-2.242 56.95c-0.281 7.178-6.125 12.799-13.305 12.799zm178.43 7.014c-0.177 0-0.354 0-0.532-0.01l-101.46-3.987c-7.34-0.289-13.077-6.496-12.791-13.836l2.238-56.95c0.284-7.177 6.129-12.799 13.306-12.8 0.177 0 0.353 0 0.53 0.01l101.46 3.988c7.342 0.289 13.078 6.496 12.791 13.836l-2.238 56.95c-0.284 7.177-6.127 12.799-13.304 12.799z" fill="#231f20"/>
      </g>
      <g fill="none" stroke="#202020" stroke-linecap="round" stroke-linejoin="round" stroke-width="13.378">
       <path d="m3489.8-2610.5s-52.018 3.41-91.148 0"/>
       <path d="m3622.2-2613.3s-64.371 5.751-109.98 2.828"/>
       <path d="m3404.3-2728.4s0.758 16.607-15.807 23.915"/>
      </g>
      <g stroke="#202020" stroke-width="13.378">
       <g id="g4138_2_">
        <path d="m3261.5-2887.4c-2.697-17.487-7.104-28.163-1.113-51.397 7.496-12.499 15.291-11.666 23.482-21.668 0.143-6.068 0.311-11.606 0.389-18.088 0.059-5.113 5.543-5.52 11.334-5.367v-0.099c0.359 0.058 0.742 0.099 1.137 0.136 1.225 0.043 2.445 0.095 3.621 0.125 1.18 0 2.398-0.032 3.623-0.046 0.389-0.03 0.775-0.062 1.137-0.111v0.097c5.797-0.025 11.266 0.502 11.217 5.618-0.068 6.476-0.02 12.017-0.01 18.089 7.973 10.178 15.783 9.517 23.006 22.173 5.477 23.36 0.838 33.937-2.24 51.359-2.359 23.265 4.943 23.546 2.854 66.627-0.012 9.032-8.111 18.404-17.369 18.098l-17.492-0.193-13.422-0.144-17.49-0.19c-9.266 0.104-17.158-9.444-16.973-18.473-1.152-43.116 6.154-43.241 4.303-66.546z" fill="#99fff0"/>
        <g opacity=".8">
         <path d="m3339.3-2937.9c3.52 15.022 2.854 24.754 1.119 34.42l-81.936-0.895c-1.521-9.703-1.975-19.444 1.875-34.385 1.984-3.306 3.984-5.667 6.012-7.557l67.08 0.732c1.984 1.933 3.934 4.34 5.85 7.685z" enable-background="new    " fill="#0f0"/>
         <path d="m3337.1-2886.6c-0.637 6.287-0.566 10.895-0.172 15.125l-75.572-0.825c0.486-4.219 0.656-8.825 0.156-15.121-0.963-6.244-2.139-11.622-2.988-17.012l81.936 0.895c-0.965 5.367-2.258 10.721-3.36 16.938z" enable-background="new    " fill="#ff0"/>
         <path d="m3260.9-2868.8c0.182-1.152 0.338-2.312 0.482-3.495l75.572 0.825c0.113 1.187 0.254 2.348 0.404 3.504 1.023 7.582 2.795 15.107 2.986 30.688l-83.098-0.907c0.533-15.572 2.468-23.057 3.654-30.615z" enable-background="new    " fill="#f0f"/>
         <path d="m3257.2-2836.7c0.012-0.482 0.023-0.977 0.037-1.446l83.098 0.907c0 0.468 0.01 0.964 0 1.446 0.021 4.568-0.072 9.774-0.369 15.864-0.012 9.032-8.111 18.404-17.369 18.098l-17.492-0.193-13.422-0.144-17.49-0.19c-9.266 0.104-17.158-9.444-16.973-18.473-0.16-6.096-0.149-11.303-0.024-15.869z" enable-background="new    " fill="#f00"/>
        </g>
        <g id="g4051_25_" transform="translate(1.1866 -.51496)" fill="none" stroke-linecap="round" stroke-linejoin="round">
         <path id="path3346-5-5_25_" d="m3294.4-2983.5c6.959 1.143 20.816-2.309 20.734 5.819-0.068 6.476-0.02 12.017-0.01 18.089 7.973 10.178 15.783 9.517 23.006 22.173 5.477 23.36 0.838 33.937-2.24 51.359-2.359 23.265 4.943 23.546 2.854 66.627-0.012 9.032-8.111 18.404-17.369 18.098l-30.914-0.337"/>
         <path id="path4049_25_" d="m3303.9-2983.4c-6.98 0.989-20.758-2.764-20.854 5.362-0.078 6.481-0.246 12.02-0.389 18.088-8.191 10.003-15.986 9.17-23.482 21.668-5.99 23.234-1.584 33.91 1.113 51.397 1.852 23.305-5.455 23.43-4.305 66.545-0.186 9.029 7.707 18.577 16.973 18.473l30.912 0.334"/>
        </g>
        <path id="path3348-2_24_" d="m3321.4-2997.5-41.596-0.403-1.037 27.043 43.396 0.525z" fill="#478cd1" stroke-linecap="round" stroke-linejoin="round"/>
        <path d="m3274.6-2903.2c-0.033 4.695 3.742 8.528 8.436 8.565 4.691 0.035 8.529-3.74 8.566-8.437l0.15-19.969c0.035-4.696-3.742-8.529-8.434-8.564-4.695-0.037-8.529 3.741-8.566 8.436z" fill="#fff"/>
       </g>
       <path d="m3301.2-2850.1c5.846 11.996-2.168 22.489-11.908 24.233-1.066 15.844-24.475 10.298-24.475 10.298-18.045-2.021-31.314-18.001-31.029-36.061 0 0-1.814-35.151 27.322-38.059 1.363 12.778 2.422 16.419 13.303 15.444 0 0 32.848-4.451 26.787 24.145z" fill="#ddae68" stroke-linecap="round" stroke-linejoin="round"/>
       <g fill="#231f20">
        <path d="m3289.2-2823.7s-1.419-0.187-3.502-0.514c-2.09-0.328-4.869-0.797-7.631-1.365-2.762-0.563-5.506-1.231-7.52-1.882-0.504-0.157-0.964-0.31-1.363-0.472-0.4-0.159-0.754-0.27-1.03-0.414-0.554-0.262-0.87-0.412-0.87-0.412s0.338 0.084 0.93 0.233c0.289 0.085 0.662 0.126 1.076 0.202 0.413 0.079 0.886 0.138 1.403 0.193 2.063 0.24 4.833 0.357 7.603 0.372 2.771 0.018 5.543-0.063 7.617-0.148 2.082-0.084 3.443-0.175 3.443-0.175 1.215-0.08 2.265 0.839 2.345 2.053 0.081 1.214-0.839 2.264-2.053 2.344-0.144 0.01-0.284 0.01-0.421-0.012z"/>
        <path d="m3301.5-2847.9s-0.66 0.059-1.896 0.118c-1.234 0.084-2.947 0.114-5.01 0.169-1.031 0.018-2.146 0-3.323 1e-3 -1.179 0-2.419 0-3.701-0.057-1.281-0.044-2.605-0.09-3.95-0.137-1.344-0.024-2.707-0.169-4.068-0.249-1.361-0.095-2.721-0.19-4.061-0.284-1.334-0.142-2.647-0.281-3.919-0.416-1.269-0.138-2.494-0.271-3.657-0.398-1.163-0.104-2.254-0.313-3.264-0.455-4.027-0.614-6.713-1.023-6.713-1.023s2.71 0.137 6.775 0.341c1.016 0.039 2.109 0.137 3.276 0.124 1.163 0.01 2.391 0.018 3.659 0.027 1.268 0.01 2.576 0.012 3.907 0.019 1.329-0.042 2.68-0.084 4.03-0.126 1.35-0.058 2.697-0.05 4.021-0.16 1.324-0.088 2.627-0.174 3.887-0.258 1.261-0.067 2.474-0.198 3.623-0.311 1.149-0.118 2.237-0.21 3.235-0.329 1.993-0.256 3.661-0.455 4.784-0.647 1.125-0.167 1.809-0.297 1.809-0.297 1.191-0.227 2.341 0.555 2.568 1.746s-0.556 2.341-1.747 2.568c-0.071 0.014-0.143 0.024-0.214 0.03z"/>
       </g>
      </g>
      <g fill="none" stroke="#202020" stroke-linecap="round" stroke-linejoin="round" stroke-width="13.378">
       <path d="m3266.1-3214.8s21.361-32.498 126.21-44.553"/>
       <line x1="3702.2" x2="3688.6" y1="-2802" y2="-2769.9"/>
       <path d="m3370.4-2760.1s6.426 18.019 76.43 23.336"/>
       <path d="m3446.9-2807 8.727 8.097s45.199-10.746 83.928-45.819"/>
       <path d="m3653.6-2864.3s-28.027 13.532-57.154 15.099"/>
       <line x1="3515.3" x2="3495.4" y1="-2602.4" y2="-2656.9"/>
      </g>
     </g>
     <polygon points="3266.1 -2951.1 3255.6 -2950.6 3263.8 -2943.9 3264.3 -2933.4 3270.9 -2941.6 3281.4 -2942.1 3273.3 -2948.8 3272.8 -2959.3" fill="#fff" stroke-width="13.378"/>
     <polygon points="3315 -2874.6 3307.9 -2866.8 3318.4 -2867.9 3326.2 -2860.8 3325.1 -2871.3 3332.2 -2879.1 3321.7 -2878 3313.9 -2885.1" fill="#fff" stroke-width="13.378"/>
    </g>
   </g>
   <line class="cls-5" x1="533.45" x2="533.45" y1="677.04" y2="683.3" fill="none" stroke="#333" stroke-linecap="round" stroke-linejoin="round" stroke-width="1.5312"/>
   <polygon class="cls-6" transform="matrix(-1.6081 0 0 -1.458 602.79 758.96)" points="37.4 53.11 43.12 53.11 48.85 53.11 45.27 48.81 48.85 48.81 44.55 43.8 47.42 43.8 43.12 38.8 38.83 43.8 41.69 43.8 37.4 48.81 40.98 48.81" fill="#6dd627" stroke="#333" stroke-linecap="round" stroke-linejoin="round" stroke-width="1.1214"/>
   <path d="m535.14 662.9s2.8665-2.4439-5.7292-2.2512c-11.421-7.3721-25.89-0.82731-12.927 0.37714l7.0456 2.6857c5.564 1.5003 7.2907 0.84243 11.611-0.81168z" fill="#fff" opacity=".4"/>
   <path d="m393.03 660.06c-0.0808-1.496 46.957-9.1426 46.66-10.085-9.5532-30.361-24.992-25.479-35.111-4.5165-2.1418 4.4371-9.7453 8.9506-11.549 14.602" fill="#48b300" stroke="#333" stroke-width="2.8143"/>
   <path class="cls-2" d="m445 751.92a4.7962 4.3484 0 0 0 1.6314-0.28103 7.749 7.0255 0 0 0 15.319 0 4.731 4.2892 0 0 0 1.6314 0.28103 4.6657 4.2301 0 0 0 0-8.4602h-18.581a4.6657 4.2301 0 1 0 0 8.4602z" fill="#fff" opacity=".8"/>
   <path class="cls-6" d="m560.86 642.87c5.029-0.37911 22.514 5.2574 22.514-1.1674s-6.6967-18.03-11.726-18.409c-4.1904-0.0685-7.8706-3.5672-9.1188-8.669l-5.1626-31.926c-1.2393-4.8963-7.8431-8.3896-11.831-7.612-3.988 0.77761-0.29364-1.4137-0.32911 3.7311l-1.0159 18.443c-14.586 27.293-3.3376 24.597-2.9597 33.039 26.18 0.0657 7.0822 8.9945 19.629 12.57z" fill="#4a0" opacity=".4"/>
   <path d="m403.88 655.98c14.548-2.9421 29.007-5.1867 28.824-5.7703-5.887-18.8-15.401-15.777-21.637-2.7967" fill="#3e9b00"/>
   <g fill="#000">
    <path d="m572.1 592.68c-11.738-3.0616-23.786-5.7007-38.154-5.1725l3.6987-17.909 13.938-4.986 7.3431 2.346z" opacity=".3"/>
    <path d="m501.32 556.69c-26.946 7.1207-49.514 10.993-80.151 44.287l8.6401 9.166 7.2119 5.271c9.5772 1.8389 12.574-0.48019 16.218-2.3903l5.7129-5.2515 2.521-12.145 5.8977-6.8688 13.906-3.9597 13.21-2.209 4.6146-5.1249z" opacity=".3" stroke="#000" stroke-width=".75755px"/>
    <path d="m501.85 545.56-0.53576 11.122c-23.394 4.5378-56.455 13.38-80.151 44.287l0.9489-26.048c24.242-16.672 51.513-24.42 79.738-29.361z" opacity=".5" stroke="#000" stroke-width=".75755px"/>
   </g>
   <path d="m451.99 673.09 10.972-4.2255s32.591 3.3347 18.594 14.169c-1.0258 10.563 2.8995 14.955-13.344 8.7227 0 0-33.539 17.52-16.221-18.666z" fill="#6f0" stroke="#333" stroke-width="1.7171"/>
   <g transform="matrix(-.054444 0 0 -.04936 584.94 524.84)">
    <g transform="translate(46.729 -26.703)" stroke-miterlimit="10" stroke-width="13.636">
     <g stroke="#231f20" stroke-linecap="round" stroke-linejoin="round">
      <path d="m603.02-2594.2h-44.755l-1.827 15.588 8.645 1.69c1.83 5.634 7.646 9.757 14.556 9.757h23.382c8.373 0 15.162-6.053 15.162-13.518-1e-3 -7.465-6.79-13.517-15.163-13.517z" fill="#fff"/>
      <path d="m485.01-2594.2h-44.755l-1.827 15.588 8.644 1.69c1.83 5.634 7.646 9.757 14.556 9.757h23.382c8.373 0 15.162-6.053 15.162-13.518-1e-3 -7.465-6.789-13.517-15.162-13.517z" fill="#fff"/>
      <path d="m664.3-2823.2 64.947 16.323s3.653 28.498-5.115 37.266l-75.262-5.115s-25.574-3.653-22.651-34.343" fill="#ddae68"/>
      <path d="m666.81-2836.1c9.452 15.032-44.985 49.259-54.437 34.227l-38.347-60.99c-9.452-15.032-4.928-34.88 10.104-44.332s34.881-4.928 44.333 10.104z" fill="#3a65ba"/>
      <path d="m658.34-2735.9s0.758 77.785-39.796 142.72c0 0-36.941 6.713-66.793 0l-15.56-39.421-34.571 39.421c-33.672 6.713-67.384 0-67.384 0l-37.466-66.152c-34.476-30.646-23.039-76.563-23.039-76.563z" fill="#aed8ed"/>
      <path d="m514.27-3016.6s-72.834 70.146-146.78 277.96c-0.383 18.316 93.978 29.215 176.14 27.475 3.186-0.067 10.535-8.758 10.535-8.758s5.302 8.263 8.429 8.116c53.513-2.518 97.742-10.934 100.19-26.833-0.24-36.506-12.733-75.116-30.382-111.57 8.431-16.524-12.224-29.5-22.47-41.233-42.676-70.779-95.662-125.16-95.662-125.16z" fill="#3a65ba"/>
      <path d="m492.08-2925.7c0.04-1.24 5.766 9.241 10.65 18.422 3.644 6.847 6.82 12.972 6.82 12.972l11.447-14.126 28.497 11.691 21.19-12.422 13.152 12.422-3.653-29.059" fill="none"/>
      <path d="m406.73-2746.4-37.123-5.291 18.769-67.166c3.592-11.772 16.045-18.404 27.819-14.812 11.772 3.59 18.404 16.046 14.813 27.818z" fill="#ddae68"/>
      <path d="m471.69-2875.3-25.249 67.476c-6.224 16.63-66.448-5.906-60.225-22.536l25.25-67.475c6.224-16.63 24.749-25.067 41.38-18.844" fill="#3a65ba"/>
      <polyline points="525.52 -2926.5 549.5 -2896.7 569.22 -2926.5" fill="#ddae68"/>
      <path d="m731.23-3046.9s-5.706 89.294 39.512 100.1c0 0-64.536 46.098-130.39-18.438" fill="#231f20"/>
      <path d="m754.9-3150.9c-7.872-148.92-104.33-263.86-249.32-255.77-145 8.083-256.16 135.35-248.3 284.27 6.086 115.1 102.42 172.48 212.81 188.87 23.185 6.883 28.047 21.91 123.76 19.256 73.75-2.046 91.313-33.771 109.73-57.02 41.378-35.059 55.895-93.113 51.322-179.6z" fill="#ddae68"/>
     </g>
     <g fill="#231f20">
      <path d="m390.11-3145.7c33.528-116.11 222.94-90.813 277.9-125.12 19.038 4.571 81.73 68.644 86.613 106.09 30.605-120.58-18.126-249.65-131.39-253.6-347.9-126.07-468.87 273.95-349.02 440.38 15.746 107.51 109.17 101.43 209.41 85.121-18.893-58.316-118.52-166.26-93.511-252.87z" stroke="#231f20" stroke-linecap="round" stroke-linejoin="round"/>
      <path d="m498.06-3128.9c-6.61 0.179-11.831 5.688-11.648 12.301 0.182 6.625 5.697 11.838 12.305 11.667 6.621-0.192 11.84-5.697 11.658-12.32-0.184-6.617-5.696-11.833-12.315-11.648z"/>
      <path d="m678.18-3136.9c-6.616 0.181-11.828 5.694-11.648 12.307 0.178 6.617 5.686 11.833 12.302 11.65 6.622-0.18 11.835-5.687 11.654-12.313-0.179-6.609-5.694-11.826-12.308-11.644z"/>
     </g>
     <path d="m679.05-3015.8c1.729 27.015-30.92 51.084-72.937 53.777-42.025 2.692-77.474-17.03-79.207-44.04-1.731-27.001 32.759-22.419 74.778-25.111 42.019-2.686 75.637-11.634 77.366 15.374z" fill="#db4826"/>
     <path d="m526.98-3005.1 152.14-9.745s4.027-11.935-13.345-17.598c-8.1-2.473-78.997 2.318-119.72 4.712-15.011 3.14-19.096 13.608-19.078 22.631z" fill="#fff"/>
     <path d="m679.05-3015.8c1.729 27.015-30.92 51.084-72.937 53.777-42.025 2.692-77.474-17.03-79.207-44.04-1.731-27.001 32.759-22.419 74.778-25.111 42.019-2.686 75.637-11.634 77.366 15.374z" fill="none" stroke="#231f20" stroke-linecap="round" stroke-linejoin="round"/>
     <g id="g4138_1_">
      <path d="m741.93-2830.6c5.691-15.836 11.746-25.002 10.371-47.779-4.728-13.029-12.153-13.667-17.986-24.493 0.968-5.691 1.814-10.892 2.923-16.956 0.874-4.785-4.173-6.16-9.606-7.069l0.013-0.093c-0.346-0.012-0.711-0.042-1.085-0.08-1.15-0.181-2.301-0.354-3.402-0.541-1.099-0.216-2.233-0.464-3.374-0.701-0.359-0.099-0.713-0.199-1.039-0.309l-0.02 0.09c-5.406-1.076-10.609-1.578-11.491 3.208-1.113 6.059-2.165 11.222-3.278 16.889-9.292 8.054-16.464 6.019-25.505 16.522-9.356 20.813-6.944 31.528-7.235 48.353-2.021 22.146-8.89 21.083-14.762 61.681-1.628 8.433 4.23 18.653 12.93 20.048l16.363 2.997 12.555 2.302 16.365 2.999c8.63 1.78 17.73-5.7 19.196-14.162 8.904-40.043 2.103-41.485 8.067-62.906z" fill="#99fff0"/>
      <g opacity=".8">
       <path d="m678.45-2891.9c-6.015 13.384-7.16 22.59-7.297 31.928l76.653 14.044c3.184-8.781 5.378-17.793 4.494-32.44-1.251-3.447-2.693-6.015-4.238-8.146l-62.756-11.497c-2.203 1.443-4.461 3.335-6.856 6.111z" enable-background="new    " fill="#0f0"/>
       <path d="m671.21-2843.5c-0.548 5.984-1.45 10.272-2.587 14.151l70.702 12.953c0.313-4.028 0.992-8.357 2.6-14.145 2.032-5.653 4.104-10.461 5.877-15.339l-76.653-14.044c-0.07 5.188 0.163 10.421 0.061 16.424z" enable-background="new    " fill="#ff0"/>
       <path d="m739.14-2813.1c0.037-1.109 0.1-2.22 0.183-3.35l-70.702-12.953c-0.321 1.087-0.659 2.146-1.015 3.197-2.328 6.893-5.349 13.596-8.357 28.107l77.74 14.243c2.33-14.634 1.883-21.973 2.151-29.244z" enable-background="new    " fill="#f0f"/>
       <path d="m736.76-2782.5c0.075-0.452 0.154-0.916 0.229-1.355l-77.74-14.243c-0.085 0.437-0.18 0.898-0.267 1.348-0.852 4.261-1.705 9.139-2.536 14.878-1.628 8.433 4.23 18.653 12.93 20.048l16.363 2.997 12.555 2.302 16.365 2.999c8.63 1.78 17.73-5.7 19.196-14.162 1.258-5.664 2.191-10.527 2.905-14.812z" enable-background="new    " fill="#f00"/>
      </g>
      <g id="g4051_29_" transform="translate(1.1866 -.51496)" fill="none" stroke="#231f20" stroke-linecap="round" stroke-linejoin="round">
       <path id="path3346-5-5_29_" d="m726.46-2926.5c-6.702-0.197-19.013-5.936-20.411 1.667-1.113 6.059-2.165 11.222-3.278 16.889-9.292 8.054-16.464 6.019-25.505 16.522-9.356 20.813-6.944 31.528-7.235 48.353-2.021 22.146-8.89 21.083-14.762 61.681-1.628 8.433 4.23 18.653 12.93 20.048l28.918 5.299"/>
       <path id="path4049_29_" d="m717.56-2928.1c6.331 2.19 19.878 1.188 18.493 8.792-1.109 6.064-1.955 11.264-2.923 16.956 5.833 10.825 13.258 11.464 17.986 24.493 1.375 22.777-4.68 31.943-10.371 47.779-5.964 21.42 0.836 22.863-8.067 62.905-1.466 8.462-10.566 15.942-19.196 14.162l-28.92-5.3"/>
      </g>
      <path id="path3348-2_27_" d="m706.06-2944.2 38.904 7.176-3.943 25.434-40.606-7.391z" fill="#478cd1" stroke="#231f20" stroke-linecap="round" stroke-linejoin="round"/>
      <path d="m732.61-2847.7c-0.819 4.389-5.041 7.282-9.43 6.463-4.388-0.818-7.282-5.041-6.465-9.43l3.486-18.67c0.819-4.389 5.041-7.283 9.43-6.464 4.39 0.819 7.281 5.042 6.463 9.43z" fill="#fff"/>
     </g>
     <path d="m549.5-2896.7s11.691 113.02 4.668 176.76" fill="none" stroke="#231f20" stroke-linecap="round" stroke-linejoin="round"/>
     <path d="m437.98-2715.7s-0.99 22.056-19.289 27.966" fill="none" stroke="#231f20" stroke-linecap="round" stroke-linejoin="round"/>
     <path d="m634.25-2849.2s-0.099 0.149-0.285 0.428c-0.213 0.328-0.502 0.687-0.876 1.173-0.394 0.451-0.85 1.021-1.433 1.599-0.556 0.608-1.246 1.217-1.983 1.893-0.377 0.328-0.79 0.642-1.206 0.98-0.412 0.343-0.852 0.677-1.325 0.99-0.466 0.321-0.944 0.651-1.433 0.988-0.509 0.301-1.03 0.609-1.559 0.921-0.264 0.155-0.531 0.311-0.799 0.468-0.279 0.138-0.56 0.276-0.842 0.416-0.563 0.276-1.133 0.557-1.708 0.839-1.185 0.479-2.376 0.991-3.597 1.402-1.241 0.355-2.445 0.815-3.683 1.069-1.237 0.251-2.43 0.589-3.616 0.748-1.181 0.164-2.322 0.322-3.405 0.473-1.087 0.066-2.115 0.129-3.064 0.188-0.473 0.028-0.926 0.055-1.356 0.081-0.432 0.01-0.842-0.01-1.227-0.013-0.768-0.013-1.438-0.023-1.99-0.032-1.1-0.019-1.728-0.029-1.728-0.029s0.626-0.056 1.723-0.154c0.547-0.049 1.211-0.108 1.972-0.176 0.38-0.038 0.785-0.063 1.209-0.116 0.422-0.07 0.866-0.145 1.33-0.222 0.923-0.155 1.923-0.324 2.98-0.501 1.038-0.258 2.131-0.53 3.263-0.811 1.129-0.274 2.249-0.726 3.405-1.09 1.158-0.366 2.261-0.932 3.396-1.388 1.113-0.512 2.18-1.114 3.236-1.674 0.506-0.319 1.007-0.636 1.503-0.949l0.736-0.463c0.231-0.171 0.461-0.341 0.688-0.51 0.453-0.336 0.899-0.667 1.335-0.991 0.41-0.353 0.811-0.698 1.202-1.034 0.397-0.326 0.761-0.668 1.095-1.015 0.338-0.342 0.677-0.66 0.979-0.984 0.585-0.667 1.135-1.261 1.554-1.835 0.453-0.552 0.775-1.068 1.066-1.477 0.252-0.416 0.471-0.757 0.557-0.937 0.118-0.225 0.182-0.345 0.182-0.345l0.044-0.083c0.547-1.042 1.836-1.442 2.877-0.895 1.042 0.548 1.442 1.836 0.895 2.878-0.033 0.065-0.072 0.13-0.112 0.19z" fill="#231f20"/>
     <path d="m484.94-2841.7s2.82 0.659 7.05 1.647c2.084 0.498 4.515 1.028 7.099 1.598 1.302 0.249 2.627 0.573 3.992 0.816 1.359 0.27 2.735 0.553 4.124 0.771 1.377 0.287 2.768 0.47 4.133 0.699 1.363 0.247 2.714 0.393 4.021 0.592 1.306 0.22 2.577 0.326 3.784 0.484 0.605 0.08 1.194 0.158 1.763 0.233 0.572 0.054 1.125 0.106 1.655 0.156 1.07 0.124 2.05 0.237 2.919 0.337 0.871 0.051 1.638 0.14 2.272 0.203 1.269 0.133 2.009 0.258 2.009 0.258s-0.694 0.244-1.936 0.585c-0.621 0.167-1.378 0.382-2.255 0.579-0.877 0.192-1.875 0.341-2.97 0.502-0.549 0.073-1.121 0.15-1.712 0.229-0.593 0.053-1.207 0.076-1.839 0.118-1.264 0.057-2.605 0.149-3.984 0.075-1.38-0.052-2.816-0.067-4.254-0.261-1.445-0.143-2.909-0.33-4.357-0.606-0.724-0.139-1.447-0.278-2.167-0.417-0.716-0.161-1.422-0.351-2.126-0.523-1.412-0.327-2.765-0.791-4.078-1.208-1.305-0.447-2.549-0.927-3.715-1.413-1.159-0.507-2.248-0.991-3.226-1.506-0.987-0.488-1.86-1.008-2.632-1.463-0.774-0.449-1.422-0.896-1.954-1.258-1.061-0.732-1.616-1.227-1.616-1.227z" fill="#231f20"/>
     <ellipse transform="matrix(.998 -.0632 .0632 .998 198.2 26.166)" cx="512.59" cy="-3119" rx="65.209" ry="56.284" fill="#fff" opacity=".1"/>
     <ellipse transform="matrix(.998 -.0632 .0632 .998 199.26 37.324)" cx="689.44" cy="-3130.2" rx="65.209" ry="56.284" fill="#fff" opacity=".1"/>
     <g stroke-miterlimit="10" stroke-width="13.636">
      <path d="m510.02-3046.1c-40.669 0-74.765-31.804-77.622-72.404-0.403-5.746-0.139-11.322 0.786-16.607-5.182-1.845-8.895-6.614-9.289-12.225l-0.912-12.95c-0.263-3.739 0.945-7.357 3.404-10.188 2.458-2.83 5.872-4.533 9.611-4.796l31.057-2.186c10.831-5.087 23.816-8.193 38.604-9.233 3.335-0.234 6.641-0.354 9.825-0.354 21.679 0 39.706 5.524 52.25 15.99 1.291-0.526 2.647-0.843 4.048-0.942l50.466-3.55c0.31-0.021 0.617-0.032 0.922-0.032 1.087 0 2.164 0.134 3.217 0.398 12.626-13.98 33.081-22.329 59.275-24.172 3.332-0.234 6.633-0.353 9.813-0.353 10.894 0 20.885 1.376 29.705 4.092l31.057-2.185c0.334-0.023 0.667-0.035 0.997-0.035 7.329 0 13.473 5.731 13.988 13.048l0.911 12.951c0.395 5.612-2.613 10.854-7.486 13.405 1.656 5.104 2.698 10.588 3.102 16.334 3.011 42.83-29.383 80.125-72.21 83.137-1.833 0.129-3.688 0.194-5.513 0.194h-6e-3c-40.67 0-74.765-31.807-77.618-72.405-0.418-5.943-0.127-11.682 0.866-17.1l-28.773 2.025c1.743 5.226 2.835 10.866 3.254 16.811 1.457 20.715-5.261 40.781-18.914 56.5-13.654 15.72-32.583 25.18-53.298 26.637-1.833 0.13-3.689 0.195-5.517 0.195zm5.442-121.18c-2.736 0-5.567 0.102-8.416 0.302-10.451 0.735-25.343 3.107-36.939 10.235-13.095 8.05-19.149 20.448-17.996 36.849 2.131 30.296 27.572 54.027 57.919 54.027 1.366 0 2.751-0.049 4.119-0.145 15.456-1.087 29.58-8.147 39.769-19.878s15.202-26.704 14.114-42.159c-2.28-32.424-29.846-39.231-52.57-39.231zm180-12.661c-2.736 0-5.567 0.102-8.415 0.302-21.645 1.523-57.564 9.667-54.934 47.085 2.132 30.295 27.574 54.027 57.919 54.027 1.366 0 2.751-0.049 4.119-0.145 15.456-1.087 29.58-8.146 39.769-19.877 10.19-11.731 15.203-26.704 14.115-42.16-2.281-32.426-29.848-39.232-52.573-39.232z" fill="#262827"/>
      <path d="m695.47-3197.6c10.948 0 20.812 1.405 29.455 4.115l31.456-2.213c0.284-0.02 0.566-0.03 0.847-0.03 6.196 0 11.425 4.795 11.867 11.072l0.911 12.95c0.387 5.502-3.033 10.38-8.013 12.087 1.942 5.378 3.18 11.263 3.629 17.652 2.929 41.661-28.578 77.937-70.238 80.867-1.803 0.127-3.589 0.189-5.37 0.189-39.361 0-72.696-30.569-75.498-70.427-0.484-6.877 8e-3 -13.311 1.398-19.27l-34.379 2.419c2.211 5.703 3.601 12.006 4.085 18.884 2.93 41.66-28.579 77.937-70.24 80.867-1.8 0.126-3.589 0.189-5.367 0.189-39.363 0-72.696-30.567-75.5-70.427-0.448-6.388-0.047-12.389 1.123-17.985-5.171-0.994-9.239-5.344-9.626-10.846l-0.912-12.95c-0.462-6.561 4.482-12.252 11.043-12.713l31.456-2.214c10.518-5.006 23.339-8.16 38.206-9.205 3.313-0.233 6.538-0.348 9.675-0.348 22.111 0 39.802 5.728 51.912 16.374 1.361-0.74 2.893-1.214 4.537-1.332l50.464-3.549c0.259-0.018 0.517-0.027 0.773-0.027 1.368 0 2.683 0.253 3.904 0.709 11.989-13.972 32.082-22.613 58.737-24.488 3.309-0.235 6.531-0.35 9.665-0.35m-5.444 121.18c1.412 0 2.839-0.05 4.269-0.15 33.128-2.33 58.187-31.179 55.855-64.308-2.434-34.606-32.283-41.209-54.694-41.209-3.018 0-5.901 0.12-8.564 0.307-22.438 1.58-59.666 10.089-56.906 49.355 2.231 31.698 28.733 56.005 60.04 56.005m-180 12.662c1.412 0 2.839-0.05 4.269-0.15 33.128-2.331 58.186-31.179 55.854-64.308-2.434-34.605-32.28-41.209-54.691-41.208-3.017 0-5.902 0.12-8.564 0.307-22.439 1.578-59.669 10.091-56.907 49.355 2.228 31.697 28.732 56.004 60.039 56.004m185.44-138.09c-3.23 0-6.582 0.12-9.962 0.358-26.193 1.843-46.82 10.114-59.875 23.969-0.815-0.133-1.64-0.2-2.469-0.2-0.355 0-0.715 0.013-1.069 0.037l-50.466 3.55c-1.194 0.085-2.36 0.305-3.487 0.657-12.88-10.287-31.017-15.709-52.664-15.709-3.233 0-6.588 0.121-9.974 0.359-14.887 1.047-28.002 4.162-38.998 9.261l-30.665 2.159c-4.306 0.302-8.236 2.264-11.067 5.522-2.831 3.259-4.223 7.425-3.919 11.731l0.912 12.95c0.411 5.849 3.952 10.903 9.045 13.385-0.732 4.952-0.915 10.131-0.542 15.446 2.935 41.709 37.961 74.382 79.742 74.382 1.878 0 3.784-0.067 5.665-0.2 21.282-1.497 40.728-11.214 54.754-27.363 14.026-16.148 20.927-36.762 19.43-58.044-0.362-5.149-1.217-10.082-2.55-14.729l23.424-1.648c-0.668 4.789-0.824 9.792-0.461 14.941 2.932 41.708 37.957 74.381 79.739 74.381 1.879 0 3.787-0.067 5.668-0.2 43.997-3.094 77.275-41.408 74.182-85.407-0.374-5.314-1.279-10.417-2.698-15.219 4.696-3.17 7.494-8.67 7.083-14.52l-0.911-12.95c-0.593-8.426-7.669-15.026-16.108-15.026-0.38 0-0.766 0.014-1.146 0.041l-30.665 2.157c-8.927-2.702-18.998-4.071-29.948-4.071zm-5.444 121.18c-29.234 0-53.744-22.864-55.798-52.051-1.108-15.768 4.449-27.18 16.989-34.888 11.227-6.901 25.76-9.207 35.974-9.926 2.797-0.196 5.578-0.296 8.266-0.296 21.821 0 48.287 6.463 50.452 37.255 1.047 14.889-3.782 29.314-13.599 40.616-9.817 11.303-23.423 18.104-38.313 19.151-1.319 0.092-2.655 0.139-3.971 0.139zm-180 12.661c-29.236 0-53.745-22.863-55.798-52.05-1.109-15.768 4.448-27.18 16.988-34.889 11.229-6.902 25.762-9.208 35.976-9.926 2.797-0.197 5.578-0.296 8.266-0.296 21.819 0 48.283 6.462 50.449 37.254 1.048 14.889-3.782 29.313-13.598 40.616-9.817 11.302-23.423 18.104-38.313 19.151-1.318 0.093-2.654 0.14-3.97 0.14z" fill="#231f20"/>
     </g>
     <circle cx="716.54" cy="-3151.4" r="12.989" fill="#fff" opacity=".3"/>
     <circle cx="536.59" cy="-3137.1" r="12.988" fill="#fff" opacity=".3"/>
     <g fill="none" stroke="#231f20" stroke-linecap="round" stroke-linejoin="round">
      <path d="m549.5-2601.4s34.747 3.409 73.879 0"/>
      <path d="m428.03-2604.2s35.128 5.751 80.731 2.829"/>
      <path d="m632.08-2719.3s-0.755 16.608 15.807 23.915"/>
     </g>
     <path d="m695.82-2805.7c-8.027 10.658-2.163 22.49 7.063 26.061-1.977 15.756 22.059 14.782 22.059 14.782 18.099 1.461 34.174-11.691 37.343-29.473 0 0 10.384-34.975-17.66-43.393-1.967 11.278-7.405 16.471-17.902 13.436 0 1e-3 -31.391-10.641-30.903 18.587z" fill="#ddae68" stroke="#231f20" stroke-linecap="round" stroke-linejoin="round"/>
     <g fill="#231f20">
      <path d="m703.23-2781.8s1.318 0.349 3.347 0.829c2.02 0.479 4.726 1.088 7.448 1.6 2.722 0.515 5.463 0.929 7.534 1.087 0.518 0.045 0.994 0.077 1.414 0.079 0.421 0 0.794 0.035 1.095 0.01 0.609-0.032 0.957-0.051 0.957-0.051s-0.339 0.086-0.933 0.238c-0.298 0.089-0.667 0.13-1.089 0.21-0.424 0.083-0.903 0.145-1.429 0.203-2.101 0.254-4.922 0.385-7.74 0.412-2.819 0.031-5.636-0.04-7.751-0.117-2.106-0.076-3.535-0.164-3.535-0.164h-0.016c-1.214-0.075-2.139-1.121-2.064-2.335 0.075-1.215 1.121-2.139 2.335-2.064 0.143 0.01 0.294 0.034 0.427 0.068z"/>
      <path d="m696.51-2807.7s0.645 0.258 1.718 0.637c1.066 0.403 2.666 0.917 4.573 1.549 0.958 0.307 2.007 0.605 3.113 0.94 1.107 0.331 2.272 0.69 3.497 0.998 1.221 0.323 2.483 0.656 3.766 0.995 1.279 0.361 2.604 0.611 3.917 0.925 1.318 0.299 2.636 0.599 3.933 0.894 1.307 0.248 2.593 0.491 3.838 0.728 1.248 0.233 2.454 0.458 3.597 0.672 1.143 0.236 2.236 0.349 3.24 0.504 4.029 0.575 6.715 0.958 6.715 0.958s-2.714-0.111-6.785-0.277c-1.018-0.054-2.128-0.056-3.291-0.176-1.165-0.098-2.395-0.201-3.666-0.308-1.273-0.11-2.589-0.224-3.926-0.34-1.333-0.164-2.686-0.331-4.04-0.497-1.352-0.182-2.717-0.3-4.041-0.532-1.33-0.211-2.638-0.419-3.904-0.62-1.271-0.186-2.487-0.43-3.644-0.651-1.156-0.226-2.253-0.421-3.262-0.636-2.014-0.448-3.69-0.805-4.885-1.123-1.203-0.294-1.84-0.478-1.84-0.478l-0.048-0.014c-1.165-0.336-1.838-1.553-1.502-2.718s1.553-1.837 2.718-1.501c0.071 0.02 0.142 0.045 0.209 0.071z"/>
     </g>
     <path d="m407.86-2748.8c19.02 18.368 11.067 40.506-9.005 45.856-1.053 10.792-10.765 17.767-22.392 14.288-15.602 2.471-22.682-7.457-26.417-27.258-5.331-20.819 23.241-48.919 23.241-48.919" fill="#ddae68" stroke="#231f20" stroke-linecap="round" stroke-linejoin="round"/>
     <path d="m396.74-2702.8s0.031-6.375 0.175-12.741c0.074-3.185 0.158-6.367 0.303-8.757 0.032-0.596 0.062-1.143 0.088-1.627 0.049-0.485 0.092-0.907 0.127-1.255 0.07-0.691 0.111-1.085 0.111-1.085s0.026 0.397 0.072 1.092c0.022 0.345 0.051 0.763 0.083 1.244 0.055 0.48 0.116 1.022 0.184 1.614 0.252 2.361 0.699 5.505 1.154 8.645 0.917 6.283 1.942 12.541 1.942 12.541 0.191 1.163-0.597 2.26-1.76 2.451s-2.26-0.597-2.451-1.76c-0.019-0.117-0.028-0.249-0.028-0.362z" fill="#231f20" stroke-miterlimit="10" stroke-width="13.636"/>
     <path d="m389.14-2838.2s9.171 13.193 33.238 21.764" fill="none" stroke="#231f20" stroke-linecap="round" stroke-linejoin="round"/>
     <line x1="501.62" x2="545.5" y1="-2593.2" y2="-2644" fill="none" stroke="#231f20" stroke-linecap="round" stroke-linejoin="round"/>
    </g>
    <ellipse cx="564.18" cy="-2569" rx="202.18" ry="53.475" fill="#323232" fill-opacity=".16244"/>
   </g>
  </g>
 </g>
</svg>
