<?xml version="1.0" encoding="UTF-8" standalone="no"?>
<!-- Created with Inkscape (http://www.inkscape.org/) -->

<svg
   width="86.722771mm"
   height="86.865784mm"
   viewBox="0 0 86.722771 86.865784"
   version="1.1"
   id="svg5"
   inkscape:version="1.2.2 (b0a8486541, 2022-12-01)"
   sodipodi:docname="emblem-dark-over.svg"
   xmlns:inkscape="http://www.inkscape.org/namespaces/inkscape"
   xmlns:sodipodi="http://sodipodi.sourceforge.net/DTD/sodipodi-0.dtd"
   xmlns="http://www.w3.org/2000/svg"
   xmlns:svg="http://www.w3.org/2000/svg">
  <sodipodi:namedview
     id="namedview7"
     pagecolor="#ffffff"
     bordercolor="#666666"
     borderopacity="1.0"
     inkscape:pageshadow="2"
     inkscape:pageopacity="0.0"
     inkscape:pagecheckerboard="0"
     inkscape:document-units="mm"
     showgrid="false"
     inkscape:zoom="2.0359279"
     inkscape:cx="113.95296"
     inkscape:cy="185.66473"
     inkscape:window-width="1503"
     inkscape:window-height="934"
     inkscape:window-x="0"
     inkscape:window-y="0"
     inkscape:window-maximized="1"
     inkscape:current-layer="layer1"
     inkscape:showpageshadow="2"
     inkscape:deskcolor="#d1d1d1" />
  <defs
     id="defs2" />
  <g
     inkscape:label="Layer 1"
     inkscape:groupmode="layer"
     id="layer1"
     transform="translate(-59.996787,-65.111984)">
    <g
       transform="matrix(0.8256977,0,0,0.8256977,49.517105,54.200139)"
       id="g1235"
       style="fill:#a0c0d2;stroke:#a0c0d2;stroke-width:3.61996891;stroke-dasharray:none;fill-opacity:1;stroke-opacity:1">
      <path
         d="M 60.451,112.69 C 49.007,111.465 38.018,106.046 30.462,97.299 19.144,85.169 15.716,66.761 20.8231,51.132 c 5.2526,-15.478 18.879,-27.794 34.967,-30.994 14.885,-3.0681 31.215,1.3084 42.014,12.153 13.875,12.863 18.246,34.448 10.838,51.797 -3.9557,9.7971 -11.683,17.919 -20.779,23.15 -8.3772,4.4243 -17.969,6.467 -27.413,5.4517 z M 71.804,79.08 c 8.5528,-3.6188 11.517,-15.723 5.4666,-22.813 -2.8049,-3.9658 -7.5374,-6.062 -12.345,-5.8494 -9.2532,-0.39725 -16.753,9.7836 -14.23,18.589 1.5432,7.5511 9.4527,12.699 16.966,11.326 1.431,-0.21705 2.8323,-0.63596 4.1425,-1.2521 z"
         fill="#4d4d4d"
         id="path1233"
         style="fill:#a0c0d2;stroke:#a0c0d2;stroke-width:3.61996891;stroke-dasharray:none;fill-opacity:1;stroke-opacity:1" />
    </g>
  </g>
</svg>
