<?xml version="1.0" encoding="UTF-8" standalone="no"?>
<svg
   xmlns:dc="http://purl.org/dc/elements/1.1/"
   xmlns:cc="http://creativecommons.org/ns#"
   xmlns:rdf="http://www.w3.org/1999/02/22-rdf-syntax-ns#"
   xmlns:svg="http://www.w3.org/2000/svg"
   xmlns="http://www.w3.org/2000/svg"
   id="svg8"
   version="1.1"
   viewBox="0 0 114.39508 97.824379"
   height="97.824379mm"
   width="114.39508mm">
  <defs
     id="defs2" />
  <metadata
     id="metadata5">
    <rdf:RDF>
      <cc:Work
         rdf:about="">
        <dc:format>image/svg+xml</dc:format>
        <dc:type
           rdf:resource="http://purl.org/dc/dcmitype/StillImage" />
        <dc:title></dc:title>
      </cc:Work>
    </rdf:RDF>
  </metadata>
  <g
     transform="translate(-17.498918,-24.516849)"
     id="layer1">
    <path
       id="rect815"
       d="M 22.712541,24.652349 H 126.68037 c 2.81328,0 5.07813,2.264843 5.07813,5.078123 V 117.1276 c 0,2.81328 -2.26485,5.07812 -5.07813,5.07812 H 22.712541 c -2.81328,0 -5.078123,-2.26484 -5.078123,-5.07812 V 29.730472 c 0,-2.81328 2.264843,-5.078123 5.078123,-5.078123 z"
       style="opacity:1;fill:#39aa00;fill-opacity:1;stroke:#6d989b;stroke-width:0.271;stroke-linejoin:round;stroke-miterlimit:4;stroke-dasharray:none;stroke-opacity:0.69803922" />
    <g
       id="flowRoot817"
       style="font-style:normal;font-weight:normal;font-size:40px;line-height:1.25;font-family:sans-serif;letter-spacing:0px;word-spacing:0px;fill:#ffffff;fill-opacity:1;stroke:none"
       transform="matrix(0.28541642,0,0,0.28541642,15.693098,-87.516931)"
       aria-label="GEA CoVid-19 
Guidelines 
Enhanced 
Ecobricking ">
      <path
         id="path16812"
         style="font-style:normal;font-variant:normal;font-weight:normal;font-stretch:normal;font-size:31.69105721px;font-family:'Open Sans';-inkscape-font-specification:'Open Sans';fill:#ffffff;stroke-width:0.89334708"
         d="m 58.340368,552.97816 h 6.870422 v 9.82871 q -1.60356,0.51148 -3.262414,0.77413 -1.658854,0.26266 -3.843013,0.26266 -4.589496,0 -7.146897,-2.72329 -2.5574,-2.73711 -2.5574,-7.65838 0,-3.15182 1.257964,-5.51569 1.271789,-2.37769 3.649479,-3.62183 2.377692,-1.25797 5.570986,-1.25797 3.234766,0 6.027171,1.18885 l -0.91237,2.07357 q -2.73711,-1.1612 -5.266862,-1.1612 -3.690951,0 -5.764519,2.19798 -2.073568,2.19798 -2.073568,6.09629 0,4.09184 1.990625,6.20689 2.004449,2.11503 5.875109,2.11503 2.101216,0 4.105664,-0.48383 v -6.2207 h -4.520377 z" />
      <path
         id="path16814"
         style="font-style:normal;font-variant:normal;font-weight:normal;font-stretch:normal;font-size:31.69105721px;font-family:'Open Sans';-inkscape-font-specification:'Open Sans';fill:#ffffff;stroke-width:0.89334708"
         d="M 81.343148,563.56718 H 70.076763 V 543.3568 h 11.266385 v 2.0874 h -8.916342 v 6.511 h 8.377214 v 2.07356 h -8.377214 v 7.43721 h 8.916342 z" />
      <path
         id="path16816"
         style="font-style:normal;font-variant:normal;font-weight:normal;font-stretch:normal;font-size:31.69105721px;font-family:'Open Sans';-inkscape-font-specification:'Open Sans';fill:#ffffff;stroke-width:0.89334708"
         d="m 98.539934,563.56718 -2.515925,-6.42806 h -8.100741 l -2.488281,6.42806 h -2.377691 l 7.990148,-20.29331 h 1.976801 l 7.948675,20.29331 z m -3.248586,-8.5431 -2.350046,-6.26218 q -0.456185,-1.18884 -0.940017,-2.91681 -0.304123,1.32708 -0.870898,2.91681 l -2.377692,6.26218 z" />
      <path
         id="path16818"
         style="font-style:normal;font-variant:normal;font-weight:normal;font-stretch:normal;font-size:31.69105721px;font-family:'Open Sans';-inkscape-font-specification:'Open Sans';fill:#ffffff;stroke-width:0.89334708"
         d="m 119.75945,545.16772 q -3.33154,0 -5.26687,2.22563 -1.9215,2.21181 -1.9215,6.06864 0,3.96743 1.85239,6.13777 1.86621,2.1565 5.30833,2.1565 2.11504,0 4.8245,-0.7603 v 2.05974 q -2.10121,0.78796 -5.18392,0.78796 -4.46509,0 -6.89807,-2.70946 -2.41916,-2.70947 -2.41916,-7.69985 0,-3.12418 1.1612,-5.47423 1.17502,-2.35004 3.373,-3.62182 2.2118,-1.2718 5.19775,-1.2718 3.17946,0 5.55716,1.1612 l -0.99531,2.01828 q -2.29475,-1.07826 -4.5895,-1.07826 z" />
      <path
         id="path16820"
         style="font-style:normal;font-variant:normal;font-weight:normal;font-stretch:normal;font-size:31.69105721px;font-family:'Open Sans';-inkscape-font-specification:'Open Sans';fill:#ffffff;stroke-width:0.89334708"
         d="m 141.6978,555.97792 q 0,3.70478 -1.86621,5.79217 -1.86621,2.07357 -5.15628,2.07357 -2.03209,0 -3.608,-0.95385 -1.57591,-0.95383 -2.43299,-2.73711 -0.85707,-1.78326 -0.85707,-4.17478 0,-3.70477 1.85239,-5.76452 1.85238,-2.07356 5.14244,-2.07356 3.17948,0 5.04569,2.11503 1.88003,2.11505 1.88003,5.72305 z m -11.54286,0 q 0,2.903 1.1612,4.42362 1.16119,1.52061 3.41447,1.52061 2.25328,0 3.41447,-1.50679 1.17503,-1.52062 1.17503,-4.43744 0,-2.88917 -1.17503,-4.38214 -1.16119,-1.50679 -3.44212,-1.50679 -2.25327,0 -3.40065,1.47915 -1.14737,1.47914 -1.14737,4.40978 z" />
      <path
         id="path16822"
         style="font-style:normal;font-variant:normal;font-weight:normal;font-stretch:normal;font-size:31.69105721px;font-family:'Open Sans';-inkscape-font-specification:'Open Sans';fill:#ffffff;stroke-width:0.89334708"
         d="m 157.59515,543.3568 h 2.52976 l -7.28514,20.21038 h -2.32239 l -7.24367,-20.21038 h 2.48828 l 4.64479,13.07731 q 0.80178,2.25327 1.27179,4.38214 0.49765,-2.23946 1.29943,-4.46509 z" />
      <path
         id="path16824"
         style="font-style:normal;font-variant:normal;font-weight:normal;font-stretch:normal;font-size:31.69105721px;font-family:'Open Sans';-inkscape-font-specification:'Open Sans';fill:#ffffff;stroke-width:0.89334708"
         d="m 164.86646,563.56718 h -2.29474 v -15.15087 h 2.29474 z m -2.48827,-19.25653 q 0,-0.78796 0.38706,-1.14738 0.38707,-0.37324 0.96766,-0.37324 0.55296,0 0.95385,0.37324 0.40088,0.37324 0.40088,1.14738 0,0.77413 -0.40088,1.1612 -0.40089,0.37324 -0.95385,0.37324 -0.58059,0 -0.96766,-0.37324 -0.38706,-0.38707 -0.38706,-1.1612 z" />
      <path
         id="path16826"
         style="font-style:normal;font-variant:normal;font-weight:normal;font-stretch:normal;font-size:31.69105721px;font-family:'Open Sans';-inkscape-font-specification:'Open Sans';fill:#ffffff;stroke-width:0.89334708"
         d="m 180.07263,561.53509 h -0.12441 q -1.58973,2.30857 -4.75538,2.30857 -2.97211,0 -4.63097,-2.0321 -1.64504,-2.0321 -1.64504,-5.77834 0,-3.74625 1.65886,-5.81982 1.65886,-2.07356 4.61715,-2.07356 3.0827,0 4.72773,2.23945 h 0.17971 l -0.0968,-1.09208 -0.0553,-1.06443 v -6.16541 h 2.29475 v 21.50981 h -1.86622 z m -4.5895,0.38706 q 2.35005,0 3.40066,-1.27179 1.06443,-1.28561 1.06443,-4.13331 v -0.48383 q 0,-3.22094 -1.07826,-4.5895 -1.06443,-1.38238 -3.41447,-1.38238 -2.01827,0 -3.09653,1.57592 -1.06443,1.56209 -1.06443,4.4236 0,2.903 1.06443,4.38215 1.06444,1.47914 3.12417,1.47914 z" />
      <path
         id="path16828"
         style="font-style:normal;font-variant:normal;font-weight:normal;font-stretch:normal;font-size:31.69105721px;font-family:'Open Sans';-inkscape-font-specification:'Open Sans';fill:#ffffff;stroke-width:0.89334708"
         d="m 185.85098,557.02853 v -2.10122 h 6.78747 v 2.10122 z" />
      <path
         id="path16830"
         style="font-style:normal;font-variant:normal;font-weight:normal;font-stretch:normal;font-size:31.69105721px;font-family:'Open Sans';-inkscape-font-specification:'Open Sans';fill:#ffffff;stroke-width:0.89334708"
         d="m 203.69748,563.56718 h -2.23945 v -14.40439 q 0,-1.79709 0.11059,-3.40065 -0.2903,0.2903 -0.64972,0.60825 -0.35942,0.31795 -3.29006,2.69563 l -1.21649,-1.5759 5.3498,-4.13332 h 1.93533 z" />
      <path
         id="path16832"
         style="font-style:normal;font-variant:normal;font-weight:normal;font-stretch:normal;font-size:31.69105721px;font-family:'Open Sans';-inkscape-font-specification:'Open Sans';fill:#ffffff;stroke-width:0.89334708"
         d="m 224.68198,551.98285 q 0,11.86081 -9.17899,11.86081 -1.60356,0 -2.54357,-0.27648 v -1.9768 q 1.1059,0.35942 2.51592,0.35942 3.31771,0 5.00421,-2.04592 1.70033,-2.05975 1.85239,-6.30365 h -0.16588 q -0.76031,1.14738 -2.01828,1.75562 -1.25796,0.59442 -2.83388,0.59442 -2.68181,0 -4.25772,-1.60355 -1.57591,-1.60356 -1.57591,-4.47891 0,-3.15182 1.75562,-4.97657 1.76944,-1.82474 4.64479,-1.82474 2.05974,0 3.59418,1.06443 1.54827,1.05062 2.37769,3.08271 0.82943,2.01827 0.82943,4.76921 z m -6.8013,-6.95337 q -1.9768,0 -3.05505,1.27179 -1.07826,1.27179 -1.07826,3.53889 0,1.99062 0.99531,3.138 0.99531,1.13355 3.02741,1.13355 1.25797,0 2.30857,-0.51148 1.06443,-0.51148 1.67268,-1.3962 0.60825,-0.88472 0.60825,-1.85239 0,-1.4515 -0.56677,-2.68181 -0.56678,-1.23032 -1.58974,-1.93534 -1.00914,-0.70501 -2.3224,-0.70501 z" />
      <path
         id="path16834"
         style="font-size:31.69105721px;stroke-width:0.89334708"
         d="m 58.340368,586.0974 h 6.870422 v 9.82871 q -1.60356,0.51148 -3.262414,0.77413 -1.658854,0.26265 -3.843013,0.26265 -4.589496,0 -7.146897,-2.72329 -2.5574,-2.73711 -2.5574,-7.65838 0,-3.15181 1.257964,-5.51568 1.271789,-2.3777 3.649479,-3.62184 2.377692,-1.25796 5.570986,-1.25796 3.234766,0 6.027171,1.18885 l -0.91237,2.07356 q -2.73711,-1.1612 -5.266862,-1.1612 -3.690951,0 -5.764519,2.19798 -2.073568,2.19799 -2.073568,6.09629 0,4.09185 1.990625,6.20688 2.004449,2.11505 5.875109,2.11505 2.101216,0 4.105664,-0.48384 v -6.2207 h -4.520377 z" />
      <path
         id="path16836"
         style="font-size:31.69105721px;stroke-width:0.89334708"
         d="m 71.887678,581.53555 v 9.82871 q 0,1.85238 0.843251,2.76476 0.843251,0.91236 2.640344,0.91236 2.37769,0 3.469769,-1.29943 1.105903,-1.29944 1.105903,-4.2439 v -7.9625 h 2.294749 v 15.15086 h -1.893858 l -0.331771,-2.0321 h -0.124414 q -0.705014,1.11973 -1.962979,1.71416 -1.24414,0.59442 -2.847699,0.59442 -2.764757,0 -4.147136,-1.31326 -1.368555,-1.31326 -1.368555,-4.20243 v -9.91165 z" />
      <path
         id="path16838"
         style="font-size:31.69105721px;stroke-width:0.89334708"
         d="m 89.388593,596.68641 h -2.294748 v -15.15086 h 2.294748 z m -2.488281,-19.25653 q 0,-0.78795 0.387066,-1.14738 0.387066,-0.37324 0.967665,-0.37324 0.552951,0 0.953841,0.37324 0.40089,0.37325 0.40089,1.14738 0,0.77413 -0.40089,1.16119 -0.40089,0.37324 -0.953841,0.37324 -0.580599,0 -0.967665,-0.37324 -0.387066,-0.38706 -0.387066,-1.16119 z" />
      <path
         id="path16840"
         style="font-size:31.69105721px;stroke-width:0.89334708"
         d="m 104.59475,594.65431 h -0.12441 q -1.58973,2.30858 -4.755376,2.30858 -2.972123,0 -4.63097,-2.0321 -1.645034,-2.03209 -1.645034,-5.77834 0,-3.74624 1.658854,-5.81981 1.658856,-2.07358 4.61715,-2.07358 3.082696,0 4.727736,2.23946 h 0.1797 l -0.0968,-1.09208 -0.0553,-1.06443 v -6.16541 h 2.29475 v 21.50981 h -1.86621 z m -4.58949,0.38707 q 2.35004,0 3.40065,-1.27178 1.06443,-1.28562 1.06443,-4.13332 v -0.48383 q 0,-3.22094 -1.07825,-4.58949 -1.06444,-1.38239 -3.414476,-1.38239 -2.018276,0 -3.096528,1.57591 -1.064432,1.56209 -1.064432,4.42362 0,2.90299 1.064432,4.38214 1.064432,1.47914 3.124174,1.47914 z" />
      <path
         id="path16842"
         style="font-size:31.69105721px;stroke-width:0.89334708"
         d="m 118.0453,596.96289 q -3.35918,0 -5.30833,-2.04592 -1.93534,-2.04592 -1.93534,-5.68158 0,-3.6633 1.79709,-5.81981 1.81093,-2.15652 4.85216,-2.15652 2.8477,0 4.50655,1.88004 1.65885,1.86622 1.65885,4.9351 v 1.45149 h -10.43695 q 0.0691,2.668 1.3409,4.05037 1.28562,1.38238 3.60801,1.38238 2.44681,0 4.83833,-1.02296 v 2.04592 q -1.2165,0.5253 -2.30858,0.74649 -1.07825,0.235 -2.61269,0.235 z m -0.62207,-13.78232 q -1.82474,0 -2.91682,1.18885 -1.07826,1.18884 -1.27179,3.29006 h 7.92103 q 0,-2.17034 -0.96767,-3.31771 -0.96766,-1.1612 -2.76475,-1.1612 z" />
      <path
         id="path16844"
         style="font-size:31.69105721px;stroke-width:0.89334708"
         d="m 129.80934,596.68641 h -2.29475 V 575.1766 h 2.29475 z" />
      <path
         id="path16846"
         style="font-size:31.69105721px;stroke-width:0.89334708"
         d="m 136.99771,596.68641 h -2.29475 v -15.15086 h 2.29475 z m -2.48828,-19.25653 q 0,-0.78795 0.38707,-1.14738 0.38706,-0.37324 0.96766,-0.37324 0.55295,0 0.95385,0.37324 0.40089,0.37325 0.40089,1.14738 0,0.77413 -0.40089,1.16119 -0.4009,0.37324 -0.95385,0.37324 -0.5806,0 -0.96766,-0.37324 -0.38707,-0.38706 -0.38707,-1.16119 z" />
      <path
         id="path16848"
         style="font-size:31.69105721px;stroke-width:0.89334708"
         d="m 152.25917,596.68641 v -9.80106 q 0,-1.85239 -0.84326,-2.76476 -0.84324,-0.91237 -2.64034,-0.91237 -2.37768,0 -3.48359,1.28561 -1.10591,1.28562 -1.10591,4.24391 v 7.94867 h -2.29474 v -15.15086 h 1.86621 l 0.37325,2.07356 h 0.11058 q 0.70501,-1.11973 1.9768,-1.72797 1.2718,-0.62208 2.83388,-0.62208 2.73711,0 4.11949,1.32709 1.38238,1.31326 1.38238,4.21626 v 9.884 z" />
      <path
         id="path16850"
         style="font-size:31.69105721px;stroke-width:0.89334708"
         d="m 165.65442,596.96289 q -3.35918,0 -5.30834,-2.04592 -1.93533,-2.04592 -1.93533,-5.68158 0,-3.6633 1.79709,-5.81981 1.81093,-2.15652 4.85216,-2.15652 2.84769,0 4.50655,1.88004 1.65885,1.86622 1.65885,4.9351 v 1.45149 h -10.43695 q 0.0691,2.668 1.3409,4.05037 1.28562,1.38238 3.60801,1.38238 2.44681,0 4.83832,-1.02296 v 2.04592 q -1.21649,0.5253 -2.30857,0.74649 -1.07825,0.235 -2.61269,0.235 z m -0.62207,-13.78232 q -1.82475,0 -2.91682,1.18885 -1.07826,1.18884 -1.27179,3.29006 h 7.92103 q 0,-2.17034 -0.96767,-3.31771 -0.96766,-1.1612 -2.76475,-1.1612 z" />
      <path
         id="path16852"
         style="font-size:31.69105721px;stroke-width:0.89334708"
         d="m 184.89713,592.5531 q 0,2.11504 -1.57591,3.26241 -1.57591,1.14738 -4.42361,1.14738 -3.01359,0 -4.70008,-0.95384 v -2.12887 q 1.09207,0.55296 2.33621,0.8709 1.25797,0.31795 2.41916,0.31795 1.79709,0 2.76476,-0.56677 0.96766,-0.58061 0.96766,-1.75563 0,-0.88471 -0.77413,-1.50679 -0.76031,-0.63589 -2.98593,-1.49297 -2.11504,-0.78796 -3.01359,-1.36855 -0.88472,-0.59443 -1.32708,-1.34091 -0.42854,-0.74649 -0.42854,-1.78327 0,-1.85238 1.5068,-2.91681 1.50679,-1.07827 4.13331,-1.07827 2.4468,0 4.78302,0.99532 l -0.8156,1.86621 q -2.28093,-0.94002 -4.13331,-0.94002 -1.6312,0 -2.46063,0.51148 -0.82943,0.51149 -0.82943,1.41003 0,0.60825 0.30412,1.03679 0.31795,0.42853 1.00914,0.81559 0.69119,0.38707 2.65416,1.11974 2.69564,0.98148 3.63566,1.97679 0.95384,0.99532 0.95384,2.50211 z" />
      <path
         id="path16854"
         style="font-style:normal;font-variant:normal;font-weight:600;font-stretch:normal;font-family:'Open Sans';-inkscape-font-specification:'Open Sans Semi-Bold';fill:#ffffff;stroke-width:1.18717718"
         d="M 69.412022,652.39316 H 50.236328 v -33.89947 h 19.175694 v 4.68379 H 55.778034 v 9.22845 h 12.776067 v 4.63741 H 55.778034 v 10.64285 h 13.633988 z" />
      <path
         id="path16856"
         style="font-style:normal;font-variant:normal;font-weight:600;font-stretch:normal;font-family:'Open Sans';-inkscape-font-specification:'Open Sans Semi-Bold';fill:#ffffff;stroke-width:1.18717718"
         d="M 98.743644,652.39316 H 93.2715 v -15.7672 q 0,-2.96794 -1.205727,-4.42872 -1.18254,-1.46078 -3.77949,-1.46078 -3.45487,0 -5.054777,2.04046 -1.599906,2.04046 -1.599906,6.84018 v 12.77606 h -5.448958 v -25.64488 h 4.266418 l 0.765172,3.36212 h 0.278245 q 1.159353,-1.83178 3.292562,-2.82882 2.133209,-0.99704 4.730159,-0.99704 9.228446,0 9.228446,9.39075 z" />
      <path
         id="path16858"
         style="font-style:normal;font-variant:normal;font-weight:600;font-stretch:normal;font-family:'Open Sans';-inkscape-font-specification:'Open Sans Semi-Bold';fill:#ffffff;stroke-width:1.18717718"
         d="m 128.88682,652.39316 h -5.47215 v -15.7672 q 0,-2.96794 -1.20572,-4.42872 -1.18255,-1.46078 -3.7795,-1.46078 -3.43168,0 -5.05478,2.06364 -1.5999,2.04047 -1.5999,6.86337 v 12.72969 h -5.44896 v -36.07905 h 5.44896 v 9.15888 q 0,2.20277 -0.27825,4.70698 h 0.34781 q 1.11298,-1.85497 3.08388,-2.8752 1.99408,-1.02023 4.63741,-1.02023 9.3212,0 9.3212,9.39075 z" />
      <path
         id="path16860"
         style="font-style:normal;font-variant:normal;font-weight:600;font-stretch:normal;font-family:'Open Sans';-inkscape-font-specification:'Open Sans Semi-Bold';fill:#ffffff;stroke-width:1.18717718"
         d="m 152.51442,652.39316 -1.08979,-3.57081 h -0.1855 q -1.85496,2.3419 -3.73311,3.19981 -1.87815,0.83474 -4.82291,0.83474 -3.77949,0 -5.9127,-2.04046 -2.11002,-2.04046 -2.11002,-5.77357 0,-3.96499 2.94476,-5.98226 2.94476,-2.01727 8.97339,-2.20277 l 4.42872,-0.13912 v -1.36804 q 0,-2.45783 -1.15935,-3.66355 -1.13616,-1.22892 -3.54761,-1.22892 -1.97091,0 -3.7795,0.57967 -1.80858,0.57968 -3.47805,1.36805 l -1.76222,-3.89543 q 2.08683,-1.08979 4.56785,-1.64628 2.48101,-0.57968 4.68378,-0.57968 4.89247,0 7.37349,2.13321 2.5042,2.13321 2.5042,6.70105 v 17.27436 z m -8.11547,-3.70993 q 2.96794,0 4.75335,-1.64627 1.80859,-1.66947 1.80859,-4.66061 v -2.22596 l -3.29256,0.13913 q -3.84906,0.13912 -5.61127,1.29847 -1.73903,1.13617 -1.73903,3.50125 0,1.71584 1.02023,2.66651 1.02023,0.92748 3.06069,0.92748 z" />
      <path
         id="path16862"
         style="font-style:normal;font-variant:normal;font-weight:600;font-stretch:normal;font-family:'Open Sans';-inkscape-font-specification:'Open Sans Semi-Bold';fill:#ffffff;stroke-width:1.18717718"
         d="m 186.57621,652.39316 h -5.47215 v -15.7672 q 0,-2.96794 -1.20572,-4.42872 -1.18255,-1.46078 -3.7795,-1.46078 -3.45486,0 -5.05478,2.04046 -1.59989,2.04046 -1.59989,6.84018 v 12.77606 h -5.44897 v -25.64488 h 4.26642 l 0.76517,3.36212 h 0.27825 q 1.15935,-1.83178 3.29256,-2.82882 2.13321,-0.99704 4.73016,-0.99704 9.22845,0 9.22845,9.39075 z" />
      <path
         id="path16864"
         style="font-style:normal;font-variant:normal;font-weight:600;font-stretch:normal;font-family:'Open Sans';-inkscape-font-specification:'Open Sans Semi-Bold';fill:#ffffff;stroke-width:1.18717718"
         d="m 204.49979,652.8569 q -5.81994,0 -8.85744,-3.3853 -3.01433,-3.40851 -3.01433,-9.76176 0,-6.46919 3.15344,-9.94725 3.17664,-3.47805 9.15889,-3.47805 4.05774,0 7.30392,1.50716 l -1.64628,4.38235 q -3.45486,-1.34485 -5.70401,-1.34485 -6.65468,0 -6.65468,8.83427 0,4.31279 1.64628,6.49238 1.66947,2.15639 4.86928,2.15639 3.64036,0 6.88655,-1.80859 v 4.75334 q -1.46078,0.85793 -3.13025,1.22892 -1.64628,0.37099 -4.01137,0.37099 z" />
      <path
         id="path16866"
         style="font-style:normal;font-variant:normal;font-weight:600;font-stretch:normal;font-family:'Open Sans';-inkscape-font-specification:'Open Sans Semi-Bold';fill:#ffffff;stroke-width:1.18717718"
         d="m 228.91577,652.8569 q -5.98226,0 -9.36757,-3.47806 -3.36213,-3.50124 -3.36213,-9.62263 0,-6.28369 3.13025,-9.87768 3.13026,-3.59399 8.60241,-3.59399 5.07796,0 8.02271,3.08387 2.94476,3.08389 2.94476,8.48647 v 2.94476 h -17.08886 q 0.11587,3.73311 2.01728,5.75039 1.90134,1.99409 5.3562,1.99409 2.27234,0 4.22005,-0.41738 1.9709,-0.44055 4.22004,-1.43759 v 4.42873 q -1.99409,0.95067 -4.03455,1.34485 -2.04046,0.39417 -4.66059,0.39417 z m -0.99704,-22.44506 q -2.59695,0 -4.17368,1.64628 -1.55353,1.64628 -1.85496,4.79972 h 11.6399 q -0.0464,-3.17662 -1.53034,-4.79972 -1.48397,-1.64628 -4.08092,-1.64628 z" />
      <path
         id="path16868"
         style="font-style:normal;font-variant:normal;font-weight:600;font-stretch:normal;font-family:'Open Sans';-inkscape-font-specification:'Open Sans Semi-Bold';fill:#ffffff;stroke-width:1.18717718"
         d="m 253.72592,652.8569 q -4.79973,0 -7.48943,-3.47806 -2.68969,-3.47806 -2.68969,-9.76174 0,-6.30688 2.71289,-9.80812 2.73606,-3.52444 7.55897,-3.52444 5.05479,0 7.69811,3.73312 h 0.27824 q -0.39418,-2.75926 -0.39418,-4.35917 v -9.34438 h 5.47215 v 36.07905 h -4.26642 l -0.95067,-3.36212 h -0.25506 q -2.62014,3.82586 -7.67491,3.82586 z m 1.46078,-4.40554 q 3.36212,0 4.89247,-1.87815 1.53034,-1.90133 1.57672,-6.14457 v -0.76517 q 0,-4.84609 -1.57672,-6.88655 -1.57672,-2.04046 -4.93885,-2.04046 -2.87519,0 -4.42872,2.34188 -1.55354,2.31871 -1.55354,6.6315 0,4.26642 1.50716,6.51556 1.50716,2.22596 4.52148,2.22596 z" />
      <path
         id="path16870"
         style="font-style:normal;font-variant:normal;font-weight:600;font-stretch:normal;font-family:'Open Sans';-inkscape-font-specification:'Open Sans Semi-Bold';fill:#ffffff;stroke-width:1.18717718"
         d="M 69.412022,702.54287 H 50.236328 v -33.89948 h 19.175694 v 4.68378 H 55.778034 v 9.22845 h 12.776067 v 4.63741 H 55.778034 v 10.64286 h 13.633988 z" />
      <path
         id="path16872"
         style="font-style:normal;font-variant:normal;font-weight:600;font-stretch:normal;font-family:'Open Sans';-inkscape-font-specification:'Open Sans Semi-Bold';fill:#ffffff;stroke-width:1.18717718"
         d="m 86.524067,703.0066 q -5.819949,0 -8.857454,-3.38531 -3.014317,-3.4085 -3.014317,-9.76175 0,-6.46919 3.153439,-9.94724 3.176627,-3.47806 9.158887,-3.47806 4.057734,0 7.303922,1.50716 l -1.646281,4.38235 q -3.454871,-1.34485 -5.704015,-1.34485 -6.654685,0 -6.654685,8.83427 0,4.31279 1.646281,6.49237 1.669468,2.1564 4.869281,2.1564 3.640367,0 6.886555,-1.80859 v 4.75334 q -1.460784,0.85793 -3.130252,1.22892 -1.646281,0.37099 -4.011361,0.37099 z" />
      <path
         id="path16874"
         style="font-style:normal;font-variant:normal;font-weight:600;font-stretch:normal;font-family:'Open Sans';-inkscape-font-specification:'Open Sans Semi-Bold';fill:#ffffff;stroke-width:1.18717718"
         d="m 122.48718,689.67404 q 0,6.2837 -3.22299,9.80813 -3.223,3.52443 -8.97339,3.52443 -3.594,0 -6.35325,-1.6231 -2.75926,-1.62308 -4.243236,-4.66059 -1.48397,-3.0375 -1.48397,-7.04887 0,-6.23731 3.199816,-9.73855 3.19981,-3.50125 9.01976,-3.50125 5.56489,0 8.81108,3.59399 3.24618,3.5708 3.24618,9.64581 z m -18.66557,0 q 0,8.88065 6.56194,8.88065 6.49237,0 6.49237,-8.88065 0,-8.78789 -6.53875,-8.78789 -3.43168,0 -4.98521,2.27233 -1.53035,2.27233 -1.53035,6.51556 z" />
      <path
         id="path16876"
         style="font-style:normal;font-variant:normal;font-weight:600;font-stretch:normal;font-family:'Open Sans';-inkscape-font-specification:'Open Sans Semi-Bold';fill:#ffffff;stroke-width:1.18717718"
         d="m 141.87157,676.43424 q 4.79972,0 7.46623,3.47806 2.6897,3.47805 2.6897,9.76174 0,6.30688 -2.71289,9.83131 -2.71289,3.50125 -7.5358,3.50125 -4.86927,0 -7.55897,-3.50125 h -0.37099 l -0.99705,3.03752 h -4.08092 V 666.4638 h 5.44896 v 8.57921 q 0,0.95067 -0.0927,2.82883 -0.0927,1.87815 -0.13912,2.38826 h 0.23188 q 2.59695,-3.82586 7.65172,-3.82586 z m -1.41442,4.45191 q -3.29256,0 -4.75334,1.94771 -1.4376,1.92453 -1.48397,6.46919 v 0.37099 q 0,4.68379 1.48397,6.79381 1.48398,2.08684 4.8461,2.08684 2.89837,0 4.38234,-2.29552 1.50716,-2.29552 1.50716,-6.6315 0,-8.74152 -5.98226,-8.74152 z" />
      <path
         id="path16878"
         style="font-style:normal;font-variant:normal;font-weight:600;font-stretch:normal;font-family:'Open Sans';-inkscape-font-specification:'Open Sans Semi-Bold';fill:#ffffff;stroke-width:1.18717718"
         d="m 171.3655,676.43424 q 1.64628,0 2.71288,0.23187 l -0.53329,5.07796 q -1.15937,-0.27824 -2.41146,-0.27824 -3.26938,0 -5.30984,2.1332 -2.01727,2.13322 -2.01727,5.54171 v 13.40213 h -5.44896 v -25.64489 h 4.26642 l 0.7188,4.52148 h 0.27824 q 1.27529,-2.29553 3.31575,-3.64037 2.06365,-1.34485 4.42873,-1.34485 z" />
      <path
         id="path16880"
         style="font-style:normal;font-variant:normal;font-weight:600;font-stretch:normal;font-family:'Open Sans';-inkscape-font-specification:'Open Sans Semi-Bold';fill:#ffffff;stroke-width:1.18717718"
         d="m 184.30388,702.54287 h -5.44897 v -25.64489 h 5.44897 z m -5.77359,-32.43869 q 0,-1.46079 0.78837,-2.24915 0.81154,-0.78837 2.29552,-0.78837 1.4376,0 2.22595,0.78837 0.81155,0.78836 0.81155,2.24915 0,1.39121 -0.81155,2.20277 -0.78835,0.78835 -2.22595,0.78835 -1.48398,0 -2.29552,-0.78835 -0.78837,-0.81156 -0.78837,-2.20277 z" />
      <path
         id="path16882"
         style="font-style:normal;font-variant:normal;font-weight:600;font-stretch:normal;font-family:'Open Sans';-inkscape-font-specification:'Open Sans Semi-Bold';fill:#ffffff;stroke-width:1.18717718"
         d="m 202.45933,703.0066 q -5.81994,0 -8.85744,-3.38531 -3.01433,-3.4085 -3.01433,-9.76175 0,-6.46919 3.15344,-9.94724 3.17664,-3.47806 9.15889,-3.47806 4.05774,0 7.30392,1.50716 l -1.64628,4.38235 q -3.45486,-1.34485 -5.70401,-1.34485 -6.65468,0 -6.65468,8.83427 0,4.31279 1.64628,6.49237 1.66947,2.1564 4.86928,2.1564 3.64036,0 6.88655,-1.80859 v 4.75334 q -1.46078,0.85793 -3.13025,1.22892 -1.64628,0.37099 -4.01137,0.37099 z" />
      <path
         id="path16884"
         style="font-style:normal;font-variant:normal;font-weight:600;font-stretch:normal;font-family:'Open Sans';-inkscape-font-specification:'Open Sans Semi-Bold';fill:#ffffff;stroke-width:1.18717718"
         d="m 220.93942,689.00163 3.08388,-3.84906 7.74447,-8.25459 h 6.28369 l -10.31823,11.01385 10.96748,14.63104 h -6.39964 l -8.2314,-11.24573 -2.99113,2.45782 v 8.78791 h -5.40258 V 666.4638 h 5.40258 v 17.59898 l -0.27825,4.93885 z" />
      <path
         id="path16886"
         style="font-style:normal;font-variant:normal;font-weight:600;font-stretch:normal;font-family:'Open Sans';-inkscape-font-specification:'Open Sans Semi-Bold';fill:#ffffff;stroke-width:1.18717718"
         d="m 248.30015,702.54287 h -5.44897 v -25.64489 h 5.44897 z m -5.77359,-32.43869 q 0,-1.46079 0.78837,-2.24915 0.81154,-0.78837 2.29551,-0.78837 1.4376,0 2.22596,0.78837 0.81154,0.78836 0.81154,2.24915 0,1.39121 -0.81154,2.20277 -0.78836,0.78835 -2.22596,0.78835 -1.48397,0 -2.29551,-0.78835 -0.78837,-0.81156 -0.78837,-2.20277 z" />
      <path
         id="path16888"
         style="font-style:normal;font-variant:normal;font-weight:600;font-stretch:normal;font-family:'Open Sans';-inkscape-font-specification:'Open Sans Semi-Bold';fill:#ffffff;stroke-width:1.18717718"
         d="m 278.67518,702.54287 h -5.47214 v -15.7672 q 0,-2.96794 -1.20573,-4.42873 -1.18254,-1.46079 -3.77949,-1.46079 -3.45487,0 -5.05477,2.04047 -1.59991,2.04046 -1.59991,6.84018 v 12.77607 h -5.44896 v -25.64489 h 4.26642 l 0.76517,3.36212 h 0.27824 q 1.15936,-1.83177 3.29257,-2.82882 2.13321,-0.99704 4.73016,-0.99704 9.22844,0 9.22844,9.39075 z" />
      <path
         id="path16890"
         style="font-style:normal;font-variant:normal;font-weight:600;font-stretch:normal;font-family:'Open Sans';-inkscape-font-specification:'Open Sans Semi-Bold';fill:#ffffff;stroke-width:1.18717718"
         d="m 307.91406,676.89798 v 2.99112 l -4.38236,0.81156 q 0.60287,0.81154 0.99705,1.99409 0.39418,1.18253 0.39418,2.50419 0,3.96499 -2.73607,6.23733 -2.73608,2.27232 -7.5358,2.27232 -1.22891,0 -2.22596,-0.18549 -1.76221,1.08979 -1.76221,2.55058 0,0.8811 0.81154,1.32166 0.83474,0.44055 3.03752,0.44055 h 4.4751 q 4.24323,0 6.446,1.80859 2.20276,1.80859 2.20276,5.21709 0,4.35917 -3.59399,6.72424 -3.59399,2.36508 -10.3878,2.36508 -5.24027,0 -7.99953,-1.85496 -2.75926,-1.85497 -2.75926,-5.28665 0,-2.36508 1.48397,-3.98818 1.50716,-1.59991 4.19686,-2.22595 -1.08979,-0.46374 -1.80859,-1.48397 -0.69562,-1.04343 -0.69562,-2.17959 0,-1.43759 0.81156,-2.43464 0.81154,-0.99704 2.41145,-1.97089 -1.99409,-0.85793 -3.24619,-2.78245 -1.22892,-1.94772 -1.22892,-4.54467 0,-4.17366 2.62015,-6.46919 2.64332,-2.29551 7.5126,-2.29551 1.08979,0 2.27232,0.16231 1.20574,0.13911 1.8086,0.30143 z m -20.14955,29.63305 q 0,1.76223 1.57672,2.71289 1.5999,0.95067 4.4751,0.95067 4.45192,0 6.6315,-1.27529 2.17958,-1.27529 2.17958,-3.38531 0,-1.66946 -1.20572,-2.38826 -1.18254,-0.69562 -4.42873,-0.69562 h -4.1273 q -2.34189,0 -3.73311,1.08979 -1.36804,1.11298 -1.36804,2.99113 z m 2.34189,-21.33209 q 0,2.41146 1.22892,3.70993 1.25209,1.29848 3.5708,1.29848 4.73016,0 4.73016,-5.05478 0,-2.50421 -1.18254,-3.84905 -1.15935,-1.36803 -3.54762,-1.36803 -2.36508,0 -3.594,1.34484 -1.20572,1.34485 -1.20572,3.91861 z" />
    </g>
    <path
       id="path3403"
       d="m 106.87081,76.023716 c -0.36654,-0.08589 -0.55705,-0.166888 -0.90505,-0.385382 -0.11769,-0.07381 -0.58383,-0.36757 -1.03607,-0.652704 -0.45224,-0.285133 -0.85729,-0.539867 -0.90009,-0.566037 -0.0428,-0.02618 -0.42521,-0.266833 -0.84979,-0.534764 -0.42458,-0.267919 -1.22722,-0.774261 -1.78368,-1.1252 -1.10494,-0.696854 -1.15366,-0.728813 -1.28012,-0.839599 -0.340478,-0.298324 -0.586205,-0.673177 -0.743325,-1.134003 -0.123439,-0.362167 -0.176814,-0.706586 -0.172052,-1.111101 0.0014,-0.159027 0.05424,-0.535289 0.09596,-0.689782 0.06949,-0.25715 0.16037,-0.484443 0.270991,-0.677621 0.740266,-1.29275 1.528976,-2.506985 2.231266,-3.435149 0.40079,-0.529674 0.61002,-0.779343 1.4716,-1.755981 0.16347,-0.185295 0.35178,-0.403178 0.41846,-0.484192 0.35546,-0.431874 0.65807,-0.872242 0.93621,-1.362472 0.24935,-0.439462 0.30129,-0.554787 0.61985,-1.376238 0.42047,-1.084268 0.54933,-1.401311 0.73098,-1.798456 0.56326,-1.231518 1.27938,-2.23779 2.3661,-3.324799 0.20731,-0.207363 0.24552,-0.238996 0.35945,-0.297588 0.54379,-0.279648 1.12049,-0.458199 1.69322,-0.524232 0.22942,-0.02641 0.41723,-0.03798 0.83019,-0.05106 0.59395,-0.01879 0.84984,-0.04093 1.15738,-0.100133 0.17804,-0.03432 0.4498,-0.105081 0.4715,-0.122849 0.007,-0.0064 0.15474,-0.228673 0.32707,-0.494404 0.66506,-1.025548 0.96288,-1.492928 1.01245,-1.588908 l 0.0335,-0.06489 -0.0293,-0.08764 c -0.0275,-0.08238 -0.0288,-0.09366 -0.0197,-0.188009 0.01,-0.09786 0.0115,-0.102377 0.058,-0.182576 0.0404,-0.06892 0.06,-0.0909 0.12012,-0.135725 0.17749,-0.132158 0.39907,-0.123569 0.58122,0.02256 0.0537,0.04303 0.49352,0.327375 0.92026,0.594875 0.0977,0.0612 0.18129,0.10829 0.18592,0.104679 0.0115,-0.0086 0.20717,-0.447408 0.41042,-0.918335 1.09297,-2.532513 1.93214,-5.066361 2.3454,-7.081844 0.0986,-0.480782 0.11971,-0.608529 0.19319,-1.166703 0.0873,-0.664115 0.10675,-0.929286 0.10013,-1.371846 -0.0144,-0.918928 -0.23625,-1.502723 -0.65088,-1.708378 -0.38578,-0.19136 -0.92568,-0.05291 -1.65757,0.425053 -0.1512,0.09875 -0.57371,0.423027 -0.7602,0.583457 -1.00466,0.915455 -1.58725,1.560964 -2.38504,2.473898 l -0.0115,-0.04467 c -0.0606,-0.244774 -1.73564,-7.300172 -1.73672,-7.315275 0.40071,-0.180972 0.99112,-0.360348 1.47222,-0.495783 2.43387,-0.683101 4.30675,-0.642334 5.64364,0.122821 0.91594,0.524237 1.58244,1.430076 1.9509,2.651492 0.2911,0.965011 0.42075,2.169743 0.3672,3.412682 -0.1174,2.72576 -1.09477,5.851076 -3.07864,9.84454 -0.24985,0.50295 -0.65173,1.28924 -0.75197,1.471209 -0.006,0.01179 -9.7e-4,0.02024 0.022,0.03386 0.0168,0.0099 0.27624,0.165002 0.5764,0.34445 0.30017,0.179441 0.5668,0.335571 0.59251,0.346965 0.0258,0.01137 0.071,0.03863 0.10085,0.0605 0.0618,0.04538 0.1586,0.10363 0.26507,0.159433 0.1043,0.0547 0.15776,0.106895 0.21066,0.205882 0.0581,0.108909 0.0671,0.144322 0.0606,0.240894 -0.0115,0.17928 -0.13293,0.330248 -0.3068,0.383428 -0.0578,0.01774 -0.19219,0.02114 -0.24242,0.0062 -0.0346,-0.01036 -0.0611,0.01021 -0.13638,0.10596 -0.0533,0.06771 -0.39916,0.621658 -0.93176,1.492246 l -0.36159,0.591064 0.0191,0.115829 c 0.0656,0.396104 0.18037,0.741991 0.45624,1.374776 0.102,0.233988 0.21416,0.498208 0.24921,0.587147 0.20716,0.525807 0.31559,1.015336 0.34531,1.558958 0.0115,0.200905 0.0115,0.4829 9.7e-4,0.560354 -0.01,0.07565 -0.1588,0.502665 -0.30164,0.865311 -0.32555,0.826425 -0.67066,1.495049 -1.10895,2.14852 -0.41498,0.618675 -0.83061,1.116453 -1.68978,2.023707 -0.31796,0.335761 -0.77041,0.823127 -0.87177,0.939076 -0.21012,0.240358 -0.57084,0.761568 -0.81273,1.174355 -0.24764,0.422593 -0.41323,0.768986 -0.75427,1.57775 -0.29116,0.690503 -0.41351,0.966752 -0.60036,1.355594 -0.46271,0.962827 -1.01753,1.92825 -1.77356,3.086059 -0.2828,0.433111 -0.67507,1.008327 -0.7461,1.094087 -0.27504,0.332078 -0.675,0.635123 -1.08135,0.819289 -0.40201,0.182297 -0.8466,0.281135 -1.28067,0.285005 -0.10877,8.77e-4 -0.4418,-0.0305 -0.52277,-0.04949 z m 5.97247,-10.469532 c -0.64751,-0.434032 -1.15736,-0.767102 -1.84644,-1.223992 -8.5e-4,-0.0011 0.0971,-0.160049 0.21792,-0.353528 1.01915,-1.632834 1.76534,-2.921994 2.61274,-4.513933 0.48532,-0.911743 0.68799,-1.303311 2.00408,-3.87194 0.47408,-0.925274 1.02167,-1.99207 1.21687,-2.370666 0.1952,-0.378593 0.35349,-0.690171 0.35174,-0.692388 -0.006,-0.0079 -1.30936,-0.78086 -1.31854,-0.782065 -0.0115,-0.0015 0.006,-0.0333 -0.28134,0.517034 -2.03465,3.904216 -3.42127,6.239009 -5.38197,9.062191 -0.42057,0.605557 -1.2428,1.766178 -1.26238,1.781881 -0.93796,-0.741764 -0.96408,-0.769561 -1.8649,-1.504011 -0.25121,2.152827 -0.54618,4.346177 -0.74672,6.192151 2.18756,-0.809034 4.11913,-1.407276 6.29894,-2.240734 z m -6.17265,-6.883148 c 9.7e-4,-0.0092 -0.003,-0.0078 -0.009,0.0039 -0.006,0.01008 -0.0115,0.02491 -0.0129,0.03295 -9.6e-4,0.0092 9.7e-4,0.0077 0.009,-0.0039 0.006,-0.01008 0.0115,-0.02491 0.0129,-0.03296 z m 0.0284,-0.06552 c 9.7e-4,-0.0092 -0.003,-0.0078 -0.009,0.0039 -0.006,0.01021 -0.0115,0.02491 -0.0129,0.03296 -9.7e-4,0.0092 9.6e-4,0.0078 0.009,-0.0039 0.006,-0.01008 0.0115,-0.02491 0.0129,-0.03295 z M 101.26945,43.7294 c 9.7e-4,-0.0079 4.63111,-5.359637 4.63672,-5.359395 1.60779,1.834726 2.83086,3.295992 4.54191,5.241653 -0.89398,-2.361267 -1.63294,-4.189935 -2.57814,-6.699925 0.76741,-0.454338 1.31545,-0.905871 2.14558,-1.359645 0.0144,0.01882 2.40446,9.060364 2.40192,9.084734 -9.7e-4,0.01964 -0.13106,0.136719 -0.59891,0.543398 l -0.59631,0.518371 c -1.06322,1.4302 -2.07839,2.896926 -3.15248,4.318898 -2.36109,-2.242693 -4.32515,-3.872044 -6.80029,-6.288089 z"
       style="fill:#ffffff;stroke-width:0.00980853" />
  </g>
</svg>
