<?xml version="1.0" encoding="UTF-8"?>
<svg width="153.48mm" height="88.434mm" version="1.1" viewBox="0 0 153.48 88.434" xmlns="http://www.w3.org/2000/svg" xmlns:xlink="http://www.w3.org/1999/xlink">
 <defs>
  <linearGradient id="linearGradient22915" x1="79.866" x2="78.428" y1="175.1" y2="109.12" gradientTransform="matrix(1.0952 0 0 1.3394 30.158 -52.775)" gradientUnits="userSpaceOnUse">
   <stop stop-color="#0ff" offset="0"/>
   <stop stop-color="#0ff" stop-opacity="0" offset="1"/>
  </linearGradient>
 </defs>
 <g transform="translate(-34.795 -93.456)">
  <path d="m187.93 181.89 0.34162-88.434h-153.48v87.562" fill="url(#linearGradient22915)" filter="url(#filter1073)"/>
  <g fill="#fff">
   <path d="m168.54 137.42c-1.575 0.38062-1.6974-2.5008-3.7312-2.4655-2.0499-0.54581-4.3844 0.72103-4.8381 2.6207-1.9664-0.80965-4.1682 1.2929-3.2345 3.0434 0.55754 1.3684 2.2592 1.4977 3.6274 1.4062 2.8941-0.0302 5.7967 0.0611 8.6856-0.0469 2.1299-0.29252 2.7507-3.156 0.90342-4.1646-0.41369-0.25606-0.91252-0.39462-1.4126-0.39334z" filter="url(#filter1073)" opacity=".77" stroke-width="2.0367"/>
   <path d="m59.533 140.48c-1.7372 0.0627-2.5257-3.6944-5.3927-2.9097-3.0669-0.10936-2.8848 3.7822-5.7064 3.1144-3.0938 1.2237-1.3226 5.7418 1.901 5.0082 3.2452-0.0341 6.4985 0.0688 9.7384-0.053 3.0966-0.58807 2.6735-5.1602-0.54034-5.1602z" filter="url(#filter1073)" opacity=".77" stroke-width=".04427"/>
   <g transform="matrix(2.0631 0 0 1.8795 -99.494 -37.814)" filter="url(#filter1073)">
    <path d="m117.58 86.186c-0.57997-0.06616-1.0733-1.443-2.0691-0.89075-0.73966 0.36436-0.77325 1.0741-1.6486 1.0382-0.89898 0.61888-0.0386 1.8592 0.88797 1.5784 1.0532-0.03714 2.126 0.07921 3.1655-0.06781 0.85706-0.33752 0.588-1.6797-0.33578-1.658z" opacity=".77" stroke-width=".014448"/>
   </g>
   <g transform="matrix(1.3561 0 0 1.2354 -84.291 6.2882)" filter="url(#filter1073)">
    <path d="m117.58 86.186c-0.57997-0.06616-1.0733-1.443-2.0691-0.89075-0.73966 0.36436-0.77325 1.0741-1.6486 1.0382-0.89898 0.61888-0.0386 1.8592 0.88797 1.5784 1.0532-0.03714 2.126 0.07921 3.1655-0.06781 0.85706-0.33752 0.588-1.6797-0.33578-1.658z" opacity=".77" stroke-width=".014448"/>
   </g>
   <g transform="matrix(1.3561 0 0 1.2354 11.607 -.78816)" filter="url(#filter1073)">
    <path d="m117.58 86.186c-0.57997-0.06616-1.0733-1.443-2.0691-0.89075-0.73966 0.36436-0.77325 1.0741-1.6486 1.0382-0.89898 0.61888-0.0386 1.8592 0.88797 1.5784 1.0532-0.03714 2.126 0.07921 3.1655-0.06781 0.85706-0.33752 0.588-1.6797-0.33578-1.658z" opacity=".77" stroke-width=".014448"/>
   </g>
  </g>
 </g>
</svg>
