<svg id="eocawrVsHRn1" xmlns="http://www.w3.org/2000/svg" xmlns:xlink="http://www.w3.org/1999/xlink" viewBox="0 0 153.47765 87.562134" shape-rendering="geometricPrecision" text-rendering="geometricPrecision"><style><![CDATA[#eocawrVsHRn4_to {animation: eocawrVsHRn4_to__to 60000ms linear infinite normal forwards}@keyframes eocawrVsHRn4_to__to { 0% {transform: translate(163.775703px,138.436356px)} 55.333333% {transform: translate(27.571782px,137.436357px)} 100% {transform: translate(27.571782px,137.436357px)}} #eocawrVsHRn6_to {animation: eocawrVsHRn6_to__to 60000ms linear infinite normal forwards}@keyframes eocawrVsHRn6_to__to { 0% {transform: translate(75.195374px,142.045045px)} 36% {transform: translate(27.571807px,141.586808px)} 100% {transform: translate(27.571807px,141.586808px)}} #eocawrVsHRn7_to {animation: eocawrVsHRn7_to__to 60000ms linear infinite normal forwards}@keyframes eocawrVsHRn7_to__to { 0% {transform: translate(196.583805px,142.586808px)} 36% {transform: translate(196.583805px,142.586808px)} 100% {transform: translate(60.634895px,142.586808px)}} #eocawrVsHRn8_to {animation: eocawrVsHRn8_to__to 60000ms linear infinite normal forwards}@keyframes eocawrVsHRn8_to__to { 0% {transform: translate(133.369583px,122.148964px)} 64% {transform: translate(194.518196px,122.148964px)} 100% {transform: translate(194.518196px,122.148964px)}} #eocawrVsHRn9_to {animation: eocawrVsHRn9_to__to 60000ms linear infinite normal forwards}@keyframes eocawrVsHRn9_to__to { 0% {transform: translate(133.369583px,122.148964px)} 64% {transform: translate(194.518196px,122.148964px)} 100% {transform: translate(194.518196px,122.148964px)}} #eocawrVsHRn10_to {animation: eocawrVsHRn10_to__to 60000ms linear infinite normal forwards}@keyframes eocawrVsHRn10_to__to { 0% {transform: translate(133.369583px,122.148964px)} 64% {transform: translate(194.518196px,122.148964px)} 100% {transform: translate(194.518196px,122.148964px)}}]]></style><defs><linearGradient id="eocawrVsHRn3-fill" x1="90.749572" y1="86.944893" x2="90.373982" y2="-1.284011" spreadMethod="pad" gradientUnits="userSpaceOnUse" gradientTransform="translate(0 0)"><stop id="eocawrVsHRn3-fill-0" offset="0%" stop-color="#0ff"/><stop id="eocawrVsHRn3-fill-1" offset="100%" stop-color="rgba(0,255,255,0)"/></linearGradient></defs><g transform="translate(-35.251026-94.65126)"><rect width="153.478" height="87.5621" rx="0" ry="0" transform="translate(35.251 94.6513)" opacity="0.8" fill="url(#eocawrVsHRn3-fill)" stroke-width="0.09525" stroke-opacity="0.26415"/><g id="eocawrVsHRn4_to" transform="translate(163.775703,138.436356)"><path d="M168.53516,137.41909c-1.57499.38062-1.69736-2.50081-3.73124-2.46548-2.04989-.54581-4.38436.72103-4.83812,2.62066-1.96637-.80965-4.16825,1.29291-3.23451,3.04342.55754,1.36844,2.25919,1.49769,3.62745,1.40617c2.89414-.0302,5.79666.0611,8.68558-.0469c2.12988-.29252,2.75068-3.15595.90342-4.16464-.41369-.25606-.91252-.39462-1.41263-.39334Z" transform="translate(-163.775703,-138.436356)" opacity="0.77" fill="#fff" stroke-width="2.03667"/></g><path d="M168.53516,137.41909c-1.57499.38062-1.69736-2.50081-3.73124-2.46548-2.04989-.54581-4.38436.72103-4.83812,2.62066-1.96637-.80965-4.16825,1.29291-3.23451,3.04342.55754,1.36844,2.25919,1.49769,3.62745,1.40617c2.89414-.0302,5.79666.0611,8.68558-.0469c2.12988-.29252,2.75068-3.15595.90342-4.16464-.41369-.25606-.91252-.39462-1.41263-.39334Z" transform="translate(-135.790336-.541763)" opacity="0.77" fill="#fff" stroke-width="2.03667"/><g id="eocawrVsHRn6_to" transform="translate(75.195374,142.045045)"><path d="M59.533161,140.48372c-1.73718.0627-2.52574-3.69438-5.39266-2.90971-3.06689-.10936-2.88478,3.78219-5.70641,3.11443-3.09377,1.22368-1.32257,5.7418,1.90103,5.00819c3.24519-.0341,6.49849.0688,9.73835-.053c3.09655-.58807,2.6735-5.16023-.54034-5.16023Z" transform="translate(-54.504164,-141.621422)" opacity="0.77" fill="#fff" stroke-width="0.04427"/></g><g id="eocawrVsHRn7_to" transform="translate(196.583805,142.586808)"><path d="M59.533161,140.48372c-1.73718.0627-2.52574-3.69438-5.39266-2.90971-3.06689-.10936-2.88478,3.78219-5.70641,3.11443-3.09377,1.22368-1.32257,5.7418,1.90103,5.00819c3.24519-.0341,6.49849.0688,9.73835-.053c3.09655-.58807,2.6735-5.16023-.54034-5.16023Z" transform="translate(-54.504164,-141.621422)" opacity="0.77" fill="#fff" stroke-width="0.04427"/></g><g id="eocawrVsHRn8_to" transform="translate(133.369583,122.148964)"><path d="M136.50705,121.47838c-1.03824.25091-1.11891-1.64854-2.45965-1.62525-1.3513-.3598-2.89019.47531-3.18931,1.72755-1.29624-.53372-2.74773.85229-2.13221,2.00624.36754.90208,1.48927.98728,2.39124.92695c1.90783-.0199,3.82118.0403,5.72557-.0309c1.40403-.19283,1.81326-2.08041.59554-2.74535-.27271-.16879-.60154-.26013-.93121-.25929Z" transform="translate(-133.369583,-122.148964)" opacity="0.77" fill="#fff" stroke-width="1.34258"/></g><g id="eocawrVsHRn9_to" transform="translate(133.369583,122.148964)"><path d="M136.50705,121.47838c-1.03824.25091-1.11891-1.64854-2.45965-1.62525-1.3513-.3598-2.89019.47531-3.18931,1.72755-1.29624-.53372-2.74773.85229-2.13221,2.00624.36754.90208,1.48927.98728,2.39124.92695c1.90783-.0199,3.82118.0403,5.72557-.0309c1.40403-.19283,1.81326-2.08041.59554-2.74535-.27271-.16879-.60154-.26013-.93121-.25929Z" transform="translate(-133.369583,-122.148964)" opacity="0.77" fill="#fff" stroke-width="1.34258"/></g><g id="eocawrVsHRn10_to" transform="translate(133.369583,122.148964)"><path d="M136.50705,121.47838c-1.03824.25091-1.11891-1.64854-2.45965-1.62525-1.3513-.3598-2.89019.47531-3.18931,1.72755-1.29624-.53372-2.74773.85229-2.13221,2.00624.36754.90208,1.48927.98728,2.39124.92695c1.90783-.0199,3.82118.0403,5.72557-.0309c1.40403-.19283,1.81326-2.08041.59554-2.74535-.27271-.16879-.60154-.26013-.93121-.25929Z" transform="translate(-133.369583,-122.148964)" opacity="0.77" fill="#fff" stroke-width="1.34258"/></g><path d="M136.50705,121.47838c-1.03824.25091-1.11891-1.64854-2.45965-1.62525-1.3513-.3598-2.89019.47531-3.18931,1.72755-1.29624-.53372-2.74773.85229-2.13221,2.00624.36754.90208,1.48927.98728,2.39124.92695c1.90783-.0199,3.82118.0403,5.72557-.0309c1.40403-.19283,1.81326-2.08041.59554-2.74535-.27271-.16879-.60154-.26013-.93121-.25929Z" transform="translate(60.324529 2.379841)" opacity="0.77" fill="#fff" stroke-width="1.34258"/></g></svg>