<?xml version="1.0" encoding="UTF-8"?>
<svg width="57.89mm" height="12.272mm" version="1.1" viewBox="0 0 57.89 12.272" xmlns="http://www.w3.org/2000/svg">
 <defs>
  <clipPath id="clipPath6603-6">
   <path transform="matrix(.38984 -.0015378 .0015378 .38984 -191.48 -165.47)" d="m638.86 565.08-22.197-0.0302-0.56345 14.49 3.0937-3e-3c-0.0212 1.8291-0.0475 3.627-0.072 5.4948-4.3123 5.3811-8.475 4.9838-12.401 11.695-3.0607 12.43-0.64511 18.1 0.89325 27.415 1.1251 12.423-2.7724 12.529-1.908 35.529-0.0464 4.8162 4.2193 9.865 9.1615 9.7536l9.3328-9.4e-4v1e-3l16.495-6.7e-4c4.9422 0.11143 9.2079-4.9365 9.1615-9.7526 0.86445-23-3.0338-23.107-1.9088-35.531 1.5384-9.3143 3.9534-14.985 0.89275-27.415-3.9264-6.7113-8.0891-6.314-12.401-11.695-0.0246-1.8743-0.0507-3.679-0.0719-5.515l2.8867-4e-3 -0.39342-14.432z" fill="#fff" filter="url(#filter4530-5-2)" stroke="#000" stroke-linecap="round" stroke-linejoin="round" stroke-width="3.37"/>
  </clipPath>
 </defs>
 <g transform="translate(-27.662 -97.52)">
  <g transform="matrix(.48249 0 0 .48249 2.9907 48.817)" stroke-width=".80757" aria-label="GoBrik">
   <path d="m90.137 125.58v-4.795q-0.59937 1.2461-1.4984 2.1767-0.89906 0.91483-2.0032 1.5142t-2.3659 0.89906q-1.2461 0.29968-2.5394 0.29968-2.3344 0-4.306-0.77287-1.9716-0.78865-3.5804-2.4921-1.5931-1.7035-2.4448-4.0379-0.83596-2.3344-0.83596-4.8738 0-2.5552 0.83596-4.8265 0.85174-2.2713 2.3659-3.959 1.53-1.6877 3.6278-2.6498 2.1136-0.96215 4.5741-0.96215 2.2713 0 3.8959 0.64669 1.6404 0.64669 2.7918 1.5773 1.1672 0.91483 1.8612 1.7508h1.53v2.8076h-3.3912q-1.0568-1.7981-2.8076-2.8391-1.735-1.041-3.8959-1.0095-1.8139 0-3.3281 0.77288-1.5142 0.77287-2.6025 2.082-1.0726 1.3092-1.6719 3.0126t-0.59937 3.5962q0 2.0978 0.66246 3.8959t1.6877 2.918q1.0252 1.1199 2.5237 1.8612 1.5142 0.72555 3.3439 0.72555 3.0284 0 4.9685-1.4669 1.9401-1.4826 2.7129-4.6057h-6.6877v-2.7129h10.11v11.467z"/>
   <path d="m94.669 117.31q0.01577-1.9401 0.61514-3.5331 0.61514-1.5931 1.7035-2.7287 1.0883-1.1514 2.5868-1.7666 1.4984-0.61514 3.2965-0.61514 1.8139 0 3.3123 0.61514 1.5142 0.61514 2.5868 1.7508 1.0726 1.1199 1.6719 2.7129t0.59937 3.5331q0 1.9085-0.59937 3.5174-0.59937 1.5931-1.6719 2.7445t-2.5868 1.7981q-1.4984 0.63092-3.3123 0.63092-1.8454 0-3.3438-0.63092t-2.571-1.7666q-1.0726-1.1514-1.6719-2.7445t-0.61514-3.5174zm3.1073 0q0 1.4038 0.39432 2.5394 0.4101 1.1356 1.1041 1.9401 0.70978 0.78864 1.6246 1.2303 0.9306 0.42587 1.9716 0.42587 1.0883 0 2.0189-0.42587 0.94637-0.42586 1.6404-1.2145 0.694-0.80442 1.0883-1.9401 0.39432-1.1356 0.39432-2.5552 0-1.4826-0.39432-2.6341-0.39433-1.1514-1.0883-1.9243-0.67824-0.77288-1.6246-1.1672-0.94638-0.39432-2.0347-0.39432-1.041 0-1.9716 0.39432-0.91482 0.39432-1.6246 1.1672-0.69401 0.77287-1.1041 1.9243-0.39432 1.1514-0.39432 2.6341z"/>
   <path d="m110.72 122.77h2.2713v-18.47h-2.2713v-2.7603l10.757 0.0315q1.4511 0 2.7287 0.55205 1.2776 0.53628 2.224 1.4826 0.94638 0.93061 1.4827 2.2082 0.55205 1.2776 0.55205 2.7445 0 1.53-0.85174 2.7918-0.85173 1.2618-2.429 2.0189 0.77287 0.4101 1.4038 0.96215 0.63092 0.53628 1.0726 1.183 0.44164 0.64669 0.67824 1.3722 0.25236 0.72555 0.25236 1.4826 0 1.4984-0.55205 2.7918-0.53628 1.2934-1.4826 2.2555-0.94638 0.96214-2.224 1.5142-1.2618 0.55205-2.7129 0.55205h-10.899zm5.3628-7.918v7.918h5.5678q0.7571 0 1.4038-0.37855 0.64669-0.37855 1.1356-0.97792 0.48896-0.61514 0.7571-1.388 0.28391-0.77287 0.28391-1.5773 0-0.694-0.28391-1.3407t-0.77287-1.1514q-0.47319-0.50474-1.1356-0.80442-0.64669-0.29969-1.388-0.29969zm0-10.552v7.8076h5.4259q0.7571 0 1.4038-0.29969 0.66246-0.29968 1.1356-0.80442 0.48896-0.50473 0.77287-1.1672t0.28391-1.3722q0-0.77287-0.28391-1.5142-0.28391-0.7571-0.77287-1.3407-0.48896-0.58359-1.1514-0.94637-0.64669-0.36278-1.388-0.36278z"/>
   <path d="m141.9 112.6h-2.9968v-1.0095q-0.5205 0-1.0726 0.20505-0.53627 0.18927-1.0095 0.59937-0.47319 0.39432-0.83597 1.0252-0.347 0.61514-0.50473 1.4669v7.8864h2.776v2.7129h-8.1073v-2.7129h2.2555l0.0158-10.915h-2.2713v-2.7129h5.2208v2.2555q0.28391-0.50474 0.63092-0.9306 0.36277-0.44165 0.78864-0.7571 0.44164-0.33123 0.96215-0.50474 0.53628-0.18927 1.1514-0.18927 0.82019 0 1.5458 0 0.72555 0 1.4511 0.0315z"/>
   <path d="m143.94 109.14h5.3312v13.628h2.4606v2.7129h-7.7603v-2.7129h2.3344v-10.915h-2.3659zm1.8139-5.7886q0-0.4101 0.15773-0.77287 0.1735-0.37855 0.44164-0.64669 0.28391-0.28391 0.66246-0.44164 0.37855-0.17351 0.80442-0.17351 0.41009 0 0.77287 0.17351 0.37855 0.15773 0.64669 0.44164 0.28391 0.26814 0.44164 0.64669 0.1735 0.36277 0.1735 0.77287 0 0.42587-0.1735 0.80442-0.15773 0.37855-0.44164 0.67823-0.26814 0.28391-0.64669 0.45742-0.36278 0.15772-0.77287 0.15772-0.42587 0-0.80442-0.15772-0.37855-0.17351-0.66246-0.45742-0.26814-0.29968-0.44164-0.67823-0.15773-0.37855-0.15773-0.80442z"/>
   <path d="m153.08 100.94h5.7571v2.7129h-0.0316v12.208h2.8391l3.8801-4.0063h-0.97792v-2.7129h6.1988v2.7129h-2.0662l-4.9685 5.1262 5.4259 5.7887h1.9716v2.7129h-3.4543l-6.6877-7.3029h-2.1609v4.5899h1.3565v2.7129h-6.9874v-2.7129h2.6814v-19.117h-2.776z"/>
  </g>
  <g transform="matrix(.0712 -.027793 .027774 .071264 71.886 43.969)">
   <g transform="matrix(3.8112 -.28689 .2891 3.8087 -1003 268)" clip-path="url(#clipPath6603-6)" fill-rule="evenodd">
    <path d="m45.708 66.816 0.43519-9.7918c8.7427-10.184 13.385-2.9161 16.32 0.2176l0.2176 9.3566c-6.9137 3.8778-11.353 0.2398-16.972 0.21759z" fill="#f0f"/>
    <path d="m45.578 74.494 0.43519-9.7918c8.0577-1.7312 10.172 3.8557 16.32 0.2176l0.2176 9.3566z" fill="#00d6ff"/>
    <path d="m46.156 80.201-0.12695-8.7097c2.5623-3.0488 10.077 6.2534 16.882-0.8645l0.2176 9.3566c-5.8463 0.63489-12.788 4.5331-16.972 0.21759z" fill="#00f200"/>
    <path d="m45.926 89.701 0.43519-9.7918c7.9476 3.6455 11.478-3.8916 16.32 0.2176l0.2176 9.3566z" fill="#fff100"/>
    <path d="m45.919 96.017 0.43553-8.935c8.0493 0.61277 11.765 4.5126 16.332 0.19856l0.21776 8.5379z" fill="#f00"/>
   </g>
   <g stroke="#000" stroke-linecap="round" stroke-linejoin="round">
    <path d="m-776.58 467.33c-5.4525 1.2816-16.632-0.70183-16.124 5.7321 0.40568 5.1332 0.66965 9.527 0.99129 14.342-5.7671 8.4948-11.997 8.3956-17.033 18.82-3.0723 18.81 1.1871 26.942 4.5764 40.587 3.144 18.308-2.6326 18.925 1.3783 52.963 0.50239 7.1542 7.6064 12.1 14.764 13.399" fill-opacity="0" stroke-width="5.0196"/>
    <path d="m-784.12 467.93c5.5872 0.40678 16.311-3.3123 16.831 3.1208 0.4142 5.1324 0.85057 9.5126 1.2979 14.318 7.043 7.4797 13.179 6.4007 19.806 15.9 6.0198 18.09 3.1048 26.79 1.9242 40.797-0.19811 18.573 5.6038 18.272 7.0468 52.514 0.63959 7.1433-3.6832 11.973-12.451 15.555-5.6605 1.5646-17.778 5.788-38.362 3.0398" fill="none" stroke-width="5.0196"/>
    <path d="m-797.73 458.04c13.24-4.3711 23.186-3.5948 32.972-2.5683l2.2967 21.377c-10.135 2.6697-21.325 3.9512-34.388 2.7654z" fill="#2479b3" fill-rule="evenodd" stroke-width="3.874"/>
   </g>
  </g>
 </g>
</svg>
