<svg id="egqrccvrrvpm1" xmlns="http://www.w3.org/2000/svg" xmlns:xlink="http://www.w3.org/1999/xlink" viewBox="0 0 126.767650 36.221603" shape-rendering="geometricPrecision" text-rendering="geometricPrecision"><style><![CDATA[#egqrccvrrvpm5_ts {animation: egqrccvrrvpm5_ts__ts 3000ms linear 1 normal forwards}@keyframes egqrccvrrvpm5_ts__ts { 0% {transform: translate(99.229093px,121.881562px) scale(0.700000,0.700000)} 30% {transform: translate(99.229093px,121.881562px) scale(0.700000,0.700000)} 50% {transform: translate(99.229093px,121.881562px) scale(1,1)} 100% {transform: translate(99.229093px,121.881562px) scale(1,1)} }#egqrccvrrvpm5 {animation: egqrccvrrvpm5_c_o 3000ms linear 1 normal forwards}@keyframes egqrccvrrvpm5_c_o { 0% {opacity: 0} 30% {opacity: 0} 60% {opacity: 1} 100% {opacity: 1} }]]></style><defs><clipPath id="egqrccvrrvpm2"><path id="egqrccvrrvpm3" d="M638.862150,565.081500L616.665110,565.051300L616.101660,579.541350L619.195380,579.538350C619.174180,581.367470,619.147880,583.165380,619.123380,585.033160C614.811090,590.414230,610.648410,590.016930,606.722030,596.728270C603.661350,609.157960,606.076920,614.828630,607.615280,624.142930C608.740340,636.566200,604.842850,636.672400,605.707300,659.672390C605.660900,664.488540,609.926580,669.537420,614.868810,669.425980L624.201660,660.025980L624.201660,670.025980L640.696730,663.325980C645.638960,663.437410,649.904660,658.389480,649.858260,653.573330C650.722710,630.573350,646.824420,630.466080,647.949470,618.042800C649.487830,608.728510,651.902900,603.057880,648.842220,590.628200C644.915840,583.916860,640.753120,584.314220,636.440830,578.933150C636.416230,577.058840,636.390130,575.254100,636.368930,573.418190L639.255650,573.414190L638.862230,558.981900Z" transform="matrix(0.38983625173569 -0.00153776002117 0.00153776002117 0.38983625173569 -191.47697448730469 -165.46687316894531)" fill="rgb(255,255,255)" stroke="rgb(0,0,0)" stroke-width="3.370000" stroke-linecap="round" stroke-linejoin="round"/></clipPath></defs><g id="egqrccvrrvpm4" transform="matrix(1 0 0 1 -36.40189361572266 -102.75228881835938)"><g id="egqrccvrrvpm5_ts" transform="translate(99.229093,121.881562) scale(0.700000,0.700000)"><g id="egqrccvrrvpm5" transform="translate(-99.093468,-121.905560)" opacity="0"><g id="egqrccvrrvpm6" transform="matrix(0.08618448674679 0 0 0.08618448674679 10.75706291198730 118.90419006347656)"><path id="egqrccvrrvpm7" d="M967.142580,195.708440Q967.142580,195.708440,967.142580,195.708440Z" fill="rgb(0,0,0)" stroke="none" stroke-width="1"/></g><path id="egqrccvrrvpm8" d="M79.087987,132.090950L79.044787,127.019260C77.875757,128.998170,76.792797,130.304430,75.279457,131.142210C74.560577,131.532460,74.179077,131.695570,73.357497,131.890690C72.546197,132.085820,71.719497,132.183380,70.877387,132.183380C69.357467,132.183380,67.955657,131.931770,66.671947,131.428560C65.388237,130.915070,64.222637,130.103770,63.175127,128.994650C62.137887,127.885520,61.341987,126.571000,60.787417,125.051090C60.243137,123.531180,59.970987,121.944520,59.970987,120.291100C59.970987,118.627410,60.243137,117.056150,60.787417,115.577320C61.341987,114.098490,62.112207,112.809640,63.098107,111.710790C64.094257,110.611930,65.275267,109.749280,66.641137,109.122830C68.017277,108.496380,69.506377,108.183160,71.108447,108.183160C72.587277,108.183160,73.855577,108.393690,74.913357,108.814740C75.981407,109.235800,76.890267,109.749280,77.639957,110.355190C78.399907,110.950830,79.005817,111.520800,79.457697,112.065090L80.951927,112.065090L80.951927,114.807090L77.639957,114.807090C76.951887,113.636350,76.037887,112.712080,74.897957,112.034280C73.768287,111.356490,72.499987,111.027860,71.093047,111.048400C69.912027,111.048400,68.828577,111.300000,67.842697,111.803220C66.856797,112.306430,66.009547,112.984230,65.300947,113.836610C64.602607,114.688990,64.058317,115.669750,63.668067,116.778870C63.277827,117.888000,63.082697,119.058740,63.082697,120.291100C63.082697,121.656960,63.298367,122.925270,63.729687,124.096010C64.161017,125.266750,64.710437,126.216700,65.377977,126.945850C66.045497,127.674990,66.867077,128.280900,67.842697,128.763580C68.828577,129.235980,69.269297,129.472180,70.460577,129.472180C73.997377,129.505180,76.101307,126.451180,76.839587,123.541450L72.078927,123.541450L72.078927,120.891880L81.953217,120.891880L81.953217,132.090950Z" fill="rgb(0,0,0)" stroke="none" stroke-width="0.947801"/><path id="egqrccvrrvpm9" d="M82.756417,124.018990Q82.771817,122.124240,83.357187,120.568380Q83.957967,119.012520,85.020877,117.903400Q86.083787,116.778870,87.547217,116.178100Q89.010647,115.577320,90.766757,115.577320Q92.538277,115.577320,94.001697,116.178100Q95.480537,116.778870,96.528047,117.888000Q97.575547,118.981720,98.160917,120.537570Q98.746287,122.093430,98.746287,123.988180Q98.746287,125.852130,98.160917,127.423390Q97.575547,128.979240,96.528047,130.103770Q95.480537,131.228300,94.001697,131.859880Q92.538277,132.476060,90.766757,132.476060Q88.964437,132.476060,87.501007,131.859880Q86.037577,131.243700,84.990067,130.134580Q83.942567,129.010050,83.357187,127.454190Q82.771817,125.898340,82.756417,124.018990ZM85.791097,124.018990Q85.791097,125.389990,86.176217,126.499120Q86.576727,127.608240,87.254527,128.393870Q87.947737,129.164100,88.841197,129.595420Q89.750067,130.011340,90.766757,130.011340Q91.829667,130.011340,92.738537,129.595420Q93.662807,129.179500,94.340607,128.409270Q95.018397,127.623640,95.403517,126.514520Q95.788627,125.405400,95.788627,124.018990Q95.788627,122.570970,95.403517,121.446440Q95.018397,120.321910,94.340607,119.567090Q93.678207,118.812270,92.753937,118.427150Q91.829667,118.042040,90.766757,118.042040Q89.750067,118.042040,88.841197,118.427150Q87.947737,118.812270,87.254527,119.567090Q86.576727,120.321910,86.176217,121.446440Q85.791097,122.570970,85.791097,124.018990Z" fill="rgb(0,0,0)" stroke="none" stroke-width="0.947801"/><path id="egqrccvrrvpm10" d="M98.957107,127.777690L101.344810,127.777690L101.344810,112.881530L98.957107,112.881530L98.957107,108.614480L110.341050,108.645280Q111.927700,108.645280,113.237100,109.215240Q114.561890,109.769810,115.516970,110.740290Q116.472060,111.695370,116.995810,112.989350Q117.534970,114.267920,117.534970,115.715950Q117.534970,117.410440,116.934190,118.519570Q116.348820,119.628690,115.255090,120.306490Q116.410430,121.045900,117.072830,122.139630Q117.750630,123.217940,117.750630,124.773790Q117.750630,126.360460,117.196070,127.685250Q116.656910,129.010030,115.701820,129.980520Q114.762150,130.935600,113.468160,131.474760Q112.174190,131.998510,110.679940,131.998510L98.957107,131.998510L98.957107,127.777670ZM106.459110,122.339900L106.459110,127.777690L110.341050,127.777690Q110.787770,127.777690,111.172890,127.546620Q111.573410,127.315550,111.850690,126.945850Q112.143380,126.560730,112.312830,126.067790Q112.482280,125.559440,112.482280,125.020280Q112.482280,124.450320,112.312830,123.972780Q112.143380,123.479830,111.850690,123.125530Q111.557990,122.755820,111.157480,122.555560Q110.772370,122.339900,110.341050,122.339900ZM106.459110,112.881530L106.459110,118.119060L110.125380,118.119060Q110.556710,118.119060,110.941820,117.903400Q111.326930,117.687740,111.604210,117.333430Q111.896900,116.963730,112.066350,116.516990Q112.235810,116.054860,112.235810,115.561920Q112.235810,115.084380,112.066350,114.606840Q111.896900,114.129300,111.604210,113.744180Q111.326930,113.359070,110.941820,113.128000Q110.556710,112.881530,110.125380,112.881530Z" fill="rgb(0,0,0)" stroke="none" stroke-width="0.947801"/><path id="egqrccvrrvpm11" d="M133.527010,116.039460L140.690110,116.039460L140.690110,127.777690L142.908360,127.777690L142.908360,131.998520L133.527010,131.998520L133.527010,127.777690L135.930110,127.777690L135.930110,120.260290C135.139030,120.426900,134.369170,120.722020,133.527010,120.735400ZM135.683650,110.894350C135.683650,110.514370,135.750350,110.160070,135.883900,109.831440C136.027670,109.492540,136.222790,109.199850,136.469270,108.953380C136.715750,108.706910,137.003290,108.511790,137.331920,108.368010C137.670830,108.224240,138.035400,108.152350,138.425650,108.152350C138.795360,108.152350,139.144530,108.224250,139.473160,108.368010C139.801790,108.511790,140.089330,108.706910,140.335810,108.953380C140.582290,109.199850,140.777410,109.492540,140.921180,109.831440C141.064950,110.160070,141.136840,110.514370,141.136840,110.894350C141.136840,111.274330,141.064940,111.633770,140.921180,111.972670C140.777410,112.301300,140.582290,112.588850,140.335810,112.835320C140.089330,113.081790,139.801790,113.276910,139.473160,113.420690C139.144530,113.564460,138.795360,113.636350,138.425650,113.636350C138.035400,113.636350,137.670830,113.564450,137.331920,113.420690C137.003290,113.276910,136.715750,113.081790,136.469270,112.835320C136.222790,112.588850,136.027670,112.301300,135.883900,111.972670C135.750400,111.633770,135.683650,111.274330,135.683650,110.894350Z" fill="rgb(0,0,0)" stroke="none" stroke-width="0.947801"/><path id="egqrccvrrvpm12" d="M143.913900,108.029110L151.107810,108.029110L151.107810,121.846950L153.803600,121.846950C158.190260,120.462180,153.077650,115.631910,163.169540,116.039460L163.169540,120.260290L160.304300,120.260290L157.331230,123.695490L160.365920,127.361770L163.015500,127.361770L163.015500,131.998520L158.686820,131.998520L153.510910,125.158920L151.107810,125.158920L151.107810,127.777690L152.740690,127.777690L152.740690,131.998520L143.913900,131.998520L143.913900,127.777690L146.378630,127.777690L146.378630,112.249950L143.913900,112.249950Z" fill="rgb(0,0,0)" stroke="none" stroke-width="0.947801"/><g id="egqrccvrrvpm13" transform="matrix(0.78941357135773 -0.31479838490486 0.31479838490486 0.78941357135773 -19.35992240905762 79.25083160400391)" clip-path="url(#egqrccvrrvpm2)"><path id="egqrccvrrvpm14" d="M45.708048,66.816302L46.143239,57.024517C54.885974,46.840245,57.291924,57.524081,57.530412,61.403869L62.680478,66.598709C55.766794,70.476546,51.327746,66.838509,45.708048,66.816302Z" fill="rgb(255,0,255)" fill-rule="evenodd" stroke="none" stroke-width="0.279155"/><path id="egqrccvrrvpm15" d="M45.577920,74.493524L46.013111,64.701739C54.070804,62.970536,56.185453,68.557451,62.332754,64.919334L62.550350,74.275931Z" fill="rgb(0,214,255)" fill-rule="evenodd" stroke="none" stroke-width="0.279155"/><path id="egqrccvrrvpm16" d="M46.156278,80.201229L46.029328,71.491544C48.591626,68.442708,56.106147,77.744940,62.911112,70.627039L63.128708,79.983636C57.282401,80.618529,50.340329,84.516759,46.156278,80.201229Z" fill="rgb(0,242,0)" fill-rule="evenodd" stroke="none" stroke-width="0.279155"/><path id="egqrccvrrvpm17" d="M45.925643,89.700993L46.360834,79.909208C54.308455,83.554705,57.839098,76.017615,62.680477,80.126803L62.898073,89.483400Z" fill="rgb(255,241,0)" fill-rule="evenodd" stroke="none" stroke-width="0.279155"/><path id="egqrccvrrvpm18" d="M45.558849,95.918045L45.994376,86.983036C54.043659,87.595802,57.759560,91.495637,62.326600,87.181592L62.544363,95.719492Z" fill="rgb(255,0,0)" fill-rule="evenodd" stroke="none" stroke-width="0.266765"/></g><path id="egqrccvrrvpm19" d="M49.447839,137.851660L57.584019,134.274550C58.732575,133.339490,58.844613,132.106010,57.759368,129.960970C55.331603,132.460800,50.313209,133.099030,47.448864,133.888780Z" fill="rgb(255,0,0)" stroke="none" stroke-width="0.264583"/><path id="egqrccvrrvpm20" d="M41.938524,106.489340C40.867130,107.124660,38.363477,107.448290,38.899567,108.780470C39.327239,109.843330,39.675645,110.758650,40.064326,111.759590C39.406240,113.947410,38.078064,114.341350,37.703408,116.890080C38.303454,121.088520,39.748254,122.531450,41.375280,125.202680C43.260635,128.880400,42.076262,129.396250,45.192347,136.356040C45.775033,137.841560,47.711321,138.864070,49.216041,138.217330L54.284109,136.173080" fill="rgb(0,0,0)" fill-opacity="0" stroke="rgb(0,0,0)" stroke-width="1.116520" stroke-linecap="round" stroke-linejoin="round"/><path id="egqrccvrrvpm21" d="M40.378898,107.118420C41.591244,106.832590,43.618768,105.328550,44.157016,106.659860C44.586447,107.722000,44.970518,108.622940,45.385206,109.613400C47.377087,110.732340,48.606908,110.094500,50.645079,111.670000C53.125962,115.109800,53.086625,117.151360,53.768304,120.203900C54.962287,124.160490,56.173117,123.710220,58.757977,130.884280C59.369047,132.358360,58.684077,134.438150,57.151747,135.016420L52.083680,137.060670" fill="none" stroke="rgb(0,0,0)" stroke-width="1.116520" stroke-linecap="round" stroke-linejoin="round"/><path id="egqrccvrrvpm22" d="M36.832736,105.924870L43.656379,103.183130L45.566237,107.568940L38.455262,110.446860Z" fill="rgb(179,179,179)" fill-rule="evenodd" stroke="rgb(0,0,0)" stroke-width="0.861706" stroke-linecap="round" stroke-linejoin="round"/><g id="egqrccvrrvpm23"><path id="egqrccvrrvpm24" d="M132.787280,120.762610L132.787280,120.762610C131.115970,120.829310,129.903790,120.190070,128.433960,120.121970C128.010510,120.121970,127.623200,120.152970,127.272050,120.214970C126.920890,120.266670,126.611040,120.359590,126.342510,120.493830C126.084310,120.628100,125.862260,120.814000,125.676350,121.051550C125.500770,121.289100,125.376830,121.583450,125.304530,121.934610L125.304530,127.744190L128.573390,127.744190L128.573390,131.989060L118.100650,131.989060L118.100650,127.744190L120.501940,127.744190L120.501940,120.183980L118.131630,120.183980L118.131630,115.939110L125.273550,115.939110L125.273550,117.070000C125.727990,116.708510,126.239230,116.429650,126.807280,116.233420C127.375330,116.037180,127.995020,115.939060,128.666350,115.939060C129.348000,115.939060,130.050320,115.944060,130.773290,115.954560C131.496260,115.964860,132.167590,115.970060,132.787280,115.970060Z" fill="rgb(0,0,0)" stroke="none" stroke-width="0.793202"/></g></g></g></g></svg>