<?xml version="1.0" encoding="UTF-8"?>
<svg width="93.651mm" height="93.755mm" version="1.1" viewBox="0 0 93.651 93.755" xmlns="http://www.w3.org/2000/svg" xmlns:cc="http://creativecommons.org/ns#" xmlns:dc="http://purl.org/dc/elements/1.1/" xmlns:rdf="http://www.w3.org/1999/02/22-rdf-syntax-ns#">
 <metadata>
  <rdf:RDF>
   <cc:Work rdf:about="">
    <dc:format>image/svg+xml</dc:format>
    <dc:type rdf:resource="http://purl.org/dc/dcmitype/StillImage"/>
   </cc:Work>
  </rdf:RDF>
 </metadata>
 <g transform="translate(-18.564 -19.225)">
  <path d="m60.451 112.69c-11.444-1.225-22.433-6.644-29.989-15.391-11.318-12.13-14.746-30.538-9.6389-46.167 5.2526-15.478 18.879-27.794 34.967-30.994 14.885-3.0681 31.215 1.3084 42.014 12.153 13.875 12.863 18.246 34.448 10.838 51.797-3.9557 9.7971-11.683 17.919-20.779 23.15-8.3772 4.4243-17.969 6.467-27.413 5.4517zm11.353-33.61c8.5528-3.6188 11.517-15.723 5.4666-22.813-2.8049-3.9658-7.5374-6.062-12.345-5.8494-9.2532-0.39725-16.753 9.7836-14.23 18.589 1.5432 7.5511 9.4527 12.699 16.966 11.326 1.431-0.21705 2.8323-0.63596 4.1425-1.2521z" fill="#4d4d4d"/>
 </g>
</svg>
