<?xml version="1.0" encoding="UTF-8" standalone="no"?>
<!-- Created with Inkscape (http://www.inkscape.org/) -->

<svg
   width="125.4125mm"
   height="125.4125mm"
   viewBox="0 0 125.4125 125.4125"
   version="1.1"
   id="svg2869"
   inkscape:version="1.1.2 (08b2f3d93c, 2022-04-05)"
   sodipodi:docname="language-button2.svg"
   xmlns:inkscape="http://www.inkscape.org/namespaces/inkscape"
   xmlns:sodipodi="http://sodipodi.sourceforge.net/DTD/sodipodi-0.dtd"
   xmlns="http://www.w3.org/2000/svg"
   xmlns:svg="http://www.w3.org/2000/svg">
  <sodipodi:namedview
     id="namedview2871"
     pagecolor="#ffffff"
     bordercolor="#666666"
     borderopacity="1.0"
     inkscape:pageshadow="2"
     inkscape:pageopacity="0.0"
     inkscape:pagecheckerboard="0"
     inkscape:document-units="mm"
     showgrid="false"
     inkscape:zoom="0.74297138"
     inkscape:cx="43.743273"
     inkscape:cy="291.3975"
     inkscape:window-width="1864"
     inkscape:window-height="1016"
     inkscape:window-x="0"
     inkscape:window-y="0"
     inkscape:window-maximized="1"
     inkscape:current-layer="layer1" />
  <defs
     id="defs2866" />
  <g
     inkscape:label="Layer 1"
     inkscape:groupmode="layer"
     id="layer1"
     transform="translate(-93.443268,-71.216679)">
    <path
       style="fill:#808080;stroke-width:0.264583"
       d="m 149.79952,196.3646 c 0,-0.14552 -0.47023,-0.26458 -1.04495,-0.26458 -0.57473,0 -2.86668,-0.36165 -5.09323,-0.80367 -7.18323,-1.42601 -14.5969,-4.35587 -20.55081,-8.12162 l -1.42127,-0.89894 -11.57011,3.85378 c -6.36357,2.11958 -11.864722,3.85378 -12.224796,3.85378 -0.816603,0 -1.805253,-1.01706 -1.805253,-1.85713 0,-0.34782 1.732952,-5.834 3.851004,-12.1915 l 3.851005,-11.5591 -1.02354,-1.68208 c -3.188242,-5.23955 -5.707882,-11.00653 -7.09526,-16.23973 -0.675711,-2.54879 -1.699875,-8.08758 -1.699875,-9.1931 0,-0.61197 -0.105689,-0.95369 -0.264584,-0.85549 -0.173753,0.10739 -0.264583,-2.15801 -0.264583,-6.59896 0,-3.71937 0.09349,-6.76249 0.207748,-6.76249 0.114261,0 0.358068,-1.12008 0.541794,-2.48906 1.358297,-10.12097 6.15576,-21.17357 12.81577,-29.525531 2.41061,-3.023021 6.90403,-7.545346 9.85707,-9.920494 6.86941,-5.525092 15.19075,-9.733819 23.31956,-11.794452 3.38549,-0.858215 7.2276,-1.566308 8.50545,-1.567542 0.51612,-4.98e-4 0.80839,-0.109454 0.71199,-0.265429 -0.10739,-0.173753 2.15801,-0.264583 6.59896,-0.264583 4.33194,0 6.7625,0.0951 6.7625,0.264583 0,0.145521 0.38695,0.264964 0.85989,0.265429 0.47294,4.66e-4 1.91212,0.184899 3.19817,0.409854 22.03263,3.853936 40.52952,19.276917 48.21556,40.202845 1.53945,4.19129 3.28566,11.6737 3.28803,14.08906 5.3e-4,0.47295 0.11991,0.8599 0.26543,0.8599 0.16933,0 0.26458,2.38125 0.26458,6.61458 0,4.23334 -0.0952,6.61459 -0.26458,6.61459 -0.14552,0 -0.26458,0.39589 -0.26458,0.87976 0,0.48388 -0.23645,2.18052 -0.52543,3.77032 -3.94899,21.72475 -19.22622,39.8705 -40.08812,47.61524 -3.36395,1.24883 -8.782,2.62101 -12.10468,3.06564 -1.41883,0.18986 -2.57969,0.43869 -2.57969,0.55295 0,0.11427 -2.97656,0.20775 -6.61458,0.20775 -4.23334,0 -6.61459,-0.0952 -6.61459,-0.26458 z m 12.44581,-4.09005 c 4.34781,-0.46148 6.8352,-0.96016 10.83194,-2.17163 18.82458,-5.70598 33.57563,-20.4554 39.25454,-39.25018 1.21077,-4.00713 1.70862,-6.4935 2.16933,-10.834 1.15899,-10.91953 -0.64962,-21.40216 -5.41128,-31.36352 -9.00611,-18.840702 -27.12831,-31.339083 -48.17573,-33.225464 -14.16025,-1.269115 -28.6844,3.018935 -40.57369,11.978805 -3.00195,2.262293 -8.69248,8.029586 -11.04352,11.192496 -6.04992,8.139083 -9.815673,17.161523 -11.26394,26.987503 -0.631091,4.28172 -0.628622,12.33581 0.0051,16.53646 1.264637,8.3831 3.98821,15.86443 8.32724,22.87392 0.89653,1.44831 1.63006,2.81292 1.63006,3.03247 0,0.21955 -1.50069,4.90582 -3.33486,10.41395 -1.83418,5.50813 -3.27038,10.07927 -3.19155,10.1581 0.0788,0.0788 4.64539,-1.35736 10.14793,-3.19152 5.50254,-1.83416 10.18883,-3.33484 10.41398,-3.33484 0.22516,0 1.57789,0.71973 3.00608,1.5994 11.38644,7.01334 24.21329,9.97735 37.2084,8.59805 z m -6.76645,-3.83709 c -1.18725,-0.4758 -1.19498,-0.54123 -1.25577,-10.63066 l -0.058,-9.62033 -10.3849,-0.0692 c -5.71169,-0.0381 -10.38489,-0.02 -10.38489,0.0401 0,0.0601 0.54217,1.46048 1.20482,3.11193 1.32057,3.29107 3.39577,7.35149 5.10516,9.98895 1.7228,2.65815 1.34325,4.39707 -0.91887,4.20983 -0.90192,-0.0747 -1.12927,-0.25464 -2.11086,-1.67116 -2.3279,-3.35937 -4.58168,-7.86756 -6.4814,-12.96458 l -0.98613,-2.64584 -7.81212,-0.0701 -7.81211,-0.0701 -0.54529,-0.69323 c -0.88885,-1.12999 -0.68143,-2.25314 0.53196,-2.88061 0.59967,-0.3101 2.09311,-0.38709 7.50857,-0.38709 4.6203,0 6.76001,-0.0895 6.76001,-0.28278 0,-0.15553 -0.29073,-1.43545 -0.64608,-2.84427 -1.52223,-6.03514 -2.61396,-13.80199 -3.00057,-21.34691 l -0.18981,-3.70416 -10.74342,-0.0691 c -10.36459,-0.0666 -10.76032,-0.0877 -11.22274,-0.59872 -0.6146,-0.67913 -0.6146,-1.95401 0,-2.63313 0.46242,-0.51097 0.85815,-0.53209 11.22274,-0.59873 l 10.74342,-0.0691 0.17871,-3.43959 c 0.4017,-7.73128 1.44212,-15.3431 2.88203,-21.08504 0.42665,-1.70136 0.77572,-3.2194 0.77572,-3.37344 0,-0.18951 -2.12585,-0.28006 -6.5751,-0.28006 -4.1182,0 -6.88854,-0.10926 -7.41392,-0.29241 -1.44273,-0.50294 -1.82538,-2.08557 -0.74879,-3.09697 0.59054,-0.554783 0.83081,-0.573223 8.3574,-0.641433 l 7.7494,-0.0702 0.98321,-2.64583 c 1.79154,-4.821053 3.96857,-9.192073 6.32536,-12.700003 1.14189,-1.699621 1.32813,-1.85897 2.26246,-1.935748 0.68532,-0.05631 1.18264,0.0652 1.52135,0.371736 0.85258,0.771568 0.62773,1.917855 -0.8279,4.220671 -1.84847,2.924288 -3.75446,6.699083 -5.01248,9.927174 -0.58561,1.50265 -1.06473,2.76997 -1.06473,2.81626 0,0.0463 4.6732,0.053 10.38489,0.0149 l 10.3849,-0.0692 0.0694,-9.685345 c 0.0652,-9.107393 0.0992,-9.712312 0.56872,-10.137252 0.66433,-0.601213 2.01518,-0.613039 2.66678,-0.02335 0.50305,0.455254 0.52807,0.882832 0.59452,10.160599 l 0.0694,9.685348 10.38489,0.0692 c 5.7117,0.0381 10.3849,0.02 10.3849,-0.0401 0,-0.0601 -0.54217,-1.46048 -1.20483,-3.11192 -1.32057,-3.291082 -3.39576,-7.351495 -5.10516,-9.988962 -1.72528,-2.661978 -1.34369,-4.39636 0.92622,-4.209832 0.95568,0.07853 1.10975,0.221631 2.51131,2.332623 2.2847,3.441119 5.32868,9.85928 6.93309,14.618231 0.14392,0.42691 0.76183,0.46302 7.92349,0.46302 h 7.76739 l 0.57529,0.612373 c 0.70992,0.75568 0.7373,1.77462 0.0699,2.59947 l -0.50544,0.62462 -7.16748,0.0783 c -4.60976,0.0504 -7.16748,0.1739 -7.16748,0.34621 0,0.14735 0.3474,1.65993 0.77201,3.36129 1.49043,5.972 2.46694,13.11033 2.8844,21.08504 l 0.18005,3.43959 10.74342,0.0691 c 10.36459,0.0666 10.76032,0.0878 11.22274,0.59873 0.6146,0.67912 0.6146,1.954 0,2.63313 -0.46242,0.51097 -0.85815,0.53208 -11.22274,0.59872 l -10.74342,0.0691 -0.19451,3.83646 c -0.37398,7.37625 -1.40265,14.78653 -2.87186,20.68817 -0.42355,1.70135 -0.77009,3.21393 -0.77009,3.36128 0,0.17231 2.55772,0.29586 7.16748,0.34621 l 7.16748,0.0783 0.50544,0.62463 c 0.6549,0.80933 0.64062,1.64569 -0.0429,2.51469 l -0.54837,0.69714 h -7.76287 -7.76288 l -0.71719,1.91823 c -1.97227,5.27503 -4.63305,10.65404 -6.83845,13.82448 -0.98469,1.41558 -1.21374,1.59656 -2.11507,1.67116 -0.67853,0.0562 -1.1762,-0.066 -1.514,-0.37173 -0.85573,-0.77442 -0.62851,-1.91817 0.83848,-4.22067 2.64411,-4.15002 6.38012,-12.4532 5.71769,-12.7074 -0.1728,-0.0663 -4.83818,-0.0893 -10.36751,-0.0512 l -10.05333,0.0694 -0.0694,9.68535 c -0.0631,8.81466 -0.1107,9.72163 -0.52917,10.08902 -0.62965,0.55279 -1.41325,0.7344 -2.05648,0.47662 z m -1.31373,-38.50724 v -14.02291 l -13.07193,-0.0687 -13.07192,-0.0687 0.17618,4.03741 c 0.32831,7.52302 1.74086,16.78197 3.49239,22.89188 l 0.39903,1.39195 11.03813,-0.069 11.03812,-0.069 z m 26.29339,13.29532 c 1.69675,-5.34497 3.30564,-15.68731 3.64302,-23.41815 l 0.17618,-4.03741 -13.07192,0.0687 -13.07192,0.0687 -0.0688,13.75833 c -0.0378,7.56708 -0.0118,13.90716 0.0578,14.08906 0.0985,0.25723 2.56417,0.33073 11.09463,0.33073 h 10.968 z m -26.29339,-45.3099 v -14.02292 l -11.02489,-0.069 -11.02488,-0.069 -0.27392,0.86278 c -1.69753,5.34672 -3.30652,15.68816 -3.64398,23.42103 l -0.17618,4.03741 13.07192,-0.0687 13.07193,-0.0687 z m 29.9363,10.12031 c -0.32813,-7.51886 -1.74097,-16.78012 -3.49143,-22.88646 l -0.3982,-1.38906 h -11.1051 -11.10511 v 13.97882 c 0,7.68835 0.0794,14.0582 0.17639,14.15521 0.097,0.097 6.00909,0.17639 13.13795,0.17639 h 12.96158 z"
       id="path3138" />
  </g>
</svg>
