<?xml version="1.0" encoding="UTF-8" standalone="no"?>
<!-- Created with Inkscape (http://www.inkscape.org/) -->

<svg
   width="127.06244mm"
   height="76.17733mm"
   viewBox="0 0 127.06244 76.17733"
   version="1.1"
   id="svg27588"
   inkscape:version="1.1.2 (08b2f3d93c, 2022-04-05)"
   sodipodi:docname="language-button.svg"
   xmlns:inkscape="http://www.inkscape.org/namespaces/inkscape"
   xmlns:sodipodi="http://sodipodi.sourceforge.net/DTD/sodipodi-0.dtd"
   xmlns="http://www.w3.org/2000/svg"
   xmlns:svg="http://www.w3.org/2000/svg">
  <sodipodi:namedview
     id="namedview27590"
     pagecolor="#ffffff"
     bordercolor="#666666"
     borderopacity="1.0"
     inkscape:pageshadow="2"
     inkscape:pageopacity="0.0"
     inkscape:pagecheckerboard="0"
     inkscape:document-units="mm"
     showgrid="false"
     inkscape:zoom="0.74297138"
     inkscape:cx="260.44072"
     inkscape:cy="131.22982"
     inkscape:window-width="1864"
     inkscape:window-height="1016"
     inkscape:window-x="0"
     inkscape:window-y="0"
     inkscape:window-maximized="1"
     inkscape:current-layer="layer1" />
  <defs
     id="defs27585" />
  <g
     inkscape:label="Layer 1"
     inkscape:groupmode="layer"
     id="layer1"
     transform="translate(-36.04162,-113.58036)">
    <path
       style="fill:#808080;stroke-width:0.264583"
       d="m 46.656174,189.48595 c -4.974296,-0.81555 -9.118776,-4.87198 -10.202769,-9.98603 -0.549046,-2.59027 -0.549046,-53.03678 0,-55.62706 1.110041,-5.23693 5.234277,-9.18097 10.467352,-10.01001 2.377495,-0.37666 102.926673,-0.37666 105.304163,0 5.23308,0.82904 9.35731,4.77308 10.46736,10.01001 0.54904,2.59028 0.54904,53.03679 0,55.62706 -1.10729,5.22393 -5.24728,9.18304 -10.46736,10.01002 -2.18046,0.34544 -103.455857,0.32242 -105.568746,-0.024 z m 51.329165,-37.79956 v -34.925 l -25.069269,0.003 c -27.06987,0.003 -26.546405,-0.0221 -28.993741,1.41213 -1.690931,0.99096 -2.791969,2.21794 -3.715909,4.14098 l -0.826288,1.7198 v 27.64895 27.64896 l 0.823677,1.7198 c 1.295487,2.7049 3.610199,4.61499 6.38514,5.269 0.546296,0.12875 12.33397,0.24605 26.194829,0.26067 l 25.201561,0.0266 z m -45.171781,18.72968 c -0.32422,-0.15648 -0.655793,-0.49341 -0.736828,-0.74873 -0.186431,-0.58739 -0.41222,-0.006 7.703656,-19.84353 7.265051,-17.75806 7.210772,-17.6513 8.642331,-16.99903 0.483018,0.22007 1.932858,3.53154 7.442579,16.99903 8.112885,19.83043 7.889997,19.25642 7.704392,19.84121 -0.184365,0.58089 -1.367018,1.13634 -1.995043,0.93701 -0.44563,-0.14144 -1.360395,-2.02149 -3.728236,-7.66238 l -0.839325,-1.99952 -9.278639,0.0695 -9.27864,0.0695 -1.914225,4.60604 c -1.052824,2.53332 -2.069281,4.70439 -2.258795,4.8246 -0.438819,0.27833 -0.731242,0.25961 -1.463227,-0.0937 z m 22.8698,-12.7104 c -0.07348,-0.18191 -1.82829,-4.52769 -3.89958,-9.6573 -2.071288,-5.12961 -3.853712,-9.32656 -3.960937,-9.32656 -0.107225,0 -1.889649,4.19695 -3.960937,9.32656 -2.071291,5.12961 -3.826101,9.47539 -3.89958,9.6573 -0.105122,0.26023 1.57036,0.33073 7.860517,0.33073 6.290157,0 7.965638,-0.0705 7.860517,-0.33073 z m 78.658232,27.94976 c 2.17982,-1.04401 3.55628,-2.42047 4.60028,-4.60028 l 0.82368,-1.7198 v -27.64896 -27.64895 l -0.82629,-1.7198 c -0.92394,-1.92304 -2.02498,-3.15002 -3.71591,-4.14098 -2.44733,-1.43423 -1.92387,-1.40874 -28.99374,-1.41213 l -25.06927,-0.003 v 34.93133 34.93132 l 25.73073,-0.0725 25.73073,-0.0725 z m -34.925,-15.25979 c -0.82627,-0.41593 -1.02083,-1.61562 -0.37732,-2.32669 0.25085,-0.27718 2.18599,-1.40475 4.30031,-2.5057 2.11433,-1.10094 4.19016,-2.24804 4.61296,-2.54911 l 0.76874,-0.54738 -4.25547,-4.28384 c -2.63733,-2.6549 -4.25547,-4.48407 -4.25547,-4.81044 0,-0.88002 0.64838,-1.5097 1.55453,-1.5097 0.72373,0 1.39788,0.55533 5.03205,4.14514 2.308,2.27983 4.3181,4.14514 4.46688,4.14514 0.14879,0 0.89846,-0.68461 1.66593,-1.52135 3.62193,-3.94883 6.05947,-8.1301 8.02068,-13.75834 l 0.94501,-2.71198 H 128.52731 115.1592 l -0.64943,-0.64943 c -0.35718,-0.35719 -0.64943,-0.77932 -0.64943,-0.93807 0,-0.15875 0.29225,-0.58088 0.64943,-0.93806 l 0.64943,-0.64944 h 7.28807 7.28807 v -2.52556 c 0,-2.32869 0.0506,-2.5762 0.64943,-3.175 0.81148,-0.81148 1.06466,-0.81148 1.87614,0 0.59881,0.5988 0.64943,0.84631 0.64943,3.175 v 2.52556 h 7.28807 7.28807 l 0.64943,0.64944 c 0.81148,0.81147 0.81148,1.06465 0,1.87613 -0.48805,0.48805 -0.93202,0.64943 -1.78661,0.64943 h -1.13718 l -1.1536,3.42368 c -1.9492,5.78491 -4.37854,10.07821 -8.20017,14.49197 l -1.88143,2.17294 1.12036,0.76088 c 0.61619,0.41848 2.60863,1.63581 4.42764,2.70518 3.4865,2.04965 4.49792,2.79418 4.49792,3.311 0,0.50827 -1.06025,1.70936 -1.50892,1.70936 -0.42475,0 -8.06832,-4.2631 -10.06452,-5.61335 l -1.12239,-0.75921 -1.52344,1.0281 c -1.82935,1.23453 -9.1254,5.34607 -9.47698,5.34056 -0.1367,-0.002 -0.5462,-0.15374 -0.91,-0.33686 z"
       id="path27679" />
  </g>
</svg>
