<?xml version="1.0" encoding="UTF-8" standalone="no"?>
<!-- Created with Inkscape (http://www.inkscape.org/) -->

<svg
   width="86.722771mm"
   height="86.865784mm"
   viewBox="0 0 86.722771 86.865784"
   version="1.1"
   id="svg5"
   inkscape:version="1.2.2 (b0a8486541, 2022-12-01)"
   sodipodi:docname="login-icon-night.svg"
   xml:space="preserve"
   xmlns:inkscape="http://www.inkscape.org/namespaces/inkscape"
   xmlns:sodipodi="http://sodipodi.sourceforge.net/DTD/sodipodi-0.dtd"
   xmlns="http://www.w3.org/2000/svg"
   xmlns:svg="http://www.w3.org/2000/svg"><sodipodi:namedview
     id="namedview7"
     pagecolor="#ffffff"
     bordercolor="#666666"
     borderopacity="1.0"
     inkscape:pageshadow="2"
     inkscape:pageopacity="0.0"
     inkscape:pagecheckerboard="0"
     inkscape:document-units="mm"
     showgrid="false"
     inkscape:zoom="0.70967249"
     inkscape:cx="155.00108"
     inkscape:cy="310.00215"
     inkscape:window-width="1503"
     inkscape:window-height="934"
     inkscape:window-x="0"
     inkscape:window-y="0"
     inkscape:window-maximized="1"
     inkscape:current-layer="layer1"
     inkscape:showpageshadow="2"
     inkscape:deskcolor="#d1d1d1"
     showguides="false" /><defs
     id="defs2"><inkscape:path-effect
       effect="fill_between_many"
       method="originald"
       linkedpaths="#path120039,0,1"
       id="path-effect120190" /><inkscape:path-effect
       effect="fill_between_many"
       method="originald"
       linkedpaths="#path120039,0,1"
       id="path-effect120194" /><inkscape:path-effect
       effect="fill_between_many"
       method="originald"
       linkedpaths="#path120232,0,1"
       id="path-effect120252" /><inkscape:path-effect
       effect="fill_between_many"
       method="originald"
       linkedpaths="#path120039,0,1"
       id="path-effect120190-6"
       is_visible="true"
       lpeversion="0"
       join="true"
       close="true"
       autoreverse="true" /><inkscape:path-effect
       effect="fill_between_many"
       method="originald"
       linkedpaths="#path120039,0,1"
       id="path-effect120194-6"
       is_visible="true"
       lpeversion="0"
       join="true"
       close="true"
       autoreverse="true" /><inkscape:path-effect
       effect="fill_between_many"
       method="originald"
       linkedpaths="#path120232,0,1"
       id="path-effect120252-4"
       is_visible="true"
       lpeversion="0"
       join="true"
       close="true"
       autoreverse="true" /></defs><g
     inkscape:label="Layer 1"
     inkscape:groupmode="layer"
     id="layer1"
     transform="translate(-59.996787,-65.111984)"><path
       inkscape:original-d="M 0,0"
       inkscape:path-effect="#path-effect120190-6"
       d="m -43.417089,76.47213 c -4.230016,-0.0071 -8.466247,1.287741 -11.95962,3.886172 -3.538585,2.632061 -6.359973,6.669919 -7.430156,10.633592 -1.923818,7.125295 -0.07197,14.355846 4.998669,19.516266 3.10319,3.15812 7.472407,5.37809 11.602294,5.89494 10.321965,1.29176 19.625686,-5.03922 22.263457,-15.15007 0.382203,-1.4651 0.440616,-2.124533 0.429214,-4.81055 -0.01161,-2.724568 -0.07385,-3.340315 -0.50111,-4.94299 -1.17548,-4.40889 -3.83751,-8.359678 -7.479896,-11.100645 -3.468635,-2.610214 -7.692846,-3.919555 -11.922852,-3.926715 z"
       id="path120192"
       class="UnoptimicedTransforms"
       transform="matrix(0.7024721,0,0,0.7024721,134.14397,29.034593)"
       style="stroke:#808080;stroke-opacity:1;fill:none" /><path
       inkscape:original-d="M 0,0"
       inkscape:path-effect="#path-effect120194-6"
       d="m 168.03929,62.214437 c -4.23001,-0.0071 -8.46624,1.287741 -11.95962,3.886172 -3.53858,2.63206 -6.35997,6.669919 -7.43015,10.633591 -1.92382,7.125295 -0.072,14.355851 4.99867,19.516266 3.10318,3.158119 7.4724,5.378094 11.60229,5.894944 10.32196,1.29176 19.62568,-5.039227 22.26346,-15.150073 0.3822,-1.465101 0.44061,-2.124533 0.42921,-4.810551 -0.0116,-2.724568 -0.0738,-3.340314 -0.50111,-4.94299 -1.17548,-4.408889 -3.83751,-8.359678 -7.4799,-11.100645 -3.46863,-2.610214 -7.69284,-3.919555 -11.92285,-3.926714 z"
       id="path120196"
       class="UnoptimicedTransforms"
       transform="matrix(0.7024721,0,0,0.7024721,-14.398238,39.050225)"
       style="fill:none;stroke:#808080;stroke-opacity:1" /><path
       id="path120039"
       style="fill:#a0c0d2;fill-opacity:1;stroke:#a0c0d2;stroke-width:2.3922;stroke-dasharray:none;stroke-opacity:1"
       d="m 178.27046,69.712981 c -4.04372,-0.0068 -8.09338,1.231027 -11.4329,3.715019 -3.38274,2.51614 -6.07987,6.376165 -7.10292,10.165271 -1.83909,6.811486 -0.0688,13.723597 4.77852,18.656739 2.96652,3.01903 7.14331,5.14123 11.09131,5.63532 9.86737,1.23487 18.76134,-4.81729 21.28294,-14.482839 0.36537,-1.400575 0.42121,-2.030965 0.41031,-4.598686 -0.0111,-2.604574 -0.0706,-3.193202 -0.47904,-4.725293 -1.12371,-4.214715 -3.6685,-7.991505 -7.15047,-10.611755 -3.31587,-2.495256 -7.35404,-3.746932 -11.39775,-3.753776 z m -0.15968,2.399337 c 1.53813,-0.02016 3.05504,0.08509 3.92482,0.324528 5.40667,1.488327 9.08786,4.515343 11.41688,9.38754 1.17548,2.459069 1.48518,3.934761 1.48518,7.069853 0,3.129864 -0.28856,4.499653 -1.48622,7.055383 -2.51484,5.366518 -7.38249,8.922698 -13.1687,9.620598 -5.22599,0.63032 -9.95623,-0.9712 -13.77126,-4.66276 -2.85163,-2.759358 -4.55498,-6.26784 -5.01726,-10.33322 -0.5601,-4.925606 1.23839,-9.991867 4.81831,-13.571782 2.05031,-2.050308 4.85304,-3.664935 7.74423,-4.461226 0.95624,-0.263369 2.51588,-0.408751 4.05402,-0.428914 z"
       class="UnoptimicedTransforms"
       transform="matrix(0.73483541,0,0,0.73483541,-27.35477,31.526564)"
       sodipodi:nodetypes="csssccccscscsssssssss" /><path
       inkscape:original-d="M 0,0"
       inkscape:path-effect="#path-effect120252-4"
       d="m -87.429823,84.053825 c -10.130629,0 -10.444147,0.01956 -14.125147,0.88167 -9.1333,2.139131 -16.75203,9.165179 -19.6006,18.076195 -1.25138,3.9148 -2.31702,10.28716 -1.75599,11.97629 7.63003,13.53867 28.285842,13.54547 36.142638,13.67049 9.376065,-0.70874 29.487713,-5.33737 34.253025,-15.51536 0.499269,-1.83841 -0.296823,-7.18849 -1.620091,-10.88603 -3.321076,-9.279969 -11.176052,-15.827942 -21.315834,-17.769679 -2.179132,-0.417267 -2.625846,-0.433544 -11.978001,-0.433544 z"
       id="path120254"
       class="UnoptimicedTransforms"
       transform="matrix(0.7024721,0,0,0.7024721,165.17644,56.225757)"
       style="fill:none;stroke:#808080;stroke-opacity:1" /><path
       d="m -18.615232,128.64425 c -9.68446,0 -9.98417,0.0187 -13.50305,0.84284 -8.731059,2.04492 -16.014249,8.76153 -18.737359,17.28009 -1.19627,3.74239 -2.214976,9.8341 -1.678656,11.44884 7.293996,12.9424 27.040089,12.9489 34.550859,13.06842 8.9631283,-0.67753 28.189028,-5.10231 32.744468,-14.83204 0.47728,-1.75745 -0.28375,-6.8719 -1.54874,-10.4066 -3.17481,-8.87126 -10.6838405,-15.13085 -20.3770505,-16.98707 -2.08316,-0.39889 -2.5102,-0.41445 -11.4504715,-0.41445 z m -1.82004,2.27842 c 0.93266,0.004 1.95993,0.0113 3.098,0.0222 9.0628715,0.0866 9.8288415,0.16243 13.2689615,1.30741 3.46997999,1.15493 6.14027,2.79027 8.93589,5.47357 4.625041,4.43923 6.9249705,9.19072 7.5607805,15.62023 0.19733,1.99541 0.1876,2.2223 -0.11834,2.86546 -0.218,0.45828 -0.53609,0.78377 -0.92604,0.94671 -8.2724872,17.2475 -49.286584,20.50183 -61.159818,1.449 -0.952624,-5.28406 1.351227,-12.69034 3.252757,-15.7111 3.58279,-5.69163 8.777238,-9.57418 14.868339,-11.1125 2.79902,-0.70687 4.69083,-0.88563 11.21947,-0.86093 z"
       style="fill:#000000;stroke:#a0c0d2;stroke-width:2.3922;stroke-dasharray:none;stroke-opacity:1"
       id="path120232"
       class="UnoptimicedTransforms"
       transform="matrix(0.73483541,0,0,0.73483541,117.43856,20.738874)"
       sodipodi:nodetypes="ccccccscccccssssccsccc" /><circle
       style="fill:none;fill-opacity:0.766426;stroke:#a0c0d2;stroke-width:3.52304;stroke-dasharray:none;stroke-opacity:1"
       id="path120308"
       cx="103.56588"
       cy="108.55082"
       r="37.865944" /></g></svg>
