<?xml version="1.0" encoding="UTF-8" standalone="no"?>
<!-- Created with Inkscape (http://www.inkscape.org/) -->

<svg
   width="86.722771mm"
   height="86.865784mm"
   viewBox="0 0 86.722771 86.865784"
   version="1.1"
   id="svg5"
   inkscape:version="1.2.2 (b0a8486541, 2022-12-01)"
   sodipodi:docname="settings-icon-over-dark.svg"
   xmlns:inkscape="http://www.inkscape.org/namespaces/inkscape"
   xmlns:sodipodi="http://sodipodi.sourceforge.net/DTD/sodipodi-0.dtd"
   xmlns="http://www.w3.org/2000/svg"
   xmlns:svg="http://www.w3.org/2000/svg">
  <sodipodi:namedview
     id="namedview7"
     pagecolor="#ffffff"
     bordercolor="#666666"
     borderopacity="1.0"
     inkscape:pageshadow="2"
     inkscape:pageopacity="0.0"
     inkscape:pagecheckerboard="0"
     inkscape:document-units="mm"
     showgrid="false"
     inkscape:zoom="0.7198092"
     inkscape:cx="172.26787"
     inkscape:cy="313.97209"
     inkscape:window-width="1503"
     inkscape:window-height="934"
     inkscape:window-x="0"
     inkscape:window-y="0"
     inkscape:window-maximized="1"
     inkscape:current-layer="layer1"
     inkscape:showpageshadow="2"
     inkscape:deskcolor="#d1d1d1" />
  <defs
     id="defs2" />
  <g
     inkscape:label="Layer 1"
     inkscape:groupmode="layer"
     id="layer1"
     transform="translate(-59.996787,-65.111984)">
    <path
       style="fill:#a0c0d2;fill-opacity:0.87450981;stroke:#a0c0d2;stroke-width:0.64512;stroke-miterlimit:4;stroke-dasharray:none;stroke-opacity:0.87450981"
       d="m 97.318549,148.58387 c -1.135134,-0.32256 -2.343775,-1.26581 -2.851632,-2.22546 -0.22699,-0.42893 -0.86517,-2.75499 -1.418166,-5.169 l -1.005465,-4.38911 -2.056292,-1.09885 c -1.130959,-0.60435 -2.716119,-1.56216 -3.522602,-2.12846 l -1.466311,-1.02963 -4.485895,1.47973 c -4.926852,1.62518 -5.746965,1.69473 -7.623342,0.64652 -1.125973,-0.62902 -1.774623,-1.5378 -4.553863,-6.38017 -3.890873,-6.77924 -3.822426,-7.25752 1.765518,-12.33516 l 3.443658,-3.12919 -0.02424,-4.066 -0.02424,-4.06599 -1.926511,-1.71589 c -7.112159,-6.3346 -7.216134,-6.73215 -3.474827,-13.28663 3.202245,-5.61009 3.550057,-6.107192 4.775563,-6.825385 1.736883,-1.017888 3.068595,-0.896145 7.985328,0.72999 l 4.141217,1.369644 1.832859,-1.224179 c 1.008073,-0.673293 2.576635,-1.574009 3.485701,-2.001585 1.87986,-0.884192 1.598321,-0.29411 2.872626,-6.020662 0.887647,-3.988941 1.341913,-5.075074 2.482678,-5.936004 1.281438,-0.967099 2.413697,-1.132536 7.760859,-1.133992 5.74171,-0.0018 6.96864,0.225543 8.19029,1.515958 1.12945,1.193038 1.26151,1.560351 2.2726,6.321426 0.51216,2.411669 0.96981,4.419742 1.01701,4.462385 0.0472,0.04267 0.89529,0.482863 1.88468,0.978259 0.98938,0.495397 2.52557,1.383008 3.41376,1.972472 l 1.61487,1.071747 4.14528,-1.372557 c 4.8161,-1.59468 6.21967,-1.737372 7.88465,-0.801598 1.20356,0.676436 1.92806,1.698692 4.88596,6.894081 3.57871,6.285806 3.47546,6.896605 -2.01748,11.93398 l -3.38958,3.10845 -0.0241,4.04604 -0.0242,4.04604 3.44366,3.12919 c 5.51207,5.0087 5.61542,5.61388 2.03064,11.88954 -3.61308,6.3252 -4.34259,7.12473 -6.83728,7.49355 -0.96727,0.14299 -1.72764,-0.0353 -5.60302,-1.31361 l -4.48388,-1.47906 -1.8341,1.20212 c -1.00875,0.66115 -2.59326,1.61867 -3.52114,2.12779 l -1.68704,0.92569 -0.90984,4.2986 c -0.98752,4.66561 -1.12966,5.0587 -2.26139,6.25415 -1.23498,1.30451 -2.43556,1.52049 -8.31221,1.49533 -2.82554,-0.0121 -5.521387,-0.13113 -5.990776,-0.26451 z m 11.773091,-2.47989 c 0.43156,-0.18039 0.92653,-0.49907 1.09994,-0.70818 0.17341,-0.2091 0.79912,-2.64214 1.39046,-5.40673 0.59134,-2.7646 1.14174,-5.13425 1.2231,-5.26589 0.0814,-0.13165 0.29582,-0.23936 0.47658,-0.23936 0.95333,0 5.14744,-2.33945 7.44545,-4.15304 l 0.60959,-0.4811 4.63297,1.48367 c 5.50975,1.76445 6.18311,1.84241 7.16857,0.82984 0.77924,-0.80065 5.26163,-8.66867 5.51606,-9.68242 0.28417,-1.1322 -0.52968,-2.1616 -4.22679,-5.34638 l -3.58105,-3.08479 0.0267,-5.28779 0.0267,-5.2878 3.79447,-3.39301 c 4.27879,-3.826107 4.48477,-4.165108 3.58402,-5.898802 -2.0334,-3.913785 -4.76814,-8.541385 -5.29041,-8.952206 -0.34228,-0.269236 -0.986,-0.489508 -1.43053,-0.489508 -0.44451,0 -2.87117,0.657552 -5.39255,1.461224 -2.52139,0.803672 -4.68393,1.462044 -4.80566,1.463039 -0.12171,9.22e-4 -0.78008,-0.428184 -1.46304,-0.953736 -1.64558,-1.266342 -4.09668,-2.721704 -5.75275,-3.415761 -0.73762,-0.309132 -1.36579,-0.583142 -1.39594,-0.60891 -0.0301,-0.02581 -0.54934,-2.344752 -1.15377,-5.153308 -1.01788,-4.729722 -1.15354,-5.155934 -1.83879,-5.777028 l -0.73983,-0.670556 h -5.60063 -5.600615 l -0.739832,0.670556 c -0.685246,0.621094 -0.820906,1.047306 -1.838785,5.777028 -0.604431,2.808556 -1.123632,5.12754 -1.153778,5.153308 -0.03014,0.02581 -0.658317,0.30164 -1.395937,0.613039 -1.69707,0.716461 -3.791009,1.930714 -5.250242,3.044578 -1.981679,1.512649 -1.729041,1.51722 -6.764504,-0.122426 -2.501636,-0.814574 -4.921719,-1.481047 -5.377957,-1.481047 -0.458044,0 -1.104915,0.216622 -1.444497,0.483739 -0.596837,0.469472 -5.304901,8.345461 -5.652888,9.45656 -0.391772,1.250887 0.257089,2.119817 4.222898,5.655187 l 3.842333,3.42528 -0.182247,1.27953 c -0.235515,1.65356 -0.234197,5.79106 0.0028,7.45443 l 0.184624,1.2981 -3.723585,3.21294 c -2.937635,2.53477 -3.809827,3.42899 -4.132148,4.23656 -0.524344,1.31375 -0.470568,1.46095 2.254841,6.17129 2.913526,5.03547 2.764891,4.82303 3.67744,5.25607 0.92348,0.43821 0.867096,0.45082 7.297548,-1.63125 l 3.743703,-1.21215 1.883132,1.37524 c 1.849134,1.3504 5.523643,3.28181 6.24368,3.28181 0.201249,0 0.43247,0.10771 0.513838,0.23936 0.08138,0.13164 0.631756,2.50129 1.2231,5.26589 0.591336,2.76459 1.217,5.19744 1.390362,5.40632 0.723714,0.87203 1.674786,1.01729 6.723996,1.02703 3.61001,0.007 5.15749,-0.0791 5.73024,-0.31844 z m -7.74108,-25.05061 c -3.362967,-0.50896 -7.26759,-3.27825 -8.875321,-6.29467 -4.46655,-8.38009 1.532915,-18.557748 10.939301,-18.557748 8.08998,0 13.94907,7.570468 12.06037,15.583058 -0.52682,2.23498 -1.64808,4.1703 -3.37925,5.83264 -2.9466,2.82948 -6.74023,4.04283 -10.7451,3.43672 z m 4.30749,-2.69331 c 6.1157,-1.29762 9.47187,-8.06765 6.81456,-13.74621 -0.90676,-1.93768 -1.64087,-2.86067 -3.22847,-4.0591 -3.03565,-2.291516 -7.50172,-2.538772 -10.807719,-0.598347 -2.643709,1.551707 -4.744772,4.902817 -4.960011,7.911047 -0.489195,6.83719 5.420212,11.92723 12.18164,10.49261 z"
       id="path14586" />
    <path
       style="fill:#a0c0d2;stroke:#a0c0d2;stroke-width:15.6944;fill-opacity:0.87450981;stroke-opacity:0.87450981"
       d="m 144.24943,304.11183 c -4.26569,-1.23496 -4.50811,-1.73327 -7.88021,-16.19849 -1.91352,-8.20838 -3.91781,-17.31085 -4.45397,-20.22771 -0.87953,-4.78492 -1.71825,-5.63216 -8.57943,-8.6665 -4.18253,-1.84972 -11.97761,-6.27029 -17.3224,-9.8235 l -9.717797,-6.46037 -19.342514,5.88967 c -10.638383,3.23931 -20.275057,5.53181 -21.414832,5.09443 -2.450728,-0.94043 -11.112892,-14.25132 -18.31035,-28.13698 -4.947456,-9.54485 -5.048066,-10.02148 -2.830016,-13.40665 1.264896,-1.93047 8.103014,-8.71315 15.195819,-15.07261 l 12.896009,-11.56266 0.02634,-20.18154 0.02635,-20.18156 -14.947441,-14.35785 C 39.37389,122.92269 32.64754,115.49489 32.64754,114.31329 c 0,-2.48981 11.770047,-23.443154 17.998223,-32.040899 2.37693,-3.281258 5.389532,-5.863254 6.841084,-5.863254 1.426571,0 9.811566,2.18808 18.633323,4.8624 8.821756,2.67432 17.559493,4.8624 19.41719,4.8624 1.8577,0 5.98553,-1.88915 9.17295,-4.198109 3.18743,-2.30896 10.28896,-6.539955 15.78117,-9.402212 l 9.98584,-5.204103 4.36823,-19.037584 c 2.40252,-10.470672 5.16141,-19.993321 6.13086,-21.161443 1.4415,-1.736895 5.64919,-2.123859 23.094,-2.123859 25.49003,0 23.64995,-1.409961 29.00901,22.228112 1.99215,8.787051 3.93957,17.039442 4.32762,18.338646 0.38803,1.299206 3.95536,3.879501 7.9274,5.733992 3.97204,1.85449 11.50305,6.218563 16.73558,9.697939 5.23252,3.479378 10.23385,6.085498 11.11405,5.791378 11.3325,-3.786759 35.32228,-10.387557 37.75227,-10.387557 3.41695,0 6.27297,3.939096 17.98829,24.809923 4.55166,8.10876 6.27803,12.5685 5.72235,14.78251 -0.43765,1.74378 -7.0417,8.70912 -14.67565,15.47852 l -13.8799,12.30801 -0.0243,21.05101 -0.0243,21.051 12.85062,11.3724 c 18.37135,16.25807 18.22722,15.90146 11.5469,28.56906 -7.83738,14.8617 -15.70584,26.96375 -18.13799,27.89706 -1.15304,0.44246 -10.70602,-1.81009 -21.22883,-5.00566 l -19.13241,-5.81014 -12.20868,7.66485 c -6.71478,4.21566 -14.32859,8.36447 -16.91956,9.21958 -5.26614,1.73798 -5.04188,1.25474 -9.02256,19.44341 -5.01026,22.89309 -5.13361,23.20184 -9.93968,24.87724 -5.19086,1.80955 -33.34459,1.80522 -39.60111,-0.006 z m 40.25146,-94.96096 c 25.20739,-11.92501 35.32957,-40.40539 23.28581,-65.51833 -6.67143,-13.91087 -17.1711,-22.55563 -31.99524,-26.34286 -11.60399,-2.96455 -21.69985,-1.84989 -32.95475,3.63845 -21.9684,10.71268 -32.73517,37.02302 -24.85698,60.74204 4.21332,12.68511 18.82419,25.97776 34.14392,31.06338 6.84235,2.27143 24.02076,0.37056 32.37724,-3.58268 z"
       id="path4073"
       transform="matrix(0.26458333,0,0,0.26458333,59.996787,65.111984)" />
    <path
       style="fill:#a0c0d2;fill-opacity:0.87451;stroke:#a0c0d2;stroke-width:1.10026;stroke-opacity:0.87451"
       d="m 172.57824,103.8868 c -0.29904,-0.0866 -0.31604,-0.12152 -0.55244,-1.1356 -0.13415,-0.57546 -0.27466,-1.21359 -0.31225,-1.41808 -0.0617,-0.33544 -0.12045,-0.39484 -0.60146,-0.60756 -0.29322,-0.12968 -0.83969,-0.43958 -1.21439,-0.68868 l -0.68127,-0.452909 -1.35602,0.4129 c -0.7458,0.227089 -1.42139,0.387809 -1.50129,0.357139 -0.17181,-0.0659 -0.77907,-0.999089 -1.28365,-1.972547 -0.34685,-0.669145 -0.3539,-0.702559 -0.1984,-0.939878 0.0887,-0.135336 0.56806,-0.610838 1.0653,-1.05667 l 0.90408,-0.810605 0.002,-1.414833 0.002,-1.414836 -1.04789,-1.006561 c -0.57635,-0.55361 -1.0479,-1.074338 -1.0479,-1.157175 0,-0.174549 0.82514,-1.64349 1.26177,-2.246238 0.16664,-0.230034 0.37784,-0.411045 0.4796,-0.411045 0.10001,0 0.68784,0.153396 1.3063,0.34088 0.61845,0.187484 1.23101,0.34088 1.36124,0.34088 0.13024,0 0.41962,-0.13244 0.64308,-0.29431 0.22345,-0.16187 0.72131,-0.458486 1.10634,-0.659145 l 0.70006,-0.364835 0.30624,-1.334637 c 0.16843,-0.73405 0.36184,-1.401638 0.42981,-1.48353 0.10105,-0.121766 0.39603,-0.148894 1.61901,-0.148894 1.78698,0 1.65799,-0.09885 2.03369,1.55831 0.13966,0.616019 0.27618,1.194555 0.30338,1.285637 0.0272,0.09108 0.27729,0.271973 0.55576,0.401983 0.27846,0.13001 0.80642,0.435955 1.17325,0.679877 0.36683,0.243923 0.71745,0.426626 0.77915,0.406007 0.79447,-0.265472 2.47628,-0.728223 2.64664,-0.728223 0.23955,0 0.43977,0.276151 1.26107,1.739308 0.3191,0.568467 0.44013,0.881119 0.40117,1.036333 -0.0307,0.122248 -0.49366,0.610556 -1.02884,1.085127 l -0.97305,0.862857 -0.002,1.475788 -0.002,1.475788 0.90089,0.797266 c 1.28793,1.139777 1.27783,1.114777 0.8095,2.002843 -0.54944,1.041889 -1.10106,1.890298 -1.27157,1.955728 -0.0808,0.031 -0.75055,-0.12689 -1.48825,-0.35092 l -1.34129,-0.407319 -0.85589,0.537349 c -0.47074,0.29554 -1.00451,0.58639 -1.18615,0.64634 -0.36919,0.12184 -0.35346,0.088 -0.63253,1.36308 -0.35125,1.60493 -0.35989,1.62658 -0.69683,1.74403 -0.3639,0.12686 -2.33763,0.12656 -2.77624,-4.2e-4 z m 2.82185,-6.657274 c 1.76717,-0.836007 2.47679,-2.832634 1.63246,-4.593185 -0.46771,-0.975226 -1.20379,-1.58127 -2.24304,-1.846775 -0.8135,-0.207831 -1.52128,-0.129687 -2.3103,0.255075 -1.54011,0.751016 -2.29492,2.595511 -1.74261,4.258341 0.29537,0.889294 1.31968,1.82118 2.39367,2.177709 0.47968,0.15924 1.68398,0.02598 2.26982,-0.251165 z"
       id="path4073-2" />
  </g>
</svg>
