<?xml version="1.0" encoding="UTF-8" standalone="no"?>
<!-- Created with Inkscape (http://www.inkscape.org/) -->

<svg
   width="86.722771mm"
   height="86.865784mm"
   viewBox="0 0 86.722771 86.865784"
   version="1.1"
   id="svg5"
   inkscape:version="1.2.2 (b0a8486541, 2022-12-01)"
   sodipodi:docname="settings-icon-over-dark2.svg"
   xmlns:inkscape="http://www.inkscape.org/namespaces/inkscape"
   xmlns:sodipodi="http://sodipodi.sourceforge.net/DTD/sodipodi-0.dtd"
   xmlns="http://www.w3.org/2000/svg"
   xmlns:svg="http://www.w3.org/2000/svg">
  <sodipodi:namedview
     id="namedview7"
     pagecolor="#ffffff"
     bordercolor="#666666"
     borderopacity="1.0"
     inkscape:pageshadow="2"
     inkscape:pageopacity="0.0"
     inkscape:pagecheckerboard="0"
     inkscape:document-units="mm"
     showgrid="false"
     inkscape:zoom="0.7198092"
     inkscape:cx="175.04639"
     inkscape:cy="313.97209"
     inkscape:window-width="1503"
     inkscape:window-height="934"
     inkscape:window-x="0"
     inkscape:window-y="0"
     inkscape:window-maximized="1"
     inkscape:current-layer="layer1"
     inkscape:showpageshadow="2"
     inkscape:deskcolor="#d1d1d1" />
  <defs
     id="defs2" />
  <g
     inkscape:label="Layer 1"
     inkscape:groupmode="layer"
     id="layer1"
     transform="translate(-59.996787,-65.111984)">
    <path
       style="fill:#a0c0d2;fill-opacity:1;stroke:none;stroke-width:4.31476;stroke-opacity:0.87451"
       d="m 97.961686,147.01094 c -1.172738,-0.33952 -1.239385,-0.47652 -2.166454,-4.45335 -0.526071,-2.25667 -1.077098,-4.75915 -1.224501,-5.56107 -0.241803,-1.31548 -0.472387,-1.54841 -2.358686,-2.38262 -1.149875,-0.50853 -3.292925,-1.72385 -4.762333,-2.70071 l -2.67165,-1.77611 -5.317711,1.61921 c -2.92474,0.89056 -5.574088,1.52082 -5.887438,1.40058 -0.673763,-0.25855 -3.055195,-3.91802 -5.033945,-7.73552 -1.360171,-2.6241 -1.387831,-2.75514 -0.778037,-3.6858 0.347749,-0.53073 2.227708,-2.39545 4.177686,-4.14381 l 3.545415,-3.17885 0.0072,-5.54838 0.0072,-5.54838 -4.109402,-3.947309 c -2.260172,-2.171021 -4.109403,-4.213097 -4.109403,-4.537947 0,-0.684507 3.235861,-6.445072 4.948133,-8.808793 0.653474,-0.902095 1.481708,-1.611946 1.880774,-1.611946 0.392198,0 2.697429,0.601554 5.122737,1.336787 2.425307,0.735234 4.827516,1.336788 5.33824,1.336788 0.510726,0 1.645563,-0.519372 2.521859,-1.154158 0.876299,-0.634788 2.828676,-1.797987 4.338613,-2.584889 l 2.745342,-1.43073 1.200929,-5.233877 c 0.660509,-2.878633 1.418992,-5.496633 1.685517,-5.817777 0.396302,-0.477513 1.553094,-0.583898 6.349079,-0.583898 7.0078,0 6.50192,-0.387632 7.97525,6.111028 0.54769,2.415766 1.08308,4.684542 1.18977,5.041724 0.10668,0.357182 1.08742,1.066565 2.17943,1.576408 1.092,0.509843 3.16245,1.709629 4.601,2.666191 1.43854,0.956563 2.81352,1.673046 3.05551,1.592185 3.11557,-1.041068 9.71092,-2.855782 10.37899,-2.855782 0.9394,0 1.72458,1.082949 4.9454,6.820829 1.25136,2.229288 1.72598,3.455375 1.57321,4.064058 -0.12032,0.479406 -1.93593,2.394341 -4.03468,4.255408 l -3.81591,3.38376 -0.007,5.78742 -0.007,5.78741 3.53294,3.12654 c 5.05072,4.46972 5.01109,4.37168 3.17451,7.8543 -2.15467,4.08583 -4.3179,7.41297 -4.98655,7.66956 -0.317,0.12164 -2.94334,-0.49764 -5.83631,-1.37618 l -5.25994,-1.59734 -3.35646,2.10725 c -1.84605,1.15898 -3.93926,2.29959 -4.65158,2.53468 -1.44778,0.47781 -1.38613,0.34495 -2.48051,5.34544 -1.37744,6.29385 -1.41135,6.37873 -2.73265,6.83934 -1.42709,0.49749 -9.167208,0.4963 -10.887272,-0.002 z m 11.066074,-26.10699 c 6.9301,-3.27847 9.71292,-11.10839 6.40181,-18.01253 -1.83413,-3.824421 -4.72074,-6.201068 -8.79624,-7.242266 -3.19021,-0.815025 -5.9658,-0.508579 -9.060033,1.000295 -6.039628,2.945166 -8.999665,10.178491 -6.833766,16.699411 1.15834,3.48743 5.17521,7.14189 9.386959,8.54005 1.88113,0.62447 6.60387,0.10187 8.90127,-0.98496 z"
       id="path4073" />
  </g>
</svg>
