<?xml version="1.0" encoding="UTF-8" standalone="no"?>
<!-- Created with Inkscape (http://www.inkscape.org/) -->

<svg
   width="86.722771mm"
   height="86.865784mm"
   viewBox="0 0 86.722771 86.865784"
   version="1.1"
   id="svg5"
   inkscape:version="1.2.2 (b0a8486541, 2022-12-01)"
   sodipodi:docname="settings-icon-dark.svg"
   xmlns:inkscape="http://www.inkscape.org/namespaces/inkscape"
   xmlns:sodipodi="http://sodipodi.sourceforge.net/DTD/sodipodi-0.dtd"
   xmlns="http://www.w3.org/2000/svg"
   xmlns:svg="http://www.w3.org/2000/svg">
  <sodipodi:namedview
     id="namedview7"
     pagecolor="#ffffff"
     bordercolor="#666666"
     borderopacity="1.0"
     inkscape:pageshadow="2"
     inkscape:pageopacity="0.0"
     inkscape:pagecheckerboard="0"
     inkscape:document-units="mm"
     showgrid="false"
     inkscape:zoom="0.7198092"
     inkscape:cx="172.26787"
     inkscape:cy="313.97209"
     inkscape:window-width="1503"
     inkscape:window-height="934"
     inkscape:window-x="0"
     inkscape:window-y="0"
     inkscape:window-maximized="1"
     inkscape:current-layer="layer1"
     inkscape:showpageshadow="2"
     inkscape:deskcolor="#d1d1d1" />
  <defs
     id="defs2" />
  <g
     inkscape:label="Layer 1"
     inkscape:groupmode="layer"
     id="layer1"
     transform="translate(-59.996787,-65.111984)">
    <path
       style="fill:#a0c0d2;fill-opacity:1;stroke:#a0c0d2;stroke-width:0.64512;stroke-miterlimit:4;stroke-dasharray:none;stroke-opacity:0.87450981"
       d="m 97.318549,148.58387 c -1.135134,-0.32256 -2.343775,-1.26581 -2.851632,-2.22546 -0.22699,-0.42893 -0.86517,-2.75499 -1.418166,-5.169 l -1.005465,-4.38911 -2.056292,-1.09885 c -1.130959,-0.60435 -2.716119,-1.56216 -3.522602,-2.12846 l -1.466311,-1.02963 -4.485895,1.47973 c -4.926852,1.62518 -5.746965,1.69473 -7.623342,0.64652 -1.125973,-0.62902 -1.774623,-1.5378 -4.553863,-6.38017 -3.890873,-6.77924 -3.822426,-7.25752 1.765518,-12.33516 l 3.443658,-3.12919 -0.02424,-4.066 -0.02424,-4.06599 -1.926511,-1.71589 c -7.112159,-6.3346 -7.216134,-6.73215 -3.474827,-13.28663 3.202245,-5.61009 3.550057,-6.107192 4.775563,-6.825385 1.736883,-1.017888 3.068595,-0.896145 7.985328,0.72999 l 4.141217,1.369644 1.832859,-1.224179 c 1.008073,-0.673293 2.576635,-1.574009 3.485701,-2.001585 1.87986,-0.884192 1.598321,-0.29411 2.872626,-6.020662 0.887647,-3.988941 1.341913,-5.075074 2.482678,-5.936004 1.281438,-0.967099 2.413697,-1.132536 7.760859,-1.133992 5.74171,-0.0018 6.96864,0.225543 8.19029,1.515958 1.12945,1.193038 1.26151,1.560351 2.2726,6.321426 0.51216,2.411669 0.96981,4.419742 1.01701,4.462385 0.0472,0.04267 0.89529,0.482863 1.88468,0.978259 0.98938,0.495397 2.52557,1.383008 3.41376,1.972472 l 1.61487,1.071747 4.14528,-1.372557 c 4.8161,-1.59468 6.21967,-1.737372 7.88465,-0.801598 1.20356,0.676436 1.92806,1.698692 4.88596,6.894081 3.57871,6.285806 3.47546,6.896605 -2.01748,11.93398 l -3.38958,3.10845 -0.0241,4.04604 -0.0242,4.04604 3.44366,3.12919 c 5.51207,5.0087 5.61542,5.61388 2.03064,11.88954 -3.61308,6.3252 -4.34259,7.12473 -6.83728,7.49355 -0.96727,0.14299 -1.72764,-0.0353 -5.60302,-1.31361 l -4.48388,-1.47906 -1.8341,1.20212 c -1.00875,0.66115 -2.59326,1.61867 -3.52114,2.12779 l -1.68704,0.92569 -0.90984,4.2986 c -0.98752,4.66561 -1.12966,5.0587 -2.26139,6.25415 -1.23498,1.30451 -2.43556,1.52049 -8.31221,1.49533 -2.82554,-0.0121 -5.521387,-0.13113 -5.990776,-0.26451 z m 11.773091,-2.47989 c 0.43156,-0.18039 0.92653,-0.49907 1.09994,-0.70818 0.17341,-0.2091 0.79912,-2.64214 1.39046,-5.40673 0.59134,-2.7646 1.14174,-5.13425 1.2231,-5.26589 0.0814,-0.13165 0.29582,-0.23936 0.47658,-0.23936 0.95333,0 5.14744,-2.33945 7.44545,-4.15304 l 0.60959,-0.4811 4.63297,1.48367 c 5.50975,1.76445 6.18311,1.84241 7.16857,0.82984 0.77924,-0.80065 5.26163,-8.66867 5.51606,-9.68242 0.28417,-1.1322 -0.52968,-2.1616 -4.22679,-5.34638 l -3.58105,-3.08479 0.0267,-5.28779 0.0267,-5.2878 3.79447,-3.39301 c 4.27879,-3.826107 4.48477,-4.165108 3.58402,-5.898802 -2.0334,-3.913785 -4.76814,-8.541385 -5.29041,-8.952206 -0.34228,-0.269236 -0.986,-0.489508 -1.43053,-0.489508 -0.44451,0 -2.87117,0.657552 -5.39255,1.461224 -2.52139,0.803672 -4.68393,1.462044 -4.80566,1.463039 -0.12171,9.22e-4 -0.78008,-0.428184 -1.46304,-0.953736 -1.64558,-1.266342 -4.09668,-2.721704 -5.75275,-3.415761 -0.73762,-0.309132 -1.36579,-0.583142 -1.39594,-0.60891 -0.0301,-0.02581 -0.54934,-2.344752 -1.15377,-5.153308 -1.01788,-4.729722 -1.15354,-5.155934 -1.83879,-5.777028 l -0.73983,-0.670556 h -5.60063 -5.600615 l -0.739832,0.670556 c -0.685246,0.621094 -0.820906,1.047306 -1.838785,5.777028 -0.604431,2.808556 -1.123632,5.12754 -1.153778,5.153308 -0.03014,0.02581 -0.658317,0.30164 -1.395937,0.613039 -1.69707,0.716461 -3.791009,1.930714 -5.250242,3.044578 -1.981679,1.512649 -1.729041,1.51722 -6.764504,-0.122426 -2.501636,-0.814574 -4.921719,-1.481047 -5.377957,-1.481047 -0.458044,0 -1.104915,0.216622 -1.444497,0.483739 -0.596837,0.469472 -5.304901,8.345461 -5.652888,9.45656 -0.391772,1.250887 0.257089,2.119817 4.222898,5.655187 l 3.842333,3.42528 -0.182247,1.27953 c -0.235515,1.65356 -0.234197,5.79106 0.0028,7.45443 l 0.184624,1.2981 -3.723585,3.21294 c -2.937635,2.53477 -3.809827,3.42899 -4.132148,4.23656 -0.524344,1.31375 -0.470568,1.46095 2.254841,6.17129 2.913526,5.03547 2.764891,4.82303 3.67744,5.25607 0.92348,0.43821 0.867096,0.45082 7.297548,-1.63125 l 3.743703,-1.21215 1.883132,1.37524 c 1.849134,1.3504 5.523643,3.28181 6.24368,3.28181 0.201249,0 0.43247,0.10771 0.513838,0.23936 0.08138,0.13164 0.631756,2.50129 1.2231,5.26589 0.591336,2.76459 1.217,5.19744 1.390362,5.40632 0.723714,0.87203 1.674786,1.01729 6.723996,1.02703 3.61001,0.007 5.15749,-0.0791 5.73024,-0.31844 z m -7.74108,-25.05061 c -3.362967,-0.50896 -7.26759,-3.27825 -8.875321,-6.29467 -4.46655,-8.38009 1.532915,-18.557748 10.939301,-18.557748 8.08998,0 13.94907,7.570468 12.06037,15.583058 -0.52682,2.23498 -1.64808,4.1703 -3.37925,5.83264 -2.9466,2.82948 -6.74023,4.04283 -10.7451,3.43672 z m 4.30749,-2.69331 c 6.1157,-1.29762 9.47187,-8.06765 6.81456,-13.74621 -0.90676,-1.93768 -1.64087,-2.86067 -3.22847,-4.0591 -3.03565,-2.291516 -7.50172,-2.538772 -10.807719,-0.598347 -2.643709,1.551707 -4.744772,4.902817 -4.960011,7.911047 -0.489195,6.83719 5.420212,11.92723 12.18164,10.49261 z"
       id="path14586" />
  </g>
</svg>
