<?xml version="1.0" encoding="utf-8"?>
<svg viewBox="0 0 100 100" xmlns="http://www.w3.org/2000/svg" style="height: 100%; width: 100%; background: rgba(0, 0, 0, 0) none repeat scroll 0% 0%; shape-rendering: auto;" width="88px" height="88px"><g style="transform-origin: 50% 50% 0px; transform: rotate(0deg) scale(1);" class="ldl-scale"><g class="ldl-ani"><g class="ldl-layer"><g class="ldl-ani" style="transform: rotate(0deg); transform-origin: 50px 50px 0px; animation: 1.11111s linear -0.740741s infinite normal forwards running spin-7d67a0ba-1009-487a-9f50-66a15f8d6ede;"><path fill="#e15b64" d="M82.727 50a32.716 32.716 0 0 1-4.286 16.183C72.88 75.934 62.683 82.156 51.558 82.69v7.28c13.73-.539 26.346-8.169 33.2-20.183A39.99 39.99 0 0 0 90 50c0-21.534-17.105-39.148-38.442-39.97v7.279C68.884 18.125 82.727 32.476 82.727 50z" style="fill: rgb(255, 0, 255);"></path></g></g><g class="ldl-layer"><g class="ldl-ani" style="transform: rotate(0deg); transform-origin: 50px 50px 0px; animation: 1.11111s linear -0.925926s infinite normal forwards running spin-7d67a0ba-1009-487a-9f50-66a15f8d6ede;"><path fill="#abbd81" d="M48.442 17.31v-7.279c-13.016.514-25.096 7.439-32.138 18.425l3.043 1.786 3.236 1.899c5.731-8.775 15.411-14.326 25.859-14.831z" style="fill: rgb(179, 179, 179);"></path></g></g><g class="ldl-layer"><g class="ldl-ani" style="transform: rotate(0deg); transform-origin: 50px 50px 0px; animation: 1.11111s linear -1.11111s infinite normal forwards running spin-7d67a0ba-1009-487a-9f50-66a15f8d6ede;"><path fill="#f8b26a" d="M17.273 50a32.702 32.702 0 0 1 3.731-15.171l-3.386-1.987-2.893-1.698A39.997 39.997 0 0 0 10 50c0 21.534 17.105 39.148 38.442 39.97v-7.279C31.116 81.875 17.273 67.524 17.273 50z" style="fill: rgb(0, 214, 255);"></path></g></g><metadata xmlns:d="https://loading.io/stock/">
<d:name>pie</d:name>
<d:tags>pie,donut,circle,percent,proportion,ratio,chart</d:tags>
<d:license>by</d:license>
<d:slug>mq28gt</d:slug>
</metadata></g></g><style id="spin-7d67a0ba-1009-487a-9f50-66a15f8d6ede" data-anikit="">@keyframes spin-7d67a0ba-1009-487a-9f50-66a15f8d6ede
{
  0% {
    animation-timing-function: cubic-bezier(0.5856,0.0703,0.4143,0.9297);
    transform: rotate(0deg);
  }
  100% {
    transform: rotate(360deg);
  }
}</style><!-- [ldio] generated by https://loading.io/ --></svg>