<svg id="eossiwhblydl1" xmlns="http://www.w3.org/2000/svg" xmlns:xlink="http://www.w3.org/1999/xlink" viewBox="0 0 120.988080 120.685540" shape-rendering="geometricPrecision" text-rendering="geometricPrecision" width="120.988080" height="120.685540"><g id="eossiwhblydl2" transform="matrix(1 0 0 1 -43.07144927978516 -67.32389831542969)"><path id="eossiwhblydl3" d="M49.782956,126.494310L42.292877,127.573110L46.889537,133.584420L39.366487,132.766620L42.323783,139.732210L35.240461,137.069200L36.372576,144.551400L30.174054,140.210500L29.409852,147.739190L24.485607,141.993150L21.873106,149.095260L18.532545,142.305140L14.235899,148.534420L12.688922,141.126860L6.978104,146.091900L7.321914,138.532350L0.555756,141.921180L2.768749,134.684620L-4.627606,136.284310L-0.684480,129.825460L-8.246292,129.535490L-2.820794,124.260170L-10.072927,122.098770L-3.505961,118.338440L-9.992737,114.441420L-2.696929,112.432370L-8.010759,107.044580L-0.444533,106.913040L-4.251530,100.373020L3.109701,102.127260L1.048745,94.845943L7.742448,98.375733L7.557030,90.810635L13.162615,95.894187L14.864385,88.520649L19.029632,94.838544L22.511663,88.119872L24.974855,95.275134L30.018356,89.633487L30.624721,97.176524L36.912792,92.966388L35.624231,100.423240L42.761769,97.909156L39.659245,104.811290L47.197772,104.151220L42.476229,110.064940L49.942072,111.300370L43.898182,115.854100L50.822235,118.907390L43.835758,121.815000Z" transform="matrix(1.97989094257355 0 0 1.92498564720154 63.43703842163086 -102.30558776855469)" opacity="0" fill="rgb(255,255,50)" stroke="none" stroke-width="1.907710" stroke-linejoin="bevel"/><ellipse id="eossiwhblydl4" rx="59.950600" ry="20.757800" transform="matrix(1 0 0 1 103.02200000000001 167.25200000000001)" fill="rgb(198,198,156)" stroke="none" stroke-width="0.532404"/><path id="eossiwhblydl5" d="M143.840610,174.149420L98.854217,180.368740C98.821517,181.063930,98.714047,182.412780,99.462357,183.239490L143.955330,175.501300C146.641170,174.651170,146.476040,174.219130,143.840610,174.149420Z" fill="rgb(172,172,111)" stroke="none" stroke-width="0.258945"/><path id="eossiwhblydl6" d="M100.039120,179.992000C98.940697,179.867670,97.855947,179.643890,96.659127,180.235100C96.659127,180.235100,94.274397,181.827150,93.147637,181.889400C92.020877,181.951600,89.306997,181.561720,91.902177,182.111680C94.133977,182.744010,96.942637,183.809720,98.175617,182.961180L100.330020,181.737450" fill="rgb(172,172,111)" stroke="none" stroke-width="0.264583"/><ellipse id="eossiwhblydl7" rx="12.000700" ry="4.063240" transform="matrix(1 0 0 1 139.98500000000001 162.79800000000000)" fill="rgb(172,172,111)" stroke="rgb(242,242,242)" stroke-width="0" stroke-linecap="round" stroke-linejoin="round" stroke-miterlimit="10"/><g id="eossiwhblydl8" transform="matrix(0.28285989165306 0 0 0.28285989165306 -166.05409240722656 -481.59387207031250)"><path id="eossiwhblydl9" d="M1050.180100,2227.127800L1118.039400,2227.127800C1118.430500,2227.127800,1118.745100,2227.433100,1118.745100,2227.812000L1118.745100,2273.400700C1118.745100,2273.779900,1118.326200,2273.821700,1118.039400,2274.084900C1101.912400,2288.869000,1066.276300,2289.289300,1050.180100,2274.084900C1049.898300,2273.819000,1049.474400,2273.779500,1049.474400,2273.400700L1049.474400,2227.812000C1049.474400,2227.432700,1049.789100,2227.127800,1050.180100,2227.127800Z" fill="rgb(212,0,0)" stroke="rgb(0,0,0)" stroke-width="1.337990"/><path id="eossiwhblydl10" d="M1118.141800,2227.632800C1118.141680,2232.373349,1102.882768,2236.216305,1084.060000,2236.216300C1065.237271,2236.216291,1049.978420,2232.373339,1049.978300,2227.632800C1049.978252,2225.356295,1053.568969,2223.173025,1059.960531,2221.563287C1066.352093,2219.953548,1075.020934,2219.049204,1084.060000,2219.049200C1093.099083,2219.049197,1101.767950,2219.953539,1108.159533,2221.563278C1114.551117,2223.173016,1118.141848,2225.356290,1118.141800,2227.632800Z" fill="rgb(153,153,153)" stroke="rgb(0,0,0)" stroke-width="1.317380"/><path id="eossiwhblydl11" d="M1058.527100,2240.524600L1057.991600,2269.979500C1073.385500,2280.458400,1101.917100,2276.617500,1112.974000,2271.586100L1112.795700,2237.846900C1087.884100,2248.025600,1074.843100,2243.848200,1058.527300,2240.524600Z" opacity="0.9" fill="rgb(255,255,255)" stroke="none" stroke-width="1.129830"/><path id="eossiwhblydl12" d="M1058.928900,2258.855000C1080.623100,2271.921900,1101.153300,2265.735400,1121.668000,2259.293000L1121.668000,2259.293000" fill="none" stroke="none" stroke-width="1.129830"/><g id="eossiwhblydl13" transform="matrix(4.22105360031128 -0.64617675542831 0.64617675542831 4.22105360031128 203.04527282714844 1577.78564453125000)"><path id="eossiwhblydl14" d="M176.913130,186.710640Q177.049950,186.767640,177.171260,186.860440Q177.242660,186.918340,177.328200,187.002960Q177.415200,187.088260,177.488730,187.194150Q177.635890,187.416800,177.662120,187.676800Q177.684420,187.918680,177.594020,188.207240Q177.552220,188.338750,177.482030,188.465570Q177.414030,188.591630,177.289150,188.711940Q177.162130,188.833020,176.989050,188.937290Q176.816680,189.040100,176.667530,189.087300Q176.516200,189.135300,176.398990,189.127500Q176.282490,189.118500,176.170740,189.084200Q176.056800,189.050900,175.941860,188.997200Q175.829080,188.942800,175.709990,188.852840Q175.590890,188.762940,175.479260,188.635010Q175.369800,188.506370,175.313100,188.354440Q175.253500,188.201100,175.252600,188.034560ZM176.723030,187.153350Q176.592630,187.086850,176.416450,187.126450Q176.325150,187.147350,176.218880,187.195450Q176.114110,187.244150,176.023540,187.319670Q175.841640,187.468430,175.750400,187.702460Q175.659800,187.927760,175.685400,188.144130Q175.708800,188.361260,175.834970,188.537660Q175.968590,188.728510,176.144330,188.760930Q176.316480,188.797030,176.563430,188.670630Q176.673200,188.615230,176.779620,188.529380Q176.886050,188.443480,176.960700,188.322450Q177.035300,188.201380,177.072580,188.056850Q177.109780,187.912320,177.110180,187.787940Z" fill="rgb(153,153,153)" stroke="rgb(75,75,142)" stroke-width="0.083258"/><path id="eossiwhblydl15" d="M178.042740,188.070350Q178.104940,188.125350,178.073640,188.214330Q178.054140,188.267830,178.022240,188.342900Q177.992440,188.417000,177.957040,188.492560Q177.917940,188.568660,177.889240,188.644800Q177.862040,188.721400,177.829640,188.818630Q177.796740,188.917330,177.757740,189.034630Q177.720240,189.152400,177.690440,189.257320Q177.629840,189.470230,177.540900,189.562310Q177.438610,189.663650,177.344460,189.555310Q177.251360,189.454040,177.280560,189.191260Q177.294360,189.057040,177.344760,188.895550Q177.395560,188.732520,177.448520,188.578750Q177.499420,188.426010,177.546620,188.299490Q177.595920,188.171940,177.652480,188.099930Q177.708480,188.029430,177.764030,188.011930Q177.821630,187.993430,177.873050,187.998530Q177.973840,188.009830,178.042770,188.070430ZM177.948440,187.427080Q177.989540,187.391080,178.082130,187.422080Q178.133030,187.439080,178.203000,187.470880Q178.273500,187.501180,178.310500,187.544380Q178.366600,187.612780,178.323400,187.752640Q178.280800,187.885840,178.213930,187.911580Q178.170730,187.928080,178.113660,187.914580Q178.058660,187.899680,177.999480,187.876580Q177.939780,187.854980,177.885310,187.828280Q177.832810,187.800580,177.808710,187.765080Q177.767510,187.708580,177.827210,187.596400Q177.882710,187.481200,177.948510,187.427690Z" fill="rgb(153,153,153)" stroke="rgb(75,75,142)" stroke-width="0.083258"/><path id="eossiwhblydl16" d="M178.727640,187.602000Q178.765440,187.661200,178.728640,187.838330Q178.698140,187.974970,178.607000,188.241710Q178.564700,188.359960,178.515000,188.493050Q178.466800,188.626560,178.423700,188.766490Q178.325400,189.071740,178.291840,189.281690Q178.260840,189.445150,178.300840,189.533560Q178.320840,189.577760,178.347940,189.620560Q178.377040,189.662160,178.376040,189.709060Z" fill="rgb(153,153,153)" stroke="rgb(75,75,142)" stroke-width="0.083258"/><path id="eossiwhblydl17" d="M180.237220,187.750020Q180.343860,187.763020,180.478950,187.787920Q180.614050,187.812820,180.747040,187.865420Q180.879920,187.919520,180.992490,188.004760Q181.105060,188.089960,181.160170,188.201790Q181.215270,188.313610,181.209870,188.448560Q181.205870,188.583640,181.186270,188.715860Q181.166270,188.849700,181.134270,188.971200Q181.102370,189.091090,181.027070,189.179950Q180.950070,189.270350,180.830270,189.323180Q180.712210,189.374580,180.590370,189.389780Q180.468530,189.404980,180.360270,189.391780Q180.252000,189.378680,180.180780,189.371580Q180.107780,189.365580,180.075530,189.383180Q180.043230,189.400280,180.029430,189.474280Q180.015630,189.548280,180.009630,189.670110Q180.005630,189.792090,179.988130,189.888630Q179.954630,190.072000,179.854510,190.123100Q179.752420,190.178900,179.673400,190.102800Q179.612700,190.042700,179.601600,189.846190Q179.584800,189.637800,179.609600,189.284200Q179.620900,189.092620,179.641900,188.859380Q179.663000,188.624510,179.687700,188.429060Q179.736800,188.018560,179.781600,187.880080Q179.823900,187.752830,179.924650,187.736030Q180.008850,187.722830,180.236710,187.749930ZM180.234220,188.105350Q180.161620,188.116150,180.140120,188.205830Q180.126720,188.253730,180.117820,188.328070Q180.110820,188.400970,180.103620,188.493340Q180.094620,188.587240,180.085320,188.690910Q180.075320,188.794560,180.075020,188.869520Q180.071020,189.014320,180.106620,189.054570Q180.136420,189.091070,180.270160,189.091470Z" fill="rgb(153,153,153)" stroke="rgb(75,75,142)" stroke-width="0.083258"/><path id="eossiwhblydl18" d="M181.092360,188.742230Q181.091360,188.691830,181.103660,188.626410Q181.116460,188.561010,181.157260,188.509390Q181.227960,188.419490,181.429990,188.374760Q181.656310,188.324360,181.863350,188.339660Q182.067270,188.359860,182.156880,188.479370Q182.249980,188.606870,182.257260,188.863690Q182.260260,188.983980,182.246560,189.117780Q182.234060,189.251530,182.222960,189.375480Q182.208660,189.502770,182.198860,189.613680Q182.190860,189.724530,182.181860,189.817510Q182.161960,190.032810,182.138260,190.116450Q182.110060,190.213250,182.044960,190.210150ZM181.769390,189.497370Q181.716890,189.480970,181.645070,189.473270Q181.573270,189.465270,181.518420,189.481270Q181.418420,189.511770,181.389140,189.626470Q181.358240,189.741220,181.399540,189.821390Q181.432440,189.890390,181.538810,189.913390Q181.614110,189.930790,181.732650,189.922390Q181.828450,189.914390,181.851460,189.866990Q181.865160,189.834090,181.868560,189.781890Q181.873560,189.729690,181.877560,189.688890Q181.879560,189.649790,181.882560,189.625290Q181.886560,189.600790,181.879560,189.578190Q181.860160,189.526690,181.769880,189.496690Z" fill="rgb(153,153,153)" stroke="rgb(75,75,142)" stroke-width="0.083258"/><path id="eossiwhblydl19" d="M182.622230,188.513530Q182.701330,188.538930,182.708330,188.633000Q182.712330,188.689800,182.713330,188.771380ZM182.277670,187.962190Q182.300870,187.912690,182.398050,187.903790Q182.451450,187.898790,182.528340,187.899790Z" fill="rgb(153,153,153)" stroke="rgb(75,75,142)" stroke-width="0.083258"/><path id="eossiwhblydl20" d="M183.042070,188.397150Q183.081270,188.406150,183.102270,188.423850Q183.122970,188.440350,183.160770,188.429850Q183.195370,188.419450,183.256670,188.380150Q183.319570,188.340650,183.421560,188.298250Q183.522190,188.257750,183.654250,188.228750Q183.787670,188.197850,183.912950,188.209450Q184.170690,188.236350,184.303220,188.450940Q184.369620,188.559020,184.404860,188.709850Q184.440060,188.860690,184.469760,189.038750Q184.499460,189.216800,184.523160,189.399080Q184.548260,189.579500,184.538760,189.686350Q184.526060,189.793710,184.477860,189.822680Q184.429460,189.850080,184.368450,189.859680Q184.305850,189.869680,184.243240,189.869680Q184.180440,189.867680,184.142830,189.827880Q184.085630,189.767780,184.084530,189.509470Q184.083530,189.396110,184.083530,189.261100Q184.085530,189.125840,184.069630,188.994960Q184.054030,188.864090,184.011930,188.753830Q183.969630,188.641960,183.883020,188.583150Q183.795020,188.526250,183.673140,188.525650Z" fill="rgb(153,153,153)" stroke="rgb(75,75,142)" stroke-width="0.083258"/><path id="eossiwhblydl21" d="M184.456670,187.582320Q184.576060,187.572220,184.627530,187.660720Q184.655530,187.711120,184.663030,187.789420Q184.672030,187.865720,184.679330,187.944070Q184.684330,188.024670,184.694230,188.092380Q184.706030,188.159780,184.736330,188.191280Q184.765130,188.223180,184.814130,188.218880Q184.863130,188.214880,184.921350,188.206580Q184.977950,188.198580,185.036690,188.200580Z" fill="rgb(153,153,153)" stroke="rgb(75,75,142)" stroke-width="0.083258"/></g></g><path id="eossiwhblydl22" d="M79.767447,146.087280L125.531370,147.455360L133.216930,161.478120L71.732557,160.794090Z" fill="rgb(77,77,77)" stroke="rgb(0,0,0)" stroke-width="0.315414"/><ellipse id="eossiwhblydl23" rx="19.445800" ry="3.825400" transform="matrix(1 0 0 1 102.11499999999999 155.98599999999999)" opacity="0.3" fill="rgb(0,0,0)" stroke="none" stroke-width="0.928952"/><path id="eossiwhblydl24" d="M68.773830,171.095000L65.655526,175.347230L136.715050,175.914200L136.337070,173.646340" fill="rgb(172,172,111)" stroke="rgb(172,172,111)" stroke-width="0.264583"/><path id="eossiwhblydl25" d="M71.739927,160.791900L66.590817,171.737530L136.352610,172.173270L133.209310,161.550640" fill="rgb(128,128,128)" stroke="rgb(0,0,0)" stroke-width="0.332155"/><path id="eossiwhblydl26" d="M66.590817,171.737530L66.406447,173.619300L136.275440,174.015480L136.361040,172.113000L136.361040,172.113000" fill="rgb(179,179,179)" stroke="rgb(0,0,0)" stroke-width="0.315414"/><path id="eossiwhblydl27" d="M82.926547,161.783080L121.933280,162.200330L124.777550,170.920410L79.105607,170.576240Z" fill="rgb(204,204,204)" stroke="rgb(0,0,0)" stroke-width="0.353840"/><path id="eossiwhblydl28" d="M98.165917,163.110260L95.258227,163.085360" fill="rgb(0,128,128)" stroke="rgb(0,128,128)" stroke-width="0.608542" stroke-linecap="round" stroke-linejoin="round"/><path id="eossiwhblydl29" d="M97.249407,166.138700L97.845507,163.962130" fill="rgb(0,128,128)" stroke="rgb(0,128,128)" stroke-width="0.608542" stroke-linecap="round" stroke-linejoin="round"/><path id="eossiwhblydl30" d="M103.050710,166.633370L100.143020,166.608470" fill="rgb(0,128,128)" stroke="rgb(0,128,128)" stroke-width="0.608542" stroke-linecap="round" stroke-linejoin="round"/><path id="eossiwhblydl31" d="M92.467657,169.047610L93.345517,166.871040" fill="rgb(0,128,128)" stroke="rgb(0,128,128)" stroke-width="0.608542" stroke-linecap="round" stroke-linejoin="round"/><path id="eossiwhblydl32" d="M96.372757,169.485920L93.465067,169.461020" fill="rgb(0,128,128)" stroke="rgb(0,128,128)" stroke-width="0.608542" stroke-linecap="round" stroke-linejoin="round"/><path id="eossiwhblydl33" d="M103.699120,163.126770L100.791430,163.101870" fill="rgb(0,128,128)" stroke="rgb(0,128,128)" stroke-width="0.608542" stroke-linecap="round" stroke-linejoin="round"/><path id="eossiwhblydl34" d="M103.847670,166.155210L104.218350,163.696890" fill="rgb(0,128,128)" stroke="rgb(0,128,128)" stroke-width="0.608542" stroke-linecap="round" stroke-linejoin="round"/><path id="eossiwhblydl35" d="M96.452457,166.218400L93.544767,166.193500" fill="rgb(0,128,128)" stroke="rgb(0,128,128)" stroke-width="0.608542" stroke-linecap="round" stroke-linejoin="round"/><path id="eossiwhblydl36" d="M102.372130,169.542280L99.464437,169.517380" fill="rgb(0,128,128)" stroke="rgb(0,128,128)" stroke-width="0.608542" stroke-linecap="round" stroke-linejoin="round"/><path id="eossiwhblydl37" d="M105.992170,166.021620L105.872630,163.591000" fill="rgb(0,128,128)" stroke="rgb(0,128,128)" stroke-width="0.608542" stroke-linecap="round" stroke-linejoin="round"/><path id="eossiwhblydl38" d="M109.745170,166.046500L106.837480,166.021600" fill="rgb(0,128,128)" stroke="rgb(0,128,128)" stroke-width="0.608542" stroke-linecap="round" stroke-linejoin="round"/><path id="eossiwhblydl39" d="M103.340490,169.592790L103.711170,167.134460" fill="rgb(0,128,128)" stroke="rgb(0,128,128)" stroke-width="0.608542" stroke-linecap="round" stroke-linejoin="round"/><path id="eossiwhblydl40" d="M110.669520,165.965270L110.268200,163.534650" fill="rgb(0,128,128)" stroke="rgb(0,128,128)" stroke-width="0.608542" stroke-linecap="round" stroke-linejoin="round"/><path id="eossiwhblydl41" d="M111.176700,169.402840L110.775380,166.972220" fill="rgb(0,128,128)" stroke="rgb(0,128,128)" stroke-width="0.608542" stroke-linecap="round" stroke-linejoin="round"/><ellipse id="eossiwhblydl42" rx="0.338121" ry="0.253591" transform="matrix(1 0 0 1 112.83700000000000 169.44300000000001)" fill="rgb(0,0,0)" stroke="rgb(0,128,128)" stroke-width="0.608542"/><path id="eossiwhblydl43" d="M115.008740,166.134340L114.269300,163.647360" fill="rgb(0,128,128)" stroke="rgb(0,128,128)" stroke-width="0.608542" stroke-linecap="round" stroke-linejoin="round"/><path id="eossiwhblydl44" d="M118.818090,166.384610L115.910400,166.359710" fill="rgb(0,128,128)" stroke="rgb(0,128,128)" stroke-width="0.608542" stroke-linecap="round" stroke-linejoin="round"/><path id="eossiwhblydl45" d="M119.833160,166.247050L119.093720,163.760070" fill="rgb(0,128,128)" stroke="rgb(0,128,128)" stroke-width="0.608542" stroke-linecap="round" stroke-linejoin="round"/><path id="eossiwhblydl46" d="M120.903870,169.853670L120.164430,167.366690" fill="rgb(0,128,128)" stroke="rgb(0,128,128)" stroke-width="0.608542" stroke-linecap="round" stroke-linejoin="round"/><path id="eossiwhblydl47" d="M118.100820,163.276470L115.193130,163.251570" fill="rgb(0,128,128)" stroke="rgb(0,128,128)" stroke-width="0.608542" stroke-linecap="round" stroke-linejoin="round"/><g id="eossiwhblydl48" transform="matrix(0.10014657676220 -0.00068781082518 0.00068781082518 0.10014657676220 196.93370056152344 65.25164794921875)"><path id="eossiwhblydl49" d="M-812.700000,574.274000C-802.554000,509.335000,-786.098000,469.697000,-808.192000,383.345000C-835.950000,336.849000,-864.895000,339.888000,-895.270000,302.663000C-895.765000,280.132000,-896.354000,259.549000,-896.577000,235.478000C-896.766000,216.471000,-917.131000,214.920000,-938.643000,215.441000L-938.658000,215.081000C-939.994000,215.292000,-941.421000,215.444000,-942.885000,215.571000C-947.424000,215.724000,-951.967000,215.915000,-956.331000,216.014000C-960.704000,215.996000,-965.244000,215.883000,-969.790000,215.815000C-971.244000,215.706000,-972.676000,215.587000,-974.007000,215.395000L-974.009000,215.754000C-995.552000,215.624000,-1015.877000,217.540000,-1015.726000,236.545000C-1015.526000,260.614000,-1015.746000,281.191000,-1015.834000,303.745000C-1045.526000,341.510000,-1074.545000,338.990000,-1101.464000,385.953000C-1121.986000,472.705000,-1104.822000,512.016000,-1093.517000,576.777000C-1084.916000,663.223000,-1112.049000,664.210000,-1104.602000,824.276000C-1104.602000,894.867000,-1024.981000,910.875000,-953.854000,910.875000C-882.726000,910.875000,-797.193000,897.050000,-797.193000,821.531000C-792.610000,661.361000,-819.756000,660.850000,-812.700000,574.274000Z" fill="rgb(153,255,240)" stroke="none" stroke-width="1"/><path id="eossiwhblydl50" d="M-812.700000,574.274000C-802.554000,509.335000,-786.098000,469.697000,-808.192000,383.345000C-835.950000,336.849000,-864.895000,339.888000,-895.270000,302.663000C-895.765000,280.132000,-896.354000,259.549000,-896.577000,235.478000C-896.766000,216.471000,-917.131000,214.920000,-938.643000,215.441000L-938.658000,215.081000C-939.994000,215.292000,-941.421000,215.444000,-942.885000,215.571000C-947.424000,215.724000,-951.967000,215.915000,-956.331000,216.014000C-960.704000,215.996000,-965.244000,215.883000,-969.790000,215.815000C-971.244000,215.706000,-972.676000,215.587000,-974.007000,215.395000L-974.009000,215.754000C-995.552010,215.624000,-1015.877000,217.540000,-1015.726000,236.545000C-1015.526000,260.614000,-1015.746000,281.191000,-1015.834000,303.745000C-1045.526000,341.510000,-1074.545000,338.990000,-1101.464000,385.953000C-1121.986000,472.705000,-1104.822000,512.016000,-1093.517000,576.777000C-1084.916000,663.223000,-1112.049000,664.210000,-1104.602000,824.276000C-1104.602000,894.867000,-1024.981000,910.875000,-953.854000,910.875000C-882.726000,910.875000,-797.193000,897.050000,-797.193000,821.531000C-792.610000,661.361000,-819.756000,660.850000,-812.700000,574.274000Z" fill="none" stroke="rgb(35,31,32)" stroke-width="12.376200" stroke-linecap="round" stroke-linejoin="round" stroke-miterlimit="10"/><g id="eossiwhblydl51"><path id="eossiwhblydl52" d="M-837.348000,384.082000C-868.967000,343.481000,-915.585100,341.046610,-916.319100,298.802410C-936.692100,308.504410,-972.150790,308.925480,-991.025590,299.456990C-988.510450,339.972970,-1051.329000,357.602000,-1073.823000,394.270000C-1098.562000,443.020000,-1077.306000,547.052000,-1077.306000,547.052000L-1024.963000,659.762000L-916.657000,659.762000L-827.151180,545.631250C-814.948490,449.757370,-826.144000,398.471000,-837.348000,384.082000Z" fill="rgb(0,255,0)" stroke="none" stroke-width="1"/><path id="eossiwhblydl53" d="M-820.880000,756.104000C-822.256000,706.671000,-828.123000,682.875000,-831.660000,658.871000C-832.191000,655.212000,-832.686000,651.532000,-833.090000,647.769000C-833.090000,647.769000,-907.048000,613.587000,-975.491000,659.238000C-1008.706000,681.392000,-1066.924000,648.869000,-1066.924000,648.869000C-1067.307000,652.639000,-1067.736000,656.324000,-1068.237000,659.994000C-1071.524000,684.024000,-1077.134000,707.878000,-1077.989000,757.320000C-1077.989000,757.320000,-1036.664000,744.832000,-981.830000,767.859000C-902.222000,801.301000,-820.880000,756.104000,-820.880000,756.104000Z" fill="rgb(255,0,255)" stroke="none" stroke-width="1"/><path id="eossiwhblydl54" d="M-975.491000,659.238000C-907.048000,613.588000,-833.090000,647.769000,-833.090000,647.769000C-834.534000,634.365000,-837.220450,620.640980,-835.558450,600.663980C-833.584180,582.227450,-832.321380,564.269470,-827.151180,545.631250C-827.151180,545.631250,-907.426000,590.822000,-984.092000,546.603000C-1035.550000,516.923000,-1077.306000,547.051000,-1077.306000,547.051000C-1074.410000,564.111000,-1070.498000,581.118000,-1067.206000,600.875000C-1065.334000,620.843000,-1065.633000,635.467000,-1066.924000,648.868000Z" fill="rgb(255,255,0)" stroke="none" stroke-width="1"/><path id="eossiwhblydl55" d="M-820.789000,760.688000C-820.810000,759.167000,-820.857000,757.591000,-820.880000,756.105000C-820.880000,756.105000,-902.222000,801.301000,-981.830000,767.860000C-1036.664000,744.833000,-1077.989000,757.321000,-1077.989000,757.321000C-1078.011000,758.811000,-1078.017000,760.382000,-1078.037000,761.915000C-1078.190000,776.413000,-1077.964000,792.931000,-1077.161000,812.258000C-1077.161000,867.220000,-995.576000,879.590000,-948.309000,879.590000C-895.869000,879.590000,-821.130000,868.677000,-821.130000,811.055000C-820.962000,791.709000,-820.494000,775.188000,-820.789000,760.688000Z" fill="rgb(255,0,0)" stroke="none" stroke-width="1"/><path id="eossiwhblydl56" d="M-1076.356700,555.279020C-1086.718800,512.209290,-1088.596000,463.951060,-1083.828400,418.297140C-1028.392600,423.670380,-1019.603300,451.695150,-968.017370,454.369430C-928.634870,455.365640,-851.793340,411.400930,-823.095370,420.195690C-818.138100,458.915380,-818.850640,488.687320,-827.151180,545.631250C-857.294630,563.946130,-884.081900,568.656490,-914.225350,567.649130C-957.809400,567.526750,-976.338120,546.081030,-1023.707900,534.741070C-1044.382300,530.147140,-1057.023700,539.972640,-1076.356700,555.279020Z" fill="rgb(255,116,0)" stroke="none" stroke-width="2.505950"/></g><path id="eossiwhblydl57" d="M-879.092190,260.434000L-883.765190,192.719000C-883.239190,178.498000,-910.206190,164.428000,-952.919190,162.845000C-995.630190,161.262000,-1024.394200,171.949000,-1024.921200,186.172000L-1033.759200,254.703000C-1034.289200,268.943000,-1000.092200,281.760000,-957.382190,283.336000C-914.671190,284.926000,-879.621190,274.674000,-879.092190,260.434000Z" fill="rgb(153,255,240)" stroke="rgb(35,31,32)" stroke-width="12.375300" stroke-miterlimit="10"/><path id="eossiwhblydl58" d="M-879.332190,233.130000L-878.754190,164.121000C-878.637190,149.889000,-913.184190,138.051000,-955.925190,137.696000C-998.663230,137.336000,-1033.402200,148.592000,-1033.525200,162.820000L-1034.103200,231.830000C-1034.224200,246.080000,-999.675230,257.913000,-956.938190,258.264000C-914.195190,258.631000,-879.453190,247.377000,-879.332190,233.130000Z" fill="rgb(36,121,179)" stroke="rgb(35,31,32)" stroke-width="12.375300" stroke-miterlimit="10"/><ellipse id="eossiwhblydl59" rx="76.769700" ry="24.051800" transform="matrix(1 0 0 1 -956.91499999999996 159.65700000000001)" fill="rgb(63,154,216)" stroke="rgb(35,31,32)" stroke-width="10.314200"/><path id="eossiwhblydl60" d="M-913.017820,379.913090C-909.169790,366.824260,-907.622760,361.075240,-881.906390,364.623550C-829.637260,400.803790,-836.381620,427.564830,-837.177730,473.453290C-839.245880,491.630880,-879.799990,487.894080,-880.324080,477.719250C-874.560900,434.066780,-878.093380,402.566690,-913.017820,379.913090Z" fill="rgb(255,255,255)" stroke="none" stroke-width="4.893090"/></g><g id="eossiwhblydl61" transform="matrix(0.27114221453667 0 0 0.25971934199333 -66.21000671386719 100.28861999511719)" opacity="0"><path id="eossiwhblydl62" d="M589.287760,138.360570C601.545910,138.795020,582.863000,153.891250,589.024750,139.700150L589.185940,138.879150ZM590.186200,143.126190C595.464330,141.726030,586.548210,137.776050,590.186200,143.126190Z" fill="rgb(0,0,0)" stroke="none" stroke-width="1"/><path id="eossiwhblydl63" d="M595.589840,139.994680C600.254320,135.418730,601.561390,149.751990,597.469910,141.979320C596.176210,149.976070,592.573020,142.600490,595.589840,139.994680Z" fill="rgb(0,0,0)" stroke="none" stroke-width="1"/><path id="eossiwhblydl64" d="M602.927080,140.307180C606.339940,148.280860,596.329700,143.501140,602.927080,140.307180ZM601.755210,137.982970C606.916840,135.768930,600.228760,143.281830,601.755210,137.982970Z" fill="rgb(0,0,0)" stroke="none" stroke-width="1"/><path id="eossiwhblydl65" d="M609.990880,136.772030C614.214510,138.589020,617.952780,145.186910,609.858550,145.675570C608.193040,143.030580,609.105280,139.527270,609.990880,136.772030Z" fill="rgb(0,0,0)" stroke="none" stroke-width="1"/><path id="eossiwhblydl66" d="M616.989580,140.307180C620.402440,148.280860,610.392200,143.501140,616.989580,140.307180ZM615.817710,137.982970C620.979340,135.768930,614.291260,143.281830,615.817710,137.982970Z" fill="rgb(0,0,0)" stroke="none" stroke-width="1"/><path id="eossiwhblydl67" d="M619.404950,140.040260C637.604920,141.392870,612.174940,149.895460,619.404950,140.040260Z" fill="rgb(0,0,0)" stroke="none" stroke-width="1"/><path id="eossiwhblydl68" d="M626.429690,140.919160C634.205790,135.362100,625.526400,153.758590,629.020750,141.581400L628.308780,140.996760ZM629.053380,144.018120C623.520120,142.686940,631.824660,148.755780,629.053380,144.018120Z" fill="rgb(0,0,0)" stroke="none" stroke-width="1"/><path id="eossiwhblydl69" d="M632.204430,140.040260C632.696320,145.784380,644.294920,140.502980,634.372940,147.676150C630.937850,147.421230,630.691320,142.239040,632.204430,140.040260Z" fill="rgb(0,0,0)" stroke="none" stroke-width="1"/><path id="eossiwhblydl70" d="M639.424480,140.919160C647.200560,135.362090,638.521240,153.758600,642.015550,141.581390L641.303570,140.996770ZM642.048180,144.018120C636.514910,142.686960,644.819420,148.755750,642.048180,144.018120Z" fill="rgb(0,0,0)" stroke="none" stroke-width="1"/><path id="eossiwhblydl71" d="M645.518230,137.742080C651.573900,146.502560,640.883680,151.129340,645.518230,137.742080Z" fill="rgb(0,0,0)" stroke="none" stroke-width="1"/><path id="eossiwhblydl72" d="M651.468750,140.307180C654.881390,148.281260,644.871220,143.500620,651.468750,140.307180ZM650.296870,137.982970C655.458480,135.768910,648.770430,143.281850,650.296870,137.982970Z" fill="rgb(0,0,0)" stroke="none" stroke-width="1"/><path id="eossiwhblydl73" d="M591.169270,154.322880C597.767390,160.533480,585.775850,165.124290,591.169270,154.322880Z" fill="rgb(0,0,0)" stroke="none" stroke-width="1"/><path id="eossiwhblydl74" d="M598.174480,154.225220C606.933070,163.626260,587.277790,165.711380,595.060680,154.525900L596.476220,153.779630ZM596.071620,155.410120C593.054340,161.577740,602.427240,154.853400,596.071620,155.410120ZM596.078620,159.674440C591.433490,165.950820,604.735640,159.141000,596.078620,159.674440Z" fill="rgb(0,0,0)" stroke="none" stroke-width="1"/><path id="eossiwhblydl75" d="M605.101560,153.483040C608.085280,159.575310,596.041950,166.285140,605.101560,153.483040Z" fill="rgb(0,0,0)" stroke="none" stroke-width="1"/><path id="eossiwhblydl76" d="M607.783850,154.322880C614.381950,160.533470,602.390450,165.124290,607.783850,154.322880Z" fill="rgb(0,0,0)" stroke="none" stroke-width="1"/><path id="eossiwhblydl77" d="M617.191410,154.485640C608.529320,154.033850,620.296110,166.784430,611.664350,160.387660C607.665580,155.193440,611.899530,150.404320,617.191410,154.485640Z" fill="rgb(0,0,0)" stroke="none" stroke-width="1"/><path id="eossiwhblydl78" d="M621.638020,153.483040C624.621840,159.575620,612.578170,166.284820,621.638020,153.483040Z" fill="rgb(0,0,0)" stroke="none" stroke-width="1"/><path id="eossiwhblydl79" d="M622.835940,156.666630C630.108780,147.374900,628.977810,170.420470,623.741690,161.214740C627.568820,158.702820,628.921000,155.944660,622.835940,156.666630Z" fill="rgb(0,0,0)" stroke="none" stroke-width="1"/><path id="eossiwhblydl80" d="M634.697910,153.867150C646.345050,158.272040,624.295580,169.242960,630.883110,155.548990C631.585610,154.270050,633.196920,153.185340,634.697910,153.867150ZM633.942710,155.950480C624.689020,163.553460,645.877850,161.888470,633.942710,155.950480Z" fill="rgb(0,0,0)" stroke="none" stroke-width="1"/><path id="eossiwhblydl81" d="M640.205730,154.322880C646.803830,160.533550,634.812280,165.124200,640.205730,154.322880Z" fill="rgb(0,0,0)" stroke="none" stroke-width="1"/><path id="eossiwhblydl82" d="M644.020830,153.743450C652.825640,149.862080,643.603200,168.494100,646.225380,156.564160C643.792270,159.701310,639.705210,154.582110,644.020830,153.743450Z" fill="rgb(0,0,0)" stroke="none" stroke-width="1"/><path id="eossiwhblydl83" d="M598.923080,171.756430C601.233660,159.610160,616.816090,176.717610,604.627870,178.555390C614.005880,186.221700,590.476520,178.992890,604.644670,174.785200C609.023140,167.834770,598.743900,173.898300,598.923040,171.756430Z" fill="rgb(0,0,0)" stroke="none" stroke-width="1"/><path id="eossiwhblydl84" d="M612.128370,168.015100C621.327860,166.168330,619.872680,187.104010,611.402830,179.917040C622.720200,178.409920,605.357160,169.708270,612.128370,168.015100Z" fill="rgb(0,0,0)" stroke="none" stroke-width="1"/><path id="eossiwhblydl85" d="M630.286850,168.534460C623.782290,171.894780,620.438470,172.186400,628.579030,176.083850C631.140870,180.866900,619.880960,184.162380,625.676610,177.855340C613.367560,176.000590,621.624010,161.460320,630.286850,168.534460Z" fill="rgb(0,0,0)" stroke="none" stroke-width="1"/><path id="eossiwhblydl86" d="M638.250420,172.083440C647.168420,175.661580,635.590130,192.646870,632.473760,181.413230C627.428830,177.774540,632.650050,169.190490,638.250420,172.083440ZM637.250170,175.093820C628.165220,174.395050,642.174320,185.664040,637.372080,175.278880Z" fill="rgb(0,0,0)" stroke="none" stroke-width="1"/></g><path id="eossiwhblydl87" d="M147.166630,172.149960L100.199690,178.369280C100.165590,179.064470,100.053350,180.413320,100.834610,181.240040L147.286440,173.501850C150.090520,172.651720,149.918110,172.219700,147.166630,172.149960Z" fill="rgb(160,90,44)" stroke="rgb(0,0,0)" stroke-width="0.264583"/><path id="eossiwhblydl88" d="M100.033580,178.933660C98.935157,178.809340,97.850407,178.585580,96.653587,179.176790C96.653587,179.176790,94.268867,180.768810,93.142107,180.831070C92.015347,180.893370,89.301457,180.503380,91.896637,181.053350C94.128437,181.685670,96.937097,182.751420,98.170077,181.902840L100.324480,180.679150" fill="rgb(51,51,51)" stroke="rgb(0,0,0)" stroke-width="0.264583"/><g id="eossiwhblydl89" transform="matrix(0.26458331942558 0 0 0.26458331942558 -38.77014923095703 -171.89816284179688)" opacity="0"><ellipse id="eossiwhblydl90" rx="25.904300" ry="26.205500" transform="matrix(1 0 0 1 407.24000000000001 991.37900000000002)" fill="rgb(255,255,255)" stroke="none" stroke-width="2.200000"/><path id="eossiwhblydl91" d="M362.746350,1024.776600C361.188570,1023.883100,360.131500,1022.860300,359.294750,1021.436800L358.088610,1019.385000L357.966680,995.753580C357.887980,980.498540,358.002280,971.536910,358.289340,970.471020C358.952300,968.008980,360.445280,966.065480,362.784710,964.619120C364.867660,963.331340,364.907510,963.325380,372.979780,963.095620C380.083990,962.893410,381.193200,962.765710,381.971120,962.060480C382.474190,961.604400,383.629090,958.943650,384.637840,955.916660C385.939430,952.010930,386.713220,950.344460,387.519710,949.710060C388.583590,948.873220,389.245830,948.842820,406.411060,948.842820C423.576300,948.842820,424.238530,948.873220,425.302410,949.710060C426.108910,950.344460,426.882690,952.010930,428.184280,955.916660C429.192800,958.942960,430.348000,961.604510,430.850900,962.060480C431.627180,962.764330,432.719060,962.891940,439.580060,963.080680C446.920080,963.282600,447.559030,963.366950,449.563710,964.398610C451.989620,965.647050,453.943370,968.108560,454.535770,970.662860C455.041670,972.844170,455.051460,1016.698600,454.546570,1018.874000C453.977600,1021.325300,452.153910,1023.655700,449.803420,1024.935000L447.713540,1026.072500L406.352680,1026.072500L364.991830,1026.072500ZM411.459370,1016.107300C415.778760,1015.213100,419.925310,1012.863700,423.490490,1009.290400C428.209200,1004.561000,430.773030,998.621570,430.773030,992.419290C430.773030,986.368990,427.904340,979.574420,423.500080,975.193150C418.662980,970.381280,413.194700,968.117000,406.411060,968.117000C399.652640,968.117000,394.195270,970.368080,389.333340,975.161300C375.858210,988.445980,382.310250,1011.406200,400.802210,1015.974200C403.554190,1016.654100,408.518520,1016.716000,411.459370,1016.107300ZM402.312280,1006.253700C398.549920,1005.105100,394.808270,1001.792200,393.107690,998.103950C391.753160,995.166210,391.788610,989.135010,393.176990,986.320280C394.766450,983.097810,396.914230,980.932870,400.056250,979.386060C402.608800,978.129440,403.340250,977.967820,406.402030,977.983920C412.289510,978.014920,416.703700,980.719870,419.225270,985.841910C420.498250,988.427690,420.648970,989.123010,420.648970,992.410230C420.648970,995.563530,420.477050,996.436740,419.440750,998.547050C417.927940,1001.627700,414.682230,1004.599700,411.551450,1005.771100C409.116760,1006.682000,404.504480,1006.923000,402.312320,1006.253700ZM444.232030,978.763260C445.311590,977.790600,445.556460,976.173040,444.835260,974.778410C443.261250,971.734610,438.554120,972.824440,438.554120,976.232670C438.554120,979.311850,441.945520,980.823360,444.232030,978.763260Z" fill="rgb(128,128,128)" stroke="none" stroke-width="2.200000"/></g><path id="eossiwhblydl92" d="M104.277410,131.398140C103.886250,135.092600,96.678434,133.567650,98.343304,130.090500C99.469051,128.678980,100.772270,130.705270,99.207541,131.375440C100.055490,133.892480,104.996040,131.829140,102.353680,129.801480C103.208310,128.920720,104.748030,130.414400,104.277410,131.398140Z" opacity="0" fill="rgb(0,0,0)" stroke="none" stroke-width="0.307491"/><g id="eossiwhblydl93" transform="matrix(0 -1 1 0 0 0)" opacity="0"><path id="eossiwhblydl94" d="M-127.112570,98.491161C-124.334790,99.024058,-127.436260,106.339190,-127.378830,102.158340C-127.009260,101.144110,-128.266900,99.002968,-127.112570,98.491161Z" fill="rgb(0,0,0)" stroke="none" stroke-width="0.201278"/><path id="eossiwhblydl95" d="M-125.337190,99.906393C-124.875170,95.278868,-117.842700,99.942243,-122.551550,102.151040C-123.720150,102.998790,-120.112170,103.492960,-122.411990,104.298400C-125.230990,104.711380,-125.661960,101.858440,-122.910730,101.548400C-121.770920,99.256154,-123.952710,99.482960,-124.954350,100.583300L-125.232940,100.335730L-125.337250,99.906393Z" fill="rgb(0,0,0)" stroke="none" stroke-width="0.201278"/><path id="eossiwhblydl96" d="M-119.548070,98.377156C-117.225980,97.485481,-117.572540,101.242210,-116.538160,102.361560C-116.293760,104.670310,-121.584870,104.105010,-119.241770,102.952830C-117.047610,103.332330,-118.213100,100.437930,-119.780270,100.757280C-117.564130,99.170609,-120.120470,99.988578,-120.430240,99.035098L-120.061330,98.654979L-119.548090,98.377156Z" fill="rgb(0,0,0)" stroke="none" stroke-width="0.201278"/><path id="eossiwhblydl97" d="M-114.895060,98.243495C-115.409230,100.661090,-114.371200,101.998680,-112.870520,99.824533C-111.004860,101.690340,-113.544520,105.679320,-115.132170,102.318180C-116.418320,101.383650,-116.601350,98.621821,-114.895060,98.243495Z" fill="rgb(0,0,0)" stroke="none" stroke-width="0.201278"/><path id="eossiwhblydl98" d="M-107.112810,98.589441C-107.254950,100.182840,-112.102120,98.918760,-109.685970,100.729110C-105.551180,100.093850,-109.073750,106.367870,-109.642070,103.375250C-106.885120,101.317950,-113.372020,102.011630,-111.270630,99.129472C-110.490260,97.131796,-108.519250,97.619235,-107.112830,98.589441Z" fill="rgb(0,0,0)" stroke="none" stroke-width="0.201278"/></g><g id="eossiwhblydl99" transform="matrix(-0.85858094692230 0 0 1.10250544548035 102.26142120361328 -51.27298736572266)"><path id="eossiwhblydl100" d="M23.763216,204.335380C22.809057,205.268100,21.660594,205.715050,20.948367,207.252590C20.948367,207.252590,20.436575,209.402110,22.279023,209.504470L24.121470,209.606830L26.833962,208.941500L33.487244,209.709180L40.089344,210.476870C40.089344,210.476870,52.577043,210.732780,56.006040,206.075470C58.582204,202.328410,59.729376,203.020660,58.974427,198.910400C59.276476,197.893880,60.102237,197.000840,59.989136,195.915140C59.989136,195.915140,60.597077,194.888450,58.652273,194.581380C55.470690,194.318170,52.597384,192.157010,54.999486,193.724280C56.591852,195.102580,56.180176,195.106310,59.010524,195.451420C59.359047,196.087380,58.634247,197.357580,57.950844,198.603320L42.648299,206.280190L36.557987,206.126650L35.022613,204.181840L32.310123,204.642460C33.847598,205.776550,32.880633,206.766330,32.105404,207.764380L27.396930,207.713180L23.609678,208.378510L22.176663,208.429710L21.869588,207.457320L24.582080,204.540110" fill="rgb(172,172,111)" stroke="none" stroke-width="0.242301"/><path id="eossiwhblydl101" d="M51.813649,187.628450C53.193591,187.891790,54.103173,188.064690,54.702705,188.178190C56.065423,188.339100,55.751035,189.246950,55.648326,189.334010C55.502041,190.454700,54.848957,193.592080,57.251117,193.636120C65.363593,191.593690,61.031581,196.778560,58.008648,199.037050L57.507403,198.730370C58.748976,197.841620,59.923033,196.904650,60.692748,195.678860C62.260931,193.118400,59.890489,193.755900,57.631508,194.238700C56.857210,194.404190,55.663855,194.224900,55.375861,194.071140C54.137582,192.258510,55.691308,189.145770,54.295485,188.806980L51.966988,188.241810L51.966988,188.241810" fill="rgb(255,255,255)" stroke="rgb(0,0,0)" stroke-width="0.290391"/><path id="eossiwhblydl102" d="M31.978081,195.624010C35.764624,194.248780,37.996940,194.134980,41.288470,192.004820C42.316302,191.051760,43.401766,190.869830,44.664474,190.645240C50.391791,189.622770,50.846808,188.563290,51.782981,187.689780C52.646536,189.282180,52.302350,190.519690,54.823011,191.961940C56.939988,193.305310,56.248878,194.996320,56.340482,196.082800C56.884640,197.983510,57.435319,198.126000,57.977977,199.098390C53.619776,202.456300,56.576540,206.110760,35.467441,208.789580C32.888566,206.191460,37.846296,203.419600,32.688239,199.868450C31.440049,197.783010,31.909417,197.709450,31.978081,195.624010Z" fill="rgb(180,232,248)" stroke="rgb(0,0,0)" stroke-width="0.290391"/><path id="eossiwhblydl103" d="M31.860855,196.594490C29.757947,198.291180,28.081512,199.065880,26.189339,199.434320C24.876768,199.689900,22.139574,203.563930,23.520567,207.269550C24.267200,208.372620,25.025657,207.672200,26.023046,207.510730C28.388834,207.139340,31.727082,207.701520,35.038083,208.237550L35.528777,208.850910C32.385050,208.618850,29.241327,207.752430,26.097600,208.265980C24.328374,208.661200,24.240905,209.025930,23.002936,207.701990C21.052967,203.288910,24.379378,198.870460,25.645515,198.814730C28.055536,198.708640,30.074185,197.446440,31.860855,195.735780L31.860855,195.735780Z" fill="rgb(255,255,255)" stroke="rgb(0,0,0)" stroke-width="0.290391"/><path id="eossiwhblydl104" d="M35.536603,198.687710C36.896315,198.559160,39.532700,198.513630,42.329759,196.891120C44.127470,195.848310,46.456915,194.887380,48.641630,194.213070C50.160836,193.744180,50.835939,193.120620,51.187877,192.690050" fill="none" stroke="rgb(107,210,241)" stroke-width="0.364731" stroke-linecap="round" stroke-linejoin="round"/><path id="eossiwhblydl105" d="M37.348848,201.406080C43.698324,200.773930,46.308037,198.781360,48.444259,198.079790C49.963465,197.610890,52.552487,195.504050,52.904425,195.073480" fill="none" stroke="rgb(107,210,241)" stroke-width="0.364731" stroke-linecap="round" stroke-linejoin="round"/><path id="eossiwhblydl106" d="M38.449351,204.133410C44.799118,203.501370,50.509562,201.421550,51.602225,200.328640C53.408517,198.998490,53.605142,198.039990,53.957081,197.609420" fill="none" stroke="rgb(107,210,241)" stroke-width="0.364731" stroke-linecap="round" stroke-linejoin="round"/><path id="eossiwhblydl107" d="M35.607810,208.850910C33.713835,207.616100,34.719154,204.849030,34.068748,202.547460C32.995381,201.416750,31.612893,201.154350,31.266900,199.164030C31.395884,198.180650,30.741067,197.337750,31.597399,195.957640L29.779614,196.491120" fill="rgb(216,243,251)" stroke="rgb(0,0,0)" stroke-width="0.264583"/><path id="eossiwhblydl108" d="M58.014413,199.102720C58.023313,199.146520,56.120242,196.805090,56.279953,193.716740C56.358283,192.202120,54.117452,191.904220,53.046369,190.360750C52.309454,189.298820,52.201475,187.600100,51.820276,187.812430C51.499972,187.990850,50.814460,188.679670,50.835029,188.750080C51.678409,191.637300,54.659062,192.582440,55.250261,194.292300C55.136948,196.690140,55.586223,197.333380,57.235702,199.642650" fill="rgb(216,243,251)" stroke="rgb(0,0,0)" stroke-width="0.264583"/></g></g><script><![CDATA[!function(t,n){"object"==typeof exports&&"undefined"!=typeof module?module.exports=n():"function"==typeof define&&define.amd?define(n):(t=t||self).__SVGATOR_PLAYER__=n()}(this,(function(){"use strict";function t(n){return(t="function"==typeof Symbol&&"symbol"==typeof Symbol.iterator?function(t){return typeof t}:function(t){return t&&"function"==typeof Symbol&&t.constructor===Symbol&&t!==Symbol.prototype?"symbol":typeof t})(n)}function n(t,n){if(!(t instanceof n))throw new TypeError("Cannot call a class as a function")}function r(t,n){for(var r=0;r<n.length;r++){var e=n[r];e.enumerable=e.enumerable||!1,e.configurable=!0,"value"in e&&(e.writable=!0),Object.defineProperty(t,e.key,e)}}function e(t,n,e){return n&&r(t.prototype,n),e&&r(t,e),t}var i=1e-5,u=Math.abs;function o(t){return t}function a(t,n,r){var e=1-r;return 3*r*e*(t*e+n*r)+r*r*r}function l(){var t=arguments.length>0&&void 0!==arguments[0]?arguments[0]:0,n=arguments.length>1&&void 0!==arguments[1]?arguments[1]:0,r=arguments.length>2&&void 0!==arguments[2]?arguments[2]:1,e=arguments.length>3&&void 0!==arguments[3]?arguments[3]:1;return t<0||t>1||r<0||r>1?null:u(t-n)<=i&&u(r-e)<=i?o:function(o){if(o<=0)return t>0?o*n/t:0===n&&r>0?o*e/r:0;if(o>=1)return r<1?1+(o-1)*(e-1)/(r-1):1===r&&t<1?1+(o-1)*(n-1)/(t-1):1;for(var l,f=0,s=1;f<s;){var c=a(t,r,l=(f+s)/2);if(u(o-c)<i)break;c<o?f=l:s=l}return a(n,e,l)}}function f(){return 1}function s(t){return 1===t?1:0}function c(){var t=arguments.length>0&&void 0!==arguments[0]?arguments[0]:1,n=arguments.length>1&&void 0!==arguments[1]?arguments[1]:0;if(1===t){if(0===n)return s;if(1===n)return f}var r=1/t;return function(t){return t>=1?1:(t+=n*r)-t%r}}function v(t){var n=arguments.length>1&&void 0!==arguments[1]?arguments[1]:2;if(Number.isInteger(t))return t;var r=Math.pow(10,n);return Math.round(t*r)/r}var h=Math.PI/180;function y(t,n,r){return t>=.5?r:n}function d(t,n,r){return 0===t||n===r?n:t*(r-n)+n}function g(t,n,r){var e=d(t,n,r);return e<=0?0:e}function m(t,n,r){return 0===t?n:1===t?r:{x:d(t,n.x,r.x),y:d(t,n.y,r.y)}}function p(t,n,r){return 0===t?n:1===t?r:{x:g(t,n.x,r.x),y:g(t,n.y,r.y)}}function b(t,n,r){var e=function(t,n,r){return Math.round(d(t,n,r))}(t,n,r);return e<=0?0:e>=255?255:e}function w(t,n,r){return 0===t?n:1===t?r:{r:b(t,n.r,r.r),g:b(t,n.g,r.g),b:b(t,n.b,r.b),a:d(t,null==n.a?1:n.a,null==r.a?1:r.a)}}function A(t,n,r){if(0===t)return n;if(1===t)return r;var e=n.length;if(e!==r.length)return y(t,n,r);for(var i=[],u=0;u<e;u++)i.push(w(t,n[u],r[u]));return i}function x(t,n,r){var e=n.length;if(e!==r.length)return y(t,n,r);for(var i=new Array(e),u=0;u<e;u++)i[u]=d(t,n[u],r[u]);return i}function k(t,n){for(var r=[],e=0;e<t;e++)r.push(n);return r}function S(t,n){if(--n<=0)return t;var r=(t=Object.assign([],t)).length;do{for(var e=0;e<r;e++)t.push(t[e])}while(--n>0);return t}var _=6,M=/\.0+$/g;function I(t){return Number.isInteger(t)?t+"":t.toFixed(_).replace(M,"")}function E(t){var n=arguments.length>1&&void 0!==arguments[1]?arguments[1]:" ";return t&&t.length?t.map(I).join(n):""}function F(t){return I(t.x)+","+I(t.y)}function B(t){return t?null==t.a||t.a>=1?"rgb("+t.r+","+t.g+","+t.b+")":"rgba("+t.r+","+t.g+","+t.b+","+t.a+")":"transparent"}var j={f:null,i:p,u:function(t,n){return function(r){var e=n(r);t.setAttribute("rx",I(e.x)),t.setAttribute("ry",I(e.y))}}},q={f:null,i:function(t,n,r){return 0===t?n:1===t?r:{width:g(t,n.width,r.width),height:g(t,n.height,r.height)}},u:function(t,n){return function(r){var e=n(r);t.setAttribute("width",I(e.width)),t.setAttribute("height",I(e.height))}}},P=Math.sin,O=Math.cos,z=Math.acos,L=Math.asin,C=Math.tan,R=Math.atan2,T=Math.PI/180,V=180/Math.PI,D=Math.sqrt,N=function(){function t(){var r=arguments.length>0&&void 0!==arguments[0]?arguments[0]:1,e=arguments.length>1&&void 0!==arguments[1]?arguments[1]:0,i=arguments.length>2&&void 0!==arguments[2]?arguments[2]:0,u=arguments.length>3&&void 0!==arguments[3]?arguments[3]:1,o=arguments.length>4&&void 0!==arguments[4]?arguments[4]:0,a=arguments.length>5&&void 0!==arguments[5]?arguments[5]:0;n(this,t),this.m=[r,e,i,u,o,a],this.i=null,this.w=null,this.s=null}return e(t,[{key:"point",value:function(t,n){var r=this.m;return{x:r[0]*t+r[2]*n+r[4],y:r[1]*t+r[3]*n+r[5]}}},{key:"translateSelf",value:function(){var t=arguments.length>0&&void 0!==arguments[0]?arguments[0]:0,n=arguments.length>1&&void 0!==arguments[1]?arguments[1]:0;if(!t&&!n)return this;var r=this.m;return r[4]+=r[0]*t+r[2]*n,r[5]+=r[1]*t+r[3]*n,this.w=this.s=this.i=null,this}},{key:"rotateSelf",value:function(){var t=arguments.length>0&&void 0!==arguments[0]?arguments[0]:0;if(t%=360){var n=P(t*=T),r=O(t),e=this.m,i=e[0],u=e[1];e[0]=i*r+e[2]*n,e[1]=u*r+e[3]*n,e[2]=e[2]*r-i*n,e[3]=e[3]*r-u*n,this.w=this.s=this.i=null}return this}},{key:"scaleSelf",value:function(){var t=arguments.length>0&&void 0!==arguments[0]?arguments[0]:1,n=arguments.length>1&&void 0!==arguments[1]?arguments[1]:1;if(1!==t||1!==n){var r=this.m;r[0]*=t,r[1]*=t,r[2]*=n,r[3]*=n,this.w=this.s=this.i=null}return this}},{key:"skewSelf",value:function(t,n){if(n%=360,(t%=360)||n){var r=this.m,e=r[0],i=r[1],u=r[2],o=r[3];t&&(t=C(t*T),r[2]+=e*t,r[3]+=i*t),n&&(n=C(n*T),r[0]+=u*n,r[1]+=o*n),this.w=this.s=this.i=null}return this}},{key:"resetSelf",value:function(){var t=arguments.length>0&&void 0!==arguments[0]?arguments[0]:1,n=arguments.length>1&&void 0!==arguments[1]?arguments[1]:0,r=arguments.length>2&&void 0!==arguments[2]?arguments[2]:0,e=arguments.length>3&&void 0!==arguments[3]?arguments[3]:1,i=arguments.length>4&&void 0!==arguments[4]?arguments[4]:0,u=arguments.length>5&&void 0!==arguments[5]?arguments[5]:0,o=this.m;return o[0]=t,o[1]=n,o[2]=r,o[3]=e,o[4]=i,o[5]=u,this.w=this.s=this.i=null,this}},{key:"recomposeSelf",value:function(){var t=arguments.length>0&&void 0!==arguments[0]?arguments[0]:null,n=arguments.length>1&&void 0!==arguments[1]?arguments[1]:null,r=arguments.length>2&&void 0!==arguments[2]?arguments[2]:null,e=arguments.length>3&&void 0!==arguments[3]?arguments[3]:null,i=arguments.length>4&&void 0!==arguments[4]?arguments[4]:null;return this.isIdentity||this.resetSelf(),t&&(t.x||t.y)&&this.translateSelf(t.x,t.y),n&&this.rotateSelf(n),r&&(r.x&&this.skewSelf(r.x,0),r.y&&this.skewSelf(0,r.y)),!e||1===e.x&&1===e.y||this.scaleSelf(e.x,e.y),i&&(i.x||i.y)&&this.translateSelf(i.x,i.y),this}},{key:"decompose",value:function(){var t=arguments.length>0&&void 0!==arguments[0]?arguments[0]:0,n=arguments.length>1&&void 0!==arguments[1]?arguments[1]:0,r=this.m,e=r[0]*r[0]+r[1]*r[1],i=[[r[0],r[1]],[r[2],r[3]]],u=D(e);if(0===u)return{origin:{x:r[4],y:r[5]},translate:{x:t,y:n},scale:{x:0,y:0},skew:{x:0,y:0},rotate:0};i[0][0]/=u,i[0][1]/=u;var o=r[0]*r[3]-r[1]*r[2]<0;o&&(u=-u);var a=i[0][0]*i[1][0]+i[0][1]*i[1][1];i[1][0]-=i[0][0]*a,i[1][1]-=i[0][1]*a;var l=D(i[1][0]*i[1][0]+i[1][1]*i[1][1]);if(0===l)return{origin:{x:r[4],y:r[5]},translate:{x:t,y:n},scale:{x:u,y:0},skew:{x:0,y:0},rotate:0};i[1][0]/=l,i[1][1]/=l,a/=l;var f=0;return i[1][1]<0?(f=z(i[1][1])*V,i[0][1]<0&&(f=360-f)):f=L(i[0][1])*V,o&&(f=-f),a=R(a,D(i[0][0]*i[0][0]+i[0][1]*i[0][1]))*V,{origin:{x:r[4],y:r[5]},translate:{x:t,y:n},scale:{x:u,y:l},skew:{x:a,y:0},rotate:f}}},{key:"toString",value:function(){return null===this.s&&(this.s="matrix("+this.m.map($).join(" ")+")"),this.s}},{key:"determinant",get:function(){var t=this.m;return t[0]*t[3]-t[1]*t[2]}},{key:"isIdentity",get:function(){if(null===this.i){var t=this.m;this.i=1===t[0]&&0===t[1]&&0===t[2]&&1===t[3]&&0===t[4]&&0===t[5]}return this.i}}]),t}(),G=/\.0+$/;function $(t){return Number.isInteger(t)?t:t.toFixed(14).replace(G,"")}Object.freeze({M:2,L:2,Z:0,H:1,V:1,C:6,Q:4,T:2,S:4,A:7});function H(t,n,r){return t+(n-t)*r}function Q(t,n,r){var e=arguments.length>3&&void 0!==arguments[3]&&arguments[3],i={x:H(t.x,n.x,r),y:H(t.y,n.y,r)};return e&&(i.a=function(t,n){return Math.atan2(n.y-t.y,n.x-t.x)}(t,n)),i}function U(t,n,r,e){var i=1-e;return i*i*t+2*i*e*n+e*e*r}function Y(t,n,r,e){return 2*(1-e)*(n-t)+2*e*(r-n)}function Z(t,n,r,e){var i=arguments.length>4&&void 0!==arguments[4]&&arguments[4],u={x:U(t.x,n.x,r.x,e),y:U(t.y,n.y,r.y,e)};return i&&(u.a=function(t,n,r,e){return Math.atan2(Y(t.y,n.y,r.y,e),Y(t.x,n.x,r.x,e))}(t,n,r,e)),u}function J(t,n,r,e,i){var u=i*i;return i*u*(e-t+3*(n-r))+3*u*(t+r-2*n)+3*i*(n-t)+t}function K(t,n,r,e,i){var u=1-i;return 3*(u*u*(n-t)+2*u*i*(r-n)+i*i*(e-r))}function W(t,n,r,e,i){var u=arguments.length>5&&void 0!==arguments[5]&&arguments[5],o={x:J(t.x,n.x,r.x,e.x,i),y:J(t.y,n.y,r.y,e.y,i)};return u&&(o.a=function(t,n,r,e,i){return Math.atan2(K(t.y,n.y,r.y,e.y,i),K(t.x,n.x,r.x,e.x,i))}(t,n,r,e,i)),o}function X(t,n,r){var e,i=arguments.length>3&&void 0!==arguments[3]&&arguments[3];if(nt(n)){if(null!=(e=r).start&&!nt(e))return Z(n,r.start,r,t,i)}else if(nt(r)){if(n.end)return Z(n,n.end,r,t,i)}else{if(n.end)return r.start?W(n,n.end,r.start,r,t,i):Z(n,n.end,r,t,i);if(r.start)return Z(n,r.start,r,t,i)}return Q(n,r,t,i)}function tt(t,n,r){var e=X(t,n,r,!0);return e.a=function(t){return arguments.length>1&&void 0!==arguments[1]&&arguments[1]?t+Math.PI:t}(e.a)/h,e}function nt(t){return!t.type||"corner"===t.type}var rt=new N;var et={f:function(t){return t?t.join(" "):""},i:function(n,r,e){if(0===n)return r;if(1===n)return e;var i=r.length;if(i!==e.length)return y(n,r,e);for(var u,o=new Array(i),a=0;a<i;a++){if((u=t(r[a]))!==t(e[a]))return y(n,r,e);if("number"===u)o[a]=d(n,r[a],e[a]);else{if(r[a]!==e[a])return y(n,r,e);o[a]=r[a]}}return o}},it={f:null,i:x,u:function(t,n){return function(r){var e=n(r);t.setAttribute("x1",I(e[0])),t.setAttribute("y1",I(e[1])),t.setAttribute("x2",I(e[2])),t.setAttribute("y2",I(e[3]))}}},ut={f:I,i:d},ot={f:I,i:function(t,n,r){var e=d(t,n,r);return e<=0?0:e>=1?1:e}},at={f:E,i:function(t,n,r){var e,i,u,o=n.length,a=r.length;if(o!==a)if(0===o)n=k(o=a,0);else if(0===a)a=o,r=k(o,0);else{var l=(u=(e=o)*(i=a)/function(t,n){for(var r;n;)r=n,n=t%n,t=r;return t||1}(e,i))<0?-u:u;n=S(n,Math.floor(l/o)),r=S(r,Math.floor(l/a)),o=a=l}for(var f=[],s=0;s<o;s++)f.push(v(g(t,n[s],r[s]),6));return f}};function lt(t,n,r,e,i,u,o,a){return n=function(t,n,r){for(var e,i,u,o=t.length-1,a={},l=0;l<=o;l++)(e=t[l]).e&&(e.e=n(e.e)),e.v&&"g"===(i=e.v).t&&i.r&&(u=r.getElementById(i.r))&&(a[i.r]=u.querySelectorAll("stop"));return a}(t,e,a),function(e){var i,u=r(e,t,ft);return u?"c"===u.t?B(u.v):"g"===u.t?(n[u.r]&&function(t,n){for(var r=0,e=t.length;r<e;r++)t[r].setAttribute("stop-color",B(n[r]))}(n[u.r],u.v),(i=u.r)?"url(#"+i+")":"none"):"none":"none"}}function ft(t,n,r){if(0===t)return n;if(1===t)return r;if(n&&r){var e=n.t;if(e===r.t)switch(n.t){case"c":return{t:e,v:w(t,n.v,r.v)};case"g":if(n.r===r.r)return{t:e,v:A(t,n.v,r.v),r:n.r}}}return y(t,n,r)}var st={blur:p,brightness:g,contrast:g,"drop-shadow":function(t,n,r){return 0===t?n:1===t?r:{blur:p(t,n.blur,r.blur),offset:m(t,n.offset,r.offset),color:w(t,n.color,r.color)}},grayscale:g,"hue-rotate":d,invert:g,opacity:g,saturate:g,sepia:g};function ct(t,n,r){if(0===t)return n;if(1===t)return r;var e=n.length;if(e!==r.length)return y(t,n,r);for(var i,u=[],o=0;o<e;o++){if(n[o].type!==r[o].type)return n;if(!(i=st[n[o].type]))return y(t,n,r);u.push({type:n.type,value:i(t,n[o].value,r[o].value)})}return u}var vt={blur:function(t){return t?function(n){t.setAttribute("stdDeviation",F(n))}:null},brightness:function(t,n,r){return(t=yt(r,n))?function(n){n=I(n),t.map((function(t){return t.setAttribute("slope",n)}))}:null},contrast:function(t,n,r){return(t=yt(r,n))?function(n){var r=I((1-n)/2);n=I(n),t.map((function(t){t.setAttribute("slope",n),t.setAttribute("intercept",r)}))}:null},"drop-shadow":function(t,n,r){var e=r.getElementById(n+"-blur");if(!e)return null;var i=r.getElementById(n+"-offset");if(!i)return null;var u=r.getElementById(n+"-flood");return u?function(t){e.setAttribute("stdDeviation",F(t.blur)),i.setAttribute("dx",I(t.offset.x)),i.setAttribute("dy",I(t.offset.y)),u.setAttribute("flood-color",B(t.color))}:null},grayscale:function(t){return t?function(n){t.setAttribute("values",E(function(t){return[.2126+.7874*(t=1-t),.7152-.7152*t,.0722-.0722*t,0,0,.2126-.2126*t,.7152+.2848*t,.0722-.0722*t,0,0,.2126-.2126*t,.7152-.7152*t,.0722+.9278*t,0,0,0,0,0,1,0]}(n)))}:null},"hue-rotate":function(t){return t?function(n){return t.setAttribute("values",I(n))}:null},invert:function(t,n,r){return(t=yt(r,n))?function(n){n=I(n)+" "+I(1-n),t.map((function(t){return t.setAttribute("tableValues",n)}))}:null},opacity:function(t,n,r){return(t=r.getElementById(n+"-A"))?function(n){return t.setAttribute("tableValues","0 "+I(n))}:null},saturate:function(t){return t?function(n){return t.setAttribute("values",I(n))}:null},sepia:function(t){return t?function(n){return t.setAttribute("values",E(function(t){return[.393+.607*(t=1-t),.769-.769*t,.189-.189*t,0,0,.349-.349*t,.686+.314*t,.168-.168*t,0,0,.272-.272*t,.534-.534*t,.131+.869*t,0,0,0,0,0,1,0]}(n)))}:null}};var ht=["R","G","B"];function yt(t,n){var r=ht.map((function(r){return t.getElementById(n+"-"+r)||null}));return-1!==r.indexOf(null)?null:r}var dt={fill:lt,"fill-opacity":ot,stroke:lt,"stroke-opacity":ot,"stroke-width":ut,"stroke-dashoffset":{f:I,i:d},"stroke-dasharray":at,opacity:ot,transform:function(n,r,e,i){if(!(n=function(n,r){if(!n||"object"!==t(n))return null;var e=!1;for(var i in n)n.hasOwnProperty(i)&&(n[i]&&n[i].length?(n[i].forEach((function(t){t.e&&(t.e=r(t.e))})),e=!0):delete n[i]);return e?n:null}(n,i)))return null;var u=function(t,i,u){var o=arguments.length>3&&void 0!==arguments[3]?arguments[3]:null;return n[t]?e(i,n[t],u):r&&r[t]?r[t]:o};return r&&r.a&&n.o?function(t){var r=e(t,n.o,tt);return rt.recomposeSelf(r,u("r",t,d,0)+r.a,u("k",t,m),u("s",t,m),u("t",t,m)).toString()}:function(t){return rt.recomposeSelf(u("o",t,X,null),u("r",t,d,0),u("k",t,m),u("s",t,m),u("t",t,m)).toString()}},"#filter":function(t,n,r,e,i,u,o,a){if(!n.items||!t||!t.length)return null;var l=function(t,n){var r=(t=t.map((function(t){return t&&vt[t[0]]?(n.getElementById(t[1]),vt[t[0]](n.getElementById(t[1]),t[1],n)):null}))).length;return function(n){for(var e=0;e<r;e++)t[e]&&t[e](n[e].value)}}(n.items,a);return l?(t=function(t,n){return t.map((function(t){return t.e=n(t.e),t}))}(t,e),function(n){l(r(n,t,ct))}):null},"#line":it,points:{f:E,i:x},d:et,r:ut,"#size":q,"#radius":j,_:function(t,n){if(Array.isArray(t))for(var r=0;r<t.length;r++)this[t[r]]=n;else this[t]=n}},gt=function(){function t(r){n(this,t),this.list=r,this.length=r.length}return e(t,[{key:"setAttribute",value:function(t,n){for(var r=this.list,e=0;e<this.length;e++)r[e].setAttribute(t,n)}},{key:"removeAttribute",value:function(t){for(var n=this.list,r=0;r<this.length;r++)n[r].removeAttribute(t)}},{key:"style",value:function(t,n){for(var r=this.list,e=0;e<this.length;e++)r[e].style[t]=n}}]),t}(),mt=/-./g,pt=function(t,n){return n.toUpperCase()};function bt(t){return"function"==typeof t?t:y}function wt(t){return t?"function"==typeof t?t:Array.isArray(t)?function(t){var n=arguments.length>1&&void 0!==arguments[1]?arguments[1]:o;if(!Array.isArray(t))return n;switch(t.length){case 1:return c(t[0])||n;case 2:return c(t[0],t[1])||n;case 4:return l(t[0],t[1],t[2],t[3])||n}return n}(t,null):function(t,n){var r=arguments.length>2&&void 0!==arguments[2]?arguments[2]:o;switch(t){case"linear":return o;case"steps":return c(n.steps||1,n.jump||0)||r;case"bezier":case"cubic-bezier":return l(n.x1||0,n.y1||0,n.x2||0,n.y2||0)||r}return r}(t.type,t.value,null):null}function At(t,n,r){var e=arguments.length>3&&void 0!==arguments[3]&&arguments[3],i=n.length-1;if(t<=n[0].t)return e?[0,0,n[0].v]:n[0].v;if(t>=n[i].t)return e?[i,1,n[i].v]:n[i].v;var u,o=n[0],a=null;for(u=1;u<=i;u++){if(!(t>n[u].t)){a=n[u];break}o=n[u]}return null==a?e?[i,1,n[i].v]:n[i].v:o.t===a.t?e?[u,1,a.v]:a.v:(t=(t-o.t)/(a.t-o.t),o.e&&(t=o.e(t)),e?[u,t,r(t,o.v,a.v)]:r(t,o.v,a.v))}function xt(t,n){var r=arguments.length>2&&void 0!==arguments[2]?arguments[2]:null;return t&&t.length?"function"!=typeof n?null:("function"!=typeof r&&(r=null),function(e){var i=At(e,t,n);return null!=i&&r&&(i=r(i)),i}):null}function kt(t,n){return t.t-n.t}function St(n,r,e,i,u){var o,a="@"===e[0],l="#"===e[0],f=dt[e],s=y;switch(a?(o=e.substr(1),e=o.replace(mt,pt)):l&&(e=e.substr(1)),t(f)){case"function":if(s=f(i,u,At,wt,e,a,r,n),l)return s;break;case"string":s=xt(i,bt(f));break;case"object":if((s=xt(i,bt(f.i),f.f))&&"function"==typeof f.u)return f.u(r,s,e,a,n)}return s?function(t,n,r){if(arguments.length>3&&void 0!==arguments[3]&&arguments[3])return t instanceof gt?function(e){return t.style(n,r(e))}:function(e){return t.style[n]=r(e)};if(Array.isArray(n)){var e=n.length;return function(i){var u=r(i);if(null==u)for(var o=0;o<e;o++)t[o].removeAttribute(n);else for(var a=0;a<e;a++)t[a].setAttribute(n,u)}}return function(e){var i=r(e);null==i?t.removeAttribute(n):t.setAttribute(n,i)}}(r,e,s,a):null}function _t(n,r,e,i){if(!i||"object"!==t(i))return null;var u=null,o=null;return Array.isArray(i)?o=function(t){if(!t||!t.length)return null;for(var n=0;n<t.length;n++)t[n].e&&(t[n].e=wt(t[n].e));return t.sort(kt)}(i):(o=i.keys,u=i.data||null),o?St(n,r,e,o,u):null}function Mt(t,n,r){if(!r)return null;var e=[];for(var i in r)if(r.hasOwnProperty(i)){var u=_t(t,n,i,r[i]);u&&e.push(u)}return e.length?e:null}function It(t,n){if(!n.duration||n.duration<0)return null;var r=function(t,n){if(!n)return null;var r=[];if(Array.isArray(n))for(var e=n.length,i=0;i<e;i++){var u=n[i];if(2===u.length){var o=null;if("string"==typeof u[0])o=t.getElementById(u[0]);else if(Array.isArray(u[0])){o=[];for(var a=0;a<u[0].length;a++)if("string"==typeof u[0][a]){var l=t.getElementById(u[0][a]);l&&o.push(l)}o=o.length?1===o.length?o[0]:new gt(o):null}if(o){var f=Mt(t,o,u[1]);f&&(r=r.concat(f))}}}else for(var s in n)if(n.hasOwnProperty(s)){var c=t.getElementById(s);if(c){var v=Mt(t,c,n[s]);v&&(r=r.concat(v))}}return r.length?r:null}(t,n.elements);return r?function(t,n){var r=arguments.length>2&&void 0!==arguments[2]?arguments[2]:1/0,e=arguments.length>3&&void 0!==arguments[3]?arguments[3]:1,i=arguments.length>4&&void 0!==arguments[4]&&arguments[4],u=arguments.length>5&&void 0!==arguments[5]?arguments[5]:1,o=t.length,a=e>0?n:0;i&&r%2==0&&(a=n-a);var l=null;return function(f,s){var c=f%n,v=1+(f-c)/n;s*=e,i&&v%2==0&&(s=-s);var h=!1;if(v>r)c=a,h=!0,-1===u&&(c=e>0?0:n);else if(s<0&&(c=n-c),c===l)return!1;l=c;for(var y=0;y<o;y++)t[y](c);return h}}(r,n.duration,n.iterations||1/0,n.direction||1,!!n.alternate,n.fill||1):null}var Et=function(){function t(r){var e=arguments.length>1&&void 0!==arguments[1]?arguments[1]:{};n(this,t),this._id=0,this._running=!1,this._animations=r,this.direction=e.direction||1,this.speed=e.speed||1,this.fps=e.fps||100,this.offset=e.offset||0}return e(t,[{key:"_start",value:function(){var t=this,n=arguments.length>0&&void 0!==arguments[0]?arguments[0]:0,r=-1/0,e=null,i={},u=function u(o){t._running=!0,null==e&&(e=o);var a=Math.round((o-e+n)*t.speed),l=t.fps?1e3/t.fps:0;if(a>r+l){t.offset=a,r=a;for(var f=t._animations,s=f.length,c=0,v=0;v<s;v++)i[v]?c++:(i[v]=f[v](a,t.direction),i[v]&&c++);if(c===s)return void t._stop()}t._id=window.requestAnimationFrame(u)};this._id=window.requestAnimationFrame(u)}},{key:"_stop",value:function(){this._id&&window.cancelAnimationFrame(this._id),this._running=!1}},{key:"play",value:function(){this._running||this._start(this.offset)}},{key:"stop",value:function(){this._stop(),this.offset=0;var t=this.direction,n=this._animations;requestAnimationFrame((function(){for(var r=0;r<n.length;r++)n[r](0,t)}))}},{key:"restart",value:function(){this._stop(),this.offset=0,this._start()}},{key:"pause",value:function(){this._stop()}},{key:"reverse",value:function(){this.direction=-this.direction}}],[{key:"build",value:function(n){if(!(n=function(t){if(!t||!t.root||!Array.isArray(t.animations))return null;var n=window.document.getElementById(t.root);if(!n)return null;var r=t.animations.map((function(t){return It(n,t)})).filter((function(t){return!!t}));return r.length?{element:n,animations:r,options:t.options||void 0}:null}(n)))return null;var r=n.element,e=n.options||{},i=new t(n.animations,n.options);return function(t,n,r){var e=arguments.length>3&&void 0!==arguments[3]?arguments[3]:null;if("click"===r){return void n.addEventListener("click",(function r(){n.removeEventListener("click",r),t.play()}))}if("hover"===r)return n.addEventListener("mouseenter",(function(){return t.play()})),void n.addEventListener("mouseleave","freeze"===e?function(){return t.pause()}:function(){return t.stop()});t.play()}(i,r,e.start,e.hover),i}}]),t}();return function(){for(var t=0,n=["ms","moz","webkit","o"],r=0;r<n.length&&!window.requestAnimationFrame;++r)window.requestAnimationFrame=window[n[r]+"RequestAnimationFrame"],window.cancelAnimationFrame=window[n[r]+"CancelAnimationFrame"]||window[n[r]+"CancelRequestAnimationFrame"];window.requestAnimationFrame||(window.requestAnimationFrame=function(n){var r=Date.now(),e=Math.max(0,16-(r-t)),i=window.setTimeout((function(){n(r+e)}),e);return t=r+e,i},window.cancelAnimationFrame=window.clearTimeout)}(),Et}));
__SVGATOR_PLAYER__.build({"root":"eossiwhblydl1","animations":[{"duration":6000,"direction":1,"iterations":0,"fill":1,"alternate":false,"elements":{"eossiwhblydl3":{"opacity":[{"t":2000,"v":0},{"t":2200,"v":1},{"t":2500,"v":0}]},"eossiwhblydl61":{"opacity":[{"t":0,"v":0},{"t":500,"v":1}]},"eossiwhblydl89":{"opacity":[{"t":1500,"v":0},{"t":1900,"v":1},{"t":2200,"v":1},{"t":2500,"v":0}]},"eossiwhblydl92":{"opacity":[{"t":500,"v":0},{"t":900,"v":0.78},{"t":1000,"v":0.75}]},"eossiwhblydl93":{"opacity":[{"t":1000,"v":0},{"t":1500,"v":1}]}}}],"options":{"start":"load","hover":"freeze"}})]]></script></svg>