<?xml version="1.0" encoding="UTF-8"?>
<!-- Created with Inkscape (http://www.inkscape.org/) -->
<svg width="1549.4mm" height="1102.4mm" version="1.1" viewBox="0 0 1549.4 1102.4" xmlns="http://www.w3.org/2000/svg">
 <defs>
  <linearGradient id="linearGradient2" x1="44.876" x2="44.876" y1="-906.13" y2="-1319.3" gradientTransform="matrix(1 0 0 1.631 -1.5957 1554.3)" gradientUnits="userSpaceOnUse">
   <stop offset="0"/>
   <stop stop-opacity="0" offset="1"/>
  </linearGradient>
 </defs>
 <g transform="translate(699.56 617)">
  <rect x="-699.56" y="-617" width="1549.4" height="1102.4" fill="url(#linearGradient2)" stroke-width="3.5951"/>
  <g fill="#fdf4c8">
   <g fill-opacity=".31594" stroke-width=".04098">
    <path d="m827.07-42.411c9.7251 6.4967-10.045 5.8178 0 0z"/>
    <path d="m802.2 121.37c9.7251 6.4967-10.045 5.8178 0 0z"/>
    <path d="m-663.32 148.88c9.7251 6.4975-10.046 5.8181 0 0z"/>
    <path d="m-615.96 104.7c9.7251 6.4968-10.045 5.8179 0 0z"/>
    <path d="m-518.86 4.6846c9.7251 6.4968-10.045 5.8179 0 0z"/>
    <path d="m-180.46 101.79c9.7251 6.4967-10.045 5.818 0 0z"/>
    <path d="m-343.97 46.224c9.7251 6.4967-10.045 5.818 0 0z"/>
    <path d="m-158.23-23.097c9.7251 6.4967-10.045 5.8178 0 0z"/>
    <path d="m629.96 57.337c9.7251 6.4967-10.045 5.818 0 0z"/>
    <path d="m668.85 148.88c9.7251 6.4975-10.046 5.8181 0 0z"/>
    <path d="m52.904 426.43c9.7251 6.4975-10.046 5.8181 0 0z"/>
    <path d="m659.06 307.9c9.7251 6.4975-10.046 5.8181 0 0z"/>
    <path d="m699.55 253.13c9.7251 6.4975-10.046 5.8181 0 0z"/>
    <path d="m793.74 235.67c9.7251 6.4975-10.046 5.8181 0 0z"/>
   </g>
   <g fill-opacity=".77615" stroke-width=".04098">
    <path d="m831.31 436.22c9.7252 6.4976-10.046 5.8179 0 0z" opacity=".79465"/>
    <path d="m810.41 382.25c9.7252 6.4976-10.046 5.8179 0 0z" opacity=".79465"/>
    <path d="m713.3 444.69c9.7252 6.4976-10.046 5.8179 0 0z" opacity=".79465"/>
    <path d="m584.19 468.23c9.7252 6.4976-10.046 5.8179 0 0z" opacity=".79465"/>
   </g>
   <path d="m752.22 314.66c14.33 9.5736-14.802 8.574 0 0z" fill-opacity=".90009" opacity=".7" stroke-width=".060383"/>
   <g fill-opacity=".31594" stroke-width=".04098">
    <path d="m129.9 156.56c9.7251 6.4975-10.046 5.8181 0 0z"/>
    <path d="m202.66 101.79c9.7251 6.4966-10.046 5.8179 0 0z"/>
    <path d="m369.08 115.02c9.7251 6.4968-10.046 5.8176 0 0z"/>
    <path d="m404.54 232.23c9.7251 6.4975-10.046 5.8181 0 0z"/>
   </g>
   <path d="m598.21 371.13c9.7252 6.4976-10.046 5.8179 0 0z" fill-opacity=".77615" opacity=".79465" stroke-width=".04098"/>
   <path d="m590.54 338.32c9.7252 6.4976-10.046 5.8179 0 0z" fill-opacity=".77615" opacity=".79465" stroke-width=".04098"/>
   <path d="m577.17 229.26c7.8256 5.2283-8.0834 4.6816 0 0z" fill-opacity=".90009" stroke-width=".032974"/>
   <path d="m730.63 368.16c7.8256 5.2283-8.0834 4.6816 0 0z" fill-opacity=".90009" stroke-width=".032974"/>
   <g fill-opacity=".31594" stroke-width=".04098">
    <path d="m478.88 440.98c9.7251 6.4975-10.046 5.8181 0 0z"/>
    <path d="m169.32 409.76c9.7251 6.4975-10.046 5.8181 0 0z"/>
    <path d="m39.675 289.91c9.7251 6.4975-10.046 5.8181 0 0z"/>
    <path d="m218 244.66c9.7251 6.4975-10.046 5.8181 0 0z"/>
    <path d="m12.423 160.79c9.7251 6.4975-10.046 5.8181 0 0z"/>
    <path d="m-11.654 152.59c9.7251 6.4975-10.046 5.8181 0 0z"/>
    <path d="m-195.54 158.14c9.7251 6.4975-10.046 5.8181 0 0z"/>
    <path d="m-98.438 229.58c9.7251 6.4975-10.046 5.8181 0 0z"/>
    <path d="m-189.98 368.22c9.7251 6.4975-10.046 5.8181 0 0z"/>
    <path d="m-225.44 451.57c9.7251 6.4975-10.046 5.8181 0 0z"/>
    <path d="m-656.18 263.45c9.7251 6.4975-10.046 5.8181 0 0z"/>
    <path d="m-213 262.12c9.7251 6.4975-10.046 5.8181 0 0z"/>
    <path d="m-334.45 203.12c9.7251 6.4975-10.046 5.8181 0 0z"/>
    <path d="m-555.11 230.9c9.7251 6.4975-10.046 5.8181 0 0z"/>
   </g>
   <path d="m-80.354 329.15c9.7251 6.4974-10.045 5.8181 0 0z" fill-opacity=".77615" stroke-width=".04098"/>
  </g>
  <path d="m-250.4 333.81c9.7251 6.4975-10.046 5.8181 0 0z" fill="#fcf1b9" fill-opacity=".77615" stroke-width=".04098"/>
  <g fill="#fdf4c8">
   <path d="m-310.76 443.1c12.55 8.3844-12.963 7.5079 0 0z" fill-opacity=".60811" stroke-width=".05288"/>
   <g stroke-width=".04098">
    <path d="m-303.98 309.66c9.7251 6.4975-10.046 5.8181 0 0z" fill-opacity=".31594"/>
    <path d="m-444.98 430.89c9.7251 6.4977-10.046 5.8179 0 0z" fill-opacity=".37206"/>
    <path d="m-525.1 301.36c9.7252 6.4976-10.046 5.8179 0 0z" fill-opacity=".77615"/>
    <path d="m-533.66 391.61c9.7251 6.4974-10.046 5.8181 0 0z" fill-opacity=".77615"/>
    <path d="m-593.68 340.77c9.7251 6.4977-10.046 5.8178 0 0z" fill-opacity=".37339"/>
    <path d="m-643.58 359.47c9.7252 6.4976-10.046 5.8179 0 0z" fill-opacity=".77615"/>
   </g>
  </g>
  <path d="m-610.48 441.19c-22.454 15.009 23.194 13.427 0 0z" fill="#fbc02d" opacity=".25922" stroke-width=".094615"/>
  <g fill="#fdf4c8">
   <path d="m314.84 340.72c14.206 9.4907-14.674 8.4989 0 0z" fill-opacity=".74157" opacity=".79465" stroke-width=".059859"/>
   <path d="m409.25 384.3c7.8256 5.2283-8.0834 4.6816 0 0z" fill-opacity=".90009" stroke-width=".032974"/>
   <path d="m472.59 325.33c10.311 6.8888-10.651 6.169 0 0z" fill-opacity=".54929" stroke-width=".043449"/>
   <path d="m-0.15969 472.08c10.311 6.8889-10.651 6.169 0 0z" fill-opacity=".36501" stroke-width=".043449"/>
   <g fill-opacity=".31594" stroke-width=".03216">
    <path d="m-611.7-189.03c-7.6323 5.0982 7.8835 4.5664 0 0z"/>
    <path d="m-592.18-60.504c-7.6323 5.0983 7.8835 4.5663 0 0z"/>
    <path d="m557.95-38.909c-7.6323 5.099 7.8836 4.5662 0 0z"/>
    <path d="m520.78-73.585c-7.6323 5.0983 7.8836 4.5661 0 0z"/>
    <path d="m444.58-152.07c-7.6323 5.0983 7.8836 4.5661 0 0z"/>
    <path d="m179-75.869c-7.6323 5.0982 7.8835 4.5662 0 0z"/>
    <path d="m-198.74-229.42c-7.6323 5.0982 7.8835 4.5662 0 0z"/>
    <path d="m-303.25-268.31c-7.6323 5.0982 7.8835 4.5662 0 0z"/>
    <path d="m-522.06-224.39c-7.6323 5.0982 7.8835 4.5662 0 0z"/>
    <path d="m550.03-397.17c-7.6323 5.0982 7.8835 4.5662 0 0z"/>
    <path d="m545.27-275.46c-7.6323 5.0982 7.8835 4.5662 0 0z"/>
    <path d="m710.63-355.63c-7.6323 5.0982 7.8835 4.5662 0 0z"/>
    <path d="m-30.994-460.4c-7.6323 5.0982 7.8835 4.5662 0 0z"/>
    <path d="m-388.45-328.9c-7.6323 5.0982 7.8835 4.5662 0 0z"/>
    <path d="m-538.99-506.44c-7.6323 5.0982 7.8835 4.5662 0 0z"/>
    <path d="m-383.42-586.61c-7.6323 5.0982 7.8835 4.5662 0 0z"/>
    <path d="m635.23-494.27c-7.6323 5.0982 7.8835 4.5662 0 0z"/>
    <path d="m294.97-467.55c-7.6323 5.0982 7.8835 4.5662 0 0z"/>
    <path d="m418.8-557.5c-7.6323 5.0982 7.8835 4.5662 0 0z"/>
    <path d="m307.32-119.47c-7.6323 5.0982 7.8835 4.5662 0 0z"/>
    <path d="m630.46-136.82c-7.6323 5.0982 7.8835 4.5662 0 0z"/>
    <path d="m759.32 18.759c-7.6323 5.0982 7.8835 4.5662 0 0z"/>
    <path d="m761.7-248.74c-7.6323 5.0982 7.8835 4.5662 0 0z"/>
    <path d="m161.56-173.88c-7.6323 5.0982 7.8835 4.5663 0 0z"/>
    <path d="m-457.01-110.75c-7.6323 5.0982 7.8835 4.5662 0 0z"/>
    <path d="m-487.53-38.909c-7.6323 5.099 7.8836 4.5662 0 0z"/>
    <path d="m-479.85 85.884c-7.6323 5.0991 7.8836 4.5661 0 0z"/>
    <path d="m-511.62 42.902c-7.6323 5.0991 7.8836 4.5661 0 0z"/>
    <path d="m-585.54 29.197c-7.6323 5.0991 7.8836 4.566 0 0z"/>
    <path d="m-64.563-32.888c-7.6323 5.0991 7.8836 4.5658 0 0z"/>
    <path d="m-121.66-75.869c-7.6323 5.0982 7.8835 4.5664 0 0z"/>
    <path d="m-252.27-65.487c-7.6323 5.0986 7.8836 4.5659 0 0z"/>
    <path d="m-280.1 26.498c-7.6323 5.0991 7.8836 4.5661 0 0z"/>
   </g>
   <path d="m-415.58 24.168c-6.1413 4.1032 6.3437 3.674 0 0z" fill-opacity=".90009" stroke-width=".025878"/>
   <g fill-opacity=".31594" stroke-width=".03216">
    <path d="m6.2432 71.764c-7.6323 5.0991 7.8836 4.5661 0 0z"/>
    <path d="m-133.71 36.257c-7.6323 5.0991 7.8836 4.5661 0 0z"/>
    <path d="m27.63-29.565c-7.6323 5.099 7.8836 4.5663 0 0z"/>
    <path d="m46.526-36.002c-7.6323 5.0991 7.8836 4.5659 0 0z"/>
    <path d="m190.84-31.642c-7.6323 5.099 7.8836 4.5662 0 0z"/>
    <path d="m114.63 24.422c-7.6323 5.0991 7.8836 4.5661 0 0z"/>
    <path d="m552.34 51c-7.6323 5.0991 7.8836 4.566 0 0z"/>
    <path d="m204.54 49.962c-7.6323 5.0991 7.8836 4.5661 0 0z"/>
    <path d="m299.85 3.6574c-7.6323 5.0991 7.8836 4.5661 0 0z"/>
    <path d="m473.02 25.46c-7.6323 5.0991 7.8836 4.5661 0 0z"/>
    <path d="m275.94 87.267c-7.6323 5.0991 7.8836 4.5661 0 0z"/>
   </g>
   <g fill-opacity=".77615" stroke-width=".03216">
    <path d="m449.47 80.752c-7.6323 5.0992 7.8836 4.566 0 0z"/>
    <path d="m-45.546-365.42c-7.6323 5.099 7.8836 4.566 0 0z"/>
    <path d="m-388.45-314.35c-7.6323 5.099 7.8836 4.5663 0 0z"/>
    <path d="m-249.8-205.08c-7.6323 5.099 7.8836 4.5663 0 0z"/>
    <path d="m482.03-414.1c-7.6323 5.099 7.8836 4.566 0 0z"/>
    <path d="m786.04 6.588c-7.6323 5.0992 7.8836 4.566 0 0z"/>
   </g>
   <path d="m-68.274 78.571c-11.246 7.5133 11.616 6.7284 0 0z" fill-opacity=".90009" opacity=".7" stroke-width=".047388"/>
   <path d="m200.74 361.36c10.311 6.8889-10.651 6.169 0 0z" fill-opacity=".90009" opacity=".79465" stroke-width=".043449"/>
   <g stroke-width=".04098">
    <path d="m-120.49 405.1c9.7252 6.4974-10.046 5.8181 0 0z" fill-opacity=".77615"/>
    <path d="m-394.24 392.67c9.7251 6.4974-10.045 5.8181 0 0z" fill-opacity=".77615"/>
    <path d="m-512.96 471.07c9.7251 6.4976-10.046 5.8179 0 0z" fill-opacity=".3688"/>
    <path d="m308.82 421.35c9.7251 6.4975-10.046 5.8181 0 0z" fill-opacity=".42033"/>
    <path d="m262.03 422.86c9.7252 6.4976-10.046 5.8179 0 0z" fill-opacity=".77615" opacity=".79465"/>
    <path d="m-48.897 392.67c9.7251 6.4975-10.045 5.8184 0 0z" fill-opacity=".43733"/>
   </g>
   <path d="m708.25-80.989c-7.6323 5.0991 7.8836 4.5661 0 0z" fill-opacity=".90125" stroke-width=".03216"/>
   <path d="m129.62 228.25c14.33 9.5736-14.802 8.574 0 0z" fill-opacity=".90009" opacity=".7" stroke-width=".060383"/>
   <path d="m-364.11 110.37c9.7251 6.4975-10.046 5.8181 0 0z" fill-opacity=".90125" stroke-width=".04098"/>
  </g>
 </g>
</svg>
