<?xml version="1.0" encoding="UTF-8" standalone="no"?>
<!-- Created with Inkscape (http://www.inkscape.org/) -->

<svg
   xmlns:dc="http://purl.org/dc/elements/1.1/"
   xmlns:cc="http://creativecommons.org/ns#"
   xmlns:rdf="http://www.w3.org/1999/02/22-rdf-syntax-ns#"
   xmlns:svg="http://www.w3.org/2000/svg"
   xmlns="http://www.w3.org/2000/svg"
   xmlns:sodipodi="http://sodipodi.sourceforge.net/DTD/sodipodi-0.dtd"
   xmlns:inkscape="http://www.inkscape.org/namespaces/inkscape"
   width="144.15053mm"
   height="13.84661mm"
   viewBox="0 0 144.15053 13.84661"
   version="1.1"
   id="svg20104"
   inkscape:version="0.92.4 (f8dce91, 2019-08-02)"
   sodipodi:docname="step 1.svg">
  <defs
     id="defs20098" />
  <sodipodi:namedview
     id="base"
     pagecolor="#ffffff"
     bordercolor="#666666"
     borderopacity="1.0"
     inkscape:pageopacity="0.0"
     inkscape:pageshadow="2"
     inkscape:zoom="1.979899"
     inkscape:cx="305.48298"
     inkscape:cy="81.435525"
     inkscape:document-units="mm"
     inkscape:current-layer="layer1"
     showgrid="false"
     showguides="true"
     inkscape:guide-bbox="true"
     inkscape:window-width="1920"
     inkscape:window-height="1009"
     inkscape:window-x="0"
     inkscape:window-y="34"
     inkscape:window-maximized="1"
     fit-margin-top="0"
     fit-margin-left="0"
     fit-margin-right="0"
     fit-margin-bottom="0">
    <sodipodi:guide
       position="41.878365,60.713528"
       orientation="0,1"
       id="guide20121"
       inkscape:locked="false" />
  </sodipodi:namedview>
  <metadata
     id="metadata20101">
    <rdf:RDF>
      <cc:Work
         rdf:about="">
        <dc:format>image/svg+xml</dc:format>
        <dc:type
           rdf:resource="http://purl.org/dc/dcmitype/StillImage" />
        <dc:title></dc:title>
      </cc:Work>
    </rdf:RDF>
  </metadata>
  <g
     inkscape:label="Layer 1"
     inkscape:groupmode="layer"
     id="layer1"
     transform="translate(-25.206283,-121.09776)">
    <path
       style="fill:#ff7f2a;stroke-width:0.26458335"
       d="m 27.962173,134.59151 c 0,-0.14552 -0.305484,-0.26459 -0.678852,-0.26459 -1.142956,0 -1.702404,-0.45955 -1.702335,-1.39837 7.7e-5,-1.05271 0.948149,-6.94064 1.177272,-7.31137 0.09203,-0.14891 0.75775,-0.34907 1.479373,-0.4448 1.62334,-0.21534 1.837868,-0.94963 0.414667,-1.41933 -1.146243,-0.37829 -3.240509,-1.76034 -3.43482,-2.26671 -0.128745,-0.3355 0.778475,-0.38858 6.64136,-0.38858 h 6.790474 l -0.868666,0.89623 c -0.770878,0.79535 -1.83348,1.39688 -3.270035,1.85116 -0.254662,0.0805 -0.463021,0.37279 -0.463021,0.64948 0,0.40136 0.245347,0.53071 1.213634,0.63985 0.6675,0.0752 1.317854,0.24102 1.445233,0.36839 0.249062,0.24907 1.309745,6.36941 1.309831,7.55797 5.8e-5,0.7996 -0.627169,1.26608 -1.702346,1.26608 -0.373368,0 -0.678852,0.11907 -0.678852,0.26459 0,0.16422 -1.455208,0.26458 -3.836458,0.26458 -2.38125,0 -3.836459,-0.10036 -3.836459,-0.26458 z m 5.147294,-1.96228 c 1.174026,-0.49054 1.820067,-1.51827 1.820067,-2.89538 0,-2.91023 -3.360954,-4.3457 -5.400213,-2.30645 -1.500133,1.50014 -1.20413,3.94081 0.612248,5.04826 1.023037,0.62375 1.752283,0.66149 2.967898,0.15357 z m -1.844249,-2.60178 c -0.06596,-0.18191 0.03205,-0.91507 0.217808,-1.62926 l 0.337739,-1.29852 0.320516,1.38855 c 0.176284,0.76371 0.253574,1.49687 0.171756,1.62925 -0.218063,0.35284 -0.908746,0.29349 -1.047819,-0.09 z"
       id="path20117"
       inkscape:connector-curvature="0"
       sodipodi:nodetypes="sssccssscscscssssssssssscccsscc" />
    <path
       style="fill:#b3b3b3;fill-opacity:1;stroke-width:0.26458335"
       d="m 42.085437,130.79652 1.819377,-1.83343 -1.653644,-1.80459 -1.653643,-1.8046 19.274044,-0.13229 19.274047,-0.13229 2.202852,1.98437 2.202852,1.98438 -1.938268,1.78058 -1.938269,1.78058 -19.704363,0.005 -19.704363,0.005 z"
       id="path20123"
       inkscape:connector-curvature="0"
       sodipodi:nodetypes="ccccccccccccc" />
    <path
       sodipodi:nodetypes="ccccccccccccc"
       inkscape:connector-curvature="0"
       id="path20125"
       d="m 112.77822,130.80652 1.81938,-1.83343 -1.65364,-1.80459 -1.65365,-1.8046 19.27405,-0.13229 19.27405,-0.13229 2.20285,1.98437 2.20285,1.98438 -1.93827,1.78058 -1.93827,1.78058 -19.70436,0.005 -19.70436,0.005 z"
       style="fill:#b3b3b3;fill-opacity:1;stroke-width:0.26458335" />
    <path
       style="fill:#b3b3b3;fill-opacity:1;stroke-width:0.26458335"
       d="m 89.527271,134.49945 c -0.567124,-0.39723 -0.588039,-0.56662 -0.588039,-4.7625 0,-5.1832 0.102433,-5.40895 2.454243,-5.40895 1.383927,0 1.400395,-0.01 1.918229,-1.12448 l 0.52232,-1.12448 2.937279,-0.0744 c 3.17015,-0.0804 3.265957,-0.0444 3.728717,1.39736 0.23654,0.73698 0.35734,0.79963 1.68917,0.87598 1.01522,0.0582 1.60838,0.24565 2.02972,0.64143 0.56873,0.53423 0.59531,0.7462 0.59531,4.74642 0,3.83443 -0.0446,4.23179 -0.52916,4.71638 -0.5018,0.50179 -0.88195,0.52916 -7.349456,0.52916 -5.744681,0 -6.913033,-0.065 -7.408333,-0.41187 z m 9.246822,-1.87022 c 2.497637,-1.25722 2.588807,-5.16754 0.15554,-6.67138 -3.207903,-1.98259 -7.130499,1.34104 -5.658876,4.79479 0.948786,2.2267 3.249356,3.01117 5.503336,1.87659 z m -2.861238,-1.15526 c -2.336107,-0.94273 -1.623097,-4.50014 0.901959,-4.50014 2.419999,0 3.347616,2.99913 1.311591,4.24055 -0.92414,0.56347 -1.339761,0.61221 -2.21355,0.25959 z m 7.247845,-4.83087 c -0.16669,-0.50064 -0.99231,-0.57182 -0.99231,-0.0855 0,0.24544 0.22622,0.41628 0.55122,0.41628 0.32331,0 0.50568,-0.13674 0.44109,-0.33073 z"
       id="path20127"
       inkscape:connector-curvature="0"
       sodipodi:nodetypes="cssccccscscscccssccscccsscc" />
    <path
       style="fill:#b3b3b3;fill-opacity:1;stroke-width:0.26458335"
       d="m 160.55873,134.52749 c -1.5276,-0.66352 -2.42264,-1.45712 -3.229,-2.86307 -0.6489,-1.1314 -0.78238,-1.65956 -0.77962,-3.08491 0.004,-2.18362 0.60182,-3.52924 2.18704,-4.92461 1.86674,-1.64316 4.0105,-2.09077 6.24229,-1.30335 4.73265,1.66978 5.91483,7.83514 2.12446,11.07956 -1.70577,1.46007 -4.59399,1.94388 -6.54517,1.09638 z m 3.45721,-5.48891 c 2.1578,-2.78026 2.19686,-2.84996 1.75405,-3.13043 -0.57743,-0.36574 -0.60775,-0.34224 -2.22913,1.7277 l -1.54056,1.96676 -0.78493,-0.66047 c -0.71109,-0.59834 -0.82376,-0.62165 -1.19763,-0.24778 -0.37387,0.37387 -0.30375,0.5237 0.74535,1.59266 0.63693,0.64898 1.2489,1.12382 1.35993,1.05519 0.11103,-0.0686 0.96284,-1.10525 1.89292,-2.30363 z"
       id="path20129"
       inkscape:connector-curvature="0"
       sodipodi:nodetypes="cccccccscsccsccs" />
  </g>
</svg>
