<?xml version="1.0" encoding="UTF-8" standalone="no"?>
<!-- Created with Inkscape (http://www.inkscape.org/) -->

<svg
   width="254.27393mm"
   height="142.534mm"
   viewBox="0 0 254.27393 142.534"
   version="1.1"
   id="svg16765"
   inkscape:version="1.1.2 (08b2f3d93c, 2022-04-05)"
   sodipodi:docname="top-clouds-desktop.svg"
   xmlns:inkscape="http://www.inkscape.org/namespaces/inkscape"
   xmlns:sodipodi="http://sodipodi.sourceforge.net/DTD/sodipodi-0.dtd"
   xmlns:xlink="http://www.w3.org/1999/xlink"
   xmlns="http://www.w3.org/2000/svg"
   xmlns:svg="http://www.w3.org/2000/svg">
  <sodipodi:namedview
     id="namedview16767"
     pagecolor="#ffffff"
     bordercolor="#666666"
     borderopacity="1.0"
     inkscape:pageshadow="2"
     inkscape:pageopacity="0.0"
     inkscape:pagecheckerboard="0"
     inkscape:document-units="mm"
     showgrid="false"
     inkscape:zoom="0.74297138"
     inkscape:cx="460.9868"
     inkscape:cy="380.22999"
     inkscape:window-width="1864"
     inkscape:window-height="1016"
     inkscape:window-x="0"
     inkscape:window-y="0"
     inkscape:window-maximized="1"
     inkscape:current-layer="layer1" />
  <defs
     id="defs16762">
    <linearGradient
       inkscape:collect="always"
       xlink:href="#linearGradient16429-6"
       id="linearGradient21073"
       gradientUnits="userSpaceOnUse"
       gradientTransform="matrix(0.29539508,0,0,0.2438637,-255.00575,131.37066)"
       x1="1605.8314"
       y1="-257.40121"
       x2="1601.5145"
       y2="241.04521" />
    <linearGradient
       inkscape:collect="always"
       id="linearGradient16429-6">
      <stop
         style="stop-color:#00ffff;stop-opacity:0.88627452"
         offset="0"
         id="stop16431-7" />
      <stop
         style="stop-color:#9ce5ff;stop-opacity:0;"
         offset="1"
         id="stop16433-5" />
    </linearGradient>
    <linearGradient
       inkscape:collect="always"
       xlink:href="#linearGradient30023"
       id="linearGradient29995"
       gradientUnits="userSpaceOnUse"
       gradientTransform="matrix(0.29588319,0,0,0.03154354,-255.58011,58.501345)"
       x1="1601.6644"
       y1="-199.90149"
       x2="1600.082"
       y2="502.50516" />
    <linearGradient
       inkscape:collect="always"
       id="linearGradient30023">
      <stop
         style="stop-color:#00d2d2;stop-opacity:1"
         offset="0"
         id="stop30019" />
      <stop
         style="stop-color:#9ce5ff;stop-opacity:0;"
         offset="1"
         id="stop30021" />
    </linearGradient>
  </defs>
  <g
     inkscape:label="Layer 1"
     inkscape:groupmode="layer"
     id="layer1"
     transform="translate(-92.58606,-47.675449)">
    <rect
       style="display:inline;opacity:0.9;fill:url(#linearGradient21073);fill-opacity:1;stroke:none;stroke-width:0.356193;stroke-miterlimit:4;stroke-dasharray:none;stroke-opacity:1"
       id="rect2193"
       width="254.27393"
       height="142.534"
       x="92.58606"
       y="47.675449"
       inkscape:export-filename="/home/russs/Global Ecobrick Alliance Files/Development Circle/Live Github Code2/gobrik/webp/spring-cloudback.webp"
       inkscape:export-xdpi="181.58247"
       inkscape:export-ydpi="181.58247" />
    <rect
       style="display:inline;opacity:0.9;fill:url(#linearGradient29995);fill-opacity:1;stroke:none;stroke-width:0.128211;stroke-miterlimit:4;stroke-dasharray:none;stroke-opacity:1"
       id="rect29993"
       width="254.27393"
       height="27.579773"
       x="92.58606"
       y="47.675449"
       inkscape:export-filename="/home/russs/Global Ecobrick Alliance Files/Development Circle/Live Github Code2/gobrik/webp/spring-cloudback.webp"
       inkscape:export-xdpi="181.58247"
       inkscape:export-ydpi="181.58247" />
    <path
       d="m 141.70893,72.942451 c -1.43312,0.0517 -2.08365,-3.047743 -4.44877,-2.400415 -2.53007,-0.09022 -2.37984,3.120177 -4.70758,2.569299 -2.55226,1.009493 -1.09109,4.736785 1.56828,4.131584 2.67717,-0.02815 5.36103,0.05674 8.03381,-0.04371 2.55455,-0.48514 2.20555,-4.257015 -0.44576,-4.257015 z"
       opacity="0.77"
       stroke-width="0.036521"
       id="path839-0"
       style="opacity:0.55;fill:#ffffff"
       inkscape:export-filename="/home/russs/Documents/GEA Files/Source Files/Graphics/Plastic Sequestration/AES Background banner-2021-1500.png"
       inkscape:export-xdpi="262.37177"
       inkscape:export-ydpi="262.37177" />
    <path
       d="m 172.62547,105.05371 c -1.84105,0.0664 -2.67675,-3.91528 -5.71509,-3.08368 -3.25026,-0.1159 -3.05726,4.00831 -6.04759,3.30063 -3.27875,1.29684 -1.40166,6.08509 2.01469,5.30763 3.43921,-0.0362 6.88703,0.0729 10.3206,-0.0561 3.28169,-0.62323 2.83335,-5.46876 -0.57264,-5.46876 z"
       opacity="0.77"
       stroke-width="0.0469165"
       id="path17503"
       style="opacity:0.55;fill:#ffffff"
       inkscape:export-filename="/home/russs/Documents/GEA Files/Source Files/Graphics/Plastic Sequestration/AES Background banner-2021-1500.png"
       inkscape:export-xdpi="262.37177"
       inkscape:export-ydpi="262.37177" />
    <path
       d="m 305.28226,85.17668 c -1.89047,0.06816 -2.74859,-4.020349 -5.86848,-3.166441 -3.33748,-0.119008 -3.1393,4.115891 -6.20987,3.38922 -3.36674,1.331641 -1.43927,6.248392 2.06875,5.450058 3.53151,-0.03716 7.07186,0.07485 10.59756,-0.05765 3.36978,-0.639958 2.9094,-5.615526 -0.588,-5.615526 z"
       opacity="0.77"
       stroke-width="0.0481757"
       id="path17585"
       style="opacity:0.55;fill:#ffffff"
       inkscape:export-filename="/home/russs/Documents/GEA Files/Source Files/Graphics/Plastic Sequestration/AES Background banner-2021-1500.png"
       inkscape:export-xdpi="262.37177"
       inkscape:export-ydpi="262.37177" />
    <path
       d="m 275.34632,130.91432 c -1.2314,0.0444 -1.79037,-2.61877 -3.82259,-2.06255 -2.17397,-0.0775 -2.04488,2.68101 -4.045,2.20767 -2.19302,0.8674 -0.93751,4.07008 1.34755,3.55006 2.30035,-0.0242 4.60646,0.0487 6.90305,-0.0376 2.19499,-0.41686 1.89511,-3.65783 -0.38302,-3.65783 z"
       opacity="0.77"
       stroke-width="0.0313806"
       id="path839-0-3"
       style="fill:#ffffff;opacity:0.55"
       inkscape:export-filename="/home/russs/Documents/GEA Files/Source Files/Graphics/Plastic Sequestration/AES Background banner-2021-1500.png"
       inkscape:export-xdpi="262.37177"
       inkscape:export-ydpi="262.37177" />
    <path
       d="m 220.61248,162.861 c -1.2762,0.0461 -1.8555,-2.71403 -3.96165,-2.13758 -2.25304,-0.0803 -2.11925,2.77853 -4.19212,2.28797 -2.27279,0.89896 -0.97161,4.21812 1.39656,3.67919 2.38404,-0.025 4.77402,0.0505 7.15414,-0.0389 2.27483,-0.43203 1.96405,-3.79089 -0.39695,-3.79089 z"
       opacity="0.77"
       stroke-width="0.032522"
       id="path839-0-6"
       style="fill:#ffffff;opacity:0.55"
       inkscape:export-filename="/home/russs/Documents/GEA Files/Source Files/Graphics/Plastic Sequestration/AES Background banner-2021-1500.png"
       inkscape:export-xdpi="262.37177"
       inkscape:export-ydpi="262.37177" />
  </g>
</svg>
