<svg id="e1MiN0oU45J1" xmlns="http://www.w3.org/2000/svg" xmlns:xlink="http://www.w3.org/1999/xlink" viewBox="0 0 209.741 142.534" shape-rendering="geometricPrecision" text-rendering="geometricPrecision"><style><![CDATA[#e1MiN0oU45J4_to {animation: e1MiN0oU45J4_to__to 37500ms linear infinite normal forwards}@keyframes e1MiN0oU45J4_to__to { 0% {transform: translate(27.012264px,74.463829px)} 83.333333% {transform: translate(219.687271px,74.463829px)} 100% {transform: translate(219.687271px,74.463829px)}} #e1MiN0oU45J5_to {animation: e1MiN0oU45J5_to__to 37500ms linear infinite normal forwards}@keyframes e1MiN0oU45J5_to__to { 0% {transform: translate(-9.974071px,74.463829px)} 73.333333% {transform: translate(-9.974071px,74.463829px)} 100% {transform: translate(35.183735px,74.463829px)}} #e1MiN0oU45J6_to {animation: e1MiN0oU45J6_to__to 37500ms linear infinite normal forwards}@keyframes e1MiN0oU45J6_to__to { 0% {transform: translate(-145.140137px,-134.762268px)} 3.333333% {transform: translate(-145.140137px,-134.762268px)} 72.666667% {transform: translate(-329.693758px,-131.213471px)} 100% {transform: translate(-329.693758px,-131.213471px)}} #e1MiN0oU45J8_to {animation: e1MiN0oU45J8_to__to 37500ms linear infinite normal forwards}@keyframes e1MiN0oU45J8_to__to { 0% {transform: translate(-106.514174px,-134.752577px)} 66% {transform: translate(-106.514174px,-134.752577px)} 100% {transform: translate(-147.181148px,-136.111476px)}} #e1MiN0oU45J10_to {animation: e1MiN0oU45J10_to__to 37500ms linear infinite normal forwards}@keyframes e1MiN0oU45J10_to__to { 0% {transform: translate(-170.030884px,-51.539021px)} 3.333333% {transform: translate(-170.030884px,-51.539021px)} 72.666667% {transform: translate(-13.401776px,-51.046612px)} 100% {transform: translate(-13.401776px,-51.046612px)}} #e1MiN0oU45J12_to {animation: e1MiN0oU45J12_to__to 37500ms linear infinite normal forwards}@keyframes e1MiN0oU45J12_to__to { 0% {transform: translate(-231.891812px,-51.532204px)} 57.333333% {transform: translate(-231.891812px,-51.532204px)} 100% {transform: translate(-163.281886px,-53.529409px)}} #e1MiN0oU45J15_to {animation: e1MiN0oU45J15_to__to 37500ms linear infinite normal forwards}@keyframes e1MiN0oU45J15_to__to { 0% {transform: translate(-36.279457px,16.770338px)} 3.333333% {transform: translate(-36.279457px,16.770338px)} 55.333333% {transform: translate(-180.432225px,18.700603px)} 100% {transform: translate(-180.432225px,18.700603px)}} #e1MiN0oU45J17_to {animation: e1MiN0oU45J17_to__to 37500ms linear infinite normal forwards}@keyframes e1MiN0oU45J17_to__to { 0% {transform: translate(37.904911px,16.775609px)} 50% {transform: translate(37.904911px,16.775609px)} 100% {transform: translate(-18.729465px,18.660944px)}}]]></style><defs><linearGradient id="e1MiN0oU45J3-fill" x1="104.561949" y1="20.924382" x2="103.510092" y2="142.477371" spreadMethod="pad" gradientUnits="userSpaceOnUse" gradientTransform="translate(0 0)"><stop id="e1MiN0oU45J3-fill-0" offset="0%" stop-color="rgba(0,255,255,0.886275)"/><stop id="e1MiN0oU45J3-fill-1" offset="100%" stop-color="rgba(156,229,255,0)"/></linearGradient><linearGradient id="e1MiN0oU45J14-fill" x1="103.546617" y1="4.520269" x2="103.161049" y2="26.676663" spreadMethod="pad" gradientUnits="userSpaceOnUse" gradientTransform="translate(0 0)"><stop id="e1MiN0oU45J14-fill-0" offset="0%" stop-color="#00d2d2"/><stop id="e1MiN0oU45J14-fill-1" offset="100%" stop-color="rgba(156,229,255,0)"/></linearGradient></defs><g transform="translate(.014171-49.534073)"><rect width="209.741" height="142.534" rx="0" ry="0" transform="translate(-.014171 49.5341)" opacity="0.9" fill="url(#e1MiN0oU45J3-fill)" stroke-width="0.323502"/><g id="e1MiN0oU45J4_to" transform="translate(27.012264,74.463829)"><path d="M33.534852,72.988225c-2.25312.0813-3.27587-4.791601-6.99426-3.77388-3.97774-.141841-3.74154,4.905477-7.40118,4.039397-4.01261,1.587112-1.71537,7.447087,2.46562,6.495595c4.209-.04428,8.42851.0892,12.6306-.06874c4.01622-.762727,3.46752-6.692787-.70081-6.692787Z" transform="translate(-27.012264,-74.463829)" opacity="0.83" fill="#fff" stroke-width="0.057418"/></g><g id="e1MiN0oU45J5_to" transform="translate(-9.974071,74.463829)"><path d="M33.534852,72.988225c-2.25312.0813-3.27587-4.791601-6.99426-3.77388-3.97774-.141841-3.74154,4.905477-7.40118,4.039397-4.01261,1.587112-1.71537,7.447087,2.46562,6.495595c4.209-.04428,8.42851.0892,12.6306-.06874c4.01622-.762727,3.46752-6.692787-.70081-6.692787Z" transform="translate(-27.012264,-74.463829)" opacity="0.83" fill="#fff" stroke-width="0.057418"/></g><g id="e1MiN0oU45J6_to" transform="translate(-145.140137,-134.762268)"><g transform="scale(2.783522,2.535808) translate(0,0)" opacity="0.85"><path d="M117.585,86.186247c-.57997-.06616-1.0733-1.443-2.0691-.89075-.73966.36436-.77325,1.0741-1.6486,1.0382-.89898.61888-.0386,1.8592.88797,1.5784c1.0532-.03714,2.126.07921,3.1655-.06781.85706-.33752.588-1.6797-.33578-1.658Z" opacity="0.77" fill="#fff" stroke-width="0.014448"/></g></g><g id="e1MiN0oU45J8_to" transform="translate(-106.514174,-134.752577)"><g transform="scale(2.783522,2.535808) translate(0,0)" opacity="0.85"><path d="M117.585,86.186247c-.57997-.06616-1.0733-1.443-2.0691-.89075-.73966.36436-.77325,1.0741-1.6486,1.0382-.89898.61888-.0386,1.8592.88797,1.5784c1.0532-.03714,2.126.07921,3.1655-.06781.85706-.33752.588-1.6797-.33578-1.658Z" opacity="0.77" fill="#fff" stroke-width="0.014448"/></g></g><g id="e1MiN0oU45J10_to" transform="translate(-170.030884,-51.539021)"><g transform="scale(1.95777,1.783542) translate(0,0)"><path d="M117.585,86.186247c-.57997-.06616-1.0733-1.443-2.0691-.89075-.73966.36436-.77325,1.0741-1.6486,1.0382-.89898.61888-.0386,1.8592.88797,1.5784c1.0532-.03714,2.126.07921,3.1655-.06781.85706-.33752.588-1.6797-.33578-1.658Z" transform="translate(1.02157 0)" opacity="0.77" fill="#fff" stroke-width="0.014448"/></g></g><g id="e1MiN0oU45J12_to" transform="translate(-231.891812,-51.532204)"><g transform="scale(1.95777,1.783542) translate(0,0)"><path d="M117.585,86.186247c-.57997-.06616-1.0733-1.443-2.0691-.89075-.73966.36436-.77325,1.0741-1.6486,1.0382-.89898.61888-.0386,1.8592.88797,1.5784c1.0532-.03714,2.126.07921,3.1655-.06781.85706-.33752.588-1.6797-.33578-1.658Z" opacity="0.77" fill="#fff" stroke-width="0.014448"/></g></g><rect width="209.395" height="27.5798" rx="0" ry="0" transform="translate(-.014171 49.5341)" opacity="0.9" fill="url(#e1MiN0oU45J14-fill)" stroke-width="0.116348"/><g id="e1MiN0oU45J15_to" transform="translate(-36.279457,16.770338)"><g transform="scale(1.514016,1.379279) translate(0,0)"><path d="M117.585,86.186247c-.57997-.06616-1.0733-1.443-2.0691-.89075-.73966.36436-.77325,1.0741-1.6486,1.0382-.89898.61888-.0386,1.8592.88797,1.5784c1.0532-.03714,2.126.07921,3.1655-.06781.85706-.33752.588-1.6797-.33578-1.658Z" opacity="0.77" fill="#fff" stroke-width="0.014448"/></g></g><g id="e1MiN0oU45J17_to" transform="translate(37.904911,16.775609)"><g transform="scale(1.514016,1.401944) translate(0,0)"><path d="M117.585,86.186247c-.57997-.06616-1.0733-1.443-2.0691-.89075-.73966.36436-.77325,1.0741-1.6486,1.0382-.89898.61888-.0386,1.8592.88797,1.5784c1.0532-.03714,2.126.07921,3.1655-.06781.85706-.33752.588-1.6797-.33578-1.658Z" opacity="0.77" fill="#fff" stroke-width="0.014448"/></g></g></g></svg>