<?xml version="1.0" encoding="UTF-8"?>
<svg width="254.27mm" height="142.53mm" version="1.1" viewBox="0 0 254.27 142.53" xmlns="http://www.w3.org/2000/svg" xmlns:xlink="http://www.w3.org/1999/xlink">
 <defs>
  <linearGradient id="linearGradient21073" x1="1605.8" x2="1601.5" y1="-257.4" y2="241.05" gradientTransform="matrix(.2954 0 0 .24386 -369.19 133.23)" gradientUnits="userSpaceOnUse">
   <stop stop-color="#0ff" stop-opacity=".88627" offset="0"/>
   <stop stop-color="#9ce5ff" stop-opacity="0" offset="1"/>
  </linearGradient>
  <linearGradient id="linearGradient29995" x1="1601.7" x2="1600.1" y1="-199.9" y2="502.51" gradientTransform="matrix(.29588 0 0 .031544 -369.76 60.36)" gradientUnits="userSpaceOnUse">
   <stop stop-color="#00d2d2" offset="0"/>
   <stop stop-color="#9ce5ff" stop-opacity="0" offset="1"/>
  </linearGradient>
 </defs>
 <g transform="translate(21.595 -49.534)">
  <rect x="-21.595" y="49.534" width="254.27" height="142.53" fill="url(#linearGradient21073)" opacity=".9"/>
  <rect x="-21.595" y="49.534" width="254.27" height="27.58" fill="url(#linearGradient29995)" opacity=".9"/>
  <g fill="#fff">
   <path d="m33.936 81.197c-1.9904 0.07182-2.8939-4.2329-6.1788-3.3339-3.514-0.1253-3.3053 4.3335-6.5383 3.5684-3.5448 1.4021-1.5154 6.5788 2.1781 5.7383 3.7183-0.03912 7.4458 0.0788 11.158-0.06073 3.548-0.6738 3.0632-5.9125-0.6191-5.9125z" filter="url(#filter1073)" opacity=".7" stroke-width=".050723"/>
   <g transform="matrix(4.6822 0 0 4.2655 -360.09 -278.37)" filter="url(#filter1073)" opacity=".8">
    <path d="m117.58 86.186c-0.57997-0.06616-1.0733-1.443-2.0691-0.89075-0.73966 0.36436-0.77325 1.0741-1.6486 1.0382-0.89898 0.61888-0.0386 1.8592 0.88797 1.5784 1.0532-0.03714 2.126 0.07921 3.1655-0.06781 0.85706-0.33752 0.588-1.6797-0.33578-1.658z" opacity=".77" stroke-width=".014448"/>
   </g>
   <g transform="matrix(3.904 0 0 3.5566 -390.9 -191.43)" filter="url(#filter1073)" opacity=".8">
    <path d="m117.58 86.186c-0.57997-0.06616-1.0733-1.443-2.0691-0.89075-0.73966 0.36436-0.77325 1.0741-1.6486 1.0382-0.89898 0.61888-0.0386 1.8592 0.88797 1.5784 1.0532-0.03714 2.126 0.07921 3.1655-0.06781 0.85706-0.33752 0.588-1.6797-0.33578-1.658z" opacity=".77" stroke-width=".014448"/>
   </g>
   <g transform="matrix(2.2127 0 0 2.0158 -86.827 -35.858)" filter="url(#filter1073)">
    <path d="m117.58 86.186c-0.57997-0.06616-1.0733-1.443-2.0691-0.89075-0.73966 0.36436-0.77325 1.0741-1.6486 1.0382-0.89898 0.61888-0.0386 1.8592 0.88797 1.5784 1.0532-0.03714 2.126 0.07921 3.1655-0.06781 0.85706-0.33752 0.588-1.6797-0.33578-1.658z" opacity=".77" stroke-width=".014448"/>
   </g>
   <g transform="matrix(2.2127 0 0 2.0158 -149.05 -7.0751)" filter="url(#filter1073)">
    <path d="m117.58 86.186c-0.57997-0.06616-1.0733-1.443-2.0691-0.89075-0.73966 0.36436-0.77325 1.0741-1.6486 1.0382-0.89898 0.61888-0.0386 1.8592 0.88797 1.5784 1.0532-0.03714 2.126 0.07921 3.1655-0.06781 0.85706-0.33752 0.588-1.6797-0.33578-1.658z" opacity=".77" stroke-width=".014448"/>
   </g>
  </g>
 </g>
</svg>
