<svg id="e5aKc4gXFE81" xmlns="http://www.w3.org/2000/svg" xmlns:xlink="http://www.w3.org/1999/xlink" viewBox="0 0 254.27393 142.534" shape-rendering="geometricPrecision" text-rendering="geometricPrecision"><style><![CDATA[#e5aKc4gXFE85_to {animation: e5aKc4gXFE85_to__to 60000ms linear 1 normal forwards}@keyframes e5aKc4gXFE85_to__to { 0% {transform: translate(137.560165px,73.88102px)} 70% {transform: translate(353.195183px,74.254008px)} 100% {transform: translate(353.195183px,74.254008px)}} #e5aKc4gXFE86_to {animation: e5aKc4gXFE86_to__to 60000ms linear 1 normal forwards}@keyframes e5aKc4gXFE86_to__to { 0% {transform: translate(167.295792px,106.259434px)} 84% {transform: translate(354.998467px,106.259434px)} 100% {transform: translate(354.998467px,106.259434px)}} #e5aKc4gXFE87_to {animation: e5aKc4gXFE87_to__to 60000ms linear 1 normal forwards}@keyframes e5aKc4gXFE87_to__to { 0% {transform: translate(282.809555px,86.414761px)} 63.333333% {transform: translate(83.535584px,86.414761px)} 100% {transform: translate(83.535584px,86.414761px)}} #e5aKc4gXFE89_to {animation: e5aKc4gXFE89_to__to 60000ms linear 1 normal forwards}@keyframes e5aKc4gXFE89_to__to { 0% {transform: translate(271.781479px,131.720795px)} 70% {transform: translate(86.250962px,131.720795px)} 100% {transform: translate(86.250962px,131.720795px)}} #e5aKc4gXFE811_to {animation: e5aKc4gXFE811_to__to 60000ms linear 1 normal forwards}@keyframes e5aKc4gXFE811_to__to { 0% {transform: translate(216.917984px,163.696785px)} 66% {transform: translate(353.897047px,163.696785px)} 100% {transform: translate(353.897047px,163.696785px)}}]]></style><defs><linearGradient id="e5aKc4gXFE83-fill" x1="126.762836" y1="20.924355" x2="125.487645" y2="142.477344" spreadMethod="pad" gradientUnits="userSpaceOnUse" gradientTransform="translate(0 0)"><stop id="e5aKc4gXFE83-fill-0" offset="0%" stop-color="rgba(0,255,255,0.886275)"/><stop id="e5aKc4gXFE83-fill-1" offset="100%" stop-color="rgba(156,229,255,0)"/></linearGradient><linearGradient id="e5aKc4gXFE84-fill" x1="125.739345" y1="4.520246" x2="125.27114" y2="26.676639" spreadMethod="pad" gradientUnits="userSpaceOnUse" gradientTransform="translate(0 0)"><stop id="e5aKc4gXFE84-fill-0" offset="0%" stop-color="#00d2d2"/><stop id="e5aKc4gXFE84-fill-1" offset="100%" stop-color="rgba(156,229,255,0)"/></linearGradient></defs><g transform="translate(-92.58606-47.675449)"><rect width="254.274" height="142.534" rx="0" ry="0" transform="translate(92.5861 47.6755)" opacity="0.9" fill="url(#e5aKc4gXFE83-fill)" stroke-width="0.356193"/><rect width="254.274" height="27.5798" rx="0" ry="0" transform="translate(92.5861 47.6755)" opacity="0.9" fill="url(#e5aKc4gXFE84-fill)" stroke-width="0.128211"/><g id="e5aKc4gXFE85_to" transform="translate(137.560165,73.88102)"><path d="M141.70893,72.942451c-1.43312.0517-2.08365-3.047743-4.44877-2.400415-2.53007-.09022-2.37984,3.120177-4.70758,2.569299-2.55226,1.009493-1.09109,4.736785,1.56828,4.131584c2.67717-.02815,5.36103.05674,8.03381-.04371c2.55455-.48514,2.20555-4.257015-.44576-4.257015Z" transform="translate(-137.560165,-73.88102)" opacity="0.55" fill="#fff" stroke-width="0.036521"/></g><g id="e5aKc4gXFE86_to" transform="translate(167.295792,106.259434)"><path d="M172.62547,105.05371c-1.84105.0664-2.67675-3.91528-5.71509-3.08368-3.25026-.1159-3.05726,4.00831-6.04759,3.30063-3.27875,1.29684-1.40166,6.08509,2.01469,5.30763c3.43921-.0362,6.88703.0729,10.3206-.0561c3.28169-.62323,2.83335-5.46876-.57264-5.46876Z" transform="translate(-167.295792,-106.259434)" opacity="0.65" fill="#fff" stroke-width="0.046917"/></g><g id="e5aKc4gXFE87_to" transform="translate(282.809555,86.414761)"><path d="M305.28226,85.17668c-1.89047.06816-2.74859-4.020349-5.86848-3.166441-3.33748-.119008-3.1393,4.115891-6.20987,3.38922-3.36674,1.331641-1.43927,6.248392,2.06875,5.450058c3.53151-.03716,7.07186.07485,10.59756-.05765c3.36978-.639958,2.9094-5.615526-.588-5.615526Z" transform="translate(-299.809555,-86.414761)" opacity="0.6" fill="#fff" stroke-width="0.048176"/></g><path d="M305.28226,85.17668c-1.89047.06816-2.74859-4.020349-5.86848-3.166441-3.33748-.119008-3.1393,4.115891-6.20987,3.38922-3.36674,1.331641-1.43927,6.248392,2.06875,5.450058c3.53151-.03716,7.07186.07485,10.59756-.05765c3.36978-.639958,2.9094-5.615526-.588-5.615526Z" transform="translate(55.407372 0)" opacity="0.6" fill="#fff" stroke-width="0.048176"/><g id="e5aKc4gXFE89_to" transform="translate(271.781479,131.720795)"><path d="M275.34632,130.91432c-1.2314.0444-1.79037-2.61877-3.82259-2.06255-2.17397-.0775-2.04488,2.68101-4.045,2.20767-2.19302.8674-.93751,4.07008,1.34755,3.55006c2.30035-.0242,4.60646.0487,6.90305-.0376c2.19499-.41686,1.89511-3.65783-.38302-3.65783Z" transform="translate(-271.781479,-131.720795)" opacity="0.55" fill="#fff" stroke-width="0.031381"/></g><path d="M275.34632,130.91432c-1.2314.0444-1.79037-2.61877-3.82259-2.06255-2.17397-.0775-2.04488,2.68101-4.045,2.20767-2.19302.8674-.93751,4.07008,1.34755,3.55006c2.30035-.0242,4.60646.0487,6.90305-.0376c2.19499-.41686,1.89511-3.65783-.38302-3.65783Z" transform="translate(80.521996 0)" opacity="0.55" fill="#fff" stroke-width="0.031381"/><g id="e5aKc4gXFE811_to" transform="translate(216.917984,163.696785)"><path d="M220.61248,162.861c-1.2762.0461-1.8555-2.71403-3.96165-2.13758-2.25304-.0803-2.11925,2.77853-4.19212,2.28797-2.27279.89896-.97161,4.21812,1.39656,3.67919c2.38404-.025,4.77402.0505,7.15414-.0389c2.27483-.43203,1.96405-3.79089-.39695-3.79089Z" transform="translate(-216.917984,-163.696785)" opacity="0.67" fill="#fff" stroke-width="0.032522"/></g><path d="M220.61248,162.861c-1.2762.0461-1.8555-2.71403-3.96165-2.13758-2.25304-.0803-2.11925,2.77853-4.19212,2.28797-2.27279.89896-.97161,4.21812,1.39656,3.67919c2.38404-.025,4.77402.0505,7.15414-.0389c2.27483-.43203,1.96405-3.79089-.39695-3.79089Z" transform="translate(-130.666992 0)" opacity="0.67" fill="#fff" stroke-width="0.032522"/></g></svg>