<svg id="e60kecut7bf41" xmlns="http://www.w3.org/2000/svg" xmlns:xlink="http://www.w3.org/1999/xlink" viewBox="0 0 195.248500 103.598000" shape-rendering="geometricPrecision" text-rendering="geometricPrecision" width="195.248500" height="103.598000"><style><![CDATA[#e60kecut7bf426_to {animation: e60kecut7bf426_to__to 3000ms linear 1 normal forwards}@keyframes e60kecut7bf426_to__to { 0% {transform: translate(2.795836px,-27.924888px)} 30% {transform: translate(2.337564px,-6.710589px)} 100% {transform: translate(2.337564px,-6.710589px)} }]]></style><defs><clipPath id="e60kecut7bf42"><rect id="e60kecut7bf43" width="195.250000" height="104.133000" rx="0" ry="0" transform="matrix(1 0 0 1 34.50840000000000 74.65360000000000)" fill="rgb(0,0,0)" stroke="none" stroke-width="0.178806"/></clipPath><clipPath id="e60kecut7bf44"><rect id="e60kecut7bf45" width="195.250000" height="104.133000" rx="0" ry="0" transform="matrix(1 0 0 1 34.50840000000000 74.65360000000000)" fill="rgb(0,0,0)" stroke="none" stroke-width="0.178806"/></clipPath><clipPath id="e60kecut7bf46"><rect id="e60kecut7bf47" width="195.250000" height="104.133000" rx="0" ry="0" transform="matrix(1 0 0 1 34.50840000000000 74.65360000000000)" fill="rgb(0,0,0)" stroke="none" stroke-width="0.178806"/></clipPath><clipPath id="e60kecut7bf48"><rect id="e60kecut7bf49" width="195.250000" height="104.133000" rx="0" ry="0" transform="matrix(1 0 0 1 34.50840000000000 74.65360000000000)" fill="rgb(0,0,0)" stroke="none" stroke-width="0.178806"/></clipPath><clipPath id="e60kecut7bf410"><rect id="e60kecut7bf411" width="195.250000" height="104.133000" rx="0" ry="0" transform="matrix(1 0 0 1 34.50840000000000 74.65360000000000)" fill="rgb(0,0,0)" stroke="none" stroke-width="0.178806"/></clipPath><clipPath id="e60kecut7bf412"><rect id="e60kecut7bf413" width="195.333000" height="104.133000" rx="0" ry="0" transform="matrix(1 0 0 1 34.95510000000000 75.18280000000000)" fill="rgb(0,0,0)" stroke="none" stroke-width="0.178843"/></clipPath><clipPath id="e60kecut7bf414"><rect id="e60kecut7bf415" width="195.250000" height="104.133000" rx="0" ry="0" transform="matrix(1 0 0 1 34.50840000000000 74.65360000000000)" fill="rgb(0,0,0)" stroke="none" stroke-width="0.178806"/></clipPath><linearGradient id="e60kecut7bf418-fill" x1="75.932572" y1="24.596835" x2="75.932572" y2="102.105010" spreadMethod="pad" gradientUnits="userSpaceOnUse"><stop id="e60kecut7bf418-fill-0" offset="0%" stop-color="rgb(194,250,255)"/><stop id="e60kecut7bf418-fill-1" offset="100%" stop-color="rgba(194,250,255,0)"/></linearGradient><linearGradient id="e60kecut7bf429-fill" x1="59.568993" y1="0.643896" x2="59.568993" y2="6.654166" spreadMethod="pad" gradientUnits="userSpaceOnUse"><stop id="e60kecut7bf429-fill-0" offset="0%" stop-color="rgb(128,128,128)"/><stop id="e60kecut7bf429-fill-1" offset="100%" stop-color="rgba(128,128,128,0)"/></linearGradient></defs><g id="e60kecut7bf416" transform="matrix(1 0 0 1 -34.50838851928711 -74.65361785888672)"><g id="e60kecut7bf417" transform="matrix(1 0 0 1 -2.76948237419128 0.46158039569855)"><rect id="e60kecut7bf418" width="195.250000" height="104.133000" rx="0" ry="0" transform="matrix(1 0 0 1 37.27790000000000 73.65360000000000)" fill="url(#e60kecut7bf418-fill)" stroke="none" stroke-width="0.178806"/><path id="e60kecut7bf419" d="M137.167530,133.807780C135.386340,134.731780,135.116430,134.094300,133.125520,134.065610C130.647290,134.427760,130.317130,134.472680,129.305270,134.324920C127.084830,133.258270,123.772660,134.411820,121.974340,134.033000C122.910390,133.518470,125.468480,134.174810,125.658390,132.830200C127.204940,131.862370,127.883190,131.514680,128.759310,132.080680C130.073320,133.147770,129.875580,132.702020,131.387710,132.686250C133.934540,128.763350,136.036900,130.323890,137.137470,132.677250C140.148400,132.787740,139.995660,133.256670,142.893840,133.331310C140.827550,133.269910,139.205370,133.545230,137.167530,133.807310Z" opacity="0.647" clip-path="url(#e60kecut7bf42)" fill="rgb(255,255,255)" fill-rule="evenodd" stroke="none" stroke-width="0.128345"/><g id="e60kecut7bf420"><path id="e60kecut7bf421" d="M207.030630,106.670770C209.946400,108.549020,210.388250,107.253210,213.647490,107.194890C217.704230,107.931020,218.244730,108.022360,219.901150,107.721980C223.536040,105.553800,228.958040,107.898500,231.901860,107.128590C230.369540,106.082720,226.182060,107.416870,225.871200,104.683660C223.339370,102.716340,222.229170,102.009600,220.794840,103.160130C218.643890,105.329180,218.967610,104.423110,216.492260,104.391050C213.560910,102.309360,208.581770,99.187901,206.356290,101.954490C202.001810,104.143140,198.767690,99.754134,197.159510,100.459790C193.459580,102.083280,190.902530,106.582250,187.812700,107.122230C191.195250,106.997570,201.890630,107.273600,205.226560,107.806320C207.275380,107.717320,206.564790,107.076390,207.030630,106.670770Z" opacity="0.8" fill="rgb(255,255,255)" fill-opacity="0.929412" fill-rule="evenodd" stroke="none" stroke-width="0.146106"/></g><path id="e60kecut7bf422" d="M146.336480,113.859960C147.769750,114.721840,147.986960,114.127230,149.589010,114.100460C151.583130,114.438260,151.848780,114.480170,152.663020,114.342330C154.449720,113.347400,157.114900,114.423330,158.561940,114.070040C157.808740,113.590100,155.750370,114.202320,155.597540,112.948110C154.353050,112.045340,153.807340,111.721030,153.102320,112.248980C152.044970,113.244330,152.204090,112.828550,150.987350,112.813840C149.546470,111.858590,147.454650,111.536170,146.360700,112.805840C143.937900,112.908900,144.060810,113.346300,141.728750,113.415920C143.391380,113.358720,144.696710,113.615460,146.336480,113.859910Z" opacity="0.8" clip-path="url(#e60kecut7bf44)" fill="rgb(255,255,255)" fill-opacity="0.929412" fill-rule="evenodd" stroke="none" stroke-width="0.069391"/><path id="e60kecut7bf423" d="M58.076564,111.934310C52.861687,112.975740,48.021863,113.907750,43.005108,113.083440C38.748723,110.713260,32.399536,113.276460,28.952351,112.434780C30.746660,111.291430,35.650215,112.749900,36.014292,109.762040C38.979017,107.611410,40.279053,106.838810,41.958579,108.096530C44.477440,110.467720,46.319369,103.410190,49.217988,103.375140C52.650507,101.099500,55.412823,106.398440,58.018910,109.423260C63.790609,109.668760,67.763350,111.720350,73.318929,111.886210C69.391237,111.812510,61.229941,111.460700,58.076564,111.934310Z" transform="matrix(1 0 0 1 3.34546303749084 -0.65277326107025)" opacity="0.699" clip-path="url(#e60kecut7bf46)" fill="rgb(255,255,255)" fill-rule="evenodd" stroke="none" stroke-width="0.151449"/><path id="e60kecut7bf424" d="M74.412346,124.057140C76.975713,125.905990,74.925694,123.831700,77.790934,123.774290C81.357415,124.498910,86.937545,124.258520,88.393828,123.962850C91.589285,121.828580,92.828759,123.468500,95.416750,122.710580C90.784576,122.558200,89.362962,116.918740,85.797252,120.128790C83.906195,122.263960,84.906488,121.844600,82.730350,121.813040C81.462529,120.804900,77.574306,118.655360,76.094055,118.549430C75.011810,121.129410,69.922238,123.272360,66.171464,123.104720C69.145070,122.981950,68.406038,124.134130,71.338746,124.658510Z" opacity="0.706" clip-path="url(#e60kecut7bf48)" fill="rgb(255,255,255)" fill-opacity="0.929412" fill-rule="evenodd" stroke="none" stroke-width="0.093927"/><path id="e60kecut7bf425" d="M207.662880,132.363760C205.718660,133.516070,205.424000,132.721090,203.250830,132.685310C200.545800,133.136930,200.185460,133.192960,199.080940,133.008680C194.702050,133.075080,193.041940,133.117010,191.079050,132.644630C192.100770,132.002960,196.275260,132.179710,196.482560,130.502860C197.438910,128.104020,197.853930,128.587230,198.810270,129.293090C200.244560,130.623850,199.703460,130.984780,201.354000,130.965110C203.308520,129.687960,206.146110,129.256900,207.630040,130.954510C210.916560,131.092290,210.749840,131.677090,213.913280,131.770170C211.657900,131.693670,209.887230,132.036960,207.662880,132.363790Z" opacity="0.804" clip-path="url(#e60kecut7bf410)" fill="rgb(255,255,255)" fill-opacity="0.929412" fill-rule="evenodd" stroke="none" stroke-width="0.060080"/><g id="e60kecut7bf426_to" transform="translate(2.795836,-27.924888)"><g id="e60kecut7bf426" transform="scale(0.999578,1.075180) translate(0,0)" clip-path="url(#e60kecut7bf412)"><rect id="e60kecut7bf427" width="195.367000" height="16.316700" rx="0" ry="0.063207" transform="matrix(1 0 0 1 34.49660000000000 74.12450000000000)" fill="rgb(255,255,255)" stroke="none" stroke-width="2.313000" stroke-linejoin="round"/><g id="e60kecut7bf428"><rect id="e60kecut7bf429" width="195.350000" height="7.066670" rx="0" ry="0.022997" transform="matrix(1 0 0 1 34.95510000000000 87.90989999999999)" opacity="0.5" fill="url(#e60kecut7bf429-fill)" stroke="none" stroke-width="0.261409" stroke-linejoin="round"/><rect id="e60kecut7bf430" width="195.400000" height="16.316700" rx="0" ry="0" transform="matrix(1 0 0 1 34.91190000000000 74.39840000000000)" fill="rgb(255,255,255)" stroke="none" stroke-width="2.313140" stroke-linejoin="round"/><path id="e60kecut7bf431" d="M34.932135,90.709877L230.309510,90.709877" fill="rgb(44,134,134)" fill-opacity="0.473896" stroke="rgb(109,152,155)" stroke-width="0.261409" stroke-opacity="0.698039"/></g></g></g><path id="e60kecut7bf432" d="M95.224403,88.569683C93.276205,89.964499,92.980959,89.002217,90.803344,88.958894C88.092802,89.505569,87.731713,89.573394,86.624943,89.350322C84.196340,87.740186,80.573640,89.481408,78.606726,88.909664C79.630526,88.132957,82.428408,89.123738,82.636145,87.093998C84.327740,85.633009,85.069506,85.108164,86.027817,85.962568C87.465038,87.573383,87.248751,86.900510,88.902626,86.876704C90.861168,85.330783,93.704511,84.808998,95.191481,86.863754C98.484714,87.030540,98.317647,87.738403,101.487540,87.851072C99.227581,87.758502,97.453289,88.173995,95.224403,88.569599Z" opacity="0.8" clip-path="url(#e60kecut7bf414)" fill="rgb(255,255,255)" fill-opacity="0.929412" fill-rule="evenodd" stroke="none" stroke-width="0.102917"/></g></g></svg>