<?xml version="1.0" encoding="UTF-8" standalone="no"?>
<svg
   xmlns:dc="http://purl.org/dc/elements/1.1/"
   xmlns:cc="http://creativecommons.org/ns#"
   xmlns:rdf="http://www.w3.org/1999/02/22-rdf-syntax-ns#"
   xmlns:svg="http://www.w3.org/2000/svg"
   xmlns="http://www.w3.org/2000/svg"
   xmlns:xlink="http://www.w3.org/1999/xlink"
   xmlns:sodipodi="http://sodipodi.sourceforge.net/DTD/sodipodi-0.dtd"
   xmlns:inkscape="http://www.inkscape.org/namespaces/inkscape"
   id="svg3346"
   version="1.1"
   viewBox="0 0 195.2485 103.598"
   height="103.598mm"
   width="195.2485mm"
   sodipodi:docname="top-clouds-static.svg"
   inkscape:version="0.92.4 (f8dce91, 2019-08-02)">
  <sodipodi:namedview
     pagecolor="#ffffff"
     bordercolor="#666666"
     borderopacity="1"
     objecttolerance="10"
     gridtolerance="10"
     guidetolerance="10"
     inkscape:pageopacity="0"
     inkscape:pageshadow="2"
     inkscape:window-width="1853"
     inkscape:window-height="1018"
     id="namedview4487"
     showgrid="false"
     inkscape:zoom="0.57321182"
     inkscape:cx="1019.7391"
     inkscape:cy="23.76126"
     inkscape:window-x="67"
     inkscape:window-y="34"
     inkscape:window-maximized="1"
     inkscape:current-layer="g36720" />
  <defs
     id="defs3340">
    <linearGradient
       inkscape:collect="always"
       id="linearGradient5043">
      <stop
         style="stop-color:#808080;stop-opacity:1;"
         offset="0"
         id="stop5039" />
      <stop
         style="stop-color:#808080;stop-opacity:0;"
         offset="1"
         id="stop5041" />
    </linearGradient>
    <linearGradient
       id="linearGradient36711">
      <stop
         id="stop36707"
         offset="0"
         style="stop-color:#c2faff;stop-opacity:1;" />
      <stop
         id="stop36709"
         offset="1"
         style="stop-color:#c2faff;stop-opacity:0;" />
    </linearGradient>
    <linearGradient
       id="linearGradient36656">
      <stop
         id="stop36652"
         offset="0"
         style="stop-color:#000000;stop-opacity:1;" />
      <stop
         id="stop36654"
         offset="1"
         style="stop-color:#000000;stop-opacity:0;" />
    </linearGradient>
    <linearGradient
       gradientTransform="matrix(1,0,0,0.90751019,-3.7041668,-26.855228)"
       gradientUnits="userSpaceOnUse"
       y2="133.93404"
       x2="110.00022"
       y1="127.92047"
       x1="110.00022"
       id="linearGradient36658"
       xlink:href="#linearGradient36656" />
    <linearGradient
       gradientTransform="matrix(1.0007265,0,0,1,2.7562311,0.52915955)"
       gradientUnits="userSpaceOnUse"
       y2="176.22945"
       x2="110.40112"
       y1="98.721275"
       x1="110.40112"
       id="linearGradient36713"
       xlink:href="#linearGradient36711" />
    <linearGradient
       y2="133.93404"
       x2="110.00022"
       y1="127.92047"
       x1="110.00022"
       gradientTransform="matrix(1,0,0,0.82148761,-0.76309699,-4.7032548)"
       gradientUnits="userSpaceOnUse"
       id="linearGradient36722"
       xlink:href="#linearGradient36656" />
    <clipPath
       id="clipPath37579"
       clipPathUnits="userSpaceOnUse">
      <rect
         style="opacity:1;fill:#000000;fill-opacity:1;stroke:none;stroke-width:0.17880556;stroke-opacity:1"
         id="rect37581"
         width="195.2485"
         height="104.12717"
         x="34.508389"
         y="74.653618" />
    </clipPath>
    <clipPath
       id="clipPath37583"
       clipPathUnits="userSpaceOnUse">
      <rect
         style="opacity:1;fill:#000000;fill-opacity:1;stroke:none;stroke-width:0.17884333;stroke-opacity:1"
         id="rect37585"
         width="195.33098"
         height="104.12717"
         x="34.955067"
         y="75.182785" />
    </clipPath>
    <clipPath
       id="clipPath37587"
       clipPathUnits="userSpaceOnUse">
      <rect
         style="opacity:1;fill:#000000;fill-opacity:1;stroke:none;stroke-width:0.17880556;stroke-opacity:1"
         id="rect37589"
         width="195.2485"
         height="104.12717"
         x="34.508389"
         y="74.653618" />
    </clipPath>
    <clipPath
       id="clipPath37591"
       clipPathUnits="userSpaceOnUse">
      <rect
         style="opacity:1;fill:#000000;fill-opacity:1;stroke:none;stroke-width:0.17880556;stroke-opacity:1"
         id="rect37593"
         width="195.2485"
         height="104.12717"
         x="34.508389"
         y="74.653618" />
    </clipPath>
    <clipPath
       id="clipPath37595"
       clipPathUnits="userSpaceOnUse">
      <rect
         style="opacity:1;fill:#000000;fill-opacity:1;stroke:none;stroke-width:0.17880556;stroke-opacity:1"
         id="rect37597"
         width="195.2485"
         height="104.12717"
         x="34.508389"
         y="74.653618" />
    </clipPath>
    <clipPath
       id="clipPath37599"
       clipPathUnits="userSpaceOnUse">
      <rect
         style="opacity:1;fill:#000000;fill-opacity:1;stroke:none;stroke-width:0.17880556;stroke-opacity:1"
         id="rect37601"
         width="195.2485"
         height="104.12717"
         x="34.508389"
         y="74.653618" />
    </clipPath>
    <clipPath
       id="clipPath37607"
       clipPathUnits="userSpaceOnUse">
      <rect
         style="opacity:1;fill:#000000;fill-opacity:1;stroke:none;stroke-width:0.17880556;stroke-opacity:1"
         id="rect37609"
         width="195.2485"
         height="104.12717"
         x="34.508389"
         y="74.653618" />
    </clipPath>
    <linearGradient
       inkscape:collect="always"
       xlink:href="#linearGradient5043"
       id="linearGradient5045"
       x1="94.293205"
       y1="110.20909"
       x2="94.293205"
       y2="116.21936"
       gradientUnits="userSpaceOnUse"
       gradientTransform="translate(0.23088836,-21.655295)" />
  </defs>
  <metadata
     id="metadata3343">
    <rdf:RDF>
      <cc:Work
         rdf:about="">
        <dc:format>image/svg+xml</dc:format>
        <dc:type
           rdf:resource="http://purl.org/dc/dcmitype/StillImage" />
        <dc:title></dc:title>
      </cc:Work>
    </rdf:RDF>
  </metadata>
  <g
     transform="translate(-34.508389,-74.653618)"
     id="layer1">
    <g
       id="g37554"
       transform="translate(-2.7694824,0.4615804)">
      <rect
         clip-path="none"
         y="74.653618"
         x="37.27787"
         height="104.12716"
         width="195.24849"
         id="rect36676"
         style="opacity:1;fill:url(#linearGradient36713);fill-opacity:1;stroke:none;stroke-width:0.17880556;stroke-opacity:1" />
      <path
         clip-path="url(#clipPath37607)"
         id="path39199-3"
         d="m 137.16753,133.80778 c -1.78119,0.924 -2.0511,0.28652 -4.04201,0.25783 -2.47823,0.36215 -2.80839,0.40707 -3.82025,0.25931 -2.22044,-1.06665 -5.53261,0.0869 -7.33093,-0.29192 0.93605,-0.51453 3.49414,0.14181 3.68405,-1.2028 1.54655,-0.96783 2.2248,-1.31552 3.10092,-0.74952 1.31401,1.06709 1.11627,0.62134 2.6284,0.60557 2.54683,-3.9229 4.64919,-2.36236 5.74976,-0.009 3.01093,0.11049 2.85819,0.57942 5.75637,0.65406 -2.06629,-0.0614 -3.68847,0.21392 -5.72631,0.476 z"
         style="display:inline;opacity:0.647;fill:#ffffff;fill-opacity:1;fill-rule:evenodd;stroke:none;stroke-width:0.12834485px;stroke-linecap:butt;stroke-linejoin:miter;stroke-opacity:1"
         inkscape:connector-curvature="0" />
      <g
         id="g5034">
        <path
           inkscape:connector-curvature="0"
           style="display:inline;opacity:0.8;fill:#ffffff;fill-opacity:0.92941176;fill-rule:evenodd;stroke:none;stroke-width:0.14610581px;stroke-linecap:butt;stroke-linejoin:miter;stroke-opacity:1"
           d="m 207.03063,106.67077 c 2.91577,1.87825 3.35762,0.58244 6.61686,0.52412 4.05674,0.73613 4.59724,0.82747 6.25366,0.52709 3.63489,-2.16818 9.05689,0.17652 12.00071,-0.59339 -1.53232,-1.04587 -5.7198,0.28828 -6.03066,-2.44493 -2.53183,-1.96732 -3.64203,-2.67406 -5.07636,-1.52353 -2.15095,2.16905 -1.82723,1.26298 -4.30258,1.23092 -2.93135,-2.08169 -7.91049,-5.203149 -10.13597,-2.43656 -4.35448,2.18865 -7.5886,-2.200356 -9.19678,-1.4947 -3.69993,1.62349 -6.25698,6.12246 -9.34681,6.66244 3.38255,-0.12466 14.07793,0.15137 17.41386,0.68409 2.04882,-0.089 1.33823,-0.72993 1.80407,-1.13555 z"
           id="path39093-7"
           clip-path="none" />
      </g>
      <path
         clip-path="url(#clipPath37599)"
         id="path39093-5"
         d="m 146.33648,113.85996 c 1.43327,0.86188 1.65048,0.26727 3.25253,0.2405 1.99412,0.3378 2.25977,0.37971 3.07401,0.24187 1.7867,-0.99493 4.45188,0.081 5.89892,-0.27229 -0.7532,-0.47994 -2.81157,0.13228 -2.9644,-1.12193 -1.24449,-0.90277 -1.7902,-1.22708 -2.49522,-0.69913 -1.05735,0.99535 -0.89823,0.57957 -2.11497,0.56486 -1.44088,-0.95525 -3.5327,-1.27767 -4.62665,-0.008 -2.4228,0.10306 -2.29989,0.54046 -4.63195,0.61008 1.66263,-0.0572 2.96796,0.19954 4.60773,0.44399 z"
         style="display:inline;opacity:0.8;fill:#ffffff;fill-opacity:0.92941176;fill-rule:evenodd;stroke:none;stroke-width:0.06939069px;stroke-linecap:butt;stroke-linejoin:miter;stroke-opacity:1"
         inkscape:connector-curvature="0" />
      <path
         clip-path="url(#clipPath37595)"
         id="path15883"
         d="m 58.076564,111.93431 c -5.214877,1.04143 -10.054701,1.97344 -15.071456,1.14913 -4.256385,-2.37018 -10.605572,0.19302 -14.052757,-0.64866 1.794309,-1.14335 6.697864,0.31512 7.061941,-2.67274 2.964725,-2.15063 4.264761,-2.92323 5.944287,-1.66551 2.518861,2.37119 4.36079,-4.68634 7.259409,-4.72139 3.432519,-2.27564 6.194835,3.0233 8.800922,6.04812 5.771699,0.2455 9.74444,2.29709 15.300019,2.46295 -3.927692,-0.0737 -12.088988,-0.42551 -15.242365,0.0481 z"
         style="display:inline;opacity:0.69899998;fill:#ffffff;fill-opacity:1;fill-rule:evenodd;stroke:none;stroke-width:0.15144852px;stroke-linecap:butt;stroke-linejoin:miter;stroke-opacity:1"
         inkscape:connector-curvature="0"
         transform="translate(3.345463,-0.65277326)" />
      <path
         clip-path="url(#clipPath37591)"
         id="path15885"
         d="m 74.412346,124.05714 c 2.563367,1.84885 0.513348,-0.22544 3.378588,-0.28285 3.566481,0.72462 9.146611,0.48423 10.602894,0.18856 3.195457,-2.13427 4.434931,-0.49435 7.022922,-1.25227 -4.632174,-0.15238 -6.053788,-5.79184 -9.619498,-2.58179 -1.891057,2.13517 -0.890764,1.71581 -3.066902,1.68425 -1.267821,-1.00814 -5.156044,-3.15768 -6.636295,-3.26361 -1.082245,2.57998 -6.171817,4.72293 -9.922591,4.55529 2.973606,-0.12277 2.234574,1.02941 5.167282,1.55379 z"
         style="display:inline;opacity:0.706;fill:#ffffff;fill-opacity:0.92941176;fill-rule:evenodd;stroke:none;stroke-width:0.09392705px;stroke-linecap:butt;stroke-linejoin:miter;stroke-opacity:1"
         inkscape:connector-curvature="0" />
      <path
         clip-path="url(#clipPath37587)"
         style="display:inline;opacity:0.80400002;fill:#ffffff;fill-opacity:0.92941176;fill-rule:evenodd;stroke:none;stroke-width:0.06008018px;stroke-linecap:butt;stroke-linejoin:miter;stroke-opacity:1"
         d="m 207.66288,132.36376 c -1.94422,1.15231 -2.23888,0.35733 -4.41205,0.32155 -2.70503,0.45162 -3.06537,0.50765 -4.16989,0.32337 -4.37889,0.0664 -6.039,0.10833 -8.00189,-0.36405 1.02172,-0.64167 5.19621,-0.46492 5.40351,-2.14177 0.95635,-2.39884 1.37137,-1.91563 2.32771,-1.20977 1.43429,1.33076 0.89319,1.69169 2.54373,1.67202 1.95452,-1.27715 4.79211,-1.70821 6.27604,-0.0106 3.28652,0.13778 3.1198,0.72258 6.28324,0.81566 -2.25538,-0.0765 -4.02605,0.26679 -6.2504,0.59362 z"
         id="path15887"
         inkscape:connector-curvature="0" />
      <g
         clip-path="url(#clipPath37583)"
         id="g36720"
         transform="matrix(0.99957775,0,0,1.0751802,2.3375645,-6.7105887)">
        <rect
           ry="0.063206844"
           y="74.124458"
           x="34.496578"
           height="16.311464"
           width="195.37402"
           id="rect36334"
           style="opacity:1;fill:#ffffff;fill-opacity:1;stroke:none;stroke-width:2.31299996;stroke-linejoin:round;stroke-miterlimit:4;stroke-dasharray:none;stroke-opacity:1" />
        <g
           id="g5050">
          <rect
             ry="0.02299683"
             y="87.909866"
             x="34.955067"
             height="7.0701337"
             width="195.34543"
             id="rect5037"
             style="opacity:0.5;fill:url(#linearGradient5045);fill-opacity:1;stroke:none;stroke-width:0.2614089;stroke-linejoin:round;stroke-miterlimit:4;stroke-dasharray:none;stroke-opacity:1" />
          <rect
             ry="0"
             y="74.398415"
             x="34.911854"
             height="16.311464"
             width="195.39766"
             id="rect36336"
             style="opacity:1;fill:#ffffff;fill-opacity:1;stroke:none;stroke-width:2.31313992;stroke-linejoin:round;stroke-miterlimit:4;stroke-dasharray:none;stroke-opacity:1" />
          <path
             inkscape:connector-curvature="0"
             id="path36668"
             d="M 34.932135,90.709877 H 230.30951"
             style="fill:#2c8686;fill-opacity:0.47389562;stroke:#6d989b;stroke-width:0.2614089;stroke-linecap:butt;stroke-linejoin:miter;stroke-miterlimit:4;stroke-dasharray:none;stroke-opacity:0.69803922" />
        </g>
      </g>
      <path
         clip-path="url(#clipPath37579)"
         style="display:inline;opacity:0.8;fill:#ffffff;fill-opacity:0.92941176;fill-rule:evenodd;stroke:none;stroke-width:0.10291737px;stroke-linecap:butt;stroke-linejoin:miter;stroke-opacity:1"
         d="m 95.224403,88.569683 c -1.948198,1.394816 -2.243444,0.432534 -4.421059,0.389211 -2.710542,0.546675 -3.071631,0.6145 -4.178401,0.391428 -2.428603,-1.610136 -6.051303,0.131086 -8.018217,-0.440658 1.0238,-0.776707 3.821682,0.214074 4.029419,-1.815666 1.691595,-1.460989 2.433361,-1.985834 3.391672,-1.13143 1.437221,1.610815 1.220934,0.937942 2.874809,0.914136 1.958542,-1.545921 4.801885,-2.067706 6.288855,-0.01295 3.293233,0.166786 3.126166,0.874649 6.296059,0.987318 -2.259959,-0.09257 -4.034251,0.322923 -6.263137,0.718527 z"
         id="path36724"
         inkscape:connector-curvature="0" />
    </g>
  </g>
</svg>
