<?xml version="1.0" encoding="UTF-8"?>
<svg width="1238.4mm" height="276.21mm" version="1.1" viewBox="0 0 1238.4 276.21" xmlns="http://www.w3.org/2000/svg">
 <g transform="translate(337.73 -271.59)">
  <path d="m-209.28 544.99c-16.685-0.80174-33.553-4.9854-49.34-12.237-24.227-11.129-46.348-31.077-60.207-54.293-21.307-35.693-24.799-79.301-9.467-118.24 8.4096-21.356 22.67-40.784 41.358-56.345 17.064-14.208 36.959-23.519 58.473-27.364 9.1726-1.6396 15.113-2.1245 26.061-2.1269 9.1086-2e-3 12.318 0.18973 19.976 1.194 28.57 3.7463 54.15 16.371 75.468 37.247 16.589 16.245 28.007 35.135 34.456 57 2.958 10.03 4.9052 21.198 5.3471 30.668 0.09313 1.9957 0.25135 3.5778 0.35158 3.5158 0.10025-0.062 0.25829-1.7543 0.35124-3.7608 0.61267-13.228 3.9372-28.153 9.2109-41.351 9.7687-24.448 29.071-47.969 51.822-63.146 17.807-11.879 37.171-18.618 60.06-20.9 6.4794-0.6461 21.304-0.64596 27.781 2.6e-4 13.463 1.3432 24.721 3.8931 35.851 8.1201 16.77 6.3689 31.384 15.845 45.07 29.225 10.418 10.184 17.769 19.71 24.535 31.791 9.1621 16.36 14.983 36.86 15.896 55.985 0.18161 3.8047 0.62142 5.2985 0.62142 2.1106 0-2.205 0.6517-9.1996 1.2134-13.023 4.1912-28.529 17.538-54.512 38.943-75.813 25.402-25.278 55.332-38.014 91.474-38.924 29.185-0.73513 55.771 6.6814 78.509 21.901 11.62 7.7779 24.23 19.599 33.184 31.107 14.832 19.064 23.74 41.18 26.409 65.565 2.6074 23.82-0.34999 47.723-8.4459 68.262-1.5562 3.948-5.322 11.75-7.5343 15.61-2.2827 3.9828-7.1892 11.308-9.8903 14.765-10.666 13.653-24.97 26.295-39.471 34.885-4.3929 2.6023-5.0018 2.9356-9.0803 4.9716-23.029 11.496-50.42 15.989-77.471 12.709-22.743-2.758-43.531-11.138-62.16-25.057-20.584-15.38-36.821-35.797-46.001-57.843-5.4102-12.993-8.9689-28.588-9.5917-42.033-0.0925-1.9957-0.25025-3.5777-0.35068-3.5156-0.10044 0.0621-0.25548 1.6949-0.34454 3.6285-0.35468 7.6999-1.774 17.229-3.775 25.344-4.9038 19.887-14.222 37.596-27.913 53.049-3.1934 3.6043-10.562 10.863-14.27 14.057-18.054 15.551-38.006 25.66-59.928 30.363-24.103 5.1707-50.525 3.7175-73.157-4.0234-6.6829-2.2858-17.063-7.0938-23.283-10.785-20.743-12.309-39.537-31.266-51.258-51.703-9.6906-16.897-15.778-37.521-16.654-56.422-0.09268-2.0009-0.25053-3.638-0.35078-3.638s-0.25866 1.6371-0.35203 3.638c-0.49768 10.665-2.9363 23.579-6.4942 34.39-5.153 15.658-12.528 29.003-23.071 41.744-3.0136 3.6422-13.432 13.994-17.429 17.317-8.7989 7.3164-17.077 12.781-26.87 17.739-21.206 10.736-44.691 15.773-68.262 14.641zm288.88-24.968c26.004-2.5453 47.782-12.954 67.956-32.481 18.758-18.156 28.983-39.484 31.611-65.936 0.59258-5.9639 0.58978-17.958-6e-3 -23.68-2.3538-22.629-10.219-41.577-24.293-58.524-13.865-16.697-31.228-28.844-50.356-35.23-18.475-6.1681-41.194-7.2033-61.112-2.7848-24.019 5.3283-44.733 18.75-61.699 39.976-13.419 16.789-21.406 36.082-23.472 56.695-1.8887 18.848 0.78089 37.447 7.7283 53.843 8.2553 19.483 24.111 38.235 42.988 50.839 16.059 10.723 33.974 16.549 54.299 17.656 2.8968 0.15776 13.375-0.0813 16.357-0.37315zm-31.9-55.618-0.06718-32.876-15.487-0.1404 0.07075-28.769 0.07072-28.769 0.57174-1.2371c0.80978-1.7522 2.5441-3.5246 4.2856-4.3799l1.4926-0.73302h60.06l1.7198 0.94837c2.0897 1.1524 3.7786 3.1106 4.3542 5.0486 0.35695 1.2021 0.40835 4.9322 0.40835 29.638v28.262h-15.344l-0.06718 32.874-0.06718 32.874-41.934 0.1354zm15.03-104.88c-5.3545-1.1476-8.8866-3.8253-10.986-8.3283-1.4697-3.1522-1.7254-4.6362-1.7266-10.02 0-4.3273 0.06974-5.1402 0.60976-7.0114 1.7744-6.1485 5.2859-9.6434 11.346-11.292 3.0054-0.81758 10.383-0.81758 13.388 0 2.3774 0.64675 5.2268 2.0694 6.7416 3.3661 2.4626 2.1079 4.4351 6.146 5.1073 10.456 0.45551 2.9204 0.16775 9.1412-0.53578 11.582-1.833 6.3602-5.6918 9.9103-12.243 11.264-2.6315 0.54355-9.1323 0.53477-11.701-0.0158zm288.8 160.39c25.566-2.718 46.924-13.013 66.777-32.187 18.104-17.485 28.565-38.562 31.497-63.462 2.8984-24.614-1.6716-49.162-12.784-68.668-9.1492-16.061-24.417-31.765-40.409-41.565-13.92-8.5304-28.751-13.307-46.425-14.953-5.0748-0.47248-16.884-0.40226-22.093 0.13137-22.141 2.2682-40.562 9.9071-57.415 23.809-4.0895 3.3735-12.988 12.325-16.473 16.57-14.779 18.004-22.71 36.566-25.1 58.738-0.5348 4.9621-0.60369 16.789-0.12639 21.696 2.2749 23.384 10.655 42.887 26.091 60.722 3.4757 4.0158 10.503 10.958 14.285 14.113 19.123 15.95 39.645 24.053 64.691 25.543 3.232 0.19225 13.885-0.10448 17.483-0.48697zm-22.245-36.263c-19.587-2.6133-36.125-13.919-44.307-30.29-2.1473-4.2966-3.938-9.257-5.0624-14.023-0.52904-2.2425-1.4309-7.112-1.4309-7.7259 0-0.45944 0.7308-0.47715 16.999-0.41199l16.999 0.0681 0.19233 1.9844c1.0307 10.635 6.4203 17.652 15.947 20.761 2.7835 0.90863 5.6324 1.4096 9.9409 1.7481 9.7613 0.76695 16.75-1.6428 23.011-7.934 5.1329-5.1578 8.785-12.238 10.674-20.692 2.4559-10.994 2.2573-25.321-0.50022-36.085-4.3334-16.914-15.161-25.29-31.483-24.354-13.121 0.75235-21.418 5.7517-25.466 15.344-0.88694 2.1017-2.1819 6.859-2.1826 8.0179v0.59531h9.6553l-26.719 26.723-26.596-26.591 10.407-0.26459 0.59304-3.0427c1.3078-6.7102 2.9796-11.835 5.68-17.414 2.9294-6.0513 5.5142-9.7704 10.002-14.391 9.3446-9.6208 20.94-15.164 35.366-16.906 3.8003-0.4589 13.536-0.3869 17.837 0.13191 16.524 1.9934 29.708 8.3018 39.97 19.124 11.354 11.974 17.738 26.832 19.34 45.005 0.45886 5.2074 0.18245 16.964-0.50216 21.359-1.2717 8.1634-3.3655 14.998-6.6468 21.696-5.5358 11.3-14.321 21.209-24.638 27.79-7.3949 4.7169-16.543 8.0142-26.493 9.549-3.8301 0.59078-16.789 0.73385-20.586 0.22727zm-519.85 36.008c18.356-2.0152 35.844-8.4738 51.142-18.887 25.846-17.593 41.71-41.708 46.557-70.771 1.1349-6.8054 1.5371-12.072 1.5398-20.163 0.0058-17.425-3.0821-31.788-10.179-47.342-11.185-24.516-34.077-46.242-59.216-56.197-17.208-6.8148-37.225-9.1665-56.72-6.6633-17.614 2.2616-33.051 8.1811-47.041 18.039-11.455 8.0714-22.486 19.535-30.509 31.707-20.618 31.279-24.021 69.417-9.2293 103.42 6.8494 15.747 17.911 30.348 31.713 41.86 18.212 15.19 40.353 23.963 64.294 25.474 3.2165 0.203 14.131-0.0939 17.649-0.48009zm-53.103-68.041c-0.43656-0.0618-1.7462-0.23861-2.9104-0.39299-5.9043-0.78297-11.908-3.0741-16.755-6.3944-2.7907-1.9116-7.2858-6.4593-9.09-9.1964-4.8712-7.3902-6.9093-15.088-6.9-26.061 0.0111-13.155 3.6522-22.99 11.391-30.771 7.7866-7.8284 18.116-11.585 30.482-11.086 11.618 0.46895 20.216 3.9108 27.142 10.865 3.108 3.121 6.7696 8.1651 6.2816 8.6532-0.3377 0.33771-17.485 9.2407-17.798 9.2407-0.13418 0-0.3177-0.23232-0.40782-0.51625-0.3741-1.1787-2.8038-4.4823-4.3388-5.8994-1.804-1.6654-5.0061-3.3551-7.4392-3.9256-1.8681-0.43803-5.618-0.36207-7.8662 0.15933-5.1176 1.1869-9.0795 4.794-11.076 10.084-1.3262 3.5145-1.7188 5.9395-1.879 11.607-0.17217 6.091 0.1852 9.1866 1.5244 13.205 2.7476 8.2436 8.2632 12.418 16.386 12.402 7.3292-0.0144 12.245-2.9783 15.784-9.5164 0.5368-0.99181 1.0067-1.8445 1.0442-1.8948 0.0548-0.0736 16.136 8.0476 16.472 8.3183 0.17669 0.14252-1.5992 3.0389-3.125 5.0968-5.9572 8.0345-14.178 13.284-24.147 15.418-2.3726 0.50808-10.676 0.90031-12.775 0.60344zm77.126-0.13901c-9.1969-1.0479-16.587-4.3174-22.52-9.9632-8.0964-7.7048-11.876-17.787-11.876-31.678 0-13.827 3.7507-23.629 12.112-31.654 8.468-8.1278 19.962-11.695 33.076-10.267 10.185 1.1094 17.448 4.356 23.604 10.55 3.0577 3.0771 6.8622 8.3942 6.3268 8.8424-0.1881 0.15749-17.402 9.1668-17.515 9.1668-0.0589 0-0.70995-0.98227-1.4467-2.1828-3.7345-6.0851-9.4109-8.9999-16.29-8.3651-4.2649 0.39353-7.3476 1.764-9.9688 4.4316-2.6792 2.7268-4.4868 6.7361-5.3222 11.805-0.47137 2.8601-0.4745 11.839-5e-3 14.42 0.98443 5.4109 2.8902 9.469 5.8516 12.461 3.2302 3.2632 6.5509 4.545 11.779 4.5467 7.2003 2e-3 12.467-3.1819 15.658-9.4669 0.5172-1.0186 0.97296-1.8887 1.0128-1.9335 0.0651-0.0732 16.524 8.078 16.768 8.3041 0.19414 0.18017-2.1076 3.8085-3.6314 5.7243-6.7591 8.498-16.436 13.989-26.897 15.263-2.7186 0.33098-7.7954 0.32938-10.716-3e-3z" fill="#a2cae1" stroke-width=".26458"/>
  <path d="m711.41 546.43c-6.3462-2.2413-9.5588-3.6352-17.602-7.637-25.506-12.691-47.666-35.102-61.314-62.008-13.383-26.385-18.001-54.681-13.781-84.447 0.32466-2.2901 1.1631-6.7189 1.8632-9.8418 7.8819-35.157 28.976-66.05 59.032-86.457 31.681-21.51 70.18-29.216 107.7-21.559 42.448 8.664 78.901 36.769 98.612 76.03 14.581 29.043 18.544 63.536 10.981 95.586-5.8666 24.863-18.366 47.715-35.902 65.639-11.493 11.748-22.6 19.879-38.299 28.037-6.659 3.4607-19.122 8.4498-19.69 7.882-0.11259-0.1126-2.1423-5.5513-4.5105-12.086s-9.9434-27.371-16.834-46.302-12.528-34.461-12.528-34.511c0-0.0495 0.5536-0.20765 1.2302-0.35158 8.1548-1.7347 17.101-7.9678 23.343-16.265 2.5541-3.3947 5.483-9.3857 6.4589-13.212 5.1066-20.02-3.6073-40.516-21.009-49.415-13.787-7.0506-30.549-6.3844-43.638 1.7342-3.5253 2.1867-9.899 8.4202-12.14 11.873-5.1539 7.941-7.6121 17.119-7.0971 26.497 0.52619 9.5827 3.1614 15.876 9.8032 23.41 3.6792 4.1738 5.9877 6.2554 9.8967 8.9243 2.8749 1.9628 9.1298 5.0678 12.222 6.0674l1.9714 0.63716-1.2701 3.4763c-2.0876 5.7137-9.8191 26.992-21.481 59.12-6.0458 16.655-11.101 30.395-11.233 30.532-0.13234 0.13735-2.2848-0.47228-4.7831-1.3546zm-11.361-38.168c0.35448-0.88481 3.0858-8.0816 6.0696-15.993 2.9838-7.9113 6.2058-16.428 7.1599-18.927l1.7348-4.5424-1.9907-1.696c-7.946-6.7698-13.307-13.476-17.502-21.894-4.7201-9.4712-6.8482-18.027-7.2669-29.215-1.4179-37.89 25.55-69.036 63.281-73.085 4.9123-0.52713 14.427-0.25836 19.116 0.53995 14.662 2.4964 27.322 8.8421 37.777 18.936 9.3942 9.0695 15.898 20.434 19.166 33.493 1.593 6.3647 1.8992 9.2778 1.8758 17.845-0.0182 6.6616-0.17225 8.9596-0.84863 12.664-1.6462 9.0158-5.7425 19.123-10.661 26.304-3.9478 5.7639-6.5788 8.6069-13.908 15.028l-1.2332 1.0804 4.3818 11.545c2.41 6.3499 5.4682 14.459 6.796 18.02 3.9366 10.557 4.3833 11.573 4.9886 11.341 1.1278-0.43279 8.4086-5.5889 12.229-8.6604 4.8612-3.9082 13.622-12.811 17.391-17.672 12.157-15.682 19.681-33.217 22.82-53.184 0.71882-4.5728 0.83491-6.8566 0.84662-16.655 0.0152-12.719-0.45883-17.023-3.0094-27.326-10.047-40.584-42.062-72.792-82.533-83.033-10.608-2.684-15.121-3.2019-27.813-3.1915-12.543 0.01-16.996 0.50326-27.065 2.9961-37.648 9.3207-68.136 37.359-80.698 74.215-1.7901 5.2521-3.7643 13.425-4.7085 19.493-1.0082 6.4792-1.389 20.979-0.7233 27.537 2.2349 22.015 9.6848 40.95 23.049 58.58 3.4786 4.5889 14.516 15.735 19.08 19.268 3.5713 2.7645 10.858 7.7969 11.289 7.7969 0.14503 0 0.55371-0.72395 0.9082-1.6088z" fill="#a2cae1" stroke-width=".37853"/>
  <text x="675.6756" y="177.25304" font-family="Mulish" font-size="10.583px" stroke-width=".26458" style="line-height:1.25" xml:space="preserve"><tspan x="675.6756" y="177.25304" stroke-width=".26458">+</tspan></text>
  <text x="473.06683" y="476.2301" fill="#a2cae1" font-family="Mulish" font-size="243.65px" stroke-width="6.0913" style="line-height:1.25" xml:space="preserve"><tspan x="473.06683" y="476.2301" fill="#a2cae1" font-family="Mulish" font-weight="600" stroke-width="6.0913">+</tspan></text>
 </g>
</svg>
