<?xml version="1.0" encoding="UTF-8"?>
<svg width="139.35mm" height="148.25mm" version="1.1" viewBox="0 0 139.35 148.25" xmlns="http://www.w3.org/2000/svg">
 <defs>
  <filter id="filter5658" x="-6.0898e-5" y="-5.7242e-5" width="1.0001" height="1.0001" color-interpolation-filters="sRGB">
   <feGaussianBlur stdDeviation="0.0040887744"/>
  </filter>
 </defs>
 <g transform="translate(24.144 -62.527)">
  <path transform="matrix(.86465 0 0 .86465 6.1622 18.495)" d="m40.784 222.33c-0.0532-0.0508-0.60737-0.15324-1.2314-0.22773-3.2097-0.38311-8.0099-2.2714-11.485-4.5179-2.151-1.3906-6.2833-5.2252-8.1713-7.5828-2.7816-3.4734-5.0539-7.6783-6.5243-12.073-1.6896-5.0501-2.22-7.7469-2.6168-13.305-0.66507-9.316 1.0295-17.741 5.1644-25.676 3.2174-6.1745 7.5871-11.239 12.691-14.709 4.4309-3.0123 8.6799-4.5812 13.766-5.083 14.332-1.4139 27.528 8.2564 33.219 24.343 5.1541 14.57 3.1216 31.019-5.425 43.904-2.5039 3.7748-7.1255 8.1386-11.628 10.979-1.2069 0.76141-5.4712 2.6078-6.7461 2.921-3.2687 0.80304-4.32 0.94868-7.4342 1.0298-1.9147 0.0499-3.5248 0.0492-3.5781-1e-3zm9.9463-34.906c2.7813-1.3073 5.252-4.2802 6.31-7.5926 0.57732-1.8074 0.65098-6.6284 0.13176-8.6234-0.8409-3.2309-3.6295-6.799-6.2719-8.0249-1.0735-0.49805-1.6541-0.59154-3.6937-0.59472-2.0754-3e-3 -2.6195 0.0856-3.8211 0.62352-4.9277 2.2063-7.966 9.5652-6.4769 15.688 0.54023 2.2213 1.8642 4.8835 3.0524 6.1376 2.9867 3.1524 7.1685 4.0792 10.769 2.3866zm53.283 7.4943c-8.2863-2.0594-17.11-10.595-21.498-20.795-0.25864-0.60121-0.56368-1.3117-0.67786-1.5789-2.0938-4.8994-3.3209-10.708-3.4384-16.275-0.10613-5.0286 0.29551-7.9 1.6346-11.686 2.321-6.5619 6.1589-10.606 11.753-12.384 2.2369-0.7109 6.3765-0.60167 9.298 0.24534 11.7 3.392 22.009 17.09 24.604 32.69 0.59711 3.5895 0.53065 10.735-0.12851 13.818-1.5853 7.4138-5.5527 13.025-10.787 15.255-3.2618 1.3901-7.0241 1.6383-10.759 0.70997zm2.6449-24.914c1.1964-0.43376 2.6629-1.9409 3.1861-3.2745 2.4002-6.1173-2.3218-15.681-8.0625-16.329-3.5634-0.40243-5.8479 2.0373-6.1178 6.5335-0.39417 6.5653 4.3296 13.234 9.4154 13.292 0.51629 6e-3 1.2268-0.0938 1.5788-0.22141zm-109.64-18.633c-3.6065-0.4363-5.2728-0.71646-7.0054-1.1779-6.6566-1.7727-11.758-4.7198-16.604-9.5925-2.2561-2.2683-3.1347-3.4388-4.7408-6.3158-3.1837-5.7027-4.234-11.211-3.4778-18.237 0.31672-2.9431 1.7759-7.4303 3.2823-10.093 5.0521-8.9314 14.728-15.635 25.229-17.478 4.9716-0.87281 11.347-0.71132 16.182 0.40988 11.112 2.577 20.468 10.449 24.061 20.245 1.422 3.8766 1.8439 6.1858 1.8442 10.094 7.7e-4 8.2805-3.0301 15.229-9.4543 21.675-6.7116 6.7347-16.578 10.647-26.641 10.565-1.1209-9e-3 -2.3245-0.0514-2.6748-0.0937zm9.298-25.676c4.4537-1.1373 7.3467-4.0564 8.0511-8.124 0.56679-3.2727-0.52836-6.1737-3.1996-8.4753-2.2453-1.9346-4.6619-2.7457-8.1807-2.7457-5.4887 0-10.184 4.2448-10.503 9.4947-0.13049 2.1495 0.23232 3.446 1.5455 5.5228 0.80721 1.2766 3.1556 3.2234 4.517 3.7445 2.4192 0.92594 5.5163 1.1583 7.7696 0.58289zm59.932 15.02c-0.0375-0.0312-0.58406-0.11721-1.2145-0.19116-10.811-1.2681-21.605-10.536-25.316-21.738-2.2532-6.8015-2.1156-13.421 0.38906-18.721 2.2752-4.814 7.1036-8.7532 12.445-10.153 2.5795-0.67592 7.5625-0.57278 10.703 0.22154 10.027 2.536 18.704 10.695 22.314 20.983 1.2044 3.4322 1.6513 5.9733 1.6608 9.4434 0.0127 4.6479-0.90675 7.8824-3.3728 11.866-2.1594 3.4879-6.6105 6.6398-10.848 7.6817-1.6095 0.39575-6.4872 0.83365-6.76 0.60688zm1.7868-20.41c4.7055-1.8743 4.7811-8.8146 0.14156-12.999-1.9237-1.7349-3.7304-2.473-5.9735-2.4404-3.8055 0.0552-5.9417 2.3505-5.9277 6.3693 6e-3 1.6057 0.1246 2.0856 0.90685 3.6563 0.49524 0.99441 1.2894 2.2309 1.7649 2.7477 0.92342 1.0038 2.923 2.318 4.176 2.7446 1.156 0.39361 3.8339 0.35071 4.9119-0.0787zm42.342 13.004c-4.4037-0.73303-8.8397-3.2405-13.253-7.4911-6.8604-6.6081-10.754-14.771-10.733-22.504 0.0211-7.851 4.3261-12.753 11.2-12.753 10.762 0 23.031 11.733 26.198 25.055 0.28166 1.1848 0.42615 2.893 0.42858 5.0667 3e-3 2.8965-0.0748 3.5062-0.66845 5.2226-0.79434 2.2966-1.7424 3.7948-3.1831 5.0299-2.5778 2.21-6.0363 3.0319-9.9891 2.3739zm-0.3308-16.746c1.2919-0.75114 1.6837-1.7304 1.552-3.8792-0.14414-2.3515-1.1823-4.5091-3.0722-6.3847-1.8244-1.8106-3.1997-2.4693-5.1906-2.4859-1.2173-0.0101-1.6917 0.0948-2.1368 0.47276-1.9148 1.6262-1.6249 5.4684 0.66024 8.7514 2.2345 3.2101 5.9662 4.817 8.1873 3.5256zm-33.55-23.316c-6.9489-1.7026-13.696-6.4029-17.958-12.511-6.5312-9.36-5.7303-18.748 1.8942-22.206 1.7627-0.79948 2.1034-0.86692 4.8516-0.96035 3.7551-0.12767 6.3599 0.4393 10.32 2.2463 7.7016 3.5142 13.991 10.341 16.467 17.872 0.80271 2.4421 0.86421 7.2172 0.11764 9.1346-1.1172 2.8694-3.3774 5.1047-6.247 6.1784-2.0658 0.77297-6.7938 0.89637-9.446 0.24655zm1.7651-13.557c1.3626-0.66257 1.9153-1.5587 1.8924-3.0684-0.0543-3.5835-4.0199-7.4588-8.022-7.8395-1.1536-0.10973-1.5064-0.04031-2.2587 0.44456-2.2752 1.4663-2.2582 4.1806 0.0457 7.2993 1.2688 1.7175 4.6726 3.5718 6.5775 3.5833 0.49038 3e-3 1.2847-0.18574 1.7651-0.41933zm-48.128 12.935c-2.8418-0.40914-4.3067-0.73897-6.6232-1.4912-5.0969-1.6552-9.7271-4.4995-13.64-8.3791-3.3876-3.3587-5.0144-5.8448-6.4954-9.9265-1.4806-4.0807-1.3253-9.0565 0.39301-12.586 2.7157-5.5784 9.6452-9.2734 17.45-9.3047 11.969-0.04791 23.884 6.5825 29.231 16.267 4.302 7.7915 3.5883 15.137-1.9873 20.454-3.1067 2.9625-6.9878 4.5553-12.431 5.1016-2.6888 0.26985-3.1585 0.25908-5.8971-0.1352zm4.2032-16.403c1.2248-0.50582 2.0049-1.2685 2.5352-2.4789 1.5659-3.5737-2.3313-8.6124-7.4515-9.6339-1.9754-0.39412-3.6812-0.33014-4.9424 0.18537-2.1188 0.86604-3.5113 3.1351-3.1363 5.1103 0.99888 5.2612 7.9424 8.9037 12.995 6.8171z" fill="#fff" filter="url(#filter5658)" stroke-width=".24876"/>
 </g>
</svg>
