<?xml version="1.0" encoding="UTF-8"?>
<svg width="74.614mm" height="74.701mm" version="1.1" viewBox="0 0 74.614 74.701" xmlns="http://www.w3.org/2000/svg">
 <g transform="translate(44.345 12.718)">
  <path d="m-36.042 61.809c-1.9776-0.33054-3.862-1.3243-5.3776-2.836-1.1922-1.1892-1.9678-2.4431-2.5274-4.0862l-0.39781-1.1681v-58.26l0.39781-1.1681c0.55868-1.6405 1.3342-2.8956 2.5247-4.0862 1.1906-1.1906 2.4457-1.966 4.0862-2.5247l1.1681-0.39781h58.26l1.1681 0.39781c1.6405 0.55868 2.8956 1.3342 4.0862 2.5247s1.966 2.4457 2.5247 4.0862l0.3978 1.1681v58.26l-0.3978 1.1681c-0.55868 1.6405-1.3342 2.8956-2.5247 4.0862-1.192 1.192-2.4484 1.9677-4.0862 2.5229l-1.1681 0.39594-17.935 0.0914 0.097-8.7923c0.0534-4.8358 0.097-10.851 0.097-13.368v-4.5754h4.7527c5.2004 0 5.395-0.0285 5.8213-0.85274 0.18276-0.35341 1.2532-8.5036 1.2532-9.5417 0-0.19179-0.18986-0.5762-0.42191-0.85425l-0.4219-0.50554-11.056-0.146-0.0398-3.5044c-0.0488-4.2878 0.0981-5.8316 0.6599-6.9357 0.43823-0.86123 1.336-1.5936 2.3474-1.9149 0.30567-0.0971 2.0263-0.20885 3.9946-0.25946 4.9165-0.12641 4.6866 0.15429 4.6181-5.6375-0.0394-3.3334-0.0762-3.8424-0.30138-4.1738-0.52729-0.77581-0.64754-0.79192-5.7906-0.77601-4.3213 0.0134-4.8988 0.0444-6.2912 0.33852-4.6296 0.97773-7.9341 3.6097-9.6216 7.6633-1.0458 2.512-1.3236 4.846-1.3271 11.148l-2e-3 4.1249h-7.476l-0.99289 0.9929v4.7673c0 5.234 0.026 5.4083 0.87131 5.8455 0.34941 0.18069 1.1022 0.22149 4.0859 0.22149h3.6576l-1.2e-4 4.0519c-7e-5 2.2286-0.0437 8.2407-0.097 13.36l-0.0968 9.3084-13.884-0.017c-7.6362-9e-3 -14.221-0.0735-14.634-0.14245z" fill="#fff" stroke-width=".14602"/>
 </g>
</svg>
