<?xml version="1.0" encoding="UTF-8"?>
<svg width="74.614mm" height="74.701mm" version="1.1" viewBox="0 0 74.614 74.701" xmlns="http://www.w3.org/2000/svg">
 <g transform="translate(44.345 12.718)">
  <path d="m-19.958 59.563c-7.2298-2.6877-13.528-7.6701-17.847-14.118-1.3936-2.0805-3.4775-6.3585-4.2454-8.7151-2.4227-7.4355-2.4168-15.248 0.01717-22.645 4.5498-13.827 16.848-23.584 31.527-25.015 10.822-1.0549 21.838 2.9218 29.603 10.687 7.6127 7.6126 11.532 18.486 10.467 29.04-0.25263 2.5049-0.92756 5.7442-1.6623 7.9777-0.766 2.3287-2.8613 6.6159-4.2374 8.6703-3.6893 5.5077-8.5618 9.7597-14.469 12.626-4.1931 2.0346-5.7376 2.3824-6.6283 1.4926-0.35764-0.35733-0.37042-0.55338-0.45959-7.0531-0.088181-6.4225-0.10766-6.7303-0.49668-7.8225-0.22272-0.62528-0.71452-1.5912-1.0929-2.1465-0.45842-0.67275-0.61368-1.0311-0.46531-1.074 0.12249-0.035636 1.0491-0.19795 2.0592-0.361 3.5591-0.57487 6.9762-2.0096 9.1264-3.8318 2.3934-2.0283 4.1331-5.2874 4.7722-8.9402 1.0101-5.7732 0.13206-10.325-2.6642-13.811l-0.67875-0.84599 0.3191-1.1508c0.4373-1.577 0.42735-4.3696-0.02211-6.2448-0.53182-2.2181-0.61825-2.347-1.5739-2.347-1.7825 0-4.6053 1.0275-7.4159 2.6995l-1.8577 1.1051-1.358-0.31282c-2.7579-0.6353-4.154-0.77316-7.8294-0.77316s-5.0715 0.13812-7.8294 0.77316l-1.358 0.31282-1.8577-1.1051c-2.8106-1.6719-5.6334-2.6995-7.4159-2.6995-0.9557 0-1.0421 0.12876-1.5739 2.347-0.44958 1.8752-0.45953 4.6678-0.02211 6.2448l0.3191 1.1508-0.67875 0.84599c-2.2473 2.801-3.2862 6.3667-3.0406 10.436 0.39273 6.506 2.4654 10.678 6.6677 13.421 2.0015 1.3066 4.9265 2.3513 7.8696 2.8108 2.2671 0.35392 2.1276 0.23047 1.391 1.2336-0.64188 0.87442-1.4678 2.8918-1.4748 3.6021-0.0088 0.92148-4.1914 1.6137-6.2224 1.0298-1.8793-0.54022-3.2127-1.6214-4.5198-3.6647-0.83322-1.3025-1.9949-2.3921-3.2813-3.0778-2.137-1.139-4.7869-0.76291-3.7711 0.53517 0.11718 0.14983 0.6483 0.59198 1.1803 0.98277 1.6581 1.218 2.6765 2.4963 3.7535 4.711 1.1446 2.3539 2.0779 3.4156 3.7403 4.2548 1.7344 0.87554 3.0794 1.111 5.7063 0.99908 1.2506-0.05306 2.4902-0.14931 2.7547-0.21304l0.48099-0.11601v3.7049c0 2.2065-0.07283 3.8409-0.18011 4.0414-0.23632 0.44158-1.0767 0.86701-1.6914 0.85632-0.26932-0.0052-1.0945-0.23333-1.8337-0.50815zm-0.57493-10.739c-0.46277-0.33837-0.22625-0.81236 0.40534-0.81236 0.27984 0 0.61384 0.12642 0.74223 0.28127 0.19834 0.23905 0.18339 0.31792-0.09944 0.52474-0.41694 0.30484-0.63804 0.30619-1.0481 0.0052zm2.706-0.28533c-0.43618-0.27807 0.02003-0.78937 0.7041-0.78937 0.66529 0 0.8362 0.27118 0.42808 0.67931-0.31775 0.31774-0.74173 0.35897-1.1322 0.10977zm-5.77-0.26244c-0.30815-0.37127-0.08706-0.78931 0.41743-0.78931 0.52172 0 1.0019 0.43903 0.86635 0.79215-0.12829 0.33434-1.0056 0.33241-1.2838-2e-3zm-2.4155-1.349c-0.11542-0.11549-0.20989-0.39091-0.20989-0.61214 0-0.30317 0.09911-0.4023 0.40228-0.4023 0.51258 0 0.82205 0.30947 0.82205 0.82206 0 0.30315-0.09911 0.40225-0.40228 0.40225-0.22126 0-0.49673-0.09442-0.61216-0.20992zm-1.818-2.331c-0.15371-0.33733-0.15168-0.49171 0.0086-0.65194 0.30407-0.30408 0.79916 0.05567 0.86783 0.63061 0.0443 0.37091-0.01743 0.46333-0.30983 0.46333-0.22082 0-0.44478-0.1748-0.56656-0.442zm-1.4583-2.0242c-0.17787-0.56043 0.18531-0.81103 0.61362-0.42343 0.48011 0.43451 0.44787 0.79082-0.07153 0.79082-0.27866 0-0.46571-0.12668-0.54208-0.3674zm-1.578-1.3969c-0.06467-0.10457-0.02775-0.27989 0.08194-0.38958 0.21967-0.2198 0.72637 0.0052 0.84988 0.37359 0.08737 0.26215-0.7706 0.27687-0.93183 0.01561z" fill="#fff" stroke-width=".1749"/>
 </g>
</svg>
