<?xml version="1.0" encoding="UTF-8"?>
<svg width="74.614mm" height="74.701mm" version="1.1" viewBox="0 0 74.614 74.701" xmlns="http://www.w3.org/2000/svg">
 <g transform="translate(44.345 12.718)">
  <path d="m-0.3905 61.417c-2.261-3e-3 -4.6705-1.0796-6.1558-2.7504-0.76689-0.86271-3.5824-5.3413-5.0405-8.0177-1.2729-2.3366-2.1019-4.0971-3.2474-6.8963-1.818-4.4428-3.125-6.5973-5.7026-9.4003-5.031-5.471-6.5421-7.2702-8.3176-12.199-1.2065-2.7034-0.90643-4.4719 0.05686-7.2425 0.15756-0.43923 0.59722-1.4956 0.97702-2.3475 0.66001-1.4804 1.3574-3.5946 1.2997-3.94-0.02486-0.14885-1.1166-2.005-1.2281-2.088-0.02636-0.019605-0.24102 0.08171-0.47704 0.22515-0.55204 0.3355-0.89896 0.38936-1.2365 0.19191-0.30677-0.17941-5.2189-8.8658-5.305-9.381-0.02869-0.17178 0.04337-0.42086 0.16601-0.57387 0.19858-0.24775 13.02-8.1283 13.546-8.3256 0.50926-0.19121 0.84694 0.23002 3.6619 4.5679 1.5081 2.324 2.7661 4.3698 2.7955 4.5462 0.0608 0.36402-0.20495 0.75642-0.72352 1.0683-0.18904 0.1137-0.33559 0.23832-0.32568 0.27689 0.0099 0.038582 0.31407 0.5182 0.67589 1.0658l0.65787 0.99567 0.91117 0.22245c0.50114 0.12235 1.492 0.26289 2.2019 0.31231 0.7099 0.049423 1.7942 0.12564 2.4096 0.16937 5.2465 0.25107 8.551 4.0081 11.098 8.2202 1.0158 1.7174 1.8035 3.4694 3.1465 6.9982 0.84328 2.2158 1.5726 3.9503 1.9474 4.6319 0.91132 1.657 2.3066 3.5652 4.4098 6.0309 3.2834 3.8493 5.3664 6.8726 8.5625 12.428l0.79414 1.3803 0.28168 1.6986c0.25516 1.5392 0.26731 1.7887 0.12918 2.6576-0.26564 1.6711-1.0507 3.2945-2.0699 4.28-0.31555 0.30512-1.8037 1.3014-3.5455 2.3735-8.3175 5.1197-13.318 8.1198-13.957 8.374-0.77025 0.3063-1.5335 0.4489-2.3967 0.44776z" fill="#fff" stroke-width=".11479"/>
 </g>
</svg>
