<?xml version="1.0" encoding="UTF-8"?>
<svg width="52.259mm" height="52.236mm" version="1.1" viewBox="0 0 52.259 52.236" xmlns="http://www.w3.org/2000/svg">
 <g transform="translate(-61.844 -83.673)">
  <path d="m73.863 135.84c-0.91254-0.11696-2.03-0.37746-2.8875-0.67316-4.3146-1.4878-7.6122-5.0754-8.7156-9.4823-0.42407-1.6936-0.41287-1.2648-0.41445-15.869-2e-3 -14.759-0.016-14.242 0.44689-16.037 0.6056-2.3488 1.7532-4.3304 3.5444-6.1203 1.1911-1.1903 2.0522-1.8119 3.5098-2.5337 1.2508-0.61942 2.1003-0.92089 3.4294-1.217l0.90049-0.2006 13.773-0.02489c9.8039-0.01772 13.989-8.47e-4 14.52 0.05853 4.1005 0.45813 7.5999 2.6023 9.9279 6.083 1.0946 1.6366 1.8957 3.8817 2.1234 5.9506 0.11038 1.0033 0.11073 27.03 3.7e-4 28.038-0.1678 1.5324-0.66832 3.2393-1.3456 4.5889-0.44645 0.88957-0.61666 1.1636-1.2864 2.0709-2.1827 2.9569-5.6891 4.9572-9.4196 5.3734-0.82196 0.0917-27.389 0.0871-28.107-5e-3zm28.337-4.5011c3.3553-0.67758 6.0105-3.0346 7.0323-6.2424 0.43067-1.352 0.41529-0.78014 0.4135-15.378l-2e-3 -13.475-0.16165-0.76397c-0.28473-1.3457-0.64895-2.2053-1.4182-3.3472-1.3246-1.9664-3.4694-3.3722-5.8705-3.8478-0.43403-0.08598-2.8436-0.10351-14.221-0.10351-12.743 0-13.741 0.0091-14.3 0.13005-3.523 0.76139-6.1798 3.3058-7.1094 6.8084l-0.19923 0.75072-0.0238 13.437c-0.017 9.5985 1.5e-4 13.648 0.0601 14.176 0.4722 4.1576 4.0117 7.6011 8.1676 7.9459 0.3313 0.0275 6.5484 0.0458 13.816 0.0407 11.901-8e-3 13.273-0.0214 13.817-0.13114zm-14.937-8.5276c-1.9422-0.17356-3.3254-0.53198-4.865-1.2606-2.8777-1.3619-5.2774-3.9004-6.4356-6.8076-0.70346-1.7659-0.9357-2.9858-0.93533-4.913 3.7e-4 -1.942 0.22225-3.1226 0.92217-4.9067 1.9607-4.9979 7.1647-8.3456 12.583-8.0945 4.8611 0.22528 9.144 3.0536 11.202 7.3978 1.3601 2.8704 1.6272 6.2087 0.74109 9.2613-1.2431 4.2825-4.7891 7.7458-9.0982 8.886-1.2135 0.32111-3.1323 0.52503-4.1144 0.43726zm2.2239-4.0969c3.8125-0.66483 6.7756-3.6352 7.4098-7.4277 0.18085-1.0816 0.12066-2.6758-0.13813-3.6588-0.78784-2.9927-2.9931-5.384-5.8582-6.3525-2.1812-0.73729-4.6914-0.60465-6.7174 0.35497-1.8291 0.86634-3.3662 2.3856-4.2964 4.2464-1.0237 2.0479-1.1907 4.5342-0.45592 6.7902 0.80435 2.4696 2.8995 4.6518 5.381 5.6047 1.3209 0.5072 3.2554 0.69044 4.6753 0.44283zm12.3-20.42c-0.80121-0.16802-1.6725-0.8506-2.0458-1.6027-0.39903-0.80395-0.41138-1.8235-0.03186-2.6309 0.23398-0.49778 0.87406-1.1503 1.3635-1.3899 1.1547-0.5654 2.5411-0.34991 3.438 0.53438 1.3519 1.3328 1.1928 3.4251-0.34865 4.5833-0.60263 0.4528-1.6076 0.66687-2.3752 0.50591z" fill="#fff" stroke-width=".074652"/>
 </g>
</svg>
