<?xml version="1.0" encoding="UTF-8"?>
<svg width="74.614mm" height="74.701mm" version="1.1" viewBox="0 0 74.614 74.701" xmlns="http://www.w3.org/2000/svg">
 <g transform="translate(44.345 12.718)">
  <path d="m-11.654 61.466c-5.3811-0.73361-10.886-2.796-15.354-5.7519-2.4759-1.6382-3.269-2.2818-5.4512-4.424-14.792-14.521-14.744-38.273 0.10679-52.597 4.2477-4.097 8.6883-6.8001 14.114-8.5919 3.4635-1.1436 8.4159-1.9525 11.083-1.81l1.291 0.06894-4.9851 5.8575-1.3009 0.26455c-4.4056 0.89591-9.0815 3.4485-12.694 6.9298-10.543 10.159-10.464 26.678 0.1789 37.351 4.1581 4.1699 9.4252 6.8997 15.293 7.926 2.5929 0.45355 7.0665 0.4493 9.6297-0.0092 6.3287-1.1319 12.335-4.612 16.129-9.3443 7.7265-9.6396 7.8565-22.39 0.33054-32.399l-1.4437-1.9201-0.21761-3.7922c-0.11968-2.0857-0.17754-3.7921-0.12857-3.7919 0.28656 8.235e-4 2.7499 2.0714 4.2536 3.5751 6.9036 6.9036 10.773 16.248 10.773 26.019 0 16.779-11.275 31.352-27.523 35.573-4.4243 1.1495-9.6517 1.4714-14.083 0.86724zm6.0368-32.014c-6.4972-0.94989-10.608-6.2313-9.4066-12.086 0.68821-3.3551 1.2643-4.1802 12.666-18.141 2.1569-2.641 4.3867-5.4073 4.9551-6.1472 1.0497-1.3666 1.7809-1.7104 2.2828-1.0733 0.23526 0.29862 0.8223 18.2 0.81171 24.752-0.00654 3.8928-0.026979 4.0794-0.62707 5.6546-1.0186 2.6739-2.1875 4.2255-4.1283 5.4799-1.8633 1.2043-4.575 1.8502-6.5534 1.561z" fill="#fff" stroke-width=".2176"/>
 </g>
</svg>
