<?xml version="1.0" encoding="UTF-8"?>
<svg width="52.259mm" height="52.236mm" version="1.1" viewBox="0 0 52.259 52.236" xmlns="http://www.w3.org/2000/svg">
 <g transform="translate(-61.844 -83.673)" fill="#fff">
  <path d="m180.81 130.59c-0.36583-0.0599-0.74891-0.21565-1.0429-0.42418-0.20073-0.14237-0.4954-0.46361-0.62742-0.68402-0.48837-0.81523-0.45365-1.9462 0.0842-2.7448 0.12486-0.18541 0.39176-0.46131 0.56944-0.58865 0.20603-0.14765 0.55083-0.30659 0.82086-0.37837 0.2099-0.0558 0.27866-0.0626 0.64599-0.0641 0.4596-2e-3 0.65371 0.0338 1.0144 0.18584 0.20532 0.0865 0.57033 0.31958 0.60646 0.38712 0.0432 0.0806 0.0246 0.17532-0.0588 0.29913-0.13928 0.20681-0.19176 0.21194-0.45202 0.0441-0.4151-0.26763-0.68569-0.35467-1.0982-0.35326-0.3434 9.7e-4 -0.52692 0.0434-0.82892 0.1908-0.48666 0.23749-0.83608 0.70378-0.95655 1.2765-0.0457 0.21775-0.0448 0.63517 2e-3 0.86198 0.12481 0.60426 0.5432 1.1094 1.0952 1.3222 0.29107 0.11224 0.60606 0.15534 0.89678 0.12267 0.40401-0.0453 0.68562-0.15285 1.0106-0.38566 0.25146-0.18015 0.31463-0.17975 0.44826 3e-3 0.0399 0.0546 0.0592 0.1115 0.0592 0.17499 0 0.0822-0.0144 0.10752-0.1143 0.20097-0.23191 0.21688-0.71612 0.45126-1.0955 0.53026-0.25825 0.0538-0.72511 0.065-0.97873 0.0235zm-13.163-0.027c-0.52081-0.0939-0.92957-0.29707-1.2853-0.63871-0.61574-0.59133-0.86367-1.5659-0.63041-2.4779 0.22734-0.88893 0.83904-1.4989 1.7043-1.6995 0.27692-0.0642 0.84596-0.0581 1.1027 0.0117 0.83677 0.22779 1.3212 0.91566 1.3906 1.9746 0.0161 0.24456-0.0123 0.34955-0.10769 0.40066-0.0299 0.016-0.63769 0.0242-1.7883 0.0242h-1.7431l0.016 0.17629c0.024 0.26425 0.0951 0.51459 0.21661 0.76333 0.0928 0.1899 0.14132 0.25519 0.32521 0.43804 0.18386 0.18283 0.24906 0.23067 0.43727 0.32091 0.30329 0.1454 0.49029 0.18862 0.8202 0.18958 0.37081 9.7e-4 0.60679-0.0532 0.92784-0.21332 0.0904-0.0451 0.21197-0.11642 0.27013-0.15849 0.19133-0.13834 0.26301-0.12846 0.37749 0.052 0.0996 0.15711 0.0933 0.24848-0.0245 0.35728-0.11835 0.10927-0.49613 0.30553-0.74056 0.38476-0.40107 0.12999-0.87567 0.16534-1.2685 0.0945zm1.6246-2.8878c0.0211-0.0547-0.0361-0.3764-0.0989-0.55766-0.078-0.22501-0.19953-0.41361-0.36526-0.56704-0.2526-0.23386-0.50723-0.32871-0.87852-0.32727-0.64739 3e-3 -1.1691 0.33897-1.4439 0.9311-0.0872 0.18797-0.17454 0.49977-0.15072 0.53829 7e-3 0.0105 0.66691 0.0192 1.4676 0.0192 1.2954 0 1.4573-4e-3 1.4698-0.0366zm18.806 2.8907c-0.85294-0.15462-1.5433-0.70009-1.8633-1.4722-0.16912-0.40811-0.22963-0.96249-0.15298-1.4018 0.15033-0.86178 0.77628-1.5863 1.6114-1.8652 0.31568-0.10543 0.43729-0.12286 0.84567-0.12116 0.34102 9.7e-4 0.41582 9e-3 0.6225 0.0637 0.71953 0.19026 1.3347 0.70081 1.6209 1.3453 0.4668 1.051 0.14332 2.3188-0.76349 2.9924-0.53868 0.40011-1.275 0.5761-1.9207 0.45906zm0.6793-0.53076c0.83516-0.12958 1.43-0.76648 1.5487-1.6581 0.1169-0.87855-0.37145-1.7119-1.175-2.0052-1.0007-0.36522-2.074 0.18165-2.4012 1.2234-0.0472 0.15023-0.0549 0.22366-0.0547 0.51579 3.3e-4 0.43763 0.0697 0.70471 0.27329 1.0519 0.12008 0.20479 0.46792 0.54337 0.67782 0.65976 0.3603 0.1998 0.7459 0.27221 1.1311 0.21244zm4.8355 0.53169c-0.62395-0.10289-1.131-0.44141-1.3592-0.90742-0.18564-0.37916-0.17724-0.28371-0.18557-2.1061-5e-3 -1.1104 4.2e-4 -1.6413 0.0173-1.6729 0.0482-0.0899 0.35994-0.11957 0.49541-0.0471 0.0873 0.0467 0.0923 0.13388 0.0923 1.5809 0 1.5827-9.7e-4 1.5691 0.16938 1.9 0.2396 0.46474 0.74599 0.72987 1.3218 0.69204 0.51564-0.0338 0.90385-0.27368 1.1253-0.69514 0.16374-0.3116 0.16225-0.29495 0.17266-1.9315l0.01-1.4714 0.0587-0.0552c0.0515-0.0483 0.0818-0.0552 0.24475-0.0552 0.16198 0 0.19289 7e-3 0.23921 0.0532l0.0532 0.0532v1.5673c0 1.4426-4e-3 1.5823-0.0435 1.7552-0.0844 0.36445-0.23139 0.62665-0.48576 0.86661-0.19649 0.18535-0.53862 0.36261-0.84491 0.43775-0.26241 0.0644-0.7989 0.082-1.0806 0.0356zm5.211-0.0132c-0.72199-0.12184-1.28-0.62508-1.531-1.3807-0.13098-0.39432-0.16373-0.65557-0.15043-1.2003 0.01-0.40321 0.019-0.48962 0.0742-0.69534 0.27408-1.0231 1.0729-1.6292 2.0811-1.5791 0.55989 0.0279 1.0324 0.2979 1.3412 0.76655l0.11749 0.17834-7e-3 -1.3563c-6e-3 -1.1127-9.7e-4 -1.3585 0.0243-1.3683 0.12052-0.0462 0.43965 0.0183 0.5353 0.10811l0.0559 0.0525v3.1437c0 3.0823-9.6e-4 3.1446-0.0456 3.1893-0.0892 0.0892-0.36619 0.091-0.47477 3e-3 -0.0462-0.0374-0.0538-0.0694-0.0623-0.26402-5e-3 -0.12176 2e-3 -0.29441 0.0156-0.38364 0.0139-0.0893 0.0219-0.16565 0.0177-0.16979-4e-3 -4e-3 -0.0478 0.0612-0.0969 0.14528-0.23175 0.39627-0.66728 0.70001-1.1438 0.79771-0.18897 0.0388-0.56039 0.0453-0.75079 0.0131zm0.83948-0.56492c0.54921-0.16792 0.90264-0.61413 1.0337-1.305 0.0547-0.28832 0.0502-0.79625-0.01-1.078-0.13892-0.65483-0.51451-1.1263-1.0247-1.2864-0.24205-0.0759-0.61656-0.0737-0.85721 5e-3 -0.43221 0.14154-0.78571 0.50595-0.95171 0.98108-0.10316 0.29528-0.13684 0.54722-0.12338 0.92309 0.0364 1.0168 0.52234 1.6977 1.2971 1.8174 0.14062 0.0217 0.47624-9e-3 0.63584-0.0573zm-14.81 0.52829c-0.27106-0.0729-0.45872-0.22079-0.57745-0.45508-0.1316-0.25972-0.12814-0.17283-0.13024-3.2668l-2e-3 -2.8535 0.18328 9.7e-4c0.21203 2e-3 0.36938 0.0656 0.40738 0.16551 0.0139 0.0366 0.0225 1.0774 0.0225 2.7197 0 2.9755-8e-3 2.8311 0.16188 3.0008 0.0831 0.0831 0.15809 0.11397 0.36074 0.14855 0.0654 0.0111 0.0971 0.0326 0.12332 0.0833 0.0686 0.13268 0.032 0.42138-0.0596 0.47042-0.0626 0.0335-0.34298 0.0253-0.48993-0.0142zm-13.642-0.0313c-0.0404-0.0247-0.11177-0.0831-0.15856-0.1299-0.10237-0.10236-0.11317-0.20557-0.0324-0.3094 0.0401-0.0515 1.3934-1.6709 1.5594-1.866 0.0267-0.0314-0.0779-0.16586-0.76881-0.98661-0.43987-0.52261-0.8148-0.98405-0.83314-1.0254-0.046-0.10397-0.0153-0.17123 0.13188-0.28756 0.14637-0.11569 0.20785-0.13372 0.29584-0.0867 0.0368 0.0197 0.41069 0.44802 0.83059 0.95181 0.41989 0.50381 0.76873 0.91594 0.7752 0.91586 7e-3 0 0.36448-0.42236 0.79561-0.9384 0.51463-0.616 0.80307-0.94308 0.83979-0.9523 0.0904-0.0227 0.1541 6e-3 0.28496 0.12653 0.10574 0.0978 0.12332 0.12633 0.12332 0.2004 0 0.0776-0.0428 0.13744-0.42285 0.59074-1.2425 1.482-1.2203 1.4543-1.1909 1.4902 0.0155 0.0189 0.37534 0.44737 0.79975 0.95226 0.4244 0.50489 0.78665 0.95247 0.805 0.99464 0.0425 0.0976 9e-3 0.17157-0.1283 0.28168-0.14361 0.1154-0.20549 0.13246-0.29975 0.0827-0.0498-0.0263-0.35672-0.37414-0.83473-0.94603-0.41577-0.49742-0.76315-0.90439-0.77193-0.90439-9e-3 0-0.35652 0.40697-0.77271 0.90439-0.41618 0.49742-0.78521 0.92283-0.82005 0.94538-0.0807 0.0522-0.11656 0.0515-0.20728-4e-3zm6.275-0.0134c-0.70684-0.15586-1.1059-0.63978-1.1869-1.4393-0.017-0.1677-0.0232-0.9529-0.0184-2.3393l7e-3 -2.0869 0.0659-0.0567c0.057-0.049 0.0897-0.0567 0.24185-0.0567 0.15548 0 0.18265 7e-3 0.23361 0.0576l0.0576 0.0576v1.2212l0.53845 7e-3c0.53299 7e-3 0.53905 8e-3 0.59901 0.064 0.0514 0.0484 0.0605 0.0773 0.0605 0.1912 0 0.0971-0.0125 0.14958-0.0449 0.18971-0.0445 0.055-0.049 0.0555-0.60055 0.0628l-0.55571 8e-3 0.01 1.3315c0.0103 1.4679 0.0122 1.4885 0.16211 1.7698 0.16193 0.30381 0.40841 0.44182 0.89758 0.50259 0.17286 0.0215 0.22609 0.0865 0.22609 0.27637 0 0.11678-0.0109 0.1645-0.0487 0.21249-0.0469 0.0596-0.0574 0.0618-0.27601 0.0601-0.12504-9.7e-4 -0.29076-0.0159-0.36828-0.033zm-17.492-0.0336-0.0555-0.0449-7e-3 -3.1557c-4e-3 -1.7356-4.8e-4 -3.1906 7e-3 -3.2334 0.0248-0.13745 0.0798-0.16899 0.29504-0.16899 0.1761 0 0.19425 5e-3 0.25253 0.0646 0.0345 0.0355 0.8186 1.2402 1.7424 2.6771 0.92377 1.4369 1.6875 2.6129 1.6972 2.6133 0.01 4.7e-4 0.0176-1.1783 0.0176-2.6194v-2.6203l0.0576-0.0576c0.0516-0.0516 0.0773-0.0576 0.24664-0.0576 0.21445 0 0.26961 0.0316 0.2943 0.16899 8e-3 0.0427 0.0109 1.4977 7e-3 3.2334l-7e-3 3.1557-0.0555 0.0449c-0.0442 0.0358-0.0933 0.0449-0.24257 0.0449-0.17319 0-0.19185-5e-3 -0.25026-0.0646-0.0347-0.0355-0.81879-1.2401-1.7424-2.6769-0.92358-1.4367-1.6872-2.6127-1.6969-2.6133-0.01-5.8e-4 -0.0176 1.178-0.0176 2.6192v2.6203l-0.0576 0.0576c-0.0515 0.0515-0.0775 0.0576-0.24405 0.0576-0.14852 0-0.19765-9e-3 -0.24185-0.0449zm20.047-10.198c-2.0601-0.11714-4.0817-0.78735-5.794-1.9208-2.262-1.4974-3.9563-3.7284-4.7718-6.2834l-0.11104-0.34787-0.12804 0.24216c-0.61586 1.1647-1.4135 2.0815-2.4457 2.8112-2.5574 1.8078-5.9684 1.8531-8.582 0.1141-1.9-1.2642-3.1198-3.2387-3.4063-5.5137-0.0196-0.15628-0.0306-0.49196-0.0295-0.91613 2e-3 -0.72155 0.0318-1.016 0.1663-1.6209 0.24891-1.1196 0.77138-2.2012 1.5092-3.1243 0.23794-0.29767 0.78134-0.85171 1.0678-1.0888 1.5124-1.2514 3.378-1.8792 5.2792-1.7765 1.4312 0.0774 2.7181 0.51101 3.9092 1.3175 1.0304 0.69763 1.9201 1.6992 2.4965 2.8104 0.0821 0.15826 0.15314 0.28775 0.15789 0.28775 5e-3 0 0.0525-0.14006 0.1062-0.31124 0.44415-1.4168 1.2242-2.8297 2.2275-4.0345 0.30222-0.36294 1.0977-1.1567 1.4602-1.4569 1.8492-1.5318 3.9564-2.4273 6.3319-2.6907 0.76729-0.0851 1.8954-0.06888 2.7355 0.03932 2.0394 0.26264 4.0342 1.0979 5.6827 2.3795 1.1907 0.92566 2.273 2.1676 3.0079 3.4516 0.37195 0.64987 0.78761 1.586 1.0003 2.2529l0.088 0.27588 0.14844-0.27001c0.30933-0.5626 0.64437-1.0427 1.0254-1.4694 1.74-1.9483 4.2832-2.8859 6.8187-2.5137 2.8774 0.42232 5.3032 2.4783 6.1961 5.2518 0.53958 1.6759 0.48167 3.4895-0.16343 5.1186-0.6067 1.532-1.7014 2.8458-3.0972 3.7166-1.2856 0.80213-2.7369 1.1972-4.2369 1.1533-1.1672-0.0341-2.1635-0.28471-3.2041-0.80584-1.414-0.70815-2.6096-1.8755-3.3462-3.2674-0.0705-0.13324-0.13171-0.24225-0.13598-0.24225-5e-3 0-0.0521 0.13478-0.10644 0.29951-0.58535 1.7767-1.547 3.3386-2.8758 4.6708-0.58912 0.59065-1.0689 0.99187-1.7053 1.4261-2.151 1.4677-4.703 2.1817-7.2752 2.0354zm1.4742-4.5218c0.88421-0.10123 1.6311-0.32094 2.4313-0.71517 0.53534-0.26375 1.0608-0.60546 1.4841-0.96507 0.19038-0.16177 0.65971-0.63337 0.82815-0.83214 1.2992-1.5333 1.9013-3.5032 1.6908-5.5321-0.33585-3.2373-2.8033-5.8608-6.0198-6.4005-2.1222-0.3561-4.2738 0.21831-5.9198 1.5804-0.29538 0.24445-0.73803 0.69474-0.98654 1.0036-0.88447 1.0992-1.4114 2.3622-1.5776 3.7812-0.0421 0.35959-0.0485 1.1813-0.0121 1.5528 0.22705 2.3143 1.5361 4.3749 3.5305 5.5575 0.87058 0.5162 1.8471 0.84419 2.8832 0.9684 0.38017 0.0455 1.274 0.0461 1.6678 9.7e-4zm-18.675-4.109c0.73626-0.1003 1.3204-0.38803 1.8334-0.90309 0.6284-0.63095 0.94132-1.4468 0.90627-2.3628-0.0192-0.50245-0.11756-0.90086-0.32326-1.31-0.43328-0.86173-1.2027-1.4547-2.1721-1.674-0.24982-0.0565-0.88807-0.0708-1.1608-0.026-1.186 0.19487-2.1129 0.96432-2.4964 2.0722-0.13599 0.39283-0.16876 0.60172-0.16739 1.067 9.6e-4 0.3313 0.0112 0.45776 0.0527 0.65149 0.13385 0.62395 0.41232 1.1428 0.84898 1.582 0.5306 0.53361 1.1504 0.82497 1.962 0.92231 0.17032 0.0204 0.48892 0.012 0.71646-0.019zm36.406 0.01c1.2128-0.1315 2.2308-0.93305 2.633-2.0732 0.15477-0.43866 0.21631-0.94499 0.169-1.3904-0.0847-0.79779-0.4054-1.4605-0.96388-1.992-0.46931-0.4466-1.0289-0.72112-1.692-0.83008-0.27254-0.0448-0.90993-0.0305-1.1631 0.0261-1.2568 0.28089-2.1627 1.1869-2.4436 2.4436-0.0566 0.25314-0.0709 0.89054-0.0261 1.1631 0.27925 1.6995 1.7761 2.8384 3.4866 2.6529z" stroke-width=".023491"/>
  <path d="m87.466 122.02c-2.0821-0.1184-4.1254-0.79579-5.8561-1.9414-2.2862-1.5134-3.9987-3.7684-4.8229-6.3507l-0.11222-0.35159-0.12942 0.24476c-0.62246 1.1772-1.4286 2.1038-2.4719 2.8413-2.5847 1.8271-6.0323 1.873-8.6739 0.11531-1.9204-1.2777-3.1532-3.2733-3.4428-5.5728-0.01984-0.15795-0.03089-0.49722-0.02981-0.92595 2e-3 -0.72926 0.03216-1.0269 0.16808-1.6382 0.25158-1.1316 0.77964-2.2248 1.5254-3.1577 0.2405-0.30086 0.78972-0.86084 1.0793-1.1004 1.5286-1.2648 3.4141-1.8993 5.3357-1.7955 1.4466 0.0782 2.7472 0.51649 3.9511 1.3316 1.0414 0.70509 1.9406 1.7174 2.5232 2.8405 0.08298 0.15996 0.15479 0.29084 0.15959 0.29084 0.0049 0 0.05307-0.14157 0.10734-0.31459 0.44891-1.432 1.2373-2.86 2.2513-4.0777 0.30546-0.36683 1.1095-1.1691 1.4758-1.4725 1.869-1.5482 3.9988-2.4533 6.3997-2.7195 0.77552-0.08601 1.9158-0.06959 2.7648 0.03978 2.0612 0.26546 4.0774 1.1097 5.7436 2.405 1.2034 0.93557 2.2974 2.1908 3.0401 3.4885 0.37593 0.65683 0.79604 1.603 1.011 2.277l0.08894 0.27883 0.15003-0.27289c0.31263-0.56864 0.65128-1.0539 1.0364-1.4851 1.7587-1.9692 4.329-2.9168 6.8918-2.5407 2.9082 0.42685 5.36 2.5049 6.2625 5.308 0.54536 1.6938 0.48683 3.5269-0.16518 5.1734-0.6132 1.5485-1.7197 2.8762-3.1303 3.7564-1.2994 0.81072-2.7662 1.21-4.2823 1.1657-1.1797-0.0345-2.1867-0.28776-3.2384-0.81448-1.4292-0.71573-2.6375-1.8956-3.3821-3.3024-0.07125-0.13466-0.13312-0.24484-0.13744-0.24484-0.0049 0-0.05268 0.13621-0.10758 0.30271-0.59161 1.7957-1.5636 3.3743-2.9066 4.7209-0.59542 0.59698-1.0803 1.0025-1.7235 1.4414-2.1741 1.4834-4.7534 2.205-7.3531 2.0572zm1.49-4.5702c0.89368-0.10231 1.6486-0.32437 2.4573-0.72282 0.54107-0.26658 1.0722-0.61195 1.5-0.97542 0.19242-0.16349 0.66678-0.64014 0.83702-0.84104 1.3131-1.5497 1.9216-3.5407 1.7089-5.5913-0.33944-3.272-2.8333-5.9236-6.0842-6.469-2.145-0.35993-4.3196 0.22064-5.9832 1.5974-0.29854 0.24705-0.74594 0.70218-0.99711 1.0143-0.89394 1.111-1.4265 2.3875-1.5945 3.8218-0.04252 0.36344-0.04906 1.1939-0.01222 1.5694 0.22948 2.3391 1.5525 4.4218 3.5683 5.617 0.87991 0.52173 1.8669 0.85324 2.9141 0.97877 0.38425 0.046 1.2877 0.0466 1.6857 9.8e-4zm-18.875-4.153c0.74415-0.10137 1.3345-0.39218 1.853-0.91276 0.63513-0.6377 0.9514-1.4623 0.91597-2.3882-0.01945-0.50782-0.11881-0.91051-0.32672-1.324-0.43792-0.87095-1.2156-1.4703-2.1953-1.6919-0.2525-0.0571-0.89759-0.0715-1.1732-0.0263-1.1987 0.19696-2.1356 0.97465-2.5232 2.0944-0.13745 0.39704-0.17056 0.60816-0.16918 1.0785 9.77e-4 0.33484 0.01134 0.46266 0.05327 0.65846 0.13529 0.63064 0.41674 1.1551 0.85808 1.5989 0.53628 0.53932 1.1627 0.83379 1.9831 0.93219 0.17215 0.0206 0.49416 0.0121 0.72414-0.0193zm36.796 0.01c1.2258-0.13291 2.2547-0.94305 2.6613-2.0955 0.15642-0.44336 0.21862-0.95511 0.17081-1.4053-0.0856-0.80633-0.40975-1.4762-0.97421-2.0133-0.47433-0.45139-1.0399-0.72886-1.7101-0.83898-0.27546-0.0452-0.91967-0.0308-1.1755 0.0264-1.2702 0.2839-2.1859 1.1996-2.4698 2.4698-0.0572 0.25585-0.0717 0.90007-0.0264 1.1755 0.28224 1.7177 1.7951 2.8688 3.524 2.6813z" stroke-width=".023742"/>
 </g>
</svg>
