<?xml version="1.0" encoding="UTF-8"?>
<svg width="33.253mm" height="33.258mm" version="1.1" viewBox="0 0 33.253 33.258" xmlns="http://www.w3.org/2000/svg">
 <g transform="translate(-43.9 -207.53)">
  <path d="m59.45 240.76c-3.4866-0.25698-6.6138-1.4753-9.3392-3.6383-0.62468-0.49579-1.7368-1.5775-2.2566-2.1948-1.8482-2.1951-3.1181-4.8213-3.6462-7.5409-0.41065-2.1146-0.4116-4.35-0.0027-6.4556 0.81715-4.2082 3.3289-8.025 6.9077-10.496 1.4785-1.021 3.3586-1.8892 5.0862-2.3486 1.5113-0.4019 2.7186-0.55724 4.3307-0.55724 2.6827 0 5.0814 0.56356 7.4531 1.751 1.686 0.84414 3.0834 1.8694 4.4471 3.263 1.3295 1.3586 2.2449 2.6648 3.0833 4.3998 1.1241 2.3263 1.6385 4.5895 1.6385 7.2093 0 2.6709-0.52198 4.9251-1.6929 7.3112-0.91634 1.8672-1.9319 3.2552-3.4564 4.7241-2.5925 2.4979-5.9773 4.0841-9.5875 4.493-0.88661 0.10041-2.2081 0.13628-2.9651 0.0805zm2.838-1.1458c3.5225-0.40707 6.7506-1.9639 9.2458-4.4591 2.3068-2.3068 3.8442-5.3028 4.3527-8.4819 0.21065-1.3171 0.25212-3.0143 0.10479-4.2881-0.29679-2.5656-1.2005-4.975-2.6572-7.0847-2.5458-3.6869-6.5683-6.0948-11.046-6.6122-0.75892-0.0877-2.6145-0.10191-3.312-0.0254-1.5249 0.16738-2.8584 0.49253-4.184 1.0202-4.9332 1.9638-8.5124 6.2736-9.5411 11.488-0.36877 1.8695-0.3583 4.1774 0.02757 6.0854 0.26117 1.2913 0.63187 2.3898 1.2177 3.6082 0.79505 1.6537 1.738 2.9896 3.0178 4.2755 2.5172 2.5293 5.7686 4.086 9.3856 4.4938 0.66508 0.075 2.6681 0.0631 3.3884-0.0202zm-8.0433-5.6254c-0.38938-0.0285-0.4648-0.0494-0.5477-0.15172-0.11329-0.13993-0.12455-0.35478-0.02561-0.49003 0.10713-0.1465 0.54851-0.17116 3.1266-0.17468l2.3054-4e-3v-15.775l-0.90435-0.13946c-1.7493-0.26978-5.4306-0.79576-5.4479-0.77842-0.03968 0.0397 1.2204 2.7511 2.3032 4.9558 0.54276 1.1052 0.73925 1.4541 0.98235 1.7443 0.34826 0.41581 0.39644 0.57459 0.31532 1.0391-0.28722 1.6445-1.5623 3.0467-3.1951 3.5138-0.33476 0.0958-0.52386 0.11365-1.2118 0.11459-0.71376 5.3e-4 -0.86251-0.0137-1.1955-0.11794-1.6018-0.50136-2.837-1.8458-3.1486-3.4272-0.10208-0.51815-0.06345-0.68359 0.24092-1.0314 0.32999-0.37711 0.50626-0.7096 1.7999-3.3951 0.6007-1.247 1.2437-2.5694 1.4288-2.9388l0.33666-0.67157-0.17732-0.0586c-0.31704-0.10463-0.37614-0.41905-0.12582-0.66936 0.14501-0.145 0.16725-0.15091 0.44581-0.11825 0.3824 0.0448 2.6731 0.37219 4.4455 0.63528 2.6826 0.39819 3.0316 0.44662 3.056 0.42395 0.01344-0.0125 0.04221-0.49707 0.0639-1.0767 0.04519-1.2109 0.08526-1.3724 0.42433-1.7114 0.59044-0.59045 1.5125-0.49085 2.0296 0.21925l0.17073 0.23442 0.03489 1.2992c0.01919 0.71456 0.04545 1.3359 0.05836 1.3807 0.02793 0.0972-0.0047 0.0914 4.0464 0.71237 4.3628 0.66872 4.0759 0.60259 4.0759 0.9394 0 0.25095-0.16448 0.42327-0.42178 0.44193-0.1948 0.0142-0.21432 0.0277-0.20696 0.14496 0.0061 0.0982 1.3266 3.0001 1.6058 3.5292 0.04414 0.0836 0.0262 0.0906-0.19221 0.0764l-0.24082-0.0157-0.49128-0.96802c-0.59483-1.1721-1.435-2.5445-1.5558-2.5413-0.08986 2e-3 -0.71114 0.86645-1.03 1.4324-0.16988 0.30161-0.50606 0.97654-0.74708 1.4998-0.24101 0.52332-0.77088 1.6209-1.1775 2.4391s-0.73929 1.5192-0.73929 1.5578c0 0.0586 0.38221 0.0702 2.3116 0.0702h2.3116l0.05736-0.29296c0.10573-0.54028 0.12209-0.90544 0.05775-1.2895-0.11582-0.69169-0.40476-1.2362-0.74056-1.3955-0.27648-0.13119-0.26489-0.0642 0.02573 0.1492 0.2463 0.18079 0.35816 0.31474 0.35816 0.42886 0 0.0792-0.40553 0.17186-0.62392 0.14256-0.36665-0.0492-0.88617-0.39376-1.1663-0.77356l-0.1507-0.20435 0.12483-0.10793c0.06867-0.0594 0.29329-0.14942 0.49917-0.20015 0.95101-0.2343 1.6157 0.0104 1.6253 0.59851 0.0037 0.23609 0.21595 1.0151 0.27748 1.0192 0.06936 5e-3 0.16961-0.34454 0.17441-0.60731 7e-3 -0.39566 0.4593-0.7278 0.99068-0.7278 0.33837 0 1.255 0.29444 1.255 0.40314 0 0.0276-0.11381 0.18687-0.2529 0.354-0.19074 0.22919-0.34271 0.34883-0.61825 0.48667-0.20093 0.10052-0.42088 0.18276-0.48877 0.18276-0.21813 0-0.57615-0.1119-0.57615-0.18008 0-0.0363 0.14329-0.19685 0.31843-0.35665 0.232-0.21167 0.28386-0.28023 0.19107-0.25256-0.26808 0.0799-0.4185 0.19157-0.56115 0.41651-0.20969 0.33063-0.26308 0.65098-0.24466 1.4682l0.01606 0.71328 1.0025 0.0137c0.95925 0.0132 1.0039 0.01 1.0344-0.0867 0.04712-0.14835-0.05491-0.47348-0.33518-1.0683-0.13728-0.29137-0.2496-0.54435-0.2496-0.56219 0-0.0382 0.30633-0.22538 0.32663-0.1995 0.0077 0.01 0.13789 0.25573 0.28944 0.54663 0.15155 0.29092 0.37332 0.63857 0.49284 0.77256 0.24105 0.27029 0.36862 0.53058 0.36862 0.75216 0 0.29496-0.20893 0.96539-0.45555 1.4618-0.5446 1.0962-1.541 1.943-2.7288 2.319-0.50552 0.16-1.5271 0.19761-2.1185 0.0779-1.1816-0.23904-2.2798-1.0018-2.9192-2.0277-0.39699-0.63695-0.69968-1.6311-0.62226-2.0438 0.01919-0.10246 0.14433-0.29773 0.31749-0.49554 0.23302-0.26619 0.42005-0.59917 1.0132-1.804 1.1165-2.2677 2.3168-4.8621 2.3168-5.0078 0-0.0532-0.09468-0.07-2.4965-0.44401-2.3436-0.36492-3.2692-0.49233-3.3063-0.45516-0.017 0.017-0.03698 3.4657-0.04451 7.6639l-0.0137 7.6332 2.6121 0.0186c2.747 0.0197 2.7963 0.0239 2.8682 0.25049 0.05505 0.17361-0.02082 0.44698-0.14369 0.51723-0.08867 0.0507-1.4159 0.0656-6.2773 0.0703-3.3907 4e-3 -6.3681-8e-3 -6.6164-0.027zm1.2922-10.225c0-0.042-0.62573-1.4527-1.184-2.6692-0.95871-2.089-2.2361-4.4982-2.333-4.3999-0.12807 0.13-3.7178 6.9364-3.7178 7.0492 0 0.0335 1.2416 0.0509 3.6174 0.0509 1.9896 0 3.6174-0.014 3.6174-0.0311z" fill="#fff" stroke-width=".050949"/>
 </g>
</svg>
