<?xml version="1.0" encoding="UTF-8"?>
<svg width="74.614mm" height="74.701mm" version="1.1" viewBox="0 0 74.614 74.701" xmlns="http://www.w3.org/2000/svg">
 <g transform="translate(44.345 12.718)">
  <path d="m-8.6388 59.339c-7.0212-0.33499-13.677-2.5623-19.251-6.4427-2.5755-1.7927-5.7408-4.7613-7.6977-7.2192-2.2111-2.7772-4.5637-6.9533-5.7841-10.267-0.82518-2.2407-1.8227-6.4316-1.9008-7.9857-0.0079-0.15686-0.08486-0.89483-0.17108-1.6399-0.39219-3.3896 0.16776-9.0337 1.2923-13.026 1.0512-3.7317 3.4058-8.6903 4.3372-9.1338 0.27794-0.13234 0.6496-0.55175 1.0048-1.1338 0.36388-0.59639 0.72528-1.0009 1.0197-1.1413 0.55707-0.26565 1.1326-1.0039 1.2632-1.6205 0.11736-0.55388 2.3213-2.8143 3.0346-3.1123 0.87227-0.36446 2.0558-1.2484 2.3986-1.7913 0.643-1.0186 2.4262-1.7374 2.9674-1.1962 0.23295 0.23296 0.28908 0.23316 1.0185 0.00373 0.4246-0.13355 0.84112-0.20011 0.92559-0.1479 0.08447 0.052204 0.31217 0.34613 0.50599 0.65317l0.35241 0.55825-0.57521 1.144c-0.73706 1.4659-1.4546 2.2788-2.0116 2.2788-0.46077 0-0.52462 0.15616-0.18059 0.44168 0.45703 0.3793 0.16704 1.5574-0.92502 3.7579-0.54688 1.102-1.0384 2.1801-1.0923 2.3958-0.09113 0.36466-0.06695 0.39215 0.34486 0.39215 0.61919 0 1.5324 0.84565 1.7381 1.6095 0.20544 0.76291 0.05791 1.6716-0.3749 2.3094-0.19202 0.28295-0.34912 0.5466-0.34912 0.58589 0 0.07141 0.25726 0.03886 1.9964-0.25256 1.0957-0.1836 2.336-0.61569 2.898-1.0096l0.40248-0.28209-0.36683-0.38289c-0.51088-0.53324-0.47882-1.0654 0.0958-1.5902 0.59207-0.54077 1.8418-1.021 2.712-1.0422 0.59031-0.014351 0.72564 0.039406 1.0354 0.4113 0.23902 0.28695 0.34025 0.55862 0.30744 0.82511-0.04869 0.39549-0.04592 0.39687 0.60451 0.30155 0.84182-0.12337 3.0436-0.73524 5.9808-1.6621l2.3328-0.73609-0.37994-0.32681c-0.5125-0.44084-0.7449-0.41265-1.2717 0.15425-1.2533 1.3487-2.8149 1.2387-3.21-0.22608-0.31775-1.1779-0.73539-4.015-0.60956-4.1409 0.06896-0.068963 0.59932-0.22062 1.1786-0.33701 0.57924-0.11639 1.5385-0.37019 2.1316-0.56399l1.0784-0.35237-0.06101-0.84334c-0.07462-1.0316 0.22371-1.5382 1.1779-2.0001 1.1166-0.54055 3.405-0.42271 3.8185 0.19664 0.057622 0.086301 0.10574 0.42963 0.10695 0.76296l0.00217 0.60606h0.7096c0.68805 0 4.2898-0.9658 7.7381-2.075 2.6248-0.84429 4.4376-0.91051 4.8305-0.17646 0.13743 0.25679 0.17246 0.23531 0.43648-0.26766 0.44218-0.84238 0.69601-1.0308 1.6178-1.2007 0.46909-0.086481 0.94578-0.20899 1.0593-0.27222 0.32884-0.18318 0.79463 0.070047 2.3631 1.2847 0.84788 0.65659 1.6075 1.1387 1.794 1.1387 0.90284 0 2.8929 1.6655 3.0744 2.5731 0.0434 0.21704 0.52897 0.94763 1.079 1.6235 0.79784 0.98039 1.0396 1.1962 1.1951 1.0671 0.57969-0.4811 1.406 0.40948 3.2175 3.4676 2.4604 4.1537 3.9015 8.1997 4.712 13.229 0.41958 2.6036 0.4488 7.9013 0.0578 10.481-0.32484 2.1435-1.1859 5.5683-1.8667 7.4246-0.64308 1.7535-2.3888 5.3341-3.298 6.7643-3.0289 4.7648-7.5652 9.2168-12.21 11.983-3.9909 2.3768-8.1813 3.9236-12.742 4.7032-1.4868 0.25417-5.687 0.6086-6.4063 0.54057-0.15686-0.01481-0.70231-0.04683-1.2121-0.07115zm2.7825-0.8696c-0.31273-0.02793-0.64879-0.11727-0.74681-0.19858-0.098015-0.08139-0.33849-0.10764-0.53439-0.05851-0.25237 0.06333-0.43994 6e-3 -0.64356-0.19798-0.22288-0.22288-0.4754-0.28738-1.1252-0.28738-1.2023 0-1.729-0.1296-1.729-0.42541 0-0.22305-0.26083-0.2544-2.6738-0.32144-1.8375-0.05105-2.7043-0.02601-2.7713 0.07994-0.27263 0.43099 0.43816 0.67134 2.4015 0.81207 0.96789 0.06935 1.7866 0.20688 2.0905 0.3511 0.3523 0.16718 1.0998 0.2656 2.5356 0.33386 1.992 0.09475 4.4775 0.02649 3.1964-0.08765zm1.139-0.17204c-0.048472-0.07838-0.22873-0.14162-0.40057-0.14042-0.25401 0.0012-0.27244 0.02805-0.098533 0.14042 0.28094 0.18156 0.61132 0.18156 0.49911 0zm3.9414-0.21959c1.5306-0.28194 1.7538-0.37696 1.1323-0.48217-0.26827-0.04539-0.51281-0.15842-0.54342-0.25115-0.087432-0.26487 0.42117-0.46069 1.6282-0.62685 1.2964-0.17846 2.4583-0.62696 2.226-0.85923-0.10624-0.10619-0.49627-0.0419-1.3161 0.2171-1.6475 0.52043-2.4381 0.48442-2.4293-0.11064 0.002528-0.16809 0.09875-0.43017 0.2139-0.58241 0.29992-0.39653 0.27556-0.83293-0.040887-0.7325-2.0737 0.65816-4.2374 1.2363-5.3825 1.4381-2.3736 0.41838-2.4125 0.43343-1.5091 0.5836 1.0015 0.16648 1.0737 0.41319 0.19956 0.6818l-0.68688 0.21107 0.91568 0.0096c0.55737 6e-3 1.0038 0.08632 1.1408 0.20523 0.62788 0.54466 2.4506 0.66672 4.4518 0.29812zm-12.248-0.017458c-0.09804-0.03961-0.25847-0.03961-0.3565 0-0.09804 0.03961-0.01783 0.07188 0.17825 0.07188 0.19608 0 0.27629-0.03239 0.17825-0.07188zm7.3796-0.11943c-0.097642-0.11763-0.37501-0.21391-0.61639-0.21391-0.66708 0-0.16239 0.34698 0.5982 0.41126 0.15792 0.01336 0.16144-0.0248 0.018191-0.19736zm-1.9964-0.65998c1.1211-0.18161 1.1106-0.20961-0.17825-0.4764-0.43757-0.09054-0.52819-0.44464-0.1426-0.55711 0.13725-0.03997 1.0263-0.20417 1.9757-0.36473 2.5534-0.43184 6.0869-1.5094 6.1533-1.8764 0.049411-0.27336-0.78172-1.6921-1.052-1.7959-0.22954-0.08813-1.4129 0.23862-3.191 0.88098-1.9026 0.68734-3.3432 0.49587-3.8578-0.51275-0.35541-0.69667-0.3512-1.1368 0.015351-1.6028 0.37205-0.47299 1.2701-0.74645 3.585-1.0917 1.9004-0.28344 2.5189-0.50395 2.8869-1.0293 0.40476-0.57788 0.28243-0.79096-0.75371-1.3128-1.2513-0.63015-1.7459-1.053-2.1727-1.8577-0.40313-0.7599-0.35842-0.75331-2.4945-0.36763-3.2874 0.59357-6.7629 1.7275-6.7629 2.2066 0 0.12211 0.31358 0.44731 0.69684 0.72265 1.2063 0.86663 1.0355 1.45-0.56683 1.9367-0.86895 0.26394-1.2588 0.29547-3.0237 0.24462-1.7174-0.04948-2.1145-0.10463-2.6061-0.36179-0.84488-0.442-0.96075-0.63408-0.86019-1.426 0.18875-1.4865 0.22329-1.3805-0.48498-1.4886-0.35294-0.05394-1.4759-0.1033-2.4955-0.10968-1.6666-0.01084-3.2339-0.12707-5.0482-0.37528l-0.62751-0.08584 0.48335 0.61801c0.26584 0.33992 1.0473 1.2502 1.7366 2.023 1.2135 1.3605 1.7772 2.1749 1.6166 2.3356-0.04275 0.04274-0.37018-0.0048-0.72761-0.10426-0.35744-0.10005-0.69617-0.1349-0.75275-0.07742-0.16664 0.1694 1.2494 1.3273 2.2117 1.8085 0.8467 0.42343 0.90516 0.43342 1.2427 0.21221 0.71384-0.46772 1.2274-0.25439 4.4551 1.8506l2.0876 1.3614 2.6505 0.06766c3.3633 0.08584 3.5538 0.1151 3.7277 0.57236 0.15165 0.39886 0.02682 0.39706 2.274 0.03299zm-6.5992-1.5532c-1.2849-0.22113-2.4929-1.2129-1.9365-1.5899 0.52314-0.35442 2.3888 0.2388 1.9937 0.63394-0.08055 0.08055-0.24804 0.01541-0.43118-0.16775-0.2171-0.2171-0.47922-0.29946-0.95306-0.29946-0.73714 0-0.77524 0.16376-0.14726 0.63302 0.31606 0.23617 0.60496 0.29388 1.4713 0.29388 1.0619 0 1.2052-0.06176 1.4117-0.60858 0.0079-0.02095 0.2967 0.08994 0.64171 0.24642 1.0617 0.48172 2.5524 0.32342 2.5524-0.27105 0-0.72886-1.6958-1.9243-3.3357-2.3514-0.86163-0.22443-3.4567-0.28167-3.5819-0.07898-0.11539 0.1867 0.31583 0.53618 0.79011 0.64036 0.53434 0.11739 0.94284-0.14657 0.69293-0.4477-0.24509-0.29531 0.07831-0.23452 0.3501 0.06574 0.30338 0.33524 0.29716 0.40947-0.0498 0.59516-0.58268 0.31183-2.1384-0.41105-2.1384-0.99363 0-0.34441 0.27421-0.43272 1.3436-0.43272 1.9658 0 4.7047 1.0741 6.0494 2.3722 0.82913 0.80047 0.90066 1.136 0.3063 1.4367-0.56199 0.28433-1.9879 0.22957-2.6369-0.10125-0.66527-0.33917-0.64171-0.33592-0.64171-0.08873 0 0.47789-0.72418 0.69039-1.7508 0.51372zm17.651 1.2984c2.0192-0.64603 3.7343-1.3411 5.4255-2.1989 1.5362-0.77912 2.9382-1.6158 2.4578-1.4668-0.4832 0.14987-0.39243-0.19043 0.20611-0.77271 0.91285-0.88807 1.412-1.2401 1.9562-1.3798 0.37767-0.09692 0.56736-0.26986 0.81996-0.74752 0.18074-0.3418 0.32862-0.64435 0.32862-0.67237 0-0.02805-0.3826 0.14221-0.85023 0.37828-1.26 0.63603-2.9585 1.2861-3.3602 1.2861-0.41218 0-0.44153-0.15982-0.11958-0.65118 0.12827-0.19577 0.19654-0.39262 0.15171-0.43744-0.18881-0.18882-3.5222 1.1121-3.5222 1.3746 0 0.06742 0.12834 0.16338 0.2852 0.21316 0.44411 0.14096 0.3382 0.46207-0.28141 0.85322-0.61403 0.38762-1.7786 0.73033-4.1749 1.2286-1.3726 0.28538-1.533 0.3507-1.533 0.62419 0 0.16799-0.094211 0.43001-0.20937 0.58225-0.29719 0.39293-0.27939 0.91852 0.031111 0.9185 0.13725-1.2e-5 0.76292-0.15948 1.3904-0.35436 1.3941-0.43303 2.1094-0.47124 2.0425-0.10908-0.067772 0.3668-1.2004 0.87219-2.5605 1.1425-1.3636 0.27099-1.4025 0.28727-1.1178 0.46735 0.37854 0.2394 1.3292 0.13883 2.634-0.27864zm1.9486-1.5258c0.074092-0.38471 1.2484-1.046 2.0952-1.1799 0.706-0.11161 0.74231-0.10222 0.70328 0.18275-0.023393 0.1708-0.21743 0.37734-0.44968 0.47868-0.56607 0.247-0.7885 0.22312-0.40751-0.0437 0.71669-0.502 0.1922-0.64427-0.75258-0.20415-0.55879 0.26031-0.56092 0.26407-0.10438 0.18499 0.37958-0.06574 0.45042-0.04009 0.38191 0.13844-0.080185 0.20896-0.45017 0.39867-1.1819 0.60602-0.27073 0.07669-0.32456 0.04587-0.28432-0.16314zm0.83219-0.19757c0.18434-0.11919 0.18057-0.13854-0.027234-0.14042-0.13262-0.0011-0.2808 0.062-0.32927 0.14042-0.11154 0.18048 0.077235 0.18048 0.3565 0zm2.5046-0.95015c0.20123-0.21712 0.31988-0.48075 0.27707-0.6156-0.08541-0.26912 0.34433-0.71136 1.0259-1.0557 0.4448-0.22473 0.89834-0.30432 0.89834-0.15762 0 0.16947-0.9425 1.4938-1.1106 1.5606-0.10103 0.04009-0.03028-0.13457 0.15721-0.38815 0.546-0.73847 0.57084-0.81757 0.25674-0.81757-0.15712 0-0.46572 0.16606-0.68578 0.36903-0.25597 0.2361-0.31021 0.34046-0.15055 0.28969 0.13725-0.0437 0.24955-0.02179 0.24955 0.04864 0 0.18678-0.9335 1.1465-1.1152 1.1465-0.085037 0 0.00373-0.17089 0.19733-0.37974zm-25.629 2.4558c-0.02655-0.02239-0.49745-0.07766-1.0465-0.12288l-0.99821-0.08223 0.99821 0.31915c0.80584 0.25765 1.0075 0.28133 1.0465 0.12288 0.02654-0.108 0.02654-0.21456 0-0.23692zm-0.19799-0.34455c-0.32966-0.29763-4.4662-2.8723-4.6147-2.8723-0.09095 0-0.31849 0.10029-0.50566 0.22298-0.49272 0.32284-1.2868 0.04804-2.8219-0.97655-2.0563-1.3725-2.5892-2.4449-0.95523-1.9223 0.8528 0.27271 0.98666 0.49781-1.1971-2.0128-0.85008-0.97732-1.6392-1.9197-1.7535-2.0943-0.1549-0.2364-0.45169-0.36148-1.1638-0.49052-1.3309-0.24116-2.964-1.0353-3.3159-1.6125-0.15241-0.24994-0.27734-0.59865-0.27764-0.7749-0.0012-0.63164-1.9738-2.3979-2.3065-2.0651-0.11321 0.11317-0.03195 0.37641 0.29525 0.95612 0.49778 0.88202 0.47244 1.2191-0.06516 0.8668-0.53294-0.34919-0.54843-0.2665-0.07199 0.38442 1.6455 2.2481 5.4533 6.2388 5.9528 6.2388 0.10202 0 0.26625 0.13169 0.36496 0.29265 0.23345 0.38071 1.5592 1.3838 2.066 1.5633 0.57257 0.20272-1.5653-1.8073-2.2078-2.0757-0.34768-0.14527-0.46916-0.27176-0.40972-0.42665 0.10355-0.26986-1.3093-1.7778-1.6657-1.7778-0.26472 0-0.32487 0.21684-0.09887 0.35651 0.07843 0.04852 0.14058 0.16456 0.13809 0.25796-0.0067 0.25129-0.7085-0.59249-0.7085-0.85179 0-0.32793 0.63714-0.13442 1.4973 0.45475 0.71685 0.491 1.3538 1.2639 1.3558 1.6452 5.93e-4 0.11281 0.25395 0.34945 0.56299 0.52592 0.72564 0.41435 2.2827 1.71 2.3895 1.9883 0.0454 0.11835 0.0025 0.26464-0.09526 0.3251-0.27645 0.17084 2.0105 1.4989 5.043 2.9285 1.205 0.5681 1.6352 0.69315 2.9233 0.84981 0.8307 0.10101 1.5713 0.1915 1.6458 0.20105 0.08557 0.01084 0.08557-0.02769 0-0.10499zm-14.409-7.5989c-0.26977-0.30382-0.26948-0.30481 0.04124-0.14183 0.34662 0.1818 0.56006 0.44778 0.35931 0.44778-0.0709 0-0.25116-0.13768-0.40057-0.30595zm34.808 4.6573c1.7295-0.36849 2.3832-0.54027 3.1073-0.81651l0.39791-0.15178-0.30144-0.28083-0.30144-0.28084 0.33133-0.35562c0.64534-0.69267 3.1497-1.7528 4.1406-1.7528 0.54709 0 0.65828 0.35488 0.24803 0.79158-0.18046 0.19208-0.25421 0.34925-0.1639 0.34925 0.29201 0 1.923-0.65844 3.0941-1.2491 0.98609-0.49735 1.2254-0.69581 1.7643-1.4634 0.3429-0.4884 0.93571-1.2328 1.3174-1.6542 0.82444-0.91037 1.7741-2.3046 1.6525-2.4261-0.04742-0.04744-0.39404 0.138-0.77028 0.41205-1.3602 0.99074-2.3326 1.324-2.7233 0.93336-0.28278-0.28278-0.20205-1.4191 0.14973-2.1077 0.45494-0.89045 1.1522-1.3957 2.1782-1.5783 0.46868-0.08344 0.96865-0.18583 1.1111-0.2276 0.4226-0.12394 1.2354-0.91195 1.5239-1.4773 0.5449-1.0681 0.90475-3.469 0.59345-3.9595-0.08283-0.13051-0.72694 0.28269-2.3071 1.4801-1.2057 0.91361-2.5976 1.843-3.093 2.0653-1.8683 0.83825-3.476 0.89484-3.5859 0.12622-0.02752-0.19264 0.09408-0.80981 0.27023-1.3715 0.17615-0.56168 0.2809-1.1238 0.23277-1.2493-0.12106-0.31548-0.85546-0.29263-2.0049 0.06239-2.025 0.62545-3.8385 1.6285-4.2145 2.3309-0.17692 0.33057-0.16887 0.40305 0.07461 0.67228 0.1501 0.16597 0.50763 0.42156 0.79451 0.56798 0.28688 0.14642 0.54988 0.34814 0.58443 0.44828 0.18549 0.53754-0.60566 1.234-2.124 1.8698-1.9555 0.81886-4.1044 1.2909-7.0391 1.5462-1.0588 0.0921-1.9459 0.18229-1.9713 0.2004-0.025392 0.01806 0.051542 0.22187 0.17097 0.4528 0.30056 0.58122 1.0889 1.2425 2.0738 1.7397 1.1335 0.57218 1.3259 1.1772 0.63554 1.9977-0.58145 0.69101-1.3536 1.0077-2.8126 1.1537-2.9293 0.29304-3.9234 0.76814-3.6485 1.7435 0.30475 1.081 1.3847 1.2486 3.2959 0.51153 2.384-0.91937 3.5942-1.0712 4.1146-0.51635 0.16551 0.17647 0.47282 0.68847 0.68291 1.1378 0.2629 0.56224 0.44867 0.79722 0.59589 0.75371 0.11765-0.03479 0.98395-0.22729 1.9251-0.42781zm6.697-4.8148c0.33768-1.9974 0.47369-3.4629 0.34389-3.7055-0.1241-0.23188-0.26-0.25138-1.1747-0.1685-0.87887 0.0797-1.0721 0.05586-1.2859-0.15786-0.31487-0.31488-0.20605-0.85754 0.26871-1.34 0.27419-0.27862 0.37958-0.31191 0.54719-0.17281 0.15481 0.12849 0.43089 0.13633 1.0858 0.03082 0.57739-0.09295 1.0048-0.09331 1.2477-1e-3l0.36951 0.14049-0.08664 1.5285c-0.12692 2.2389-0.45206 3.8957-0.82465 4.2023-0.48563 0.39949-0.60421 0.31338-0.49097-0.3565zm2.8173 3.7433c0.44325 0 4.5491-3.3909 5.4771-4.5234l0.5442-0.66414-0.63768 0.39134c-0.35072 0.21523-1.1415 0.68896-1.7572 1.0527-0.92481 0.54636-1.1918 0.78953-1.5353 1.3981-0.51827 0.91833-0.76077 1.1393-1.559 1.4208-0.59821 0.21092-1.7041 1.1165-1.7041 1.3954 0 0.07031 0.22826-0.0072 0.50726-0.17154 0.27899-0.16461 0.57816-0.29928 0.66482-0.29928zm-26.605-2.8237c0.96972-0.29523 1.1396-0.61296 0.50349-0.94188-0.59157-0.30592-1.1744-1.0353-1.0677-1.3363 0.15819-0.44665 0.47683-0.70825 1.3278-1.0901 1.0077-0.45222 3.9908-1.2422 5.9378-1.5725 0.77302-0.13112 1.5469-0.2671 1.7198-0.30218l0.31429-0.06381-0.42113-0.89018c-0.26916-0.56897-0.42117-1.1184-0.42124-1.5225-1.433e-4 -1.1848 0.90294-2.5315 2.1547-3.2128 0.68248-0.37145 0.88911-0.41246 2.0512-0.407 0.71073 0.0034 1.4315 0.05027 1.6018 0.1043 0.21625 0.06864 0.39767 0.01011 0.60202-0.19426 0.24248-0.24248 0.2925-0.47382 0.2925-1.3527 0-1.2105-0.14672-1.6989-0.67746-2.2553-0.31498-0.33017-0.49204-0.39216-1.1203-0.39216-0.69313 0-0.80014 0.04923-1.5063 0.69295-1.6011 1.4595-3.0493 1.9451-3.8719 1.2981-0.89277-0.70226-1.5196-2.7752-1.5217-5.0326l-0.00114-1.1165-0.96256 0.09268c-2.7422 0.26404-5.466 0.86982-8.0764 1.7962l-1.6392 0.58173 0.84715 0.82894c0.64669 0.63279 0.84715 0.92617 0.84715 1.2399 0 0.92928-0.76505 1.3613-3.4866 1.9689-1.1187 0.24974-1.8757 0.34821-2.2037 0.28667-1.2182-0.22854-2.0102-0.98756-2.0102-1.9265 0-0.34327 0.12806-0.57517 0.51164-0.92651 0.44875-0.41104 0.49146-0.50637 0.34741-0.77552-0.49331-0.92176-1.5345-1.0379-5.601-0.62504l-2.389 0.24258-0.14136 0.50888c-0.20524 0.73883-0.17488 1.8237 0.07825 2.7955 0.34335 1.3182 0.60605 1.6685 1.4245 1.8997 0.68136 0.19244 0.7325 0.18578 1.4472-0.18839 0.96456-0.50502 1.4384-0.40797 2.3181 0.47481 0.8467 0.84957 1.3257 1.8623 1.3414 2.8362 0.0093 0.57838-0.05532 0.81664-0.28328 1.0446-0.45101 0.45101-1.2639 0.49696-2.2623 0.12789-1.2269-0.45351-1.8906-0.44848-2.2403 0.01698-0.24698 0.32877-0.25932 0.4404-0.11034 0.99821 0.09226 0.34543 0.37755 1.0837 0.63399 1.6406l0.46626 1.0125 1.9799 0.16509c1.089 0.09078 3.1127 0.22795 4.4972 0.30477 1.3845 0.07681 2.6851 0.2035 2.8902 0.28149 0.56007 0.21295 0.72089 0.78388 0.43309 1.5375-0.54047 1.4152 0.14066 1.781 3.0944 1.6619 0.87305-0.03516 1.8738-0.16911 2.3521-0.31469zm-5.8448-4.9838c-0.10885-0.21568-0.23235-0.64883-0.27444-0.96256-0.16462-1.2272-0.63141-1.7098-1.1036-1.1408-0.23536 0.28358-0.37177 0.26994-0.71301-0.07127-0.33357-0.33357-0.36844-0.57041-0.08398-0.57041 0.20775 0 0.93959-0.78082 0.93959-1.0025 0-0.06875-0.27273-0.2459-0.60606-0.39368s-0.69936-0.3817-0.81341-0.5198c-0.19025-0.23039-0.1745-0.247 0.19093-0.20143 0.36635 0.04569 0.42583-0.018 0.7421-0.79452 0.18911-0.4643 0.34383-1.0258 0.34383-1.2478 0-0.22197 0.03526-0.40358 0.07838-0.40358 0.19303 0 0.91983 0.44845 0.91983 0.56755 0 0.07283-0.32527 0.56755-0.72281 1.0994l-0.72282 0.96696 0.31081 0.25168c0.17094 0.13842 0.36679 0.25168 0.43521 0.25168 0.17819 0 0.81459-1.32 0.73907-1.533-0.09354-0.26372 0.53201-0.2215 0.83938 0.05666 0.24875 0.22512 0.23733 0.26005-0.27398 0.83774-0.88628 1.0014-1.4946 1.7928-1.4286 1.8588 0.09681 0.0968 1.3941-0.3766 1.3941-0.50875 0-0.06453-0.08022-0.14596-0.17825-0.18097-0.09804-0.03504-0.13706-0.10836-0.08671-0.16285 0.12265-0.13288 1.001 0.24297 1.2393 0.5303 0.10452 0.12603 0.16869 0.33596 0.1426 0.4665-0.04239 0.21213-0.08508 0.2068-0.40189-0.0502-0.35348-0.28676-0.356-0.28678-0.90498-0.0072-0.50138 0.25578-0.52807 0.29726-0.29909 0.4647 0.26249 0.19194 0.58068 1.1493 0.72617 2.1849 0.09938 0.70733-0.12268 0.81836-0.42774 0.21391zm2.7654-0.09728c-0.09325-0.11233-0.2246-0.57758-0.2919-1.0339-0.22741-1.5417-0.58135-2.9675-0.78805-3.1745-0.17914-0.1794-0.25172-0.16252-0.56446 0.13128-0.47104 0.44253-0.61566 0.27739-0.23063-0.26334 0.47592-0.66838 0.86228-1.6154 0.8657-2.1219 0.0037-0.56233 0.25399-0.60198 0.80543-0.12765l0.3904 0.33581-0.61065 0.72419c-0.34924 0.41417-0.56701 0.79479-0.50872 0.88912 0.10859 0.17569 0.93093 0.07982 1.3809-0.16098 0.27127-0.14518 0.60653-1.1803 0.48492-1.4972-0.09233-0.24063 0.37188-0.26959 0.7842-0.04892 0.27792 0.14874 0.27784 0.1532-0.0094 0.51834-0.40145 0.51036-0.36498 0.60933 0.19127 0.51907 0.73416-0.11913 0.74663 0.18185 0.01905 0.45972-0.68103 0.26009-0.68377 0.26386-0.51187 0.70409 0.08761 0.22437 0.21938 0.27415 0.63169 0.23863 0.64911-0.05592 0.68956 0.20927 0.05753 0.37705-0.3448 0.0915-0.45259 0.19298-0.42103 0.39624 0.09039 0.58212 0.16645 0.66187 0.54144 0.56776 0.40284-0.10113 0.91346 0.01204 0.91346 0.20162 0 0.06622-0.26258 0.16481-0.58351 0.21904-0.58179 0.09824-0.58323 0.10017-0.48801 0.61859 0.12983 0.70692 0.24924 0.79189 0.82192 0.5848 0.56881-0.20569 1.2478-0.08428 1.2478 0.22313 0 0.15494-0.16936 0.21118-0.63588 0.21118-1.0897 0-2.8042 0.30798-2.8849 0.5182-0.09726 0.25344-0.3923 0.24884-0.60666-0.0096zm1.2171-0.59268c0.2726-0.0732 0.28537-0.12809 0.14879-0.63977-0.11243-0.42122-0.22149-0.55916-0.44079-0.55752-0.5351 0.0036-0.69334 0.20997-0.58894 0.76652 0.09907 0.52811 0.24769 0.60078 0.88093 0.43077zm-0.44678-1.4824c0.31338-0.11919 0.35479-0.19985 0.27443-0.53476-0.12178-0.50751-0.08087-0.48185-0.60216-0.3776-0.45372 0.09078-0.55676 0.32486-0.36402 0.82712 0.10109 0.26342 0.19324 0.27477 0.69176 0.08524zm-0.2992-1.3025c0.31145-0.14191 0.33418-0.20463 0.20666-0.57041-0.1029-0.2952-0.23739-0.41097-0.4774-0.41097-0.42711 0-0.51358 0.14954-0.40381 0.69836 0.09769 0.48843 0.16329 0.51596 0.67455 0.28302zm-4.6183 3.2208c-0.1438-0.17326-0.14597-0.33627-0.01047-0.78842 0.22198-0.74091 0.44206-0.59043 0.44206 0.30226 0 0.72852-0.11908 0.86268-0.43156 0.48616zm2.2963-1.0064c-0.66476-0.55936-0.58547-0.85229 0.13166-0.48644 0.37539 0.19152 0.57041 0.38752 0.57041 0.57331 0 0.37749-0.1761 0.3557-0.70207-0.08693zm36.521 4.1943c0.75953-0.46021 1.4473-0.81929 1.5283-0.79796 0.08102 0.02131 0.59932-0.50325 1.1518-1.1657 1.1466-1.3749 2.6355-3.4953 2.1672-3.0863-0.17159 0.14985-0.34815 0.23628-0.39236 0.19207-0.1303-0.13029 0.47298-1.1991 0.8396-1.4874 0.41667-0.32776 1.1377-1.8945 1.0728-2.3312-0.04437-0.29854-0.10222-0.2721-0.82064 0.37504-0.76331 0.68758-0.77162 0.69092-0.66926 0.26906 0.1538-0.6339 1.8932-2.0201 2.1778-1.7355 0.11815 0.11815-0.08002 0.89565-0.43338 1.7005-0.44379 1.0108-0.09058 0.53346 0.55195-0.74587 1.329-2.6463 2.4826-5.9905 3.0507-8.8441 0.35583-1.7874 0.52135-3.1372 0.3847-3.1372-0.05448 0-0.3278 0.49732-0.60738 1.1052-0.44159 0.96008-0.51213 1.2643-0.53732 2.3173-0.02067 0.86396-0.11294 1.4002-0.32125 1.8671-0.35179 0.78842-1.0064 1.4352-1.3976 1.381-0.25542-0.03538-0.2852-0.14776-0.2852-1.076v-1.0365l-0.27058 0.39477c-0.14882 0.21712-1.0461 1.1648-1.9939 2.106l-1.7233 1.7112-0.01435 1.1408c-0.02604 2.0712-0.92639 4.2088-2.2011 5.2259-0.37576 0.29982-0.75743 0.43483-1.5444 0.54625-0.57492 0.08139-1.1739 0.21685-1.3311 0.30098-0.58622 0.31374-0.92372 1.8971-0.48243 2.2634 0.28826 0.23923 0.68741 0.09078 1.9402-0.72152 1.1924-0.77317 1.4178-0.83777 1.4178-0.40653 0 0.46732-0.36562 1.0545-1.6217 2.6045-0.64743 0.79892-1.299 1.6386-1.448 1.866l-0.27084 0.4134 0.35118-0.18584c0.19315-0.10222 0.97261-0.56238 1.7321-1.0226zm5.5409-9.683c0.39527-0.77479 1.5281-1.9852 1.858-1.9852 0.32494 0 0.48073 0.47176 0.27978 0.84723-0.14268 0.26661-1.3547 1.1629-2.1154 1.5644l-0.32836 0.1733zm1.8481-1.3555c0-0.15827-0.30648-0.02301-0.70207 0.30986-0.65036 0.54724-0.53256 0.72729 0.13166 0.20123 0.31372-0.24847 0.57041-0.47846 0.57041-0.51109zm-55.165 8.5325c-0.72216-1.4442-0.93592-2.273-0.74803-2.9001 0.31221-1.0421 1.0279-1.2225 2.4592-0.6201 1.0528 0.4431 1.9434 0.49271 2.2135 0.12332 0.26876-0.36756 0.22876-1.0286-0.10726-1.7724-0.30663-0.6788-1.2129-1.7112-1.5022-1.7112-0.09449 0-0.49585 0.16812-0.89191 0.37361-0.59485 0.30862-0.83073 0.35702-1.3561 0.27823-0.95492-0.1432-1.7155-0.76493-2.059-1.6832-0.43208-1.1548-0.64452-2.4456-0.55855-3.3936l0.07719-0.85125h-0.89393c-2.3525 0-4.4368-0.94453-5.1682-2.342-0.17307-0.33068-0.19778-0.6779-0.11947-1.6789l0.09873-1.262-0.48112-0.48111c-0.6169-0.61691-1.5293-0.90171-1.7846-0.55707-0.11708 0.15804-0.14152 0.43262-0.07297 0.81947 0.05671 0.31999 0.10384 0.86924 0.10476 1.2205 0.0025 0.86636-0.33881 0.92875-1.0864 0.19873l-0.55736-0.54425 0.08852 0.4951c0.38102 2.1311 0.8699 3.9127 1.3483 4.9135 0.55529 1.1617 1.2781 3.1632 1.2781 3.539 0 0.31362 0.62105 1.6523 1.4505 3.1265 0.6836 1.215 1.9819 2.8197 2.2813 2.8197 0.06896 0-0.03662-0.30429-0.23459-0.67622-0.41399-0.77767-0.45413-1.1504-0.13699-1.2721 0.80203-0.30777 3.1994 2.092 3.1994 3.2026 0 0.40101 0.78206 0.8043 2.247 1.1587 0.60731 0.14693 1.1532 0.27375 1.2132 0.28181 0.05993 0.0084-0.0755-0.35433-0.30101-0.80531zm-5.4109-5.0624c-0.1544-0.33333-0.32132-0.72558-0.37091-0.87167-0.07138-0.21028-0.13206-0.23085-0.29122-0.09876-0.15437 0.12812-0.2713 0.12357-0.50377-0.01959-0.44934-0.27673-1.1745-1.4765-1.1207-1.8542 0.05867-0.41202 0.48322-0.50059 0.8422-0.17572 0.34724 0.31425 0.43654 0.22875 0.29884-0.28612-0.093-0.34773-0.26114-0.45803-1.2074-0.79203-0.82734-0.29202-1.0994-0.34034-1.0994-0.19527 0 0.15502 0.55934 1.8615 1.2086 3.6872 0.05576 0.15686-0.03277 0.08682-0.19678-0.15566-0.16402-0.24247-0.55809-1.2323-0.87573-2.1996-0.31763-0.9673-0.67526-1.8302-0.79474-1.9176-0.11948-0.08736-0.19941-0.3168-0.17763-0.50985 0.02179-0.19306-0.01376-0.66065-0.07898-1.0391-0.07708-0.44729-0.0661-0.74056 0.03139-0.83804 0.4218-0.4218 1.671 0.52797 2.6691 2.0293 0.42691 0.64216 0.78464 1.0253 1.0102 1.0819 0.19211 0.04822 0.41845 0.21689 0.50297 0.37483 0.14042 0.26237 0.11709 0.28179-0.2702 0.22495l-0.4239-0.06222 0.28426 1.0064c0.15634 0.55353 0.46875 1.4862 0.69425 2.0727 0.46855 1.2185 0.45032 1.1441 0.28011 1.1441-0.07143 0-0.25621-0.27273-0.41062-0.60606zm-0.97548-1.655c0.29789-0.32916 0.17005-0.71024-0.29796-0.88818-0.61524-0.23391-0.82353 0.21445-0.3883 0.83582 0.27014 0.38568 0.37722 0.39384 0.68626 0.05235zm-0.75043-3.3496c-0.47883-0.69595-1.3005-1.4614-1.8255-1.7006-0.42759-0.19482-0.64568 0.0601-0.52 0.60782 0.1489 0.64891 0.42354 0.91489 1.3466 1.3042 1.3654 0.57585 1.5183 0.54351 0.99894-0.21134zm37.87 8.8192c2.1938-0.35482 4.9197-1.2731 5.8051-1.9557 0.25147-0.19384 0.21858-0.23452-0.53195-0.6581-1.2326-0.69564-1.2377-1.4547-0.017446-2.5796 1.0668-0.98336 3.7452-2.1098 5.3672-2.2573 0.72916-0.06629 0.84362-0.03756 1.1765 0.29528 0.4618 0.4618 0.4652 0.91484 0.0151 2.0097-0.19077 0.46404-0.3138 0.8972-0.2734 0.96256 0.23329 0.37747 2.2059-0.12356 3.5859-0.9108 0.89289-0.50936 2.738-1.8279 4.1137-2.9397l0.41204-0.333-0.39285-0.28617c-0.94141-0.68577-1.6452-2.8942-1.4813-4.6487 0.14342-1.5358 0.77914-2.1687 2.1829-2.1731 0.3803-0.0011 0.76206-0.04933 0.84836-0.10695 0.48559-0.32424 0.7557-1.8812 0.49448-2.8502-0.18816-0.69801-0.65622-1.0761-1.2482-1.0082-0.31566 0.03618-0.48342 0.19828-0.78557 0.75902-0.50433 0.93596-1.0031 1.3547-1.6135 1.3547-0.88558 0-1.1886-0.25462-1.7714-1.4886-0.61017-1.2919-1.2933-2.979-1.2933-3.194 0-0.0781-0.88308 0.26183-1.9624 0.75539-1.9706 0.90116-4.2406 1.705-5.2875 1.8724-0.45319 0.07247-0.61847 0.03316-0.85498-0.20335-0.32553-0.32553-0.29607-0.53869 0.24633-1.7821 0.37637-0.86284 0.37516-0.89533-0.043776-1.1698-0.29237-0.19157-0.48089-0.20182-1.2478-0.06787-1.2037 0.21025-2.6202 0.67474-3.3573 1.1009-0.64055 0.37036-1.4684 1.2219-1.4663 1.5083 6.947e-4 0.09531 0.38 0.41729 0.84291 0.71552 1.0221 0.65846 1.3529 1.2321 1.1449 1.9854-0.16887 0.6116-0.69079 1.0341-2.2178 1.7954-1.9314 0.96294-3.782 1.398-6.601 1.552l-1.6248 0.08873 0.08671 1.7953c0.047689 0.98739 0.15951 2.0215 0.24849 2.2979 0.22286 0.69246 0.87804 1.6248 1.1831 1.6835 0.40813 0.0786 1.6632-0.62034 2.6214-1.4598 0.68908-0.60371 1.0324-0.80119 1.5198-0.87429 1.2405-0.18603 2.1531 0.26226 2.6676 1.3104 0.27967 0.56975 0.33784 0.90441 0.33085 1.9034-0.015423 2.2052-0.45978 2.5904-2.8534 2.4735-1.5436-0.0754-1.5624-0.07244-2.2155 0.35016-0.93956 0.60797-1.4378 1.3181-1.5192 2.1651-0.055046 0.57284 0.013472 0.8709 0.38044 1.6551l0.44758 0.95645 1.8359-0.09692c1.0098-0.05334 2.4063-0.18918 3.1034-0.30193zm4.1823-7.386c0-0.03986 0.2246-0.20499 0.49911-0.36695 0.40411-0.23843 0.49911-0.38083 0.49911-0.74815 0-0.70285-1.1312-5.3056-1.3613-5.5388-0.12324-0.12493-0.41787-0.19313-0.74048-0.1714-0.33963 0.02288-0.48369-0.01309-0.39348-0.09823 0.12145-0.11462 0.62604-0.28748 3.03-1.038 0.43316-0.13523 0.409 0.07443-0.031713 0.27523-0.19391 0.08835-0.39115 0.31434-0.43829 0.50219-0.071901 0.2865 0.80541 4.4361 0.9734 4.6041 0.029594 0.02959 0.62054-1.1331 1.3132-2.5837 1.1457-2.3994 1.244-2.6713 1.0891-3.0114-0.15666-0.34383-0.21868-0.36616-0.77152-0.27784-0.88091 0.14074-0.53421-0.10325 0.96745-0.68084 0.70588-0.2715 1.3957-0.53878 1.533-0.59394 0.4225-0.16981 0.27403 0.12916-0.19741 0.39752-0.40446 0.23023-0.43772 0.30195-0.3638 0.78431 0.20725 1.3523 1.228 5.4986 1.3762 5.5902 0.09133 0.05645 0.33838 0.07219 0.549 0.03499 0.68116-0.12031 0.16044 0.19608-1.2277 0.74597-0.72901 0.28878-1.4028 0.49623-1.4973 0.461-0.094524-0.03523 6.947e-4 -0.1328 0.21163-0.21683 0.70995-0.28283 0.72935-0.52775 0.22711-2.8681-0.25338-1.1807-0.49505-2.1468-0.53705-2.1468-0.042007 0-0.64323 1.1802-1.3361 2.6226-1.0198 2.1232-1.2318 2.6746-1.1135 2.8958 0.11511 0.21508 0.26215 0.26062 0.6907 0.21394 0.86393-0.09411 0.41533 0.17038-1.1668 0.68792-0.78431 0.25657-1.5062 0.49602-1.6043 0.5321-0.098039 0.0361-0.17825 0.033-0.17825-0.0069zm18.083 5.2432c-0.0439-0.04395-0.12364 0.03528-0.17719 0.17588-0.07739 0.20323-0.06101 0.21962 0.07982 0.07982 0.09746-0.09668 0.14127-0.2118 0.09736-0.2557zm-43.537-5.9013c1.5698-0.32852 2.6291-0.71723 2.8314-1.039 0.1253-0.19931-0.0036-0.40394-0.73363-1.1641-0.9014-0.93872-0.95331-1.0326-0.79676-1.4405 0.32448-0.84557 5.8477-2.3484 10.518-2.8619l0.83842-0.09218-0.075778-1.3778c-0.096366-1.7522-0.39598-2.5938-1.2299-3.4545-1.1678-1.2054-2.333-1.2572-3.4749-0.15454-0.56239 0.54303-0.77196 0.65612-1.2159 0.65612-0.73421 0-1.3597-0.4815-1.8022-1.3873-0.45201-0.92534-0.55434-2.8934-0.18716-3.5995 0.62827-1.2082 1.8632-1.6143 3.6538-1.2014 0.74159 0.17097 1.5098-0.02805 1.7354-0.44962 0.08117-0.15168 0.10683-0.51552 0.05701-0.80854-0.15246-0.89666-0.94527-3.948-1.0574-4.0696-0.22562-0.24468-7.2535 1.0968-8.16 1.5575-0.56864 0.28904-0.60818 0.45648-0.20339 0.86128 0.42034 0.42034 0.61348 1.209 0.42636 1.7411-0.17531 0.49849-1.3951 1.4001-2.2641 1.6734-1.8655 0.58681-3.5685 0.35773-4.2805-0.5758-0.5719-0.7498-0.45642-1.4176 0.40197-2.3246 0.24012-0.25372 0.39934-0.49858 0.3538-0.54411-0.24634-0.24634-4.8458-0.026-6.441 0.30855l-0.41136 0.08628 0.08821 1.0896c0.13552 1.674-0.11937 3.6747-0.55131 4.3274-0.44638 0.67453-0.83393 0.77426-1.6277 0.41886-1.1069-0.49556-1.6044 0.01779-1.6333 1.6853-0.01192 0.68547 0.05299 1.0506 0.23646 1.3308 0.31419 0.47981 0.62427 0.48718 1.2445 0.02961 1.5229-1.1236 2.1874 0.30232 2.5088 5.3832l0.09697 1.533 0.444-0.0028c0.2442-0.0016 1.2782-0.09715 2.2978-0.21248 2.5626-0.28987 3.5655-0.27053 4.3494 0.08386 1.548 0.69989 2.0384 1.8598 1.1408 2.6982-0.48378 0.45192-0.54469 0.85219-0.17825 1.1714 0.5428 0.47285 1.2943 0.50311 3.1016 0.12488zm-4.9789-6.5572c-0.02798-0.04768-0.09806-0.43961-0.15573-0.87098l-0.10484-0.78431 0.30067 0.27005c0.25376 0.22792 0.43634 0.25587 1.1702 0.17917 0.47823-0.04999 0.92927-0.12781 1.0023-0.17296 0.20348-0.12576 0.0033-0.34757-0.31376-0.34757-0.79017 0-1.8546-0.96162-2.2596-2.0414-0.37775-1.0071-0.06834-2.241 0.7888-3.1456 0.91245-0.96298 2.9138-1.4158 4.2422-0.95988 2.2168 0.76085 2.7612 3.5876 0.99105 5.1457-0.3582 0.3153-0.70641 0.57328-0.7738 0.57328-0.06739 0-0.12253 0.06417-0.12253 0.1426 0 0.19414 0.63724 0.17477 1.4973-0.04552 0.48844-0.1251 0.75735-0.28144 0.85378-0.49636 0.21362-0.4761 0.29734-0.38717 0.45515 0.48348 0.10313 0.569 0.09975 0.81248-0.0118 0.85054-0.20382 0.06954-2.675 0.49023-2.8832 0.49082-0.08856 2.86e-4 -0.19392-0.33408-0.23579-0.7482-0.06847-0.67733-0.03737-0.78942 0.3263-1.1765 0.55679-0.59257 0.76144-1.4469 0.58072-2.4245-0.29333-1.5868-1.1561-2.4953-2.3697-2.4953-1.28 0-2.2765 1.1036-2.2563 2.4987 0.02046 1.4175 0.70306 2.7197 1.5609 2.9778 0.21343 0.06423 0.35998 0.31223 0.51623 0.87357 0.25224 0.90625 0.42368 0.78435-1.567 1.1142-0.64932 0.1076-1.2035 0.15663-1.2315 0.10896zm-15.113 5.6718c-0.19339-0.50048-0.3561-0.85239-0.36156-0.78201-0.0151 0.19442 0.5931 1.8121 0.65719 1.748 0.03082-0.03081-0.10222-0.46549-0.29562-0.96598zm63.491-1.6208c0.49724-0.47178 1.2914-1.3278 1.7647-1.9023 0.47336-0.57449 0.91415-0.99104 0.97952-0.92567 0.06536 0.06538 0.05684 0.55678-0.01896 1.092-0.14243 1.0057-0.10452 1.2347 0.20444 1.2347 0.56813 0 1.2976-1.4638 1.1672-2.3424-0.11334-0.76401 0.21413-1.9843 0.89812-3.3468 0.69626-1.3869 0.87444-2.1426 0.87444-3.7087 0-1.0983-0.03168-1.2629-0.23974-1.2457-0.37073 0.03063-0.60358-1.0068-0.64802-2.8871-0.02991-1.2655 0.0029-1.648 0.1391-1.6207 0.2704 0.05407 0.21897-0.53636-0.18582-2.1332-0.20024-0.78994-0.32932-1.5268-0.28684-1.6375 0.04263-0.1111 0.01407-0.16224-0.06374-0.11415-0.07754 0.04792-0.14097 0.02537-0.14097-0.05011 0-0.22859-1.2717 0.32911-1.6789 0.73625-0.35784 0.35784-0.36918 0.4086-0.1888 0.845 1.0914 2.6405 0.95956 4.0265-0.4488 4.7172-0.97926 0.48025-1.2426 0.16886-1.5973-1.8887-0.23351-1.3544-0.56767-1.8689-1.0654-1.6404-0.15786 0.07249-1.0982 0.83768-2.0897 1.7004-0.99145 0.86274-2.2611 1.8696-2.8214 2.2376-1.7093 1.1224-1.5723 0.92327-1.2569 1.8266 0.42947 1.2298 1.1887 2.8983 1.4452 3.1762 0.36848 0.39914 1.2637 0.37048 1.5876-0.05082 0.1457-0.18953 0.26634-0.41413 0.26808-0.4991 0.0018-0.08498 0.2178-0.40278 0.48013-0.70625 0.39405-0.45585 0.56444-0.54928 0.98026-0.53749 0.72569 0.02056 1.0972 0.271 1.4038 0.94628 0.36915 0.81304 0.37343 2.6508 0.0081 3.4466-0.41322 0.89986-0.73586 1.1056-1.811 1.1549-0.51728 0.02371-1.0307 0.11793-1.1409 0.20938-0.354 0.2938-0.50071 1.1756-0.35778 2.1503 0.20254 1.3812 0.5282 2.1219 1.2602 2.8661l0.66557 0.67665 0.50517-0.46058c0.27784-0.25332 0.912-0.84658 1.4092-1.3184zm2.6087-6.0984c-0.01047-0.68627-0.06367-1.2478-0.11819-1.2478-0.05453 0-0.26309 0.15372-0.46346 0.3416-0.2831 0.26546-0.43582 0.31416-0.68516 0.2185-0.4402-0.16888-0.4023-0.37694 0.0883-0.4847 0.41349-0.09082 1.7763-1.1605 2.1423-1.6815 0.31343-0.44616 0.10702-3.0552-0.27378-3.4605-0.30121-0.32063-0.24752-0.49492 0.15248-0.49492 0.32909 0 0.38144 0.33209 0.5656 3.5879 0.10003 1.7685 0.10821 3.0393 0.0228 3.5422-0.11745 0.69156-0.13562 0.55664-0.15372-1.1408l-0.02053-1.9251-0.49525 0.53266c-0.42938 0.46182-0.49691 0.63251-0.50774 1.2834-0.0069 0.41292-0.06247 1.0716-0.12355 1.4638-0.10194 0.65449-0.11262 0.6106-0.13011-0.53476zm-0.72742-2.8821c-0.33496-0.4036-0.34502-1.2989-0.0221-1.9659 0.16647-0.34387 0.30267-0.70122 0.30267-0.7941 0-0.09289 0.06417-0.16888 0.1426-0.16888 0.07843 0 0.1426 0.06417 0.1426 0.1426 0 0.07843 0.08541 0.1426 0.18981 0.1426 0.51061 0 0.76185 1.5629 0.3706 2.3055-0.30363 0.57623-0.80396 0.72652-1.1262 0.33827zm0.84595-0.49532c0.18446-0.34467 0.1886-1.2929 0.0069-1.578-0.1038-0.16282-0.19517-0.17724-0.38263-0.06039-0.34933 0.21776-0.4997 0.90069-0.31943 1.4508 0.17052 0.52029 0.47338 0.60203 0.69516 0.18763zm-58.337 8.315c0.44532-0.08906 0.44562-0.08979 0.44545-1.0339-2.39e-4 -1.3476-0.41004-4.6908-0.64348-5.2494-0.24639-0.58971-0.46218-0.59176-1.2844-0.01223-0.6165 0.43455-0.67403 0.44839-1.0309 0.24809-0.70526-0.39585-0.96264-1.0618-0.96264-2.4909 0-1.4185 0.17295-1.9248 0.82156-2.4048 0.35766-0.2647 0.44916-0.27474 0.99821-0.10948 1.2814 0.38567 1.3188 0.38063 1.616-0.21791 0.23265-0.46857 0.26823-0.8328 0.24635-2.5221-0.01409-1.086-0.05677-2.0057-0.09494-2.0438-0.03814-0.03815-0.7249 0.03484-1.5261 0.16222-1.8092 0.28764-2.6087 0.19308-3.1776-0.37579-0.35734-0.35734-0.39812-0.47931-0.31265-0.93495 0.05406-0.2882 0.22129-0.76507 0.3716-1.0597 0.52494-1.029 0.2026-1.6777-0.73164-1.4725-0.555 0.1219-0.59915 0.21982-0.66897 1.4834-0.06937 1.2554-0.30539 1.8391-0.98502 2.4358-0.57666 0.50632-0.80131 0.52459-1.7021 0.13846-0.40868-0.17518-0.72868-0.23857-0.80732-0.15993-0.28837 0.28836-0.56666 3.3096-0.58658 6.3681-0.0245 3.7621 0.12962 4.7089 0.8726 5.3613 0.78012 0.68496 0.86383 0.59202 0.78066-0.86673-0.08018-1.4063 0.03302-1.7138 0.63108-1.7138 0.47774 0 1.3892 0.48869 1.7376 0.93164 0.4333 0.55086 0.63968 1.692 0.48247 2.6677-0.15985 0.99206-0.03322 1.3038 0.74394 1.8316 0.69861 0.47444 1.8311 0.83779 3.0583 0.98121 0.51808 0.06055 1.0142 0.11852 1.1024 0.12882 0.08824 0.01036 0.36096-0.02136 0.60606-0.07038zm-6.929-7.0699c-0.50306-0.53699-0.6397-1.0967-0.68923-2.8231-0.04616-1.6101-0.04478-1.6186 0.07683-0.47103 0.19143 1.8062 0.8171 2.9232 1.4923 2.6641 0.32695-0.12546 0.50548-0.52583 0.50548-1.1336v-0.52793l-0.37595 0.37595c-0.73951 0.73951-0.96504 0.40023-0.9734-1.4643l-0.0057-1.1986-0.49049-0.16598c-0.26978-0.09128-0.5138-0.23589-0.54228-0.32134-0.10532-0.31595 0.26726-0.32976 1.1919-0.04417 0.7555 0.23335 0.9919 0.25776 1.1583 0.11962 0.18045-0.14976 0.16585-0.20862-0.1065-0.42916-0.1736-0.14058-0.47188-0.25559-0.66283-0.25559-0.75858 0-1.3375-1.1742-0.91114-1.8482 0.0951-0.15034 0.12801-0.07715 0.11834 0.26314-0.0151 0.53061 0.14898 0.67616 0.90642 0.80413 0.66433 0.11223 0.98168 0.46211 1.0793 1.1899 0.06333 0.4722 0.1495 0.599 0.48702 0.71666 0.43898 0.15303 0.56681 0.58559 0.17305 0.58559-0.13036 0-0.57878-0.10773-0.99649-0.2394-0.4177-0.13167-0.79795-0.20091-0.84499-0.15387-0.04705 0.04704-0.1209 0.47563-0.16414 0.95241-0.08157 0.89953 0.08518 1.149 0.38881 0.58167 0.39666-0.74116 0.92824 0.11574 0.91116 1.4688-0.0075 0.5929-0.09148 0.93607-0.29664 1.2121-0.38378 0.51635-1.0197 0.57962-1.4295 0.14222zm37.496 3.5873c0.88639-0.1816 1.795-0.50169 2.7708-0.97615 2.2251-1.0818 2.5287-1.5569 1.4387-2.2512-1.1175-0.71181-1.3904-1.0395-1.3904-1.6698 0-0.51009 0.090322-0.66021 0.82996-1.3795 0.88578-0.86139 1.6118-1.2095 3.5779-1.7156 1.2802-0.32954 2.1653-0.34612 2.7355-0.05127 0.79408 0.41064 0.86932 1.3873 0.19997 2.5957-0.3224 0.58203-0.32465 0.60606-0.056888 0.60606 0.39495 0 3.1539-1.0798 5.3071-2.0771l1.827-0.84623-0.08664-1.0399c-0.11113-1.3339-0.48898-2.5219-1.2568-3.9512-0.53684-0.99941-0.66587-1.1461-1.041-1.1834-0.3897-0.03873-0.45724 0.02165-0.75079 0.67118-0.38879 0.86026-1.0434 1.3134-2.035 1.4087-0.57828 0.05556-0.79072 0.0043-1.2538-0.30208-1.1291-0.74718-1.9347-3.2725-1.3838-4.3378 0.30344-0.58679 0.33842-0.60319 1.7001-0.79685l1.1704-0.16645-0.03678-0.49872c-0.045199-0.61288-0.89692-2.3903-1.3452-2.8072l-0.32924-0.30621-2.0677 0.69353c-3.2122 1.0774-4.7589 1.2284-5.6227 0.54883-0.42732-0.33613-0.45458-0.67144-0.13166-1.6192 0.22332-0.65542 0.22198-0.69877-0.027258-0.88101-0.59153-0.43254-2.7958-0.073238-4.2255 0.68876-1.4104 0.75175-1.276 1.4123 0.38582 1.8954 1.2293 0.35736 1.4997 1.0539 0.76961 1.9821-0.43622 0.55457-1.1389 0.86222-2.913 1.2754-1.2828 0.29873-4.789 0.95416-5.1043 0.95416-0.04487 0 0.07784 0.56149 0.27268 1.2478 0.87699 3.089 0.88595 4.1495 0.04013 4.7517-0.69591 0.49553-1.2677 0.58597-2.3158 0.36626-0.89984-0.18862-1.8062-0.14117-2.223 0.11636-0.81335 0.50268-0.72017 3.2397 0.13956 4.0994 0.5253 0.5253 0.87001 0.50311 1.3903-0.08948 0.62275-0.70928 1.1597-0.93774 2.204-0.93774 0.75071 0 1.0157 0.06953 1.5455 0.40552 1.4974 0.94961 2.2114 2.3896 2.3711 4.7818l0.084495 1.2658 1.759-0.10021c0.96743-0.05512 2.3524-0.2218 3.0778-0.37041zm1.0762-10.938c-2.1425-2.6321-2.6838-3.1834-3.2481-3.3079-0.55804-0.12319-0.54925-0.12845 0.97165-0.58172 0.98616-0.2939 1.5304-0.28205 0.98794 0.02152-0.1366 0.07644-0.24837 0.24058-0.24837 0.36475 0 0.21923 1.2496 1.8269 2.5076 3.2261 0.6948 0.77278 0.63336 0.81894 0.90396-0.67916 0.14569-0.80656 0.12019-0.85335-1.2273-2.2521-0.52887-0.549-0.90249-0.81997-1.1306-0.81997-0.6486 0-0.33599-0.22945 0.7465-0.54792 1.0319-0.30358 1.5534-0.30599 1.015-0.0047-0.1366 0.07644-0.24837 0.25112-0.24837 0.38817 0 0.25655 1.081 1.4127 1.2049 1.2887 0.038142-0.03814 0.11193-0.4317 0.16398-0.87457 0.092056-0.78326 0.084399-0.8078-0.28063-0.89942-0.43118-0.10822-0.50564-0.34847-0.108-0.34847 0.147 0 0.53886-0.09583 0.8708-0.21294 0.73086-0.25786 0.99339-0.14823 0.5258 0.21957-0.26063 0.20501-0.40233 0.55608-0.59496 1.474l-0.25285 1.2049 0.82868 0.93805c0.45578 0.51593 0.863 0.90374 0.90493 0.8618 0.091634-0.09163 0.42496-3.1644 0.43668-4.0255 0.00771-0.56732-0.021744-0.61563-0.42447-0.69618-0.56068-0.11213-0.44719-0.2075 0.58226-0.4893 0.91873-0.25149 1.1717-0.19605 0.70659 0.15481-0.26116 0.19699-0.34014 0.58156-0.64548 3.1427-0.19135 1.605-0.34911 3.0305-0.35056 3.1678-0.00458 0.42654-0.33686 0.26595-0.89717-0.43352-1.063-1.3271-1.2621-1.5157-1.3868-1.3139-0.063967 0.10349-0.22651 0.75558-0.36121 1.4491-0.14629 0.75318-0.31412 1.2609-0.41678 1.2609-0.094524 0-0.78562-0.75401-1.5358-1.6756zm29.692 2.9149c-0.0022-1.3345-0.16148-2.2376-0.39456-2.2376-0.17957 0-0.20158 0.20949-0.13863 1.3191 0.04116 0.72549 0.1208 1.431 0.17698 1.5678 0.17976 0.43779 0.35749 0.11384 0.35621-0.64931zm-11.853-0.73059c0.90693-0.55283 2.0054-1.3964 3.7465-2.8772 1.4138-1.2024 1.7441-1.3926 2.2137-1.2747 0.43697 0.10967 1.0074 1.2749 1.1258 2.3 0.13912 1.2035 0.19112 1.3432 0.50027 1.3432 0.40992 0 1.096-0.38108 1.2694-0.70511 0.29646-0.55394 0.17041-1.741-0.28098-2.646-0.2347-0.47059-0.42698-1.0619-0.42727-1.3141-6.94e-4 -0.61938 0.70748-1.4159 1.4325-1.6111 0.30325-0.08165 0.57998-0.19485 0.61495-0.25154 0.03498-0.05669-0.25248-0.9373-0.6388-1.9569-0.38631-1.0196-0.72785-2.0856-0.75898-2.369-0.063077-0.57414-1.2022-2.9188-1.2135-2.4977-0.011799 0.43962-0.3629 0.046016-1.5808-1.7719l-1.1059-1.6507-1.5479 0.49553c-0.85135 0.27254-1.5719 0.51451-1.6011 0.53771-0.02927 0.023201 0.21137 0.34276 0.53476 0.71015 0.46683 0.53034 0.58798 0.77876 0.58798 1.2056 0 1.3113-2.1104 1.8817-3.2899 0.88915-0.48302-0.40643-0.84554-1.0287-0.84554-1.4515 0-0.72124-0.75948-0.55518-2.847 0.62249-0.89916 0.50727-1.9901 1.0625-2.4242 1.2339-0.43417 0.17138-0.84423 0.35963-0.91125 0.41834-0.067025 0.058718 0.13707 0.44977 0.45353 0.86903 0.31646 0.41925 0.64953 0.95479 0.74015 1.1901 0.25746 0.66846 0.40516 1.8174 0.27699 2.1545-0.14143 0.372-0.8172 0.6262-1.6647 0.6262-0.34639 0-0.75116 0.06495-0.8995 0.14434-0.62653 0.33531-0.43595 1.9076 0.38085 3.1418 0.46717 0.70593 0.95814 0.82305 1.8312 0.43684 0.53-0.23444 0.70883-0.41269 0.9413-0.93823 0.3912-0.88438 0.81568-1.1516 1.4806-0.93221 0.63052 0.20809 1.0539 0.75577 1.772 2.2925 0.53111 1.1365 0.91057 2.388 1.0889 3.5911 0.04358 0.29412 0.11608 0.53476 0.16108 0.53476 0.045 0 0.44317-0.22026 0.8848-0.48946zm4.368-6.3388c-0.76188-0.35042-1.811-1.4457-2.3457-2.4488-0.23927-0.44892-0.43504-0.86739-0.43504-0.92993 0-0.06255 0.45329 0.37822 1.0073 0.97948 1.0976 1.1912 1.7523 1.521 2.4743 1.2465 0.49463-0.18806 0.7991-0.82561 0.5034-1.0541-0.80198-0.61971-1.7034-2.273-1.7034-3.1243 0-1.3223 0.81374-1.4818 1.4592-0.28593 1.0966 2.0315 1.248 4.8478 0.30062 5.5929-0.45183 0.35541-0.53714 0.35705-1.2608 0.02423zm1.2121-3.6957c0-0.28529-0.71341-1.4546-0.88747-1.4546-0.26624 0-0.07397 0.69263 0.32745 1.1796 0.49742 0.60346 0.56003 0.63419 0.56003 0.27494zm-62.255 6.2495c0.54619-0.20766 0.93496-0.94912 0.93652-1.7861 0.0025-1.4993 0.54299-2.3529 1.489-2.3529 1.0511 0 1.2672 0.77166 0.60636 2.1658-0.45976 0.97006-0.47093 1.1341-0.1 1.4698 0.25122 0.22735 0.46352 0.24714 1.8182 0.16944 0.84355-0.04838 1.7263-0.14364 1.9615-0.21169l0.42781-0.12373-0.04989-1.3549c-0.07732-2.0992 0.50127-3.8989 1.5892-4.9431 0.43574-0.41823 0.57861-0.47208 1.1892-0.44825 1.7559 0.068542 1.9416 0.00193 2.2847-0.81871 0.21872-0.52326 0.24957-1.4394 0.05861-1.7411-0.09278-0.1466-0.36878-0.19376-0.98639-0.16856-0.7904 0.032254-0.87713 0.00506-1.1074-0.34627-0.21903-0.33427-0.22926-0.47928-0.08305-1.1764 0.09173-0.43731 0.13699-0.8249 0.10058-0.8613-0.03643-0.036408-0.78947 0.10412-1.6735 0.3123-0.884 0.20817-1.7196 0.37794-1.8568 0.37727-0.39518-0.00193-0.30736-0.67048 0.18983-1.4453 0.4871-0.75909 0.44388-1.0538-0.13329-0.90896-0.55672 0.13973-0.73784 0.33943-1.1641 1.2835-0.43684 0.96742-0.69907 1.2453-1.4851 1.5737-0.38807 0.16215-0.74904 0.20253-1.225 0.13707-0.80503-0.11072-0.8611-0.050495-1.9256 2.0682-0.51652 1.028-0.69185 1.5454-0.72701 2.1452-0.04906 0.83726-0.63793 2.8345-0.99999 3.3918-0.11865 0.18262-0.29704 0.30084-0.39641 0.26271-0.12627-0.04846-0.28099 0.35561-0.51384 1.342-0.18324 0.77621-0.30571 1.4329-0.27216 1.4593 0.0903 0.07109 1.471 0.64316 1.5847 0.6566 0.05374 0.0064 0.26224-0.05102 0.46339-0.1275zm4.0735-5.677c-0.53829-0.18481-0.5753-0.97071-0.0713-1.5145 0.56082-0.60513 0.41603-0.76986-0.17825-0.20281-0.47646 0.45463-0.64118 0.51952-1.511 0.59526-0.84527 0.0736-0.96485 0.0553-0.89126-0.13647 0.04673-0.12181 0.08499-0.28022 0.08499-0.35201 0-0.21835 1.0178-1.2722 1.2287-1.2722 0.2492 0 0.24707 0.060536-0.02028 0.57749l-0.21757 0.42072h0.54739c0.42206 0 0.64123-0.097943 0.95725-0.42781 0.22542-0.23529 0.47075-0.42781 0.54517-0.42781 0.2352 0-0.03246 1.3219-0.33232 1.641-0.15628 0.16636-0.28415 0.37854-0.28415 0.47153 0 0.31754 0.63037 0.16983 0.95208-0.22309 0.29526-0.36062 0.32149-0.36836 0.32621-0.09616 0.0079 0.45367-0.74468 1.081-1.1357 0.94679zm-1.7084-1.9592c0.09921-0.11954 0.1407-0.25703 0.0922-0.30552-0.10357-0.10357-0.52287 0.21538-0.52287 0.39773 0 0.19643 0.23241 0.14666 0.43066-0.092212zm2.6398 0.3243c0.14073-0.47503 1.0434-2.6997 1.1309-2.7873 0.04149-0.041501 0.23253-0.00385 0.42453 0.083604 0.31095 0.14168 0.33492 0.20842 0.21944 0.61107-0.14989 0.52264-0.41734 0.9593-1.107 1.8074-0.54148 0.66585-0.81528 0.78277-0.66787 0.2852zm0.98854-1.2096c0.36973-0.54411 0.4614-0.89381 0.2343-0.89381-0.07004 0-0.16047 0.080209-0.20095 0.17825-0.04048 0.09804-0.17656 0.41889-0.30237 0.71301-0.29098 0.68018-0.19208 0.68112 0.26902 0.00253zm28.09 3.8694c3.094-0.71118 3.9722-1.5258 2.1451-1.9897-0.95909-0.24352-1.7075-1.0374-1.5799-1.6757 0.12649-0.63243 0.57068-1.0408 1.785-1.6409 1.0251-0.50662 1.1217-0.52636 2.576-0.52636 2.2342 0 2.5749 0.30386 2.0543 1.8319-0.33526 0.98395-0.15148 1.1513 1.1523 1.0494 0.88946-0.069517 5.4933-1.412 5.4933-1.6019 0-0.034999-0.59409-0.78638-1.3202-1.6698-2.2198-2.7005-2.3503-2.9811-1.7782-3.8235 0.33275-0.49006 0.33856-0.49204 1.4414-0.49204 0.93113 0 1.1397-0.044041 1.3109-0.27681 0.11197-0.15224 0.20357-0.37885 0.20357-0.50357 0-0.37775-0.97938-1.8196-1.2914-1.9012-0.17196-0.044968-0.61681 0.09468-1.0833 0.34006-0.43533 0.229-0.98791 0.41636-1.228 0.41636-0.70279 0-1.5838-0.61823-2.1797-1.5295-0.29614-0.45288-0.54829-0.83836-0.56034-0.85661-0.012052-0.018252-0.91606 0.22805-2.0089 0.54734-2.01 0.58725-3.4418 0.81113-4.112 0.64294-0.48775-0.12242-0.86195-0.72221-0.82187-1.3173l0.032423-0.48147h-1.1594c-1.1956 0-2.0761 0.26563-2.2327 0.67357-0.042416 0.11055 0.12375 0.40803 0.3696 0.66169 0.24567 0.25347 0.44551 0.52196 0.4441 0.59666-0.00144 0.074694-0.26715 0.35559-0.59053 0.62421-0.62025 0.51522-2.2571 1.1391-3.7688 1.4365l-0.86673 0.17052 0.2568 1.5074c0.14124 0.82908 0.31833 1.5689 0.39352 1.6441 0.23328 0.23328 0.8601-0.026475 1.5104-0.62592 1.1961-1.1025 2.2731-1.0028 3.0906 0.28621 0.62948 0.99258 0.76339 1.6437 0.44861 2.1812-0.46911 0.801-0.90651 1.0088-2.3413 1.1123-1.0385 0.074911-1.3478 0.14887-1.5015 0.35905-0.23212 0.31745-0.23097 0.27112-0.04438 1.7826 0.13074 1.0591 0.65579 3.6262 0.78928 3.8591 0.06663 0.11624 3.0681-0.37328 4.9719-0.81088zm1.4674-7.3651c0.607-0.95714 0.95156-2.2156 0.8295-3.0295-0.095391-0.63609-0.11881-0.66425-0.48176-0.57908-1.1221 0.26331-2.4492 0.7066-2.4492 0.81812 0 0.070131 0.12834 0.37908 0.2852 0.68655 0.35898 0.70365 0.35807 0.71301-0.068891 0.71301-0.28212 0-0.42824-0.1463-0.71881-0.71971-0.20059-0.39584-0.46373-0.75771-0.58477-0.80416-0.33495-0.12853 0.050133-0.32369 0.65946-0.33421 0.27451-0.00469 0.69124-0.090527 0.92606-0.19064l0.42696-0.18202-0.38899-0.3605c-0.43938-0.4072-0.3875-0.546 0.20408-0.546 0.30353 0 0.44217 0.091008 0.54311 0.3565 0.16046 0.42205 0.28521 0.43458 1.17 0.11746 0.51558-0.18479 0.74901-0.20485 1.0084-0.086674 0.3127 0.14248 0.33355 0.22033 0.28387 1.0597-0.08795 1.4858-0.5533 2.4659-1.5815 3.331l-0.47396 0.39874zm4.0749-0.28577c-0.073141-0.09804-0.25404-0.46702-0.40199-0.81996-0.14795-0.35294-0.28678-0.66675-0.30851-0.69736-0.021732-0.030605-0.29807 0.17795-0.6141 0.46345-0.31602 0.28551-0.60606 0.51911-0.64454 0.51911-0.038467 0 0.16111-0.30271 0.44352-0.67268 0.57463-0.75281 0.76806-1.1783 0.76806-1.6895 0-0.27306 0.074345-0.34722 0.34809-0.34722 0.47266 0 0.55987 0.19813 0.30454 0.69188-0.23137 0.44743-0.16584 0.88125 0.25649 1.6979 0.36753 0.71072 0.24721 1.3889-0.15157 0.85436zm-40.119 7.2465c0.30068-0.87394 0.38333-1.524 0.16346-1.2857-0.19361 0.20985-0.73062 1.7493-0.73062 2.0945 0 0.48062 0.24255 0.13475 0.56716-0.80873zm67.374 0.73921c-0.31347-1.0138-0.96061-2.6789-1.0186-2.6209-0.07573 0.07573 0.94992 2.9418 1.0528 2.9418 0.03578 0 0.02043-0.14438-0.03413-0.32086zm-15.464-6.4838c0.82352-0.43724 1.7421-0.92268 2.0413-1.0787 1.1717-0.61126 2.161-0.25279 2.5091 0.90921 0.26017 0.86838 0.59524 1.1276 1.4577 1.1276 0.79433 0 1.6924-0.42734 1.6924-0.80532 0-0.2969-0.25829-0.75547-0.73392-1.303-0.70374-0.81015-0.50527-1.0771 1.2602-1.6951l1.1679-0.40886-1.3462-1.6371c-0.84073-1.0224-1.3462-1.7611-1.3462-1.9673-2.1e-5 -0.41414-1.4317-1.8802-1.8361-1.8802-0.15735 0-0.32401-0.061367-0.37037-0.13637-0.04635-0.075007-0.17621-0.1011-0.28856-0.057983-0.23357 0.089624-0.64125-0.1756-2.3821-1.5497l-1.2408-0.97941-0.86262 0.17817c-0.47444 0.097991-0.86262 0.22078-0.86262 0.27285 0 0.052072 0.25786 0.27337 0.57301 0.49177 0.75564 0.52366 0.88124 1.0068 0.37493 1.4423-0.44549 0.3832-1.1809 0.54932-1.8642 0.42113-0.47169-0.088492-0.67708-0.25491-1.4018-1.1358-0.31028-0.37714-0.41115-0.40975-1.2115-0.39166-0.56967 0.012883-1.5328 0.22216-2.7716 0.60225-1.0442 0.32038-1.9209 0.6046-1.9483 0.63158-0.10606 0.10452 0.76919 1.5347 1.097 1.7926 0.45715 0.35959 0.70051 0.34387 1.5337-0.099123 0.55564-0.29544 0.83694-0.35793 1.3774-0.306 0.75229 0.072286 1.103 0.32152 1.6384 1.1644 0.48853 0.76903 0.60943 1.2726 0.44688 1.8614-0.18799 0.68083-0.54992 0.84308-1.6331 0.7321-0.71145-0.072888-0.93676-0.045582-1.1178 0.13545-0.56968 0.56968-0.21564 1.2449 1.9923 3.7996l1.076 1.245 0.74103-0.29033c0.40757-0.15968 1.4148-0.64808 2.2384-1.0853zm1.7825-3.2603c-0.56015-0.28666-1.3988-1.3378-1.9441-2.4368-0.5371-1.0823-0.47659-1.5835 0.25895-2.1445 0.65656-0.50079 1.305-0.48462 2.057 0.051277 0.3134 0.22332 0.65901 0.46752 0.76802 0.54265 0.13702 0.09444 0.28128 0.061427 0.46734-0.10695 0.37184-0.33652 0.45426-0.30477 1.0944 0.42163 0.45636 0.51782 0.52366 0.66294 0.3565 0.76869-0.30608 0.19365-0.35836 0.1744-0.8432-0.31044-0.63484-0.63483-0.68556-0.41518-0.08563 0.37078 0.641 0.83975 0.65182 1.2371 0.0454 1.6669-0.2549 0.18067-0.69416 0.57007-0.97613 0.86532-0.5785 0.60576-0.60824 0.61348-1.1985 0.3114zm1.2644-0.59948c0.08918-0.1443-1.2499-1.9141-2.256-2.9814-0.65761-0.69772-0.78143-0.77836-0.78581-0.51181-0.0065 0.39961 1.1332 2.2006 1.8979 2.9991 0.54196 0.56584 0.98203 0.75596 1.1438 0.49416zm0.85238-0.70806c0.30215-0.49019-2.7445-3.8049-3.1367-3.4127-0.04794 0.047942 0.37342 0.58036 0.93636 1.1831 0.56294 0.60279 1.224 1.3751 1.469 1.7162 0.43836 0.61041 0.60111 0.72463 0.73138 0.51329zm8.5041 4.4207c-0.0017-0.13725-0.39172-0.85089-0.8669-1.5859-0.60994-0.94341-0.90852-1.2917-1.0155-1.1848s0.1292 0.57325 0.80332 1.5859c0.52517 0.78887 0.98347 1.4343 1.0184 1.4343 0.03496 0 0.06226-0.11229 0.06063-0.24955zm-59.47-1.0523c0.35068-0.12225 0.53014-0.31987 0.74443-0.8198 0.65868-1.5366 1.9743-2.4859 2.5253-1.8221 0.15602 0.188-0.10752 0.85734-0.694 1.7626-0.11202 0.1729-0.16657 0.35147-0.12122 0.39681 0.04534 0.045342 0.90922-0.13234 1.9197-0.39485l1.8373-0.47729 0.7431-1.4168c0.78794-1.5023 1.2684-2.7327 1.1237-2.8775-0.04806-0.048087-0.34631 0.05808-0.66272 0.23591-0.31641 0.17783-0.66864 0.28752-0.78271 0.24374-0.34338-0.13177-0.23678-0.86084 0.21758-1.4881 0.49956-0.68962 1.0787-1.0247 1.771-1.0247 0.52497 0 0.91455-0.37608 1.4141-1.3652l0.22136-0.43824-0.61581 0.034771c-0.3387 0.019119-0.87738 0.1682-1.1971 0.33129-0.31969 0.16309-0.68154 0.29653-0.80412 0.29653-0.19472 0-0.19094-0.048833 0.03-0.38664 0.37235-0.56939 0.0084-0.286-0.66385 0.51703-0.49948 0.59658-0.53886 0.6876-0.26672 0.61643 0.25595-0.066929 0.17505 0.084098-0.40781 0.76131-0.39991 0.46464-1.0931 1.3582-1.5403 1.9856-0.74204 1.0409-0.7867 1.1449-0.5102 1.1872 0.23776 0.036396 0.28312 0.11317 0.21062 0.3565-0.11175 0.37502-0.59104 0.89873-0.7119 0.77787-0.04774-0.04775-0.01047-0.22947 0.08285-0.40382 0.15791-0.29507 0.14391-0.31208-0.20236-0.24589-0.2046 0.039105-0.372 0.043451-0.372 0.00963 0-0.03382 0.1816-0.32973 0.40354-0.65758 0.65213-0.96332 0.6738-1.0135 0.39092-0.90493-0.1378 0.052878-0.41409 0.13719-0.61399 0.18736l-0.36345 0.091213 0.26974-0.46262c0.34705-0.59521 0.85436-1.1471 1.0545-1.1471 0.08617 0-0.01598 0.22634-0.22698 0.50299-0.42131 0.55236-0.40357 0.70347 0.06233 0.53113 0.29524-0.10921 2.0558-2.1847 1.9461-2.2944-0.02987-0.029859-0.23446 0.072816-0.45466 0.22818-0.2202 0.15536-0.72122 0.44617-1.1134 0.64624-0.90508 0.46176-2.7862 2.346-2.8411 2.8457-0.05355 0.48771-1.0675 1.7911-1.4823 1.9054-0.20121 0.055455-0.60569 0.50663-1.0339 1.1532-0.38685 0.58415-0.70335 1.0895-0.70335 1.1229 0 0.1241 0.97115 0.055431 1.4177-0.10024z" fill="#fff" stroke-width=".1426"/>
 </g>
</svg>
