<?xml version="1.0" encoding="UTF-8" standalone="no"?>
<!-- Created with Inkscape (http://www.inkscape.org/) -->

<svg
   width="74.613533mm"
   height="74.70121mm"
   viewBox="0 0 74.613533 74.70121"
   version="1.1"
   id="svg5633"
   inkscape:version="1.1 (ce6663b3b7, 2021-05-25)"
   sodipodi:docname="youtube.svg"
   xmlns:inkscape="http://www.inkscape.org/namespaces/inkscape"
   xmlns:sodipodi="http://sodipodi.sourceforge.net/DTD/sodipodi-0.dtd"
   xmlns="http://www.w3.org/2000/svg"
   xmlns:svg="http://www.w3.org/2000/svg">
  <sodipodi:namedview
     id="namedview5635"
     pagecolor="#ffffff"
     bordercolor="#666666"
     borderopacity="1.0"
     inkscape:pageshadow="2"
     inkscape:pageopacity="0.0"
     inkscape:pagecheckerboard="0"
     inkscape:document-units="mm"
     showgrid="false"
     inkscape:zoom="0.75187991"
     inkscape:cx="-44.554987"
     inkscape:cy="107.06497"
     inkscape:window-width="1840"
     inkscape:window-height="1016"
     inkscape:window-x="80"
     inkscape:window-y="27"
     inkscape:window-maximized="1"
     inkscape:current-layer="layer1" />
  <defs
     id="defs5630" />
  <g
     inkscape:label="Layer 1"
     inkscape:groupmode="layer"
     id="layer1"
     transform="translate(44.34468,12.717904)">
    <path
       style="fill:#ffffff;stroke-width:0.194779"
       d="m -16.730857,50.86253 c -6.86792,-0.144806 -12.629217,-0.432371 -15.517808,-0.77452 -7.069799,-0.837436 -9.620332,-3.664265 -10.536406,-11.677871 -0.945663,-8.272462 -0.945275,-18.762514 9.57e-4,-26.587318 0.968409,-8.0078752 3.544604,-10.7926124 10.710412,-11.57742552 5.833253,-0.63886735 21.28681,-0.98908428 33.6967473,-0.7636696 18.0358537,0.32759896 21.8418637,0.89431413 24.6123417,3.66479342 1.775164,1.7751632 2.676057,4.2882482 3.22373,8.9927307 0.922524,7.92447 0.930146,18.207108 0.01934,26.076104 -0.771696,6.667198 -2.515464,9.580242 -6.605589,11.034956 -1.580684,0.562209 -3.509124,0.848286 -7.668982,1.137646 -3.952803,0.274977 -19.7177486,0.710949 -23.4171922,0.647616 -0.9105752,-0.01558 -4.7435008,-0.09348 -8.5176008,-0.173042 z M -4.1743338,30.559685 c 5.06030581,-2.91342 9.2017959,-5.341696 9.2032982,-5.396168 0.00418,-0.124218 -18.4492094,-10.785629 -18.8164094,-10.871553 -0.226598,-0.053 -0.269177,1.667916 -0.269177,10.879775 0,10.340879 0.01878,10.935651 0.340869,10.813895 0.187468,-0.07094 4.4811136,-2.512529 9.5414192,-5.425949 z"
       id="path7189" />
  </g>
</svg>
